M48
;DRILL file {KiCad 6.0.0-rc1-unknown-0cca1c6~65~ubuntu16.04.1} date Fri Aug  3 14:12:10 2018
;FORMAT={-:-/ absolute / inch / decimal}
FMAT,2
INCH,TZ
T1C0.0118
T2C0.0118
T3C0.0157
T4C0.0197
T5C0.0236
T6C0.0354
T7C0.0394
T8C0.0472
T9C0.0866
%
G90
G05
M72
T1
X4.3797Y-5.8088
T2
X4.3088Y-5.8403
X4.3088Y-5.8797
X4.3403Y-5.8088
X4.3403Y-5.9112
X4.3797Y-5.9112
X4.4112Y-5.8403
X4.4112Y-5.8797
T3
X3.625Y-4.47
X3.625Y-4.655
X3.635Y-6.435
X3.64Y-4.535
X3.64Y-4.735
X3.64Y-6.63
X3.67Y-5.675
X3.675Y-4.345
X3.685Y-4.38
X3.69Y-4.555
X3.7Y-5.34
X3.7Y-6.67
X3.705Y-4.645
X3.705Y-4.68
X3.72Y-4.505
X3.73Y-5.11
X3.74Y-5.445
X3.74Y-5.835
X3.765Y-5.775
X3.79Y-4.825
X3.795Y-4.37
X3.8Y-5.34
X3.805Y-4.335
X3.81Y-5.1
X3.81Y-5.425
X3.815Y-3.93
X3.84Y-4.125
X3.84Y-4.175
X3.84Y-4.21
X3.845Y-6.65
X3.85Y-3.92
X3.88Y-3.94
X3.88Y-6.2
X3.88Y-6.235
X3.89Y-4.215
X3.9Y-4.25
X3.925Y-6.065
X3.94Y-4.415
X3.94Y-5.035
X3.94Y-5.07
X3.94Y-5.105
X3.945Y-4.605
X3.965Y-4.21
X3.985Y-5.68
X3.99Y-5.595
X3.99Y-5.63
X3.995Y-4.355
X4.015Y-6.27
X4.025Y-6.22
X4.055Y-4.78
X4.06Y-4.74
X4.08Y-4.325
X4.097Y-4.913
X4.105Y-5.765
X4.12Y-5.5
X4.12Y-5.53
X4.145Y-5.77
X4.15Y-4.575
X4.15Y-4.995
X4.165Y-4.72
X4.17Y-4.36
X4.175Y-4.875
X4.195Y-6.045
X4.21Y-5.515
X4.221Y-5.342
X4.225Y-4.415
X4.23Y-6.025
X4.24Y-4.83
X4.26Y-5.035
X4.285Y-4.09
X4.305Y-4.895
X4.31Y-5.55
X4.325Y-4.1
X4.33Y-4.205
X4.335Y-6.08
X4.34Y-4.05
X4.355Y-3.885
X4.36Y-4.1
X4.36Y-4.575
X4.365Y-4.185
X4.37Y-5.62
X4.375Y-5.655
X4.395Y-4.24
X4.395Y-4.275
X4.3976Y-4.5785
X4.405Y-4.75
X4.41Y-4.67
X4.425Y-4.72
X4.45Y-4.67
X4.45Y-5.965
X4.48Y-6.035
X4.49Y-4.525
X4.495Y-5.845
X4.505Y-4.37
X4.505Y-4.415
X4.51Y-4.265
X4.52Y-4.2
X4.53Y-5.965
X4.565Y-6.03
X4.57Y-5.859
X4.575Y-4.515
X4.575Y-4.72
X4.59Y-4.415
X4.605Y-4.315
X4.605Y-4.76
X4.625Y-4.14
X4.2506Y-5.1356
X4.2506Y-5.175
X4.2506Y-5.2144
X4.29Y-5.1356
X4.29Y-5.175
X4.29Y-5.2144
X4.3294Y-5.1356
X4.3294Y-5.175
X4.3294Y-5.2144
T4
X3.94Y-4.645
T5
X3.585Y-4.29
X3.595Y-5.915
X3.615Y-3.965
X3.67Y-4.06
X3.734Y-4.92
X3.755Y-6.58
X3.78Y-4.965
X3.785Y-6.04
X3.815Y-3.81
X3.85Y-6.14
X3.86Y-5.021
X3.885Y-5.59
X3.885Y-6.28
X3.895Y-5.5
X3.9Y-5.84
X3.91Y-6.495
X3.91Y-6.655
X3.935Y-5.65
X3.94Y-3.81
X3.978Y-5.167
X3.985Y-5.285
X3.995Y-5.98
X4.02Y-6.645
X4.035Y-4.455
X4.035Y-5.85
X4.055Y-5.98
X4.06Y-3.81
X4.08Y-4.455
X4.08Y-6.3758
X4.095Y-6.58
X4.1Y-5.72
X4.135Y-5.81
X4.145Y-6.645
X4.17Y-6.49
X4.175Y-3.81
X4.2Y-6.43
X4.21Y-6.58
X4.24Y-5.309
X4.25Y-4.74
X4.25Y-4.777
X4.26Y-6.49
X4.26Y-6.645
X4.29Y-3.81
X4.3087Y-4.66
X4.31Y-5.32
X4.315Y-6.58
X4.32Y-6.43
X4.355Y-6.3758
X4.365Y-4.435
X4.365Y-4.94
X4.365Y-4.985
X4.365Y-6.49
X4.37Y-6.645
X4.39Y-3.81
X4.41Y-4.94
X4.41Y-4.985
X4.41Y-5.03
X4.43Y-6.58
X4.435Y-5.175
X4.446Y-5.535
X4.45Y-6.3758
X4.454Y-5.136
X4.455Y-4.94
X4.455Y-4.985
X4.475Y-5.045
X4.475Y-5.24
X4.5Y-6.075
X4.52Y-4.665
X4.52Y-4.71
X4.0197Y-4.0211
X4.0197Y-4.1091
X4.0197Y-4.2061
X4.1107Y-4.0211
X4.1107Y-4.2061
X4.2037Y-4.0211
X4.2037Y-4.1091
X4.2037Y-4.2061
T6
X3.7653Y-6.4509
X3.8445Y-6.4508
T7
X3.6Y-4.8512
X3.6Y-4.9512
X3.6Y-5.0512
X3.6Y-5.1512
X3.6Y-5.2512
X3.6Y-5.3512
X3.6Y-5.4512
X3.6Y-5.5512
X3.6Y-5.6512
X3.6Y-5.7512
X4.6Y-4.8512
X4.6Y-4.9512
X4.6Y-5.0512
X4.6Y-5.1512
X4.6Y-5.2512
X4.6Y-5.3512
X4.6Y-5.4512
X4.6Y-5.5512
X4.6Y-5.6512
X4.6Y-5.7512
X4.04Y-6.1341
X4.09Y-6.2341
X4.14Y-6.1341
X4.19Y-6.2341
X4.24Y-6.1341
X4.29Y-6.2341
X4.34Y-6.1341
X4.39Y-6.2341
X4.44Y-6.1341
X4.49Y-6.2341
X4.1107Y-4.1141
T8
X4.36Y-5.86
T9
X3.9579Y-6.3758
X4.5721Y-6.3758
T5
X3.692Y-6.0883G85X3.6683Y-6.0883
G05
X3.692Y-6.3717G85X3.6683Y-6.3717
G05
X3.8286Y-6.0883G85X3.805Y-6.0883
G05
X3.8286Y-6.3717G85X3.805Y-6.3717
G05
T0
M30
