G04 #@! TF.GenerationSoftware,KiCad,Pcbnew,6.0.0-rc1-unknown-0cca1c6~65~ubuntu16.04.1*
G04 #@! TF.CreationDate,2018-08-03T14:11:54+03:00*
G04 #@! TF.ProjectId,ESP32-PoE_Rev_B,45535033322D506F455F5265765F422E,B*
G04 #@! TF.SameCoordinates,Original*
G04 #@! TF.FileFunction,Soldermask,Bot*
G04 #@! TF.FilePolarity,Negative*
%FSLAX46Y46*%
G04 Gerber Fmt 4.6, Leading zero omitted, Abs format (unit mm)*
G04 Created by KiCad (PCBNEW 6.0.0-rc1-unknown-0cca1c6~65~ubuntu16.04.1) date Fri Aug  3 14:11:54 2018*
%MOMM*%
%LPD*%
G01*
G04 APERTURE LIST*
%ADD10C,0.609600*%
%ADD11C,0.801600*%
%ADD12C,1.625600*%
%ADD13R,0.736600X1.117600*%
%ADD14R,0.482600X1.117600*%
%ADD15C,1.700000*%
%ADD16C,2.400000*%
%ADD17R,1.101600X1.501600*%
%ADD18R,1.117600X1.117600*%
%ADD19R,0.651600X0.601600*%
%ADD20R,1.101600X0.501600*%
%ADD21R,0.501600X1.101600*%
%ADD22R,2.901600X2.901600*%
%ADD23C,1.200000*%
%ADD24R,3.701600X3.701600*%
%ADD25R,0.800000X0.800000*%
%ADD26R,1.822400X1.822400*%
%ADD27R,0.351600X0.901600*%
%ADD28R,0.901600X0.351600*%
%ADD29R,0.601600X0.651600*%
%ADD30R,1.101600X0.351600*%
%ADD31R,1.625600X1.371600*%
%ADD32R,1.117600X0.482600*%
%ADD33R,1.117600X0.736600*%
%ADD34C,0.701600*%
%ADD35O,1.901600X1.301600*%
%ADD36C,1.101600*%
%ADD37R,0.609600X0.863600*%
%ADD38C,1.924000*%
%ADD39C,3.700000*%
%ADD40R,0.601600X1.101600*%
%ADD41R,1.601600X1.301600*%
%ADD42R,1.879600X1.117600*%
%ADD43R,1.371600X0.426600*%
%ADD44C,1.879600*%
%ADD45R,1.879600X1.879600*%
%ADD46R,1.501600X1.301600*%
%ADD47C,1.254000*%
%ADD48R,1.501600X1.501600*%
%ADD49C,1.501600*%
%ADD50R,1.371600X1.625600*%
G04 APERTURE END LIST*
D10*
G04 #@! TO.C,R7*
X105275000Y-153543000D02*
X104275000Y-153543000D01*
G04 #@! TD*
D11*
G04 #@! TO.C,BUT1*
X117359000Y-104267000D03*
X115559000Y-104267000D03*
G04 #@! TD*
G04 #@! TO.C,RST1*
X90921000Y-104267000D03*
X92721000Y-104267000D03*
G04 #@! TD*
D12*
G04 #@! TO.C,UEXT1*
X100330000Y-124333000D03*
X107950000Y-124333000D03*
G04 #@! TD*
D13*
G04 #@! TO.C,RM3*
X105029000Y-118745000D03*
X105029000Y-117221000D03*
X107569000Y-118745000D03*
X107569000Y-117221000D03*
D14*
X105918000Y-118745000D03*
X106680000Y-118745000D03*
X105918000Y-117221000D03*
X106680000Y-117221000D03*
G04 #@! TD*
D15*
G04 #@! TO.C,U9*
X102099600Y-106834800D03*
D16*
X104411000Y-104498000D03*
D15*
X106773200Y-106834800D03*
X102099600Y-102135800D03*
X106773200Y-102135800D03*
X104411000Y-102135800D03*
X104411000Y-106834800D03*
X102099600Y-104371000D03*
X106773200Y-104371000D03*
G04 #@! TD*
D17*
G04 #@! TO.C,T1*
X94300040Y-121320560D03*
X96202500Y-121320560D03*
X95247460Y-123530360D03*
G04 #@! TD*
D18*
G04 #@! TO.C,R38*
X108077000Y-126746000D03*
X106299000Y-126746000D03*
G04 #@! TD*
D19*
G04 #@! TO.C,R20*
X96520000Y-132207000D03*
X96520000Y-133223000D03*
G04 #@! TD*
G04 #@! TO.C,R21*
X94615000Y-133223000D03*
X94615000Y-132207000D03*
G04 #@! TD*
D20*
G04 #@! TO.C,U8*
X106616000Y-132645000D03*
X106616000Y-131845000D03*
X106616000Y-131045000D03*
X106616000Y-130245000D03*
D21*
X106966000Y-129095000D03*
X107766000Y-129095000D03*
X108566000Y-129095000D03*
X109366000Y-129095000D03*
X110166000Y-129095000D03*
X110966000Y-129095000D03*
D20*
X111316000Y-130245000D03*
X111316000Y-131045000D03*
X111316000Y-131845000D03*
X111316000Y-132645000D03*
D21*
X110966000Y-133795000D03*
X110166000Y-133795000D03*
X109366000Y-133795000D03*
X108566000Y-133795000D03*
X107766000Y-133795000D03*
X106966000Y-133795000D03*
D22*
X108966000Y-131445000D03*
D23*
X107966000Y-132445000D03*
X108966000Y-132445000D03*
X109966000Y-132445000D03*
X107966000Y-131445000D03*
X108966000Y-131445000D03*
X109966000Y-131445000D03*
X108966000Y-130445000D03*
X107966000Y-130445000D03*
X109966000Y-130445000D03*
G04 #@! TD*
D24*
G04 #@! TO.C,U4*
X110744000Y-148844000D03*
D25*
X112044000Y-149344000D03*
X112044000Y-148344000D03*
X111244000Y-147544000D03*
X110244000Y-147544000D03*
X109444000Y-148344000D03*
X109444000Y-149344000D03*
X110244000Y-150144000D03*
X111244000Y-150144000D03*
D26*
X110744000Y-148844000D03*
D27*
X108994000Y-151294000D03*
X109494000Y-151294000D03*
X109994000Y-151294000D03*
X110494000Y-151294000D03*
X110994000Y-151294000D03*
X111494000Y-151294000D03*
X111994000Y-151294000D03*
X112494000Y-151294000D03*
D28*
X113194000Y-150594000D03*
X113194000Y-150094000D03*
X113194000Y-149594000D03*
X113194000Y-149094000D03*
X113194000Y-148594000D03*
X113194000Y-148094000D03*
X113194000Y-147594000D03*
X113194000Y-147094000D03*
D27*
X112494000Y-146394000D03*
X111994000Y-146394000D03*
X111494000Y-146394000D03*
X110994000Y-146394000D03*
X110494000Y-146394000D03*
X109994000Y-146394000D03*
X109494000Y-146394000D03*
X108994000Y-146394000D03*
D28*
X108294000Y-147094000D03*
X108294000Y-147594000D03*
X108294000Y-148094000D03*
X108294000Y-148594000D03*
X108294000Y-149094000D03*
X108294000Y-149594000D03*
X108294000Y-150094000D03*
X108294000Y-150594000D03*
G04 #@! TD*
D19*
G04 #@! TO.C,R37*
X116459000Y-113792000D03*
X116459000Y-112776000D03*
G04 #@! TD*
D17*
G04 #@! TO.C,D4*
X116400000Y-116195000D03*
X112600000Y-116195000D03*
G04 #@! TD*
D29*
G04 #@! TO.C,C5*
X93345000Y-143129000D03*
X94361000Y-143129000D03*
G04 #@! TD*
D19*
G04 #@! TO.C,R16*
X91313000Y-165227000D03*
X91313000Y-166243000D03*
G04 #@! TD*
D30*
G04 #@! TO.C,U3*
X92723000Y-165370000D03*
X92723000Y-165870000D03*
X92723000Y-166370000D03*
X92723000Y-166870000D03*
X92723000Y-167370000D03*
X97523000Y-167370000D03*
X97523000Y-166870000D03*
X97523000Y-166370000D03*
X97523000Y-165870000D03*
X97523000Y-165370000D03*
G04 #@! TD*
D31*
G04 #@! TO.C,L1*
X104013000Y-149606000D03*
X106045000Y-149606000D03*
G04 #@! TD*
D17*
G04 #@! TO.C,Q2*
X96453960Y-131028440D03*
X94551500Y-131028440D03*
X95506540Y-128818640D03*
G04 #@! TD*
D14*
G04 #@! TO.C,RM2*
X95250000Y-107569000D03*
X94488000Y-107569000D03*
X95250000Y-109093000D03*
X94488000Y-109093000D03*
D13*
X96139000Y-107569000D03*
X96139000Y-109093000D03*
X93599000Y-107569000D03*
X93599000Y-109093000D03*
G04 #@! TD*
D32*
G04 #@! TO.C,RM1*
X107061000Y-141605000D03*
X107061000Y-142367000D03*
X108585000Y-141605000D03*
X108585000Y-142367000D03*
D33*
X107061000Y-140716000D03*
X108585000Y-140716000D03*
X107061000Y-143256000D03*
X108585000Y-143256000D03*
G04 #@! TD*
D34*
G04 #@! TO.C,USB-UART1*
X95626000Y-156242000D03*
X95626000Y-160242000D03*
D35*
X93476000Y-154642000D03*
X96946000Y-154642000D03*
X96946000Y-161842000D03*
X93476000Y-161842000D03*
G04 #@! TD*
D18*
G04 #@! TO.C,C7*
X101346000Y-152908000D03*
X99568000Y-152908000D03*
G04 #@! TD*
G04 #@! TO.C,C9*
X103759000Y-144018000D03*
X105537000Y-144018000D03*
G04 #@! TD*
G04 #@! TO.C,C13*
X104013000Y-152146000D03*
X105791000Y-152146000D03*
G04 #@! TD*
G04 #@! TO.C,C17*
X105283000Y-145542000D03*
X107061000Y-145542000D03*
G04 #@! TD*
D36*
G04 #@! TO.C,THERM1*
X93599000Y-163830000D03*
G04 #@! TD*
D18*
G04 #@! TO.C,C26*
X105029000Y-125730000D03*
X105029000Y-123952000D03*
G04 #@! TD*
D37*
G04 #@! TO.C,EN_CT1*
X113792000Y-134239000D03*
X113030000Y-134239000D03*
G04 #@! TD*
G04 #@! TO.C,EN_CT2*
X113030000Y-129286000D03*
X113792000Y-129286000D03*
G04 #@! TD*
D38*
G04 #@! TO.C,LAN_CON1*
X102616000Y-155806000D03*
X103886000Y-158346000D03*
X105156000Y-155806000D03*
X106426000Y-158346000D03*
X107696000Y-155806000D03*
X108966000Y-158346000D03*
X110236000Y-155806000D03*
X111506000Y-158346000D03*
X112776000Y-155806000D03*
X114046000Y-158346000D03*
D39*
X100531000Y-161946000D03*
X116131000Y-161946000D03*
X102616000Y-164996000D03*
X114046000Y-164996000D03*
G04 #@! TD*
D40*
G04 #@! TO.C,MICRO_SD1*
X100290000Y-108587000D03*
X101390000Y-108587000D03*
X102490000Y-108587000D03*
X103590000Y-108587000D03*
X104340000Y-108587000D03*
X105040000Y-108587000D03*
X105790000Y-108587000D03*
X106890000Y-108587000D03*
X107990000Y-108587000D03*
D41*
X109440000Y-110337000D03*
X98840000Y-110337000D03*
X109440000Y-114787000D03*
X98840000Y-114787000D03*
G04 #@! TD*
D42*
G04 #@! TO.C,C2*
X116459000Y-159258000D03*
X116459000Y-155702000D03*
G04 #@! TD*
D31*
G04 #@! TO.C,L5*
X101219000Y-118618000D03*
X103251000Y-118618000D03*
G04 #@! TD*
D17*
G04 #@! TO.C,Q3*
X94554040Y-134401560D03*
X96456500Y-134401560D03*
X95501460Y-136611360D03*
G04 #@! TD*
D18*
G04 #@! TO.C,R7*
X105664000Y-153543000D03*
X103886000Y-153543000D03*
G04 #@! TD*
D43*
G04 #@! TO.C,U1*
X93916500Y-150880000D03*
X93916500Y-150230000D03*
X93916500Y-149580000D03*
X93916500Y-148930000D03*
X93916500Y-148280000D03*
X93916500Y-147630000D03*
X93916500Y-146980000D03*
X93916500Y-146330000D03*
X93916500Y-145680000D03*
X93916500Y-145030000D03*
X101155500Y-145030000D03*
X101155500Y-145680000D03*
X101155500Y-146330000D03*
X101155500Y-146980000D03*
X101155500Y-147630000D03*
X101155500Y-148280000D03*
X101155500Y-148930000D03*
X101155500Y-149580000D03*
X101155500Y-150230000D03*
X101155500Y-150880000D03*
G04 #@! TD*
D18*
G04 #@! TO.C,C1*
X99314000Y-167894000D03*
X99314000Y-166116000D03*
G04 #@! TD*
D44*
G04 #@! TO.C,EXT1*
X91440000Y-130840000D03*
X91440000Y-128300000D03*
X91440000Y-125760000D03*
D45*
X91440000Y-123220000D03*
D44*
X91440000Y-133380000D03*
X91440000Y-135920000D03*
X91440000Y-141000000D03*
X91440000Y-138460000D03*
X91440000Y-143540000D03*
X91440000Y-146080000D03*
G04 #@! TD*
G04 #@! TO.C,EXT2*
X116840000Y-146080000D03*
X116840000Y-143540000D03*
X116840000Y-138460000D03*
X116840000Y-141000000D03*
X116840000Y-135920000D03*
X116840000Y-133380000D03*
D45*
X116840000Y-123220000D03*
D44*
X116840000Y-125760000D03*
X116840000Y-128300000D03*
X116840000Y-130840000D03*
G04 #@! TD*
D17*
G04 #@! TO.C,FET3*
X103571040Y-140116560D03*
X105473500Y-140116560D03*
X104518460Y-142326360D03*
G04 #@! TD*
D46*
G04 #@! TO.C,Q1*
X96096000Y-139916000D03*
X93896000Y-141516000D03*
X93896000Y-139916000D03*
X96096000Y-141516000D03*
G04 #@! TD*
D29*
G04 #@! TO.C,C4*
X95758000Y-138684000D03*
X96774000Y-138684000D03*
G04 #@! TD*
G04 #@! TO.C,R18*
X91186000Y-149098000D03*
X92202000Y-149098000D03*
G04 #@! TD*
G04 #@! TO.C,R19*
X92202000Y-148209000D03*
X91186000Y-148209000D03*
G04 #@! TD*
D19*
G04 #@! TO.C,R2*
X96393000Y-124079000D03*
X96393000Y-125095000D03*
G04 #@! TD*
G04 #@! TO.C,R5*
X96774000Y-168529000D03*
X96774000Y-169545000D03*
G04 #@! TD*
D29*
G04 #@! TO.C,R6*
X94488000Y-168656000D03*
X93472000Y-168656000D03*
G04 #@! TD*
D19*
G04 #@! TO.C,R8*
X95885000Y-168529000D03*
X95885000Y-169545000D03*
G04 #@! TD*
G04 #@! TO.C,R10*
X109728000Y-152908000D03*
X109728000Y-153924000D03*
G04 #@! TD*
G04 #@! TO.C,R11*
X108331000Y-152908000D03*
X108331000Y-153924000D03*
G04 #@! TD*
G04 #@! TO.C,R12*
X112014000Y-152908000D03*
X112014000Y-153924000D03*
G04 #@! TD*
G04 #@! TO.C,R13*
X110617000Y-152908000D03*
X110617000Y-153924000D03*
G04 #@! TD*
G04 #@! TO.C,R14*
X114681000Y-152146000D03*
X114681000Y-153162000D03*
G04 #@! TD*
G04 #@! TO.C,R15*
X115951000Y-151511000D03*
X115951000Y-152527000D03*
G04 #@! TD*
D29*
G04 #@! TO.C,R17*
X91313000Y-164338000D03*
X92329000Y-164338000D03*
G04 #@! TD*
D19*
G04 #@! TO.C,R22*
X91313000Y-167259000D03*
X91313000Y-168275000D03*
G04 #@! TD*
G04 #@! TO.C,R26*
X106934000Y-152400000D03*
X106934000Y-151384000D03*
G04 #@! TD*
G04 #@! TO.C,R33*
X105537000Y-129032000D03*
X105537000Y-128016000D03*
G04 #@! TD*
D29*
G04 #@! TO.C,R34*
X109982000Y-127635000D03*
X110998000Y-127635000D03*
G04 #@! TD*
G04 #@! TO.C,R35*
X102489000Y-120269000D03*
X101473000Y-120269000D03*
G04 #@! TD*
D19*
G04 #@! TO.C,R40*
X112776000Y-107569000D03*
X112776000Y-108585000D03*
G04 #@! TD*
G04 #@! TO.C,R46*
X93218000Y-118237000D03*
X93218000Y-117221000D03*
G04 #@! TD*
G04 #@! TO.C,C11*
X102616000Y-152781000D03*
X102616000Y-153797000D03*
G04 #@! TD*
G04 #@! TO.C,C15*
X113157000Y-152146000D03*
X113157000Y-153162000D03*
G04 #@! TD*
D29*
G04 #@! TO.C,C16*
X104521000Y-150876000D03*
X105537000Y-150876000D03*
G04 #@! TD*
G04 #@! TO.C,C18*
X105791000Y-147447000D03*
X106807000Y-147447000D03*
G04 #@! TD*
D47*
G04 #@! TO.C,FID4*
X92075000Y-96901000D03*
G04 #@! TD*
G04 #@! TO.C,FID5*
X116205000Y-96901000D03*
G04 #@! TD*
G04 #@! TO.C,FID6*
X116586000Y-168529000D03*
G04 #@! TD*
D48*
G04 #@! TO.C,BAT1*
X95638620Y-163852860D03*
D49*
X97650300Y-163850320D03*
G04 #@! TD*
D50*
G04 #@! TO.C,C3*
X101219000Y-116713000D03*
X103251000Y-116713000D03*
G04 #@! TD*
D19*
G04 #@! TO.C,C25*
X106553000Y-125603000D03*
X106553000Y-124587000D03*
G04 #@! TD*
D18*
G04 #@! TO.C,C10*
X98958400Y-126517400D03*
X98958400Y-128295400D03*
G04 #@! TD*
D19*
G04 #@! TO.C,R3*
X97282000Y-125095000D03*
X97282000Y-124079000D03*
G04 #@! TD*
M02*
