G04 #@! TF.GenerationSoftware,KiCad,Pcbnew,5.1.0-unknown-a7c8df5~94~ubuntu18.04.1*
G04 #@! TF.CreationDate,2019-03-22T16:10:05+02:00*
G04 #@! TF.ProjectId,ESP32-PoE_Rev_D,45535033-322d-4506-9f45-5f5265765f44,D*
G04 #@! TF.SameCoordinates,Original*
G04 #@! TF.FileFunction,Paste,Top*
G04 #@! TF.FilePolarity,Positive*
%FSLAX46Y46*%
G04 Gerber Fmt 4.6, Leading zero omitted, Abs format (unit mm)*
G04 Created by KiCad (PCBNEW 5.1.0-unknown-a7c8df5~94~ubuntu18.04.1) date 2019-03-22 16:10:05*
%MOMM*%
%LPD*%
G04 APERTURE LIST*
%ADD10R,1.200000X1.800000*%
%ADD11R,2.101600X1.001600*%
%ADD12R,1.001600X2.101600*%
%ADD13R,0.500000X0.550000*%
%ADD14R,1.754000X1.327000*%
%ADD15C,1.700000*%
%ADD16C,0.100000*%
%ADD17R,1.000000X1.400000*%
%ADD18R,0.550000X0.500000*%
%ADD19R,1.600000X3.000000*%
%ADD20R,1.650000X0.500000*%
%ADD21R,1.650000X0.325000*%
%ADD22R,1.000000X1.100000*%
%ADD23R,0.800000X0.800000*%
%ADD24R,1.016000X1.016000*%
%ADD25R,1.524000X1.270000*%
%ADD26R,1.778000X1.524000*%
%ADD27R,2.000000X1.700000*%
%ADD28R,3.600000X2.400000*%
%ADD29R,3.400000X2.700000*%
%ADD30R,1.200000X0.550000*%
%ADD31R,3.200000X1.700000*%
%ADD32R,1.700000X3.200000*%
G04 APERTURE END LIST*
D10*
X104040000Y-105735000D03*
X104040000Y-102735000D03*
X102240000Y-105735000D03*
X102240000Y-102735000D03*
D11*
X95640000Y-96725000D03*
X95640000Y-97995000D03*
X95640000Y-99265000D03*
X95640000Y-100535000D03*
X95640000Y-101805000D03*
X95640000Y-103075000D03*
X95640000Y-104345000D03*
X95640000Y-105615000D03*
X95640000Y-106885000D03*
X95640000Y-108155000D03*
X95640000Y-109425000D03*
X95640000Y-110695000D03*
X95640000Y-111965000D03*
X95640000Y-113235000D03*
D12*
X98440000Y-114235000D03*
X99710000Y-114235000D03*
X100980000Y-114235000D03*
X102250000Y-114235000D03*
X103520000Y-114235000D03*
X104790000Y-114235000D03*
X106060000Y-114235000D03*
X107330000Y-114235000D03*
X108600000Y-114235000D03*
X109870000Y-114235000D03*
D11*
X112640000Y-113235000D03*
X112640000Y-111965000D03*
X112640000Y-110695000D03*
X112640000Y-109425000D03*
X112640000Y-108155000D03*
X112640000Y-106885000D03*
X112640000Y-105615000D03*
X112640000Y-104345000D03*
X112640000Y-103075000D03*
X112640000Y-101805000D03*
X112640000Y-100535000D03*
X112640000Y-99265000D03*
X112640000Y-97995000D03*
X112640000Y-96725000D03*
D13*
X92456000Y-108077000D03*
X91440000Y-108077000D03*
D14*
X115959000Y-101877000D03*
X115959000Y-106657000D03*
X92321000Y-101877000D03*
X92321000Y-106657000D03*
D15*
X99060000Y-127458000D03*
D16*
G36*
X98210000Y-129733000D02*
G01*
X98210000Y-125183000D01*
X99910000Y-125183000D01*
X99910000Y-129733000D01*
X98210000Y-129733000D01*
X98210000Y-129733000D01*
G37*
D15*
X101600000Y-127458000D03*
D16*
G36*
X100750000Y-129733000D02*
G01*
X100750000Y-125183000D01*
X102450000Y-125183000D01*
X102450000Y-129733000D01*
X100750000Y-129733000D01*
X100750000Y-129733000D01*
G37*
D15*
X104140000Y-127458000D03*
D16*
G36*
X103290000Y-129733000D02*
G01*
X103290000Y-125183000D01*
X104990000Y-125183000D01*
X104990000Y-129733000D01*
X103290000Y-129733000D01*
X103290000Y-129733000D01*
G37*
D15*
X106680000Y-127458000D03*
D16*
G36*
X105830000Y-129733000D02*
G01*
X105830000Y-125183000D01*
X107530000Y-125183000D01*
X107530000Y-129733000D01*
X105830000Y-129733000D01*
X105830000Y-129733000D01*
G37*
D15*
X109220000Y-127458000D03*
D16*
G36*
X108370000Y-129733000D02*
G01*
X108370000Y-125183000D01*
X110070000Y-125183000D01*
X110070000Y-129733000D01*
X108370000Y-129733000D01*
X108370000Y-129733000D01*
G37*
D15*
X109220000Y-121208000D03*
D16*
G36*
X108370000Y-123483000D02*
G01*
X108370000Y-118933000D01*
X110070000Y-118933000D01*
X110070000Y-123483000D01*
X108370000Y-123483000D01*
X108370000Y-123483000D01*
G37*
D15*
X106680000Y-121208000D03*
D16*
G36*
X105830000Y-123483000D02*
G01*
X105830000Y-118933000D01*
X107530000Y-118933000D01*
X107530000Y-123483000D01*
X105830000Y-123483000D01*
X105830000Y-123483000D01*
G37*
D15*
X99060000Y-121208000D03*
D16*
G36*
X98210000Y-123483000D02*
G01*
X98210000Y-118933000D01*
X99910000Y-118933000D01*
X99910000Y-123483000D01*
X98210000Y-123483000D01*
X98210000Y-123483000D01*
G37*
D15*
X101600000Y-121208000D03*
D16*
G36*
X100750000Y-123483000D02*
G01*
X100750000Y-118933000D01*
X102450000Y-118933000D01*
X102450000Y-123483000D01*
X100750000Y-123483000D01*
X100750000Y-123483000D01*
G37*
D15*
X104140000Y-121208000D03*
D16*
G36*
X103290000Y-123483000D02*
G01*
X103290000Y-118933000D01*
X104990000Y-118933000D01*
X104990000Y-123483000D01*
X103290000Y-123483000D01*
X103290000Y-123483000D01*
G37*
D17*
X94107000Y-138727000D03*
X95057000Y-140927000D03*
X93157000Y-140927000D03*
D18*
X116586000Y-107823000D03*
X116586000Y-108839000D03*
X115697000Y-108839000D03*
X115697000Y-107823000D03*
X115951000Y-99441000D03*
X115951000Y-100457000D03*
D19*
X108261000Y-151003000D03*
X105861000Y-151003000D03*
D17*
X105851960Y-133004560D03*
X103949500Y-133004560D03*
X104904540Y-135214360D03*
X92839540Y-149479000D03*
X94742000Y-149479000D03*
X93786960Y-147269200D03*
D20*
X96876000Y-156854500D03*
D21*
X96876000Y-157592000D03*
X96876000Y-158242000D03*
X96876000Y-158892000D03*
D20*
X96876000Y-159629500D03*
D22*
X92326000Y-156742000D03*
X92326000Y-159742000D03*
D23*
X92456000Y-167005000D03*
X90932000Y-167005000D03*
D24*
X113665000Y-149479000D03*
X115443000Y-149479000D03*
X111633000Y-151765000D03*
X109855000Y-151765000D03*
D23*
X92456000Y-169291000D03*
X90932000Y-169291000D03*
D25*
X98044000Y-137160000D03*
X100076000Y-137160000D03*
D26*
X111633000Y-130048000D03*
X111633000Y-132842000D03*
D27*
X102148000Y-137668000D03*
X107148000Y-137668000D03*
X96734000Y-151765000D03*
X91734000Y-151765000D03*
D28*
X112141000Y-138459000D03*
X112141000Y-145259000D03*
D29*
X96377000Y-144272000D03*
X107077000Y-144272000D03*
D30*
X104170000Y-152842000D03*
X104170000Y-151892000D03*
X104170000Y-150942000D03*
X101570000Y-152842000D03*
X101570000Y-150942000D03*
D24*
X98425000Y-150876000D03*
X100203000Y-150876000D03*
D18*
X96075500Y-147828000D03*
X96075500Y-148844000D03*
X96393000Y-139700000D03*
X96393000Y-138684000D03*
X113538000Y-147066000D03*
X113538000Y-148082000D03*
D13*
X99314000Y-152844500D03*
X100330000Y-152844500D03*
D18*
X98298000Y-151828500D03*
X98298000Y-152844500D03*
D13*
X115697000Y-111252000D03*
X116713000Y-111252000D03*
X115697000Y-110363000D03*
X116713000Y-110363000D03*
X114554000Y-115316000D03*
X115570000Y-115316000D03*
X116713000Y-113030000D03*
X115697000Y-113030000D03*
D18*
X108204000Y-139954000D03*
X108204000Y-140970000D03*
D26*
X100584000Y-135509000D03*
X100584000Y-132715000D03*
X98298000Y-134874000D03*
X98298000Y-132080000D03*
D31*
X94742000Y-137005000D03*
X94742000Y-133505000D03*
D24*
X102489000Y-135509000D03*
X102489000Y-133731000D03*
D32*
X110891000Y-135382000D03*
X113391000Y-135382000D03*
D23*
X115951000Y-152400000D03*
X114427000Y-152400000D03*
X115951000Y-150876000D03*
X114427000Y-150876000D03*
D13*
X93218000Y-112903000D03*
X92202000Y-112903000D03*
X91821000Y-147574000D03*
X90805000Y-147574000D03*
M02*
