G04 #@! TF.GenerationSoftware,KiCad,Pcbnew,6.0.0-rc1-unknown-0cca1c6~65~ubuntu16.04.1*
G04 #@! TF.CreationDate,2018-08-03T14:11:54+03:00*
G04 #@! TF.ProjectId,ESP32-PoE_Rev_B,45535033322D506F455F5265765F422E,B*
G04 #@! TF.SameCoordinates,Original*
G04 #@! TF.FileFunction,Paste,Top*
G04 #@! TF.FilePolarity,Positive*
%FSLAX46Y46*%
G04 Gerber Fmt 4.6, Leading zero omitted, Abs format (unit mm)*
G04 Created by KiCad (PCBNEW 6.0.0-rc1-unknown-0cca1c6~65~ubuntu16.04.1) date Fri Aug  3 14:11:54 2018*
%MOMM*%
%LPD*%
G01*
G04 APERTURE LIST*
%ADD10R,1.754000X1.427000*%
%ADD11R,1.254000X4.504000*%
%ADD12R,1.550000X0.750000*%
%ADD13R,0.750000X1.550000*%
%ADD14R,1.400000X1.400000*%
%ADD15R,1.000000X1.400000*%
%ADD16R,0.550000X0.500000*%
%ADD17R,1.600000X3.000000*%
%ADD18R,2.150000X0.325000*%
%ADD19R,1.000000X1.100000*%
%ADD20R,0.800000X0.800000*%
%ADD21R,1.016000X1.016000*%
%ADD22R,1.524000X1.270000*%
%ADD23R,1.778000X1.524000*%
%ADD24R,2.000000X1.700000*%
%ADD25R,3.600000X2.400000*%
%ADD26R,3.400000X2.700000*%
%ADD27R,1.200000X0.550000*%
%ADD28R,0.500000X0.550000*%
%ADD29R,3.200000X1.700000*%
%ADD30R,1.700000X3.200000*%
G04 APERTURE END LIST*
D10*
G04 #@! TO.C,BUT1*
X116459000Y-106707500D03*
X116459000Y-101826500D03*
G04 #@! TD*
G04 #@! TO.C,RST1*
X91821000Y-101826500D03*
X91821000Y-106707500D03*
G04 #@! TD*
D11*
G04 #@! TO.C,UEXT1*
X109220000Y-121208000D03*
X109220000Y-127458000D03*
X106680000Y-121208000D03*
X106680000Y-127458000D03*
X104140000Y-121208000D03*
X104140000Y-127458000D03*
X101600000Y-121208000D03*
X101600000Y-127458000D03*
X99060000Y-121208000D03*
X99060000Y-127458000D03*
G04 #@! TD*
D12*
G04 #@! TO.C,U9*
X113140000Y-96825000D03*
X113140000Y-98095000D03*
X113140000Y-99365000D03*
X113140000Y-100635000D03*
X113140000Y-101905000D03*
X113140000Y-103175000D03*
X113140000Y-104445000D03*
X113140000Y-105715000D03*
X113140000Y-106985000D03*
X113140000Y-108255000D03*
X113140000Y-109525000D03*
X113140000Y-110795000D03*
X113140000Y-112065000D03*
X113140000Y-113335000D03*
D13*
X109870000Y-114785000D03*
X108600000Y-114785000D03*
X107330000Y-114785000D03*
X106060000Y-114785000D03*
X104790000Y-114785000D03*
X103520000Y-114785000D03*
X102250000Y-114785000D03*
X100980000Y-114785000D03*
X99710000Y-114785000D03*
X98440000Y-114785000D03*
D12*
X95140000Y-113295000D03*
X95140000Y-112025000D03*
X95140000Y-110755000D03*
X95140000Y-109485000D03*
X95140000Y-108215000D03*
X95140000Y-106945000D03*
X95140000Y-105675000D03*
X95140000Y-104405000D03*
X95140000Y-103135000D03*
X95140000Y-101865000D03*
X95140000Y-100595000D03*
X95140000Y-99325000D03*
X95140000Y-98055000D03*
X95140000Y-96785000D03*
D14*
X103141000Y-103101000D03*
X105681000Y-103101000D03*
X103166400Y-105768000D03*
X105706400Y-105768000D03*
G04 #@! TD*
D15*
G04 #@! TO.C,D2*
X94107000Y-138727000D03*
X95057000Y-140927000D03*
X93157000Y-140927000D03*
G04 #@! TD*
D16*
G04 #@! TO.C,R48*
X116586000Y-107823000D03*
X116586000Y-108839000D03*
G04 #@! TD*
G04 #@! TO.C,R49*
X115697000Y-108839000D03*
X115697000Y-107823000D03*
G04 #@! TD*
G04 #@! TO.C,R47*
X115951000Y-99441000D03*
X115951000Y-100457000D03*
G04 #@! TD*
D17*
G04 #@! TO.C,L2*
X108261000Y-151003000D03*
X105861000Y-151003000D03*
G04 #@! TD*
D15*
G04 #@! TO.C,FET1*
X105851960Y-133004560D03*
X103949500Y-133004560D03*
X104904540Y-135214360D03*
G04 #@! TD*
G04 #@! TO.C,FET2*
X92839540Y-149479000D03*
X94742000Y-149479000D03*
X93786960Y-147269200D03*
G04 #@! TD*
D18*
G04 #@! TO.C,USB-UART1*
X96626000Y-156942000D03*
X96626000Y-157592000D03*
X96626000Y-158242000D03*
X96626000Y-158892000D03*
X96626000Y-159542000D03*
D19*
X92326000Y-156742000D03*
X92326000Y-159742000D03*
G04 #@! TD*
D20*
G04 #@! TO.C,CHRG1*
X92456000Y-167005000D03*
X90932000Y-167005000D03*
G04 #@! TD*
G04 #@! TO.C,COMPL1*
X92456000Y-164719000D03*
X90932000Y-164719000D03*
G04 #@! TD*
D21*
G04 #@! TO.C,C21*
X113665000Y-149479000D03*
X115443000Y-149479000D03*
G04 #@! TD*
G04 #@! TO.C,C22*
X111633000Y-151765000D03*
X109855000Y-151765000D03*
G04 #@! TD*
D20*
G04 #@! TO.C,PWR1*
X92456000Y-169291000D03*
X90932000Y-169291000D03*
G04 #@! TD*
D22*
G04 #@! TO.C,L6*
X98044000Y-137160000D03*
X100076000Y-137160000D03*
G04 #@! TD*
D23*
G04 #@! TO.C,C24*
X111633000Y-130048000D03*
X111633000Y-132842000D03*
G04 #@! TD*
D24*
G04 #@! TO.C,D1*
X102148000Y-137668000D03*
X107148000Y-137668000D03*
G04 #@! TD*
G04 #@! TO.C,D3*
X96734000Y-151765000D03*
X91734000Y-151765000D03*
G04 #@! TD*
D25*
G04 #@! TO.C,D5*
X112141000Y-138459000D03*
X112141000Y-145259000D03*
G04 #@! TD*
D26*
G04 #@! TO.C,L4*
X96377000Y-144272000D03*
X107077000Y-144272000D03*
G04 #@! TD*
D27*
G04 #@! TO.C,U7*
X104170000Y-152842000D03*
X104170000Y-151892000D03*
X104170000Y-150942000D03*
X101570000Y-152842000D03*
X101570000Y-150942000D03*
G04 #@! TD*
D21*
G04 #@! TO.C,C6*
X98425000Y-150876000D03*
X100203000Y-150876000D03*
G04 #@! TD*
D16*
G04 #@! TO.C,C8*
X96393000Y-148336000D03*
X96393000Y-149352000D03*
G04 #@! TD*
G04 #@! TO.C,R24*
X96393000Y-139700000D03*
X96393000Y-138684000D03*
G04 #@! TD*
G04 #@! TO.C,R1*
X94615000Y-130937000D03*
X94615000Y-131953000D03*
G04 #@! TD*
G04 #@! TO.C,R25*
X113538000Y-147066000D03*
X113538000Y-148082000D03*
G04 #@! TD*
G04 #@! TO.C,R29*
X98679000Y-152146000D03*
X98679000Y-153162000D03*
G04 #@! TD*
G04 #@! TO.C,R30*
X99695000Y-152146000D03*
X99695000Y-153162000D03*
G04 #@! TD*
D28*
G04 #@! TO.C,R31*
X115697000Y-111252000D03*
X116713000Y-111252000D03*
G04 #@! TD*
G04 #@! TO.C,R32*
X92456000Y-107950000D03*
X91440000Y-107950000D03*
G04 #@! TD*
G04 #@! TO.C,R36*
X115697000Y-110363000D03*
X116713000Y-110363000D03*
G04 #@! TD*
G04 #@! TO.C,R39*
X114046000Y-115697000D03*
X115062000Y-115697000D03*
G04 #@! TD*
G04 #@! TO.C,R41*
X106553000Y-131572000D03*
X105537000Y-131572000D03*
G04 #@! TD*
G04 #@! TO.C,R42*
X105537000Y-130556000D03*
X106553000Y-130556000D03*
G04 #@! TD*
G04 #@! TO.C,R44*
X116713000Y-113030000D03*
X115697000Y-113030000D03*
G04 #@! TD*
D16*
G04 #@! TO.C,C14*
X108204000Y-139954000D03*
X108204000Y-140970000D03*
G04 #@! TD*
D23*
G04 #@! TO.C,R43*
X100584000Y-135509000D03*
X100584000Y-132715000D03*
G04 #@! TD*
G04 #@! TO.C,R45*
X98298000Y-134874000D03*
X98298000Y-132080000D03*
G04 #@! TD*
D29*
G04 #@! TO.C,C29*
X94742000Y-137005000D03*
X94742000Y-133505000D03*
G04 #@! TD*
D21*
G04 #@! TO.C,C30*
X102489000Y-135509000D03*
X102489000Y-133731000D03*
G04 #@! TD*
D30*
G04 #@! TO.C,C27*
X110891000Y-135382000D03*
X113391000Y-135382000D03*
G04 #@! TD*
D20*
G04 #@! TO.C,ACT1*
X115951000Y-152400000D03*
X114427000Y-152400000D03*
G04 #@! TD*
G04 #@! TO.C,LNK1*
X115951000Y-150876000D03*
X114427000Y-150876000D03*
G04 #@! TD*
M02*
