G04 #@! TF.GenerationSoftware,KiCad,Pcbnew,6.0.0-rc1-unknown-0cca1c6~65~ubuntu16.04.1*
G04 #@! TF.CreationDate,2018-08-03T14:11:54+03:00*
G04 #@! TF.ProjectId,ESP32-PoE_Rev_B,45535033322D506F455F5265765F422E,B*
G04 #@! TF.SameCoordinates,Original*
G04 #@! TF.FileFunction,Soldermask,Top*
G04 #@! TF.FilePolarity,Negative*
%FSLAX46Y46*%
G04 Gerber Fmt 4.6, Leading zero omitted, Abs format (unit mm)*
G04 Created by KiCad (PCBNEW 6.0.0-rc1-unknown-0cca1c6~65~ubuntu16.04.1) date Fri Aug  3 14:11:54 2018*
%MOMM*%
%LPD*%
G01*
G04 APERTURE LIST*
%ADD10C,0.801600*%
%ADD11R,1.601600X1.401600*%
%ADD12C,1.625600*%
%ADD13R,1.101600X4.351600*%
%ADD14C,1.700000*%
%ADD15C,2.400000*%
%ADD16R,6.400000X6.400000*%
%ADD17R,1.801600X1.001600*%
%ADD18R,1.001600X1.801600*%
%ADD19R,1.101600X1.501600*%
%ADD20C,1.200000*%
%ADD21R,1.822400X1.822400*%
%ADD22R,0.651600X0.601600*%
%ADD23R,1.701600X3.101600*%
%ADD24R,2.251600X0.426600*%
%ADD25C,0.701600*%
%ADD26R,1.101600X1.201600*%
%ADD27O,1.901600X1.301600*%
%ADD28R,0.901600X0.901600*%
%ADD29R,1.117600X1.117600*%
%ADD30C,1.254000*%
%ADD31R,1.625600X1.371600*%
%ADD32C,1.924000*%
%ADD33C,3.700000*%
%ADD34R,1.879600X1.625600*%
%ADD35R,2.101600X1.801600*%
%ADD36R,3.501600X2.301600*%
%ADD37R,3.301600X2.601600*%
%ADD38R,1.301600X0.651600*%
%ADD39C,1.879600*%
%ADD40R,1.879600X1.879600*%
%ADD41R,0.601600X0.651600*%
%ADD42R,3.101600X1.601600*%
%ADD43R,1.601600X3.101600*%
%ADD44R,1.501600X1.501600*%
%ADD45C,1.501600*%
G04 APERTURE END LIST*
D10*
G04 #@! TO.C,BUT1*
X117359000Y-104267000D03*
X115559000Y-104267000D03*
D11*
X116459000Y-101890000D03*
X116459000Y-106644000D03*
G04 #@! TD*
G04 #@! TO.C,RST1*
X91821000Y-106644000D03*
X91821000Y-101890000D03*
D10*
X90921000Y-104267000D03*
X92721000Y-104267000D03*
G04 #@! TD*
D12*
G04 #@! TO.C,UEXT1*
X100330000Y-124333000D03*
D13*
X109220000Y-121208000D03*
X109220000Y-127458000D03*
X106680000Y-121208000D03*
X106680000Y-127458000D03*
X104140000Y-121208000D03*
X104140000Y-127458000D03*
X101600000Y-121208000D03*
X101600000Y-127458000D03*
X99060000Y-121208000D03*
X99060000Y-127458000D03*
D12*
X107950000Y-124333000D03*
G04 #@! TD*
D14*
G04 #@! TO.C,U9*
X102099600Y-106834800D03*
D15*
X104411000Y-104498000D03*
D16*
X104440000Y-104485000D03*
D17*
X113140000Y-96825000D03*
X113140000Y-98095000D03*
X113140000Y-99365000D03*
X113140000Y-100635000D03*
X113140000Y-101905000D03*
X113140000Y-103175000D03*
X113140000Y-104445000D03*
X113140000Y-105715000D03*
X113140000Y-106985000D03*
X113140000Y-108255000D03*
X113140000Y-109525000D03*
X113140000Y-110795000D03*
X113140000Y-112065000D03*
X113140000Y-113335000D03*
D18*
X109870000Y-114785000D03*
X108600000Y-114785000D03*
X107330000Y-114785000D03*
X106060000Y-114785000D03*
X104790000Y-114785000D03*
X103520000Y-114785000D03*
X102250000Y-114785000D03*
X100980000Y-114785000D03*
X99710000Y-114785000D03*
X98440000Y-114785000D03*
D17*
X95140000Y-113295000D03*
X95140000Y-112025000D03*
X95140000Y-110755000D03*
X95140000Y-109485000D03*
X95140000Y-108215000D03*
X95140000Y-106945000D03*
X95140000Y-105675000D03*
X95140000Y-104405000D03*
X95140000Y-103135000D03*
X95140000Y-101865000D03*
X95140000Y-100595000D03*
X95140000Y-99325000D03*
X95140000Y-98055000D03*
X95140000Y-96785000D03*
D14*
X106773200Y-106834800D03*
X102099600Y-102135800D03*
X106773200Y-102135800D03*
X104411000Y-102135800D03*
X104411000Y-106834800D03*
X102099600Y-104371000D03*
X106773200Y-104371000D03*
G04 #@! TD*
D19*
G04 #@! TO.C,D2*
X94107000Y-138727000D03*
X95057000Y-140927000D03*
X93157000Y-140927000D03*
G04 #@! TD*
D20*
G04 #@! TO.C,U8*
X107966000Y-132445000D03*
X108966000Y-132445000D03*
X109966000Y-132445000D03*
X107966000Y-131445000D03*
X108966000Y-131445000D03*
X109966000Y-131445000D03*
X108966000Y-130445000D03*
X107966000Y-130445000D03*
X109966000Y-130445000D03*
G04 #@! TD*
D21*
G04 #@! TO.C,U4*
X110744000Y-148844000D03*
G04 #@! TD*
D22*
G04 #@! TO.C,R48*
X116586000Y-107823000D03*
X116586000Y-108839000D03*
G04 #@! TD*
G04 #@! TO.C,R49*
X115697000Y-108839000D03*
X115697000Y-107823000D03*
G04 #@! TD*
G04 #@! TO.C,R47*
X115951000Y-99441000D03*
X115951000Y-100457000D03*
G04 #@! TD*
D23*
G04 #@! TO.C,L2*
X108261000Y-151003000D03*
X105861000Y-151003000D03*
G04 #@! TD*
D19*
G04 #@! TO.C,FET1*
X105851960Y-133004560D03*
X103949500Y-133004560D03*
X104904540Y-135214360D03*
G04 #@! TD*
G04 #@! TO.C,FET2*
X92839540Y-149479000D03*
X94742000Y-149479000D03*
X93786960Y-147269200D03*
G04 #@! TD*
D24*
G04 #@! TO.C,USB-UART1*
X96626000Y-156942000D03*
X96626000Y-157592000D03*
X96626000Y-158242000D03*
X96626000Y-158892000D03*
X96626000Y-159542000D03*
D25*
X95626000Y-156242000D03*
X95626000Y-160242000D03*
D26*
X92326000Y-156742000D03*
X92326000Y-159742000D03*
D27*
X93476000Y-154642000D03*
X96946000Y-154642000D03*
X96946000Y-161842000D03*
X93476000Y-161842000D03*
G04 #@! TD*
D28*
G04 #@! TO.C,CHRG1*
X92456000Y-167005000D03*
X90932000Y-167005000D03*
G04 #@! TD*
G04 #@! TO.C,COMPL1*
X92456000Y-164719000D03*
X90932000Y-164719000D03*
G04 #@! TD*
D29*
G04 #@! TO.C,C21*
X113665000Y-149479000D03*
X115443000Y-149479000D03*
G04 #@! TD*
G04 #@! TO.C,C22*
X111633000Y-151765000D03*
X109855000Y-151765000D03*
G04 #@! TD*
D28*
G04 #@! TO.C,PWR1*
X92456000Y-169291000D03*
X90932000Y-169291000D03*
G04 #@! TD*
D30*
G04 #@! TO.C,FID1*
X92075000Y-96901000D03*
G04 #@! TD*
G04 #@! TO.C,FID2*
X116205000Y-96901000D03*
G04 #@! TD*
G04 #@! TO.C,FID3*
X114554000Y-168529000D03*
G04 #@! TD*
D31*
G04 #@! TO.C,L6*
X98044000Y-137160000D03*
X100076000Y-137160000D03*
G04 #@! TD*
D32*
G04 #@! TO.C,LAN_CON1*
X102616000Y-155806000D03*
X103886000Y-158346000D03*
X105156000Y-155806000D03*
X106426000Y-158346000D03*
X107696000Y-155806000D03*
X108966000Y-158346000D03*
X110236000Y-155806000D03*
X111506000Y-158346000D03*
X112776000Y-155806000D03*
X114046000Y-158346000D03*
D33*
X100531000Y-161946000D03*
X116131000Y-161946000D03*
X102616000Y-164996000D03*
X114046000Y-164996000D03*
G04 #@! TD*
D34*
G04 #@! TO.C,C24*
X111633000Y-130048000D03*
X111633000Y-132842000D03*
G04 #@! TD*
D35*
G04 #@! TO.C,D1*
X102148000Y-137668000D03*
X107148000Y-137668000D03*
G04 #@! TD*
G04 #@! TO.C,D3*
X96734000Y-151765000D03*
X91734000Y-151765000D03*
G04 #@! TD*
D36*
G04 #@! TO.C,D5*
X112141000Y-138459000D03*
X112141000Y-145259000D03*
G04 #@! TD*
D37*
G04 #@! TO.C,L4*
X96377000Y-144272000D03*
X107077000Y-144272000D03*
G04 #@! TD*
D38*
G04 #@! TO.C,U7*
X104170000Y-152842000D03*
X104170000Y-151892000D03*
X104170000Y-150942000D03*
X101570000Y-152842000D03*
X101570000Y-150942000D03*
G04 #@! TD*
D29*
G04 #@! TO.C,C6*
X98425000Y-150876000D03*
X100203000Y-150876000D03*
G04 #@! TD*
D39*
G04 #@! TO.C,EXT1*
X91440000Y-130840000D03*
X91440000Y-128300000D03*
X91440000Y-125760000D03*
D40*
X91440000Y-123220000D03*
D39*
X91440000Y-133380000D03*
X91440000Y-135920000D03*
X91440000Y-141000000D03*
X91440000Y-138460000D03*
X91440000Y-143540000D03*
X91440000Y-146080000D03*
G04 #@! TD*
G04 #@! TO.C,EXT2*
X116840000Y-146080000D03*
X116840000Y-143540000D03*
X116840000Y-138460000D03*
X116840000Y-141000000D03*
X116840000Y-135920000D03*
X116840000Y-133380000D03*
D40*
X116840000Y-123220000D03*
D39*
X116840000Y-125760000D03*
X116840000Y-128300000D03*
X116840000Y-130840000D03*
G04 #@! TD*
D22*
G04 #@! TO.C,C8*
X96393000Y-148336000D03*
X96393000Y-149352000D03*
G04 #@! TD*
G04 #@! TO.C,R24*
X96393000Y-139700000D03*
X96393000Y-138684000D03*
G04 #@! TD*
G04 #@! TO.C,R1*
X94615000Y-130937000D03*
X94615000Y-131953000D03*
G04 #@! TD*
G04 #@! TO.C,R25*
X113538000Y-147066000D03*
X113538000Y-148082000D03*
G04 #@! TD*
G04 #@! TO.C,R29*
X98679000Y-152146000D03*
X98679000Y-153162000D03*
G04 #@! TD*
G04 #@! TO.C,R30*
X99695000Y-152146000D03*
X99695000Y-153162000D03*
G04 #@! TD*
D41*
G04 #@! TO.C,R31*
X115697000Y-111252000D03*
X116713000Y-111252000D03*
G04 #@! TD*
G04 #@! TO.C,R32*
X92456000Y-107950000D03*
X91440000Y-107950000D03*
G04 #@! TD*
G04 #@! TO.C,R36*
X115697000Y-110363000D03*
X116713000Y-110363000D03*
G04 #@! TD*
G04 #@! TO.C,R39*
X114046000Y-115697000D03*
X115062000Y-115697000D03*
G04 #@! TD*
G04 #@! TO.C,R41*
X106553000Y-131572000D03*
X105537000Y-131572000D03*
G04 #@! TD*
G04 #@! TO.C,R42*
X105537000Y-130556000D03*
X106553000Y-130556000D03*
G04 #@! TD*
G04 #@! TO.C,R44*
X116713000Y-113030000D03*
X115697000Y-113030000D03*
G04 #@! TD*
D22*
G04 #@! TO.C,C14*
X108204000Y-139954000D03*
X108204000Y-140970000D03*
G04 #@! TD*
D34*
G04 #@! TO.C,R43*
X100584000Y-135509000D03*
X100584000Y-132715000D03*
G04 #@! TD*
G04 #@! TO.C,R45*
X98298000Y-134874000D03*
X98298000Y-132080000D03*
G04 #@! TD*
D42*
G04 #@! TO.C,C29*
X94742000Y-137005000D03*
X94742000Y-133505000D03*
G04 #@! TD*
D29*
G04 #@! TO.C,C30*
X102489000Y-135509000D03*
X102489000Y-133731000D03*
G04 #@! TD*
D43*
G04 #@! TO.C,C27*
X110891000Y-135382000D03*
X113391000Y-135382000D03*
G04 #@! TD*
D44*
G04 #@! TO.C,BAT1*
X95638620Y-163852860D03*
D45*
X97650300Y-163850320D03*
G04 #@! TD*
D28*
G04 #@! TO.C,ACT1*
X115951000Y-152400000D03*
X114427000Y-152400000D03*
G04 #@! TD*
G04 #@! TO.C,LNK1*
X115951000Y-150876000D03*
X114427000Y-150876000D03*
G04 #@! TD*
M02*
