G04 #@! TF.GenerationSoftware,KiCad,Pcbnew,5.1.0-rc2-unknown-036be7d~80~ubuntu16.04.1*
G04 #@! TF.CreationDate,2021-12-15T16:14:17+02:00*
G04 #@! TF.ProjectId,ESP32-PoE_Rev_I,45535033-322d-4506-9f45-5f5265765f49,I*
G04 #@! TF.SameCoordinates,Original*
G04 #@! TF.FileFunction,Soldermask,Bot*
G04 #@! TF.FilePolarity,Negative*
%FSLAX46Y46*%
G04 Gerber Fmt 4.6, Leading zero omitted, Abs format (unit mm)*
G04 Created by KiCad (PCBNEW 5.1.0-rc2-unknown-036be7d~80~ubuntu16.04.1) date 2021-12-15 16:14:17*
%MOMM*%
%LPD*%
G04 APERTURE LIST*
%ADD10R,1.117600X1.117600*%
%ADD11R,3.501601X1.301600*%
%ADD12R,1.601600X0.451600*%
%ADD13R,1.625600X1.625600*%
%ADD14C,1.625600*%
%ADD15C,2.101600*%
%ADD16R,1.625600X1.371600*%
%ADD17R,1.501600X1.101600*%
%ADD18R,1.301600X0.651600*%
%ADD19R,0.601600X0.651600*%
%ADD20R,1.101600X1.501600*%
%ADD21C,0.801600*%
%ADD22O,1.701600X3.101599*%
%ADD23C,3.401601*%
%ADD24R,3.701600X3.701600*%
%ADD25R,0.501600X0.501600*%
%ADD26R,1.524000X1.524000*%
%ADD27R,0.351600X0.901600*%
%ADD28R,0.901600X0.351600*%
%ADD29R,1.371600X1.625600*%
%ADD30R,1.501600X1.501600*%
%ADD31C,1.501600*%
%ADD32C,1.254000*%
%ADD33R,0.651600X0.601600*%
%ADD34C,0.601600*%
%ADD35C,0.100000*%
%ADD36C,1.879600*%
%ADD37R,1.879600X1.879600*%
%ADD38R,1.371600X0.426600*%
%ADD39R,1.801600X2.101600*%
%ADD40R,1.117600X1.879600*%
%ADD41R,0.601600X1.101600*%
%ADD42R,1.601600X1.301600*%
%ADD43C,0.701600*%
%ADD44O,1.901600X1.301600*%
%ADD45R,1.117600X0.482600*%
%ADD46R,1.117600X0.736600*%
%ADD47R,0.482600X1.117600*%
%ADD48R,0.736600X1.117600*%
%ADD49C,1.301600*%
%ADD50R,1.501600X1.301600*%
%ADD51R,0.863600X0.609600*%
%ADD52R,1.879600X1.625600*%
%ADD53C,1.901600*%
G04 APERTURE END LIST*
D10*
X113157000Y-137287000D03*
X113157000Y-135509000D03*
D11*
X112141000Y-124205200D03*
X112141000Y-130505200D03*
D12*
X112678000Y-120437000D03*
X112678000Y-121087000D03*
X112678000Y-121737000D03*
X112678000Y-122387000D03*
X106778000Y-122387000D03*
X106778000Y-121737000D03*
X106778000Y-121087000D03*
X106778000Y-120437000D03*
D13*
X113391000Y-132334000D03*
D14*
X110891000Y-132334000D03*
D15*
X103140000Y-104235000D03*
D16*
X96139000Y-157353000D03*
X98171000Y-157353000D03*
D17*
X92329000Y-156723000D03*
X92329000Y-160523000D03*
D18*
X105126000Y-154559000D03*
X105126000Y-153609000D03*
X105126000Y-152659000D03*
X107726000Y-154559000D03*
X107726000Y-152659000D03*
D19*
X112395000Y-153797000D03*
X111379000Y-153797000D03*
D20*
X116400000Y-116195000D03*
X112600000Y-116195000D03*
D21*
X115059000Y-104267000D03*
X116859000Y-104267000D03*
X91421000Y-104267000D03*
X93221000Y-104267000D03*
D10*
X98171000Y-153289000D03*
X99949000Y-153289000D03*
D20*
X102237540Y-127548640D03*
X101282500Y-129758440D03*
X103184960Y-129758440D03*
X98933000Y-124714000D03*
X97977960Y-126923800D03*
X99880420Y-126923800D03*
X94107000Y-120650000D03*
X96009460Y-120650000D03*
X95054420Y-122859800D03*
D16*
X101219000Y-118618000D03*
X103251000Y-118618000D03*
D20*
X103825040Y-140116560D03*
X105727500Y-140116560D03*
X104772460Y-142326360D03*
D14*
X102616000Y-155806000D03*
X103886000Y-158346000D03*
X105156000Y-155806000D03*
X106426000Y-158346000D03*
X107696000Y-155806000D03*
X108966000Y-158346000D03*
X110236000Y-155806000D03*
X111506000Y-158346000D03*
X112776000Y-155806000D03*
X114046000Y-158346000D03*
D22*
X100531000Y-161946000D03*
X116131000Y-161946000D03*
D23*
X102616000Y-164996000D03*
X114046000Y-164996000D03*
D24*
X110744000Y-148844000D03*
D25*
X112044000Y-149344000D03*
X112044000Y-148344000D03*
X111244000Y-147544000D03*
X110244000Y-147544000D03*
X109444000Y-148344000D03*
X109444000Y-149344000D03*
X110244000Y-150144000D03*
X111244000Y-150144000D03*
D26*
X110744000Y-148844000D03*
D27*
X108994000Y-151294000D03*
X109494000Y-151294000D03*
X109994000Y-151294000D03*
X110494000Y-151294000D03*
X110994000Y-151294000D03*
X111494000Y-151294000D03*
X111994000Y-151294000D03*
X112494000Y-151294000D03*
D28*
X113194000Y-150594000D03*
X113194000Y-150094000D03*
X113194000Y-149594000D03*
X113194000Y-149094000D03*
X113194000Y-148594000D03*
X113194000Y-148094000D03*
X113194000Y-147594000D03*
X113194000Y-147094000D03*
D27*
X112494000Y-146394000D03*
X111994000Y-146394000D03*
X111494000Y-146394000D03*
X110994000Y-146394000D03*
X110494000Y-146394000D03*
X109994000Y-146394000D03*
X109494000Y-146394000D03*
X108994000Y-146394000D03*
D28*
X108294000Y-147094000D03*
X108294000Y-147594000D03*
X108294000Y-148094000D03*
X108294000Y-148594000D03*
X108294000Y-149094000D03*
X108294000Y-149594000D03*
X108294000Y-150094000D03*
X108294000Y-150594000D03*
D19*
X103632000Y-150749000D03*
X102616000Y-150749000D03*
D10*
X102870000Y-152146000D03*
X101092000Y-152146000D03*
D19*
X91948000Y-167005000D03*
X90932000Y-167005000D03*
X90932000Y-166116000D03*
X91948000Y-166116000D03*
D17*
X94361000Y-160523000D03*
X94361000Y-156723000D03*
D19*
X91948000Y-167894000D03*
X90932000Y-167894000D03*
X92329000Y-102743000D03*
X93345000Y-102743000D03*
X98298000Y-168402000D03*
X97282000Y-168402000D03*
D18*
X93442000Y-168018500D03*
X93442000Y-167068500D03*
X93442000Y-166118500D03*
X96042000Y-168018500D03*
X96042000Y-166118500D03*
D19*
X97155000Y-122301000D03*
X98171000Y-122301000D03*
D10*
X103886000Y-138176000D03*
X105664000Y-138176000D03*
D29*
X101219000Y-116713000D03*
X103251000Y-116713000D03*
D30*
X95638620Y-163852860D03*
D31*
X97650300Y-163850320D03*
D32*
X116586000Y-168529000D03*
X116459000Y-96774000D03*
X91821000Y-96774000D03*
D33*
X110998000Y-143764000D03*
X110998000Y-144780000D03*
D19*
X105791000Y-146939000D03*
X106807000Y-146939000D03*
D33*
X113284000Y-152146000D03*
X113284000Y-153162000D03*
X93218000Y-117221000D03*
X93218000Y-118237000D03*
X111760000Y-108585000D03*
X111760000Y-109601000D03*
X104267000Y-121158000D03*
X104267000Y-120142000D03*
D34*
X106469580Y-150792580D03*
D35*
G36*
X106912653Y-150774902D02*
G01*
X106451902Y-151235653D01*
X106026507Y-150810258D01*
X106487258Y-150349507D01*
X106912653Y-150774902D01*
X106912653Y-150774902D01*
G37*
D34*
X107188000Y-151511000D03*
D35*
G36*
X106744927Y-151528678D02*
G01*
X107205678Y-151067927D01*
X107631073Y-151493322D01*
X107170322Y-151954073D01*
X106744927Y-151528678D01*
X106744927Y-151528678D01*
G37*
D19*
X90932000Y-169291000D03*
X91948000Y-169291000D03*
D33*
X116459000Y-151257000D03*
X116459000Y-152273000D03*
D19*
X115443000Y-152146000D03*
X114427000Y-152146000D03*
X94234000Y-169291000D03*
X95250000Y-169291000D03*
X98171000Y-123190000D03*
X97155000Y-123190000D03*
D33*
X97663000Y-167259000D03*
X97663000Y-166243000D03*
D19*
X91313000Y-148209000D03*
X92329000Y-148209000D03*
X91313000Y-149606000D03*
X92329000Y-149606000D03*
D36*
X116840000Y-130840000D03*
X116840000Y-128300000D03*
X116840000Y-125760000D03*
D37*
X116840000Y-123220000D03*
D36*
X116840000Y-133380000D03*
X116840000Y-135920000D03*
X116840000Y-141000000D03*
X116840000Y-138460000D03*
X116840000Y-143540000D03*
X116840000Y-146080000D03*
X91440000Y-130840000D03*
X91440000Y-128300000D03*
X91440000Y-125760000D03*
D37*
X91440000Y-123220000D03*
D36*
X91440000Y-133380000D03*
X91440000Y-135920000D03*
X91440000Y-141000000D03*
X91440000Y-138460000D03*
X91440000Y-143540000D03*
X91440000Y-146080000D03*
D10*
X99314000Y-167894000D03*
X99314000Y-166116000D03*
D38*
X93916500Y-150880000D03*
X93916500Y-150230000D03*
X93916500Y-149580000D03*
X93916500Y-148930000D03*
X93916500Y-148280000D03*
X93916500Y-147630000D03*
X93916500Y-146980000D03*
X93916500Y-146330000D03*
X93916500Y-145680000D03*
X93916500Y-145030000D03*
X101155500Y-145030000D03*
X101155500Y-145680000D03*
X101155500Y-146330000D03*
X101155500Y-146980000D03*
X101155500Y-147630000D03*
X101155500Y-148280000D03*
X101155500Y-148930000D03*
X101155500Y-149580000D03*
X101155500Y-150230000D03*
X101155500Y-150880000D03*
D39*
X95250000Y-126151000D03*
X95250000Y-131151000D03*
D40*
X100838000Y-159512000D03*
X97282000Y-159512000D03*
D41*
X100290000Y-108587000D03*
X101390000Y-108587000D03*
X102490000Y-108587000D03*
X103590000Y-108587000D03*
X104340000Y-108587000D03*
X105040000Y-108587000D03*
X105790000Y-108587000D03*
X106890000Y-108587000D03*
X107990000Y-108587000D03*
D42*
X109440000Y-110337000D03*
X98840000Y-110337000D03*
X109440000Y-114787000D03*
X98840000Y-114787000D03*
D10*
X105537000Y-145542000D03*
X107315000Y-145542000D03*
X105791000Y-144018000D03*
X104013000Y-144018000D03*
D43*
X95626000Y-156242000D03*
X95626000Y-160242000D03*
D44*
X93476000Y-154642000D03*
X96946000Y-154642000D03*
X96946000Y-161842000D03*
X93476000Y-161842000D03*
D45*
X107188000Y-141351000D03*
X107188000Y-142113000D03*
X108712000Y-141351000D03*
X108712000Y-142113000D03*
D46*
X107188000Y-140462000D03*
X108712000Y-140462000D03*
X107188000Y-143002000D03*
X108712000Y-143002000D03*
D47*
X95631000Y-108077000D03*
X94869000Y-108077000D03*
X95631000Y-109601000D03*
X94869000Y-109601000D03*
D48*
X96520000Y-108077000D03*
X96520000Y-109601000D03*
X93980000Y-108077000D03*
X93980000Y-109601000D03*
D16*
X104140000Y-149479000D03*
X106172000Y-149479000D03*
D19*
X93345000Y-143129000D03*
X94361000Y-143129000D03*
D33*
X116459000Y-113792000D03*
X116459000Y-112776000D03*
D19*
X99568000Y-128270000D03*
X98552000Y-128270000D03*
D33*
X101092000Y-126238000D03*
X101092000Y-127254000D03*
D47*
X106680000Y-117221000D03*
X105918000Y-117221000D03*
X106680000Y-118745000D03*
X105918000Y-118745000D03*
D48*
X107569000Y-117221000D03*
X107569000Y-118745000D03*
X105029000Y-117221000D03*
X105029000Y-118745000D03*
D49*
X107950000Y-124333000D03*
X100330000Y-124333000D03*
D19*
X96012000Y-138684000D03*
X97028000Y-138684000D03*
D50*
X95969000Y-140043000D03*
X93769000Y-141643000D03*
X93769000Y-140043000D03*
X95969000Y-141643000D03*
D51*
X90932000Y-164973000D03*
X90932000Y-164211000D03*
D10*
X92837000Y-101346000D03*
X94615000Y-101346000D03*
D19*
X110490000Y-153797000D03*
X109474000Y-153797000D03*
D39*
X116205000Y-153964000D03*
X116205000Y-158964000D03*
D33*
X110744000Y-118999000D03*
X110744000Y-117983000D03*
X112522000Y-117983000D03*
X112522000Y-118999000D03*
X111633000Y-117983000D03*
X111633000Y-118999000D03*
D52*
X111125000Y-136652000D03*
X111125000Y-133858000D03*
D53*
X105029000Y-133985000D03*
D14*
X95758000Y-135870000D03*
D13*
X95758000Y-133370000D03*
D10*
X109347000Y-127000000D03*
X109347000Y-125222000D03*
D33*
X111887000Y-144780000D03*
X111887000Y-143764000D03*
D10*
X114300000Y-138684000D03*
X112522000Y-138684000D03*
M02*
