%TF.GenerationSoftware,KiCad,Pcbnew,7.0.9-7.0.9~ubuntu22.04.1*%
%TF.CreationDate,2025-02-21T13:43:35+02:00*%
%TF.ProjectId,ESP32-PoE_Rev_M,45535033-322d-4506-9f45-5f5265765f4d,M*%
%TF.SameCoordinates,PX55f9470PYa244870*%
%TF.FileFunction,Legend,Top*%
%TF.FilePolarity,Positive*%
%FSLAX46Y46*%
G04 Gerber Fmt 4.6, Leading zero omitted, Abs format (unit mm)*
G04 Created by KiCad (PCBNEW 7.0.9-7.0.9~ubuntu22.04.1) date 2025-02-21 13:43:35*
%MOMM*%
%LPD*%
G01*
G04 APERTURE LIST*
%ADD10C,0.254000*%
%ADD11C,0.190500*%
%ADD12C,0.127000*%
%ADD13C,0.412750*%
%ADD14C,0.222250*%
%ADD15C,0.158750*%
%ADD16C,0.228600*%
%ADD17C,0.050000*%
%ADD18C,0.100000*%
%ADD19C,0.600000*%
G04 APERTURE END LIST*
D10*
X25401857Y46258682D02*
X24676142Y46258682D01*
X25038999Y46258682D02*
X25038999Y47528682D01*
X25038999Y47528682D02*
X24918047Y47347254D01*
X24918047Y47347254D02*
X24797095Y47226301D01*
X24797095Y47226301D02*
X24676142Y47165825D01*
D11*
X310285Y48431676D02*
X890857Y48431676D01*
X600571Y48141391D02*
X600571Y48721962D01*
X1616571Y48903391D02*
X1253714Y48903391D01*
X1253714Y48903391D02*
X1217428Y48540534D01*
X1217428Y48540534D02*
X1253714Y48576819D01*
X1253714Y48576819D02*
X1326286Y48613105D01*
X1326286Y48613105D02*
X1507714Y48613105D01*
X1507714Y48613105D02*
X1580286Y48576819D01*
X1580286Y48576819D02*
X1616571Y48540534D01*
X1616571Y48540534D02*
X1652857Y48467962D01*
X1652857Y48467962D02*
X1652857Y48286534D01*
X1652857Y48286534D02*
X1616571Y48213962D01*
X1616571Y48213962D02*
X1580286Y48177676D01*
X1580286Y48177676D02*
X1507714Y48141391D01*
X1507714Y48141391D02*
X1326286Y48141391D01*
X1326286Y48141391D02*
X1253714Y48177676D01*
X1253714Y48177676D02*
X1217428Y48213962D01*
X1870571Y48903391D02*
X2124571Y48141391D01*
X2124571Y48141391D02*
X2378571Y48903391D01*
D12*
X394952Y45591618D02*
X782000Y45591618D01*
X588476Y45398094D02*
X588476Y45785142D01*
X975523Y45906094D02*
X1289999Y45906094D01*
X1289999Y45906094D02*
X1120666Y45712570D01*
X1120666Y45712570D02*
X1193237Y45712570D01*
X1193237Y45712570D02*
X1241618Y45688380D01*
X1241618Y45688380D02*
X1265809Y45664189D01*
X1265809Y45664189D02*
X1289999Y45615808D01*
X1289999Y45615808D02*
X1289999Y45494856D01*
X1289999Y45494856D02*
X1265809Y45446475D01*
X1265809Y45446475D02*
X1241618Y45422284D01*
X1241618Y45422284D02*
X1193237Y45398094D01*
X1193237Y45398094D02*
X1048094Y45398094D01*
X1048094Y45398094D02*
X999713Y45422284D01*
X999713Y45422284D02*
X975523Y45446475D01*
X1435142Y45906094D02*
X1604476Y45398094D01*
X1604476Y45398094D02*
X1773809Y45906094D01*
X1894762Y45906094D02*
X2209238Y45906094D01*
X2209238Y45906094D02*
X2039905Y45712570D01*
X2039905Y45712570D02*
X2112476Y45712570D01*
X2112476Y45712570D02*
X2160857Y45688380D01*
X2160857Y45688380D02*
X2185048Y45664189D01*
X2185048Y45664189D02*
X2209238Y45615808D01*
X2209238Y45615808D02*
X2209238Y45494856D01*
X2209238Y45494856D02*
X2185048Y45446475D01*
X2185048Y45446475D02*
X2160857Y45422284D01*
X2160857Y45422284D02*
X2112476Y45398094D01*
X2112476Y45398094D02*
X1967333Y45398094D01*
X1967333Y45398094D02*
X1918952Y45422284D01*
X1918952Y45422284D02*
X1894762Y45446475D01*
X902952Y43341904D02*
X854571Y43366094D01*
X854571Y43366094D02*
X782000Y43366094D01*
X782000Y43366094D02*
X709428Y43341904D01*
X709428Y43341904D02*
X661047Y43293523D01*
X661047Y43293523D02*
X636857Y43245142D01*
X636857Y43245142D02*
X612666Y43148380D01*
X612666Y43148380D02*
X612666Y43075808D01*
X612666Y43075808D02*
X636857Y42979046D01*
X636857Y42979046D02*
X661047Y42930665D01*
X661047Y42930665D02*
X709428Y42882284D01*
X709428Y42882284D02*
X782000Y42858094D01*
X782000Y42858094D02*
X830381Y42858094D01*
X830381Y42858094D02*
X902952Y42882284D01*
X902952Y42882284D02*
X927143Y42906475D01*
X927143Y42906475D02*
X927143Y43075808D01*
X927143Y43075808D02*
X830381Y43075808D01*
X1144857Y42858094D02*
X1144857Y43366094D01*
X1144857Y43366094D02*
X1435143Y42858094D01*
X1435143Y42858094D02*
X1435143Y43366094D01*
X1677047Y42858094D02*
X1677047Y43366094D01*
X1677047Y43366094D02*
X1797999Y43366094D01*
X1797999Y43366094D02*
X1870571Y43341904D01*
X1870571Y43341904D02*
X1918952Y43293523D01*
X1918952Y43293523D02*
X1943142Y43245142D01*
X1943142Y43245142D02*
X1967333Y43148380D01*
X1967333Y43148380D02*
X1967333Y43075808D01*
X1967333Y43075808D02*
X1943142Y42979046D01*
X1943142Y42979046D02*
X1918952Y42930665D01*
X1918952Y42930665D02*
X1870571Y42882284D01*
X1870571Y42882284D02*
X1797999Y42858094D01*
X1797999Y42858094D02*
X1677047Y42858094D01*
X1618219Y40381920D02*
X1737955Y40501656D01*
X1977429Y40364814D02*
X1806376Y40193762D01*
X1806376Y40193762D02*
X1447166Y40552972D01*
X1447166Y40552972D02*
X1618219Y40724025D01*
X2097166Y40518761D02*
X2165587Y40552972D01*
X2165587Y40552972D02*
X2251113Y40638498D01*
X2251113Y40638498D02*
X2268218Y40689814D01*
X2268218Y40689814D02*
X2268218Y40724024D01*
X2268218Y40724024D02*
X2251113Y40775340D01*
X2251113Y40775340D02*
X2216902Y40809551D01*
X2216902Y40809551D02*
X2165587Y40826656D01*
X2165587Y40826656D02*
X2131376Y40826656D01*
X2131376Y40826656D02*
X2080060Y40809551D01*
X2080060Y40809551D02*
X1994534Y40758235D01*
X1994534Y40758235D02*
X1943218Y40741130D01*
X1943218Y40741130D02*
X1909008Y40741130D01*
X1909008Y40741130D02*
X1857692Y40758235D01*
X1857692Y40758235D02*
X1823482Y40792445D01*
X1823482Y40792445D02*
X1806376Y40843761D01*
X1806376Y40843761D02*
X1806376Y40877972D01*
X1806376Y40877972D02*
X1823482Y40929287D01*
X1823482Y40929287D02*
X1909008Y41014814D01*
X1909008Y41014814D02*
X1977429Y41049024D01*
X2473481Y40860867D02*
X2114271Y41220077D01*
X2114271Y41220077D02*
X2251113Y41356919D01*
X2251113Y41356919D02*
X2302429Y41374024D01*
X2302429Y41374024D02*
X2336639Y41374024D01*
X2336639Y41374024D02*
X2387955Y41356919D01*
X2387955Y41356919D02*
X2439271Y41305603D01*
X2439271Y41305603D02*
X2456376Y41254288D01*
X2456376Y41254288D02*
X2456376Y41220077D01*
X2456376Y41220077D02*
X2439271Y41168761D01*
X2439271Y41168761D02*
X2302429Y41031919D01*
X2781376Y41100340D02*
X3055060Y41374024D01*
X2918218Y41681919D02*
X3037955Y41801656D01*
X3277428Y41664814D02*
X3106376Y41493761D01*
X3106376Y41493761D02*
X2747166Y41852972D01*
X2747166Y41852972D02*
X2918218Y42024024D01*
X3431376Y41818761D02*
X3072165Y42177971D01*
X3072165Y42177971D02*
X3636639Y42024024D01*
X3636639Y42024024D02*
X3277428Y42383234D01*
X540095Y38261904D02*
X491714Y38286094D01*
X491714Y38286094D02*
X419143Y38286094D01*
X419143Y38286094D02*
X346571Y38261904D01*
X346571Y38261904D02*
X298190Y38213523D01*
X298190Y38213523D02*
X274000Y38165142D01*
X274000Y38165142D02*
X249809Y38068380D01*
X249809Y38068380D02*
X249809Y37995808D01*
X249809Y37995808D02*
X274000Y37899046D01*
X274000Y37899046D02*
X298190Y37850665D01*
X298190Y37850665D02*
X346571Y37802284D01*
X346571Y37802284D02*
X419143Y37778094D01*
X419143Y37778094D02*
X467524Y37778094D01*
X467524Y37778094D02*
X540095Y37802284D01*
X540095Y37802284D02*
X564286Y37826475D01*
X564286Y37826475D02*
X564286Y37995808D01*
X564286Y37995808D02*
X467524Y37995808D01*
X782000Y37778094D02*
X782000Y38286094D01*
X782000Y38286094D02*
X975524Y38286094D01*
X975524Y38286094D02*
X1023905Y38261904D01*
X1023905Y38261904D02*
X1048095Y38237713D01*
X1048095Y38237713D02*
X1072286Y38189332D01*
X1072286Y38189332D02*
X1072286Y38116761D01*
X1072286Y38116761D02*
X1048095Y38068380D01*
X1048095Y38068380D02*
X1023905Y38044189D01*
X1023905Y38044189D02*
X975524Y38019999D01*
X975524Y38019999D02*
X782000Y38019999D01*
X1290000Y37778094D02*
X1290000Y38286094D01*
X1628667Y38286094D02*
X1725429Y38286094D01*
X1725429Y38286094D02*
X1773810Y38261904D01*
X1773810Y38261904D02*
X1822191Y38213523D01*
X1822191Y38213523D02*
X1846381Y38116761D01*
X1846381Y38116761D02*
X1846381Y37947427D01*
X1846381Y37947427D02*
X1822191Y37850665D01*
X1822191Y37850665D02*
X1773810Y37802284D01*
X1773810Y37802284D02*
X1725429Y37778094D01*
X1725429Y37778094D02*
X1628667Y37778094D01*
X1628667Y37778094D02*
X1580286Y37802284D01*
X1580286Y37802284D02*
X1531905Y37850665D01*
X1531905Y37850665D02*
X1507714Y37947427D01*
X1507714Y37947427D02*
X1507714Y38116761D01*
X1507714Y38116761D02*
X1531905Y38213523D01*
X1531905Y38213523D02*
X1580286Y38261904D01*
X1580286Y38261904D02*
X1628667Y38286094D01*
X2160857Y38286094D02*
X2209238Y38286094D01*
X2209238Y38286094D02*
X2257619Y38261904D01*
X2257619Y38261904D02*
X2281809Y38237713D01*
X2281809Y38237713D02*
X2306000Y38189332D01*
X2306000Y38189332D02*
X2330190Y38092570D01*
X2330190Y38092570D02*
X2330190Y37971618D01*
X2330190Y37971618D02*
X2306000Y37874856D01*
X2306000Y37874856D02*
X2281809Y37826475D01*
X2281809Y37826475D02*
X2257619Y37802284D01*
X2257619Y37802284D02*
X2209238Y37778094D01*
X2209238Y37778094D02*
X2160857Y37778094D01*
X2160857Y37778094D02*
X2112476Y37802284D01*
X2112476Y37802284D02*
X2088285Y37826475D01*
X2088285Y37826475D02*
X2064095Y37874856D01*
X2064095Y37874856D02*
X2039904Y37971618D01*
X2039904Y37971618D02*
X2039904Y38092570D01*
X2039904Y38092570D02*
X2064095Y38189332D01*
X2064095Y38189332D02*
X2088285Y38237713D01*
X2088285Y38237713D02*
X2112476Y38261904D01*
X2112476Y38261904D02*
X2160857Y38286094D01*
X540095Y35721904D02*
X491714Y35746094D01*
X491714Y35746094D02*
X419143Y35746094D01*
X419143Y35746094D02*
X346571Y35721904D01*
X346571Y35721904D02*
X298190Y35673523D01*
X298190Y35673523D02*
X274000Y35625142D01*
X274000Y35625142D02*
X249809Y35528380D01*
X249809Y35528380D02*
X249809Y35455808D01*
X249809Y35455808D02*
X274000Y35359046D01*
X274000Y35359046D02*
X298190Y35310665D01*
X298190Y35310665D02*
X346571Y35262284D01*
X346571Y35262284D02*
X419143Y35238094D01*
X419143Y35238094D02*
X467524Y35238094D01*
X467524Y35238094D02*
X540095Y35262284D01*
X540095Y35262284D02*
X564286Y35286475D01*
X564286Y35286475D02*
X564286Y35455808D01*
X564286Y35455808D02*
X467524Y35455808D01*
X782000Y35238094D02*
X782000Y35746094D01*
X782000Y35746094D02*
X975524Y35746094D01*
X975524Y35746094D02*
X1023905Y35721904D01*
X1023905Y35721904D02*
X1048095Y35697713D01*
X1048095Y35697713D02*
X1072286Y35649332D01*
X1072286Y35649332D02*
X1072286Y35576761D01*
X1072286Y35576761D02*
X1048095Y35528380D01*
X1048095Y35528380D02*
X1023905Y35504189D01*
X1023905Y35504189D02*
X975524Y35479999D01*
X975524Y35479999D02*
X782000Y35479999D01*
X1290000Y35238094D02*
X1290000Y35746094D01*
X1628667Y35746094D02*
X1725429Y35746094D01*
X1725429Y35746094D02*
X1773810Y35721904D01*
X1773810Y35721904D02*
X1822191Y35673523D01*
X1822191Y35673523D02*
X1846381Y35576761D01*
X1846381Y35576761D02*
X1846381Y35407427D01*
X1846381Y35407427D02*
X1822191Y35310665D01*
X1822191Y35310665D02*
X1773810Y35262284D01*
X1773810Y35262284D02*
X1725429Y35238094D01*
X1725429Y35238094D02*
X1628667Y35238094D01*
X1628667Y35238094D02*
X1580286Y35262284D01*
X1580286Y35262284D02*
X1531905Y35310665D01*
X1531905Y35310665D02*
X1507714Y35407427D01*
X1507714Y35407427D02*
X1507714Y35576761D01*
X1507714Y35576761D02*
X1531905Y35673523D01*
X1531905Y35673523D02*
X1580286Y35721904D01*
X1580286Y35721904D02*
X1628667Y35746094D01*
X2330190Y35238094D02*
X2039904Y35238094D01*
X2185047Y35238094D02*
X2185047Y35746094D01*
X2185047Y35746094D02*
X2136666Y35673523D01*
X2136666Y35673523D02*
X2088285Y35625142D01*
X2088285Y35625142D02*
X2039904Y35600951D01*
X540095Y33181904D02*
X491714Y33206094D01*
X491714Y33206094D02*
X419143Y33206094D01*
X419143Y33206094D02*
X346571Y33181904D01*
X346571Y33181904D02*
X298190Y33133523D01*
X298190Y33133523D02*
X274000Y33085142D01*
X274000Y33085142D02*
X249809Y32988380D01*
X249809Y32988380D02*
X249809Y32915808D01*
X249809Y32915808D02*
X274000Y32819046D01*
X274000Y32819046D02*
X298190Y32770665D01*
X298190Y32770665D02*
X346571Y32722284D01*
X346571Y32722284D02*
X419143Y32698094D01*
X419143Y32698094D02*
X467524Y32698094D01*
X467524Y32698094D02*
X540095Y32722284D01*
X540095Y32722284D02*
X564286Y32746475D01*
X564286Y32746475D02*
X564286Y32915808D01*
X564286Y32915808D02*
X467524Y32915808D01*
X782000Y32698094D02*
X782000Y33206094D01*
X782000Y33206094D02*
X975524Y33206094D01*
X975524Y33206094D02*
X1023905Y33181904D01*
X1023905Y33181904D02*
X1048095Y33157713D01*
X1048095Y33157713D02*
X1072286Y33109332D01*
X1072286Y33109332D02*
X1072286Y33036761D01*
X1072286Y33036761D02*
X1048095Y32988380D01*
X1048095Y32988380D02*
X1023905Y32964189D01*
X1023905Y32964189D02*
X975524Y32939999D01*
X975524Y32939999D02*
X782000Y32939999D01*
X1290000Y32698094D02*
X1290000Y33206094D01*
X1628667Y33206094D02*
X1725429Y33206094D01*
X1725429Y33206094D02*
X1773810Y33181904D01*
X1773810Y33181904D02*
X1822191Y33133523D01*
X1822191Y33133523D02*
X1846381Y33036761D01*
X1846381Y33036761D02*
X1846381Y32867427D01*
X1846381Y32867427D02*
X1822191Y32770665D01*
X1822191Y32770665D02*
X1773810Y32722284D01*
X1773810Y32722284D02*
X1725429Y32698094D01*
X1725429Y32698094D02*
X1628667Y32698094D01*
X1628667Y32698094D02*
X1580286Y32722284D01*
X1580286Y32722284D02*
X1531905Y32770665D01*
X1531905Y32770665D02*
X1507714Y32867427D01*
X1507714Y32867427D02*
X1507714Y33036761D01*
X1507714Y33036761D02*
X1531905Y33133523D01*
X1531905Y33133523D02*
X1580286Y33181904D01*
X1580286Y33181904D02*
X1628667Y33206094D01*
X2039904Y33157713D02*
X2064095Y33181904D01*
X2064095Y33181904D02*
X2112476Y33206094D01*
X2112476Y33206094D02*
X2233428Y33206094D01*
X2233428Y33206094D02*
X2281809Y33181904D01*
X2281809Y33181904D02*
X2306000Y33157713D01*
X2306000Y33157713D02*
X2330190Y33109332D01*
X2330190Y33109332D02*
X2330190Y33060951D01*
X2330190Y33060951D02*
X2306000Y32988380D01*
X2306000Y32988380D02*
X2015714Y32698094D01*
X2015714Y32698094D02*
X2330190Y32698094D01*
X540095Y30641904D02*
X491714Y30666094D01*
X491714Y30666094D02*
X419143Y30666094D01*
X419143Y30666094D02*
X346571Y30641904D01*
X346571Y30641904D02*
X298190Y30593523D01*
X298190Y30593523D02*
X274000Y30545142D01*
X274000Y30545142D02*
X249809Y30448380D01*
X249809Y30448380D02*
X249809Y30375808D01*
X249809Y30375808D02*
X274000Y30279046D01*
X274000Y30279046D02*
X298190Y30230665D01*
X298190Y30230665D02*
X346571Y30182284D01*
X346571Y30182284D02*
X419143Y30158094D01*
X419143Y30158094D02*
X467524Y30158094D01*
X467524Y30158094D02*
X540095Y30182284D01*
X540095Y30182284D02*
X564286Y30206475D01*
X564286Y30206475D02*
X564286Y30375808D01*
X564286Y30375808D02*
X467524Y30375808D01*
X782000Y30158094D02*
X782000Y30666094D01*
X782000Y30666094D02*
X975524Y30666094D01*
X975524Y30666094D02*
X1023905Y30641904D01*
X1023905Y30641904D02*
X1048095Y30617713D01*
X1048095Y30617713D02*
X1072286Y30569332D01*
X1072286Y30569332D02*
X1072286Y30496761D01*
X1072286Y30496761D02*
X1048095Y30448380D01*
X1048095Y30448380D02*
X1023905Y30424189D01*
X1023905Y30424189D02*
X975524Y30399999D01*
X975524Y30399999D02*
X782000Y30399999D01*
X1290000Y30158094D02*
X1290000Y30666094D01*
X1628667Y30666094D02*
X1725429Y30666094D01*
X1725429Y30666094D02*
X1773810Y30641904D01*
X1773810Y30641904D02*
X1822191Y30593523D01*
X1822191Y30593523D02*
X1846381Y30496761D01*
X1846381Y30496761D02*
X1846381Y30327427D01*
X1846381Y30327427D02*
X1822191Y30230665D01*
X1822191Y30230665D02*
X1773810Y30182284D01*
X1773810Y30182284D02*
X1725429Y30158094D01*
X1725429Y30158094D02*
X1628667Y30158094D01*
X1628667Y30158094D02*
X1580286Y30182284D01*
X1580286Y30182284D02*
X1531905Y30230665D01*
X1531905Y30230665D02*
X1507714Y30327427D01*
X1507714Y30327427D02*
X1507714Y30496761D01*
X1507714Y30496761D02*
X1531905Y30593523D01*
X1531905Y30593523D02*
X1580286Y30641904D01*
X1580286Y30641904D02*
X1628667Y30666094D01*
X2015714Y30666094D02*
X2330190Y30666094D01*
X2330190Y30666094D02*
X2160857Y30472570D01*
X2160857Y30472570D02*
X2233428Y30472570D01*
X2233428Y30472570D02*
X2281809Y30448380D01*
X2281809Y30448380D02*
X2306000Y30424189D01*
X2306000Y30424189D02*
X2330190Y30375808D01*
X2330190Y30375808D02*
X2330190Y30254856D01*
X2330190Y30254856D02*
X2306000Y30206475D01*
X2306000Y30206475D02*
X2281809Y30182284D01*
X2281809Y30182284D02*
X2233428Y30158094D01*
X2233428Y30158094D02*
X2088285Y30158094D01*
X2088285Y30158094D02*
X2039904Y30182284D01*
X2039904Y30182284D02*
X2015714Y30206475D01*
X921095Y28101904D02*
X872714Y28126094D01*
X872714Y28126094D02*
X800143Y28126094D01*
X800143Y28126094D02*
X727571Y28101904D01*
X727571Y28101904D02*
X679190Y28053523D01*
X679190Y28053523D02*
X655000Y28005142D01*
X655000Y28005142D02*
X630809Y27908380D01*
X630809Y27908380D02*
X630809Y27835808D01*
X630809Y27835808D02*
X655000Y27739046D01*
X655000Y27739046D02*
X679190Y27690665D01*
X679190Y27690665D02*
X727571Y27642284D01*
X727571Y27642284D02*
X800143Y27618094D01*
X800143Y27618094D02*
X848524Y27618094D01*
X848524Y27618094D02*
X921095Y27642284D01*
X921095Y27642284D02*
X945286Y27666475D01*
X945286Y27666475D02*
X945286Y27835808D01*
X945286Y27835808D02*
X848524Y27835808D01*
X1163000Y27618094D02*
X1163000Y28126094D01*
X1163000Y28126094D02*
X1356524Y28126094D01*
X1356524Y28126094D02*
X1404905Y28101904D01*
X1404905Y28101904D02*
X1429095Y28077713D01*
X1429095Y28077713D02*
X1453286Y28029332D01*
X1453286Y28029332D02*
X1453286Y27956761D01*
X1453286Y27956761D02*
X1429095Y27908380D01*
X1429095Y27908380D02*
X1404905Y27884189D01*
X1404905Y27884189D02*
X1356524Y27859999D01*
X1356524Y27859999D02*
X1163000Y27859999D01*
X1671000Y27618094D02*
X1671000Y28126094D01*
X2009667Y28126094D02*
X2106429Y28126094D01*
X2106429Y28126094D02*
X2154810Y28101904D01*
X2154810Y28101904D02*
X2203191Y28053523D01*
X2203191Y28053523D02*
X2227381Y27956761D01*
X2227381Y27956761D02*
X2227381Y27787427D01*
X2227381Y27787427D02*
X2203191Y27690665D01*
X2203191Y27690665D02*
X2154810Y27642284D01*
X2154810Y27642284D02*
X2106429Y27618094D01*
X2106429Y27618094D02*
X2009667Y27618094D01*
X2009667Y27618094D02*
X1961286Y27642284D01*
X1961286Y27642284D02*
X1912905Y27690665D01*
X1912905Y27690665D02*
X1888714Y27787427D01*
X1888714Y27787427D02*
X1888714Y27956761D01*
X1888714Y27956761D02*
X1912905Y28053523D01*
X1912905Y28053523D02*
X1961286Y28101904D01*
X1961286Y28101904D02*
X2009667Y28126094D01*
X2662809Y27956761D02*
X2662809Y27618094D01*
X2541857Y28150284D02*
X2420904Y27787427D01*
X2420904Y27787427D02*
X2735381Y27787427D01*
X540095Y25561904D02*
X491714Y25586094D01*
X491714Y25586094D02*
X419143Y25586094D01*
X419143Y25586094D02*
X346571Y25561904D01*
X346571Y25561904D02*
X298190Y25513523D01*
X298190Y25513523D02*
X274000Y25465142D01*
X274000Y25465142D02*
X249809Y25368380D01*
X249809Y25368380D02*
X249809Y25295808D01*
X249809Y25295808D02*
X274000Y25199046D01*
X274000Y25199046D02*
X298190Y25150665D01*
X298190Y25150665D02*
X346571Y25102284D01*
X346571Y25102284D02*
X419143Y25078094D01*
X419143Y25078094D02*
X467524Y25078094D01*
X467524Y25078094D02*
X540095Y25102284D01*
X540095Y25102284D02*
X564286Y25126475D01*
X564286Y25126475D02*
X564286Y25295808D01*
X564286Y25295808D02*
X467524Y25295808D01*
X782000Y25078094D02*
X782000Y25586094D01*
X782000Y25586094D02*
X975524Y25586094D01*
X975524Y25586094D02*
X1023905Y25561904D01*
X1023905Y25561904D02*
X1048095Y25537713D01*
X1048095Y25537713D02*
X1072286Y25489332D01*
X1072286Y25489332D02*
X1072286Y25416761D01*
X1072286Y25416761D02*
X1048095Y25368380D01*
X1048095Y25368380D02*
X1023905Y25344189D01*
X1023905Y25344189D02*
X975524Y25319999D01*
X975524Y25319999D02*
X782000Y25319999D01*
X1290000Y25078094D02*
X1290000Y25586094D01*
X1628667Y25586094D02*
X1725429Y25586094D01*
X1725429Y25586094D02*
X1773810Y25561904D01*
X1773810Y25561904D02*
X1822191Y25513523D01*
X1822191Y25513523D02*
X1846381Y25416761D01*
X1846381Y25416761D02*
X1846381Y25247427D01*
X1846381Y25247427D02*
X1822191Y25150665D01*
X1822191Y25150665D02*
X1773810Y25102284D01*
X1773810Y25102284D02*
X1725429Y25078094D01*
X1725429Y25078094D02*
X1628667Y25078094D01*
X1628667Y25078094D02*
X1580286Y25102284D01*
X1580286Y25102284D02*
X1531905Y25150665D01*
X1531905Y25150665D02*
X1507714Y25247427D01*
X1507714Y25247427D02*
X1507714Y25416761D01*
X1507714Y25416761D02*
X1531905Y25513523D01*
X1531905Y25513523D02*
X1580286Y25561904D01*
X1580286Y25561904D02*
X1628667Y25586094D01*
X2306000Y25586094D02*
X2064095Y25586094D01*
X2064095Y25586094D02*
X2039904Y25344189D01*
X2039904Y25344189D02*
X2064095Y25368380D01*
X2064095Y25368380D02*
X2112476Y25392570D01*
X2112476Y25392570D02*
X2233428Y25392570D01*
X2233428Y25392570D02*
X2281809Y25368380D01*
X2281809Y25368380D02*
X2306000Y25344189D01*
X2306000Y25344189D02*
X2330190Y25295808D01*
X2330190Y25295808D02*
X2330190Y25174856D01*
X2330190Y25174856D02*
X2306000Y25126475D01*
X2306000Y25126475D02*
X2281809Y25102284D01*
X2281809Y25102284D02*
X2233428Y25078094D01*
X2233428Y25078094D02*
X2112476Y25078094D01*
X2112476Y25078094D02*
X2064095Y25102284D01*
X2064095Y25102284D02*
X2039904Y25126475D01*
X25507690Y25561904D02*
X25459309Y25586094D01*
X25459309Y25586094D02*
X25386738Y25586094D01*
X25386738Y25586094D02*
X25314166Y25561904D01*
X25314166Y25561904D02*
X25265785Y25513523D01*
X25265785Y25513523D02*
X25241595Y25465142D01*
X25241595Y25465142D02*
X25217404Y25368380D01*
X25217404Y25368380D02*
X25217404Y25295808D01*
X25217404Y25295808D02*
X25241595Y25199046D01*
X25241595Y25199046D02*
X25265785Y25150665D01*
X25265785Y25150665D02*
X25314166Y25102284D01*
X25314166Y25102284D02*
X25386738Y25078094D01*
X25386738Y25078094D02*
X25435119Y25078094D01*
X25435119Y25078094D02*
X25507690Y25102284D01*
X25507690Y25102284D02*
X25531881Y25126475D01*
X25531881Y25126475D02*
X25531881Y25295808D01*
X25531881Y25295808D02*
X25435119Y25295808D01*
X25749595Y25078094D02*
X25749595Y25586094D01*
X25749595Y25586094D02*
X25943119Y25586094D01*
X25943119Y25586094D02*
X25991500Y25561904D01*
X25991500Y25561904D02*
X26015690Y25537713D01*
X26015690Y25537713D02*
X26039881Y25489332D01*
X26039881Y25489332D02*
X26039881Y25416761D01*
X26039881Y25416761D02*
X26015690Y25368380D01*
X26015690Y25368380D02*
X25991500Y25344189D01*
X25991500Y25344189D02*
X25943119Y25319999D01*
X25943119Y25319999D02*
X25749595Y25319999D01*
X26257595Y25078094D02*
X26257595Y25586094D01*
X26596262Y25586094D02*
X26693024Y25586094D01*
X26693024Y25586094D02*
X26741405Y25561904D01*
X26741405Y25561904D02*
X26789786Y25513523D01*
X26789786Y25513523D02*
X26813976Y25416761D01*
X26813976Y25416761D02*
X26813976Y25247427D01*
X26813976Y25247427D02*
X26789786Y25150665D01*
X26789786Y25150665D02*
X26741405Y25102284D01*
X26741405Y25102284D02*
X26693024Y25078094D01*
X26693024Y25078094D02*
X26596262Y25078094D01*
X26596262Y25078094D02*
X26547881Y25102284D01*
X26547881Y25102284D02*
X26499500Y25150665D01*
X26499500Y25150665D02*
X26475309Y25247427D01*
X26475309Y25247427D02*
X26475309Y25416761D01*
X26475309Y25416761D02*
X26499500Y25513523D01*
X26499500Y25513523D02*
X26547881Y25561904D01*
X26547881Y25561904D02*
X26596262Y25586094D01*
X27297785Y25078094D02*
X27007499Y25078094D01*
X27152642Y25078094D02*
X27152642Y25586094D01*
X27152642Y25586094D02*
X27104261Y25513523D01*
X27104261Y25513523D02*
X27055880Y25465142D01*
X27055880Y25465142D02*
X27007499Y25440951D01*
X27467119Y25586094D02*
X27781595Y25586094D01*
X27781595Y25586094D02*
X27612262Y25392570D01*
X27612262Y25392570D02*
X27684833Y25392570D01*
X27684833Y25392570D02*
X27733214Y25368380D01*
X27733214Y25368380D02*
X27757405Y25344189D01*
X27757405Y25344189D02*
X27781595Y25295808D01*
X27781595Y25295808D02*
X27781595Y25174856D01*
X27781595Y25174856D02*
X27757405Y25126475D01*
X27757405Y25126475D02*
X27733214Y25102284D01*
X27733214Y25102284D02*
X27684833Y25078094D01*
X27684833Y25078094D02*
X27539690Y25078094D01*
X27539690Y25078094D02*
X27491309Y25102284D01*
X27491309Y25102284D02*
X27467119Y25126475D01*
X25507690Y28101904D02*
X25459309Y28126094D01*
X25459309Y28126094D02*
X25386738Y28126094D01*
X25386738Y28126094D02*
X25314166Y28101904D01*
X25314166Y28101904D02*
X25265785Y28053523D01*
X25265785Y28053523D02*
X25241595Y28005142D01*
X25241595Y28005142D02*
X25217404Y27908380D01*
X25217404Y27908380D02*
X25217404Y27835808D01*
X25217404Y27835808D02*
X25241595Y27739046D01*
X25241595Y27739046D02*
X25265785Y27690665D01*
X25265785Y27690665D02*
X25314166Y27642284D01*
X25314166Y27642284D02*
X25386738Y27618094D01*
X25386738Y27618094D02*
X25435119Y27618094D01*
X25435119Y27618094D02*
X25507690Y27642284D01*
X25507690Y27642284D02*
X25531881Y27666475D01*
X25531881Y27666475D02*
X25531881Y27835808D01*
X25531881Y27835808D02*
X25435119Y27835808D01*
X25749595Y27618094D02*
X25749595Y28126094D01*
X25749595Y28126094D02*
X25943119Y28126094D01*
X25943119Y28126094D02*
X25991500Y28101904D01*
X25991500Y28101904D02*
X26015690Y28077713D01*
X26015690Y28077713D02*
X26039881Y28029332D01*
X26039881Y28029332D02*
X26039881Y27956761D01*
X26039881Y27956761D02*
X26015690Y27908380D01*
X26015690Y27908380D02*
X25991500Y27884189D01*
X25991500Y27884189D02*
X25943119Y27859999D01*
X25943119Y27859999D02*
X25749595Y27859999D01*
X26257595Y27618094D02*
X26257595Y28126094D01*
X26596262Y28126094D02*
X26693024Y28126094D01*
X26693024Y28126094D02*
X26741405Y28101904D01*
X26741405Y28101904D02*
X26789786Y28053523D01*
X26789786Y28053523D02*
X26813976Y27956761D01*
X26813976Y27956761D02*
X26813976Y27787427D01*
X26813976Y27787427D02*
X26789786Y27690665D01*
X26789786Y27690665D02*
X26741405Y27642284D01*
X26741405Y27642284D02*
X26693024Y27618094D01*
X26693024Y27618094D02*
X26596262Y27618094D01*
X26596262Y27618094D02*
X26547881Y27642284D01*
X26547881Y27642284D02*
X26499500Y27690665D01*
X26499500Y27690665D02*
X26475309Y27787427D01*
X26475309Y27787427D02*
X26475309Y27956761D01*
X26475309Y27956761D02*
X26499500Y28053523D01*
X26499500Y28053523D02*
X26547881Y28101904D01*
X26547881Y28101904D02*
X26596262Y28126094D01*
X27297785Y27618094D02*
X27007499Y27618094D01*
X27152642Y27618094D02*
X27152642Y28126094D01*
X27152642Y28126094D02*
X27104261Y28053523D01*
X27104261Y28053523D02*
X27055880Y28005142D01*
X27055880Y28005142D02*
X27007499Y27980951D01*
X27733214Y27956761D02*
X27733214Y27618094D01*
X27612262Y28150284D02*
X27491309Y27787427D01*
X27491309Y27787427D02*
X27805786Y27787427D01*
X25507690Y30641904D02*
X25459309Y30666094D01*
X25459309Y30666094D02*
X25386738Y30666094D01*
X25386738Y30666094D02*
X25314166Y30641904D01*
X25314166Y30641904D02*
X25265785Y30593523D01*
X25265785Y30593523D02*
X25241595Y30545142D01*
X25241595Y30545142D02*
X25217404Y30448380D01*
X25217404Y30448380D02*
X25217404Y30375808D01*
X25217404Y30375808D02*
X25241595Y30279046D01*
X25241595Y30279046D02*
X25265785Y30230665D01*
X25265785Y30230665D02*
X25314166Y30182284D01*
X25314166Y30182284D02*
X25386738Y30158094D01*
X25386738Y30158094D02*
X25435119Y30158094D01*
X25435119Y30158094D02*
X25507690Y30182284D01*
X25507690Y30182284D02*
X25531881Y30206475D01*
X25531881Y30206475D02*
X25531881Y30375808D01*
X25531881Y30375808D02*
X25435119Y30375808D01*
X25749595Y30158094D02*
X25749595Y30666094D01*
X25749595Y30666094D02*
X25943119Y30666094D01*
X25943119Y30666094D02*
X25991500Y30641904D01*
X25991500Y30641904D02*
X26015690Y30617713D01*
X26015690Y30617713D02*
X26039881Y30569332D01*
X26039881Y30569332D02*
X26039881Y30496761D01*
X26039881Y30496761D02*
X26015690Y30448380D01*
X26015690Y30448380D02*
X25991500Y30424189D01*
X25991500Y30424189D02*
X25943119Y30399999D01*
X25943119Y30399999D02*
X25749595Y30399999D01*
X26257595Y30158094D02*
X26257595Y30666094D01*
X26596262Y30666094D02*
X26693024Y30666094D01*
X26693024Y30666094D02*
X26741405Y30641904D01*
X26741405Y30641904D02*
X26789786Y30593523D01*
X26789786Y30593523D02*
X26813976Y30496761D01*
X26813976Y30496761D02*
X26813976Y30327427D01*
X26813976Y30327427D02*
X26789786Y30230665D01*
X26789786Y30230665D02*
X26741405Y30182284D01*
X26741405Y30182284D02*
X26693024Y30158094D01*
X26693024Y30158094D02*
X26596262Y30158094D01*
X26596262Y30158094D02*
X26547881Y30182284D01*
X26547881Y30182284D02*
X26499500Y30230665D01*
X26499500Y30230665D02*
X26475309Y30327427D01*
X26475309Y30327427D02*
X26475309Y30496761D01*
X26475309Y30496761D02*
X26499500Y30593523D01*
X26499500Y30593523D02*
X26547881Y30641904D01*
X26547881Y30641904D02*
X26596262Y30666094D01*
X27297785Y30158094D02*
X27007499Y30158094D01*
X27152642Y30158094D02*
X27152642Y30666094D01*
X27152642Y30666094D02*
X27104261Y30593523D01*
X27104261Y30593523D02*
X27055880Y30545142D01*
X27055880Y30545142D02*
X27007499Y30520951D01*
X27757405Y30666094D02*
X27515500Y30666094D01*
X27515500Y30666094D02*
X27491309Y30424189D01*
X27491309Y30424189D02*
X27515500Y30448380D01*
X27515500Y30448380D02*
X27563881Y30472570D01*
X27563881Y30472570D02*
X27684833Y30472570D01*
X27684833Y30472570D02*
X27733214Y30448380D01*
X27733214Y30448380D02*
X27757405Y30424189D01*
X27757405Y30424189D02*
X27781595Y30375808D01*
X27781595Y30375808D02*
X27781595Y30254856D01*
X27781595Y30254856D02*
X27757405Y30206475D01*
X27757405Y30206475D02*
X27733214Y30182284D01*
X27733214Y30182284D02*
X27684833Y30158094D01*
X27684833Y30158094D02*
X27563881Y30158094D01*
X27563881Y30158094D02*
X27515500Y30182284D01*
X27515500Y30182284D02*
X27491309Y30206475D01*
X25507690Y33181904D02*
X25459309Y33206094D01*
X25459309Y33206094D02*
X25386738Y33206094D01*
X25386738Y33206094D02*
X25314166Y33181904D01*
X25314166Y33181904D02*
X25265785Y33133523D01*
X25265785Y33133523D02*
X25241595Y33085142D01*
X25241595Y33085142D02*
X25217404Y32988380D01*
X25217404Y32988380D02*
X25217404Y32915808D01*
X25217404Y32915808D02*
X25241595Y32819046D01*
X25241595Y32819046D02*
X25265785Y32770665D01*
X25265785Y32770665D02*
X25314166Y32722284D01*
X25314166Y32722284D02*
X25386738Y32698094D01*
X25386738Y32698094D02*
X25435119Y32698094D01*
X25435119Y32698094D02*
X25507690Y32722284D01*
X25507690Y32722284D02*
X25531881Y32746475D01*
X25531881Y32746475D02*
X25531881Y32915808D01*
X25531881Y32915808D02*
X25435119Y32915808D01*
X25749595Y32698094D02*
X25749595Y33206094D01*
X25749595Y33206094D02*
X25943119Y33206094D01*
X25943119Y33206094D02*
X25991500Y33181904D01*
X25991500Y33181904D02*
X26015690Y33157713D01*
X26015690Y33157713D02*
X26039881Y33109332D01*
X26039881Y33109332D02*
X26039881Y33036761D01*
X26039881Y33036761D02*
X26015690Y32988380D01*
X26015690Y32988380D02*
X25991500Y32964189D01*
X25991500Y32964189D02*
X25943119Y32939999D01*
X25943119Y32939999D02*
X25749595Y32939999D01*
X26257595Y32698094D02*
X26257595Y33206094D01*
X26596262Y33206094D02*
X26693024Y33206094D01*
X26693024Y33206094D02*
X26741405Y33181904D01*
X26741405Y33181904D02*
X26789786Y33133523D01*
X26789786Y33133523D02*
X26813976Y33036761D01*
X26813976Y33036761D02*
X26813976Y32867427D01*
X26813976Y32867427D02*
X26789786Y32770665D01*
X26789786Y32770665D02*
X26741405Y32722284D01*
X26741405Y32722284D02*
X26693024Y32698094D01*
X26693024Y32698094D02*
X26596262Y32698094D01*
X26596262Y32698094D02*
X26547881Y32722284D01*
X26547881Y32722284D02*
X26499500Y32770665D01*
X26499500Y32770665D02*
X26475309Y32867427D01*
X26475309Y32867427D02*
X26475309Y33036761D01*
X26475309Y33036761D02*
X26499500Y33133523D01*
X26499500Y33133523D02*
X26547881Y33181904D01*
X26547881Y33181904D02*
X26596262Y33206094D01*
X27297785Y32698094D02*
X27007499Y32698094D01*
X27152642Y32698094D02*
X27152642Y33206094D01*
X27152642Y33206094D02*
X27104261Y33133523D01*
X27104261Y33133523D02*
X27055880Y33085142D01*
X27055880Y33085142D02*
X27007499Y33060951D01*
X27733214Y33206094D02*
X27636452Y33206094D01*
X27636452Y33206094D02*
X27588071Y33181904D01*
X27588071Y33181904D02*
X27563881Y33157713D01*
X27563881Y33157713D02*
X27515500Y33085142D01*
X27515500Y33085142D02*
X27491309Y32988380D01*
X27491309Y32988380D02*
X27491309Y32794856D01*
X27491309Y32794856D02*
X27515500Y32746475D01*
X27515500Y32746475D02*
X27539690Y32722284D01*
X27539690Y32722284D02*
X27588071Y32698094D01*
X27588071Y32698094D02*
X27684833Y32698094D01*
X27684833Y32698094D02*
X27733214Y32722284D01*
X27733214Y32722284D02*
X27757405Y32746475D01*
X27757405Y32746475D02*
X27781595Y32794856D01*
X27781595Y32794856D02*
X27781595Y32915808D01*
X27781595Y32915808D02*
X27757405Y32964189D01*
X27757405Y32964189D02*
X27733214Y32988380D01*
X27733214Y32988380D02*
X27684833Y33012570D01*
X27684833Y33012570D02*
X27588071Y33012570D01*
X27588071Y33012570D02*
X27539690Y32988380D01*
X27539690Y32988380D02*
X27515500Y32964189D01*
X27515500Y32964189D02*
X27491309Y32915808D01*
X25507690Y35721904D02*
X25459309Y35746094D01*
X25459309Y35746094D02*
X25386738Y35746094D01*
X25386738Y35746094D02*
X25314166Y35721904D01*
X25314166Y35721904D02*
X25265785Y35673523D01*
X25265785Y35673523D02*
X25241595Y35625142D01*
X25241595Y35625142D02*
X25217404Y35528380D01*
X25217404Y35528380D02*
X25217404Y35455808D01*
X25217404Y35455808D02*
X25241595Y35359046D01*
X25241595Y35359046D02*
X25265785Y35310665D01*
X25265785Y35310665D02*
X25314166Y35262284D01*
X25314166Y35262284D02*
X25386738Y35238094D01*
X25386738Y35238094D02*
X25435119Y35238094D01*
X25435119Y35238094D02*
X25507690Y35262284D01*
X25507690Y35262284D02*
X25531881Y35286475D01*
X25531881Y35286475D02*
X25531881Y35455808D01*
X25531881Y35455808D02*
X25435119Y35455808D01*
X25749595Y35238094D02*
X25749595Y35746094D01*
X25749595Y35746094D02*
X25943119Y35746094D01*
X25943119Y35746094D02*
X25991500Y35721904D01*
X25991500Y35721904D02*
X26015690Y35697713D01*
X26015690Y35697713D02*
X26039881Y35649332D01*
X26039881Y35649332D02*
X26039881Y35576761D01*
X26039881Y35576761D02*
X26015690Y35528380D01*
X26015690Y35528380D02*
X25991500Y35504189D01*
X25991500Y35504189D02*
X25943119Y35479999D01*
X25943119Y35479999D02*
X25749595Y35479999D01*
X26257595Y35238094D02*
X26257595Y35746094D01*
X26596262Y35746094D02*
X26693024Y35746094D01*
X26693024Y35746094D02*
X26741405Y35721904D01*
X26741405Y35721904D02*
X26789786Y35673523D01*
X26789786Y35673523D02*
X26813976Y35576761D01*
X26813976Y35576761D02*
X26813976Y35407427D01*
X26813976Y35407427D02*
X26789786Y35310665D01*
X26789786Y35310665D02*
X26741405Y35262284D01*
X26741405Y35262284D02*
X26693024Y35238094D01*
X26693024Y35238094D02*
X26596262Y35238094D01*
X26596262Y35238094D02*
X26547881Y35262284D01*
X26547881Y35262284D02*
X26499500Y35310665D01*
X26499500Y35310665D02*
X26475309Y35407427D01*
X26475309Y35407427D02*
X26475309Y35576761D01*
X26475309Y35576761D02*
X26499500Y35673523D01*
X26499500Y35673523D02*
X26547881Y35721904D01*
X26547881Y35721904D02*
X26596262Y35746094D01*
X26983309Y35746094D02*
X27297785Y35746094D01*
X27297785Y35746094D02*
X27128452Y35552570D01*
X27128452Y35552570D02*
X27201023Y35552570D01*
X27201023Y35552570D02*
X27249404Y35528380D01*
X27249404Y35528380D02*
X27273595Y35504189D01*
X27273595Y35504189D02*
X27297785Y35455808D01*
X27297785Y35455808D02*
X27297785Y35334856D01*
X27297785Y35334856D02*
X27273595Y35286475D01*
X27273595Y35286475D02*
X27249404Y35262284D01*
X27249404Y35262284D02*
X27201023Y35238094D01*
X27201023Y35238094D02*
X27055880Y35238094D01*
X27055880Y35238094D02*
X27007499Y35262284D01*
X27007499Y35262284D02*
X26983309Y35286475D01*
X27491309Y35697713D02*
X27515500Y35721904D01*
X27515500Y35721904D02*
X27563881Y35746094D01*
X27563881Y35746094D02*
X27684833Y35746094D01*
X27684833Y35746094D02*
X27733214Y35721904D01*
X27733214Y35721904D02*
X27757405Y35697713D01*
X27757405Y35697713D02*
X27781595Y35649332D01*
X27781595Y35649332D02*
X27781595Y35600951D01*
X27781595Y35600951D02*
X27757405Y35528380D01*
X27757405Y35528380D02*
X27467119Y35238094D01*
X27467119Y35238094D02*
X27781595Y35238094D01*
X25507690Y38261904D02*
X25459309Y38286094D01*
X25459309Y38286094D02*
X25386738Y38286094D01*
X25386738Y38286094D02*
X25314166Y38261904D01*
X25314166Y38261904D02*
X25265785Y38213523D01*
X25265785Y38213523D02*
X25241595Y38165142D01*
X25241595Y38165142D02*
X25217404Y38068380D01*
X25217404Y38068380D02*
X25217404Y37995808D01*
X25217404Y37995808D02*
X25241595Y37899046D01*
X25241595Y37899046D02*
X25265785Y37850665D01*
X25265785Y37850665D02*
X25314166Y37802284D01*
X25314166Y37802284D02*
X25386738Y37778094D01*
X25386738Y37778094D02*
X25435119Y37778094D01*
X25435119Y37778094D02*
X25507690Y37802284D01*
X25507690Y37802284D02*
X25531881Y37826475D01*
X25531881Y37826475D02*
X25531881Y37995808D01*
X25531881Y37995808D02*
X25435119Y37995808D01*
X25749595Y37778094D02*
X25749595Y38286094D01*
X25749595Y38286094D02*
X25943119Y38286094D01*
X25943119Y38286094D02*
X25991500Y38261904D01*
X25991500Y38261904D02*
X26015690Y38237713D01*
X26015690Y38237713D02*
X26039881Y38189332D01*
X26039881Y38189332D02*
X26039881Y38116761D01*
X26039881Y38116761D02*
X26015690Y38068380D01*
X26015690Y38068380D02*
X25991500Y38044189D01*
X25991500Y38044189D02*
X25943119Y38019999D01*
X25943119Y38019999D02*
X25749595Y38019999D01*
X26257595Y37778094D02*
X26257595Y38286094D01*
X26596262Y38286094D02*
X26693024Y38286094D01*
X26693024Y38286094D02*
X26741405Y38261904D01*
X26741405Y38261904D02*
X26789786Y38213523D01*
X26789786Y38213523D02*
X26813976Y38116761D01*
X26813976Y38116761D02*
X26813976Y37947427D01*
X26813976Y37947427D02*
X26789786Y37850665D01*
X26789786Y37850665D02*
X26741405Y37802284D01*
X26741405Y37802284D02*
X26693024Y37778094D01*
X26693024Y37778094D02*
X26596262Y37778094D01*
X26596262Y37778094D02*
X26547881Y37802284D01*
X26547881Y37802284D02*
X26499500Y37850665D01*
X26499500Y37850665D02*
X26475309Y37947427D01*
X26475309Y37947427D02*
X26475309Y38116761D01*
X26475309Y38116761D02*
X26499500Y38213523D01*
X26499500Y38213523D02*
X26547881Y38261904D01*
X26547881Y38261904D02*
X26596262Y38286094D01*
X26983309Y38286094D02*
X27297785Y38286094D01*
X27297785Y38286094D02*
X27128452Y38092570D01*
X27128452Y38092570D02*
X27201023Y38092570D01*
X27201023Y38092570D02*
X27249404Y38068380D01*
X27249404Y38068380D02*
X27273595Y38044189D01*
X27273595Y38044189D02*
X27297785Y37995808D01*
X27297785Y37995808D02*
X27297785Y37874856D01*
X27297785Y37874856D02*
X27273595Y37826475D01*
X27273595Y37826475D02*
X27249404Y37802284D01*
X27249404Y37802284D02*
X27201023Y37778094D01*
X27201023Y37778094D02*
X27055880Y37778094D01*
X27055880Y37778094D02*
X27007499Y37802284D01*
X27007499Y37802284D02*
X26983309Y37826475D01*
X27467119Y38286094D02*
X27781595Y38286094D01*
X27781595Y38286094D02*
X27612262Y38092570D01*
X27612262Y38092570D02*
X27684833Y38092570D01*
X27684833Y38092570D02*
X27733214Y38068380D01*
X27733214Y38068380D02*
X27757405Y38044189D01*
X27757405Y38044189D02*
X27781595Y37995808D01*
X27781595Y37995808D02*
X27781595Y37874856D01*
X27781595Y37874856D02*
X27757405Y37826475D01*
X27757405Y37826475D02*
X27733214Y37802284D01*
X27733214Y37802284D02*
X27684833Y37778094D01*
X27684833Y37778094D02*
X27539690Y37778094D01*
X27539690Y37778094D02*
X27491309Y37802284D01*
X27491309Y37802284D02*
X27467119Y37826475D01*
X25964285Y40801904D02*
X25915904Y40826094D01*
X25915904Y40826094D02*
X25843333Y40826094D01*
X25843333Y40826094D02*
X25770761Y40801904D01*
X25770761Y40801904D02*
X25722380Y40753523D01*
X25722380Y40753523D02*
X25698190Y40705142D01*
X25698190Y40705142D02*
X25673999Y40608380D01*
X25673999Y40608380D02*
X25673999Y40535808D01*
X25673999Y40535808D02*
X25698190Y40439046D01*
X25698190Y40439046D02*
X25722380Y40390665D01*
X25722380Y40390665D02*
X25770761Y40342284D01*
X25770761Y40342284D02*
X25843333Y40318094D01*
X25843333Y40318094D02*
X25891714Y40318094D01*
X25891714Y40318094D02*
X25964285Y40342284D01*
X25964285Y40342284D02*
X25988476Y40366475D01*
X25988476Y40366475D02*
X25988476Y40535808D01*
X25988476Y40535808D02*
X25891714Y40535808D01*
X26206190Y40318094D02*
X26206190Y40826094D01*
X26206190Y40826094D02*
X26399714Y40826094D01*
X26399714Y40826094D02*
X26448095Y40801904D01*
X26448095Y40801904D02*
X26472285Y40777713D01*
X26472285Y40777713D02*
X26496476Y40729332D01*
X26496476Y40729332D02*
X26496476Y40656761D01*
X26496476Y40656761D02*
X26472285Y40608380D01*
X26472285Y40608380D02*
X26448095Y40584189D01*
X26448095Y40584189D02*
X26399714Y40559999D01*
X26399714Y40559999D02*
X26206190Y40559999D01*
X26714190Y40318094D02*
X26714190Y40826094D01*
X26907714Y40826094D02*
X27222190Y40826094D01*
X27222190Y40826094D02*
X27052857Y40632570D01*
X27052857Y40632570D02*
X27125428Y40632570D01*
X27125428Y40632570D02*
X27173809Y40608380D01*
X27173809Y40608380D02*
X27198000Y40584189D01*
X27198000Y40584189D02*
X27222190Y40535808D01*
X27222190Y40535808D02*
X27222190Y40414856D01*
X27222190Y40414856D02*
X27198000Y40366475D01*
X27198000Y40366475D02*
X27173809Y40342284D01*
X27173809Y40342284D02*
X27125428Y40318094D01*
X27125428Y40318094D02*
X26980285Y40318094D01*
X26980285Y40318094D02*
X26931904Y40342284D01*
X26931904Y40342284D02*
X26907714Y40366475D01*
X27657619Y40656761D02*
X27657619Y40318094D01*
X27536667Y40850284D02*
X27415714Y40487427D01*
X27415714Y40487427D02*
X27730191Y40487427D01*
X25964285Y43341904D02*
X25915904Y43366094D01*
X25915904Y43366094D02*
X25843333Y43366094D01*
X25843333Y43366094D02*
X25770761Y43341904D01*
X25770761Y43341904D02*
X25722380Y43293523D01*
X25722380Y43293523D02*
X25698190Y43245142D01*
X25698190Y43245142D02*
X25673999Y43148380D01*
X25673999Y43148380D02*
X25673999Y43075808D01*
X25673999Y43075808D02*
X25698190Y42979046D01*
X25698190Y42979046D02*
X25722380Y42930665D01*
X25722380Y42930665D02*
X25770761Y42882284D01*
X25770761Y42882284D02*
X25843333Y42858094D01*
X25843333Y42858094D02*
X25891714Y42858094D01*
X25891714Y42858094D02*
X25964285Y42882284D01*
X25964285Y42882284D02*
X25988476Y42906475D01*
X25988476Y42906475D02*
X25988476Y43075808D01*
X25988476Y43075808D02*
X25891714Y43075808D01*
X26206190Y42858094D02*
X26206190Y43366094D01*
X26206190Y43366094D02*
X26399714Y43366094D01*
X26399714Y43366094D02*
X26448095Y43341904D01*
X26448095Y43341904D02*
X26472285Y43317713D01*
X26472285Y43317713D02*
X26496476Y43269332D01*
X26496476Y43269332D02*
X26496476Y43196761D01*
X26496476Y43196761D02*
X26472285Y43148380D01*
X26472285Y43148380D02*
X26448095Y43124189D01*
X26448095Y43124189D02*
X26399714Y43099999D01*
X26399714Y43099999D02*
X26206190Y43099999D01*
X26714190Y42858094D02*
X26714190Y43366094D01*
X26907714Y43366094D02*
X27222190Y43366094D01*
X27222190Y43366094D02*
X27052857Y43172570D01*
X27052857Y43172570D02*
X27125428Y43172570D01*
X27125428Y43172570D02*
X27173809Y43148380D01*
X27173809Y43148380D02*
X27198000Y43124189D01*
X27198000Y43124189D02*
X27222190Y43075808D01*
X27222190Y43075808D02*
X27222190Y42954856D01*
X27222190Y42954856D02*
X27198000Y42906475D01*
X27198000Y42906475D02*
X27173809Y42882284D01*
X27173809Y42882284D02*
X27125428Y42858094D01*
X27125428Y42858094D02*
X26980285Y42858094D01*
X26980285Y42858094D02*
X26931904Y42882284D01*
X26931904Y42882284D02*
X26907714Y42906475D01*
X27681810Y43366094D02*
X27439905Y43366094D01*
X27439905Y43366094D02*
X27415714Y43124189D01*
X27415714Y43124189D02*
X27439905Y43148380D01*
X27439905Y43148380D02*
X27488286Y43172570D01*
X27488286Y43172570D02*
X27609238Y43172570D01*
X27609238Y43172570D02*
X27657619Y43148380D01*
X27657619Y43148380D02*
X27681810Y43124189D01*
X27681810Y43124189D02*
X27706000Y43075808D01*
X27706000Y43075808D02*
X27706000Y42954856D01*
X27706000Y42954856D02*
X27681810Y42906475D01*
X27681810Y42906475D02*
X27657619Y42882284D01*
X27657619Y42882284D02*
X27609238Y42858094D01*
X27609238Y42858094D02*
X27488286Y42858094D01*
X27488286Y42858094D02*
X27439905Y42882284D01*
X27439905Y42882284D02*
X27415714Y42906475D01*
X25964285Y45881904D02*
X25915904Y45906094D01*
X25915904Y45906094D02*
X25843333Y45906094D01*
X25843333Y45906094D02*
X25770761Y45881904D01*
X25770761Y45881904D02*
X25722380Y45833523D01*
X25722380Y45833523D02*
X25698190Y45785142D01*
X25698190Y45785142D02*
X25673999Y45688380D01*
X25673999Y45688380D02*
X25673999Y45615808D01*
X25673999Y45615808D02*
X25698190Y45519046D01*
X25698190Y45519046D02*
X25722380Y45470665D01*
X25722380Y45470665D02*
X25770761Y45422284D01*
X25770761Y45422284D02*
X25843333Y45398094D01*
X25843333Y45398094D02*
X25891714Y45398094D01*
X25891714Y45398094D02*
X25964285Y45422284D01*
X25964285Y45422284D02*
X25988476Y45446475D01*
X25988476Y45446475D02*
X25988476Y45615808D01*
X25988476Y45615808D02*
X25891714Y45615808D01*
X26206190Y45398094D02*
X26206190Y45906094D01*
X26206190Y45906094D02*
X26399714Y45906094D01*
X26399714Y45906094D02*
X26448095Y45881904D01*
X26448095Y45881904D02*
X26472285Y45857713D01*
X26472285Y45857713D02*
X26496476Y45809332D01*
X26496476Y45809332D02*
X26496476Y45736761D01*
X26496476Y45736761D02*
X26472285Y45688380D01*
X26472285Y45688380D02*
X26448095Y45664189D01*
X26448095Y45664189D02*
X26399714Y45639999D01*
X26399714Y45639999D02*
X26206190Y45639999D01*
X26714190Y45398094D02*
X26714190Y45906094D01*
X26907714Y45906094D02*
X27222190Y45906094D01*
X27222190Y45906094D02*
X27052857Y45712570D01*
X27052857Y45712570D02*
X27125428Y45712570D01*
X27125428Y45712570D02*
X27173809Y45688380D01*
X27173809Y45688380D02*
X27198000Y45664189D01*
X27198000Y45664189D02*
X27222190Y45615808D01*
X27222190Y45615808D02*
X27222190Y45494856D01*
X27222190Y45494856D02*
X27198000Y45446475D01*
X27198000Y45446475D02*
X27173809Y45422284D01*
X27173809Y45422284D02*
X27125428Y45398094D01*
X27125428Y45398094D02*
X26980285Y45398094D01*
X26980285Y45398094D02*
X26931904Y45422284D01*
X26931904Y45422284D02*
X26907714Y45446475D01*
X27657619Y45906094D02*
X27560857Y45906094D01*
X27560857Y45906094D02*
X27512476Y45881904D01*
X27512476Y45881904D02*
X27488286Y45857713D01*
X27488286Y45857713D02*
X27439905Y45785142D01*
X27439905Y45785142D02*
X27415714Y45688380D01*
X27415714Y45688380D02*
X27415714Y45494856D01*
X27415714Y45494856D02*
X27439905Y45446475D01*
X27439905Y45446475D02*
X27464095Y45422284D01*
X27464095Y45422284D02*
X27512476Y45398094D01*
X27512476Y45398094D02*
X27609238Y45398094D01*
X27609238Y45398094D02*
X27657619Y45422284D01*
X27657619Y45422284D02*
X27681810Y45446475D01*
X27681810Y45446475D02*
X27706000Y45494856D01*
X27706000Y45494856D02*
X27706000Y45615808D01*
X27706000Y45615808D02*
X27681810Y45664189D01*
X27681810Y45664189D02*
X27657619Y45688380D01*
X27657619Y45688380D02*
X27609238Y45712570D01*
X27609238Y45712570D02*
X27512476Y45712570D01*
X27512476Y45712570D02*
X27464095Y45688380D01*
X27464095Y45688380D02*
X27439905Y45664189D01*
X27439905Y45664189D02*
X27415714Y45615808D01*
D11*
X25029929Y48867105D02*
X24957358Y48903391D01*
X24957358Y48903391D02*
X24848500Y48903391D01*
X24848500Y48903391D02*
X24739643Y48867105D01*
X24739643Y48867105D02*
X24667072Y48794534D01*
X24667072Y48794534D02*
X24630786Y48721962D01*
X24630786Y48721962D02*
X24594500Y48576819D01*
X24594500Y48576819D02*
X24594500Y48467962D01*
X24594500Y48467962D02*
X24630786Y48322819D01*
X24630786Y48322819D02*
X24667072Y48250248D01*
X24667072Y48250248D02*
X24739643Y48177676D01*
X24739643Y48177676D02*
X24848500Y48141391D01*
X24848500Y48141391D02*
X24921072Y48141391D01*
X24921072Y48141391D02*
X25029929Y48177676D01*
X25029929Y48177676D02*
X25066215Y48213962D01*
X25066215Y48213962D02*
X25066215Y48467962D01*
X25066215Y48467962D02*
X24921072Y48467962D01*
X25392786Y48141391D02*
X25392786Y48903391D01*
X25392786Y48903391D02*
X25683072Y48903391D01*
X25683072Y48903391D02*
X25755643Y48867105D01*
X25755643Y48867105D02*
X25791929Y48830819D01*
X25791929Y48830819D02*
X25828215Y48758248D01*
X25828215Y48758248D02*
X25828215Y48649391D01*
X25828215Y48649391D02*
X25791929Y48576819D01*
X25791929Y48576819D02*
X25755643Y48540534D01*
X25755643Y48540534D02*
X25683072Y48504248D01*
X25683072Y48504248D02*
X25392786Y48504248D01*
X26154786Y48141391D02*
X26154786Y48903391D01*
X26445072Y48903391D02*
X26916786Y48903391D01*
X26916786Y48903391D02*
X26662786Y48613105D01*
X26662786Y48613105D02*
X26771643Y48613105D01*
X26771643Y48613105D02*
X26844215Y48576819D01*
X26844215Y48576819D02*
X26880500Y48540534D01*
X26880500Y48540534D02*
X26916786Y48467962D01*
X26916786Y48467962D02*
X26916786Y48286534D01*
X26916786Y48286534D02*
X26880500Y48213962D01*
X26880500Y48213962D02*
X26844215Y48177676D01*
X26844215Y48177676D02*
X26771643Y48141391D01*
X26771643Y48141391D02*
X26553929Y48141391D01*
X26553929Y48141391D02*
X26481357Y48177676D01*
X26481357Y48177676D02*
X26445072Y48213962D01*
X27279643Y48141391D02*
X27424786Y48141391D01*
X27424786Y48141391D02*
X27497357Y48177676D01*
X27497357Y48177676D02*
X27533643Y48213962D01*
X27533643Y48213962D02*
X27606214Y48322819D01*
X27606214Y48322819D02*
X27642500Y48467962D01*
X27642500Y48467962D02*
X27642500Y48758248D01*
X27642500Y48758248D02*
X27606214Y48830819D01*
X27606214Y48830819D02*
X27569929Y48867105D01*
X27569929Y48867105D02*
X27497357Y48903391D01*
X27497357Y48903391D02*
X27352214Y48903391D01*
X27352214Y48903391D02*
X27279643Y48867105D01*
X27279643Y48867105D02*
X27243357Y48830819D01*
X27243357Y48830819D02*
X27207071Y48758248D01*
X27207071Y48758248D02*
X27207071Y48576819D01*
X27207071Y48576819D02*
X27243357Y48504248D01*
X27243357Y48504248D02*
X27279643Y48467962D01*
X27279643Y48467962D02*
X27352214Y48431676D01*
X27352214Y48431676D02*
X27497357Y48431676D01*
X27497357Y48431676D02*
X27569929Y48467962D01*
X27569929Y48467962D02*
X27606214Y48504248D01*
X27606214Y48504248D02*
X27642500Y48576819D01*
D10*
X8180657Y38892682D02*
X7454942Y38892682D01*
X7817799Y38892682D02*
X7817799Y40162682D01*
X7817799Y40162682D02*
X7696847Y39981254D01*
X7696847Y39981254D02*
X7575895Y39860301D01*
X7575895Y39860301D02*
X7454942Y39799825D01*
X5296765Y3519953D02*
X5296765Y4294048D01*
X5683812Y3907001D02*
X4909717Y3907001D01*
D13*
X6983833Y53559488D02*
X7534166Y53559488D01*
X7770023Y52694678D02*
X6983833Y52694678D01*
X6983833Y52694678D02*
X6983833Y54345678D01*
X6983833Y54345678D02*
X7770023Y54345678D01*
X8398976Y52773297D02*
X8634833Y52694678D01*
X8634833Y52694678D02*
X9027928Y52694678D01*
X9027928Y52694678D02*
X9185166Y52773297D01*
X9185166Y52773297D02*
X9263785Y52851917D01*
X9263785Y52851917D02*
X9342404Y53009155D01*
X9342404Y53009155D02*
X9342404Y53166393D01*
X9342404Y53166393D02*
X9263785Y53323631D01*
X9263785Y53323631D02*
X9185166Y53402250D01*
X9185166Y53402250D02*
X9027928Y53480869D01*
X9027928Y53480869D02*
X8713452Y53559488D01*
X8713452Y53559488D02*
X8556214Y53638107D01*
X8556214Y53638107D02*
X8477595Y53716726D01*
X8477595Y53716726D02*
X8398976Y53873964D01*
X8398976Y53873964D02*
X8398976Y54031202D01*
X8398976Y54031202D02*
X8477595Y54188440D01*
X8477595Y54188440D02*
X8556214Y54267059D01*
X8556214Y54267059D02*
X8713452Y54345678D01*
X8713452Y54345678D02*
X9106547Y54345678D01*
X9106547Y54345678D02*
X9342404Y54267059D01*
X10049976Y52694678D02*
X10049976Y54345678D01*
X10049976Y54345678D02*
X10678928Y54345678D01*
X10678928Y54345678D02*
X10836166Y54267059D01*
X10836166Y54267059D02*
X10914785Y54188440D01*
X10914785Y54188440D02*
X10993404Y54031202D01*
X10993404Y54031202D02*
X10993404Y53795345D01*
X10993404Y53795345D02*
X10914785Y53638107D01*
X10914785Y53638107D02*
X10836166Y53559488D01*
X10836166Y53559488D02*
X10678928Y53480869D01*
X10678928Y53480869D02*
X10049976Y53480869D01*
X11543738Y54345678D02*
X12565785Y54345678D01*
X12565785Y54345678D02*
X12015452Y53716726D01*
X12015452Y53716726D02*
X12251309Y53716726D01*
X12251309Y53716726D02*
X12408547Y53638107D01*
X12408547Y53638107D02*
X12487166Y53559488D01*
X12487166Y53559488D02*
X12565785Y53402250D01*
X12565785Y53402250D02*
X12565785Y53009155D01*
X12565785Y53009155D02*
X12487166Y52851917D01*
X12487166Y52851917D02*
X12408547Y52773297D01*
X12408547Y52773297D02*
X12251309Y52694678D01*
X12251309Y52694678D02*
X11779595Y52694678D01*
X11779595Y52694678D02*
X11622357Y52773297D01*
X11622357Y52773297D02*
X11543738Y52851917D01*
X13194738Y54188440D02*
X13273357Y54267059D01*
X13273357Y54267059D02*
X13430595Y54345678D01*
X13430595Y54345678D02*
X13823690Y54345678D01*
X13823690Y54345678D02*
X13980928Y54267059D01*
X13980928Y54267059D02*
X14059547Y54188440D01*
X14059547Y54188440D02*
X14138166Y54031202D01*
X14138166Y54031202D02*
X14138166Y53873964D01*
X14138166Y53873964D02*
X14059547Y53638107D01*
X14059547Y53638107D02*
X13116119Y52694678D01*
X13116119Y52694678D02*
X14138166Y52694678D01*
X14845738Y53323631D02*
X16103643Y53323631D01*
X16889833Y52694678D02*
X16889833Y54345678D01*
X16889833Y54345678D02*
X17518785Y54345678D01*
X17518785Y54345678D02*
X17676023Y54267059D01*
X17676023Y54267059D02*
X17754642Y54188440D01*
X17754642Y54188440D02*
X17833261Y54031202D01*
X17833261Y54031202D02*
X17833261Y53795345D01*
X17833261Y53795345D02*
X17754642Y53638107D01*
X17754642Y53638107D02*
X17676023Y53559488D01*
X17676023Y53559488D02*
X17518785Y53480869D01*
X17518785Y53480869D02*
X16889833Y53480869D01*
X18776690Y52694678D02*
X18619452Y52773297D01*
X18619452Y52773297D02*
X18540833Y52851917D01*
X18540833Y52851917D02*
X18462214Y53009155D01*
X18462214Y53009155D02*
X18462214Y53480869D01*
X18462214Y53480869D02*
X18540833Y53638107D01*
X18540833Y53638107D02*
X18619452Y53716726D01*
X18619452Y53716726D02*
X18776690Y53795345D01*
X18776690Y53795345D02*
X19012547Y53795345D01*
X19012547Y53795345D02*
X19169785Y53716726D01*
X19169785Y53716726D02*
X19248404Y53638107D01*
X19248404Y53638107D02*
X19327023Y53480869D01*
X19327023Y53480869D02*
X19327023Y53009155D01*
X19327023Y53009155D02*
X19248404Y52851917D01*
X19248404Y52851917D02*
X19169785Y52773297D01*
X19169785Y52773297D02*
X19012547Y52694678D01*
X19012547Y52694678D02*
X18776690Y52694678D01*
X20034595Y53559488D02*
X20584928Y53559488D01*
X20820785Y52694678D02*
X20034595Y52694678D01*
X20034595Y52694678D02*
X20034595Y54345678D01*
X20034595Y54345678D02*
X20820785Y54345678D01*
D10*
X5741047Y1817766D02*
X4966952Y1817766D01*
X3303857Y46258682D02*
X2578142Y46258682D01*
X2940999Y46258682D02*
X2940999Y47528682D01*
X2940999Y47528682D02*
X2820047Y47347254D01*
X2820047Y47347254D02*
X2699095Y47226301D01*
X2699095Y47226301D02*
X2578142Y47165825D01*
X1455704Y58644388D02*
X1455704Y57821911D01*
X1455704Y57821911D02*
X1504085Y57725149D01*
X1504085Y57725149D02*
X1552466Y57676768D01*
X1552466Y57676768D02*
X1649228Y57628388D01*
X1649228Y57628388D02*
X1842752Y57628388D01*
X1842752Y57628388D02*
X1939514Y57676768D01*
X1939514Y57676768D02*
X1987895Y57725149D01*
X1987895Y57725149D02*
X2036276Y57821911D01*
X2036276Y57821911D02*
X2036276Y58644388D01*
X2955514Y58644388D02*
X2761990Y58644388D01*
X2761990Y58644388D02*
X2665228Y58596007D01*
X2665228Y58596007D02*
X2616847Y58547626D01*
X2616847Y58547626D02*
X2520085Y58402483D01*
X2520085Y58402483D02*
X2471704Y58208959D01*
X2471704Y58208959D02*
X2471704Y57821911D01*
X2471704Y57821911D02*
X2520085Y57725149D01*
X2520085Y57725149D02*
X2568466Y57676768D01*
X2568466Y57676768D02*
X2665228Y57628388D01*
X2665228Y57628388D02*
X2858752Y57628388D01*
X2858752Y57628388D02*
X2955514Y57676768D01*
X2955514Y57676768D02*
X3003895Y57725149D01*
X3003895Y57725149D02*
X3052276Y57821911D01*
X3052276Y57821911D02*
X3052276Y58063816D01*
X3052276Y58063816D02*
X3003895Y58160578D01*
X3003895Y58160578D02*
X2955514Y58208959D01*
X2955514Y58208959D02*
X2858752Y58257340D01*
X2858752Y58257340D02*
X2665228Y58257340D01*
X2665228Y58257340D02*
X2568466Y58208959D01*
X2568466Y58208959D02*
X2520085Y58160578D01*
X2520085Y58160578D02*
X2471704Y58063816D01*
X8081476Y55520188D02*
X7500904Y55520188D01*
X7791190Y55520188D02*
X7791190Y56536188D01*
X7791190Y56536188D02*
X7694428Y56391045D01*
X7694428Y56391045D02*
X7597666Y56294283D01*
X7597666Y56294283D02*
X7500904Y56245902D01*
X8565285Y55520188D02*
X8758809Y55520188D01*
X8758809Y55520188D02*
X8855571Y55568568D01*
X8855571Y55568568D02*
X8903952Y55616949D01*
X8903952Y55616949D02*
X9000714Y55762092D01*
X9000714Y55762092D02*
X9049095Y55955616D01*
X9049095Y55955616D02*
X9049095Y56342664D01*
X9049095Y56342664D02*
X9000714Y56439426D01*
X9000714Y56439426D02*
X8952333Y56487807D01*
X8952333Y56487807D02*
X8855571Y56536188D01*
X8855571Y56536188D02*
X8662047Y56536188D01*
X8662047Y56536188D02*
X8565285Y56487807D01*
X8565285Y56487807D02*
X8516904Y56439426D01*
X8516904Y56439426D02*
X8468523Y56342664D01*
X8468523Y56342664D02*
X8468523Y56100759D01*
X8468523Y56100759D02*
X8516904Y56003997D01*
X8516904Y56003997D02*
X8565285Y55955616D01*
X8565285Y55955616D02*
X8662047Y55907235D01*
X8662047Y55907235D02*
X8855571Y55907235D01*
X8855571Y55907235D02*
X8952333Y55955616D01*
X8952333Y55955616D02*
X9000714Y56003997D01*
X9000714Y56003997D02*
X9049095Y56100759D01*
X7821428Y66847378D02*
X8160095Y66847378D01*
X8305238Y66315188D02*
X7821428Y66315188D01*
X7821428Y66315188D02*
X7821428Y67331188D01*
X7821428Y67331188D02*
X8305238Y67331188D01*
X8692285Y66363568D02*
X8837428Y66315188D01*
X8837428Y66315188D02*
X9079333Y66315188D01*
X9079333Y66315188D02*
X9176095Y66363568D01*
X9176095Y66363568D02*
X9224476Y66411949D01*
X9224476Y66411949D02*
X9272857Y66508711D01*
X9272857Y66508711D02*
X9272857Y66605473D01*
X9272857Y66605473D02*
X9224476Y66702235D01*
X9224476Y66702235D02*
X9176095Y66750616D01*
X9176095Y66750616D02*
X9079333Y66798997D01*
X9079333Y66798997D02*
X8885809Y66847378D01*
X8885809Y66847378D02*
X8789047Y66895759D01*
X8789047Y66895759D02*
X8740666Y66944140D01*
X8740666Y66944140D02*
X8692285Y67040902D01*
X8692285Y67040902D02*
X8692285Y67137664D01*
X8692285Y67137664D02*
X8740666Y67234426D01*
X8740666Y67234426D02*
X8789047Y67282807D01*
X8789047Y67282807D02*
X8885809Y67331188D01*
X8885809Y67331188D02*
X9127714Y67331188D01*
X9127714Y67331188D02*
X9272857Y67282807D01*
X9708285Y66315188D02*
X9708285Y67331188D01*
X9708285Y67331188D02*
X10095333Y67331188D01*
X10095333Y67331188D02*
X10192095Y67282807D01*
X10192095Y67282807D02*
X10240476Y67234426D01*
X10240476Y67234426D02*
X10288857Y67137664D01*
X10288857Y67137664D02*
X10288857Y66992521D01*
X10288857Y66992521D02*
X10240476Y66895759D01*
X10240476Y66895759D02*
X10192095Y66847378D01*
X10192095Y66847378D02*
X10095333Y66798997D01*
X10095333Y66798997D02*
X9708285Y66798997D01*
X10724285Y66702235D02*
X11498381Y66702235D01*
X11885428Y67331188D02*
X12127333Y66315188D01*
X12127333Y66315188D02*
X12320857Y67040902D01*
X12320857Y67040902D02*
X12514381Y66315188D01*
X12514381Y66315188D02*
X12756286Y67331188D01*
X13723905Y66315188D02*
X13385238Y66798997D01*
X13143333Y66315188D02*
X13143333Y67331188D01*
X13143333Y67331188D02*
X13530381Y67331188D01*
X13530381Y67331188D02*
X13627143Y67282807D01*
X13627143Y67282807D02*
X13675524Y67234426D01*
X13675524Y67234426D02*
X13723905Y67137664D01*
X13723905Y67137664D02*
X13723905Y66992521D01*
X13723905Y66992521D02*
X13675524Y66895759D01*
X13675524Y66895759D02*
X13627143Y66847378D01*
X13627143Y66847378D02*
X13530381Y66798997D01*
X13530381Y66798997D02*
X13143333Y66798997D01*
X14352857Y67331188D02*
X14546381Y67331188D01*
X14546381Y67331188D02*
X14643143Y67282807D01*
X14643143Y67282807D02*
X14739905Y67186045D01*
X14739905Y67186045D02*
X14788286Y66992521D01*
X14788286Y66992521D02*
X14788286Y66653854D01*
X14788286Y66653854D02*
X14739905Y66460330D01*
X14739905Y66460330D02*
X14643143Y66363568D01*
X14643143Y66363568D02*
X14546381Y66315188D01*
X14546381Y66315188D02*
X14352857Y66315188D01*
X14352857Y66315188D02*
X14256095Y66363568D01*
X14256095Y66363568D02*
X14159333Y66460330D01*
X14159333Y66460330D02*
X14110952Y66653854D01*
X14110952Y66653854D02*
X14110952Y66992521D01*
X14110952Y66992521D02*
X14159333Y67186045D01*
X14159333Y67186045D02*
X14256095Y67282807D01*
X14256095Y67282807D02*
X14352857Y67331188D01*
X15417238Y67331188D02*
X15610762Y67331188D01*
X15610762Y67331188D02*
X15707524Y67282807D01*
X15707524Y67282807D02*
X15804286Y67186045D01*
X15804286Y67186045D02*
X15852667Y66992521D01*
X15852667Y66992521D02*
X15852667Y66653854D01*
X15852667Y66653854D02*
X15804286Y66460330D01*
X15804286Y66460330D02*
X15707524Y66363568D01*
X15707524Y66363568D02*
X15610762Y66315188D01*
X15610762Y66315188D02*
X15417238Y66315188D01*
X15417238Y66315188D02*
X15320476Y66363568D01*
X15320476Y66363568D02*
X15223714Y66460330D01*
X15223714Y66460330D02*
X15175333Y66653854D01*
X15175333Y66653854D02*
X15175333Y66992521D01*
X15175333Y66992521D02*
X15223714Y67186045D01*
X15223714Y67186045D02*
X15320476Y67282807D01*
X15320476Y67282807D02*
X15417238Y67331188D01*
X16288095Y66315188D02*
X16288095Y67331188D01*
X16288095Y67331188D02*
X16626762Y66605473D01*
X16626762Y66605473D02*
X16965429Y67331188D01*
X16965429Y67331188D02*
X16965429Y66315188D01*
X17449238Y66702235D02*
X18223334Y66702235D01*
X18610381Y67331188D02*
X19239334Y67331188D01*
X19239334Y67331188D02*
X18900667Y66944140D01*
X18900667Y66944140D02*
X19045810Y66944140D01*
X19045810Y66944140D02*
X19142572Y66895759D01*
X19142572Y66895759D02*
X19190953Y66847378D01*
X19190953Y66847378D02*
X19239334Y66750616D01*
X19239334Y66750616D02*
X19239334Y66508711D01*
X19239334Y66508711D02*
X19190953Y66411949D01*
X19190953Y66411949D02*
X19142572Y66363568D01*
X19142572Y66363568D02*
X19045810Y66315188D01*
X19045810Y66315188D02*
X18755524Y66315188D01*
X18755524Y66315188D02*
X18658762Y66363568D01*
X18658762Y66363568D02*
X18610381Y66411949D01*
X19626381Y67234426D02*
X19674762Y67282807D01*
X19674762Y67282807D02*
X19771524Y67331188D01*
X19771524Y67331188D02*
X20013429Y67331188D01*
X20013429Y67331188D02*
X20110191Y67282807D01*
X20110191Y67282807D02*
X20158572Y67234426D01*
X20158572Y67234426D02*
X20206953Y67137664D01*
X20206953Y67137664D02*
X20206953Y67040902D01*
X20206953Y67040902D02*
X20158572Y66895759D01*
X20158572Y66895759D02*
X19578000Y66315188D01*
X19578000Y66315188D02*
X20206953Y66315188D01*
X18930904Y56439426D02*
X18979285Y56487807D01*
X18979285Y56487807D02*
X19076047Y56536188D01*
X19076047Y56536188D02*
X19317952Y56536188D01*
X19317952Y56536188D02*
X19414714Y56487807D01*
X19414714Y56487807D02*
X19463095Y56439426D01*
X19463095Y56439426D02*
X19511476Y56342664D01*
X19511476Y56342664D02*
X19511476Y56245902D01*
X19511476Y56245902D02*
X19463095Y56100759D01*
X19463095Y56100759D02*
X18882523Y55520188D01*
X18882523Y55520188D02*
X19511476Y55520188D01*
X20140428Y56536188D02*
X20237190Y56536188D01*
X20237190Y56536188D02*
X20333952Y56487807D01*
X20333952Y56487807D02*
X20382333Y56439426D01*
X20382333Y56439426D02*
X20430714Y56342664D01*
X20430714Y56342664D02*
X20479095Y56149140D01*
X20479095Y56149140D02*
X20479095Y55907235D01*
X20479095Y55907235D02*
X20430714Y55713711D01*
X20430714Y55713711D02*
X20382333Y55616949D01*
X20382333Y55616949D02*
X20333952Y55568568D01*
X20333952Y55568568D02*
X20237190Y55520188D01*
X20237190Y55520188D02*
X20140428Y55520188D01*
X20140428Y55520188D02*
X20043666Y55568568D01*
X20043666Y55568568D02*
X19995285Y55616949D01*
X19995285Y55616949D02*
X19946904Y55713711D01*
X19946904Y55713711D02*
X19898523Y55907235D01*
X19898523Y55907235D02*
X19898523Y56149140D01*
X19898523Y56149140D02*
X19946904Y56342664D01*
X19946904Y56342664D02*
X19995285Y56439426D01*
X19995285Y56439426D02*
X20043666Y56487807D01*
X20043666Y56487807D02*
X20140428Y56536188D01*
X8731812Y63403477D02*
X8731812Y62822905D01*
X8731812Y63113191D02*
X7715812Y63113191D01*
X7715812Y63113191D02*
X7860955Y63016429D01*
X7860955Y63016429D02*
X7957717Y62919667D01*
X7957717Y62919667D02*
X8006098Y62822905D01*
X7715812Y64322715D02*
X7715812Y63838905D01*
X7715812Y63838905D02*
X8199622Y63790524D01*
X8199622Y63790524D02*
X8151241Y63838905D01*
X8151241Y63838905D02*
X8102860Y63935667D01*
X8102860Y63935667D02*
X8102860Y64177572D01*
X8102860Y64177572D02*
X8151241Y64274334D01*
X8151241Y64274334D02*
X8199622Y64322715D01*
X8199622Y64322715D02*
X8296384Y64371096D01*
X8296384Y64371096D02*
X8538289Y64371096D01*
X8538289Y64371096D02*
X8635051Y64322715D01*
X8635051Y64322715D02*
X8683432Y64274334D01*
X8683432Y64274334D02*
X8731812Y64177572D01*
X8731812Y64177572D02*
X8731812Y63935667D01*
X8731812Y63935667D02*
X8683432Y63838905D01*
X8683432Y63838905D02*
X8635051Y63790524D01*
X19242574Y62822905D02*
X19194193Y62871286D01*
X19194193Y62871286D02*
X19145812Y62968048D01*
X19145812Y62968048D02*
X19145812Y63209953D01*
X19145812Y63209953D02*
X19194193Y63306715D01*
X19194193Y63306715D02*
X19242574Y63355096D01*
X19242574Y63355096D02*
X19339336Y63403477D01*
X19339336Y63403477D02*
X19436098Y63403477D01*
X19436098Y63403477D02*
X19581241Y63355096D01*
X19581241Y63355096D02*
X20161812Y62774524D01*
X20161812Y62774524D02*
X20161812Y63403477D01*
X19484479Y64274334D02*
X20161812Y64274334D01*
X19097432Y64032429D02*
X19823146Y63790524D01*
X19823146Y63790524D02*
X19823146Y64419477D01*
X3078885Y78694482D02*
X2957933Y78754958D01*
X2957933Y78754958D02*
X2897456Y78815435D01*
X2897456Y78815435D02*
X2836980Y78936387D01*
X2836980Y78936387D02*
X2836980Y79299244D01*
X2836980Y79299244D02*
X2897456Y79420197D01*
X2897456Y79420197D02*
X2957933Y79480673D01*
X2957933Y79480673D02*
X3078885Y79541149D01*
X3078885Y79541149D02*
X3260314Y79541149D01*
X3260314Y79541149D02*
X3381266Y79480673D01*
X3381266Y79480673D02*
X3441742Y79420197D01*
X3441742Y79420197D02*
X3502218Y79299244D01*
X3502218Y79299244D02*
X3502218Y78936387D01*
X3502218Y78936387D02*
X3441742Y78815435D01*
X3441742Y78815435D02*
X3381266Y78754958D01*
X3381266Y78754958D02*
X3260314Y78694482D01*
X3260314Y78694482D02*
X3078885Y78694482D01*
X10482380Y83070539D02*
X11087142Y83070539D01*
X10361428Y82707682D02*
X10784761Y83977682D01*
X10784761Y83977682D02*
X11208095Y82707682D01*
X11631427Y83554349D02*
X11631427Y82707682D01*
X11631427Y83433397D02*
X11691904Y83493873D01*
X11691904Y83493873D02*
X11812856Y83554349D01*
X11812856Y83554349D02*
X11994285Y83554349D01*
X11994285Y83554349D02*
X12115237Y83493873D01*
X12115237Y83493873D02*
X12175713Y83372920D01*
X12175713Y83372920D02*
X12175713Y82707682D01*
X12599047Y83554349D02*
X13082856Y83554349D01*
X12780475Y83977682D02*
X12780475Y82889111D01*
X12780475Y82889111D02*
X12840952Y82768158D01*
X12840952Y82768158D02*
X12961904Y82707682D01*
X12961904Y82707682D02*
X13082856Y82707682D01*
X13989999Y82768158D02*
X13869047Y82707682D01*
X13869047Y82707682D02*
X13627142Y82707682D01*
X13627142Y82707682D02*
X13506189Y82768158D01*
X13506189Y82768158D02*
X13445713Y82889111D01*
X13445713Y82889111D02*
X13445713Y83372920D01*
X13445713Y83372920D02*
X13506189Y83493873D01*
X13506189Y83493873D02*
X13627142Y83554349D01*
X13627142Y83554349D02*
X13869047Y83554349D01*
X13869047Y83554349D02*
X13989999Y83493873D01*
X13989999Y83493873D02*
X14050475Y83372920D01*
X14050475Y83372920D02*
X14050475Y83251968D01*
X14050475Y83251968D02*
X13445713Y83131016D01*
X14594760Y83554349D02*
X14594760Y82707682D01*
X14594760Y83433397D02*
X14655237Y83493873D01*
X14655237Y83493873D02*
X14776189Y83554349D01*
X14776189Y83554349D02*
X14957618Y83554349D01*
X14957618Y83554349D02*
X15078570Y83493873D01*
X15078570Y83493873D02*
X15139046Y83372920D01*
X15139046Y83372920D02*
X15139046Y82707682D01*
X15743808Y83554349D02*
X15743808Y82707682D01*
X15743808Y83433397D02*
X15804285Y83493873D01*
X15804285Y83493873D02*
X15925237Y83554349D01*
X15925237Y83554349D02*
X16106666Y83554349D01*
X16106666Y83554349D02*
X16227618Y83493873D01*
X16227618Y83493873D02*
X16288094Y83372920D01*
X16288094Y83372920D02*
X16288094Y82707682D01*
X17437142Y82707682D02*
X17437142Y83372920D01*
X17437142Y83372920D02*
X17376666Y83493873D01*
X17376666Y83493873D02*
X17255714Y83554349D01*
X17255714Y83554349D02*
X17013809Y83554349D01*
X17013809Y83554349D02*
X16892856Y83493873D01*
X17437142Y82768158D02*
X17316190Y82707682D01*
X17316190Y82707682D02*
X17013809Y82707682D01*
X17013809Y82707682D02*
X16892856Y82768158D01*
X16892856Y82768158D02*
X16832380Y82889111D01*
X16832380Y82889111D02*
X16832380Y83010063D01*
X16832380Y83010063D02*
X16892856Y83131016D01*
X16892856Y83131016D02*
X17013809Y83191492D01*
X17013809Y83191492D02*
X17316190Y83191492D01*
X17316190Y83191492D02*
X17437142Y83251968D01*
X18882523Y79396188D02*
X19511476Y79396188D01*
X19511476Y79396188D02*
X19172809Y79009140D01*
X19172809Y79009140D02*
X19317952Y79009140D01*
X19317952Y79009140D02*
X19414714Y78960759D01*
X19414714Y78960759D02*
X19463095Y78912378D01*
X19463095Y78912378D02*
X19511476Y78815616D01*
X19511476Y78815616D02*
X19511476Y78573711D01*
X19511476Y78573711D02*
X19463095Y78476949D01*
X19463095Y78476949D02*
X19414714Y78428568D01*
X19414714Y78428568D02*
X19317952Y78380188D01*
X19317952Y78380188D02*
X19027666Y78380188D01*
X19027666Y78380188D02*
X18930904Y78428568D01*
X18930904Y78428568D02*
X18882523Y78476949D01*
X20092047Y78960759D02*
X19995285Y79009140D01*
X19995285Y79009140D02*
X19946904Y79057521D01*
X19946904Y79057521D02*
X19898523Y79154283D01*
X19898523Y79154283D02*
X19898523Y79202664D01*
X19898523Y79202664D02*
X19946904Y79299426D01*
X19946904Y79299426D02*
X19995285Y79347807D01*
X19995285Y79347807D02*
X20092047Y79396188D01*
X20092047Y79396188D02*
X20285571Y79396188D01*
X20285571Y79396188D02*
X20382333Y79347807D01*
X20382333Y79347807D02*
X20430714Y79299426D01*
X20430714Y79299426D02*
X20479095Y79202664D01*
X20479095Y79202664D02*
X20479095Y79154283D01*
X20479095Y79154283D02*
X20430714Y79057521D01*
X20430714Y79057521D02*
X20382333Y79009140D01*
X20382333Y79009140D02*
X20285571Y78960759D01*
X20285571Y78960759D02*
X20092047Y78960759D01*
X20092047Y78960759D02*
X19995285Y78912378D01*
X19995285Y78912378D02*
X19946904Y78863997D01*
X19946904Y78863997D02*
X19898523Y78767235D01*
X19898523Y78767235D02*
X19898523Y78573711D01*
X19898523Y78573711D02*
X19946904Y78476949D01*
X19946904Y78476949D02*
X19995285Y78428568D01*
X19995285Y78428568D02*
X20092047Y78380188D01*
X20092047Y78380188D02*
X20285571Y78380188D01*
X20285571Y78380188D02*
X20382333Y78428568D01*
X20382333Y78428568D02*
X20430714Y78476949D01*
X20430714Y78476949D02*
X20479095Y78573711D01*
X20479095Y78573711D02*
X20479095Y78767235D01*
X20479095Y78767235D02*
X20430714Y78863997D01*
X20430714Y78863997D02*
X20382333Y78912378D01*
X20382333Y78912378D02*
X20285571Y78960759D01*
X8160095Y58592378D02*
X8498762Y58592378D01*
X8643905Y58060188D02*
X8160095Y58060188D01*
X8160095Y58060188D02*
X8160095Y59076188D01*
X8160095Y59076188D02*
X8643905Y59076188D01*
X9030952Y58108568D02*
X9176095Y58060188D01*
X9176095Y58060188D02*
X9418000Y58060188D01*
X9418000Y58060188D02*
X9514762Y58108568D01*
X9514762Y58108568D02*
X9563143Y58156949D01*
X9563143Y58156949D02*
X9611524Y58253711D01*
X9611524Y58253711D02*
X9611524Y58350473D01*
X9611524Y58350473D02*
X9563143Y58447235D01*
X9563143Y58447235D02*
X9514762Y58495616D01*
X9514762Y58495616D02*
X9418000Y58543997D01*
X9418000Y58543997D02*
X9224476Y58592378D01*
X9224476Y58592378D02*
X9127714Y58640759D01*
X9127714Y58640759D02*
X9079333Y58689140D01*
X9079333Y58689140D02*
X9030952Y58785902D01*
X9030952Y58785902D02*
X9030952Y58882664D01*
X9030952Y58882664D02*
X9079333Y58979426D01*
X9079333Y58979426D02*
X9127714Y59027807D01*
X9127714Y59027807D02*
X9224476Y59076188D01*
X9224476Y59076188D02*
X9466381Y59076188D01*
X9466381Y59076188D02*
X9611524Y59027807D01*
X10046952Y58060188D02*
X10046952Y59076188D01*
X10046952Y59076188D02*
X10434000Y59076188D01*
X10434000Y59076188D02*
X10530762Y59027807D01*
X10530762Y59027807D02*
X10579143Y58979426D01*
X10579143Y58979426D02*
X10627524Y58882664D01*
X10627524Y58882664D02*
X10627524Y58737521D01*
X10627524Y58737521D02*
X10579143Y58640759D01*
X10579143Y58640759D02*
X10530762Y58592378D01*
X10530762Y58592378D02*
X10434000Y58543997D01*
X10434000Y58543997D02*
X10046952Y58543997D01*
X10966190Y59076188D02*
X11595143Y59076188D01*
X11595143Y59076188D02*
X11256476Y58689140D01*
X11256476Y58689140D02*
X11401619Y58689140D01*
X11401619Y58689140D02*
X11498381Y58640759D01*
X11498381Y58640759D02*
X11546762Y58592378D01*
X11546762Y58592378D02*
X11595143Y58495616D01*
X11595143Y58495616D02*
X11595143Y58253711D01*
X11595143Y58253711D02*
X11546762Y58156949D01*
X11546762Y58156949D02*
X11498381Y58108568D01*
X11498381Y58108568D02*
X11401619Y58060188D01*
X11401619Y58060188D02*
X11111333Y58060188D01*
X11111333Y58060188D02*
X11014571Y58108568D01*
X11014571Y58108568D02*
X10966190Y58156949D01*
X11982190Y58979426D02*
X12030571Y59027807D01*
X12030571Y59027807D02*
X12127333Y59076188D01*
X12127333Y59076188D02*
X12369238Y59076188D01*
X12369238Y59076188D02*
X12466000Y59027807D01*
X12466000Y59027807D02*
X12514381Y58979426D01*
X12514381Y58979426D02*
X12562762Y58882664D01*
X12562762Y58882664D02*
X12562762Y58785902D01*
X12562762Y58785902D02*
X12514381Y58640759D01*
X12514381Y58640759D02*
X11933809Y58060188D01*
X11933809Y58060188D02*
X12562762Y58060188D01*
X12998190Y58447235D02*
X13772286Y58447235D01*
X14159333Y59076188D02*
X14401238Y58060188D01*
X14401238Y58060188D02*
X14594762Y58785902D01*
X14594762Y58785902D02*
X14788286Y58060188D01*
X14788286Y58060188D02*
X15030191Y59076188D01*
X15997810Y58060188D02*
X15659143Y58543997D01*
X15417238Y58060188D02*
X15417238Y59076188D01*
X15417238Y59076188D02*
X15804286Y59076188D01*
X15804286Y59076188D02*
X15901048Y59027807D01*
X15901048Y59027807D02*
X15949429Y58979426D01*
X15949429Y58979426D02*
X15997810Y58882664D01*
X15997810Y58882664D02*
X15997810Y58737521D01*
X15997810Y58737521D02*
X15949429Y58640759D01*
X15949429Y58640759D02*
X15901048Y58592378D01*
X15901048Y58592378D02*
X15804286Y58543997D01*
X15804286Y58543997D02*
X15417238Y58543997D01*
X16626762Y59076188D02*
X16820286Y59076188D01*
X16820286Y59076188D02*
X16917048Y59027807D01*
X16917048Y59027807D02*
X17013810Y58931045D01*
X17013810Y58931045D02*
X17062191Y58737521D01*
X17062191Y58737521D02*
X17062191Y58398854D01*
X17062191Y58398854D02*
X17013810Y58205330D01*
X17013810Y58205330D02*
X16917048Y58108568D01*
X16917048Y58108568D02*
X16820286Y58060188D01*
X16820286Y58060188D02*
X16626762Y58060188D01*
X16626762Y58060188D02*
X16530000Y58108568D01*
X16530000Y58108568D02*
X16433238Y58205330D01*
X16433238Y58205330D02*
X16384857Y58398854D01*
X16384857Y58398854D02*
X16384857Y58737521D01*
X16384857Y58737521D02*
X16433238Y58931045D01*
X16433238Y58931045D02*
X16530000Y59027807D01*
X16530000Y59027807D02*
X16626762Y59076188D01*
X17352476Y59076188D02*
X17691143Y58060188D01*
X17691143Y58060188D02*
X18029810Y59076188D01*
X18368476Y58592378D02*
X18707143Y58592378D01*
X18852286Y58060188D02*
X18368476Y58060188D01*
X18368476Y58060188D02*
X18368476Y59076188D01*
X18368476Y59076188D02*
X18852286Y59076188D01*
X19868286Y58060188D02*
X19529619Y58543997D01*
X19287714Y58060188D02*
X19287714Y59076188D01*
X19287714Y59076188D02*
X19674762Y59076188D01*
X19674762Y59076188D02*
X19771524Y59027807D01*
X19771524Y59027807D02*
X19819905Y58979426D01*
X19819905Y58979426D02*
X19868286Y58882664D01*
X19868286Y58882664D02*
X19868286Y58737521D01*
X19868286Y58737521D02*
X19819905Y58640759D01*
X19819905Y58640759D02*
X19771524Y58592378D01*
X19771524Y58592378D02*
X19674762Y58543997D01*
X19674762Y58543997D02*
X19287714Y58543997D01*
X7930286Y78380188D02*
X7349714Y78380188D01*
X7640000Y78380188D02*
X7640000Y79396188D01*
X7640000Y79396188D02*
X7543238Y79251045D01*
X7543238Y79251045D02*
X7446476Y79154283D01*
X7446476Y79154283D02*
X7349714Y79105902D01*
X12520428Y40153188D02*
X12520428Y39330711D01*
X12520428Y39330711D02*
X12568809Y39233949D01*
X12568809Y39233949D02*
X12617190Y39185568D01*
X12617190Y39185568D02*
X12713952Y39137188D01*
X12713952Y39137188D02*
X12907476Y39137188D01*
X12907476Y39137188D02*
X13004238Y39185568D01*
X13004238Y39185568D02*
X13052619Y39233949D01*
X13052619Y39233949D02*
X13101000Y39330711D01*
X13101000Y39330711D02*
X13101000Y40153188D01*
X13584809Y39669378D02*
X13923476Y39669378D01*
X14068619Y39137188D02*
X13584809Y39137188D01*
X13584809Y39137188D02*
X13584809Y40153188D01*
X13584809Y40153188D02*
X14068619Y40153188D01*
X14407285Y40153188D02*
X15084619Y39137188D01*
X15084619Y40153188D02*
X14407285Y39137188D01*
X15326523Y40153188D02*
X15907095Y40153188D01*
X15616809Y39137188D02*
X15616809Y40153188D01*
X16777952Y39137188D02*
X16197380Y39137188D01*
X16487666Y39137188D02*
X16487666Y40153188D01*
X16487666Y40153188D02*
X16390904Y40008045D01*
X16390904Y40008045D02*
X16294142Y39911283D01*
X16294142Y39911283D02*
X16197380Y39862902D01*
X6642142Y47661730D02*
X6702618Y47722206D01*
X6702618Y47722206D02*
X6823571Y47782682D01*
X6823571Y47782682D02*
X7125952Y47782682D01*
X7125952Y47782682D02*
X7246904Y47722206D01*
X7246904Y47722206D02*
X7307380Y47661730D01*
X7307380Y47661730D02*
X7367857Y47540778D01*
X7367857Y47540778D02*
X7367857Y47419825D01*
X7367857Y47419825D02*
X7307380Y47238397D01*
X7307380Y47238397D02*
X6581666Y46512682D01*
X6581666Y46512682D02*
X7367857Y46512682D01*
X7367857Y43972682D02*
X6642142Y43972682D01*
X7004999Y43972682D02*
X7004999Y45242682D01*
X7004999Y45242682D02*
X6884047Y45061254D01*
X6884047Y45061254D02*
X6763095Y44940301D01*
X6763095Y44940301D02*
X6642142Y44879825D01*
D14*
X4153512Y26542634D02*
X3264512Y26542634D01*
X3264512Y26542634D02*
X3264512Y26754301D01*
X3264512Y26754301D02*
X3306845Y26881301D01*
X3306845Y26881301D02*
X3391512Y26965967D01*
X3391512Y26965967D02*
X3476179Y27008301D01*
X3476179Y27008301D02*
X3645512Y27050634D01*
X3645512Y27050634D02*
X3772512Y27050634D01*
X3772512Y27050634D02*
X3941845Y27008301D01*
X3941845Y27008301D02*
X4026512Y26965967D01*
X4026512Y26965967D02*
X4111179Y26881301D01*
X4111179Y26881301D02*
X4153512Y26754301D01*
X4153512Y26754301D02*
X4153512Y26542634D01*
X3349179Y27389301D02*
X3306845Y27431634D01*
X3306845Y27431634D02*
X3264512Y27516301D01*
X3264512Y27516301D02*
X3264512Y27727967D01*
X3264512Y27727967D02*
X3306845Y27812634D01*
X3306845Y27812634D02*
X3349179Y27854967D01*
X3349179Y27854967D02*
X3433845Y27897301D01*
X3433845Y27897301D02*
X3518512Y27897301D01*
X3518512Y27897301D02*
X3645512Y27854967D01*
X3645512Y27854967D02*
X4153512Y27346967D01*
X4153512Y27346967D02*
X4153512Y27897301D01*
D11*
X5678466Y20544001D02*
X5678466Y20290001D01*
X6077609Y20290001D02*
X5315609Y20290001D01*
X5315609Y20290001D02*
X5315609Y20652858D01*
X5678466Y20943144D02*
X5678466Y21197144D01*
X6077609Y21306001D02*
X6077609Y20943144D01*
X6077609Y20943144D02*
X5315609Y20943144D01*
X5315609Y20943144D02*
X5315609Y21306001D01*
X5315609Y21523716D02*
X5315609Y21959144D01*
X6077609Y21741430D02*
X5315609Y21741430D01*
X5388181Y22176858D02*
X5351895Y22213144D01*
X5351895Y22213144D02*
X5315609Y22285715D01*
X5315609Y22285715D02*
X5315609Y22467144D01*
X5315609Y22467144D02*
X5351895Y22539715D01*
X5351895Y22539715D02*
X5388181Y22576001D01*
X5388181Y22576001D02*
X5460752Y22612287D01*
X5460752Y22612287D02*
X5533324Y22612287D01*
X5533324Y22612287D02*
X5642181Y22576001D01*
X5642181Y22576001D02*
X6077609Y22140573D01*
X6077609Y22140573D02*
X6077609Y22612287D01*
D15*
X27737508Y67506786D02*
X27435127Y67295119D01*
X27737508Y67143929D02*
X27102508Y67143929D01*
X27102508Y67143929D02*
X27102508Y67385834D01*
X27102508Y67385834D02*
X27132746Y67446310D01*
X27132746Y67446310D02*
X27162984Y67476548D01*
X27162984Y67476548D02*
X27223460Y67506786D01*
X27223460Y67506786D02*
X27314174Y67506786D01*
X27314174Y67506786D02*
X27374650Y67476548D01*
X27374650Y67476548D02*
X27404889Y67446310D01*
X27404889Y67446310D02*
X27435127Y67385834D01*
X27435127Y67385834D02*
X27435127Y67143929D01*
X27314174Y68051072D02*
X27737508Y68051072D01*
X27072270Y67899881D02*
X27525841Y67748691D01*
X27525841Y67748691D02*
X27525841Y68141786D01*
X27374650Y68474405D02*
X27344412Y68413929D01*
X27344412Y68413929D02*
X27314174Y68383691D01*
X27314174Y68383691D02*
X27253698Y68353453D01*
X27253698Y68353453D02*
X27223460Y68353453D01*
X27223460Y68353453D02*
X27162984Y68383691D01*
X27162984Y68383691D02*
X27132746Y68413929D01*
X27132746Y68413929D02*
X27102508Y68474405D01*
X27102508Y68474405D02*
X27102508Y68595358D01*
X27102508Y68595358D02*
X27132746Y68655834D01*
X27132746Y68655834D02*
X27162984Y68686072D01*
X27162984Y68686072D02*
X27223460Y68716310D01*
X27223460Y68716310D02*
X27253698Y68716310D01*
X27253698Y68716310D02*
X27314174Y68686072D01*
X27314174Y68686072D02*
X27344412Y68655834D01*
X27344412Y68655834D02*
X27374650Y68595358D01*
X27374650Y68595358D02*
X27374650Y68474405D01*
X27374650Y68474405D02*
X27404889Y68413929D01*
X27404889Y68413929D02*
X27435127Y68383691D01*
X27435127Y68383691D02*
X27495603Y68353453D01*
X27495603Y68353453D02*
X27616555Y68353453D01*
X27616555Y68353453D02*
X27677031Y68383691D01*
X27677031Y68383691D02*
X27707270Y68413929D01*
X27707270Y68413929D02*
X27737508Y68474405D01*
X27737508Y68474405D02*
X27737508Y68595358D01*
X27737508Y68595358D02*
X27707270Y68655834D01*
X27707270Y68655834D02*
X27677031Y68686072D01*
X27677031Y68686072D02*
X27616555Y68716310D01*
X27616555Y68716310D02*
X27495603Y68716310D01*
X27495603Y68716310D02*
X27435127Y68686072D01*
X27435127Y68686072D02*
X27404889Y68655834D01*
X27404889Y68655834D02*
X27374650Y68595358D01*
D12*
X25496006Y76503829D02*
X25254101Y76334495D01*
X25496006Y76213543D02*
X24988006Y76213543D01*
X24988006Y76213543D02*
X24988006Y76407067D01*
X24988006Y76407067D02*
X25012196Y76455448D01*
X25012196Y76455448D02*
X25036387Y76479638D01*
X25036387Y76479638D02*
X25084768Y76503829D01*
X25084768Y76503829D02*
X25157339Y76503829D01*
X25157339Y76503829D02*
X25205720Y76479638D01*
X25205720Y76479638D02*
X25229911Y76455448D01*
X25229911Y76455448D02*
X25254101Y76407067D01*
X25254101Y76407067D02*
X25254101Y76213543D01*
X25157339Y76939257D02*
X25496006Y76939257D01*
X24963816Y76818305D02*
X25326673Y76697352D01*
X25326673Y76697352D02*
X25326673Y77011829D01*
X24988006Y77156972D02*
X24988006Y77495639D01*
X24988006Y77495639D02*
X25496006Y77277924D01*
D15*
X27635908Y60394786D02*
X27333527Y60183119D01*
X27635908Y60031929D02*
X27000908Y60031929D01*
X27000908Y60031929D02*
X27000908Y60273834D01*
X27000908Y60273834D02*
X27031146Y60334310D01*
X27031146Y60334310D02*
X27061384Y60364548D01*
X27061384Y60364548D02*
X27121860Y60394786D01*
X27121860Y60394786D02*
X27212574Y60394786D01*
X27212574Y60394786D02*
X27273050Y60364548D01*
X27273050Y60364548D02*
X27303289Y60334310D01*
X27303289Y60334310D02*
X27333527Y60273834D01*
X27333527Y60273834D02*
X27333527Y60031929D01*
X27000908Y60606453D02*
X27000908Y60999548D01*
X27000908Y60999548D02*
X27242812Y60787881D01*
X27242812Y60787881D02*
X27242812Y60878596D01*
X27242812Y60878596D02*
X27273050Y60939072D01*
X27273050Y60939072D02*
X27303289Y60969310D01*
X27303289Y60969310D02*
X27363765Y60999548D01*
X27363765Y60999548D02*
X27514955Y60999548D01*
X27514955Y60999548D02*
X27575431Y60969310D01*
X27575431Y60969310D02*
X27605670Y60939072D01*
X27605670Y60939072D02*
X27635908Y60878596D01*
X27635908Y60878596D02*
X27635908Y60697167D01*
X27635908Y60697167D02*
X27605670Y60636691D01*
X27605670Y60636691D02*
X27575431Y60606453D01*
X27635908Y61301929D02*
X27635908Y61422881D01*
X27635908Y61422881D02*
X27605670Y61483358D01*
X27605670Y61483358D02*
X27575431Y61513596D01*
X27575431Y61513596D02*
X27484717Y61574072D01*
X27484717Y61574072D02*
X27363765Y61604310D01*
X27363765Y61604310D02*
X27121860Y61604310D01*
X27121860Y61604310D02*
X27061384Y61574072D01*
X27061384Y61574072D02*
X27031146Y61543834D01*
X27031146Y61543834D02*
X27000908Y61483358D01*
X27000908Y61483358D02*
X27000908Y61362405D01*
X27000908Y61362405D02*
X27031146Y61301929D01*
X27031146Y61301929D02*
X27061384Y61271691D01*
X27061384Y61271691D02*
X27121860Y61241453D01*
X27121860Y61241453D02*
X27273050Y61241453D01*
X27273050Y61241453D02*
X27333527Y61271691D01*
X27333527Y61271691D02*
X27363765Y61301929D01*
X27363765Y61301929D02*
X27394003Y61362405D01*
X27394003Y61362405D02*
X27394003Y61483358D01*
X27394003Y61483358D02*
X27363765Y61543834D01*
X27363765Y61543834D02*
X27333527Y61574072D01*
X27333527Y61574072D02*
X27273050Y61604310D01*
D11*
X1181143Y67064391D02*
X927143Y67427248D01*
X745714Y67064391D02*
X745714Y67826391D01*
X745714Y67826391D02*
X1036000Y67826391D01*
X1036000Y67826391D02*
X1108571Y67790105D01*
X1108571Y67790105D02*
X1144857Y67753819D01*
X1144857Y67753819D02*
X1181143Y67681248D01*
X1181143Y67681248D02*
X1181143Y67572391D01*
X1181143Y67572391D02*
X1144857Y67499819D01*
X1144857Y67499819D02*
X1108571Y67463534D01*
X1108571Y67463534D02*
X1036000Y67427248D01*
X1036000Y67427248D02*
X745714Y67427248D01*
X1435143Y67826391D02*
X1906857Y67826391D01*
X1906857Y67826391D02*
X1652857Y67536105D01*
X1652857Y67536105D02*
X1761714Y67536105D01*
X1761714Y67536105D02*
X1834286Y67499819D01*
X1834286Y67499819D02*
X1870571Y67463534D01*
X1870571Y67463534D02*
X1906857Y67390962D01*
X1906857Y67390962D02*
X1906857Y67209534D01*
X1906857Y67209534D02*
X1870571Y67136962D01*
X1870571Y67136962D02*
X1834286Y67100676D01*
X1834286Y67100676D02*
X1761714Y67064391D01*
X1761714Y67064391D02*
X1544000Y67064391D01*
X1544000Y67064391D02*
X1471428Y67100676D01*
X1471428Y67100676D02*
X1435143Y67136962D01*
X2197142Y67753819D02*
X2233428Y67790105D01*
X2233428Y67790105D02*
X2306000Y67826391D01*
X2306000Y67826391D02*
X2487428Y67826391D01*
X2487428Y67826391D02*
X2560000Y67790105D01*
X2560000Y67790105D02*
X2596285Y67753819D01*
X2596285Y67753819D02*
X2632571Y67681248D01*
X2632571Y67681248D02*
X2632571Y67608676D01*
X2632571Y67608676D02*
X2596285Y67499819D01*
X2596285Y67499819D02*
X2160857Y67064391D01*
X2160857Y67064391D02*
X2632571Y67064391D01*
D15*
X27674008Y63569786D02*
X27371627Y63358119D01*
X27674008Y63206929D02*
X27039008Y63206929D01*
X27039008Y63206929D02*
X27039008Y63448834D01*
X27039008Y63448834D02*
X27069246Y63509310D01*
X27069246Y63509310D02*
X27099484Y63539548D01*
X27099484Y63539548D02*
X27159960Y63569786D01*
X27159960Y63569786D02*
X27250674Y63569786D01*
X27250674Y63569786D02*
X27311150Y63539548D01*
X27311150Y63539548D02*
X27341389Y63509310D01*
X27341389Y63509310D02*
X27371627Y63448834D01*
X27371627Y63448834D02*
X27371627Y63206929D01*
X27039008Y63781453D02*
X27039008Y64174548D01*
X27039008Y64174548D02*
X27280912Y63962881D01*
X27280912Y63962881D02*
X27280912Y64053596D01*
X27280912Y64053596D02*
X27311150Y64114072D01*
X27311150Y64114072D02*
X27341389Y64144310D01*
X27341389Y64144310D02*
X27401865Y64174548D01*
X27401865Y64174548D02*
X27553055Y64174548D01*
X27553055Y64174548D02*
X27613531Y64144310D01*
X27613531Y64144310D02*
X27643770Y64114072D01*
X27643770Y64114072D02*
X27674008Y64053596D01*
X27674008Y64053596D02*
X27674008Y63872167D01*
X27674008Y63872167D02*
X27643770Y63811691D01*
X27643770Y63811691D02*
X27613531Y63781453D01*
X27674008Y64779310D02*
X27674008Y64416453D01*
X27674008Y64597881D02*
X27039008Y64597881D01*
X27039008Y64597881D02*
X27129722Y64537405D01*
X27129722Y64537405D02*
X27190198Y64476929D01*
X27190198Y64476929D02*
X27220436Y64416453D01*
D11*
X2052000Y63254391D02*
X1798000Y63617248D01*
X1616571Y63254391D02*
X1616571Y64016391D01*
X1616571Y64016391D02*
X1906857Y64016391D01*
X1906857Y64016391D02*
X1979428Y63980105D01*
X1979428Y63980105D02*
X2015714Y63943819D01*
X2015714Y63943819D02*
X2052000Y63871248D01*
X2052000Y63871248D02*
X2052000Y63762391D01*
X2052000Y63762391D02*
X2015714Y63689819D01*
X2015714Y63689819D02*
X1979428Y63653534D01*
X1979428Y63653534D02*
X1906857Y63617248D01*
X1906857Y63617248D02*
X1616571Y63617248D01*
X2705143Y63762391D02*
X2705143Y63254391D01*
X2523714Y64052676D02*
X2342285Y63508391D01*
X2342285Y63508391D02*
X2814000Y63508391D01*
D15*
X7534166Y4510492D02*
X7322499Y4812873D01*
X7171309Y4510492D02*
X7171309Y5145492D01*
X7171309Y5145492D02*
X7413214Y5145492D01*
X7413214Y5145492D02*
X7473690Y5115254D01*
X7473690Y5115254D02*
X7503928Y5085016D01*
X7503928Y5085016D02*
X7534166Y5024540D01*
X7534166Y5024540D02*
X7534166Y4933826D01*
X7534166Y4933826D02*
X7503928Y4873350D01*
X7503928Y4873350D02*
X7473690Y4843111D01*
X7473690Y4843111D02*
X7413214Y4812873D01*
X7413214Y4812873D02*
X7171309Y4812873D01*
X7897023Y4873350D02*
X7836547Y4903588D01*
X7836547Y4903588D02*
X7806309Y4933826D01*
X7806309Y4933826D02*
X7776071Y4994302D01*
X7776071Y4994302D02*
X7776071Y5024540D01*
X7776071Y5024540D02*
X7806309Y5085016D01*
X7806309Y5085016D02*
X7836547Y5115254D01*
X7836547Y5115254D02*
X7897023Y5145492D01*
X7897023Y5145492D02*
X8017976Y5145492D01*
X8017976Y5145492D02*
X8078452Y5115254D01*
X8078452Y5115254D02*
X8108690Y5085016D01*
X8108690Y5085016D02*
X8138928Y5024540D01*
X8138928Y5024540D02*
X8138928Y4994302D01*
X8138928Y4994302D02*
X8108690Y4933826D01*
X8108690Y4933826D02*
X8078452Y4903588D01*
X8078452Y4903588D02*
X8017976Y4873350D01*
X8017976Y4873350D02*
X7897023Y4873350D01*
X7897023Y4873350D02*
X7836547Y4843111D01*
X7836547Y4843111D02*
X7806309Y4812873D01*
X7806309Y4812873D02*
X7776071Y4752397D01*
X7776071Y4752397D02*
X7776071Y4631445D01*
X7776071Y4631445D02*
X7806309Y4570969D01*
X7806309Y4570969D02*
X7836547Y4540730D01*
X7836547Y4540730D02*
X7897023Y4510492D01*
X7897023Y4510492D02*
X8017976Y4510492D01*
X8017976Y4510492D02*
X8078452Y4540730D01*
X8078452Y4540730D02*
X8108690Y4570969D01*
X8108690Y4570969D02*
X8138928Y4631445D01*
X8138928Y4631445D02*
X8138928Y4752397D01*
X8138928Y4752397D02*
X8108690Y4812873D01*
X8108690Y4812873D02*
X8078452Y4843111D01*
X8078452Y4843111D02*
X8017976Y4873350D01*
X9389031Y4611548D02*
X9419270Y4581310D01*
X9419270Y4581310D02*
X9449508Y4490596D01*
X9449508Y4490596D02*
X9449508Y4430120D01*
X9449508Y4430120D02*
X9419270Y4339405D01*
X9419270Y4339405D02*
X9358793Y4278929D01*
X9358793Y4278929D02*
X9298317Y4248691D01*
X9298317Y4248691D02*
X9177365Y4218453D01*
X9177365Y4218453D02*
X9086650Y4218453D01*
X9086650Y4218453D02*
X8965698Y4248691D01*
X8965698Y4248691D02*
X8905222Y4278929D01*
X8905222Y4278929D02*
X8844746Y4339405D01*
X8844746Y4339405D02*
X8814508Y4430120D01*
X8814508Y4430120D02*
X8814508Y4490596D01*
X8814508Y4490596D02*
X8844746Y4581310D01*
X8844746Y4581310D02*
X8874984Y4611548D01*
X9449508Y4883691D02*
X8814508Y4883691D01*
X9116889Y4883691D02*
X9116889Y5246548D01*
X9449508Y5246548D02*
X8814508Y5246548D01*
X9449508Y5911786D02*
X9147127Y5700119D01*
X9449508Y5548929D02*
X8814508Y5548929D01*
X8814508Y5548929D02*
X8814508Y5790834D01*
X8814508Y5790834D02*
X8844746Y5851310D01*
X8844746Y5851310D02*
X8874984Y5881548D01*
X8874984Y5881548D02*
X8935460Y5911786D01*
X8935460Y5911786D02*
X9026174Y5911786D01*
X9026174Y5911786D02*
X9086650Y5881548D01*
X9086650Y5881548D02*
X9116889Y5851310D01*
X9116889Y5851310D02*
X9147127Y5790834D01*
X9147127Y5790834D02*
X9147127Y5548929D01*
X8844746Y6516548D02*
X8814508Y6456072D01*
X8814508Y6456072D02*
X8814508Y6365358D01*
X8814508Y6365358D02*
X8844746Y6274643D01*
X8844746Y6274643D02*
X8905222Y6214167D01*
X8905222Y6214167D02*
X8965698Y6183929D01*
X8965698Y6183929D02*
X9086650Y6153691D01*
X9086650Y6153691D02*
X9177365Y6153691D01*
X9177365Y6153691D02*
X9298317Y6183929D01*
X9298317Y6183929D02*
X9358793Y6214167D01*
X9358793Y6214167D02*
X9419270Y6274643D01*
X9419270Y6274643D02*
X9449508Y6365358D01*
X9449508Y6365358D02*
X9449508Y6425834D01*
X9449508Y6425834D02*
X9419270Y6516548D01*
X9419270Y6516548D02*
X9389031Y6546786D01*
X9389031Y6546786D02*
X9177365Y6546786D01*
X9177365Y6546786D02*
X9177365Y6425834D01*
X9449508Y7151548D02*
X9449508Y6788691D01*
X9449508Y6970119D02*
X8814508Y6970119D01*
X8814508Y6970119D02*
X8905222Y6909643D01*
X8905222Y6909643D02*
X8965698Y6849167D01*
X8965698Y6849167D02*
X8995936Y6788691D01*
X6010166Y4510492D02*
X5798499Y4812873D01*
X5647309Y4510492D02*
X5647309Y5145492D01*
X5647309Y5145492D02*
X5889214Y5145492D01*
X5889214Y5145492D02*
X5949690Y5115254D01*
X5949690Y5115254D02*
X5979928Y5085016D01*
X5979928Y5085016D02*
X6010166Y5024540D01*
X6010166Y5024540D02*
X6010166Y4933826D01*
X6010166Y4933826D02*
X5979928Y4873350D01*
X5979928Y4873350D02*
X5949690Y4843111D01*
X5949690Y4843111D02*
X5889214Y4812873D01*
X5889214Y4812873D02*
X5647309Y4812873D01*
X6584690Y5145492D02*
X6282309Y5145492D01*
X6282309Y5145492D02*
X6252071Y4843111D01*
X6252071Y4843111D02*
X6282309Y4873350D01*
X6282309Y4873350D02*
X6342785Y4903588D01*
X6342785Y4903588D02*
X6493976Y4903588D01*
X6493976Y4903588D02*
X6554452Y4873350D01*
X6554452Y4873350D02*
X6584690Y4843111D01*
X6584690Y4843111D02*
X6614928Y4782635D01*
X6614928Y4782635D02*
X6614928Y4631445D01*
X6614928Y4631445D02*
X6584690Y4570969D01*
X6584690Y4570969D02*
X6554452Y4540730D01*
X6554452Y4540730D02*
X6493976Y4510492D01*
X6493976Y4510492D02*
X6342785Y4510492D01*
X6342785Y4510492D02*
X6282309Y4540730D01*
X6282309Y4540730D02*
X6252071Y4570969D01*
X21328785Y16956492D02*
X21117118Y17258873D01*
X20965928Y16956492D02*
X20965928Y17591492D01*
X20965928Y17591492D02*
X21207833Y17591492D01*
X21207833Y17591492D02*
X21268309Y17561254D01*
X21268309Y17561254D02*
X21298547Y17531016D01*
X21298547Y17531016D02*
X21328785Y17470540D01*
X21328785Y17470540D02*
X21328785Y17379826D01*
X21328785Y17379826D02*
X21298547Y17319350D01*
X21298547Y17319350D02*
X21268309Y17289111D01*
X21268309Y17289111D02*
X21207833Y17258873D01*
X21207833Y17258873D02*
X20965928Y17258873D01*
X21933547Y16956492D02*
X21570690Y16956492D01*
X21752118Y16956492D02*
X21752118Y17591492D01*
X21752118Y17591492D02*
X21691642Y17500778D01*
X21691642Y17500778D02*
X21631166Y17440302D01*
X21631166Y17440302D02*
X21570690Y17410064D01*
X22145214Y17591492D02*
X22538309Y17591492D01*
X22538309Y17591492D02*
X22326642Y17349588D01*
X22326642Y17349588D02*
X22417357Y17349588D01*
X22417357Y17349588D02*
X22477833Y17319350D01*
X22477833Y17319350D02*
X22508071Y17289111D01*
X22508071Y17289111D02*
X22538309Y17228635D01*
X22538309Y17228635D02*
X22538309Y17077445D01*
X22538309Y17077445D02*
X22508071Y17016969D01*
X22508071Y17016969D02*
X22477833Y16986730D01*
X22477833Y16986730D02*
X22417357Y16956492D01*
X22417357Y16956492D02*
X22235928Y16956492D01*
X22235928Y16956492D02*
X22175452Y16986730D01*
X22175452Y16986730D02*
X22145214Y17016969D01*
X23913464Y62794767D02*
X23977608Y63158254D01*
X23656885Y63051346D02*
X24105898Y63500358D01*
X24105898Y63500358D02*
X24276950Y63329306D01*
X24276950Y63329306D02*
X24298332Y63265161D01*
X24298332Y63265161D02*
X24298332Y63222398D01*
X24298332Y63222398D02*
X24276950Y63158254D01*
X24276950Y63158254D02*
X24212806Y63094109D01*
X24212806Y63094109D02*
X24148661Y63072727D01*
X24148661Y63072727D02*
X24105898Y63072727D01*
X24105898Y63072727D02*
X24041753Y63094109D01*
X24041753Y63094109D02*
X23870701Y63265161D01*
X24597674Y62709241D02*
X24298332Y62409899D01*
X24661818Y62987201D02*
X24234187Y62773385D01*
X24234187Y62773385D02*
X24512147Y62495425D01*
X25025305Y62281609D02*
X24725963Y61982268D01*
X25089450Y62559570D02*
X24661818Y62345754D01*
X24661818Y62345754D02*
X24939779Y62067794D01*
D11*
X25000609Y22975144D02*
X24637752Y22721144D01*
X25000609Y22539715D02*
X24238609Y22539715D01*
X24238609Y22539715D02*
X24238609Y22830001D01*
X24238609Y22830001D02*
X24274895Y22902572D01*
X24274895Y22902572D02*
X24311181Y22938858D01*
X24311181Y22938858D02*
X24383752Y22975144D01*
X24383752Y22975144D02*
X24492609Y22975144D01*
X24492609Y22975144D02*
X24565181Y22938858D01*
X24565181Y22938858D02*
X24601466Y22902572D01*
X24601466Y22902572D02*
X24637752Y22830001D01*
X24637752Y22830001D02*
X24637752Y22539715D01*
X24311181Y23265429D02*
X24274895Y23301715D01*
X24274895Y23301715D02*
X24238609Y23374286D01*
X24238609Y23374286D02*
X24238609Y23555715D01*
X24238609Y23555715D02*
X24274895Y23628286D01*
X24274895Y23628286D02*
X24311181Y23664572D01*
X24311181Y23664572D02*
X24383752Y23700858D01*
X24383752Y23700858D02*
X24456324Y23700858D01*
X24456324Y23700858D02*
X24565181Y23664572D01*
X24565181Y23664572D02*
X25000609Y23229144D01*
X25000609Y23229144D02*
X25000609Y23700858D01*
X24238609Y24390286D02*
X24238609Y24027429D01*
X24238609Y24027429D02*
X24601466Y23991143D01*
X24601466Y23991143D02*
X24565181Y24027429D01*
X24565181Y24027429D02*
X24528895Y24100000D01*
X24528895Y24100000D02*
X24528895Y24281429D01*
X24528895Y24281429D02*
X24565181Y24354000D01*
X24565181Y24354000D02*
X24601466Y24390286D01*
X24601466Y24390286D02*
X24674038Y24426572D01*
X24674038Y24426572D02*
X24855466Y24426572D01*
X24855466Y24426572D02*
X24928038Y24390286D01*
X24928038Y24390286D02*
X24964324Y24354000D01*
X24964324Y24354000D02*
X25000609Y24281429D01*
X25000609Y24281429D02*
X25000609Y24100000D01*
X25000609Y24100000D02*
X24964324Y24027429D01*
X24964324Y24027429D02*
X24928038Y23991143D01*
X27540609Y10728715D02*
X27540609Y10365858D01*
X27540609Y10365858D02*
X26778609Y10365858D01*
X27322895Y10946429D02*
X27322895Y11309286D01*
X27540609Y10873858D02*
X26778609Y11127858D01*
X26778609Y11127858D02*
X27540609Y11381858D01*
X27540609Y11635858D02*
X26778609Y11635858D01*
X26778609Y11635858D02*
X27540609Y12071287D01*
X27540609Y12071287D02*
X26778609Y12071287D01*
X27613181Y12252715D02*
X27613181Y12833287D01*
X27468038Y13450144D02*
X27504324Y13413858D01*
X27504324Y13413858D02*
X27540609Y13305001D01*
X27540609Y13305001D02*
X27540609Y13232429D01*
X27540609Y13232429D02*
X27504324Y13123572D01*
X27504324Y13123572D02*
X27431752Y13051001D01*
X27431752Y13051001D02*
X27359181Y13014715D01*
X27359181Y13014715D02*
X27214038Y12978429D01*
X27214038Y12978429D02*
X27105181Y12978429D01*
X27105181Y12978429D02*
X26960038Y13014715D01*
X26960038Y13014715D02*
X26887466Y13051001D01*
X26887466Y13051001D02*
X26814895Y13123572D01*
X26814895Y13123572D02*
X26778609Y13232429D01*
X26778609Y13232429D02*
X26778609Y13305001D01*
X26778609Y13305001D02*
X26814895Y13413858D01*
X26814895Y13413858D02*
X26851181Y13450144D01*
X26778609Y13921858D02*
X26778609Y14067001D01*
X26778609Y14067001D02*
X26814895Y14139572D01*
X26814895Y14139572D02*
X26887466Y14212144D01*
X26887466Y14212144D02*
X27032609Y14248429D01*
X27032609Y14248429D02*
X27286609Y14248429D01*
X27286609Y14248429D02*
X27431752Y14212144D01*
X27431752Y14212144D02*
X27504324Y14139572D01*
X27504324Y14139572D02*
X27540609Y14067001D01*
X27540609Y14067001D02*
X27540609Y13921858D01*
X27540609Y13921858D02*
X27504324Y13849286D01*
X27504324Y13849286D02*
X27431752Y13776715D01*
X27431752Y13776715D02*
X27286609Y13740429D01*
X27286609Y13740429D02*
X27032609Y13740429D01*
X27032609Y13740429D02*
X26887466Y13776715D01*
X26887466Y13776715D02*
X26814895Y13849286D01*
X26814895Y13849286D02*
X26778609Y13921858D01*
X27540609Y14575001D02*
X26778609Y14575001D01*
X26778609Y14575001D02*
X27540609Y15010430D01*
X27540609Y15010430D02*
X26778609Y15010430D01*
X27540609Y15772430D02*
X27540609Y15337001D01*
X27540609Y15554716D02*
X26778609Y15554716D01*
X26778609Y15554716D02*
X26887466Y15482144D01*
X26887466Y15482144D02*
X26960038Y15409573D01*
X26960038Y15409573D02*
X26996324Y15337001D01*
X25209543Y21543962D02*
X25173257Y21507676D01*
X25173257Y21507676D02*
X25064400Y21471391D01*
X25064400Y21471391D02*
X24991828Y21471391D01*
X24991828Y21471391D02*
X24882971Y21507676D01*
X24882971Y21507676D02*
X24810400Y21580248D01*
X24810400Y21580248D02*
X24774114Y21652819D01*
X24774114Y21652819D02*
X24737828Y21797962D01*
X24737828Y21797962D02*
X24737828Y21906819D01*
X24737828Y21906819D02*
X24774114Y22051962D01*
X24774114Y22051962D02*
X24810400Y22124534D01*
X24810400Y22124534D02*
X24882971Y22197105D01*
X24882971Y22197105D02*
X24991828Y22233391D01*
X24991828Y22233391D02*
X25064400Y22233391D01*
X25064400Y22233391D02*
X25173257Y22197105D01*
X25173257Y22197105D02*
X25209543Y22160819D01*
X25499828Y22160819D02*
X25536114Y22197105D01*
X25536114Y22197105D02*
X25608686Y22233391D01*
X25608686Y22233391D02*
X25790114Y22233391D01*
X25790114Y22233391D02*
X25862686Y22197105D01*
X25862686Y22197105D02*
X25898971Y22160819D01*
X25898971Y22160819D02*
X25935257Y22088248D01*
X25935257Y22088248D02*
X25935257Y22015676D01*
X25935257Y22015676D02*
X25898971Y21906819D01*
X25898971Y21906819D02*
X25463543Y21471391D01*
X25463543Y21471391D02*
X25935257Y21471391D01*
X26660971Y21471391D02*
X26225542Y21471391D01*
X26443257Y21471391D02*
X26443257Y22233391D01*
X26443257Y22233391D02*
X26370685Y22124534D01*
X26370685Y22124534D02*
X26298114Y22051962D01*
X26298114Y22051962D02*
X26225542Y22015676D01*
X17183143Y18114962D02*
X17146857Y18078676D01*
X17146857Y18078676D02*
X17038000Y18042391D01*
X17038000Y18042391D02*
X16965428Y18042391D01*
X16965428Y18042391D02*
X16856571Y18078676D01*
X16856571Y18078676D02*
X16784000Y18151248D01*
X16784000Y18151248D02*
X16747714Y18223819D01*
X16747714Y18223819D02*
X16711428Y18368962D01*
X16711428Y18368962D02*
X16711428Y18477819D01*
X16711428Y18477819D02*
X16747714Y18622962D01*
X16747714Y18622962D02*
X16784000Y18695534D01*
X16784000Y18695534D02*
X16856571Y18768105D01*
X16856571Y18768105D02*
X16965428Y18804391D01*
X16965428Y18804391D02*
X17038000Y18804391D01*
X17038000Y18804391D02*
X17146857Y18768105D01*
X17146857Y18768105D02*
X17183143Y18731819D01*
X17473428Y18731819D02*
X17509714Y18768105D01*
X17509714Y18768105D02*
X17582286Y18804391D01*
X17582286Y18804391D02*
X17763714Y18804391D01*
X17763714Y18804391D02*
X17836286Y18768105D01*
X17836286Y18768105D02*
X17872571Y18731819D01*
X17872571Y18731819D02*
X17908857Y18659248D01*
X17908857Y18659248D02*
X17908857Y18586676D01*
X17908857Y18586676D02*
X17872571Y18477819D01*
X17872571Y18477819D02*
X17437143Y18042391D01*
X17437143Y18042391D02*
X17908857Y18042391D01*
X18199142Y18731819D02*
X18235428Y18768105D01*
X18235428Y18768105D02*
X18308000Y18804391D01*
X18308000Y18804391D02*
X18489428Y18804391D01*
X18489428Y18804391D02*
X18562000Y18768105D01*
X18562000Y18768105D02*
X18598285Y18731819D01*
X18598285Y18731819D02*
X18634571Y18659248D01*
X18634571Y18659248D02*
X18634571Y18586676D01*
X18634571Y18586676D02*
X18598285Y18477819D01*
X18598285Y18477819D02*
X18162857Y18042391D01*
X18162857Y18042391D02*
X18634571Y18042391D01*
X13119143Y30869391D02*
X12865143Y31232248D01*
X12683714Y30869391D02*
X12683714Y31631391D01*
X12683714Y31631391D02*
X12974000Y31631391D01*
X12974000Y31631391D02*
X13046571Y31595105D01*
X13046571Y31595105D02*
X13082857Y31558819D01*
X13082857Y31558819D02*
X13119143Y31486248D01*
X13119143Y31486248D02*
X13119143Y31377391D01*
X13119143Y31377391D02*
X13082857Y31304819D01*
X13082857Y31304819D02*
X13046571Y31268534D01*
X13046571Y31268534D02*
X12974000Y31232248D01*
X12974000Y31232248D02*
X12683714Y31232248D01*
X13373143Y31631391D02*
X13844857Y31631391D01*
X13844857Y31631391D02*
X13590857Y31341105D01*
X13590857Y31341105D02*
X13699714Y31341105D01*
X13699714Y31341105D02*
X13772286Y31304819D01*
X13772286Y31304819D02*
X13808571Y31268534D01*
X13808571Y31268534D02*
X13844857Y31195962D01*
X13844857Y31195962D02*
X13844857Y31014534D01*
X13844857Y31014534D02*
X13808571Y30941962D01*
X13808571Y30941962D02*
X13772286Y30905676D01*
X13772286Y30905676D02*
X13699714Y30869391D01*
X13699714Y30869391D02*
X13482000Y30869391D01*
X13482000Y30869391D02*
X13409428Y30905676D01*
X13409428Y30905676D02*
X13373143Y30941962D01*
X14098857Y31631391D02*
X14570571Y31631391D01*
X14570571Y31631391D02*
X14316571Y31341105D01*
X14316571Y31341105D02*
X14425428Y31341105D01*
X14425428Y31341105D02*
X14498000Y31304819D01*
X14498000Y31304819D02*
X14534285Y31268534D01*
X14534285Y31268534D02*
X14570571Y31195962D01*
X14570571Y31195962D02*
X14570571Y31014534D01*
X14570571Y31014534D02*
X14534285Y30941962D01*
X14534285Y30941962D02*
X14498000Y30905676D01*
X14498000Y30905676D02*
X14425428Y30869391D01*
X14425428Y30869391D02*
X14207714Y30869391D01*
X14207714Y30869391D02*
X14135142Y30905676D01*
X14135142Y30905676D02*
X14098857Y30941962D01*
X7964466Y31085001D02*
X7964466Y30831001D01*
X8363609Y30831001D02*
X7601609Y30831001D01*
X7601609Y30831001D02*
X7601609Y31193858D01*
X7964466Y31484144D02*
X7964466Y31738144D01*
X8363609Y31847001D02*
X8363609Y31484144D01*
X8363609Y31484144D02*
X7601609Y31484144D01*
X7601609Y31484144D02*
X7601609Y31847001D01*
X7601609Y32064716D02*
X7601609Y32500144D01*
X8363609Y32282430D02*
X7601609Y32282430D01*
X8363609Y33153287D02*
X8363609Y32717858D01*
X8363609Y32935573D02*
X7601609Y32935573D01*
X7601609Y32935573D02*
X7710466Y32863001D01*
X7710466Y32863001D02*
X7783038Y32790430D01*
X7783038Y32790430D02*
X7819324Y32717858D01*
D15*
X2726309Y38292492D02*
X2726309Y38927492D01*
X2726309Y38927492D02*
X2877499Y38927492D01*
X2877499Y38927492D02*
X2968214Y38897254D01*
X2968214Y38897254D02*
X3028690Y38836778D01*
X3028690Y38836778D02*
X3058928Y38776302D01*
X3058928Y38776302D02*
X3089166Y38655350D01*
X3089166Y38655350D02*
X3089166Y38564635D01*
X3089166Y38564635D02*
X3058928Y38443683D01*
X3058928Y38443683D02*
X3028690Y38383207D01*
X3028690Y38383207D02*
X2968214Y38322730D01*
X2968214Y38322730D02*
X2877499Y38292492D01*
X2877499Y38292492D02*
X2726309Y38292492D01*
X3391547Y38292492D02*
X3512499Y38292492D01*
X3512499Y38292492D02*
X3572976Y38322730D01*
X3572976Y38322730D02*
X3603214Y38352969D01*
X3603214Y38352969D02*
X3663690Y38443683D01*
X3663690Y38443683D02*
X3693928Y38564635D01*
X3693928Y38564635D02*
X3693928Y38806540D01*
X3693928Y38806540D02*
X3663690Y38867016D01*
X3663690Y38867016D02*
X3633452Y38897254D01*
X3633452Y38897254D02*
X3572976Y38927492D01*
X3572976Y38927492D02*
X3452023Y38927492D01*
X3452023Y38927492D02*
X3391547Y38897254D01*
X3391547Y38897254D02*
X3361309Y38867016D01*
X3361309Y38867016D02*
X3331071Y38806540D01*
X3331071Y38806540D02*
X3331071Y38655350D01*
X3331071Y38655350D02*
X3361309Y38594873D01*
X3361309Y38594873D02*
X3391547Y38564635D01*
X3391547Y38564635D02*
X3452023Y38534397D01*
X3452023Y38534397D02*
X3572976Y38534397D01*
X3572976Y38534397D02*
X3633452Y38564635D01*
X3633452Y38564635D02*
X3663690Y38594873D01*
X3663690Y38594873D02*
X3693928Y38655350D01*
D11*
X16548143Y30179962D02*
X16511857Y30143676D01*
X16511857Y30143676D02*
X16403000Y30107391D01*
X16403000Y30107391D02*
X16330428Y30107391D01*
X16330428Y30107391D02*
X16221571Y30143676D01*
X16221571Y30143676D02*
X16149000Y30216248D01*
X16149000Y30216248D02*
X16112714Y30288819D01*
X16112714Y30288819D02*
X16076428Y30433962D01*
X16076428Y30433962D02*
X16076428Y30542819D01*
X16076428Y30542819D02*
X16112714Y30687962D01*
X16112714Y30687962D02*
X16149000Y30760534D01*
X16149000Y30760534D02*
X16221571Y30833105D01*
X16221571Y30833105D02*
X16330428Y30869391D01*
X16330428Y30869391D02*
X16403000Y30869391D01*
X16403000Y30869391D02*
X16511857Y30833105D01*
X16511857Y30833105D02*
X16548143Y30796819D01*
X17273857Y30107391D02*
X16838428Y30107391D01*
X17056143Y30107391D02*
X17056143Y30869391D01*
X17056143Y30869391D02*
X16983571Y30760534D01*
X16983571Y30760534D02*
X16911000Y30687962D01*
X16911000Y30687962D02*
X16838428Y30651676D01*
X17564142Y30796819D02*
X17600428Y30833105D01*
X17600428Y30833105D02*
X17673000Y30869391D01*
X17673000Y30869391D02*
X17854428Y30869391D01*
X17854428Y30869391D02*
X17927000Y30833105D01*
X17927000Y30833105D02*
X17963285Y30796819D01*
X17963285Y30796819D02*
X17999571Y30724248D01*
X17999571Y30724248D02*
X17999571Y30651676D01*
X17999571Y30651676D02*
X17963285Y30542819D01*
X17963285Y30542819D02*
X17527857Y30107391D01*
X17527857Y30107391D02*
X17999571Y30107391D01*
D10*
G36*
X2564209Y74977056D02*
G01*
X2583448Y74957817D01*
X2609203Y74906307D01*
X2609203Y74676239D01*
X2331012Y74676239D01*
X2331012Y74906307D01*
X2356767Y74957817D01*
X2376006Y74977056D01*
X2427516Y75002811D01*
X2512699Y75002811D01*
X2564209Y74977056D01*
G37*
G36*
X3492155Y74277096D02*
G01*
X1931869Y74277096D01*
X1931869Y74549239D01*
X2077012Y74549239D01*
X2079624Y74540342D01*
X2078305Y74531165D01*
X2089547Y74506547D01*
X2097173Y74480578D01*
X2104180Y74474507D01*
X2108032Y74466072D01*
X2130800Y74451440D01*
X2151254Y74433716D01*
X2160430Y74432397D01*
X2168232Y74427383D01*
X2204012Y74422239D01*
X3220012Y74422239D01*
X3288673Y74442400D01*
X3335535Y74496481D01*
X3345719Y74567313D01*
X3315992Y74632406D01*
X3255792Y74671095D01*
X3220012Y74676239D01*
X2863203Y74676239D01*
X2863203Y74725022D01*
X3292842Y75025769D01*
X3337530Y75081660D01*
X3344907Y75152838D01*
X3312631Y75216706D01*
X3250949Y75252985D01*
X3179445Y75250158D01*
X3147183Y75233854D01*
X2837721Y75017231D01*
X2801414Y75089845D01*
X2799793Y75091588D01*
X2799287Y75093914D01*
X2777625Y75122852D01*
X2729244Y75171233D01*
X2727154Y75172375D01*
X2725939Y75174420D01*
X2696237Y75195022D01*
X2599475Y75243403D01*
X2588145Y75245442D01*
X2578459Y75251667D01*
X2542679Y75256811D01*
X2397536Y75256811D01*
X2386490Y75253568D01*
X2375043Y75254804D01*
X2340740Y75243403D01*
X2243978Y75195022D01*
X2242235Y75193402D01*
X2239909Y75192895D01*
X2210971Y75171233D01*
X2162590Y75122852D01*
X2161448Y75120763D01*
X2159403Y75119547D01*
X2138801Y75089845D01*
X2090420Y74993083D01*
X2088381Y74981754D01*
X2082156Y74972067D01*
X2077012Y74936287D01*
X2077012Y74549239D01*
X1931869Y74549239D01*
X1931869Y75710382D01*
X2077012Y75710382D01*
X2080255Y75699337D01*
X2079019Y75687889D01*
X2090420Y75653586D01*
X2138801Y75556824D01*
X2140421Y75555082D01*
X2140928Y75552755D01*
X2162590Y75523817D01*
X2210971Y75475436D01*
X2213060Y75474295D01*
X2214276Y75472249D01*
X2243978Y75451647D01*
X2340740Y75403266D01*
X2352069Y75401228D01*
X2361756Y75395002D01*
X2397536Y75389858D01*
X2494298Y75389858D01*
X2505343Y75393102D01*
X2516791Y75391865D01*
X2551094Y75403266D01*
X2647856Y75451647D01*
X2649598Y75453268D01*
X2651925Y75453774D01*
X2680863Y75475436D01*
X2729244Y75523817D01*
X2730385Y75525907D01*
X2732431Y75527122D01*
X2753033Y75556824D01*
X2801414Y75653586D01*
X2802202Y75657967D01*
X2811030Y75679580D01*
X2856030Y75859580D01*
X2888958Y75925436D01*
X2908197Y75944675D01*
X2959707Y75970430D01*
X2996509Y75970430D01*
X3048019Y75944675D01*
X3067256Y75925438D01*
X3093012Y75873926D01*
X3093012Y75682610D01*
X3051149Y75557018D01*
X3048563Y75485505D01*
X3085050Y75423946D01*
X3149027Y75391886D01*
X3220180Y75399504D01*
X3275921Y75444381D01*
X3292115Y75476698D01*
X3340495Y75621841D01*
X3340580Y75624219D01*
X3341868Y75626221D01*
X3347012Y75662001D01*
X3347012Y75903906D01*
X3343768Y75914951D01*
X3345005Y75926398D01*
X3333605Y75960701D01*
X3285225Y76057463D01*
X3283603Y76059207D01*
X3283097Y76061533D01*
X3261435Y76090471D01*
X3213054Y76138852D01*
X3210964Y76139994D01*
X3209749Y76142039D01*
X3180047Y76162641D01*
X3083285Y76211022D01*
X3071955Y76213061D01*
X3062269Y76219286D01*
X3026489Y76224430D01*
X2929727Y76224430D01*
X2918681Y76221187D01*
X2907234Y76222423D01*
X2872931Y76211022D01*
X2776169Y76162641D01*
X2774426Y76161021D01*
X2772100Y76160514D01*
X2743162Y76138852D01*
X2694781Y76090471D01*
X2693639Y76088382D01*
X2691594Y76087166D01*
X2670992Y76057464D01*
X2622611Y75960702D01*
X2621822Y75956322D01*
X2612995Y75934708D01*
X2567995Y75754708D01*
X2535067Y75688852D01*
X2515828Y75669613D01*
X2464318Y75643858D01*
X2427516Y75643858D01*
X2376006Y75669613D01*
X2356767Y75688852D01*
X2331012Y75740362D01*
X2331012Y75931677D01*
X2372876Y76057269D01*
X2375462Y76128782D01*
X2338975Y76190341D01*
X2274998Y76222401D01*
X2203845Y76214784D01*
X2148105Y76169908D01*
X2131910Y76137591D01*
X2083529Y75992448D01*
X2083442Y75990070D01*
X2082156Y75988067D01*
X2077012Y75952287D01*
X2077012Y75710382D01*
X1931869Y75710382D01*
X1931869Y76387715D01*
X2077012Y76387715D01*
X2097173Y76319054D01*
X2151254Y76272192D01*
X2222086Y76262008D01*
X2287179Y76291735D01*
X2325868Y76351935D01*
X2331012Y76387715D01*
X2331012Y76551001D01*
X3220012Y76551001D01*
X3288673Y76571162D01*
X3335535Y76625243D01*
X3345719Y76696075D01*
X3315992Y76761168D01*
X3255792Y76799857D01*
X3220012Y76805001D01*
X2331012Y76805001D01*
X2331012Y76968287D01*
X2310851Y77036948D01*
X2256770Y77083810D01*
X2185938Y77093994D01*
X2120845Y77064267D01*
X2082156Y77004067D01*
X2077012Y76968287D01*
X2077012Y76387715D01*
X1931869Y76387715D01*
X1931869Y77532899D01*
X2078019Y77532899D01*
X2078462Y77531883D01*
X2078305Y77530784D01*
X2092739Y77499176D01*
X2106648Y77467315D01*
X2107735Y77466341D01*
X2108032Y77465691D01*
X2109543Y77464720D01*
X2133565Y77443188D01*
X2268241Y77353404D01*
X2341542Y77280104D01*
X2380706Y77201776D01*
X2429444Y77149380D01*
X2498773Y77131651D01*
X2566682Y77154219D01*
X2611608Y77209918D01*
X2619291Y77281065D01*
X2607890Y77315368D01*
X2559509Y77412130D01*
X2557888Y77413873D01*
X2557382Y77416199D01*
X2553146Y77421858D01*
X3093012Y77421858D01*
X3093012Y77258572D01*
X3113173Y77189911D01*
X3167254Y77143049D01*
X3238086Y77132865D01*
X3303179Y77162592D01*
X3341868Y77222792D01*
X3347012Y77258572D01*
X3347012Y77839144D01*
X3326851Y77907805D01*
X3272770Y77954667D01*
X3201938Y77964851D01*
X3136845Y77935124D01*
X3098156Y77874924D01*
X3093012Y77839144D01*
X3093012Y77675858D01*
X2204012Y77675858D01*
X2170671Y77666069D01*
X2137156Y77656836D01*
X2136415Y77656010D01*
X2135351Y77655697D01*
X2112582Y77629421D01*
X2089392Y77603549D01*
X2089215Y77602455D01*
X2088489Y77601616D01*
X2083541Y77567207D01*
X2078019Y77532899D01*
X1931869Y77532899D01*
X1931869Y78109994D01*
X3492155Y78109994D01*
X3492155Y74277096D01*
G37*
D11*
X8928143Y38561962D02*
X8891857Y38525676D01*
X8891857Y38525676D02*
X8783000Y38489391D01*
X8783000Y38489391D02*
X8710428Y38489391D01*
X8710428Y38489391D02*
X8601571Y38525676D01*
X8601571Y38525676D02*
X8529000Y38598248D01*
X8529000Y38598248D02*
X8492714Y38670819D01*
X8492714Y38670819D02*
X8456428Y38815962D01*
X8456428Y38815962D02*
X8456428Y38924819D01*
X8456428Y38924819D02*
X8492714Y39069962D01*
X8492714Y39069962D02*
X8529000Y39142534D01*
X8529000Y39142534D02*
X8601571Y39215105D01*
X8601571Y39215105D02*
X8710428Y39251391D01*
X8710428Y39251391D02*
X8783000Y39251391D01*
X8783000Y39251391D02*
X8891857Y39215105D01*
X8891857Y39215105D02*
X8928143Y39178819D01*
X9218428Y39178819D02*
X9254714Y39215105D01*
X9254714Y39215105D02*
X9327286Y39251391D01*
X9327286Y39251391D02*
X9508714Y39251391D01*
X9508714Y39251391D02*
X9581286Y39215105D01*
X9581286Y39215105D02*
X9617571Y39178819D01*
X9617571Y39178819D02*
X9653857Y39106248D01*
X9653857Y39106248D02*
X9653857Y39033676D01*
X9653857Y39033676D02*
X9617571Y38924819D01*
X9617571Y38924819D02*
X9182143Y38489391D01*
X9182143Y38489391D02*
X9653857Y38489391D01*
X9907857Y39251391D02*
X10379571Y39251391D01*
X10379571Y39251391D02*
X10125571Y38961105D01*
X10125571Y38961105D02*
X10234428Y38961105D01*
X10234428Y38961105D02*
X10307000Y38924819D01*
X10307000Y38924819D02*
X10343285Y38888534D01*
X10343285Y38888534D02*
X10379571Y38815962D01*
X10379571Y38815962D02*
X10379571Y38634534D01*
X10379571Y38634534D02*
X10343285Y38561962D01*
X10343285Y38561962D02*
X10307000Y38525676D01*
X10307000Y38525676D02*
X10234428Y38489391D01*
X10234428Y38489391D02*
X10016714Y38489391D01*
X10016714Y38489391D02*
X9944142Y38525676D01*
X9944142Y38525676D02*
X9907857Y38561962D01*
X8928143Y39632391D02*
X8674143Y39995248D01*
X8492714Y39632391D02*
X8492714Y40394391D01*
X8492714Y40394391D02*
X8783000Y40394391D01*
X8783000Y40394391D02*
X8855571Y40358105D01*
X8855571Y40358105D02*
X8891857Y40321819D01*
X8891857Y40321819D02*
X8928143Y40249248D01*
X8928143Y40249248D02*
X8928143Y40140391D01*
X8928143Y40140391D02*
X8891857Y40067819D01*
X8891857Y40067819D02*
X8855571Y40031534D01*
X8855571Y40031534D02*
X8783000Y39995248D01*
X8783000Y39995248D02*
X8492714Y39995248D01*
X9182143Y40394391D02*
X9653857Y40394391D01*
X9653857Y40394391D02*
X9399857Y40104105D01*
X9399857Y40104105D02*
X9508714Y40104105D01*
X9508714Y40104105D02*
X9581286Y40067819D01*
X9581286Y40067819D02*
X9617571Y40031534D01*
X9617571Y40031534D02*
X9653857Y39958962D01*
X9653857Y39958962D02*
X9653857Y39777534D01*
X9653857Y39777534D02*
X9617571Y39704962D01*
X9617571Y39704962D02*
X9581286Y39668676D01*
X9581286Y39668676D02*
X9508714Y39632391D01*
X9508714Y39632391D02*
X9291000Y39632391D01*
X9291000Y39632391D02*
X9218428Y39668676D01*
X9218428Y39668676D02*
X9182143Y39704962D01*
X10307000Y40140391D02*
X10307000Y39632391D01*
X10125571Y40430676D02*
X9944142Y39886391D01*
X9944142Y39886391D02*
X10415857Y39886391D01*
X8928143Y37346391D02*
X8674143Y37709248D01*
X8492714Y37346391D02*
X8492714Y38108391D01*
X8492714Y38108391D02*
X8783000Y38108391D01*
X8783000Y38108391D02*
X8855571Y38072105D01*
X8855571Y38072105D02*
X8891857Y38035819D01*
X8891857Y38035819D02*
X8928143Y37963248D01*
X8928143Y37963248D02*
X8928143Y37854391D01*
X8928143Y37854391D02*
X8891857Y37781819D01*
X8891857Y37781819D02*
X8855571Y37745534D01*
X8855571Y37745534D02*
X8783000Y37709248D01*
X8783000Y37709248D02*
X8492714Y37709248D01*
X9182143Y38108391D02*
X9653857Y38108391D01*
X9653857Y38108391D02*
X9399857Y37818105D01*
X9399857Y37818105D02*
X9508714Y37818105D01*
X9508714Y37818105D02*
X9581286Y37781819D01*
X9581286Y37781819D02*
X9617571Y37745534D01*
X9617571Y37745534D02*
X9653857Y37672962D01*
X9653857Y37672962D02*
X9653857Y37491534D01*
X9653857Y37491534D02*
X9617571Y37418962D01*
X9617571Y37418962D02*
X9581286Y37382676D01*
X9581286Y37382676D02*
X9508714Y37346391D01*
X9508714Y37346391D02*
X9291000Y37346391D01*
X9291000Y37346391D02*
X9218428Y37382676D01*
X9218428Y37382676D02*
X9182143Y37418962D01*
X10089285Y37781819D02*
X10016714Y37818105D01*
X10016714Y37818105D02*
X9980428Y37854391D01*
X9980428Y37854391D02*
X9944142Y37926962D01*
X9944142Y37926962D02*
X9944142Y37963248D01*
X9944142Y37963248D02*
X9980428Y38035819D01*
X9980428Y38035819D02*
X10016714Y38072105D01*
X10016714Y38072105D02*
X10089285Y38108391D01*
X10089285Y38108391D02*
X10234428Y38108391D01*
X10234428Y38108391D02*
X10307000Y38072105D01*
X10307000Y38072105D02*
X10343285Y38035819D01*
X10343285Y38035819D02*
X10379571Y37963248D01*
X10379571Y37963248D02*
X10379571Y37926962D01*
X10379571Y37926962D02*
X10343285Y37854391D01*
X10343285Y37854391D02*
X10307000Y37818105D01*
X10307000Y37818105D02*
X10234428Y37781819D01*
X10234428Y37781819D02*
X10089285Y37781819D01*
X10089285Y37781819D02*
X10016714Y37745534D01*
X10016714Y37745534D02*
X9980428Y37709248D01*
X9980428Y37709248D02*
X9944142Y37636676D01*
X9944142Y37636676D02*
X9944142Y37491534D01*
X9944142Y37491534D02*
X9980428Y37418962D01*
X9980428Y37418962D02*
X10016714Y37382676D01*
X10016714Y37382676D02*
X10089285Y37346391D01*
X10089285Y37346391D02*
X10234428Y37346391D01*
X10234428Y37346391D02*
X10307000Y37382676D01*
X10307000Y37382676D02*
X10343285Y37418962D01*
X10343285Y37418962D02*
X10379571Y37491534D01*
X10379571Y37491534D02*
X10379571Y37636676D01*
X10379571Y37636676D02*
X10343285Y37709248D01*
X10343285Y37709248D02*
X10307000Y37745534D01*
X10307000Y37745534D02*
X10234428Y37781819D01*
X17038000Y19566391D02*
X16675143Y19566391D01*
X16675143Y19566391D02*
X16675143Y20328391D01*
X17255714Y20255819D02*
X17292000Y20292105D01*
X17292000Y20292105D02*
X17364572Y20328391D01*
X17364572Y20328391D02*
X17546000Y20328391D01*
X17546000Y20328391D02*
X17618572Y20292105D01*
X17618572Y20292105D02*
X17654857Y20255819D01*
X17654857Y20255819D02*
X17691143Y20183248D01*
X17691143Y20183248D02*
X17691143Y20110676D01*
X17691143Y20110676D02*
X17654857Y20001819D01*
X17654857Y20001819D02*
X17219429Y19566391D01*
X17219429Y19566391D02*
X17691143Y19566391D01*
D15*
X23913464Y64775967D02*
X23977608Y65139454D01*
X23656885Y65032546D02*
X24105898Y65481558D01*
X24105898Y65481558D02*
X24276950Y65310506D01*
X24276950Y65310506D02*
X24298332Y65246361D01*
X24298332Y65246361D02*
X24298332Y65203598D01*
X24298332Y65203598D02*
X24276950Y65139454D01*
X24276950Y65139454D02*
X24212806Y65075309D01*
X24212806Y65075309D02*
X24148661Y65053927D01*
X24148661Y65053927D02*
X24105898Y65053927D01*
X24105898Y65053927D02*
X24041753Y65075309D01*
X24041753Y65075309D02*
X23870701Y65246361D01*
X24512147Y65075309D02*
X24790108Y64797349D01*
X24790108Y64797349D02*
X24469384Y64775967D01*
X24469384Y64775967D02*
X24533529Y64711822D01*
X24533529Y64711822D02*
X24554910Y64647678D01*
X24554910Y64647678D02*
X24554910Y64604914D01*
X24554910Y64604914D02*
X24533529Y64540770D01*
X24533529Y64540770D02*
X24426621Y64433862D01*
X24426621Y64433862D02*
X24362476Y64412480D01*
X24362476Y64412480D02*
X24319713Y64412480D01*
X24319713Y64412480D02*
X24255569Y64433862D01*
X24255569Y64433862D02*
X24127279Y64562151D01*
X24127279Y64562151D02*
X24105898Y64626296D01*
X24105898Y64626296D02*
X24105898Y64669059D01*
X25174976Y64412480D02*
X25089450Y64498007D01*
X25089450Y64498007D02*
X25025305Y64519388D01*
X25025305Y64519388D02*
X24982542Y64519388D01*
X24982542Y64519388D02*
X24875634Y64498007D01*
X24875634Y64498007D02*
X24768726Y64433862D01*
X24768726Y64433862D02*
X24597674Y64262809D01*
X24597674Y64262809D02*
X24576292Y64198665D01*
X24576292Y64198665D02*
X24576292Y64155902D01*
X24576292Y64155902D02*
X24597674Y64091757D01*
X24597674Y64091757D02*
X24683200Y64006231D01*
X24683200Y64006231D02*
X24747345Y63984849D01*
X24747345Y63984849D02*
X24790108Y63984849D01*
X24790108Y63984849D02*
X24854252Y64006231D01*
X24854252Y64006231D02*
X24961160Y64113138D01*
X24961160Y64113138D02*
X24982542Y64177283D01*
X24982542Y64177283D02*
X24982542Y64220046D01*
X24982542Y64220046D02*
X24961160Y64284191D01*
X24961160Y64284191D02*
X24875634Y64369717D01*
X24875634Y64369717D02*
X24811489Y64391099D01*
X24811489Y64391099D02*
X24768726Y64391099D01*
X24768726Y64391099D02*
X24704582Y64369717D01*
X24562508Y66490786D02*
X24260127Y66279119D01*
X24562508Y66127929D02*
X23927508Y66127929D01*
X23927508Y66127929D02*
X23927508Y66369834D01*
X23927508Y66369834D02*
X23957746Y66430310D01*
X23957746Y66430310D02*
X23987984Y66460548D01*
X23987984Y66460548D02*
X24048460Y66490786D01*
X24048460Y66490786D02*
X24139174Y66490786D01*
X24139174Y66490786D02*
X24199650Y66460548D01*
X24199650Y66460548D02*
X24229889Y66430310D01*
X24229889Y66430310D02*
X24260127Y66369834D01*
X24260127Y66369834D02*
X24260127Y66127929D01*
X24139174Y67035072D02*
X24562508Y67035072D01*
X23897270Y66883881D02*
X24350841Y66732691D01*
X24350841Y66732691D02*
X24350841Y67125786D01*
X24562508Y67397929D02*
X24562508Y67518881D01*
X24562508Y67518881D02*
X24532270Y67579358D01*
X24532270Y67579358D02*
X24502031Y67609596D01*
X24502031Y67609596D02*
X24411317Y67670072D01*
X24411317Y67670072D02*
X24290365Y67700310D01*
X24290365Y67700310D02*
X24048460Y67700310D01*
X24048460Y67700310D02*
X23987984Y67670072D01*
X23987984Y67670072D02*
X23957746Y67639834D01*
X23957746Y67639834D02*
X23927508Y67579358D01*
X23927508Y67579358D02*
X23927508Y67458405D01*
X23927508Y67458405D02*
X23957746Y67397929D01*
X23957746Y67397929D02*
X23987984Y67367691D01*
X23987984Y67367691D02*
X24048460Y67337453D01*
X24048460Y67337453D02*
X24199650Y67337453D01*
X24199650Y67337453D02*
X24260127Y67367691D01*
X24260127Y67367691D02*
X24290365Y67397929D01*
X24290365Y67397929D02*
X24320603Y67458405D01*
X24320603Y67458405D02*
X24320603Y67579358D01*
X24320603Y67579358D02*
X24290365Y67639834D01*
X24290365Y67639834D02*
X24260127Y67670072D01*
X24260127Y67670072D02*
X24199650Y67700310D01*
D11*
X25258238Y40577344D02*
X25294524Y40541058D01*
X25294524Y40541058D02*
X25330809Y40432201D01*
X25330809Y40432201D02*
X25330809Y40359629D01*
X25330809Y40359629D02*
X25294524Y40250772D01*
X25294524Y40250772D02*
X25221952Y40178201D01*
X25221952Y40178201D02*
X25149381Y40141915D01*
X25149381Y40141915D02*
X25004238Y40105629D01*
X25004238Y40105629D02*
X24895381Y40105629D01*
X24895381Y40105629D02*
X24750238Y40141915D01*
X24750238Y40141915D02*
X24677666Y40178201D01*
X24677666Y40178201D02*
X24605095Y40250772D01*
X24605095Y40250772D02*
X24568809Y40359629D01*
X24568809Y40359629D02*
X24568809Y40432201D01*
X24568809Y40432201D02*
X24605095Y40541058D01*
X24605095Y40541058D02*
X24641381Y40577344D01*
X24641381Y40867629D02*
X24605095Y40903915D01*
X24605095Y40903915D02*
X24568809Y40976486D01*
X24568809Y40976486D02*
X24568809Y41157915D01*
X24568809Y41157915D02*
X24605095Y41230486D01*
X24605095Y41230486D02*
X24641381Y41266772D01*
X24641381Y41266772D02*
X24713952Y41303058D01*
X24713952Y41303058D02*
X24786524Y41303058D01*
X24786524Y41303058D02*
X24895381Y41266772D01*
X24895381Y41266772D02*
X25330809Y40831344D01*
X25330809Y40831344D02*
X25330809Y41303058D01*
X24568809Y41557058D02*
X24568809Y42065058D01*
X24568809Y42065058D02*
X25330809Y41738486D01*
D10*
X20207190Y39325492D02*
X21174810Y39325492D01*
X20691000Y38841682D02*
X20691000Y39809301D01*
X18078190Y39630492D02*
X19045810Y39630492D01*
X18562000Y39146682D02*
X18562000Y40114301D01*
D14*
X18667833Y23192288D02*
X18667833Y24081288D01*
X18667833Y24081288D02*
X18879500Y24081288D01*
X18879500Y24081288D02*
X19006500Y24038955D01*
X19006500Y24038955D02*
X19091167Y23954288D01*
X19091167Y23954288D02*
X19133500Y23869621D01*
X19133500Y23869621D02*
X19175833Y23700288D01*
X19175833Y23700288D02*
X19175833Y23573288D01*
X19175833Y23573288D02*
X19133500Y23403955D01*
X19133500Y23403955D02*
X19091167Y23319288D01*
X19091167Y23319288D02*
X19006500Y23234621D01*
X19006500Y23234621D02*
X18879500Y23192288D01*
X18879500Y23192288D02*
X18667833Y23192288D01*
X19980167Y24081288D02*
X19556833Y24081288D01*
X19556833Y24081288D02*
X19514500Y23657955D01*
X19514500Y23657955D02*
X19556833Y23700288D01*
X19556833Y23700288D02*
X19641500Y23742621D01*
X19641500Y23742621D02*
X19853167Y23742621D01*
X19853167Y23742621D02*
X19937833Y23700288D01*
X19937833Y23700288D02*
X19980167Y23657955D01*
X19980167Y23657955D02*
X20022500Y23573288D01*
X20022500Y23573288D02*
X20022500Y23361621D01*
X20022500Y23361621D02*
X19980167Y23276955D01*
X19980167Y23276955D02*
X19937833Y23234621D01*
X19937833Y23234621D02*
X19853167Y23192288D01*
X19853167Y23192288D02*
X19641500Y23192288D01*
X19641500Y23192288D02*
X19556833Y23234621D01*
X19556833Y23234621D02*
X19514500Y23276955D01*
D11*
X3086143Y31576962D02*
X3049857Y31540676D01*
X3049857Y31540676D02*
X2941000Y31504391D01*
X2941000Y31504391D02*
X2868428Y31504391D01*
X2868428Y31504391D02*
X2759571Y31540676D01*
X2759571Y31540676D02*
X2687000Y31613248D01*
X2687000Y31613248D02*
X2650714Y31685819D01*
X2650714Y31685819D02*
X2614428Y31830962D01*
X2614428Y31830962D02*
X2614428Y31939819D01*
X2614428Y31939819D02*
X2650714Y32084962D01*
X2650714Y32084962D02*
X2687000Y32157534D01*
X2687000Y32157534D02*
X2759571Y32230105D01*
X2759571Y32230105D02*
X2868428Y32266391D01*
X2868428Y32266391D02*
X2941000Y32266391D01*
X2941000Y32266391D02*
X3049857Y32230105D01*
X3049857Y32230105D02*
X3086143Y32193819D01*
X3376428Y32193819D02*
X3412714Y32230105D01*
X3412714Y32230105D02*
X3485286Y32266391D01*
X3485286Y32266391D02*
X3666714Y32266391D01*
X3666714Y32266391D02*
X3739286Y32230105D01*
X3739286Y32230105D02*
X3775571Y32193819D01*
X3775571Y32193819D02*
X3811857Y32121248D01*
X3811857Y32121248D02*
X3811857Y32048676D01*
X3811857Y32048676D02*
X3775571Y31939819D01*
X3775571Y31939819D02*
X3340143Y31504391D01*
X3340143Y31504391D02*
X3811857Y31504391D01*
X4501285Y32266391D02*
X4138428Y32266391D01*
X4138428Y32266391D02*
X4102142Y31903534D01*
X4102142Y31903534D02*
X4138428Y31939819D01*
X4138428Y31939819D02*
X4211000Y31976105D01*
X4211000Y31976105D02*
X4392428Y31976105D01*
X4392428Y31976105D02*
X4465000Y31939819D01*
X4465000Y31939819D02*
X4501285Y31903534D01*
X4501285Y31903534D02*
X4537571Y31830962D01*
X4537571Y31830962D02*
X4537571Y31649534D01*
X4537571Y31649534D02*
X4501285Y31576962D01*
X4501285Y31576962D02*
X4465000Y31540676D01*
X4465000Y31540676D02*
X4392428Y31504391D01*
X4392428Y31504391D02*
X4211000Y31504391D01*
X4211000Y31504391D02*
X4138428Y31540676D01*
X4138428Y31540676D02*
X4102142Y31576962D01*
D10*
X3010765Y32602953D02*
X3010765Y33377048D01*
X3397812Y32990001D02*
X2623717Y32990001D01*
X4098508Y33746191D02*
X4098508Y34713810D01*
X4582318Y34230001D02*
X3614699Y34230001D01*
D15*
X5961785Y31561492D02*
X5750118Y31863873D01*
X5598928Y31561492D02*
X5598928Y32196492D01*
X5598928Y32196492D02*
X5840833Y32196492D01*
X5840833Y32196492D02*
X5901309Y32166254D01*
X5901309Y32166254D02*
X5931547Y32136016D01*
X5931547Y32136016D02*
X5961785Y32075540D01*
X5961785Y32075540D02*
X5961785Y31984826D01*
X5961785Y31984826D02*
X5931547Y31924350D01*
X5931547Y31924350D02*
X5901309Y31894111D01*
X5901309Y31894111D02*
X5840833Y31863873D01*
X5840833Y31863873D02*
X5598928Y31863873D01*
X6203690Y32136016D02*
X6233928Y32166254D01*
X6233928Y32166254D02*
X6294404Y32196492D01*
X6294404Y32196492D02*
X6445595Y32196492D01*
X6445595Y32196492D02*
X6506071Y32166254D01*
X6506071Y32166254D02*
X6536309Y32136016D01*
X6536309Y32136016D02*
X6566547Y32075540D01*
X6566547Y32075540D02*
X6566547Y32015064D01*
X6566547Y32015064D02*
X6536309Y31924350D01*
X6536309Y31924350D02*
X6173452Y31561492D01*
X6173452Y31561492D02*
X6566547Y31561492D01*
X7110833Y31984826D02*
X7110833Y31561492D01*
X6959642Y32226730D02*
X6808452Y31773159D01*
X6808452Y31773159D02*
X7201547Y31773159D01*
D14*
X3402433Y25046488D02*
X2979099Y25046488D01*
X2979099Y25046488D02*
X2979099Y25935488D01*
X4079766Y25639155D02*
X4079766Y25046488D01*
X3868100Y25977821D02*
X3656433Y25342821D01*
X3656433Y25342821D02*
X4206766Y25342821D01*
D15*
X9898785Y20131492D02*
X9687118Y20433873D01*
X9535928Y20131492D02*
X9535928Y20766492D01*
X9535928Y20766492D02*
X9777833Y20766492D01*
X9777833Y20766492D02*
X9838309Y20736254D01*
X9838309Y20736254D02*
X9868547Y20706016D01*
X9868547Y20706016D02*
X9898785Y20645540D01*
X9898785Y20645540D02*
X9898785Y20554826D01*
X9898785Y20554826D02*
X9868547Y20494350D01*
X9868547Y20494350D02*
X9838309Y20464111D01*
X9838309Y20464111D02*
X9777833Y20433873D01*
X9777833Y20433873D02*
X9535928Y20433873D01*
X10140690Y20706016D02*
X10170928Y20736254D01*
X10170928Y20736254D02*
X10231404Y20766492D01*
X10231404Y20766492D02*
X10382595Y20766492D01*
X10382595Y20766492D02*
X10443071Y20736254D01*
X10443071Y20736254D02*
X10473309Y20706016D01*
X10473309Y20706016D02*
X10503547Y20645540D01*
X10503547Y20645540D02*
X10503547Y20585064D01*
X10503547Y20585064D02*
X10473309Y20494350D01*
X10473309Y20494350D02*
X10110452Y20131492D01*
X10110452Y20131492D02*
X10503547Y20131492D01*
X10805928Y20131492D02*
X10926880Y20131492D01*
X10926880Y20131492D02*
X10987357Y20161730D01*
X10987357Y20161730D02*
X11017595Y20191969D01*
X11017595Y20191969D02*
X11078071Y20282683D01*
X11078071Y20282683D02*
X11108309Y20403635D01*
X11108309Y20403635D02*
X11108309Y20645540D01*
X11108309Y20645540D02*
X11078071Y20706016D01*
X11078071Y20706016D02*
X11047833Y20736254D01*
X11047833Y20736254D02*
X10987357Y20766492D01*
X10987357Y20766492D02*
X10866404Y20766492D01*
X10866404Y20766492D02*
X10805928Y20736254D01*
X10805928Y20736254D02*
X10775690Y20706016D01*
X10775690Y20706016D02*
X10745452Y20645540D01*
X10745452Y20645540D02*
X10745452Y20494350D01*
X10745452Y20494350D02*
X10775690Y20433873D01*
X10775690Y20433873D02*
X10805928Y20403635D01*
X10805928Y20403635D02*
X10866404Y20373397D01*
X10866404Y20373397D02*
X10987357Y20373397D01*
X10987357Y20373397D02*
X11047833Y20403635D01*
X11047833Y20403635D02*
X11078071Y20433873D01*
X11078071Y20433873D02*
X11108309Y20494350D01*
X9449508Y16198786D02*
X9147127Y15987119D01*
X9449508Y15835929D02*
X8814508Y15835929D01*
X8814508Y15835929D02*
X8814508Y16077834D01*
X8814508Y16077834D02*
X8844746Y16138310D01*
X8844746Y16138310D02*
X8874984Y16168548D01*
X8874984Y16168548D02*
X8935460Y16198786D01*
X8935460Y16198786D02*
X9026174Y16198786D01*
X9026174Y16198786D02*
X9086650Y16168548D01*
X9086650Y16168548D02*
X9116889Y16138310D01*
X9116889Y16138310D02*
X9147127Y16077834D01*
X9147127Y16077834D02*
X9147127Y15835929D01*
X8814508Y16410453D02*
X8814508Y16803548D01*
X8814508Y16803548D02*
X9056412Y16591881D01*
X9056412Y16591881D02*
X9056412Y16682596D01*
X9056412Y16682596D02*
X9086650Y16743072D01*
X9086650Y16743072D02*
X9116889Y16773310D01*
X9116889Y16773310D02*
X9177365Y16803548D01*
X9177365Y16803548D02*
X9328555Y16803548D01*
X9328555Y16803548D02*
X9389031Y16773310D01*
X9389031Y16773310D02*
X9419270Y16743072D01*
X9419270Y16743072D02*
X9449508Y16682596D01*
X9449508Y16682596D02*
X9449508Y16501167D01*
X9449508Y16501167D02*
X9419270Y16440691D01*
X9419270Y16440691D02*
X9389031Y16410453D01*
X8814508Y17196643D02*
X8814508Y17257120D01*
X8814508Y17257120D02*
X8844746Y17317596D01*
X8844746Y17317596D02*
X8874984Y17347834D01*
X8874984Y17347834D02*
X8935460Y17378072D01*
X8935460Y17378072D02*
X9056412Y17408310D01*
X9056412Y17408310D02*
X9207603Y17408310D01*
X9207603Y17408310D02*
X9328555Y17378072D01*
X9328555Y17378072D02*
X9389031Y17347834D01*
X9389031Y17347834D02*
X9419270Y17317596D01*
X9419270Y17317596D02*
X9449508Y17257120D01*
X9449508Y17257120D02*
X9449508Y17196643D01*
X9449508Y17196643D02*
X9419270Y17136167D01*
X9419270Y17136167D02*
X9389031Y17105929D01*
X9389031Y17105929D02*
X9328555Y17075691D01*
X9328555Y17075691D02*
X9207603Y17045453D01*
X9207603Y17045453D02*
X9056412Y17045453D01*
X9056412Y17045453D02*
X8935460Y17075691D01*
X8935460Y17075691D02*
X8874984Y17105929D01*
X8874984Y17105929D02*
X8844746Y17136167D01*
X8844746Y17136167D02*
X8814508Y17196643D01*
D11*
X7529038Y20544001D02*
X7565324Y20507715D01*
X7565324Y20507715D02*
X7601609Y20398858D01*
X7601609Y20398858D02*
X7601609Y20326286D01*
X7601609Y20326286D02*
X7565324Y20217429D01*
X7565324Y20217429D02*
X7492752Y20144858D01*
X7492752Y20144858D02*
X7420181Y20108572D01*
X7420181Y20108572D02*
X7275038Y20072286D01*
X7275038Y20072286D02*
X7166181Y20072286D01*
X7166181Y20072286D02*
X7021038Y20108572D01*
X7021038Y20108572D02*
X6948466Y20144858D01*
X6948466Y20144858D02*
X6875895Y20217429D01*
X6875895Y20217429D02*
X6839609Y20326286D01*
X6839609Y20326286D02*
X6839609Y20398858D01*
X6839609Y20398858D02*
X6875895Y20507715D01*
X6875895Y20507715D02*
X6912181Y20544001D01*
X6839609Y21197143D02*
X6839609Y21052001D01*
X6839609Y21052001D02*
X6875895Y20979429D01*
X6875895Y20979429D02*
X6912181Y20943143D01*
X6912181Y20943143D02*
X7021038Y20870572D01*
X7021038Y20870572D02*
X7166181Y20834286D01*
X7166181Y20834286D02*
X7456466Y20834286D01*
X7456466Y20834286D02*
X7529038Y20870572D01*
X7529038Y20870572D02*
X7565324Y20906858D01*
X7565324Y20906858D02*
X7601609Y20979429D01*
X7601609Y20979429D02*
X7601609Y21124572D01*
X7601609Y21124572D02*
X7565324Y21197143D01*
X7565324Y21197143D02*
X7529038Y21233429D01*
X7529038Y21233429D02*
X7456466Y21269715D01*
X7456466Y21269715D02*
X7275038Y21269715D01*
X7275038Y21269715D02*
X7202466Y21233429D01*
X7202466Y21233429D02*
X7166181Y21197143D01*
X7166181Y21197143D02*
X7129895Y21124572D01*
X7129895Y21124572D02*
X7129895Y20979429D01*
X7129895Y20979429D02*
X7166181Y20906858D01*
X7166181Y20906858D02*
X7202466Y20870572D01*
X7202466Y20870572D02*
X7275038Y20834286D01*
X473571Y20074391D02*
X473571Y20836391D01*
X473571Y20836391D02*
X655000Y20836391D01*
X655000Y20836391D02*
X763857Y20800105D01*
X763857Y20800105D02*
X836428Y20727534D01*
X836428Y20727534D02*
X872714Y20654962D01*
X872714Y20654962D02*
X909000Y20509819D01*
X909000Y20509819D02*
X909000Y20400962D01*
X909000Y20400962D02*
X872714Y20255819D01*
X872714Y20255819D02*
X836428Y20183248D01*
X836428Y20183248D02*
X763857Y20110676D01*
X763857Y20110676D02*
X655000Y20074391D01*
X655000Y20074391D02*
X473571Y20074391D01*
X1163000Y20836391D02*
X1634714Y20836391D01*
X1634714Y20836391D02*
X1380714Y20546105D01*
X1380714Y20546105D02*
X1489571Y20546105D01*
X1489571Y20546105D02*
X1562143Y20509819D01*
X1562143Y20509819D02*
X1598428Y20473534D01*
X1598428Y20473534D02*
X1634714Y20400962D01*
X1634714Y20400962D02*
X1634714Y20219534D01*
X1634714Y20219534D02*
X1598428Y20146962D01*
X1598428Y20146962D02*
X1562143Y20110676D01*
X1562143Y20110676D02*
X1489571Y20074391D01*
X1489571Y20074391D02*
X1271857Y20074391D01*
X1271857Y20074391D02*
X1199285Y20110676D01*
X1199285Y20110676D02*
X1163000Y20146962D01*
G36*
X8724472Y9888434D02*
G01*
X8738899Y9874007D01*
X8758216Y9835374D01*
X8758216Y9699108D01*
X8585859Y9699108D01*
X8585859Y9835372D01*
X8605176Y9874007D01*
X8619603Y9888434D01*
X8658238Y9907751D01*
X8685838Y9907751D01*
X8724472Y9888434D01*
G37*
G36*
X9123615Y9924720D02*
G01*
X9138042Y9910293D01*
X9157359Y9871660D01*
X9157359Y9699108D01*
X8948716Y9699108D01*
X8948716Y9842401D01*
X8973003Y9915263D01*
X8982460Y9924720D01*
X9021095Y9944037D01*
X9084981Y9944037D01*
X9123615Y9924720D01*
G37*
G36*
X8939645Y12203440D02*
G01*
X8791816Y12252716D01*
X8939645Y12301993D01*
X8939645Y12203440D01*
G37*
G36*
X8760757Y13081579D02*
G01*
X8775183Y13067152D01*
X8794502Y13028516D01*
X8794502Y12855966D01*
X8585859Y12855966D01*
X8585859Y13028516D01*
X8605176Y13067151D01*
X8619603Y13081578D01*
X8658238Y13100895D01*
X8722124Y13100895D01*
X8760757Y13081579D01*
G37*
G36*
X9456716Y7875751D02*
G01*
X8286502Y7875751D01*
X8286502Y8050424D01*
X8400021Y8050424D01*
X8434622Y8002799D01*
X8490609Y7984608D01*
X9107466Y7984608D01*
X9128349Y7991394D01*
X9150063Y7994664D01*
X9222635Y8030950D01*
X9233633Y8041783D01*
X9247389Y8048791D01*
X9283675Y8085076D01*
X9290684Y8098833D01*
X9301519Y8109833D01*
X9337804Y8182405D01*
X9341074Y8204120D01*
X9347859Y8225001D01*
X9347859Y8370144D01*
X9341074Y8391026D01*
X9337804Y8412740D01*
X9301518Y8485312D01*
X9290685Y8496311D01*
X9283676Y8510067D01*
X9247390Y8546353D01*
X9233633Y8553363D01*
X9222635Y8564195D01*
X9150063Y8600481D01*
X9128349Y8603752D01*
X9107466Y8610537D01*
X8490609Y8610537D01*
X8434622Y8592346D01*
X8400021Y8544721D01*
X8400021Y8485853D01*
X8434622Y8438228D01*
X8490609Y8420037D01*
X9084981Y8420037D01*
X9123615Y8400720D01*
X9138042Y8386293D01*
X9157359Y8347660D01*
X9157359Y8247486D01*
X9138042Y8208852D01*
X9123615Y8194426D01*
X9084981Y8175108D01*
X8490609Y8175108D01*
X8434622Y8156917D01*
X8400021Y8109292D01*
X8400021Y8050424D01*
X8286502Y8050424D01*
X8286502Y8987001D01*
X8395359Y8987001D01*
X8402144Y8966118D01*
X8405415Y8944403D01*
X8441701Y8871832D01*
X8452534Y8860834D01*
X8459543Y8847078D01*
X8495829Y8810792D01*
X8509584Y8803784D01*
X8520583Y8792950D01*
X8593154Y8756664D01*
X8614868Y8753394D01*
X8635752Y8746608D01*
X8708324Y8746608D01*
X8729207Y8753394D01*
X8750922Y8756664D01*
X8823493Y8792950D01*
X8834491Y8803784D01*
X8848247Y8810792D01*
X8884533Y8847078D01*
X8891542Y8860835D01*
X8902375Y8871833D01*
X8938661Y8944405D01*
X8940241Y8954902D01*
X8945872Y8963899D01*
X8979621Y9098898D01*
X9004319Y9148293D01*
X9018746Y9162720D01*
X9057381Y9182037D01*
X9084981Y9182037D01*
X9123615Y9162720D01*
X9138042Y9148293D01*
X9157359Y9109660D01*
X9157359Y8966171D01*
X9125962Y8871978D01*
X9125515Y8813112D01*
X9159754Y8765226D01*
X9215602Y8746611D01*
X9271724Y8764376D01*
X9306686Y8811738D01*
X9342971Y8920595D01*
X9343088Y8936032D01*
X9347859Y8950715D01*
X9347859Y9132144D01*
X9341074Y9153026D01*
X9337804Y9174740D01*
X9301518Y9247312D01*
X9290685Y9258311D01*
X9283676Y9272067D01*
X9247390Y9308353D01*
X9233633Y9315363D01*
X9222635Y9326195D01*
X9150063Y9362481D01*
X9128349Y9365752D01*
X9107466Y9372537D01*
X9034895Y9372537D01*
X9014011Y9365752D01*
X8992297Y9362481D01*
X8919726Y9326195D01*
X8908727Y9315362D01*
X8894972Y9308353D01*
X8858686Y9272067D01*
X8851677Y9258312D01*
X8840844Y9247313D01*
X8804558Y9174742D01*
X8802976Y9164245D01*
X8797346Y9155246D01*
X8763595Y9020245D01*
X8738899Y8970853D01*
X8724472Y8956426D01*
X8685838Y8937108D01*
X8658238Y8937108D01*
X8619603Y8956426D01*
X8605176Y8970853D01*
X8585859Y9009488D01*
X8585859Y9152973D01*
X8617257Y9247166D01*
X8617704Y9306032D01*
X8583465Y9353918D01*
X8527618Y9372534D01*
X8471495Y9354769D01*
X8436533Y9307408D01*
X8400247Y9198551D01*
X8400129Y9183114D01*
X8395359Y9168430D01*
X8395359Y8987001D01*
X8286502Y8987001D01*
X8286502Y9603858D01*
X8395359Y9603858D01*
X8400021Y9589510D01*
X8400021Y9574424D01*
X8408887Y9562220D01*
X8413550Y9547871D01*
X8425754Y9539004D01*
X8434622Y9526799D01*
X8448970Y9522137D01*
X8461175Y9513270D01*
X8476261Y9513270D01*
X8490609Y9508608D01*
X9252609Y9508608D01*
X9266957Y9513270D01*
X9282043Y9513270D01*
X9294247Y9522137D01*
X9308596Y9526799D01*
X9317463Y9539004D01*
X9329668Y9547871D01*
X9334330Y9562220D01*
X9343197Y9574424D01*
X9343197Y9589510D01*
X9347859Y9603858D01*
X9347859Y9894144D01*
X9341074Y9915026D01*
X9337804Y9936740D01*
X9301518Y10009312D01*
X9290685Y10020311D01*
X9283676Y10034067D01*
X9247390Y10070353D01*
X9233633Y10077363D01*
X9222635Y10088195D01*
X9150063Y10124481D01*
X9128349Y10127752D01*
X9107466Y10134537D01*
X8998609Y10134537D01*
X8977725Y10127752D01*
X8956011Y10124481D01*
X8883440Y10088195D01*
X8872441Y10077362D01*
X8858686Y10070353D01*
X8831930Y10043598D01*
X8823493Y10051909D01*
X8750922Y10088195D01*
X8729207Y10091466D01*
X8708324Y10098251D01*
X8635752Y10098251D01*
X8614868Y10091466D01*
X8593154Y10088195D01*
X8520583Y10051909D01*
X8509584Y10041076D01*
X8495829Y10034067D01*
X8459543Y9997781D01*
X8452534Y9984026D01*
X8441701Y9973027D01*
X8405415Y9900456D01*
X8402144Y9878742D01*
X8395359Y9857858D01*
X8395359Y9603858D01*
X8286502Y9603858D01*
X8286502Y10365858D01*
X8867074Y10365858D01*
X8885265Y10309871D01*
X8932890Y10275270D01*
X8991758Y10275270D01*
X9039383Y10309871D01*
X9057574Y10365858D01*
X9057574Y10946429D01*
X9039383Y11002416D01*
X8991758Y11037017D01*
X8932890Y11037017D01*
X8885265Y11002416D01*
X8867074Y10946429D01*
X8867074Y10365858D01*
X8286502Y10365858D01*
X8286502Y11279853D01*
X8400021Y11279853D01*
X8434622Y11232228D01*
X8490609Y11214037D01*
X9107466Y11214037D01*
X9128349Y11220823D01*
X9150063Y11224093D01*
X9222635Y11260379D01*
X9233633Y11271212D01*
X9247389Y11278220D01*
X9283675Y11314505D01*
X9290684Y11328262D01*
X9301519Y11339262D01*
X9337804Y11411834D01*
X9341074Y11433549D01*
X9347859Y11454430D01*
X9347859Y11599573D01*
X9341074Y11620455D01*
X9337804Y11642169D01*
X9301518Y11714741D01*
X9290685Y11725740D01*
X9283676Y11739496D01*
X9247390Y11775782D01*
X9233633Y11782792D01*
X9222635Y11793624D01*
X9150063Y11829910D01*
X9128349Y11833181D01*
X9107466Y11839966D01*
X8490609Y11839966D01*
X8434622Y11821775D01*
X8400021Y11774150D01*
X8400021Y11715282D01*
X8434622Y11667657D01*
X8490609Y11649466D01*
X9084981Y11649466D01*
X9123615Y11630149D01*
X9138042Y11615722D01*
X9157359Y11577089D01*
X9157359Y11476915D01*
X9138042Y11438281D01*
X9123615Y11423855D01*
X9084981Y11404537D01*
X8490609Y11404537D01*
X8434622Y11386346D01*
X8400021Y11338721D01*
X8400021Y11279853D01*
X8286502Y11279853D01*
X8286502Y12251993D01*
X8395362Y12251993D01*
X8404442Y12224753D01*
X8413127Y12197316D01*
X8413738Y12196865D01*
X8413978Y12196146D01*
X8437354Y12179432D01*
X8460488Y12162354D01*
X9222489Y11908354D01*
X9281355Y11907907D01*
X9329241Y11942146D01*
X9347857Y11997993D01*
X9330092Y12054116D01*
X9282730Y12089078D01*
X9130145Y12139940D01*
X9130145Y12365493D01*
X9282730Y12416354D01*
X9330092Y12451316D01*
X9347857Y12507439D01*
X9329241Y12563286D01*
X9281355Y12597525D01*
X9222489Y12597078D01*
X8460488Y12343078D01*
X8437354Y12326001D01*
X8413978Y12309286D01*
X8413738Y12308568D01*
X8413127Y12308116D01*
X8404442Y12280680D01*
X8395362Y12253439D01*
X8395590Y12252716D01*
X8395362Y12251993D01*
X8286502Y12251993D01*
X8286502Y12760716D01*
X8395359Y12760716D01*
X8400021Y12746368D01*
X8400021Y12731282D01*
X8408887Y12719078D01*
X8413550Y12704729D01*
X8425754Y12695862D01*
X8434622Y12683657D01*
X8448970Y12678995D01*
X8461175Y12670128D01*
X8476261Y12670128D01*
X8490609Y12665466D01*
X9252609Y12665466D01*
X9308596Y12683657D01*
X9343197Y12731282D01*
X9343197Y12790150D01*
X9308596Y12837775D01*
X9252609Y12855966D01*
X8985002Y12855966D01*
X8985002Y12892553D01*
X9307231Y13118113D01*
X9342665Y13165122D01*
X9343700Y13223980D01*
X9309942Y13272207D01*
X9254284Y13291380D01*
X9197986Y13274177D01*
X8965890Y13111710D01*
X8938660Y13166171D01*
X8927827Y13177170D01*
X8920819Y13190924D01*
X8884534Y13227210D01*
X8870777Y13234220D01*
X8859778Y13245053D01*
X8787206Y13281339D01*
X8765492Y13284610D01*
X8744609Y13291395D01*
X8635752Y13291395D01*
X8614868Y13284610D01*
X8593154Y13281339D01*
X8520583Y13245053D01*
X8509584Y13234220D01*
X8495829Y13227211D01*
X8459543Y13190925D01*
X8452534Y13177170D01*
X8441701Y13166171D01*
X8405415Y13093600D01*
X8402144Y13071886D01*
X8395359Y13051002D01*
X8395359Y12760716D01*
X8286502Y12760716D01*
X8286502Y13413859D01*
X8395359Y13413859D01*
X8413550Y13357872D01*
X8461175Y13323271D01*
X8520043Y13323271D01*
X8567668Y13357872D01*
X8585859Y13413859D01*
X8585859Y13536323D01*
X9252609Y13536323D01*
X9308596Y13554514D01*
X9343197Y13602139D01*
X9343197Y13661007D01*
X9308596Y13708632D01*
X9252609Y13726823D01*
X8585859Y13726823D01*
X8585859Y13849287D01*
X8567668Y13905274D01*
X8520043Y13939875D01*
X8461175Y13939875D01*
X8413550Y13905274D01*
X8395359Y13849287D01*
X8395359Y13413859D01*
X8286502Y13413859D01*
X8286502Y14310475D01*
X8398908Y14310475D01*
X8400021Y14282876D01*
X8400021Y14255282D01*
X8401199Y14253661D01*
X8401280Y14251655D01*
X8418401Y14229984D01*
X8434622Y14207657D01*
X8436529Y14207038D01*
X8437773Y14205463D01*
X8538785Y14138122D01*
X8593757Y14083150D01*
X8623130Y14024404D01*
X8664438Y13982463D01*
X8722510Y13972813D01*
X8775163Y13999140D01*
X8802286Y14051387D01*
X8793518Y14109598D01*
X8757232Y14182170D01*
X8750046Y14189466D01*
X9157359Y14189466D01*
X9157359Y14067001D01*
X9175550Y14011014D01*
X9223175Y13976413D01*
X9282043Y13976413D01*
X9329668Y14011014D01*
X9347859Y14067001D01*
X9347859Y14502430D01*
X9329668Y14558417D01*
X9282043Y14593018D01*
X9223175Y14593018D01*
X9175550Y14558417D01*
X9157359Y14502430D01*
X9157359Y14379966D01*
X8490609Y14379966D01*
X8488701Y14379347D01*
X8486770Y14379889D01*
X8460878Y14370307D01*
X8434622Y14361775D01*
X8433442Y14360152D01*
X8431563Y14359456D01*
X8416253Y14336494D01*
X8400021Y14314150D01*
X8400021Y14312145D01*
X8398908Y14310475D01*
X8286502Y14310475D01*
X8286502Y14701875D01*
X9456716Y14701875D01*
X9456716Y7875751D01*
G37*
X12647428Y20836391D02*
X12647428Y20219534D01*
X12647428Y20219534D02*
X12683714Y20146962D01*
X12683714Y20146962D02*
X12720000Y20110676D01*
X12720000Y20110676D02*
X12792571Y20074391D01*
X12792571Y20074391D02*
X12937714Y20074391D01*
X12937714Y20074391D02*
X13010285Y20110676D01*
X13010285Y20110676D02*
X13046571Y20146962D01*
X13046571Y20146962D02*
X13082857Y20219534D01*
X13082857Y20219534D02*
X13082857Y20836391D01*
X13373143Y20836391D02*
X13881143Y20836391D01*
X13881143Y20836391D02*
X13554571Y20074391D01*
D15*
X13574344Y18343967D02*
X13513868Y18374205D01*
X13513868Y18374205D02*
X13483630Y18404444D01*
X13483630Y18404444D02*
X13453392Y18464920D01*
X13453392Y18464920D02*
X13453392Y18646348D01*
X13453392Y18646348D02*
X13483630Y18706825D01*
X13483630Y18706825D02*
X13513868Y18737063D01*
X13513868Y18737063D02*
X13574344Y18767301D01*
X13574344Y18767301D02*
X13665059Y18767301D01*
X13665059Y18767301D02*
X13725535Y18737063D01*
X13725535Y18737063D02*
X13755773Y18706825D01*
X13755773Y18706825D02*
X13786011Y18646348D01*
X13786011Y18646348D02*
X13786011Y18464920D01*
X13786011Y18464920D02*
X13755773Y18404444D01*
X13755773Y18404444D02*
X13725535Y18374205D01*
X13725535Y18374205D02*
X13665059Y18343967D01*
X13665059Y18343967D02*
X13574344Y18343967D01*
X19296785Y16956492D02*
X19085118Y17258873D01*
X18933928Y16956492D02*
X18933928Y17591492D01*
X18933928Y17591492D02*
X19175833Y17591492D01*
X19175833Y17591492D02*
X19236309Y17561254D01*
X19236309Y17561254D02*
X19266547Y17531016D01*
X19266547Y17531016D02*
X19296785Y17470540D01*
X19296785Y17470540D02*
X19296785Y17379826D01*
X19296785Y17379826D02*
X19266547Y17319350D01*
X19266547Y17319350D02*
X19236309Y17289111D01*
X19236309Y17289111D02*
X19175833Y17258873D01*
X19175833Y17258873D02*
X18933928Y17258873D01*
X19901547Y16956492D02*
X19538690Y16956492D01*
X19720118Y16956492D02*
X19720118Y17591492D01*
X19720118Y17591492D02*
X19659642Y17500778D01*
X19659642Y17500778D02*
X19599166Y17440302D01*
X19599166Y17440302D02*
X19538690Y17410064D01*
X20294642Y17591492D02*
X20355119Y17591492D01*
X20355119Y17591492D02*
X20415595Y17561254D01*
X20415595Y17561254D02*
X20445833Y17531016D01*
X20445833Y17531016D02*
X20476071Y17470540D01*
X20476071Y17470540D02*
X20506309Y17349588D01*
X20506309Y17349588D02*
X20506309Y17198397D01*
X20506309Y17198397D02*
X20476071Y17077445D01*
X20476071Y17077445D02*
X20445833Y17016969D01*
X20445833Y17016969D02*
X20415595Y16986730D01*
X20415595Y16986730D02*
X20355119Y16956492D01*
X20355119Y16956492D02*
X20294642Y16956492D01*
X20294642Y16956492D02*
X20234166Y16986730D01*
X20234166Y16986730D02*
X20203928Y17016969D01*
X20203928Y17016969D02*
X20173690Y17077445D01*
X20173690Y17077445D02*
X20143452Y17198397D01*
X20143452Y17198397D02*
X20143452Y17349588D01*
X20143452Y17349588D02*
X20173690Y17470540D01*
X20173690Y17470540D02*
X20203928Y17531016D01*
X20203928Y17531016D02*
X20234166Y17561254D01*
X20234166Y17561254D02*
X20294642Y17591492D01*
D11*
X18578038Y21197144D02*
X18614324Y21160858D01*
X18614324Y21160858D02*
X18650609Y21052001D01*
X18650609Y21052001D02*
X18650609Y20979429D01*
X18650609Y20979429D02*
X18614324Y20870572D01*
X18614324Y20870572D02*
X18541752Y20798001D01*
X18541752Y20798001D02*
X18469181Y20761715D01*
X18469181Y20761715D02*
X18324038Y20725429D01*
X18324038Y20725429D02*
X18215181Y20725429D01*
X18215181Y20725429D02*
X18070038Y20761715D01*
X18070038Y20761715D02*
X17997466Y20798001D01*
X17997466Y20798001D02*
X17924895Y20870572D01*
X17924895Y20870572D02*
X17888609Y20979429D01*
X17888609Y20979429D02*
X17888609Y21052001D01*
X17888609Y21052001D02*
X17924895Y21160858D01*
X17924895Y21160858D02*
X17961181Y21197144D01*
X18650609Y21922858D02*
X18650609Y21487429D01*
X18650609Y21705144D02*
X17888609Y21705144D01*
X17888609Y21705144D02*
X17997466Y21632572D01*
X17997466Y21632572D02*
X18070038Y21560001D01*
X18070038Y21560001D02*
X18106324Y21487429D01*
X18650609Y22648572D02*
X18650609Y22213143D01*
X18650609Y22430858D02*
X17888609Y22430858D01*
X17888609Y22430858D02*
X17997466Y22358286D01*
X17997466Y22358286D02*
X18070038Y22285715D01*
X18070038Y22285715D02*
X18106324Y22213143D01*
D15*
X23546508Y17087786D02*
X23244127Y16876119D01*
X23546508Y16724929D02*
X22911508Y16724929D01*
X22911508Y16724929D02*
X22911508Y16966834D01*
X22911508Y16966834D02*
X22941746Y17027310D01*
X22941746Y17027310D02*
X22971984Y17057548D01*
X22971984Y17057548D02*
X23032460Y17087786D01*
X23032460Y17087786D02*
X23123174Y17087786D01*
X23123174Y17087786D02*
X23183650Y17057548D01*
X23183650Y17057548D02*
X23213889Y17027310D01*
X23213889Y17027310D02*
X23244127Y16966834D01*
X23244127Y16966834D02*
X23244127Y16724929D01*
X23546508Y17692548D02*
X23546508Y17329691D01*
X23546508Y17511119D02*
X22911508Y17511119D01*
X22911508Y17511119D02*
X23002222Y17450643D01*
X23002222Y17450643D02*
X23062698Y17390167D01*
X23062698Y17390167D02*
X23092936Y17329691D01*
X22971984Y17934453D02*
X22941746Y17964691D01*
X22941746Y17964691D02*
X22911508Y18025167D01*
X22911508Y18025167D02*
X22911508Y18176358D01*
X22911508Y18176358D02*
X22941746Y18236834D01*
X22941746Y18236834D02*
X22971984Y18267072D01*
X22971984Y18267072D02*
X23032460Y18297310D01*
X23032460Y18297310D02*
X23092936Y18297310D01*
X23092936Y18297310D02*
X23183650Y18267072D01*
X23183650Y18267072D02*
X23546508Y17904215D01*
X23546508Y17904215D02*
X23546508Y18297310D01*
X27429079Y16483024D02*
X27429079Y16785405D01*
X27610508Y16422548D02*
X26975508Y16634214D01*
X26975508Y16634214D02*
X27610508Y16845881D01*
X27550031Y17420405D02*
X27580270Y17390167D01*
X27580270Y17390167D02*
X27610508Y17299453D01*
X27610508Y17299453D02*
X27610508Y17238977D01*
X27610508Y17238977D02*
X27580270Y17148262D01*
X27580270Y17148262D02*
X27519793Y17087786D01*
X27519793Y17087786D02*
X27459317Y17057548D01*
X27459317Y17057548D02*
X27338365Y17027310D01*
X27338365Y17027310D02*
X27247650Y17027310D01*
X27247650Y17027310D02*
X27126698Y17057548D01*
X27126698Y17057548D02*
X27066222Y17087786D01*
X27066222Y17087786D02*
X27005746Y17148262D01*
X27005746Y17148262D02*
X26975508Y17238977D01*
X26975508Y17238977D02*
X26975508Y17299453D01*
X26975508Y17299453D02*
X27005746Y17390167D01*
X27005746Y17390167D02*
X27035984Y17420405D01*
X26975508Y17601834D02*
X26975508Y17964691D01*
X27610508Y17783262D02*
X26975508Y17783262D01*
X27610508Y18508977D02*
X27610508Y18146120D01*
X27610508Y18327548D02*
X26975508Y18327548D01*
X26975508Y18327548D02*
X27066222Y18267072D01*
X27066222Y18267072D02*
X27126698Y18206596D01*
X27126698Y18206596D02*
X27156936Y18146120D01*
X27610508Y19534048D02*
X27610508Y19231667D01*
X27610508Y19231667D02*
X26975508Y19231667D01*
X27610508Y19745715D02*
X26975508Y19745715D01*
X26975508Y19745715D02*
X27610508Y20108572D01*
X27610508Y20108572D02*
X26975508Y20108572D01*
X27610508Y20410953D02*
X26975508Y20410953D01*
X27610508Y20773810D02*
X27247650Y20501667D01*
X26975508Y20773810D02*
X27338365Y20410953D01*
X27610508Y21378572D02*
X27610508Y21015715D01*
X27610508Y21197143D02*
X26975508Y21197143D01*
X26975508Y21197143D02*
X27066222Y21136667D01*
X27066222Y21136667D02*
X27126698Y21076191D01*
X27126698Y21076191D02*
X27156936Y21015715D01*
X17391785Y16956492D02*
X17180118Y17258873D01*
X17028928Y16956492D02*
X17028928Y17591492D01*
X17028928Y17591492D02*
X17270833Y17591492D01*
X17270833Y17591492D02*
X17331309Y17561254D01*
X17331309Y17561254D02*
X17361547Y17531016D01*
X17361547Y17531016D02*
X17391785Y17470540D01*
X17391785Y17470540D02*
X17391785Y17379826D01*
X17391785Y17379826D02*
X17361547Y17319350D01*
X17361547Y17319350D02*
X17331309Y17289111D01*
X17331309Y17289111D02*
X17270833Y17258873D01*
X17270833Y17258873D02*
X17028928Y17258873D01*
X17996547Y16956492D02*
X17633690Y16956492D01*
X17815118Y16956492D02*
X17815118Y17591492D01*
X17815118Y17591492D02*
X17754642Y17500778D01*
X17754642Y17500778D02*
X17694166Y17440302D01*
X17694166Y17440302D02*
X17633690Y17410064D01*
X18601309Y16956492D02*
X18238452Y16956492D01*
X18419880Y16956492D02*
X18419880Y17591492D01*
X18419880Y17591492D02*
X18359404Y17500778D01*
X18359404Y17500778D02*
X18298928Y17440302D01*
X18298928Y17440302D02*
X18238452Y17410064D01*
D10*
G36*
X26887128Y74778694D02*
G01*
X26906367Y74759455D01*
X26932122Y74707945D01*
X26932122Y74526258D01*
X26702312Y74526258D01*
X26702312Y74707945D01*
X26728067Y74759455D01*
X26747306Y74778694D01*
X26798816Y74804449D01*
X26835618Y74804449D01*
X26887128Y74778694D01*
G37*
G36*
X27419319Y74827075D02*
G01*
X27438556Y74807838D01*
X27464312Y74756326D01*
X27464312Y74526258D01*
X27186122Y74526258D01*
X27186122Y74717315D01*
X27218505Y74814464D01*
X27231116Y74827075D01*
X27282626Y74852830D01*
X27367809Y74852830D01*
X27419319Y74827075D01*
G37*
G36*
X27863455Y74127115D02*
G01*
X26303169Y74127115D01*
X26303169Y74399258D01*
X26448312Y74399258D01*
X26450924Y74390361D01*
X26449605Y74381184D01*
X26460847Y74356566D01*
X26468473Y74330597D01*
X26475480Y74324526D01*
X26479332Y74316091D01*
X26502100Y74301459D01*
X26522554Y74283735D01*
X26531730Y74282416D01*
X26539532Y74277402D01*
X26575312Y74272258D01*
X27591312Y74272258D01*
X27600209Y74274871D01*
X27609386Y74273551D01*
X27634004Y74284794D01*
X27659973Y74292419D01*
X27666044Y74299427D01*
X27674479Y74303278D01*
X27689111Y74326047D01*
X27706835Y74346500D01*
X27708154Y74355677D01*
X27713168Y74363478D01*
X27718312Y74399258D01*
X27718312Y74786306D01*
X27715068Y74797351D01*
X27716305Y74808798D01*
X27704905Y74843101D01*
X27656525Y74939863D01*
X27654903Y74941607D01*
X27654397Y74943933D01*
X27632735Y74972871D01*
X27584354Y75021252D01*
X27582264Y75022394D01*
X27581049Y75024439D01*
X27551347Y75045041D01*
X27454585Y75093422D01*
X27443255Y75095461D01*
X27433569Y75101686D01*
X27397789Y75106830D01*
X27252646Y75106830D01*
X27241600Y75103587D01*
X27230153Y75104823D01*
X27195850Y75093422D01*
X27099088Y75045041D01*
X27097345Y75043421D01*
X27095019Y75042914D01*
X27066081Y75021252D01*
X27032342Y74987514D01*
X27019156Y74996660D01*
X26922394Y75045041D01*
X26911064Y75047080D01*
X26901378Y75053305D01*
X26865598Y75058449D01*
X26768836Y75058449D01*
X26757790Y75055206D01*
X26746343Y75056442D01*
X26712040Y75045041D01*
X26615278Y74996660D01*
X26613535Y74995040D01*
X26611209Y74994533D01*
X26582271Y74972871D01*
X26533890Y74924490D01*
X26532748Y74922401D01*
X26530703Y74921185D01*
X26510101Y74891483D01*
X26461720Y74794721D01*
X26459681Y74783392D01*
X26453456Y74773705D01*
X26448312Y74737925D01*
X26448312Y74399258D01*
X26303169Y74399258D01*
X26303169Y75397184D01*
X26449605Y75397184D01*
X26479332Y75332091D01*
X26539532Y75293402D01*
X26575312Y75288258D01*
X27397789Y75288258D01*
X27408834Y75291502D01*
X27420282Y75290265D01*
X27454585Y75301666D01*
X27551347Y75350047D01*
X27553089Y75351668D01*
X27555416Y75352174D01*
X27584354Y75373836D01*
X27632735Y75422217D01*
X27633876Y75424308D01*
X27635923Y75425523D01*
X27656525Y75455225D01*
X27704905Y75551987D01*
X27706943Y75563318D01*
X27713168Y75573002D01*
X27718312Y75608782D01*
X27718312Y75802306D01*
X27715068Y75813351D01*
X27716305Y75824798D01*
X27704905Y75859101D01*
X27656525Y75955863D01*
X27654903Y75957607D01*
X27654397Y75959933D01*
X27632735Y75988871D01*
X27584354Y76037252D01*
X27582264Y76038394D01*
X27581049Y76040439D01*
X27551347Y76061041D01*
X27454585Y76109422D01*
X27443255Y76111461D01*
X27433569Y76117686D01*
X27397789Y76122830D01*
X26575312Y76122830D01*
X26506651Y76102669D01*
X26459789Y76048588D01*
X26449605Y75977756D01*
X26479332Y75912663D01*
X26539532Y75873974D01*
X26575312Y75868830D01*
X27367809Y75868830D01*
X27419319Y75843075D01*
X27438556Y75823838D01*
X27464312Y75772326D01*
X27464312Y75638763D01*
X27438556Y75587251D01*
X27419319Y75568013D01*
X27367809Y75542258D01*
X26575312Y75542258D01*
X26506651Y75522097D01*
X26459789Y75468016D01*
X26449605Y75397184D01*
X26303169Y75397184D01*
X26303169Y76334496D01*
X26448312Y76334496D01*
X26468473Y76265835D01*
X26522554Y76218973D01*
X26593386Y76208789D01*
X26658479Y76238516D01*
X26697168Y76298716D01*
X26702312Y76334496D01*
X26702312Y76497782D01*
X27591312Y76497782D01*
X27659973Y76517943D01*
X27706835Y76572024D01*
X27717019Y76642856D01*
X27687292Y76707949D01*
X27627092Y76746638D01*
X27591312Y76751782D01*
X26702312Y76751782D01*
X26702312Y76915068D01*
X26682151Y76983729D01*
X26628070Y77030591D01*
X26557238Y77040775D01*
X26492145Y77011048D01*
X26453456Y76950848D01*
X26448312Y76915068D01*
X26448312Y76334496D01*
X26303169Y76334496D01*
X26303169Y77479680D01*
X26449319Y77479680D01*
X26449762Y77478664D01*
X26449605Y77477565D01*
X26464039Y77445957D01*
X26477948Y77414096D01*
X26479035Y77413122D01*
X26479332Y77412472D01*
X26480843Y77411501D01*
X26504865Y77389969D01*
X26639541Y77300185D01*
X26712842Y77226885D01*
X26752006Y77148557D01*
X26800744Y77096161D01*
X26870073Y77078432D01*
X26937982Y77101000D01*
X26982908Y77156699D01*
X26990591Y77227846D01*
X26979190Y77262149D01*
X26930809Y77358911D01*
X26929188Y77360654D01*
X26928682Y77362980D01*
X26924446Y77368639D01*
X27464312Y77368639D01*
X27464312Y77205353D01*
X27484473Y77136692D01*
X27538554Y77089830D01*
X27609386Y77079646D01*
X27674479Y77109373D01*
X27713168Y77169573D01*
X27718312Y77205353D01*
X27718312Y77785925D01*
X27698151Y77854586D01*
X27644070Y77901448D01*
X27573238Y77911632D01*
X27508145Y77881905D01*
X27469456Y77821705D01*
X27464312Y77785925D01*
X27464312Y77622639D01*
X26575312Y77622639D01*
X26541971Y77612850D01*
X26508456Y77603617D01*
X26507715Y77602791D01*
X26506651Y77602478D01*
X26483882Y77576202D01*
X26460692Y77550330D01*
X26460515Y77549236D01*
X26459789Y77548397D01*
X26454841Y77513988D01*
X26449319Y77479680D01*
X26303169Y77479680D01*
X26303169Y78056775D01*
X27863455Y78056775D01*
X27863455Y74127115D01*
G37*
D11*
X20967743Y33583562D02*
X20931457Y33547276D01*
X20931457Y33547276D02*
X20822600Y33510991D01*
X20822600Y33510991D02*
X20750028Y33510991D01*
X20750028Y33510991D02*
X20641171Y33547276D01*
X20641171Y33547276D02*
X20568600Y33619848D01*
X20568600Y33619848D02*
X20532314Y33692419D01*
X20532314Y33692419D02*
X20496028Y33837562D01*
X20496028Y33837562D02*
X20496028Y33946419D01*
X20496028Y33946419D02*
X20532314Y34091562D01*
X20532314Y34091562D02*
X20568600Y34164134D01*
X20568600Y34164134D02*
X20641171Y34236705D01*
X20641171Y34236705D02*
X20750028Y34272991D01*
X20750028Y34272991D02*
X20822600Y34272991D01*
X20822600Y34272991D02*
X20931457Y34236705D01*
X20931457Y34236705D02*
X20967743Y34200419D01*
X21258028Y34200419D02*
X21294314Y34236705D01*
X21294314Y34236705D02*
X21366886Y34272991D01*
X21366886Y34272991D02*
X21548314Y34272991D01*
X21548314Y34272991D02*
X21620886Y34236705D01*
X21620886Y34236705D02*
X21657171Y34200419D01*
X21657171Y34200419D02*
X21693457Y34127848D01*
X21693457Y34127848D02*
X21693457Y34055276D01*
X21693457Y34055276D02*
X21657171Y33946419D01*
X21657171Y33946419D02*
X21221743Y33510991D01*
X21221743Y33510991D02*
X21693457Y33510991D01*
X22346600Y34018991D02*
X22346600Y33510991D01*
X22165171Y34309276D02*
X21983742Y33764991D01*
X21983742Y33764991D02*
X22455457Y33764991D01*
D10*
X18118104Y33549188D02*
X18118104Y32726711D01*
X18118104Y32726711D02*
X18166485Y32629949D01*
X18166485Y32629949D02*
X18214866Y32581568D01*
X18214866Y32581568D02*
X18311628Y32533188D01*
X18311628Y32533188D02*
X18505152Y32533188D01*
X18505152Y32533188D02*
X18601914Y32581568D01*
X18601914Y32581568D02*
X18650295Y32629949D01*
X18650295Y32629949D02*
X18698676Y32726711D01*
X18698676Y32726711D02*
X18698676Y33549188D01*
X19666295Y33549188D02*
X19182485Y33549188D01*
X19182485Y33549188D02*
X19134104Y33065378D01*
X19134104Y33065378D02*
X19182485Y33113759D01*
X19182485Y33113759D02*
X19279247Y33162140D01*
X19279247Y33162140D02*
X19521152Y33162140D01*
X19521152Y33162140D02*
X19617914Y33113759D01*
X19617914Y33113759D02*
X19666295Y33065378D01*
X19666295Y33065378D02*
X19714676Y32968616D01*
X19714676Y32968616D02*
X19714676Y32726711D01*
X19714676Y32726711D02*
X19666295Y32629949D01*
X19666295Y32629949D02*
X19617914Y32581568D01*
X19617914Y32581568D02*
X19521152Y32533188D01*
X19521152Y32533188D02*
X19279247Y32533188D01*
X19279247Y32533188D02*
X19182485Y32581568D01*
X19182485Y32581568D02*
X19134104Y32629949D01*
X19898318Y34423286D02*
X19837842Y34302334D01*
X19837842Y34302334D02*
X19777365Y34241857D01*
X19777365Y34241857D02*
X19656413Y34181381D01*
X19656413Y34181381D02*
X19293556Y34181381D01*
X19293556Y34181381D02*
X19172603Y34241857D01*
X19172603Y34241857D02*
X19112127Y34302334D01*
X19112127Y34302334D02*
X19051651Y34423286D01*
X19051651Y34423286D02*
X19051651Y34604715D01*
X19051651Y34604715D02*
X19112127Y34725667D01*
X19112127Y34725667D02*
X19172603Y34786143D01*
X19172603Y34786143D02*
X19293556Y34846619D01*
X19293556Y34846619D02*
X19656413Y34846619D01*
X19656413Y34846619D02*
X19777365Y34786143D01*
X19777365Y34786143D02*
X19837842Y34725667D01*
X19837842Y34725667D02*
X19898318Y34604715D01*
X19898318Y34604715D02*
X19898318Y34423286D01*
D11*
X5190714Y788534D02*
X5299571Y752248D01*
X5299571Y752248D02*
X5335857Y715962D01*
X5335857Y715962D02*
X5372143Y643391D01*
X5372143Y643391D02*
X5372143Y534534D01*
X5372143Y534534D02*
X5335857Y461962D01*
X5335857Y461962D02*
X5299571Y425676D01*
X5299571Y425676D02*
X5227000Y389391D01*
X5227000Y389391D02*
X4936714Y389391D01*
X4936714Y389391D02*
X4936714Y1151391D01*
X4936714Y1151391D02*
X5190714Y1151391D01*
X5190714Y1151391D02*
X5263286Y1115105D01*
X5263286Y1115105D02*
X5299571Y1078819D01*
X5299571Y1078819D02*
X5335857Y1006248D01*
X5335857Y1006248D02*
X5335857Y933676D01*
X5335857Y933676D02*
X5299571Y861105D01*
X5299571Y861105D02*
X5263286Y824819D01*
X5263286Y824819D02*
X5190714Y788534D01*
X5190714Y788534D02*
X4936714Y788534D01*
X5662428Y607105D02*
X6025286Y607105D01*
X5589857Y389391D02*
X5843857Y1151391D01*
X5843857Y1151391D02*
X6097857Y389391D01*
X6243000Y1151391D02*
X6678429Y1151391D01*
X6460714Y389391D02*
X6460714Y1151391D01*
X7331571Y389391D02*
X6896142Y389391D01*
X7113857Y389391D02*
X7113857Y1151391D01*
X7113857Y1151391D02*
X7041285Y1042534D01*
X7041285Y1042534D02*
X6968714Y969962D01*
X6968714Y969962D02*
X6896142Y933676D01*
D10*
X1559612Y4188267D02*
X1559612Y3559695D01*
X1559612Y3873981D02*
X459612Y3873981D01*
X459612Y3873981D02*
X616755Y3769219D01*
X616755Y3769219D02*
X721517Y3664457D01*
X721517Y3664457D02*
X773898Y3559695D01*
X615174Y1555635D02*
X562793Y1608016D01*
X562793Y1608016D02*
X510412Y1712778D01*
X510412Y1712778D02*
X510412Y1974683D01*
X510412Y1974683D02*
X562793Y2079445D01*
X562793Y2079445D02*
X615174Y2131826D01*
X615174Y2131826D02*
X719936Y2184207D01*
X719936Y2184207D02*
X824698Y2184207D01*
X824698Y2184207D02*
X981841Y2131826D01*
X981841Y2131826D02*
X1610412Y1503254D01*
X1610412Y1503254D02*
X1610412Y2184207D01*
D12*
X5074406Y6289763D02*
X4566406Y6289763D01*
X4566406Y6289763D02*
X4566406Y6483287D01*
X4566406Y6483287D02*
X4590596Y6531668D01*
X4590596Y6531668D02*
X4614787Y6555858D01*
X4614787Y6555858D02*
X4663168Y6580049D01*
X4663168Y6580049D02*
X4735739Y6580049D01*
X4735739Y6580049D02*
X4784120Y6555858D01*
X4784120Y6555858D02*
X4808311Y6531668D01*
X4808311Y6531668D02*
X4832501Y6483287D01*
X4832501Y6483287D02*
X4832501Y6289763D01*
X4566406Y6749382D02*
X5074406Y6870334D01*
X5074406Y6870334D02*
X4711549Y6967096D01*
X4711549Y6967096D02*
X5074406Y7063858D01*
X5074406Y7063858D02*
X4566406Y7184810D01*
X5074406Y7668620D02*
X4832501Y7499286D01*
X5074406Y7378334D02*
X4566406Y7378334D01*
X4566406Y7378334D02*
X4566406Y7571858D01*
X4566406Y7571858D02*
X4590596Y7620239D01*
X4590596Y7620239D02*
X4614787Y7644429D01*
X4614787Y7644429D02*
X4663168Y7668620D01*
X4663168Y7668620D02*
X4735739Y7668620D01*
X4735739Y7668620D02*
X4784120Y7644429D01*
X4784120Y7644429D02*
X4808311Y7620239D01*
X4808311Y7620239D02*
X4832501Y7571858D01*
X4832501Y7571858D02*
X4832501Y7378334D01*
X5074406Y8152429D02*
X5074406Y7862143D01*
X5074406Y8007286D02*
X4566406Y8007286D01*
X4566406Y8007286D02*
X4638977Y7958905D01*
X4638977Y7958905D02*
X4687358Y7910524D01*
X4687358Y7910524D02*
X4711549Y7862143D01*
D15*
X8373031Y16198786D02*
X8403270Y16168548D01*
X8403270Y16168548D02*
X8433508Y16077834D01*
X8433508Y16077834D02*
X8433508Y16017358D01*
X8433508Y16017358D02*
X8403270Y15926643D01*
X8403270Y15926643D02*
X8342793Y15866167D01*
X8342793Y15866167D02*
X8282317Y15835929D01*
X8282317Y15835929D02*
X8161365Y15805691D01*
X8161365Y15805691D02*
X8070650Y15805691D01*
X8070650Y15805691D02*
X7949698Y15835929D01*
X7949698Y15835929D02*
X7889222Y15866167D01*
X7889222Y15866167D02*
X7828746Y15926643D01*
X7828746Y15926643D02*
X7798508Y16017358D01*
X7798508Y16017358D02*
X7798508Y16077834D01*
X7798508Y16077834D02*
X7828746Y16168548D01*
X7828746Y16168548D02*
X7858984Y16198786D01*
X7858984Y16440691D02*
X7828746Y16470929D01*
X7828746Y16470929D02*
X7798508Y16531405D01*
X7798508Y16531405D02*
X7798508Y16682596D01*
X7798508Y16682596D02*
X7828746Y16743072D01*
X7828746Y16743072D02*
X7858984Y16773310D01*
X7858984Y16773310D02*
X7919460Y16803548D01*
X7919460Y16803548D02*
X7979936Y16803548D01*
X7979936Y16803548D02*
X8070650Y16773310D01*
X8070650Y16773310D02*
X8433508Y16410453D01*
X8433508Y16410453D02*
X8433508Y16803548D01*
X8433508Y17105929D02*
X8433508Y17226881D01*
X8433508Y17226881D02*
X8403270Y17287358D01*
X8403270Y17287358D02*
X8373031Y17317596D01*
X8373031Y17317596D02*
X8282317Y17378072D01*
X8282317Y17378072D02*
X8161365Y17408310D01*
X8161365Y17408310D02*
X7919460Y17408310D01*
X7919460Y17408310D02*
X7858984Y17378072D01*
X7858984Y17378072D02*
X7828746Y17347834D01*
X7828746Y17347834D02*
X7798508Y17287358D01*
X7798508Y17287358D02*
X7798508Y17166405D01*
X7798508Y17166405D02*
X7828746Y17105929D01*
X7828746Y17105929D02*
X7858984Y17075691D01*
X7858984Y17075691D02*
X7919460Y17045453D01*
X7919460Y17045453D02*
X8070650Y17045453D01*
X8070650Y17045453D02*
X8131127Y17075691D01*
X8131127Y17075691D02*
X8161365Y17105929D01*
X8161365Y17105929D02*
X8191603Y17166405D01*
X8191603Y17166405D02*
X8191603Y17287358D01*
X8191603Y17287358D02*
X8161365Y17347834D01*
X8161365Y17347834D02*
X8131127Y17378072D01*
X8131127Y17378072D02*
X8070650Y17408310D01*
D10*
%TO.C,U6*%
X4990000Y86282000D02*
X4990000Y79662000D01*
X4990000Y86282000D02*
X22990000Y86282000D01*
X4990000Y79982000D02*
X22990000Y79982000D01*
X4990000Y54882000D02*
X4990000Y55182000D01*
X4990000Y54882000D02*
X22990000Y54882000D01*
X6840000Y60782000D02*
X7490000Y60782000D01*
X21140000Y60782000D02*
X20540000Y60782000D01*
X22990000Y86282000D02*
X22990000Y79662000D01*
X22990000Y54882000D02*
X22990000Y55182000D01*
%TO.C,UEXT1*%
X24150000Y41372000D02*
X24150000Y50262000D01*
X24150000Y41372000D02*
X20340000Y41372000D01*
X23134000Y42388000D02*
X23134000Y49246000D01*
X23134000Y49246000D02*
X20340000Y49246000D01*
X22880000Y42642000D02*
X22880000Y48992000D01*
X22880000Y42642000D02*
X20340000Y42642000D01*
X22880000Y50262000D02*
X24150000Y50262000D01*
X22880000Y50262000D02*
X22880000Y50516000D01*
X22880000Y50516000D02*
X21610000Y50516000D01*
X22753000Y42515000D02*
X23007000Y42515000D01*
X22626000Y49119000D02*
X23134000Y49119000D01*
X21610000Y50262000D02*
X21610000Y50516000D01*
X20340000Y42388000D02*
X23134000Y42388000D01*
X20340000Y42388000D02*
X20340000Y42642000D01*
X20340000Y48992000D02*
X22880000Y48992000D01*
X20340000Y48992000D02*
X20340000Y49246000D01*
X20340000Y50262000D02*
X21610000Y50262000D01*
X7640000Y41372000D02*
X3830000Y41372000D01*
X7640000Y42388000D02*
X7640000Y42642000D01*
X7640000Y42642000D02*
X5100000Y42642000D01*
X7640000Y48992000D02*
X7640000Y49246000D01*
X7640000Y49246000D02*
X4846000Y49246000D01*
X6370000Y50262000D02*
X7640000Y50262000D01*
X6370000Y50516000D02*
X6370000Y50262000D01*
X6370000Y50516000D02*
X5100000Y50516000D01*
X5354000Y42515000D02*
X4973000Y42515000D01*
X5354000Y49119000D02*
X4973000Y49119000D01*
X5100000Y48992000D02*
X7640000Y48992000D01*
X5100000Y48992000D02*
X5100000Y42642000D01*
X5100000Y50516000D02*
X5100000Y50262000D01*
X4846000Y42388000D02*
X7640000Y42388000D01*
X4846000Y49246000D02*
X4846000Y42388000D01*
X3830000Y50262000D02*
X5100000Y50262000D01*
X3830000Y50262000D02*
X3830000Y41372000D01*
%TO.C,D2*%
X5125400Y28392600D02*
X4338000Y28392600D01*
X5125400Y29053000D02*
X5125400Y28392600D01*
X5125400Y31237400D02*
X5125400Y30577000D01*
X4338000Y31237400D02*
X5125400Y31237400D01*
X3804600Y30018200D02*
X3804600Y29611800D01*
%TO.C,FET2*%
X4871400Y22413440D02*
X4160200Y22413440D01*
X2737800Y22413440D02*
X2026600Y22413440D01*
X4871400Y21575240D02*
X4871400Y22413440D01*
X2026600Y21575240D02*
X2026600Y22413440D01*
D16*
%TO.C,R48*%
X25991500Y66645000D02*
X25991500Y67153000D01*
X26880500Y66645000D02*
X26880500Y67153000D01*
%TO.C,R47*%
X25356500Y75027000D02*
X25356500Y75535000D01*
X26245500Y75027000D02*
X26245500Y75535000D01*
%TO.C,R39*%
X26309000Y60739500D02*
X25801000Y60739500D01*
X26309000Y61628500D02*
X25801000Y61628500D01*
%TO.C,R32*%
X1925000Y66581500D02*
X2433000Y66581500D01*
X1925000Y65692500D02*
X2433000Y65692500D01*
%TO.C,R31*%
X26309000Y63533500D02*
X25801000Y63533500D01*
X26309000Y64422500D02*
X25801000Y64422500D01*
%TO.C,R4*%
X1925000Y65311500D02*
X2433000Y65311500D01*
X1925000Y64422500D02*
X2433000Y64422500D01*
%TO.C,R8*%
X7894000Y5367500D02*
X7386000Y5367500D01*
X7894000Y6256500D02*
X7386000Y6256500D01*
D10*
%TO.C,CHRG1*%
X8313100Y7272500D02*
X8313100Y6447000D01*
X8160700Y6307300D02*
X8300400Y6434300D01*
X8160700Y7399500D02*
X8313100Y7272500D01*
D12*
X8148000Y6243800D02*
X7132000Y6243800D01*
D10*
X8148000Y6345400D02*
X8148000Y7386800D01*
D12*
X7132000Y7463000D02*
X8148000Y7463000D01*
D17*
X6928800Y6582400D02*
X6798800Y6472400D01*
D18*
X6851000Y6938000D02*
X6851000Y6718000D01*
D17*
X6797200Y6473400D02*
X6877200Y6483400D01*
X6797200Y6473400D02*
X6797200Y6553400D01*
X6721800Y6603400D02*
X6591800Y6493400D01*
D18*
X6661000Y6718000D02*
X6761000Y6818000D01*
X6661000Y6938000D02*
X6771000Y6838000D01*
X6661000Y6938000D02*
X6661000Y6718000D01*
D17*
X6581800Y6473400D02*
X6661800Y6483400D01*
X6581800Y6473400D02*
X6581800Y6553400D01*
D18*
X6491000Y6828000D02*
X7011000Y6828000D01*
D16*
%TO.C,R5*%
X5354000Y6256500D02*
X5862000Y6256500D01*
X5354000Y5367500D02*
X5862000Y5367500D01*
%TO.C,R13*%
X21927500Y18893000D02*
X21927500Y18385000D01*
X21038500Y18893000D02*
X21038500Y18385000D01*
%TO.C,R44*%
X25801000Y63406500D02*
X26309000Y63406500D01*
X25801000Y62517500D02*
X26309000Y62517500D01*
%TO.C,R25*%
X22943500Y22322000D02*
X22943500Y22830000D01*
X23832500Y22322000D02*
X23832500Y22830000D01*
D10*
%TO.C,LAN_CON1*%
X26181000Y-5696000D02*
X10181000Y-5696000D01*
X26181000Y6104000D02*
X26181000Y-5696000D01*
X26181000Y16304000D02*
X26181000Y10534000D01*
X10181000Y-5696000D02*
X10181000Y6104000D01*
X10181000Y10534000D02*
X10181000Y16304000D01*
X10181000Y16304000D02*
X26181000Y16304000D01*
%TO.C,C21*%
X24302400Y20036000D02*
X23286400Y20036000D01*
X24302400Y21560000D02*
X23286400Y21560000D01*
%TO.C,C22*%
X15514000Y16861000D02*
X14498000Y16861000D01*
X15514000Y18385000D02*
X14498000Y18385000D01*
D16*
%TO.C,R33*%
X13355000Y32545500D02*
X13863000Y32545500D01*
X13355000Y31656500D02*
X13863000Y31656500D01*
D10*
%TO.C,FET1*%
X11069000Y30932600D02*
X11069000Y31643800D01*
X11069000Y33066200D02*
X11069000Y33777400D01*
X10230800Y30932600D02*
X11069000Y30932600D01*
X10230800Y33777400D02*
X11069000Y33777400D01*
%TO.C,D9*%
X5735000Y40914800D02*
X5735000Y39009800D01*
X5557200Y39009800D02*
X5735000Y39009800D01*
X5557200Y40000400D02*
X4185600Y39009800D01*
X5557200Y40914800D02*
X5735000Y40914800D01*
X5557200Y40914800D02*
X5557200Y39009800D01*
X5100000Y40102000D02*
X5100000Y39721000D01*
X4973000Y40229000D02*
X4973000Y39594000D01*
X4846000Y40356000D02*
X4846000Y39594000D01*
X4719000Y40356000D02*
X4719000Y39467000D01*
X4592000Y39467000D02*
X4592000Y40610000D01*
X4465000Y40610000D02*
X4465000Y39340000D01*
X4338000Y39213000D02*
X4338000Y40737000D01*
X4185600Y40914800D02*
X5557200Y40000400D01*
X4185600Y40914800D02*
X4185600Y39009800D01*
X3703000Y39962300D02*
X5989000Y39962300D01*
%TO.C,C12*%
X16657000Y31593000D02*
X15641000Y31593000D01*
X16657000Y33117000D02*
X15641000Y33117000D01*
%TO.C,RST1*%
X2971000Y71663000D02*
G75*
G03*
X1371000Y71663000I-800000J-568550D01*
G01*
X1371001Y70263001D02*
G75*
G03*
X2970999Y70263001I799999J568548D01*
G01*
X3171000Y72963000D02*
X3668800Y72963000D01*
X674000Y72963000D02*
X1171000Y72963000D01*
X3671000Y68963000D02*
X3671000Y72963000D01*
X3171000Y68963000D02*
X3668800Y68963000D01*
X673200Y68963000D02*
X1171000Y68963000D01*
X671000Y68963000D02*
X671000Y72963000D01*
D16*
%TO.C,C23*%
X9799000Y36101500D02*
X10307000Y36101500D01*
X9799000Y35212500D02*
X10307000Y35212500D01*
%TO.C,R34*%
X10307000Y36228500D02*
X9799000Y36228500D01*
X10307000Y37117500D02*
X9799000Y37117500D01*
%TO.C,R38*%
X9799000Y35085500D02*
X10307000Y35085500D01*
X9799000Y34196500D02*
X10307000Y34196500D01*
D10*
%TO.C,L2*%
X15083000Y18728000D02*
X15183000Y18728000D01*
X15083000Y20328000D02*
X15183000Y20328000D01*
D16*
%TO.C,R36*%
X26309000Y64422500D02*
X25801000Y64422500D01*
X26309000Y65311500D02*
X25801000Y65311500D01*
%TO.C,R49*%
X25102500Y67153000D02*
X25102500Y66645000D01*
X25991500Y67153000D02*
X25991500Y66645000D01*
D10*
%TO.C,C27*%
X25078021Y37816000D02*
G75*
G03*
X25078021Y37816000I-3087021J0D01*
G01*
%TO.C,D5*%
X18967200Y24818000D02*
X20067200Y24818000D01*
X18967200Y24818000D02*
X18967200Y32018000D01*
X25167200Y24818000D02*
X24067200Y24818000D01*
X21067200Y27218000D02*
X23067200Y27218000D01*
X21067200Y27218000D02*
X22067200Y28618000D01*
X22067200Y27218000D02*
X22067200Y26418000D01*
X23067200Y27218000D02*
X22067200Y28618000D01*
X21067200Y28618000D02*
X23067200Y28618000D01*
X22067200Y28618000D02*
X22067200Y29218000D01*
D19*
X24967200Y29918000D02*
X19167200Y29918000D01*
D10*
X18967200Y32018000D02*
X20067200Y32018000D01*
X25167200Y32018000D02*
X25167200Y24818000D01*
X25167200Y32018000D02*
X24067200Y32018000D01*
%TO.C,C25*%
X8695021Y35530000D02*
G75*
G03*
X8695021Y35530000I-3087021J0D01*
G01*
D16*
%TO.C,R24*%
X6624000Y30640500D02*
X6116000Y30640500D01*
X6624000Y31529500D02*
X6116000Y31529500D01*
D10*
%TO.C,L4*%
X14688270Y25878000D02*
G75*
G03*
X14688270Y25878000I-3111270J0D01*
G01*
X10077000Y25878000D02*
G75*
G03*
X11077000Y25878000I500000J0D01*
G01*
X11077000Y25878000D02*
G75*
G03*
X12077000Y25878000I500000J0D01*
G01*
X12077000Y25878000D02*
G75*
G03*
X13077000Y25878000I500000J0D01*
G01*
X5077000Y27978000D02*
X8577000Y30678000D01*
X5077000Y27478000D02*
X5077000Y27978000D01*
X5077000Y24278000D02*
X8177000Y24278000D01*
X5077000Y23778000D02*
X5077000Y24278000D01*
X8177000Y27478000D02*
X5077000Y27478000D01*
X8177000Y24278000D02*
X8177000Y27478000D01*
X8577000Y30678000D02*
X14577000Y30678000D01*
X8577000Y21078000D02*
X5077000Y23778000D01*
X9177000Y25878000D02*
X10077000Y25878000D01*
X13077000Y25878000D02*
X13977000Y25878000D01*
X14577000Y30678000D02*
X18077000Y27978000D01*
X14577000Y21078000D02*
X8577000Y21078000D01*
X14977000Y27478000D02*
X14977000Y24278000D01*
X14977000Y24278000D02*
X18077000Y24278000D01*
X18077000Y27978000D02*
X18077000Y27478000D01*
X18077000Y27478000D02*
X14977000Y27478000D01*
X18077000Y24278000D02*
X18077000Y23778000D01*
X18077000Y23778000D02*
X14577000Y21078000D01*
D16*
%TO.C,R29*%
X10497500Y19274000D02*
X10497500Y18766000D01*
X9608500Y19274000D02*
X9608500Y18766000D01*
%TO.C,R30*%
X12212000Y17686500D02*
X12720000Y17686500D01*
X12212000Y16797500D02*
X12720000Y16797500D01*
D10*
%TO.C,C6*%
X9418000Y19528000D02*
X9418000Y18512000D01*
X7894000Y19528000D02*
X7894000Y18512000D01*
%TO.C,D3*%
X6584000Y19735000D02*
X1584000Y19735000D01*
X5214000Y17035000D02*
X5214000Y19735000D01*
X4774000Y17035000D02*
X4774000Y19735000D01*
X1584000Y17035000D02*
X6584000Y17035000D01*
%TO.C,USB-UART1*%
X76000Y7844000D02*
X76000Y15972000D01*
X147000Y15972000D02*
X1163000Y15591000D01*
X147000Y7844000D02*
X1163000Y8225000D01*
X1176000Y15608000D02*
X2076000Y15608000D01*
X1176000Y8208000D02*
X1176000Y15608000D01*
X2076000Y8208000D02*
X1176000Y8208000D01*
X5576000Y15608000D02*
X4576000Y15608000D01*
X5576000Y8208000D02*
X4576000Y8208000D01*
X7176000Y13908000D02*
X7176000Y14608000D01*
X7176000Y9208000D02*
X7176000Y9908000D01*
%TO.C,U7*%
X12985000Y18120000D02*
X11435000Y18119999D01*
X11435000Y19920001D02*
X12735000Y19920001D01*
D16*
%TO.C,R10*%
X21038500Y18893000D02*
X21038500Y18385000D01*
X20149500Y18893000D02*
X20149500Y18385000D01*
%TO.C,C11*%
X18435000Y20353500D02*
X18943000Y20353500D01*
X18435000Y19464500D02*
X18943000Y19464500D01*
%TO.C,R12*%
X22816500Y18893000D02*
X22816500Y18385000D01*
X21927500Y18893000D02*
X21927500Y18385000D01*
D10*
%TO.C,ACT1*%
X26601100Y18194500D02*
X26601100Y17369000D01*
X26448700Y17229300D02*
X26588400Y17356300D01*
X26448700Y18321500D02*
X26601100Y18194500D01*
D12*
X26436000Y17165800D02*
X25420000Y17165800D01*
D10*
X26436000Y17267400D02*
X26436000Y18308800D01*
D12*
X25420000Y18385000D02*
X26436000Y18385000D01*
D17*
X25216800Y17504400D02*
X25086800Y17394400D01*
D18*
X25139000Y17860000D02*
X25139000Y17640000D01*
D17*
X25085200Y17395400D02*
X25165200Y17405400D01*
X25085200Y17395400D02*
X25085200Y17475400D01*
X25009800Y17525400D02*
X24879800Y17415400D01*
D18*
X24949000Y17640000D02*
X25049000Y17740000D01*
X24949000Y17860000D02*
X25059000Y17760000D01*
X24949000Y17860000D02*
X24949000Y17640000D01*
D17*
X24869800Y17395400D02*
X24949800Y17405400D01*
X24869800Y17395400D02*
X24869800Y17475400D01*
D18*
X24779000Y17750000D02*
X25299000Y17750000D01*
D10*
%TO.C,LNK1*%
X26601100Y19718500D02*
X26601100Y18893000D01*
X26448700Y18753300D02*
X26588400Y18880300D01*
X26448700Y19845500D02*
X26601100Y19718500D01*
D12*
X26436000Y18689800D02*
X25420000Y18689800D01*
D10*
X26436000Y18791400D02*
X26436000Y19832800D01*
D12*
X25420000Y19909000D02*
X26436000Y19909000D01*
D17*
X25216800Y19028400D02*
X25086800Y18918400D01*
D18*
X25139000Y19384000D02*
X25139000Y19164000D01*
D17*
X25085200Y18919400D02*
X25165200Y18929400D01*
X25085200Y18919400D02*
X25085200Y18999400D01*
X25009800Y19049400D02*
X24879800Y18939400D01*
D18*
X24949000Y19164000D02*
X25049000Y19264000D01*
X24949000Y19384000D02*
X25059000Y19284000D01*
X24949000Y19384000D02*
X24949000Y19164000D01*
D17*
X24869800Y18919400D02*
X24949800Y18929400D01*
X24869800Y18919400D02*
X24869800Y18999400D01*
D18*
X24779000Y19274000D02*
X25299000Y19274000D01*
D16*
%TO.C,R11*%
X20022500Y18893000D02*
X20022500Y18385000D01*
X19133500Y18893000D02*
X19133500Y18385000D01*
D10*
%TO.C,BUT1*%
X26609000Y71663000D02*
G75*
G03*
X25009000Y71663000I-800000J-568550D01*
G01*
X25009001Y70263001D02*
G75*
G03*
X26608999Y70263001I799999J568548D01*
G01*
X26809000Y72963000D02*
X27306800Y72963000D01*
X24312000Y72963000D02*
X24809000Y72963000D01*
X27309000Y68963000D02*
X27309000Y72963000D01*
X26809000Y68963000D02*
X27306800Y68963000D01*
X24311200Y68963000D02*
X24809000Y68963000D01*
X24309000Y68963000D02*
X24309000Y72963000D01*
%TO.C,C24*%
X23692800Y34768000D02*
X24708800Y34768000D01*
X23692800Y33244000D02*
X24708800Y33244000D01*
%TO.C,U5*%
X12879000Y33665000D02*
X16879000Y33665000D01*
X12879000Y38665000D02*
X16879000Y38665000D01*
%TO.C,BAT1*%
X-5400Y5921220D02*
X-5400Y-126520D01*
X4510720Y5908520D02*
X17460Y5908520D01*
X4510720Y-126520D02*
X4510720Y5908520D01*
X-5400Y-126520D02*
X4510720Y-126520D01*
%TO.C,PWR1*%
X4376100Y7272500D02*
X4376100Y6447000D01*
X4223700Y6307300D02*
X4363400Y6434300D01*
X4223700Y7399500D02*
X4376100Y7272500D01*
D12*
X4211000Y6243800D02*
X3195000Y6243800D01*
D10*
X4211000Y6345400D02*
X4211000Y7386800D01*
D12*
X3195000Y7463000D02*
X4211000Y7463000D01*
D17*
X2991800Y6582400D02*
X2861800Y6472400D01*
D18*
X2914000Y6938000D02*
X2914000Y6718000D01*
D17*
X2860200Y6473400D02*
X2940200Y6483400D01*
X2860200Y6473400D02*
X2860200Y6553400D01*
X2784800Y6603400D02*
X2654800Y6493400D01*
D18*
X2724000Y6718000D02*
X2824000Y6818000D01*
X2724000Y6938000D02*
X2834000Y6838000D01*
X2724000Y6938000D02*
X2724000Y6718000D01*
D17*
X2644800Y6473400D02*
X2724800Y6483400D01*
X2644800Y6473400D02*
X2644800Y6553400D01*
D18*
X2554000Y6828000D02*
X3074000Y6828000D01*
D16*
%TO.C,C29*%
X10815000Y16797500D02*
X10307000Y16797500D01*
X10815000Y17686500D02*
X10307000Y17686500D01*
%TD*%
M02*
