M48
; DRILL file {KiCad 7.0.9-7.0.9~ubuntu22.04.1} date 21.02.2025 (пт) 13:43:44
; FORMAT={-:-/ absolute / metric / decimal}
; #@! TF.CreationDate,2025-02-21T13:43:44+02:00
; #@! TF.GenerationSoftware,Kicad,Pcbnew,7.0.9-7.0.9~ubuntu22.04.1
; #@! TF.FileFunction,Plated,1,4,PTH
FMAT,2
METRIC
; #@! TA.AperFunction,Plated,PTH,ViaDrill
T1C0.400
; #@! TA.AperFunction,Plated,PTH,ComponentDrill
T2C0.400
; #@! TA.AperFunction,Plated,PTH,ViaDrill
T3C0.500
; #@! TA.AperFunction,Plated,PTH,ViaDrill
T4C0.600
; #@! TA.AperFunction,Plated,PTH,ComponentDrill
T5C0.600
; #@! TA.AperFunction,Plated,PTH,ComponentDrill
T6C0.900
; #@! TA.AperFunction,Plated,PTH,ComponentDrill
T7C1.000
; #@! TA.AperFunction,Plated,PTH,ComponentDrill
T8C1.200
; #@! TA.AperFunction,Plated,PTH,ComponentDrill
T9C1.300
%
G90
G05
T1
X0.909Y66.137
X0.909Y6.193
X0.909Y5.177
X1.036Y69.947
X1.29Y19.909
X1.417Y75.027
X1.68Y4.42
X1.798Y62.432
X1.798Y49.627
X2.039Y27.852
X2.052Y69.668
X2.179Y74.138
X2.433Y11.4
X2.484Y60.752
X2.941Y24.227
X3.068Y67.026
X3.463Y17.007
X3.703Y72.233
X3.957Y73.249
X3.957Y65.883
X3.957Y64.867
X3.957Y59.787
X3.957Y18.766
X4.084Y62.327
X4.096Y76.226
X4.119Y17.663
X4.465Y22.576
X4.719Y32.66
X5.227Y31.847
X5.314Y6.599
X5.735Y32.682
X5.735Y21.941
X6.116Y48.865
X6.497Y38.705
X6.497Y22.576
X6.751Y32.736
X7.005Y75.916
X7.005Y73.884
X7.005Y71.598
X7.079Y66.893
X7.132Y68.677
X7.38Y59.818
X7.384Y66.01
X7.675Y56.266
X7.767Y44.547
X7.849Y73.291
X7.856Y74.537
X8.016Y67.265
X8.037Y20.925
X8.257Y68.568
X8.275Y69.566
X8.523Y11.143
X8.529Y77.567
X8.765Y56.894
X8.91Y22.576
X9.022Y67.138
X9.21Y74.829
X9.617Y56.879
X9.799Y17.877
X10.037Y54.754
X10.053Y22.83
X10.226Y66.131
X10.307Y53.945
X10.307Y21.3
X10.409Y41.982
X10.463Y64.586
X10.469Y56.865
X10.561Y53.056
X10.688Y63.216
X11.175Y67.039
X11.196Y52.421
X11.278Y55.088
X11.278Y55.94
X11.322Y56.874
X11.323Y21.052
X11.873Y66.549
X11.958Y64.486
X12.085Y21.687
X12.212Y16.302
X12.339Y28.799
X12.339Y20.798
X12.593Y54.072
X12.593Y53.056
X12.974Y52.04
X12.987Y41.596
X13.101Y49.881
X13.355Y56.955
X13.863Y53.564
X13.863Y33.879
X13.99Y38.197
X14.117Y62.962
X14.117Y52.167
X14.371Y23.846
X14.752Y22.322
X14.879Y38.197
X14.879Y33.879
X15.387Y41.245
X15.693Y62.962
X15.697Y47.214
X15.768Y38.197
X15.768Y22.195
X15.895Y33.879
X15.895Y16.353
X16.149Y46.071
X16.657Y65.431
X16.784Y31.212
X17.493Y16.709
X18.054Y44.547
X18.206Y18.995
X18.445Y16.681
X19.07Y45.182
X19.34Y67.082
X19.578Y17.369
X19.832Y57.12
X19.857Y25.065
X20.455Y60.688
X20.467Y17.369
X20.594Y49.119
X20.721Y63.47
X20.721Y62.454
X20.848Y71.471
X20.975Y67.082
X21.102Y75.027
X21.102Y72.487
X21.169Y73.824
X21.28Y17.064
X21.483Y34.895
X22.245Y16.988
X22.931Y35.505
X23.36Y18.9
X24.023Y62.2
X24.023Y61.184
X24.023Y21.814
X24.051Y68.014
X24.079Y68.917
X24.15Y71.852
X24.404Y63.597
X24.404Y48.865
X24.658Y69.693
X24.658Y16.226
X24.792Y65.248
X24.912Y66.456
X24.94Y18.667
X25.039Y20.036
X25.293Y58.644
X25.476Y68.042
X25.674Y60.041
X25.801Y76.424
X25.801Y62.037
X26.182Y55.596
X27.071Y50.008
X27.079Y66.772
X27.126Y65.757
T2
X19.294Y21.806
X19.294Y20.806
X20.094Y22.606
X20.094Y20.006
X21.094Y22.606
X21.094Y20.006
X21.894Y21.806
X21.894Y20.806
T3
X3.703Y32.736
X15.641Y31.085
X17.673Y47.722
T4
X1.163Y55.596
X1.29Y22.322
X1.29Y21.052
X3.83Y78.837
X3.83Y77.611
X4.719Y46.96
X5.1Y10.892
X5.608Y20.925
X6.37Y46.833
X6.37Y14.194
X7.005Y77.572
X7.132Y78.842
X7.386Y14.194
X7.513Y62.454
X7.942Y40.717
X8.181Y9.94
X8.181Y8.987
X8.91Y28.799
X9.164Y30.45
X9.545Y16.353
X10.815Y74.392
X10.815Y39.086
X11.831Y39.086
X11.958Y1.367
X12.085Y78.837
X12.085Y74.392
X12.339Y25.116
X12.339Y23.846
X12.339Y22.83
X13.355Y74.392
X13.482Y8.204
X13.863Y3.018
X13.99Y25.243
X14.625Y78.837
X14.625Y74.392
X15.006Y55.85
X15.133Y39.543
X15.133Y1.367
X15.768Y5.304
X16.022Y55.85
X16.149Y74.265
X16.149Y72.995
X16.149Y71.725
X16.149Y70.455
X16.784Y3.018
X17.165Y78.837
X17.419Y74.265
X17.419Y72.995
X17.419Y71.725
X17.419Y70.455
X18.054Y5.304
X18.054Y1.367
X18.689Y72.995
X18.689Y71.725
X18.689Y70.455
X19.07Y78.837
X19.451Y3.018
X20.34Y53.564
X20.34Y52.548
X20.34Y51.532
X20.467Y34.768
X20.594Y47.976
X20.594Y46.96
X20.721Y5.304
X20.848Y65.248
X20.848Y1.367
X20.934Y27.11
X20.975Y78.837
X21.229Y10.13
X21.991Y44.801
X21.991Y43.785
X21.991Y42.769
X22.245Y10.13
X22.372Y3.018
X23.261Y29.942
X23.261Y28.926
X24.15Y78.837
T5
X11.19Y73.132
X11.19Y71.332
X11.19Y69.532
X12.99Y73.132
X12.99Y69.532
X14.79Y73.132
X14.79Y71.332
X14.79Y69.532
T6
X2.921Y3.92
X2.923Y1.89
X5.608Y36.78
X5.608Y34.28
X20.741Y37.816
X23.241Y37.816
T7
X1.29Y46.93
X1.29Y44.39
X1.29Y41.85
X1.29Y39.31
X1.29Y36.77
X1.29Y34.23
X1.29Y31.69
X1.29Y29.15
X1.29Y26.61
X1.29Y24.07
X12.466Y14.344
X13.736Y11.804
X15.006Y14.344
X16.276Y11.804
X17.546Y14.344
X18.816Y11.804
X20.086Y14.344
X21.356Y11.804
X22.626Y14.344
X23.896Y11.804
X26.69Y46.93
X26.69Y44.39
X26.69Y41.85
X26.69Y39.31
X26.69Y36.77
X26.69Y34.23
X26.69Y31.69
X26.69Y29.15
X26.69Y26.61
X26.69Y24.07
T8
X14.879Y36.165
X17.8Y51.913
X20.594Y21.306
T9
X12.99Y71.332
T5
G00X3.626Y15.508
M15
G01X3.026Y15.508
M16
G05
G00X3.626Y8.308
M15
G01X3.026Y8.308
M16
G05
G00X7.096Y15.508
M15
G01X6.496Y15.508
M16
G05
G00X7.096Y8.308
M15
G01X6.496Y8.308
M16
G05
G00X10.381Y8.904
M15
G01X10.381Y7.504
M16
G05
G00X25.981Y8.904
M15
G01X25.981Y7.504
M16
G05
T0
M30
