G04 #@! TF.GenerationSoftware,KiCad,Pcbnew,5.1.6-c6e7f7d~87~ubuntu18.04.1*
G04 #@! TF.CreationDate,2022-10-06T15:06:41+03:00*
G04 #@! TF.ProjectId,ESP32-PoE_Rev_L,45535033-322d-4506-9f45-5f5265765f4c,L*
G04 #@! TF.SameCoordinates,Original*
G04 #@! TF.FileFunction,Paste,Bot*
G04 #@! TF.FilePolarity,Positive*
%FSLAX46Y46*%
G04 Gerber Fmt 4.6, Leading zero omitted, Abs format (unit mm)*
G04 Created by KiCad (PCBNEW 5.1.6-c6e7f7d~87~ubuntu18.04.1) date 2022-10-06 15:06:41*
%MOMM*%
%LPD*%
G01*
G04 APERTURE LIST*
%ADD10C,0.200000*%
%ADD11R,0.500000X0.550000*%
%ADD12R,1.016000X1.016000*%
%ADD13R,3.654001X1.454000*%
%ADD14R,1.524000X1.270000*%
%ADD15R,1.400000X1.000000*%
%ADD16R,1.200000X0.550000*%
%ADD17R,1.000000X1.400000*%
%ADD18R,0.230000X0.780000*%
%ADD19R,0.780000X0.230000*%
%ADD20R,1.270000X1.524000*%
%ADD21R,0.550000X0.500000*%
%ADD22C,0.100000*%
%ADD23R,1.270000X0.325000*%
%ADD24R,1.700000X2.000000*%
%ADD25R,1.016000X1.778000*%
%ADD26R,0.500000X1.000000*%
%ADD27R,1.754000X1.454000*%
%ADD28R,1.016000X0.381000*%
%ADD29R,1.016000X0.635000*%
%ADD30R,0.381000X1.016000*%
%ADD31R,0.635000X1.016000*%
%ADD32R,1.400000X1.200000*%
%ADD33R,1.778000X1.524000*%
%ADD34R,0.600000X1.600000*%
G04 APERTURE END LIST*
D10*
X112344000Y-149644000D02*
X112344000Y-150444000D01*
X111544000Y-149644000D02*
X112344000Y-149644000D01*
X111544000Y-150444000D02*
X111544000Y-149644000D01*
X112344000Y-150444000D02*
X111544000Y-150444000D01*
X112344000Y-150344000D02*
X111544000Y-150344000D01*
X112344000Y-150244000D02*
X111544000Y-150244000D01*
X112344000Y-150144000D02*
X111544000Y-150144000D01*
X112344000Y-150044000D02*
X111544000Y-150044000D01*
X112344000Y-149944000D02*
X111544000Y-149944000D01*
X112344000Y-149844000D02*
X111544000Y-149844000D01*
X112344000Y-149744000D02*
X111544000Y-149744000D01*
X109944000Y-149744000D02*
X109144000Y-149744000D01*
X109944000Y-149844000D02*
X109144000Y-149844000D01*
X109944000Y-149944000D02*
X109144000Y-149944000D01*
X109944000Y-150044000D02*
X109144000Y-150044000D01*
X109944000Y-150144000D02*
X109144000Y-150144000D01*
X109944000Y-150244000D02*
X109144000Y-150244000D01*
X109944000Y-150344000D02*
X109144000Y-150344000D01*
X109944000Y-150444000D02*
X109144000Y-150444000D01*
X109144000Y-150444000D02*
X109144000Y-149644000D01*
X109144000Y-149644000D02*
X109944000Y-149644000D01*
X109944000Y-149644000D02*
X109944000Y-150444000D01*
X112344000Y-147344000D02*
X111544000Y-147344000D01*
X112344000Y-147444000D02*
X111544000Y-147444000D01*
X112344000Y-147544000D02*
X111544000Y-147544000D01*
X112344000Y-147644000D02*
X111544000Y-147644000D01*
X112344000Y-147744000D02*
X111544000Y-147744000D01*
X112344000Y-147844000D02*
X111544000Y-147844000D01*
X112344000Y-147944000D02*
X111544000Y-147944000D01*
X112344000Y-148044000D02*
X111544000Y-148044000D01*
X111544000Y-148044000D02*
X111544000Y-147244000D01*
X111544000Y-147244000D02*
X112344000Y-147244000D01*
X112344000Y-147244000D02*
X112344000Y-148044000D01*
X109944000Y-147244000D02*
X109944000Y-148044000D01*
X109144000Y-147244000D02*
X109944000Y-147244000D01*
X109144000Y-148044000D02*
X109144000Y-147244000D01*
X109944000Y-148044000D02*
X109144000Y-148044000D01*
X109944000Y-147944000D02*
X109144000Y-147944000D01*
X109944000Y-147844000D02*
X109144000Y-147844000D01*
X109944000Y-147744000D02*
X109144000Y-147744000D01*
X109944000Y-147644000D02*
X109144000Y-147644000D01*
X109944000Y-147544000D02*
X109144000Y-147544000D01*
X109944000Y-147444000D02*
X109144000Y-147444000D01*
X109944000Y-147344000D02*
X109144000Y-147344000D01*
X110544000Y-150444000D02*
X110944000Y-150444000D01*
X110544000Y-149644000D02*
X110544000Y-150444000D01*
X110944000Y-149644000D02*
X110544000Y-149644000D01*
X110944000Y-150444000D02*
X110944000Y-149644000D01*
X110844000Y-150444000D02*
X110844000Y-149644000D01*
X110744000Y-150444000D02*
X110744000Y-149644000D01*
X110644000Y-150444000D02*
X110644000Y-149644000D01*
X110644000Y-148044000D02*
X110644000Y-147244000D01*
X110744000Y-148044000D02*
X110744000Y-147244000D01*
X110844000Y-148044000D02*
X110844000Y-147244000D01*
X110944000Y-148044000D02*
X110944000Y-147244000D01*
X110944000Y-147244000D02*
X110544000Y-147244000D01*
X110544000Y-147244000D02*
X110544000Y-148044000D01*
X110544000Y-148044000D02*
X110944000Y-148044000D01*
X112344000Y-148644000D02*
X112344000Y-149044000D01*
X111544000Y-148644000D02*
X112344000Y-148644000D01*
X111544000Y-149044000D02*
X111544000Y-148644000D01*
X112344000Y-149044000D02*
X111544000Y-149044000D01*
X112344000Y-148944000D02*
X111544000Y-148944000D01*
X111544000Y-148844000D02*
X112344000Y-148844000D01*
X112344000Y-148744000D02*
X111544000Y-148744000D01*
X109944000Y-148744000D02*
X109144000Y-148744000D01*
X109144000Y-148844000D02*
X109944000Y-148844000D01*
X109944000Y-148944000D02*
X109144000Y-148944000D01*
X109944000Y-149044000D02*
X109144000Y-149044000D01*
X109144000Y-149044000D02*
X109144000Y-148644000D01*
X109144000Y-148644000D02*
X109944000Y-148644000D01*
X109944000Y-148644000D02*
X109944000Y-149044000D01*
D11*
X105918000Y-123952000D03*
X106934000Y-123952000D03*
D12*
X113157000Y-137287000D03*
X113157000Y-135509000D03*
D13*
X112141000Y-124205200D03*
X112141000Y-130505200D03*
D14*
X96139000Y-157353000D03*
X98171000Y-157353000D03*
D15*
X92329000Y-156723000D03*
X92329000Y-160523000D03*
D16*
X105126000Y-154559000D03*
X105126000Y-153609000D03*
X105126000Y-152659000D03*
X107726000Y-154559000D03*
X107726000Y-152659000D03*
D11*
X112395000Y-153797000D03*
X111379000Y-153797000D03*
D15*
X103124000Y-115067000D03*
X103124000Y-118867000D03*
D12*
X98171000Y-153289000D03*
X99949000Y-153289000D03*
D17*
X102237540Y-127548640D03*
X101282500Y-129758440D03*
X103184960Y-129758440D03*
X98933000Y-124714000D03*
X97977960Y-126923800D03*
X99880420Y-126923800D03*
X94554040Y-109128560D03*
X96456500Y-109128560D03*
X95501460Y-111338360D03*
D14*
X103124000Y-112268000D03*
X105156000Y-112268000D03*
D17*
X103825040Y-140116560D03*
X105727500Y-140116560D03*
X104772460Y-142326360D03*
D18*
X108994000Y-151294000D03*
X109494000Y-151294000D03*
X109994000Y-151294000D03*
X110494000Y-151294000D03*
X110994000Y-151294000D03*
X111494000Y-151294000D03*
X111994000Y-151294000D03*
X112494000Y-151294000D03*
D19*
X113194000Y-150594000D03*
X113194000Y-150094000D03*
X113194000Y-149594000D03*
X113194000Y-149094000D03*
X113194000Y-148594000D03*
X113194000Y-148094000D03*
X113194000Y-147594000D03*
X113194000Y-147094000D03*
D18*
X112494000Y-146394000D03*
X111994000Y-146394000D03*
X111494000Y-146394000D03*
X110994000Y-146394000D03*
X110494000Y-146394000D03*
X109994000Y-146394000D03*
X109494000Y-146394000D03*
X108994000Y-146394000D03*
D19*
X108294000Y-147094000D03*
X108294000Y-147594000D03*
X108294000Y-148094000D03*
X108294000Y-148594000D03*
X108294000Y-149094000D03*
X108294000Y-149594000D03*
X108294000Y-150094000D03*
X108294000Y-150594000D03*
D11*
X103632000Y-150749000D03*
X102616000Y-150749000D03*
D12*
X102870000Y-152146000D03*
X101092000Y-152146000D03*
D11*
X91821000Y-168275000D03*
X90805000Y-168275000D03*
X90805000Y-167259000D03*
X91821000Y-167259000D03*
D15*
X94361000Y-160523000D03*
X94361000Y-156723000D03*
D11*
X91821000Y-169291000D03*
X90805000Y-169291000D03*
X93091000Y-96012000D03*
X94107000Y-96012000D03*
X97282000Y-164465000D03*
X96266000Y-164465000D03*
D16*
X92299000Y-164907000D03*
X92299000Y-163957000D03*
X92299000Y-163007000D03*
X94899000Y-164907000D03*
X94899000Y-163007000D03*
D11*
X96012000Y-121539000D03*
X97028000Y-121539000D03*
D12*
X103886000Y-138176000D03*
X105664000Y-138176000D03*
D20*
X103124000Y-110363000D03*
X105156000Y-110363000D03*
D21*
X110998000Y-143764000D03*
X110998000Y-144780000D03*
D11*
X105791000Y-146939000D03*
X106807000Y-146939000D03*
D21*
X113284000Y-152146000D03*
X113284000Y-153162000D03*
X92583000Y-104267000D03*
X92583000Y-105283000D03*
X111760000Y-108585000D03*
X111760000Y-109601000D03*
X104267000Y-121158000D03*
X104267000Y-120142000D03*
D22*
G36*
X106840811Y-150774902D02*
G01*
X106451902Y-151163811D01*
X106098349Y-150810258D01*
X106487258Y-150421349D01*
X106840811Y-150774902D01*
G37*
G36*
X106816769Y-151528678D02*
G01*
X107205678Y-151139769D01*
X107559231Y-151493322D01*
X107170322Y-151882231D01*
X106816769Y-151528678D01*
G37*
D21*
X116459000Y-151257000D03*
X116459000Y-152273000D03*
D11*
X115443000Y-152146000D03*
X114427000Y-152146000D03*
X97028000Y-122428000D03*
X96012000Y-122428000D03*
X91948000Y-121158000D03*
X90932000Y-121158000D03*
X91313000Y-148209000D03*
X92329000Y-148209000D03*
X91313000Y-149606000D03*
X92329000Y-149606000D03*
D12*
X98171000Y-163195000D03*
X96393000Y-163195000D03*
D23*
X93916500Y-150880000D03*
X93916500Y-150230000D03*
X93916500Y-149580000D03*
X93916500Y-148930000D03*
X93916500Y-148280000D03*
X93916500Y-147630000D03*
X93916500Y-146980000D03*
X93916500Y-146330000D03*
X93916500Y-145680000D03*
X93916500Y-145030000D03*
X101155500Y-145030000D03*
X101155500Y-145680000D03*
X101155500Y-146330000D03*
X101155500Y-146980000D03*
X101155500Y-147630000D03*
X101155500Y-148280000D03*
X101155500Y-148930000D03*
X101155500Y-149580000D03*
X101155500Y-150230000D03*
X101155500Y-150880000D03*
D24*
X95250000Y-126151000D03*
X95250000Y-131151000D03*
D25*
X100838000Y-159512000D03*
X97282000Y-159512000D03*
D26*
X100290000Y-102237000D03*
X101390000Y-102237000D03*
X102490000Y-102237000D03*
X103590000Y-102237000D03*
X104340000Y-102237000D03*
X105040000Y-102237000D03*
X105790000Y-102237000D03*
X106890000Y-102237000D03*
X107990000Y-102237000D03*
D27*
X109440000Y-103987000D03*
X98840000Y-103987000D03*
X109440000Y-108437000D03*
X98840000Y-108437000D03*
D12*
X105537000Y-145542000D03*
X107315000Y-145542000D03*
X105791000Y-144018000D03*
X104013000Y-144018000D03*
D28*
X107188000Y-141351000D03*
X107188000Y-142113000D03*
X108712000Y-141351000D03*
X108712000Y-142113000D03*
D29*
X107188000Y-140462000D03*
X108712000Y-140462000D03*
X107188000Y-143002000D03*
X108712000Y-143002000D03*
D30*
X100584000Y-110871000D03*
X99822000Y-110871000D03*
X100584000Y-112395000D03*
X99822000Y-112395000D03*
D31*
X101473000Y-110871000D03*
X101473000Y-112395000D03*
X98933000Y-110871000D03*
X98933000Y-112395000D03*
D14*
X104140000Y-149479000D03*
X106172000Y-149479000D03*
D11*
X93345000Y-143129000D03*
X94361000Y-143129000D03*
X103632000Y-114046000D03*
X102616000Y-114046000D03*
X99568000Y-128270000D03*
X98552000Y-128270000D03*
D21*
X101092000Y-126238000D03*
X101092000Y-127254000D03*
D30*
X108458000Y-110871000D03*
X107696000Y-110871000D03*
X108458000Y-112395000D03*
X107696000Y-112395000D03*
D31*
X109347000Y-110871000D03*
X109347000Y-112395000D03*
X106807000Y-110871000D03*
X106807000Y-112395000D03*
D11*
X96012000Y-138684000D03*
X97028000Y-138684000D03*
D32*
X95969000Y-140043000D03*
X93769000Y-141643000D03*
X93769000Y-140043000D03*
X95969000Y-141643000D03*
D12*
X92710000Y-94742000D03*
X94488000Y-94742000D03*
D11*
X110490000Y-153797000D03*
X109474000Y-153797000D03*
D24*
X116205000Y-153964000D03*
X116205000Y-158964000D03*
D11*
X108204000Y-114935000D03*
X109220000Y-114935000D03*
D21*
X105664000Y-114173000D03*
X105664000Y-115189000D03*
X106934000Y-114173000D03*
X106934000Y-115189000D03*
D33*
X111125000Y-136652000D03*
X111125000Y-133858000D03*
D12*
X109347000Y-127000000D03*
X109347000Y-125222000D03*
D21*
X111887000Y-144780000D03*
X111887000Y-143764000D03*
D12*
X114300000Y-138684000D03*
X112522000Y-138684000D03*
D11*
X114173000Y-108077000D03*
X115189000Y-108077000D03*
D21*
X96139000Y-101473000D03*
X96139000Y-102489000D03*
D16*
X115980999Y-105222000D03*
X115980999Y-107122000D03*
X113380999Y-105222000D03*
X113380999Y-106172000D03*
X113380999Y-107122000D03*
D21*
X110744000Y-118999000D03*
X110744000Y-120015000D03*
D34*
X105664000Y-116807000D03*
X106934000Y-116807000D03*
X108204000Y-116807000D03*
X109474000Y-116807000D03*
X109474000Y-122207000D03*
X108204000Y-122207000D03*
X106934000Y-122207000D03*
X105664000Y-122207000D03*
M02*
