G04 #@! TF.GenerationSoftware,KiCad,Pcbnew,5.1.6-c6e7f7d~87~ubuntu18.04.1*
G04 #@! TF.CreationDate,2022-10-06T15:06:41+03:00*
G04 #@! TF.ProjectId,ESP32-PoE_Rev_L,45535033-322d-4506-9f45-5f5265765f4c,L*
G04 #@! TF.SameCoordinates,Original*
G04 #@! TF.FileFunction,Soldermask,Bot*
G04 #@! TF.FilePolarity,Negative*
%FSLAX46Y46*%
G04 Gerber Fmt 4.6, Leading zero omitted, Abs format (unit mm)*
G04 Created by KiCad (PCBNEW 5.1.6-c6e7f7d~87~ubuntu18.04.1) date 2022-10-06 15:06:41*
%MOMM*%
%LPD*%
G01*
G04 APERTURE LIST*
%ADD10R,0.601600X0.651600*%
%ADD11R,1.117600X1.117600*%
%ADD12R,3.501601X1.301600*%
%ADD13R,1.625600X1.625600*%
%ADD14C,1.625600*%
%ADD15R,1.625600X1.371600*%
%ADD16R,1.501600X1.101600*%
%ADD17R,1.301600X0.651600*%
%ADD18C,0.801600*%
%ADD19R,1.101600X1.501600*%
%ADD20O,1.701600X3.101599*%
%ADD21C,3.401601*%
%ADD22R,3.701600X3.701600*%
%ADD23R,0.501600X0.501600*%
%ADD24R,1.524000X1.524000*%
%ADD25R,0.351600X0.901600*%
%ADD26R,0.901600X0.351600*%
%ADD27R,1.371600X1.625600*%
%ADD28C,1.254000*%
%ADD29R,0.651600X0.601600*%
%ADD30C,0.100000*%
%ADD31C,1.879600*%
%ADD32R,1.879600X1.879600*%
%ADD33R,1.371600X0.426600*%
%ADD34R,1.801600X2.101600*%
%ADD35R,1.117600X1.879600*%
%ADD36R,0.601600X1.101600*%
%ADD37R,1.601600X1.301600*%
%ADD38C,0.701600*%
%ADD39O,1.901600X1.301600*%
%ADD40R,1.117600X0.482600*%
%ADD41R,1.117600X0.736600*%
%ADD42R,0.482600X1.117600*%
%ADD43R,0.736600X1.117600*%
%ADD44C,1.301600*%
%ADD45R,1.501600X1.301600*%
%ADD46R,0.863600X0.609600*%
%ADD47R,1.879600X1.625600*%
%ADD48C,1.901600*%
%ADD49C,1.601600*%
%ADD50C,2.301600*%
%ADD51R,1.501600X1.501600*%
%ADD52C,1.501600*%
%ADD53R,0.701600X1.701600*%
%ADD54C,0.254000*%
G04 APERTURE END LIST*
D10*
X105918000Y-123952000D03*
X106934000Y-123952000D03*
D11*
X113157000Y-137287000D03*
X113157000Y-135509000D03*
D12*
X112141000Y-124205200D03*
X112141000Y-130505200D03*
D13*
X113391000Y-132334000D03*
D14*
X110891000Y-132334000D03*
D15*
X96139000Y-157353000D03*
X98171000Y-157353000D03*
D16*
X92329000Y-156723000D03*
X92329000Y-160523000D03*
D17*
X105126000Y-154559000D03*
X105126000Y-153609000D03*
X105126000Y-152659000D03*
X107726000Y-154559000D03*
X107726000Y-152659000D03*
D10*
X112395000Y-153797000D03*
X111379000Y-153797000D03*
D16*
X103124000Y-115067000D03*
X103124000Y-118867000D03*
D18*
X115059000Y-99187000D03*
X116859000Y-99187000D03*
X91421000Y-99187000D03*
X93221000Y-99187000D03*
D11*
X98171000Y-153289000D03*
X99949000Y-153289000D03*
D19*
X102237540Y-127548640D03*
X101282500Y-129758440D03*
X103184960Y-129758440D03*
X98933000Y-124714000D03*
X97977960Y-126923800D03*
X99880420Y-126923800D03*
X94554040Y-109128560D03*
X96456500Y-109128560D03*
X95501460Y-111338360D03*
D15*
X103124000Y-112268000D03*
X105156000Y-112268000D03*
D19*
X103825040Y-140116560D03*
X105727500Y-140116560D03*
X104772460Y-142326360D03*
D14*
X102616000Y-155806000D03*
X103886000Y-158346000D03*
X105156000Y-155806000D03*
X106426000Y-158346000D03*
X107696000Y-155806000D03*
X108966000Y-158346000D03*
X110236000Y-155806000D03*
X111506000Y-158346000D03*
X112776000Y-155806000D03*
X114046000Y-158346000D03*
D20*
X100531000Y-161946000D03*
X116131000Y-161946000D03*
D21*
X102616000Y-164996000D03*
X114046000Y-164996000D03*
D22*
X110744000Y-148844000D03*
D23*
X112044000Y-149344000D03*
X112044000Y-148344000D03*
X111244000Y-147544000D03*
X110244000Y-147544000D03*
X109444000Y-148344000D03*
X109444000Y-149344000D03*
X110244000Y-150144000D03*
X111244000Y-150144000D03*
D24*
X110744000Y-148844000D03*
D25*
X108994000Y-151294000D03*
X109494000Y-151294000D03*
X109994000Y-151294000D03*
X110494000Y-151294000D03*
X110994000Y-151294000D03*
X111494000Y-151294000D03*
X111994000Y-151294000D03*
X112494000Y-151294000D03*
D26*
X113194000Y-150594000D03*
X113194000Y-150094000D03*
X113194000Y-149594000D03*
X113194000Y-149094000D03*
X113194000Y-148594000D03*
X113194000Y-148094000D03*
X113194000Y-147594000D03*
X113194000Y-147094000D03*
D25*
X112494000Y-146394000D03*
X111994000Y-146394000D03*
X111494000Y-146394000D03*
X110994000Y-146394000D03*
X110494000Y-146394000D03*
X109994000Y-146394000D03*
X109494000Y-146394000D03*
X108994000Y-146394000D03*
D26*
X108294000Y-147094000D03*
X108294000Y-147594000D03*
X108294000Y-148094000D03*
X108294000Y-148594000D03*
X108294000Y-149094000D03*
X108294000Y-149594000D03*
X108294000Y-150094000D03*
X108294000Y-150594000D03*
D10*
X103632000Y-150749000D03*
X102616000Y-150749000D03*
D11*
X102870000Y-152146000D03*
X101092000Y-152146000D03*
D10*
X91821000Y-168275000D03*
X90805000Y-168275000D03*
X90805000Y-167259000D03*
X91821000Y-167259000D03*
D16*
X94361000Y-160523000D03*
X94361000Y-156723000D03*
D10*
X91821000Y-169291000D03*
X90805000Y-169291000D03*
X93091000Y-96012000D03*
X94107000Y-96012000D03*
X97282000Y-164465000D03*
X96266000Y-164465000D03*
D17*
X92299000Y-164907000D03*
X92299000Y-163957000D03*
X92299000Y-163007000D03*
X94899000Y-164907000D03*
X94899000Y-163007000D03*
D10*
X96012000Y-121539000D03*
X97028000Y-121539000D03*
D11*
X103886000Y-138176000D03*
X105664000Y-138176000D03*
D27*
X103124000Y-110363000D03*
X105156000Y-110363000D03*
D28*
X116586000Y-168529000D03*
X116459000Y-91440000D03*
X91821000Y-91440000D03*
D29*
X110998000Y-143764000D03*
X110998000Y-144780000D03*
D10*
X105791000Y-146939000D03*
X106807000Y-146939000D03*
D29*
X113284000Y-152146000D03*
X113284000Y-153162000D03*
X92583000Y-104267000D03*
X92583000Y-105283000D03*
X111760000Y-108585000D03*
X111760000Y-109601000D03*
X104267000Y-121158000D03*
X104267000Y-120142000D03*
D30*
G36*
X106912653Y-150774902D02*
G01*
X106451902Y-151235653D01*
X106026507Y-150810258D01*
X106487258Y-150349507D01*
X106912653Y-150774902D01*
G37*
G36*
X106744927Y-151528678D02*
G01*
X107205678Y-151067927D01*
X107631073Y-151493322D01*
X107170322Y-151954073D01*
X106744927Y-151528678D01*
G37*
D29*
X116459000Y-151257000D03*
X116459000Y-152273000D03*
D10*
X115443000Y-152146000D03*
X114427000Y-152146000D03*
X97028000Y-122428000D03*
X96012000Y-122428000D03*
X91948000Y-121158000D03*
X90932000Y-121158000D03*
X91313000Y-148209000D03*
X92329000Y-148209000D03*
X91313000Y-149606000D03*
X92329000Y-149606000D03*
D31*
X116840000Y-130840000D03*
X116840000Y-128300000D03*
X116840000Y-125760000D03*
D32*
X116840000Y-123220000D03*
D31*
X116840000Y-133380000D03*
X116840000Y-135920000D03*
X116840000Y-141000000D03*
X116840000Y-138460000D03*
X116840000Y-143540000D03*
X116840000Y-146080000D03*
X91440000Y-130840000D03*
X91440000Y-128300000D03*
X91440000Y-125760000D03*
D32*
X91440000Y-123220000D03*
D31*
X91440000Y-133380000D03*
X91440000Y-135920000D03*
X91440000Y-141000000D03*
X91440000Y-138460000D03*
X91440000Y-143540000D03*
X91440000Y-146080000D03*
D11*
X98171000Y-163195000D03*
X96393000Y-163195000D03*
D33*
X93916500Y-150880000D03*
X93916500Y-150230000D03*
X93916500Y-149580000D03*
X93916500Y-148930000D03*
X93916500Y-148280000D03*
X93916500Y-147630000D03*
X93916500Y-146980000D03*
X93916500Y-146330000D03*
X93916500Y-145680000D03*
X93916500Y-145030000D03*
X101155500Y-145030000D03*
X101155500Y-145680000D03*
X101155500Y-146330000D03*
X101155500Y-146980000D03*
X101155500Y-147630000D03*
X101155500Y-148280000D03*
X101155500Y-148930000D03*
X101155500Y-149580000D03*
X101155500Y-150230000D03*
X101155500Y-150880000D03*
D34*
X95250000Y-126151000D03*
X95250000Y-131151000D03*
D35*
X100838000Y-159512000D03*
X97282000Y-159512000D03*
D36*
X100290000Y-102237000D03*
X101390000Y-102237000D03*
X102490000Y-102237000D03*
X103590000Y-102237000D03*
X104340000Y-102237000D03*
X105040000Y-102237000D03*
X105790000Y-102237000D03*
X106890000Y-102237000D03*
X107990000Y-102237000D03*
D37*
X109440000Y-103987000D03*
X98840000Y-103987000D03*
X109440000Y-108437000D03*
X98840000Y-108437000D03*
D11*
X105537000Y-145542000D03*
X107315000Y-145542000D03*
X105791000Y-144018000D03*
X104013000Y-144018000D03*
D38*
X95626000Y-156242000D03*
X95626000Y-160242000D03*
D39*
X93476000Y-154642000D03*
X96946000Y-154642000D03*
X96946000Y-161842000D03*
X93476000Y-161842000D03*
D40*
X107188000Y-141351000D03*
X107188000Y-142113000D03*
X108712000Y-141351000D03*
X108712000Y-142113000D03*
D41*
X107188000Y-140462000D03*
X108712000Y-140462000D03*
X107188000Y-143002000D03*
X108712000Y-143002000D03*
D42*
X100584000Y-110871000D03*
X99822000Y-110871000D03*
X100584000Y-112395000D03*
X99822000Y-112395000D03*
D43*
X101473000Y-110871000D03*
X101473000Y-112395000D03*
X98933000Y-110871000D03*
X98933000Y-112395000D03*
D15*
X104140000Y-149479000D03*
X106172000Y-149479000D03*
D10*
X93345000Y-143129000D03*
X94361000Y-143129000D03*
X103632000Y-114046000D03*
X102616000Y-114046000D03*
X99568000Y-128270000D03*
X98552000Y-128270000D03*
D29*
X101092000Y-126238000D03*
X101092000Y-127254000D03*
D42*
X108458000Y-110871000D03*
X107696000Y-110871000D03*
X108458000Y-112395000D03*
X107696000Y-112395000D03*
D43*
X109347000Y-110871000D03*
X109347000Y-112395000D03*
X106807000Y-110871000D03*
X106807000Y-112395000D03*
D44*
X107950000Y-124333000D03*
X100330000Y-124333000D03*
D10*
X96012000Y-138684000D03*
X97028000Y-138684000D03*
D45*
X95969000Y-140043000D03*
X93769000Y-141643000D03*
X93769000Y-140043000D03*
X95969000Y-141643000D03*
D46*
X90932000Y-166370000D03*
X90932000Y-165608000D03*
D11*
X92710000Y-94742000D03*
X94488000Y-94742000D03*
D10*
X110490000Y-153797000D03*
X109474000Y-153797000D03*
D34*
X116205000Y-153964000D03*
X116205000Y-158964000D03*
D10*
X108204000Y-114935000D03*
X109220000Y-114935000D03*
D29*
X105664000Y-114173000D03*
X105664000Y-115189000D03*
X106934000Y-114173000D03*
X106934000Y-115189000D03*
D47*
X111125000Y-136652000D03*
X111125000Y-133858000D03*
D48*
X105029000Y-133985000D03*
D14*
X95758000Y-135870000D03*
D13*
X95758000Y-133370000D03*
D11*
X109347000Y-127000000D03*
X109347000Y-125222000D03*
D29*
X111887000Y-144780000D03*
X111887000Y-143764000D03*
D11*
X114300000Y-138684000D03*
X112522000Y-138684000D03*
D49*
X102640000Y-99108000D03*
D10*
X114173000Y-108077000D03*
X115189000Y-108077000D03*
D50*
X92710000Y-117475000D03*
X115570000Y-117475000D03*
X97536000Y-167513000D03*
D29*
X96139000Y-101473000D03*
X96139000Y-102489000D03*
D17*
X115980999Y-105222000D03*
X115980999Y-107122000D03*
X113380999Y-105222000D03*
X113380999Y-106172000D03*
X113380999Y-107122000D03*
D51*
X93070680Y-166230300D03*
D52*
X93073220Y-168259760D03*
D29*
X110744000Y-118999000D03*
X110744000Y-120015000D03*
D53*
X105664000Y-116807000D03*
X106934000Y-116807000D03*
X108204000Y-116807000D03*
X109474000Y-116807000D03*
X109474000Y-122207000D03*
X108204000Y-122207000D03*
X106934000Y-122207000D03*
X105664000Y-122207000D03*
D54*
G36*
X114681000Y-96837500D02*
G01*
X114173000Y-96837500D01*
X114173000Y-92075000D01*
X114681000Y-92075000D01*
X114681000Y-96837500D01*
G37*
X114681000Y-96837500D02*
X114173000Y-96837500D01*
X114173000Y-92075000D01*
X114681000Y-92075000D01*
X114681000Y-96837500D01*
M02*
