G04 #@! TF.GenerationSoftware,KiCad,Pcbnew,5.1.6-c6e7f7d~87~ubuntu18.04.1*
G04 #@! TF.CreationDate,2022-06-10T14:43:55+03:00*
G04 #@! TF.ProjectId,ESP32-PoE_Rev_J,45535033-322d-4506-9f45-5f5265765f4a,J*
G04 #@! TF.SameCoordinates,Original*
G04 #@! TF.FileFunction,Legend,Top*
G04 #@! TF.FilePolarity,Positive*
%FSLAX46Y46*%
G04 Gerber Fmt 4.6, Leading zero omitted, Abs format (unit mm)*
G04 Created by KiCad (PCBNEW 5.1.6-c6e7f7d~87~ubuntu18.04.1) date 2022-06-10 14:43:55*
%MOMM*%
%LPD*%
G01*
G04 APERTURE LIST*
%ADD10C,0.254000*%
%ADD11C,0.190500*%
%ADD12C,0.127000*%
%ADD13C,0.508000*%
%ADD14C,0.200000*%
%ADD15C,0.100000*%
%ADD16C,0.050000*%
%ADD17C,0.600000*%
%ADD18C,0.158750*%
G04 APERTURE END LIST*
D10*
X98330657Y-131257523D02*
X97604942Y-131257523D01*
X97967800Y-131257523D02*
X97967800Y-129987523D01*
X97846847Y-130168952D01*
X97725895Y-130289904D01*
X97604942Y-130350380D01*
D11*
X115179928Y-121285000D02*
X115107357Y-121248714D01*
X114998500Y-121248714D01*
X114889642Y-121285000D01*
X114817071Y-121357571D01*
X114780785Y-121430142D01*
X114744500Y-121575285D01*
X114744500Y-121684142D01*
X114780785Y-121829285D01*
X114817071Y-121901857D01*
X114889642Y-121974428D01*
X114998500Y-122010714D01*
X115071071Y-122010714D01*
X115179928Y-121974428D01*
X115216214Y-121938142D01*
X115216214Y-121684142D01*
X115071071Y-121684142D01*
X115542785Y-122010714D02*
X115542785Y-121248714D01*
X115833071Y-121248714D01*
X115905642Y-121285000D01*
X115941928Y-121321285D01*
X115978214Y-121393857D01*
X115978214Y-121502714D01*
X115941928Y-121575285D01*
X115905642Y-121611571D01*
X115833071Y-121647857D01*
X115542785Y-121647857D01*
X116304785Y-122010714D02*
X116304785Y-121248714D01*
X116595071Y-121248714D02*
X117066785Y-121248714D01*
X116812785Y-121539000D01*
X116921642Y-121539000D01*
X116994214Y-121575285D01*
X117030500Y-121611571D01*
X117066785Y-121684142D01*
X117066785Y-121865571D01*
X117030500Y-121938142D01*
X116994214Y-121974428D01*
X116921642Y-122010714D01*
X116703928Y-122010714D01*
X116631357Y-121974428D01*
X116595071Y-121938142D01*
X117429642Y-122010714D02*
X117574785Y-122010714D01*
X117647357Y-121974428D01*
X117683642Y-121938142D01*
X117756214Y-121829285D01*
X117792500Y-121684142D01*
X117792500Y-121393857D01*
X117756214Y-121321285D01*
X117719928Y-121285000D01*
X117647357Y-121248714D01*
X117502214Y-121248714D01*
X117429642Y-121285000D01*
X117393357Y-121321285D01*
X117357071Y-121393857D01*
X117357071Y-121575285D01*
X117393357Y-121647857D01*
X117429642Y-121684142D01*
X117502214Y-121720428D01*
X117647357Y-121720428D01*
X117719928Y-121684142D01*
X117756214Y-121647857D01*
X117792500Y-121575285D01*
D12*
X116114285Y-124269500D02*
X116065904Y-124245309D01*
X115993333Y-124245309D01*
X115920761Y-124269500D01*
X115872380Y-124317880D01*
X115848190Y-124366261D01*
X115824000Y-124463023D01*
X115824000Y-124535595D01*
X115848190Y-124632357D01*
X115872380Y-124680738D01*
X115920761Y-124729119D01*
X115993333Y-124753309D01*
X116041714Y-124753309D01*
X116114285Y-124729119D01*
X116138476Y-124704928D01*
X116138476Y-124535595D01*
X116041714Y-124535595D01*
X116356190Y-124753309D02*
X116356190Y-124245309D01*
X116549714Y-124245309D01*
X116598095Y-124269500D01*
X116622285Y-124293690D01*
X116646476Y-124342071D01*
X116646476Y-124414642D01*
X116622285Y-124463023D01*
X116598095Y-124487214D01*
X116549714Y-124511404D01*
X116356190Y-124511404D01*
X116864190Y-124753309D02*
X116864190Y-124245309D01*
X117057714Y-124245309D02*
X117372190Y-124245309D01*
X117202857Y-124438833D01*
X117275428Y-124438833D01*
X117323809Y-124463023D01*
X117348000Y-124487214D01*
X117372190Y-124535595D01*
X117372190Y-124656547D01*
X117348000Y-124704928D01*
X117323809Y-124729119D01*
X117275428Y-124753309D01*
X117130285Y-124753309D01*
X117081904Y-124729119D01*
X117057714Y-124704928D01*
X117807619Y-124245309D02*
X117710857Y-124245309D01*
X117662476Y-124269500D01*
X117638285Y-124293690D01*
X117589904Y-124366261D01*
X117565714Y-124463023D01*
X117565714Y-124656547D01*
X117589904Y-124704928D01*
X117614095Y-124729119D01*
X117662476Y-124753309D01*
X117759238Y-124753309D01*
X117807619Y-124729119D01*
X117831809Y-124704928D01*
X117856000Y-124656547D01*
X117856000Y-124535595D01*
X117831809Y-124487214D01*
X117807619Y-124463023D01*
X117759238Y-124438833D01*
X117662476Y-124438833D01*
X117614095Y-124463023D01*
X117589904Y-124487214D01*
X117565714Y-124535595D01*
X116114285Y-126809500D02*
X116065904Y-126785309D01*
X115993333Y-126785309D01*
X115920761Y-126809500D01*
X115872380Y-126857880D01*
X115848190Y-126906261D01*
X115824000Y-127003023D01*
X115824000Y-127075595D01*
X115848190Y-127172357D01*
X115872380Y-127220738D01*
X115920761Y-127269119D01*
X115993333Y-127293309D01*
X116041714Y-127293309D01*
X116114285Y-127269119D01*
X116138476Y-127244928D01*
X116138476Y-127075595D01*
X116041714Y-127075595D01*
X116356190Y-127293309D02*
X116356190Y-126785309D01*
X116549714Y-126785309D01*
X116598095Y-126809500D01*
X116622285Y-126833690D01*
X116646476Y-126882071D01*
X116646476Y-126954642D01*
X116622285Y-127003023D01*
X116598095Y-127027214D01*
X116549714Y-127051404D01*
X116356190Y-127051404D01*
X116864190Y-127293309D02*
X116864190Y-126785309D01*
X117057714Y-126785309D02*
X117372190Y-126785309D01*
X117202857Y-126978833D01*
X117275428Y-126978833D01*
X117323809Y-127003023D01*
X117348000Y-127027214D01*
X117372190Y-127075595D01*
X117372190Y-127196547D01*
X117348000Y-127244928D01*
X117323809Y-127269119D01*
X117275428Y-127293309D01*
X117130285Y-127293309D01*
X117081904Y-127269119D01*
X117057714Y-127244928D01*
X117831809Y-126785309D02*
X117589904Y-126785309D01*
X117565714Y-127027214D01*
X117589904Y-127003023D01*
X117638285Y-126978833D01*
X117759238Y-126978833D01*
X117807619Y-127003023D01*
X117831809Y-127027214D01*
X117856000Y-127075595D01*
X117856000Y-127196547D01*
X117831809Y-127244928D01*
X117807619Y-127269119D01*
X117759238Y-127293309D01*
X117638285Y-127293309D01*
X117589904Y-127269119D01*
X117565714Y-127244928D01*
X116114285Y-129349500D02*
X116065904Y-129325309D01*
X115993333Y-129325309D01*
X115920761Y-129349500D01*
X115872380Y-129397880D01*
X115848190Y-129446261D01*
X115824000Y-129543023D01*
X115824000Y-129615595D01*
X115848190Y-129712357D01*
X115872380Y-129760738D01*
X115920761Y-129809119D01*
X115993333Y-129833309D01*
X116041714Y-129833309D01*
X116114285Y-129809119D01*
X116138476Y-129784928D01*
X116138476Y-129615595D01*
X116041714Y-129615595D01*
X116356190Y-129833309D02*
X116356190Y-129325309D01*
X116549714Y-129325309D01*
X116598095Y-129349500D01*
X116622285Y-129373690D01*
X116646476Y-129422071D01*
X116646476Y-129494642D01*
X116622285Y-129543023D01*
X116598095Y-129567214D01*
X116549714Y-129591404D01*
X116356190Y-129591404D01*
X116864190Y-129833309D02*
X116864190Y-129325309D01*
X117057714Y-129325309D02*
X117372190Y-129325309D01*
X117202857Y-129518833D01*
X117275428Y-129518833D01*
X117323809Y-129543023D01*
X117348000Y-129567214D01*
X117372190Y-129615595D01*
X117372190Y-129736547D01*
X117348000Y-129784928D01*
X117323809Y-129809119D01*
X117275428Y-129833309D01*
X117130285Y-129833309D01*
X117081904Y-129809119D01*
X117057714Y-129784928D01*
X117807619Y-129494642D02*
X117807619Y-129833309D01*
X117686666Y-129301119D02*
X117565714Y-129663976D01*
X117880190Y-129663976D01*
X115657690Y-131889500D02*
X115609309Y-131865309D01*
X115536738Y-131865309D01*
X115464166Y-131889500D01*
X115415785Y-131937880D01*
X115391595Y-131986261D01*
X115367404Y-132083023D01*
X115367404Y-132155595D01*
X115391595Y-132252357D01*
X115415785Y-132300738D01*
X115464166Y-132349119D01*
X115536738Y-132373309D01*
X115585119Y-132373309D01*
X115657690Y-132349119D01*
X115681880Y-132324928D01*
X115681880Y-132155595D01*
X115585119Y-132155595D01*
X115899595Y-132373309D02*
X115899595Y-131865309D01*
X116093119Y-131865309D01*
X116141500Y-131889500D01*
X116165690Y-131913690D01*
X116189880Y-131962071D01*
X116189880Y-132034642D01*
X116165690Y-132083023D01*
X116141500Y-132107214D01*
X116093119Y-132131404D01*
X115899595Y-132131404D01*
X116407595Y-132373309D02*
X116407595Y-131865309D01*
X116746261Y-131865309D02*
X116843023Y-131865309D01*
X116891404Y-131889500D01*
X116939785Y-131937880D01*
X116963976Y-132034642D01*
X116963976Y-132203976D01*
X116939785Y-132300738D01*
X116891404Y-132349119D01*
X116843023Y-132373309D01*
X116746261Y-132373309D01*
X116697880Y-132349119D01*
X116649500Y-132300738D01*
X116625309Y-132203976D01*
X116625309Y-132034642D01*
X116649500Y-131937880D01*
X116697880Y-131889500D01*
X116746261Y-131865309D01*
X117133309Y-131865309D02*
X117447785Y-131865309D01*
X117278452Y-132058833D01*
X117351023Y-132058833D01*
X117399404Y-132083023D01*
X117423595Y-132107214D01*
X117447785Y-132155595D01*
X117447785Y-132276547D01*
X117423595Y-132324928D01*
X117399404Y-132349119D01*
X117351023Y-132373309D01*
X117205880Y-132373309D01*
X117157500Y-132349119D01*
X117133309Y-132324928D01*
X117617119Y-131865309D02*
X117931595Y-131865309D01*
X117762261Y-132058833D01*
X117834833Y-132058833D01*
X117883214Y-132083023D01*
X117907404Y-132107214D01*
X117931595Y-132155595D01*
X117931595Y-132276547D01*
X117907404Y-132324928D01*
X117883214Y-132349119D01*
X117834833Y-132373309D01*
X117689690Y-132373309D01*
X117641309Y-132349119D01*
X117617119Y-132324928D01*
X115657690Y-134429500D02*
X115609309Y-134405309D01*
X115536738Y-134405309D01*
X115464166Y-134429500D01*
X115415785Y-134477880D01*
X115391595Y-134526261D01*
X115367404Y-134623023D01*
X115367404Y-134695595D01*
X115391595Y-134792357D01*
X115415785Y-134840738D01*
X115464166Y-134889119D01*
X115536738Y-134913309D01*
X115585119Y-134913309D01*
X115657690Y-134889119D01*
X115681880Y-134864928D01*
X115681880Y-134695595D01*
X115585119Y-134695595D01*
X115899595Y-134913309D02*
X115899595Y-134405309D01*
X116093119Y-134405309D01*
X116141500Y-134429500D01*
X116165690Y-134453690D01*
X116189880Y-134502071D01*
X116189880Y-134574642D01*
X116165690Y-134623023D01*
X116141500Y-134647214D01*
X116093119Y-134671404D01*
X115899595Y-134671404D01*
X116407595Y-134913309D02*
X116407595Y-134405309D01*
X116746261Y-134405309D02*
X116843023Y-134405309D01*
X116891404Y-134429500D01*
X116939785Y-134477880D01*
X116963976Y-134574642D01*
X116963976Y-134743976D01*
X116939785Y-134840738D01*
X116891404Y-134889119D01*
X116843023Y-134913309D01*
X116746261Y-134913309D01*
X116697880Y-134889119D01*
X116649500Y-134840738D01*
X116625309Y-134743976D01*
X116625309Y-134574642D01*
X116649500Y-134477880D01*
X116697880Y-134429500D01*
X116746261Y-134405309D01*
X117133309Y-134405309D02*
X117447785Y-134405309D01*
X117278452Y-134598833D01*
X117351023Y-134598833D01*
X117399404Y-134623023D01*
X117423595Y-134647214D01*
X117447785Y-134695595D01*
X117447785Y-134816547D01*
X117423595Y-134864928D01*
X117399404Y-134889119D01*
X117351023Y-134913309D01*
X117205880Y-134913309D01*
X117157500Y-134889119D01*
X117133309Y-134864928D01*
X117641309Y-134453690D02*
X117665500Y-134429500D01*
X117713880Y-134405309D01*
X117834833Y-134405309D01*
X117883214Y-134429500D01*
X117907404Y-134453690D01*
X117931595Y-134502071D01*
X117931595Y-134550452D01*
X117907404Y-134623023D01*
X117617119Y-134913309D01*
X117931595Y-134913309D01*
X115657690Y-136969500D02*
X115609309Y-136945309D01*
X115536738Y-136945309D01*
X115464166Y-136969500D01*
X115415785Y-137017880D01*
X115391595Y-137066261D01*
X115367404Y-137163023D01*
X115367404Y-137235595D01*
X115391595Y-137332357D01*
X115415785Y-137380738D01*
X115464166Y-137429119D01*
X115536738Y-137453309D01*
X115585119Y-137453309D01*
X115657690Y-137429119D01*
X115681880Y-137404928D01*
X115681880Y-137235595D01*
X115585119Y-137235595D01*
X115899595Y-137453309D02*
X115899595Y-136945309D01*
X116093119Y-136945309D01*
X116141500Y-136969500D01*
X116165690Y-136993690D01*
X116189880Y-137042071D01*
X116189880Y-137114642D01*
X116165690Y-137163023D01*
X116141500Y-137187214D01*
X116093119Y-137211404D01*
X115899595Y-137211404D01*
X116407595Y-137453309D02*
X116407595Y-136945309D01*
X116746261Y-136945309D02*
X116843023Y-136945309D01*
X116891404Y-136969500D01*
X116939785Y-137017880D01*
X116963976Y-137114642D01*
X116963976Y-137283976D01*
X116939785Y-137380738D01*
X116891404Y-137429119D01*
X116843023Y-137453309D01*
X116746261Y-137453309D01*
X116697880Y-137429119D01*
X116649500Y-137380738D01*
X116625309Y-137283976D01*
X116625309Y-137114642D01*
X116649500Y-137017880D01*
X116697880Y-136969500D01*
X116746261Y-136945309D01*
X117447785Y-137453309D02*
X117157500Y-137453309D01*
X117302642Y-137453309D02*
X117302642Y-136945309D01*
X117254261Y-137017880D01*
X117205880Y-137066261D01*
X117157500Y-137090452D01*
X117883214Y-136945309D02*
X117786452Y-136945309D01*
X117738071Y-136969500D01*
X117713880Y-136993690D01*
X117665500Y-137066261D01*
X117641309Y-137163023D01*
X117641309Y-137356547D01*
X117665500Y-137404928D01*
X117689690Y-137429119D01*
X117738071Y-137453309D01*
X117834833Y-137453309D01*
X117883214Y-137429119D01*
X117907404Y-137404928D01*
X117931595Y-137356547D01*
X117931595Y-137235595D01*
X117907404Y-137187214D01*
X117883214Y-137163023D01*
X117834833Y-137138833D01*
X117738071Y-137138833D01*
X117689690Y-137163023D01*
X117665500Y-137187214D01*
X117641309Y-137235595D01*
X115657690Y-139509500D02*
X115609309Y-139485309D01*
X115536738Y-139485309D01*
X115464166Y-139509500D01*
X115415785Y-139557880D01*
X115391595Y-139606261D01*
X115367404Y-139703023D01*
X115367404Y-139775595D01*
X115391595Y-139872357D01*
X115415785Y-139920738D01*
X115464166Y-139969119D01*
X115536738Y-139993309D01*
X115585119Y-139993309D01*
X115657690Y-139969119D01*
X115681880Y-139944928D01*
X115681880Y-139775595D01*
X115585119Y-139775595D01*
X115899595Y-139993309D02*
X115899595Y-139485309D01*
X116093119Y-139485309D01*
X116141500Y-139509500D01*
X116165690Y-139533690D01*
X116189880Y-139582071D01*
X116189880Y-139654642D01*
X116165690Y-139703023D01*
X116141500Y-139727214D01*
X116093119Y-139751404D01*
X115899595Y-139751404D01*
X116407595Y-139993309D02*
X116407595Y-139485309D01*
X116746261Y-139485309D02*
X116843023Y-139485309D01*
X116891404Y-139509500D01*
X116939785Y-139557880D01*
X116963976Y-139654642D01*
X116963976Y-139823976D01*
X116939785Y-139920738D01*
X116891404Y-139969119D01*
X116843023Y-139993309D01*
X116746261Y-139993309D01*
X116697880Y-139969119D01*
X116649500Y-139920738D01*
X116625309Y-139823976D01*
X116625309Y-139654642D01*
X116649500Y-139557880D01*
X116697880Y-139509500D01*
X116746261Y-139485309D01*
X117447785Y-139993309D02*
X117157500Y-139993309D01*
X117302642Y-139993309D02*
X117302642Y-139485309D01*
X117254261Y-139557880D01*
X117205880Y-139606261D01*
X117157500Y-139630452D01*
X117907404Y-139485309D02*
X117665500Y-139485309D01*
X117641309Y-139727214D01*
X117665500Y-139703023D01*
X117713880Y-139678833D01*
X117834833Y-139678833D01*
X117883214Y-139703023D01*
X117907404Y-139727214D01*
X117931595Y-139775595D01*
X117931595Y-139896547D01*
X117907404Y-139944928D01*
X117883214Y-139969119D01*
X117834833Y-139993309D01*
X117713880Y-139993309D01*
X117665500Y-139969119D01*
X117641309Y-139944928D01*
X115657690Y-142049500D02*
X115609309Y-142025309D01*
X115536738Y-142025309D01*
X115464166Y-142049500D01*
X115415785Y-142097880D01*
X115391595Y-142146261D01*
X115367404Y-142243023D01*
X115367404Y-142315595D01*
X115391595Y-142412357D01*
X115415785Y-142460738D01*
X115464166Y-142509119D01*
X115536738Y-142533309D01*
X115585119Y-142533309D01*
X115657690Y-142509119D01*
X115681880Y-142484928D01*
X115681880Y-142315595D01*
X115585119Y-142315595D01*
X115899595Y-142533309D02*
X115899595Y-142025309D01*
X116093119Y-142025309D01*
X116141500Y-142049500D01*
X116165690Y-142073690D01*
X116189880Y-142122071D01*
X116189880Y-142194642D01*
X116165690Y-142243023D01*
X116141500Y-142267214D01*
X116093119Y-142291404D01*
X115899595Y-142291404D01*
X116407595Y-142533309D02*
X116407595Y-142025309D01*
X116746261Y-142025309D02*
X116843023Y-142025309D01*
X116891404Y-142049500D01*
X116939785Y-142097880D01*
X116963976Y-142194642D01*
X116963976Y-142363976D01*
X116939785Y-142460738D01*
X116891404Y-142509119D01*
X116843023Y-142533309D01*
X116746261Y-142533309D01*
X116697880Y-142509119D01*
X116649500Y-142460738D01*
X116625309Y-142363976D01*
X116625309Y-142194642D01*
X116649500Y-142097880D01*
X116697880Y-142049500D01*
X116746261Y-142025309D01*
X117447785Y-142533309D02*
X117157500Y-142533309D01*
X117302642Y-142533309D02*
X117302642Y-142025309D01*
X117254261Y-142097880D01*
X117205880Y-142146261D01*
X117157500Y-142170452D01*
X117883214Y-142194642D02*
X117883214Y-142533309D01*
X117762261Y-142001119D02*
X117641309Y-142363976D01*
X117955785Y-142363976D01*
X115657690Y-144589500D02*
X115609309Y-144565309D01*
X115536738Y-144565309D01*
X115464166Y-144589500D01*
X115415785Y-144637880D01*
X115391595Y-144686261D01*
X115367404Y-144783023D01*
X115367404Y-144855595D01*
X115391595Y-144952357D01*
X115415785Y-145000738D01*
X115464166Y-145049119D01*
X115536738Y-145073309D01*
X115585119Y-145073309D01*
X115657690Y-145049119D01*
X115681880Y-145024928D01*
X115681880Y-144855595D01*
X115585119Y-144855595D01*
X115899595Y-145073309D02*
X115899595Y-144565309D01*
X116093119Y-144565309D01*
X116141500Y-144589500D01*
X116165690Y-144613690D01*
X116189880Y-144662071D01*
X116189880Y-144734642D01*
X116165690Y-144783023D01*
X116141500Y-144807214D01*
X116093119Y-144831404D01*
X115899595Y-144831404D01*
X116407595Y-145073309D02*
X116407595Y-144565309D01*
X116746261Y-144565309D02*
X116843023Y-144565309D01*
X116891404Y-144589500D01*
X116939785Y-144637880D01*
X116963976Y-144734642D01*
X116963976Y-144903976D01*
X116939785Y-145000738D01*
X116891404Y-145049119D01*
X116843023Y-145073309D01*
X116746261Y-145073309D01*
X116697880Y-145049119D01*
X116649500Y-145000738D01*
X116625309Y-144903976D01*
X116625309Y-144734642D01*
X116649500Y-144637880D01*
X116697880Y-144589500D01*
X116746261Y-144565309D01*
X117447785Y-145073309D02*
X117157500Y-145073309D01*
X117302642Y-145073309D02*
X117302642Y-144565309D01*
X117254261Y-144637880D01*
X117205880Y-144686261D01*
X117157500Y-144710452D01*
X117617119Y-144565309D02*
X117931595Y-144565309D01*
X117762261Y-144758833D01*
X117834833Y-144758833D01*
X117883214Y-144783023D01*
X117907404Y-144807214D01*
X117931595Y-144855595D01*
X117931595Y-144976547D01*
X117907404Y-145024928D01*
X117883214Y-145049119D01*
X117834833Y-145073309D01*
X117689690Y-145073309D01*
X117641309Y-145049119D01*
X117617119Y-145024928D01*
X90690095Y-144589500D02*
X90641714Y-144565309D01*
X90569142Y-144565309D01*
X90496571Y-144589500D01*
X90448190Y-144637880D01*
X90424000Y-144686261D01*
X90399809Y-144783023D01*
X90399809Y-144855595D01*
X90424000Y-144952357D01*
X90448190Y-145000738D01*
X90496571Y-145049119D01*
X90569142Y-145073309D01*
X90617523Y-145073309D01*
X90690095Y-145049119D01*
X90714285Y-145024928D01*
X90714285Y-144855595D01*
X90617523Y-144855595D01*
X90932000Y-145073309D02*
X90932000Y-144565309D01*
X91125523Y-144565309D01*
X91173904Y-144589500D01*
X91198095Y-144613690D01*
X91222285Y-144662071D01*
X91222285Y-144734642D01*
X91198095Y-144783023D01*
X91173904Y-144807214D01*
X91125523Y-144831404D01*
X90932000Y-144831404D01*
X91440000Y-145073309D02*
X91440000Y-144565309D01*
X91778666Y-144565309D02*
X91875428Y-144565309D01*
X91923809Y-144589500D01*
X91972190Y-144637880D01*
X91996380Y-144734642D01*
X91996380Y-144903976D01*
X91972190Y-145000738D01*
X91923809Y-145049119D01*
X91875428Y-145073309D01*
X91778666Y-145073309D01*
X91730285Y-145049119D01*
X91681904Y-145000738D01*
X91657714Y-144903976D01*
X91657714Y-144734642D01*
X91681904Y-144637880D01*
X91730285Y-144589500D01*
X91778666Y-144565309D01*
X92456000Y-144565309D02*
X92214095Y-144565309D01*
X92189904Y-144807214D01*
X92214095Y-144783023D01*
X92262476Y-144758833D01*
X92383428Y-144758833D01*
X92431809Y-144783023D01*
X92456000Y-144807214D01*
X92480190Y-144855595D01*
X92480190Y-144976547D01*
X92456000Y-145024928D01*
X92431809Y-145049119D01*
X92383428Y-145073309D01*
X92262476Y-145073309D01*
X92214095Y-145049119D01*
X92189904Y-145024928D01*
X91071095Y-142049500D02*
X91022714Y-142025309D01*
X90950142Y-142025309D01*
X90877571Y-142049500D01*
X90829190Y-142097880D01*
X90805000Y-142146261D01*
X90780809Y-142243023D01*
X90780809Y-142315595D01*
X90805000Y-142412357D01*
X90829190Y-142460738D01*
X90877571Y-142509119D01*
X90950142Y-142533309D01*
X90998523Y-142533309D01*
X91071095Y-142509119D01*
X91095285Y-142484928D01*
X91095285Y-142315595D01*
X90998523Y-142315595D01*
X91313000Y-142533309D02*
X91313000Y-142025309D01*
X91506523Y-142025309D01*
X91554904Y-142049500D01*
X91579095Y-142073690D01*
X91603285Y-142122071D01*
X91603285Y-142194642D01*
X91579095Y-142243023D01*
X91554904Y-142267214D01*
X91506523Y-142291404D01*
X91313000Y-142291404D01*
X91821000Y-142533309D02*
X91821000Y-142025309D01*
X92159666Y-142025309D02*
X92256428Y-142025309D01*
X92304809Y-142049500D01*
X92353190Y-142097880D01*
X92377380Y-142194642D01*
X92377380Y-142363976D01*
X92353190Y-142460738D01*
X92304809Y-142509119D01*
X92256428Y-142533309D01*
X92159666Y-142533309D01*
X92111285Y-142509119D01*
X92062904Y-142460738D01*
X92038714Y-142363976D01*
X92038714Y-142194642D01*
X92062904Y-142097880D01*
X92111285Y-142049500D01*
X92159666Y-142025309D01*
X92812809Y-142194642D02*
X92812809Y-142533309D01*
X92691857Y-142001119D02*
X92570904Y-142363976D01*
X92885380Y-142363976D01*
X90690095Y-139509500D02*
X90641714Y-139485309D01*
X90569142Y-139485309D01*
X90496571Y-139509500D01*
X90448190Y-139557880D01*
X90424000Y-139606261D01*
X90399809Y-139703023D01*
X90399809Y-139775595D01*
X90424000Y-139872357D01*
X90448190Y-139920738D01*
X90496571Y-139969119D01*
X90569142Y-139993309D01*
X90617523Y-139993309D01*
X90690095Y-139969119D01*
X90714285Y-139944928D01*
X90714285Y-139775595D01*
X90617523Y-139775595D01*
X90932000Y-139993309D02*
X90932000Y-139485309D01*
X91125523Y-139485309D01*
X91173904Y-139509500D01*
X91198095Y-139533690D01*
X91222285Y-139582071D01*
X91222285Y-139654642D01*
X91198095Y-139703023D01*
X91173904Y-139727214D01*
X91125523Y-139751404D01*
X90932000Y-139751404D01*
X91440000Y-139993309D02*
X91440000Y-139485309D01*
X91778666Y-139485309D02*
X91875428Y-139485309D01*
X91923809Y-139509500D01*
X91972190Y-139557880D01*
X91996380Y-139654642D01*
X91996380Y-139823976D01*
X91972190Y-139920738D01*
X91923809Y-139969119D01*
X91875428Y-139993309D01*
X91778666Y-139993309D01*
X91730285Y-139969119D01*
X91681904Y-139920738D01*
X91657714Y-139823976D01*
X91657714Y-139654642D01*
X91681904Y-139557880D01*
X91730285Y-139509500D01*
X91778666Y-139485309D01*
X92165714Y-139485309D02*
X92480190Y-139485309D01*
X92310857Y-139678833D01*
X92383428Y-139678833D01*
X92431809Y-139703023D01*
X92456000Y-139727214D01*
X92480190Y-139775595D01*
X92480190Y-139896547D01*
X92456000Y-139944928D01*
X92431809Y-139969119D01*
X92383428Y-139993309D01*
X92238285Y-139993309D01*
X92189904Y-139969119D01*
X92165714Y-139944928D01*
X90690095Y-136969500D02*
X90641714Y-136945309D01*
X90569142Y-136945309D01*
X90496571Y-136969500D01*
X90448190Y-137017880D01*
X90424000Y-137066261D01*
X90399809Y-137163023D01*
X90399809Y-137235595D01*
X90424000Y-137332357D01*
X90448190Y-137380738D01*
X90496571Y-137429119D01*
X90569142Y-137453309D01*
X90617523Y-137453309D01*
X90690095Y-137429119D01*
X90714285Y-137404928D01*
X90714285Y-137235595D01*
X90617523Y-137235595D01*
X90932000Y-137453309D02*
X90932000Y-136945309D01*
X91125523Y-136945309D01*
X91173904Y-136969500D01*
X91198095Y-136993690D01*
X91222285Y-137042071D01*
X91222285Y-137114642D01*
X91198095Y-137163023D01*
X91173904Y-137187214D01*
X91125523Y-137211404D01*
X90932000Y-137211404D01*
X91440000Y-137453309D02*
X91440000Y-136945309D01*
X91778666Y-136945309D02*
X91875428Y-136945309D01*
X91923809Y-136969500D01*
X91972190Y-137017880D01*
X91996380Y-137114642D01*
X91996380Y-137283976D01*
X91972190Y-137380738D01*
X91923809Y-137429119D01*
X91875428Y-137453309D01*
X91778666Y-137453309D01*
X91730285Y-137429119D01*
X91681904Y-137380738D01*
X91657714Y-137283976D01*
X91657714Y-137114642D01*
X91681904Y-137017880D01*
X91730285Y-136969500D01*
X91778666Y-136945309D01*
X92189904Y-136993690D02*
X92214095Y-136969500D01*
X92262476Y-136945309D01*
X92383428Y-136945309D01*
X92431809Y-136969500D01*
X92456000Y-136993690D01*
X92480190Y-137042071D01*
X92480190Y-137090452D01*
X92456000Y-137163023D01*
X92165714Y-137453309D01*
X92480190Y-137453309D01*
X90690095Y-134429500D02*
X90641714Y-134405309D01*
X90569142Y-134405309D01*
X90496571Y-134429500D01*
X90448190Y-134477880D01*
X90424000Y-134526261D01*
X90399809Y-134623023D01*
X90399809Y-134695595D01*
X90424000Y-134792357D01*
X90448190Y-134840738D01*
X90496571Y-134889119D01*
X90569142Y-134913309D01*
X90617523Y-134913309D01*
X90690095Y-134889119D01*
X90714285Y-134864928D01*
X90714285Y-134695595D01*
X90617523Y-134695595D01*
X90932000Y-134913309D02*
X90932000Y-134405309D01*
X91125523Y-134405309D01*
X91173904Y-134429500D01*
X91198095Y-134453690D01*
X91222285Y-134502071D01*
X91222285Y-134574642D01*
X91198095Y-134623023D01*
X91173904Y-134647214D01*
X91125523Y-134671404D01*
X90932000Y-134671404D01*
X91440000Y-134913309D02*
X91440000Y-134405309D01*
X91778666Y-134405309D02*
X91875428Y-134405309D01*
X91923809Y-134429500D01*
X91972190Y-134477880D01*
X91996380Y-134574642D01*
X91996380Y-134743976D01*
X91972190Y-134840738D01*
X91923809Y-134889119D01*
X91875428Y-134913309D01*
X91778666Y-134913309D01*
X91730285Y-134889119D01*
X91681904Y-134840738D01*
X91657714Y-134743976D01*
X91657714Y-134574642D01*
X91681904Y-134477880D01*
X91730285Y-134429500D01*
X91778666Y-134405309D01*
X92480190Y-134913309D02*
X92189904Y-134913309D01*
X92335047Y-134913309D02*
X92335047Y-134405309D01*
X92286666Y-134477880D01*
X92238285Y-134526261D01*
X92189904Y-134550452D01*
X90690095Y-131889500D02*
X90641714Y-131865309D01*
X90569142Y-131865309D01*
X90496571Y-131889500D01*
X90448190Y-131937880D01*
X90424000Y-131986261D01*
X90399809Y-132083023D01*
X90399809Y-132155595D01*
X90424000Y-132252357D01*
X90448190Y-132300738D01*
X90496571Y-132349119D01*
X90569142Y-132373309D01*
X90617523Y-132373309D01*
X90690095Y-132349119D01*
X90714285Y-132324928D01*
X90714285Y-132155595D01*
X90617523Y-132155595D01*
X90932000Y-132373309D02*
X90932000Y-131865309D01*
X91125523Y-131865309D01*
X91173904Y-131889500D01*
X91198095Y-131913690D01*
X91222285Y-131962071D01*
X91222285Y-132034642D01*
X91198095Y-132083023D01*
X91173904Y-132107214D01*
X91125523Y-132131404D01*
X90932000Y-132131404D01*
X91440000Y-132373309D02*
X91440000Y-131865309D01*
X91778666Y-131865309D02*
X91875428Y-131865309D01*
X91923809Y-131889500D01*
X91972190Y-131937880D01*
X91996380Y-132034642D01*
X91996380Y-132203976D01*
X91972190Y-132300738D01*
X91923809Y-132349119D01*
X91875428Y-132373309D01*
X91778666Y-132373309D01*
X91730285Y-132349119D01*
X91681904Y-132300738D01*
X91657714Y-132203976D01*
X91657714Y-132034642D01*
X91681904Y-131937880D01*
X91730285Y-131889500D01*
X91778666Y-131865309D01*
X92310857Y-131865309D02*
X92359238Y-131865309D01*
X92407619Y-131889500D01*
X92431809Y-131913690D01*
X92456000Y-131962071D01*
X92480190Y-132058833D01*
X92480190Y-132179785D01*
X92456000Y-132276547D01*
X92431809Y-132324928D01*
X92407619Y-132349119D01*
X92359238Y-132373309D01*
X92310857Y-132373309D01*
X92262476Y-132349119D01*
X92238285Y-132324928D01*
X92214095Y-132276547D01*
X92189904Y-132179785D01*
X92189904Y-132058833D01*
X92214095Y-131962071D01*
X92238285Y-131913690D01*
X92262476Y-131889500D01*
X92310857Y-131865309D01*
X91769211Y-129794472D02*
X91888948Y-129674736D01*
X92128421Y-129811578D02*
X91957369Y-129982630D01*
X91598158Y-129623420D01*
X91769211Y-129452367D01*
X92248158Y-129657630D02*
X92316579Y-129623420D01*
X92402105Y-129537894D01*
X92419210Y-129486578D01*
X92419210Y-129452367D01*
X92402105Y-129401052D01*
X92367895Y-129366841D01*
X92316579Y-129349736D01*
X92282368Y-129349736D01*
X92231053Y-129366841D01*
X92145526Y-129418157D01*
X92094211Y-129435262D01*
X92060000Y-129435262D01*
X92008684Y-129418157D01*
X91974474Y-129383946D01*
X91957369Y-129332631D01*
X91957369Y-129298420D01*
X91974474Y-129247104D01*
X92060000Y-129161578D01*
X92128421Y-129127368D01*
X92624473Y-129315525D02*
X92265263Y-128956315D01*
X92402105Y-128819473D01*
X92453421Y-128802368D01*
X92487631Y-128802368D01*
X92538947Y-128819473D01*
X92590263Y-128870789D01*
X92607368Y-128922105D01*
X92607368Y-128956315D01*
X92590263Y-129007631D01*
X92453421Y-129144473D01*
X92932368Y-129076052D02*
X93206052Y-128802368D01*
X93069210Y-128494474D02*
X93188946Y-128374737D01*
X93428420Y-128511579D02*
X93257367Y-128682631D01*
X92898157Y-128323421D01*
X93069210Y-128152369D01*
X93582367Y-128357632D02*
X93223157Y-127998421D01*
X93787630Y-128152369D01*
X93428420Y-127793158D01*
X91052952Y-126809500D02*
X91004571Y-126785309D01*
X90932000Y-126785309D01*
X90859428Y-126809500D01*
X90811047Y-126857880D01*
X90786857Y-126906261D01*
X90762666Y-127003023D01*
X90762666Y-127075595D01*
X90786857Y-127172357D01*
X90811047Y-127220738D01*
X90859428Y-127269119D01*
X90932000Y-127293309D01*
X90980380Y-127293309D01*
X91052952Y-127269119D01*
X91077142Y-127244928D01*
X91077142Y-127075595D01*
X90980380Y-127075595D01*
X91294857Y-127293309D02*
X91294857Y-126785309D01*
X91585142Y-127293309D01*
X91585142Y-126785309D01*
X91827047Y-127293309D02*
X91827047Y-126785309D01*
X91948000Y-126785309D01*
X92020571Y-126809500D01*
X92068952Y-126857880D01*
X92093142Y-126906261D01*
X92117333Y-127003023D01*
X92117333Y-127075595D01*
X92093142Y-127172357D01*
X92068952Y-127220738D01*
X92020571Y-127269119D01*
X91948000Y-127293309D01*
X91827047Y-127293309D01*
X90544952Y-124559785D02*
X90932000Y-124559785D01*
X90738476Y-124753309D02*
X90738476Y-124366261D01*
X91125523Y-124245309D02*
X91440000Y-124245309D01*
X91270666Y-124438833D01*
X91343238Y-124438833D01*
X91391619Y-124463023D01*
X91415809Y-124487214D01*
X91440000Y-124535595D01*
X91440000Y-124656547D01*
X91415809Y-124704928D01*
X91391619Y-124729119D01*
X91343238Y-124753309D01*
X91198095Y-124753309D01*
X91149714Y-124729119D01*
X91125523Y-124704928D01*
X91585142Y-124245309D02*
X91754476Y-124753309D01*
X91923809Y-124245309D01*
X92044761Y-124245309D02*
X92359238Y-124245309D01*
X92189904Y-124438833D01*
X92262476Y-124438833D01*
X92310857Y-124463023D01*
X92335047Y-124487214D01*
X92359238Y-124535595D01*
X92359238Y-124656547D01*
X92335047Y-124704928D01*
X92310857Y-124729119D01*
X92262476Y-124753309D01*
X92117333Y-124753309D01*
X92068952Y-124729119D01*
X92044761Y-124704928D01*
D11*
X90460285Y-121720428D02*
X91040857Y-121720428D01*
X90750571Y-122010714D02*
X90750571Y-121430142D01*
X91766571Y-121248714D02*
X91403714Y-121248714D01*
X91367428Y-121611571D01*
X91403714Y-121575285D01*
X91476285Y-121539000D01*
X91657714Y-121539000D01*
X91730285Y-121575285D01*
X91766571Y-121611571D01*
X91802857Y-121684142D01*
X91802857Y-121865571D01*
X91766571Y-121938142D01*
X91730285Y-121974428D01*
X91657714Y-122010714D01*
X91476285Y-122010714D01*
X91403714Y-121974428D01*
X91367428Y-121938142D01*
X92020571Y-121248714D02*
X92274571Y-122010714D01*
X92528571Y-121248714D01*
D10*
X95891047Y-168329428D02*
X95116952Y-168329428D01*
X95449571Y-166630047D02*
X95449571Y-165855952D01*
X95836619Y-166243000D02*
X95062523Y-166243000D01*
X115551857Y-123891523D02*
X114826142Y-123891523D01*
X115189000Y-123891523D02*
X115189000Y-122621523D01*
X115068047Y-122802952D01*
X114947095Y-122923904D01*
X114826142Y-122984380D01*
X93453857Y-123891523D02*
X92728142Y-123891523D01*
X93091000Y-123891523D02*
X93091000Y-122621523D01*
X92970047Y-122802952D01*
X92849095Y-122923904D01*
X92728142Y-122984380D01*
D13*
X95673333Y-117202857D02*
X96350666Y-117202857D01*
X96640952Y-118267238D02*
X95673333Y-118267238D01*
X95673333Y-116235238D01*
X96640952Y-116235238D01*
X97415047Y-118170476D02*
X97705333Y-118267238D01*
X98189142Y-118267238D01*
X98382666Y-118170476D01*
X98479428Y-118073714D01*
X98576190Y-117880190D01*
X98576190Y-117686666D01*
X98479428Y-117493142D01*
X98382666Y-117396380D01*
X98189142Y-117299619D01*
X97802095Y-117202857D01*
X97608571Y-117106095D01*
X97511809Y-117009333D01*
X97415047Y-116815809D01*
X97415047Y-116622285D01*
X97511809Y-116428761D01*
X97608571Y-116332000D01*
X97802095Y-116235238D01*
X98285904Y-116235238D01*
X98576190Y-116332000D01*
X99447047Y-118267238D02*
X99447047Y-116235238D01*
X100221142Y-116235238D01*
X100414666Y-116332000D01*
X100511428Y-116428761D01*
X100608190Y-116622285D01*
X100608190Y-116912571D01*
X100511428Y-117106095D01*
X100414666Y-117202857D01*
X100221142Y-117299619D01*
X99447047Y-117299619D01*
X101285523Y-116235238D02*
X102543428Y-116235238D01*
X101866095Y-117009333D01*
X102156380Y-117009333D01*
X102349904Y-117106095D01*
X102446666Y-117202857D01*
X102543428Y-117396380D01*
X102543428Y-117880190D01*
X102446666Y-118073714D01*
X102349904Y-118170476D01*
X102156380Y-118267238D01*
X101575809Y-118267238D01*
X101382285Y-118170476D01*
X101285523Y-118073714D01*
X103317523Y-116428761D02*
X103414285Y-116332000D01*
X103607809Y-116235238D01*
X104091619Y-116235238D01*
X104285142Y-116332000D01*
X104381904Y-116428761D01*
X104478666Y-116622285D01*
X104478666Y-116815809D01*
X104381904Y-117106095D01*
X103220761Y-118267238D01*
X104478666Y-118267238D01*
X105349523Y-117493142D02*
X106897714Y-117493142D01*
X107865333Y-118267238D02*
X107865333Y-116235238D01*
X108639428Y-116235238D01*
X108832952Y-116332000D01*
X108929714Y-116428761D01*
X109026476Y-116622285D01*
X109026476Y-116912571D01*
X108929714Y-117106095D01*
X108832952Y-117202857D01*
X108639428Y-117299619D01*
X107865333Y-117299619D01*
X110187619Y-118267238D02*
X109994095Y-118170476D01*
X109897333Y-118073714D01*
X109800571Y-117880190D01*
X109800571Y-117299619D01*
X109897333Y-117106095D01*
X109994095Y-117009333D01*
X110187619Y-116912571D01*
X110477904Y-116912571D01*
X110671428Y-117009333D01*
X110768190Y-117106095D01*
X110864952Y-117299619D01*
X110864952Y-117880190D01*
X110768190Y-118073714D01*
X110671428Y-118170476D01*
X110477904Y-118267238D01*
X110187619Y-118267238D01*
X111735809Y-117202857D02*
X112413142Y-117202857D01*
X112703428Y-118267238D02*
X111735809Y-118267238D01*
X111735809Y-116235238D01*
X112703428Y-116235238D01*
D10*
X114560047Y-113235619D02*
X114221380Y-112751809D01*
X113979476Y-113235619D02*
X113979476Y-112219619D01*
X114366523Y-112219619D01*
X114463285Y-112268000D01*
X114511666Y-112316380D01*
X114560047Y-112413142D01*
X114560047Y-112558285D01*
X114511666Y-112655047D01*
X114463285Y-112703428D01*
X114366523Y-112751809D01*
X113979476Y-112751809D01*
X115382523Y-113187238D02*
X115285761Y-113235619D01*
X115092238Y-113235619D01*
X114995476Y-113187238D01*
X114947095Y-113090476D01*
X114947095Y-112703428D01*
X114995476Y-112606666D01*
X115092238Y-112558285D01*
X115285761Y-112558285D01*
X115382523Y-112606666D01*
X115430904Y-112703428D01*
X115430904Y-112800190D01*
X114947095Y-112896952D01*
X115769571Y-112558285D02*
X116011476Y-113235619D01*
X116253380Y-112558285D01*
X116640428Y-113138857D02*
X116688809Y-113187238D01*
X116640428Y-113235619D01*
X116592047Y-113187238D01*
X116640428Y-113138857D01*
X116640428Y-113235619D01*
X117414523Y-112219619D02*
X117414523Y-112945333D01*
X117366142Y-113090476D01*
X117269380Y-113187238D01*
X117124238Y-113235619D01*
X117027476Y-113235619D01*
X115228021Y-132334000D02*
G75*
G03*
X115228021Y-132334000I-3087021J0D01*
G01*
D12*
X116798738Y-99187000D02*
G75*
G03*
X116798738Y-99187000I-839738J0D01*
G01*
X116898000Y-101187000D02*
X117456800Y-101187000D01*
X114461200Y-101187000D02*
X115070800Y-101187000D01*
X116898000Y-97187000D02*
X117456800Y-97187000D01*
X114462000Y-97187000D02*
X115020800Y-97187000D01*
X117459000Y-101187000D02*
X117459000Y-97187000D01*
X114459000Y-101187000D02*
X114459000Y-97187000D01*
X93160738Y-99187000D02*
G75*
G03*
X93160738Y-99187000I-839738J0D01*
G01*
X93260000Y-101187000D02*
X93818800Y-101187000D01*
X90823200Y-101187000D02*
X91432800Y-101187000D01*
X93260000Y-97187000D02*
X93818800Y-97187000D01*
X90824000Y-97187000D02*
X91382800Y-97187000D01*
X93821000Y-101187000D02*
X93821000Y-97187000D01*
X90821000Y-101187000D02*
X90821000Y-97187000D01*
D10*
X103505000Y-151079200D02*
X103505000Y-152209500D01*
X100698300Y-151079200D02*
X100698300Y-152209500D01*
X108086822Y-149331863D02*
X108887441Y-148706351D01*
X106835797Y-147730625D02*
X107636416Y-147105113D01*
D14*
X105641000Y-152134000D02*
X105641000Y-152484000D01*
X105641000Y-150634000D02*
X105641000Y-150284000D01*
D10*
X105591000Y-149884000D02*
X105991000Y-149884000D01*
X105591000Y-152884000D02*
X105991000Y-152884000D01*
D14*
X105691000Y-151134000D02*
G75*
G02*
X105691000Y-151634000I0J-250000D01*
G01*
X105691000Y-150634000D02*
G75*
G02*
X105691000Y-151134000I0J-250000D01*
G01*
X105691000Y-151634000D02*
G75*
G02*
X105691000Y-152134000I0J-250000D01*
G01*
D10*
X100331000Y-153846000D02*
X116331000Y-153846000D01*
X116331000Y-153846000D02*
X116331000Y-159616000D01*
X116331000Y-164046000D02*
X116331000Y-175846000D01*
X116331000Y-175846000D02*
X100331000Y-175846000D01*
X100331000Y-175846000D02*
X100331000Y-164046000D01*
X100331000Y-159616000D02*
X100331000Y-153846000D01*
X108839000Y-150685500D02*
X108585000Y-150685500D01*
X108839000Y-150685500D02*
X109093000Y-150685500D01*
X108839000Y-149796500D02*
X109093000Y-149796500D01*
X108839000Y-149796500D02*
X108585000Y-149796500D01*
X100457000Y-150495000D02*
X100457000Y-151511000D01*
X98933000Y-150495000D02*
X98933000Y-151511000D01*
X91313000Y-148018500D02*
X91059000Y-148018500D01*
X91313000Y-148018500D02*
X91567000Y-148018500D01*
X91313000Y-147129500D02*
X91567000Y-147129500D01*
X91313000Y-147129500D02*
X91059000Y-147129500D01*
X92329000Y-105727500D02*
X92075000Y-105727500D01*
X92329000Y-105727500D02*
X92583000Y-105727500D01*
X92329000Y-104838500D02*
X92583000Y-104838500D01*
X92329000Y-104838500D02*
X92075000Y-104838500D01*
D12*
X116586000Y-151460200D02*
X115570000Y-151460200D01*
X115570000Y-150241000D02*
X116586000Y-150241000D01*
D15*
X114929000Y-150876000D02*
X115449000Y-150876000D01*
X115099000Y-150766000D02*
X115099000Y-150986000D01*
X115099000Y-150766000D02*
X115209000Y-150866000D01*
X115099000Y-150986000D02*
X115199000Y-150886000D01*
X115289000Y-150766000D02*
X115289000Y-150986000D01*
D16*
X115366800Y-151121600D02*
X115236800Y-151231600D01*
X115235200Y-151230600D02*
X115315200Y-151220600D01*
X115235200Y-151230600D02*
X115235200Y-151150600D01*
X115019800Y-151230600D02*
X115019800Y-151150600D01*
X115019800Y-151230600D02*
X115099800Y-151220600D01*
X115159800Y-151100600D02*
X115029800Y-151210600D01*
D10*
X116598700Y-150304500D02*
X116751100Y-150431500D01*
X116598700Y-151396700D02*
X116738400Y-151269700D01*
X116751100Y-150431500D02*
X116751100Y-151257000D01*
X116586000Y-151358600D02*
X116586000Y-150317200D01*
D12*
X116586000Y-152984200D02*
X115570000Y-152984200D01*
X115570000Y-151765000D02*
X116586000Y-151765000D01*
D15*
X114929000Y-152400000D02*
X115449000Y-152400000D01*
X115099000Y-152290000D02*
X115099000Y-152510000D01*
X115099000Y-152290000D02*
X115209000Y-152390000D01*
X115099000Y-152510000D02*
X115199000Y-152410000D01*
X115289000Y-152290000D02*
X115289000Y-152510000D01*
D16*
X115366800Y-152645600D02*
X115236800Y-152755600D01*
X115235200Y-152754600D02*
X115315200Y-152744600D01*
X115235200Y-152754600D02*
X115235200Y-152674600D01*
X115019800Y-152754600D02*
X115019800Y-152674600D01*
X115019800Y-152754600D02*
X115099800Y-152744600D01*
X115159800Y-152624600D02*
X115029800Y-152734600D01*
D10*
X116598700Y-151828500D02*
X116751100Y-151955500D01*
X116598700Y-152920700D02*
X116738400Y-152793700D01*
X116751100Y-151955500D02*
X116751100Y-152781000D01*
X116586000Y-152882600D02*
X116586000Y-151841200D01*
X116205000Y-108394500D02*
X115951000Y-108394500D01*
X116205000Y-108394500D02*
X116459000Y-108394500D01*
X116205000Y-107505500D02*
X116459000Y-107505500D01*
X116205000Y-107505500D02*
X115951000Y-107505500D01*
X116205000Y-108521500D02*
X116459000Y-108521500D01*
X116205000Y-108521500D02*
X115951000Y-108521500D01*
X116205000Y-109410500D02*
X115951000Y-109410500D01*
X116205000Y-109410500D02*
X116459000Y-109410500D01*
X116205000Y-104838500D02*
X116459000Y-104838500D01*
X116205000Y-104838500D02*
X115951000Y-104838500D01*
X116205000Y-105727500D02*
X115951000Y-105727500D01*
X116205000Y-105727500D02*
X116459000Y-105727500D01*
X116205000Y-105727500D02*
X116459000Y-105727500D01*
X116205000Y-105727500D02*
X115951000Y-105727500D01*
X116205000Y-106616500D02*
X115951000Y-106616500D01*
X116205000Y-106616500D02*
X116459000Y-106616500D01*
X99060000Y-152590500D02*
X98806000Y-152590500D01*
X99060000Y-152590500D02*
X99314000Y-152590500D01*
X99060000Y-153479500D02*
X99314000Y-153479500D01*
X99060000Y-153479500D02*
X98806000Y-153479500D01*
X96710500Y-149225000D02*
X96710500Y-149479000D01*
X96710500Y-149225000D02*
X96710500Y-148971000D01*
X97599500Y-149225000D02*
X97599500Y-148971000D01*
X97599500Y-149225000D02*
X97599500Y-149479000D01*
X113982500Y-147574000D02*
X113982500Y-147828000D01*
X113982500Y-147574000D02*
X113982500Y-147320000D01*
X113093500Y-147574000D02*
X113093500Y-147320000D01*
X113093500Y-147574000D02*
X113093500Y-147828000D01*
X95758000Y-164782500D02*
X95504000Y-164782500D01*
X95758000Y-164782500D02*
X96012000Y-164782500D01*
X95758000Y-163893500D02*
X96012000Y-163893500D01*
X95758000Y-163893500D02*
X95504000Y-163893500D01*
X111188500Y-151511000D02*
X111188500Y-151257000D01*
X111188500Y-151511000D02*
X111188500Y-151765000D01*
X112077500Y-151511000D02*
X112077500Y-151765000D01*
X112077500Y-151511000D02*
X112077500Y-151257000D01*
X112077500Y-151511000D02*
X112077500Y-151257000D01*
X112077500Y-151511000D02*
X112077500Y-151765000D01*
X112966500Y-151511000D02*
X112966500Y-151765000D01*
X112966500Y-151511000D02*
X112966500Y-151257000D01*
X109283500Y-151511000D02*
X109283500Y-151257000D01*
X109283500Y-151511000D02*
X109283500Y-151765000D01*
X110172500Y-151511000D02*
X110172500Y-151765000D01*
X110172500Y-151511000D02*
X110172500Y-151257000D01*
X110299500Y-151511000D02*
X110299500Y-151257000D01*
X110299500Y-151511000D02*
X110299500Y-151765000D01*
X111188500Y-151511000D02*
X111188500Y-151765000D01*
X111188500Y-151511000D02*
X111188500Y-151257000D01*
X97790000Y-163893500D02*
X98044000Y-163893500D01*
X97790000Y-163893500D02*
X97536000Y-163893500D01*
X97790000Y-164782500D02*
X97536000Y-164782500D01*
X97790000Y-164782500D02*
X98044000Y-164782500D01*
X95821500Y-138938000D02*
X95821500Y-138684000D01*
X95821500Y-138938000D02*
X95821500Y-139192000D01*
X96710500Y-138938000D02*
X96710500Y-139192000D01*
X96710500Y-138938000D02*
X96710500Y-138684000D01*
X96520000Y-148336000D02*
X96520000Y-148590000D01*
X96520000Y-148336000D02*
X96520000Y-148082000D01*
X95631000Y-148336000D02*
X95631000Y-148082000D01*
X95631000Y-148336000D02*
X95631000Y-148590000D01*
X99327000Y-144272000D02*
X100227000Y-144272000D01*
X103227000Y-144272000D02*
X104127000Y-144272000D01*
X104838270Y-144272000D02*
G75*
G03*
X104838270Y-144272000I-3111270J0D01*
G01*
X108227000Y-146372000D02*
X104727000Y-149072000D01*
X108227000Y-145872000D02*
X108227000Y-146372000D01*
X105127000Y-145872000D02*
X108227000Y-145872000D01*
X105127000Y-142672000D02*
X105127000Y-145872000D01*
X108227000Y-142672000D02*
X105127000Y-142672000D01*
X108227000Y-142172000D02*
X108227000Y-142672000D01*
X104727000Y-139472000D02*
X108227000Y-142172000D01*
X98727000Y-139472000D02*
X104727000Y-139472000D01*
X95227000Y-142172000D02*
X98727000Y-139472000D01*
X95227000Y-142672000D02*
X95227000Y-142172000D01*
X98327000Y-142672000D02*
X95227000Y-142672000D01*
X98327000Y-145872000D02*
X98327000Y-142672000D01*
X95227000Y-145872000D02*
X98327000Y-145872000D01*
X95227000Y-146372000D02*
X95227000Y-145872000D01*
X98727000Y-149072000D02*
X95227000Y-146372000D01*
X104727000Y-149072000D02*
X98727000Y-149072000D01*
X102227000Y-144272000D02*
G75*
G02*
X101227000Y-144272000I-500000J0D01*
G01*
X101227000Y-144272000D02*
G75*
G02*
X100227000Y-144272000I-500000J0D01*
G01*
X103227000Y-144272000D02*
G75*
G02*
X102227000Y-144272000I-500000J0D01*
G01*
X112217200Y-142932000D02*
X112217200Y-143732000D01*
X112217200Y-141532000D02*
X112217200Y-140932000D01*
X109117200Y-145332000D02*
X110217200Y-145332000D01*
X115317200Y-145332000D02*
X114217200Y-145332000D01*
X109117200Y-138132000D02*
X110217200Y-138132000D01*
X115317200Y-138132000D02*
X114217200Y-138132000D01*
X111217200Y-141532000D02*
X113217200Y-141532000D01*
X111217200Y-142932000D02*
X112217200Y-141532000D01*
X113217200Y-142932000D02*
X112217200Y-141532000D01*
X111217200Y-142932000D02*
X113217200Y-142932000D01*
X109117200Y-145332000D02*
X109117200Y-138132000D01*
X115317200Y-138132000D02*
X115317200Y-145332000D01*
D17*
X115117200Y-140232000D02*
X109317200Y-140232000D01*
D10*
X94924000Y-153115000D02*
X94924000Y-150415000D01*
X91734000Y-153115000D02*
X96734000Y-153115000D01*
X95364000Y-153115000D02*
X95364000Y-150415000D01*
X96734000Y-150415000D02*
X91734000Y-150415000D01*
D12*
X94361000Y-163906200D02*
X93345000Y-163906200D01*
X93345000Y-162687000D02*
X94361000Y-162687000D01*
D15*
X92704000Y-163322000D02*
X93224000Y-163322000D01*
X92874000Y-163212000D02*
X92874000Y-163432000D01*
X92874000Y-163212000D02*
X92984000Y-163312000D01*
X92874000Y-163432000D02*
X92974000Y-163332000D01*
X93064000Y-163212000D02*
X93064000Y-163432000D01*
D16*
X93141800Y-163567600D02*
X93011800Y-163677600D01*
X93010200Y-163676600D02*
X93090200Y-163666600D01*
X93010200Y-163676600D02*
X93010200Y-163596600D01*
X92794800Y-163676600D02*
X92794800Y-163596600D01*
X92794800Y-163676600D02*
X92874800Y-163666600D01*
X92934800Y-163546600D02*
X92804800Y-163656600D01*
D10*
X94373700Y-162750500D02*
X94526100Y-162877500D01*
X94373700Y-163842700D02*
X94513400Y-163715700D01*
X94526100Y-162877500D02*
X94526100Y-163703000D01*
X94361000Y-163804600D02*
X94361000Y-162763200D01*
X114427000Y-150114000D02*
X113411000Y-150114000D01*
X114427000Y-148590000D02*
X113411000Y-148590000D01*
D12*
X98171000Y-163906200D02*
X97155000Y-163906200D01*
X97155000Y-162687000D02*
X98171000Y-162687000D01*
D15*
X96514000Y-163322000D02*
X97034000Y-163322000D01*
X96684000Y-163212000D02*
X96684000Y-163432000D01*
X96684000Y-163212000D02*
X96794000Y-163312000D01*
X96684000Y-163432000D02*
X96784000Y-163332000D01*
X96874000Y-163212000D02*
X96874000Y-163432000D01*
D16*
X96951800Y-163567600D02*
X96821800Y-163677600D01*
X96820200Y-163676600D02*
X96900200Y-163666600D01*
X96820200Y-163676600D02*
X96820200Y-163596600D01*
X96604800Y-163676600D02*
X96604800Y-163596600D01*
X96604800Y-163676600D02*
X96684800Y-163666600D01*
X96744800Y-163546600D02*
X96614800Y-163656600D01*
D10*
X98183700Y-162750500D02*
X98336100Y-162877500D01*
X98183700Y-163842700D02*
X98323400Y-163715700D01*
X98336100Y-162877500D02*
X98336100Y-163703000D01*
X98171000Y-163804600D02*
X98171000Y-162763200D01*
X90297000Y-154178000D02*
X91313000Y-154559000D01*
X90297000Y-162306000D02*
X91313000Y-161925000D01*
X95826000Y-161942000D02*
X94626000Y-161942000D01*
X91326000Y-154542000D02*
X92326000Y-154542000D01*
X90226000Y-162306000D02*
X90226000Y-154178000D01*
X92326000Y-161942000D02*
X91326000Y-161942000D01*
X97326000Y-161042000D02*
X97326000Y-160042000D01*
X97326000Y-156442000D02*
X97326000Y-155442000D01*
X95826000Y-154542000D02*
X94626000Y-154542000D01*
X91326000Y-161942000D02*
X91326000Y-154542000D01*
X95211900Y-147736560D02*
X94500700Y-147736560D01*
X95211900Y-148574760D02*
X95211900Y-147736560D01*
X92367100Y-148574760D02*
X92367100Y-147736560D01*
X93078300Y-147736560D02*
X92367100Y-147736560D01*
X101219000Y-139217400D02*
X101219000Y-138506200D01*
X100380800Y-139217400D02*
X101219000Y-139217400D01*
X100380800Y-136372600D02*
X101219000Y-136372600D01*
X101219000Y-137083800D02*
X101219000Y-136372600D01*
X116395500Y-94869000D02*
X116395500Y-95123000D01*
X116395500Y-94869000D02*
X116395500Y-94615000D01*
X115506500Y-94869000D02*
X115506500Y-94615000D01*
X115506500Y-94869000D02*
X115506500Y-95123000D01*
X115252500Y-103251000D02*
X115252500Y-102997000D01*
X115252500Y-103251000D02*
X115252500Y-103505000D01*
X116141500Y-103251000D02*
X116141500Y-103505000D01*
X116141500Y-103251000D02*
X116141500Y-102997000D01*
X117030500Y-103251000D02*
X117030500Y-103505000D01*
X117030500Y-103251000D02*
X117030500Y-102997000D01*
X116141500Y-103251000D02*
X116141500Y-102997000D01*
X116141500Y-103251000D02*
X116141500Y-103505000D01*
X93954600Y-140131800D02*
X93954600Y-140538200D01*
X95275400Y-141757400D02*
X94488000Y-141757400D01*
X95275400Y-141097000D02*
X95275400Y-141757400D01*
X95275400Y-138912600D02*
X95275400Y-139573000D01*
X94488000Y-138912600D02*
X95275400Y-138912600D01*
X112776000Y-121031000D02*
X113284000Y-121031000D01*
X112903000Y-127635000D02*
X113157000Y-127635000D01*
X95504000Y-127635000D02*
X95123000Y-127635000D01*
X95504000Y-121031000D02*
X95123000Y-121031000D01*
X95250000Y-121158000D02*
X97790000Y-121158000D01*
X110490000Y-121158000D02*
X113030000Y-121158000D01*
X113030000Y-127508000D02*
X113030000Y-121158000D01*
X95250000Y-121158000D02*
X95250000Y-127508000D01*
X93980000Y-119888000D02*
X95250000Y-119888000D01*
X114300000Y-128778000D02*
X110490000Y-128778000D01*
X114300000Y-128778000D02*
X114300000Y-119888000D01*
X93980000Y-119888000D02*
X93980000Y-128778000D01*
X113030000Y-127508000D02*
X110490000Y-127508000D01*
X97790000Y-127508000D02*
X95250000Y-127508000D01*
X113030000Y-119888000D02*
X113030000Y-119634000D01*
X113030000Y-119634000D02*
X111760000Y-119634000D01*
X111760000Y-119888000D02*
X111760000Y-119634000D01*
X113030000Y-119888000D02*
X114300000Y-119888000D01*
X110490000Y-119888000D02*
X111760000Y-119888000D01*
X96520000Y-119634000D02*
X95250000Y-119634000D01*
X95250000Y-119634000D02*
X95250000Y-119888000D01*
X96520000Y-119634000D02*
X96520000Y-119888000D01*
X96520000Y-119888000D02*
X97790000Y-119888000D01*
X110490000Y-127762000D02*
X113284000Y-127762000D01*
X113284000Y-127762000D02*
X113284000Y-120904000D01*
X113284000Y-120904000D02*
X110490000Y-120904000D01*
X97790000Y-120904000D02*
X94996000Y-120904000D01*
X94996000Y-120904000D02*
X94996000Y-127762000D01*
X94996000Y-127762000D02*
X97790000Y-127762000D01*
X97790000Y-128778000D02*
X93980000Y-128778000D01*
X110490000Y-121158000D02*
X110490000Y-120904000D01*
X110490000Y-127762000D02*
X110490000Y-127508000D01*
X97790000Y-127762000D02*
X97790000Y-127508000D01*
X97790000Y-121158000D02*
X97790000Y-120904000D01*
X92329000Y-104457500D02*
X92075000Y-104457500D01*
X92329000Y-104457500D02*
X92583000Y-104457500D01*
X92329000Y-103568500D02*
X92583000Y-103568500D01*
X92329000Y-103568500D02*
X92075000Y-103568500D01*
X100203000Y-134937500D02*
X99949000Y-134937500D01*
X100203000Y-134937500D02*
X100457000Y-134937500D01*
X100203000Y-134048500D02*
X100457000Y-134048500D01*
X100203000Y-134048500D02*
X99949000Y-134048500D01*
X103759000Y-138493500D02*
X103505000Y-138493500D01*
X103759000Y-138493500D02*
X104013000Y-138493500D01*
X103759000Y-137604500D02*
X104013000Y-137604500D01*
X103759000Y-137604500D02*
X103505000Y-137604500D01*
X100203000Y-133921500D02*
X100457000Y-133921500D01*
X100203000Y-133921500D02*
X99949000Y-133921500D01*
X100203000Y-133032500D02*
X99949000Y-133032500D01*
X100203000Y-133032500D02*
X100457000Y-133032500D01*
X100203000Y-135953500D02*
X99949000Y-135953500D01*
X100203000Y-135953500D02*
X100457000Y-135953500D01*
X100203000Y-135064500D02*
X100457000Y-135064500D01*
X100203000Y-135064500D02*
X99949000Y-135064500D01*
X103029000Y-131485000D02*
X107029000Y-131485000D01*
X103029000Y-136485000D02*
X107029000Y-136485000D01*
X98845021Y-134620000D02*
G75*
G03*
X98845021Y-134620000I-3087021J0D01*
G01*
X95250000Y-130048000D02*
X95250000Y-130429000D01*
X95123000Y-129921000D02*
X95123000Y-130556000D01*
X94996000Y-129794000D02*
X94996000Y-130556000D01*
X94869000Y-129794000D02*
X94869000Y-130683000D01*
X94742000Y-130683000D02*
X94742000Y-129540000D01*
X94615000Y-129540000D02*
X94615000Y-130810000D01*
X94488000Y-130937000D02*
X94488000Y-129413000D01*
X95707200Y-129235200D02*
X95885000Y-129235200D01*
X95707200Y-131140200D02*
X95885000Y-131140200D01*
X95885000Y-129235200D02*
X95885000Y-131140200D01*
X94335600Y-129235200D02*
X94335600Y-131140200D01*
X95707200Y-129235200D02*
X95707200Y-131140200D01*
X95707200Y-130149600D02*
X94335600Y-131140200D01*
X94335600Y-129235200D02*
X95707200Y-130149600D01*
X93751400Y-130187700D02*
X96227900Y-130187700D01*
X106807000Y-137033000D02*
X105791000Y-137033000D01*
X106807000Y-138557000D02*
X105791000Y-138557000D01*
X111290000Y-109368000D02*
X110690000Y-109368000D01*
X96990000Y-109368000D02*
X97640000Y-109368000D01*
X113140000Y-115268000D02*
X113140000Y-114968000D01*
X95140000Y-115268000D02*
X95140000Y-114968000D01*
X95140000Y-115268000D02*
X113140000Y-115268000D01*
X95140000Y-83868000D02*
X95140000Y-90488000D01*
X113140000Y-83868000D02*
X113140000Y-90488000D01*
X95140000Y-90168000D02*
X113140000Y-90168000D01*
X95140000Y-83868000D02*
X113140000Y-83868000D01*
X94660720Y-164241480D02*
X90167460Y-164241480D01*
X94660720Y-170276520D02*
X94660720Y-164241480D01*
X90144600Y-170276520D02*
X94660720Y-170276520D01*
X90144600Y-164228780D02*
X90144600Y-170276520D01*
D11*
X114064142Y-136035142D02*
X114027857Y-136071428D01*
X113919000Y-136107714D01*
X113846428Y-136107714D01*
X113737571Y-136071428D01*
X113665000Y-135998857D01*
X113628714Y-135926285D01*
X113592428Y-135781142D01*
X113592428Y-135672285D01*
X113628714Y-135527142D01*
X113665000Y-135454571D01*
X113737571Y-135382000D01*
X113846428Y-135345714D01*
X113919000Y-135345714D01*
X114027857Y-135382000D01*
X114064142Y-135418285D01*
X114354428Y-135418285D02*
X114390714Y-135382000D01*
X114463285Y-135345714D01*
X114644714Y-135345714D01*
X114717285Y-135382000D01*
X114753571Y-135418285D01*
X114789857Y-135490857D01*
X114789857Y-135563428D01*
X114753571Y-135672285D01*
X114318142Y-136107714D01*
X114789857Y-136107714D01*
X115043857Y-135345714D02*
X115551857Y-135345714D01*
X115225285Y-136107714D01*
D10*
X110357190Y-130824714D02*
X111324809Y-130824714D01*
X110841000Y-131308523D02*
X110841000Y-130340904D01*
X108228190Y-130519714D02*
X109195809Y-130519714D01*
X108712000Y-131003523D02*
X108712000Y-130035904D01*
X117211928Y-95310476D02*
X117260309Y-95165333D01*
X117308690Y-95116952D01*
X117405452Y-95068571D01*
X117550595Y-95068571D01*
X117647357Y-95116952D01*
X117695738Y-95165333D01*
X117744119Y-95262095D01*
X117744119Y-95649142D01*
X116728119Y-95649142D01*
X116728119Y-95310476D01*
X116776500Y-95213714D01*
X116824880Y-95165333D01*
X116921642Y-95116952D01*
X117018404Y-95116952D01*
X117115166Y-95165333D01*
X117163547Y-95213714D01*
X117211928Y-95310476D01*
X117211928Y-95649142D01*
X116728119Y-94633142D02*
X117550595Y-94633142D01*
X117647357Y-94584761D01*
X117695738Y-94536380D01*
X117744119Y-94439619D01*
X117744119Y-94246095D01*
X117695738Y-94149333D01*
X117647357Y-94100952D01*
X117550595Y-94052571D01*
X116728119Y-94052571D01*
X116728119Y-93713904D02*
X116728119Y-93133333D01*
X117744119Y-93423619D02*
X116728119Y-93423619D01*
X117744119Y-92262476D02*
X117744119Y-92843047D01*
X117744119Y-92552761D02*
X116728119Y-92552761D01*
X116873261Y-92649523D01*
X116970023Y-92746285D01*
X117018404Y-92843047D01*
X93296619Y-95020190D02*
X92812809Y-95358857D01*
X93296619Y-95600761D02*
X92280619Y-95600761D01*
X92280619Y-95213714D01*
X92329000Y-95116952D01*
X92377380Y-95068571D01*
X92474142Y-95020190D01*
X92619285Y-95020190D01*
X92716047Y-95068571D01*
X92764428Y-95116952D01*
X92812809Y-95213714D01*
X92812809Y-95600761D01*
X93248238Y-94633142D02*
X93296619Y-94488000D01*
X93296619Y-94246095D01*
X93248238Y-94149333D01*
X93199857Y-94100952D01*
X93103095Y-94052571D01*
X93006333Y-94052571D01*
X92909571Y-94100952D01*
X92861190Y-94149333D01*
X92812809Y-94246095D01*
X92764428Y-94439619D01*
X92716047Y-94536380D01*
X92667666Y-94584761D01*
X92570904Y-94633142D01*
X92474142Y-94633142D01*
X92377380Y-94584761D01*
X92329000Y-94536380D01*
X92280619Y-94439619D01*
X92280619Y-94197714D01*
X92329000Y-94052571D01*
X92280619Y-93762285D02*
X92280619Y-93181714D01*
X93296619Y-93472000D02*
X92280619Y-93472000D01*
X93296619Y-92310857D02*
X93296619Y-92891428D01*
X93296619Y-92601142D02*
X92280619Y-92601142D01*
X92425761Y-92697904D01*
X92522523Y-92794666D01*
X92570904Y-92891428D01*
D18*
X103529190Y-153068261D02*
X103529190Y-153582309D01*
X103559428Y-153642785D01*
X103589666Y-153673023D01*
X103650142Y-153703261D01*
X103771095Y-153703261D01*
X103831571Y-153673023D01*
X103861809Y-153642785D01*
X103892047Y-153582309D01*
X103892047Y-153068261D01*
X104133952Y-153068261D02*
X104557285Y-153068261D01*
X104285142Y-153703261D01*
X109043968Y-146375945D02*
X109001524Y-146370734D01*
X108921846Y-146317867D01*
X108884614Y-146270211D01*
X108852592Y-146180110D01*
X108863015Y-146095222D01*
X108892055Y-146034161D01*
X108968750Y-145935867D01*
X109040234Y-145880018D01*
X109154162Y-145829380D01*
X109220434Y-145815975D01*
X109305323Y-145826398D01*
X109385000Y-145879266D01*
X109422233Y-145926922D01*
X109454255Y-146017022D01*
X109449043Y-146059466D01*
X109597975Y-146250090D02*
X109640419Y-146255301D01*
X109701480Y-146284341D01*
X109794562Y-146403480D01*
X109807967Y-146469753D01*
X109802755Y-146512197D01*
X109773716Y-146573258D01*
X109726060Y-146610491D01*
X109635960Y-146642512D01*
X109126627Y-146579974D01*
X109368641Y-146889737D01*
X109970303Y-146726649D02*
X110012748Y-146731860D01*
X110073808Y-146760900D01*
X110166891Y-146880039D01*
X110180295Y-146946312D01*
X110175084Y-146988756D01*
X110146044Y-147049817D01*
X110098389Y-147087050D01*
X110008288Y-147119071D01*
X109498956Y-147056533D01*
X109740969Y-147366296D01*
X106701166Y-153703261D02*
X106398785Y-153703261D01*
X106398785Y-153068261D01*
X106882595Y-153128738D02*
X106912833Y-153098500D01*
X106973309Y-153068261D01*
X107124500Y-153068261D01*
X107184976Y-153098500D01*
X107215214Y-153128738D01*
X107245452Y-153189214D01*
X107245452Y-153249690D01*
X107215214Y-153340404D01*
X106852357Y-153703261D01*
X107245452Y-153703261D01*
D11*
X117692714Y-159421285D02*
X117692714Y-159784142D01*
X116930714Y-159784142D01*
X117475000Y-159203571D02*
X117475000Y-158840714D01*
X117692714Y-159276142D02*
X116930714Y-159022142D01*
X117692714Y-158768142D01*
X117692714Y-158514142D02*
X116930714Y-158514142D01*
X117692714Y-158078714D01*
X116930714Y-158078714D01*
X117765285Y-157897285D02*
X117765285Y-157316714D01*
X117620142Y-156699857D02*
X117656428Y-156736142D01*
X117692714Y-156845000D01*
X117692714Y-156917571D01*
X117656428Y-157026428D01*
X117583857Y-157099000D01*
X117511285Y-157135285D01*
X117366142Y-157171571D01*
X117257285Y-157171571D01*
X117112142Y-157135285D01*
X117039571Y-157099000D01*
X116967000Y-157026428D01*
X116930714Y-156917571D01*
X116930714Y-156845000D01*
X116967000Y-156736142D01*
X117003285Y-156699857D01*
X116930714Y-156228142D02*
X116930714Y-156083000D01*
X116967000Y-156010428D01*
X117039571Y-155937857D01*
X117184714Y-155901571D01*
X117438714Y-155901571D01*
X117583857Y-155937857D01*
X117656428Y-156010428D01*
X117692714Y-156083000D01*
X117692714Y-156228142D01*
X117656428Y-156300714D01*
X117583857Y-156373285D01*
X117438714Y-156409571D01*
X117184714Y-156409571D01*
X117039571Y-156373285D01*
X116967000Y-156300714D01*
X116930714Y-156228142D01*
X117692714Y-155575000D02*
X116930714Y-155575000D01*
X117692714Y-155139571D01*
X116930714Y-155139571D01*
X117692714Y-154377571D02*
X117692714Y-154813000D01*
X117692714Y-154595285D02*
X116930714Y-154595285D01*
X117039571Y-154667857D01*
X117112142Y-154740428D01*
X117148428Y-154813000D01*
X108104388Y-151476842D02*
X108054821Y-151463561D01*
X107968968Y-151387431D01*
X107932682Y-151324582D01*
X107909678Y-151212166D01*
X107936241Y-151113031D01*
X107980947Y-151045321D01*
X108088502Y-150941326D01*
X108182775Y-150886897D01*
X108326615Y-150845750D01*
X108407606Y-150840889D01*
X108506741Y-150867452D01*
X108592594Y-150943582D01*
X108628880Y-151006431D01*
X108651884Y-151118846D01*
X108638602Y-151168414D01*
X108404397Y-152141615D02*
X108186682Y-151764523D01*
X108295540Y-151953069D02*
X108955451Y-151572069D01*
X108824892Y-151563649D01*
X108725758Y-151537086D01*
X108658048Y-151492380D01*
X108767254Y-152770102D02*
X108549540Y-152393010D01*
X108658397Y-152581556D02*
X109318308Y-152200556D01*
X109187749Y-152192136D01*
X109088615Y-152165573D01*
X109020905Y-152120867D01*
D18*
X98550185Y-151693033D02*
X98580423Y-151723271D01*
X98610661Y-151813985D01*
X98610661Y-151874461D01*
X98580423Y-151965176D01*
X98519947Y-152025652D01*
X98459471Y-152055890D01*
X98338519Y-152086128D01*
X98247804Y-152086128D01*
X98126852Y-152055890D01*
X98066376Y-152025652D01*
X98005900Y-151965176D01*
X97975661Y-151874461D01*
X97975661Y-151813985D01*
X98005900Y-151723271D01*
X98036138Y-151693033D01*
X97975661Y-151148747D02*
X97975661Y-151269700D01*
X98005900Y-151330176D01*
X98036138Y-151360414D01*
X98126852Y-151420890D01*
X98247804Y-151451128D01*
X98489709Y-151451128D01*
X98550185Y-151420890D01*
X98580423Y-151390652D01*
X98610661Y-151330176D01*
X98610661Y-151209223D01*
X98580423Y-151148747D01*
X98550185Y-151118509D01*
X98489709Y-151088271D01*
X98338519Y-151088271D01*
X98278042Y-151118509D01*
X98247804Y-151148747D01*
X98217566Y-151209223D01*
X98217566Y-151330176D01*
X98247804Y-151390652D01*
X98278042Y-151420890D01*
X98338519Y-151451128D01*
D11*
X91210368Y-149815131D02*
X90774184Y-149738157D01*
X90902474Y-150123025D02*
X90363658Y-149584210D01*
X90568921Y-149378947D01*
X90645895Y-149353289D01*
X90697211Y-149353289D01*
X90774184Y-149378947D01*
X90851158Y-149455920D01*
X90876816Y-149532894D01*
X90876816Y-149584210D01*
X90851158Y-149661183D01*
X90645895Y-149866446D01*
X91723525Y-149301973D02*
X91415631Y-149609868D01*
X91569578Y-149455920D02*
X91030763Y-148917105D01*
X91056421Y-149045394D01*
X91056421Y-149148026D01*
X91030763Y-149225000D01*
X91646552Y-148301316D02*
X91543920Y-148403948D01*
X91518262Y-148480921D01*
X91518262Y-148532237D01*
X91543920Y-148660526D01*
X91620894Y-148788816D01*
X91826157Y-148994079D01*
X91903131Y-149019737D01*
X91954446Y-149019737D01*
X92031420Y-148994079D01*
X92134051Y-148891447D01*
X92159709Y-148814474D01*
X92159709Y-148763158D01*
X92134051Y-148686184D01*
X92005762Y-148557895D01*
X91928788Y-148532237D01*
X91877473Y-148532237D01*
X91800499Y-148557895D01*
X91697868Y-148660526D01*
X91672210Y-148737500D01*
X91672210Y-148788816D01*
X91697868Y-148865789D01*
X92202000Y-106770714D02*
X91948000Y-106407857D01*
X91766571Y-106770714D02*
X91766571Y-106008714D01*
X92056857Y-106008714D01*
X92129428Y-106045000D01*
X92165714Y-106081285D01*
X92202000Y-106153857D01*
X92202000Y-106262714D01*
X92165714Y-106335285D01*
X92129428Y-106371571D01*
X92056857Y-106407857D01*
X91766571Y-106407857D01*
X92855142Y-106262714D02*
X92855142Y-106770714D01*
X92673714Y-105972428D02*
X92492285Y-106516714D01*
X92964000Y-106516714D01*
D18*
X117762261Y-150615952D02*
X117762261Y-150918333D01*
X117127261Y-150918333D01*
X117762261Y-150404285D02*
X117127261Y-150404285D01*
X117762261Y-150041428D01*
X117127261Y-150041428D01*
X117762261Y-149739047D02*
X117127261Y-149739047D01*
X117762261Y-149376190D02*
X117399404Y-149648333D01*
X117127261Y-149376190D02*
X117490119Y-149739047D01*
X117762261Y-148771428D02*
X117762261Y-149134285D01*
X117762261Y-148952857D02*
X117127261Y-148952857D01*
X117217976Y-149013333D01*
X117278452Y-149073809D01*
X117308690Y-149134285D01*
X117580833Y-153666976D02*
X117580833Y-153364595D01*
X117762261Y-153727452D02*
X117127261Y-153515785D01*
X117762261Y-153304119D01*
X117701785Y-152729595D02*
X117732023Y-152759833D01*
X117762261Y-152850547D01*
X117762261Y-152911023D01*
X117732023Y-153001738D01*
X117671547Y-153062214D01*
X117611071Y-153092452D01*
X117490119Y-153122690D01*
X117399404Y-153122690D01*
X117278452Y-153092452D01*
X117217976Y-153062214D01*
X117157500Y-153001738D01*
X117127261Y-152911023D01*
X117127261Y-152850547D01*
X117157500Y-152759833D01*
X117187738Y-152729595D01*
X117127261Y-152548166D02*
X117127261Y-152185309D01*
X117762261Y-152366738D02*
X117127261Y-152366738D01*
X117762261Y-151641023D02*
X117762261Y-152003880D01*
X117762261Y-151822452D02*
X117127261Y-151822452D01*
X117217976Y-151882928D01*
X117278452Y-151943404D01*
X117308690Y-152003880D01*
X114062224Y-107864473D02*
X114126368Y-107500987D01*
X113805645Y-107607895D02*
X114254658Y-107158882D01*
X114425710Y-107329934D01*
X114447092Y-107394079D01*
X114447092Y-107436842D01*
X114425710Y-107500987D01*
X114361565Y-107565131D01*
X114297421Y-107586513D01*
X114254658Y-107586513D01*
X114190513Y-107565131D01*
X114019460Y-107394079D01*
X114746434Y-107949999D02*
X114447092Y-108249341D01*
X114810578Y-107672039D02*
X114382947Y-107885855D01*
X114660907Y-108163815D01*
X115174065Y-108377631D02*
X114874723Y-108676973D01*
X115238209Y-108099670D02*
X114810578Y-108313486D01*
X115088539Y-108591446D01*
X114526785Y-110269261D02*
X114315119Y-109966880D01*
X114163928Y-110269261D02*
X114163928Y-109634261D01*
X114405833Y-109634261D01*
X114466309Y-109664500D01*
X114496547Y-109694738D01*
X114526785Y-109755214D01*
X114526785Y-109845928D01*
X114496547Y-109906404D01*
X114466309Y-109936642D01*
X114405833Y-109966880D01*
X114163928Y-109966880D01*
X114738452Y-109634261D02*
X115131547Y-109634261D01*
X114919880Y-109876166D01*
X115010595Y-109876166D01*
X115071071Y-109906404D01*
X115101309Y-109936642D01*
X115131547Y-109997119D01*
X115131547Y-110148309D01*
X115101309Y-110208785D01*
X115071071Y-110239023D01*
X115010595Y-110269261D01*
X114829166Y-110269261D01*
X114768690Y-110239023D01*
X114738452Y-110208785D01*
X115433928Y-110269261D02*
X115554880Y-110269261D01*
X115615357Y-110239023D01*
X115645595Y-110208785D01*
X115706071Y-110118071D01*
X115736309Y-109997119D01*
X115736309Y-109755214D01*
X115706071Y-109694738D01*
X115675833Y-109664500D01*
X115615357Y-109634261D01*
X115494404Y-109634261D01*
X115433928Y-109664500D01*
X115403690Y-109694738D01*
X115373452Y-109755214D01*
X115373452Y-109906404D01*
X115403690Y-109966880D01*
X115433928Y-109997119D01*
X115494404Y-110027357D01*
X115615357Y-110027357D01*
X115675833Y-109997119D01*
X115706071Y-109966880D01*
X115736309Y-109906404D01*
X114062224Y-105375273D02*
X114126368Y-105011787D01*
X113805645Y-105118695D02*
X114254658Y-104669682D01*
X114425710Y-104840734D01*
X114447092Y-104904879D01*
X114447092Y-104947642D01*
X114425710Y-105011787D01*
X114361565Y-105075931D01*
X114297421Y-105097313D01*
X114254658Y-105097313D01*
X114190513Y-105075931D01*
X114019460Y-104904879D01*
X114660907Y-105075931D02*
X114938868Y-105353892D01*
X114618144Y-105375273D01*
X114682289Y-105439418D01*
X114703670Y-105503563D01*
X114703670Y-105546326D01*
X114682289Y-105610470D01*
X114575381Y-105717378D01*
X114511236Y-105738760D01*
X114468473Y-105738760D01*
X114404329Y-105717378D01*
X114276039Y-105589089D01*
X114254658Y-105524944D01*
X114254658Y-105482181D01*
X115323736Y-105738760D02*
X115238209Y-105653234D01*
X115174065Y-105631852D01*
X115131302Y-105631852D01*
X115024394Y-105653234D01*
X114917486Y-105717378D01*
X114746434Y-105888431D01*
X114725052Y-105952575D01*
X114725052Y-105995339D01*
X114746434Y-106059483D01*
X114831960Y-106145009D01*
X114896104Y-106166391D01*
X114938868Y-106166391D01*
X115003012Y-106145009D01*
X115109920Y-106038102D01*
X115131302Y-105973957D01*
X115131302Y-105931194D01*
X115109920Y-105867049D01*
X115024394Y-105781523D01*
X114960249Y-105760141D01*
X114917486Y-105760141D01*
X114853341Y-105781523D01*
X117825761Y-106580214D02*
X117523380Y-106791880D01*
X117825761Y-106943071D02*
X117190761Y-106943071D01*
X117190761Y-106701166D01*
X117221000Y-106640690D01*
X117251238Y-106610452D01*
X117311714Y-106580214D01*
X117402428Y-106580214D01*
X117462904Y-106610452D01*
X117493142Y-106640690D01*
X117523380Y-106701166D01*
X117523380Y-106943071D01*
X117190761Y-106368547D02*
X117190761Y-105975452D01*
X117432666Y-106187119D01*
X117432666Y-106096404D01*
X117462904Y-106035928D01*
X117493142Y-106005690D01*
X117553619Y-105975452D01*
X117704809Y-105975452D01*
X117765285Y-106005690D01*
X117795523Y-106035928D01*
X117825761Y-106096404D01*
X117825761Y-106277833D01*
X117795523Y-106338309D01*
X117765285Y-106368547D01*
X117825761Y-105370690D02*
X117825761Y-105733547D01*
X117825761Y-105552119D02*
X117190761Y-105552119D01*
X117281476Y-105612595D01*
X117341952Y-105673071D01*
X117372190Y-105733547D01*
X98839261Y-154840214D02*
X98536880Y-155051880D01*
X98839261Y-155203071D02*
X98204261Y-155203071D01*
X98204261Y-154961166D01*
X98234500Y-154900690D01*
X98264738Y-154870452D01*
X98325214Y-154840214D01*
X98415928Y-154840214D01*
X98476404Y-154870452D01*
X98506642Y-154900690D01*
X98536880Y-154961166D01*
X98536880Y-155203071D01*
X98204261Y-154628547D02*
X98204261Y-154235452D01*
X98446166Y-154447119D01*
X98446166Y-154356404D01*
X98476404Y-154295928D01*
X98506642Y-154265690D01*
X98567119Y-154235452D01*
X98718309Y-154235452D01*
X98778785Y-154265690D01*
X98809023Y-154295928D01*
X98839261Y-154356404D01*
X98839261Y-154537833D01*
X98809023Y-154598309D01*
X98778785Y-154628547D01*
X98204261Y-153842357D02*
X98204261Y-153781880D01*
X98234500Y-153721404D01*
X98264738Y-153691166D01*
X98325214Y-153660928D01*
X98446166Y-153630690D01*
X98597357Y-153630690D01*
X98718309Y-153660928D01*
X98778785Y-153691166D01*
X98809023Y-153721404D01*
X98839261Y-153781880D01*
X98839261Y-153842357D01*
X98809023Y-153902833D01*
X98778785Y-153933071D01*
X98718309Y-153963309D01*
X98597357Y-153993547D01*
X98446166Y-153993547D01*
X98325214Y-153963309D01*
X98264738Y-153933071D01*
X98234500Y-153902833D01*
X98204261Y-153842357D01*
X97508785Y-150782261D02*
X97297119Y-150479880D01*
X97145928Y-150782261D02*
X97145928Y-150147261D01*
X97387833Y-150147261D01*
X97448309Y-150177500D01*
X97478547Y-150207738D01*
X97508785Y-150268214D01*
X97508785Y-150358928D01*
X97478547Y-150419404D01*
X97448309Y-150449642D01*
X97387833Y-150479880D01*
X97145928Y-150479880D01*
X97750690Y-150207738D02*
X97780928Y-150177500D01*
X97841404Y-150147261D01*
X97992595Y-150147261D01*
X98053071Y-150177500D01*
X98083309Y-150207738D01*
X98113547Y-150268214D01*
X98113547Y-150328690D01*
X98083309Y-150419404D01*
X97720452Y-150782261D01*
X98113547Y-150782261D01*
X98415928Y-150782261D02*
X98536880Y-150782261D01*
X98597357Y-150752023D01*
X98627595Y-150721785D01*
X98688071Y-150631071D01*
X98718309Y-150510119D01*
X98718309Y-150268214D01*
X98688071Y-150207738D01*
X98657833Y-150177500D01*
X98597357Y-150147261D01*
X98476404Y-150147261D01*
X98415928Y-150177500D01*
X98385690Y-150207738D01*
X98355452Y-150268214D01*
X98355452Y-150419404D01*
X98385690Y-150479880D01*
X98415928Y-150510119D01*
X98476404Y-150540357D01*
X98597357Y-150540357D01*
X98657833Y-150510119D01*
X98688071Y-150479880D01*
X98718309Y-150419404D01*
X114653785Y-147480261D02*
X114442119Y-147177880D01*
X114290928Y-147480261D02*
X114290928Y-146845261D01*
X114532833Y-146845261D01*
X114593309Y-146875500D01*
X114623547Y-146905738D01*
X114653785Y-146966214D01*
X114653785Y-147056928D01*
X114623547Y-147117404D01*
X114593309Y-147147642D01*
X114532833Y-147177880D01*
X114290928Y-147177880D01*
X114895690Y-146905738D02*
X114925928Y-146875500D01*
X114986404Y-146845261D01*
X115137595Y-146845261D01*
X115198071Y-146875500D01*
X115228309Y-146905738D01*
X115258547Y-146966214D01*
X115258547Y-147026690D01*
X115228309Y-147117404D01*
X114865452Y-147480261D01*
X115258547Y-147480261D01*
X115833071Y-146845261D02*
X115530690Y-146845261D01*
X115500452Y-147147642D01*
X115530690Y-147117404D01*
X115591166Y-147087166D01*
X115742357Y-147087166D01*
X115802833Y-147117404D01*
X115833071Y-147147642D01*
X115863309Y-147208119D01*
X115863309Y-147359309D01*
X115833071Y-147419785D01*
X115802833Y-147450023D01*
X115742357Y-147480261D01*
X115591166Y-147480261D01*
X115530690Y-147450023D01*
X115500452Y-147419785D01*
X96160166Y-165641261D02*
X95948500Y-165338880D01*
X95797309Y-165641261D02*
X95797309Y-165006261D01*
X96039214Y-165006261D01*
X96099690Y-165036500D01*
X96129928Y-165066738D01*
X96160166Y-165127214D01*
X96160166Y-165217928D01*
X96129928Y-165278404D01*
X96099690Y-165308642D01*
X96039214Y-165338880D01*
X95797309Y-165338880D01*
X96734690Y-165006261D02*
X96432309Y-165006261D01*
X96402071Y-165308642D01*
X96432309Y-165278404D01*
X96492785Y-165248166D01*
X96643976Y-165248166D01*
X96704452Y-165278404D01*
X96734690Y-165308642D01*
X96764928Y-165369119D01*
X96764928Y-165520309D01*
X96734690Y-165580785D01*
X96704452Y-165611023D01*
X96643976Y-165641261D01*
X96492785Y-165641261D01*
X96432309Y-165611023D01*
X96402071Y-165580785D01*
X112621785Y-153703261D02*
X112410119Y-153400880D01*
X112258928Y-153703261D02*
X112258928Y-153068261D01*
X112500833Y-153068261D01*
X112561309Y-153098500D01*
X112591547Y-153128738D01*
X112621785Y-153189214D01*
X112621785Y-153279928D01*
X112591547Y-153340404D01*
X112561309Y-153370642D01*
X112500833Y-153400880D01*
X112258928Y-153400880D01*
X113226547Y-153703261D02*
X112863690Y-153703261D01*
X113045119Y-153703261D02*
X113045119Y-153068261D01*
X112984642Y-153158976D01*
X112924166Y-153219452D01*
X112863690Y-153249690D01*
X113438214Y-153068261D02*
X113831309Y-153068261D01*
X113619642Y-153310166D01*
X113710357Y-153310166D01*
X113770833Y-153340404D01*
X113801071Y-153370642D01*
X113831309Y-153431119D01*
X113831309Y-153582309D01*
X113801071Y-153642785D01*
X113770833Y-153673023D01*
X113710357Y-153703261D01*
X113528928Y-153703261D01*
X113468452Y-153673023D01*
X113438214Y-153642785D01*
X114780785Y-153703261D02*
X114569119Y-153400880D01*
X114417928Y-153703261D02*
X114417928Y-153068261D01*
X114659833Y-153068261D01*
X114720309Y-153098500D01*
X114750547Y-153128738D01*
X114780785Y-153189214D01*
X114780785Y-153279928D01*
X114750547Y-153340404D01*
X114720309Y-153370642D01*
X114659833Y-153400880D01*
X114417928Y-153400880D01*
X115385547Y-153703261D02*
X115022690Y-153703261D01*
X115204119Y-153703261D02*
X115204119Y-153068261D01*
X115143642Y-153158976D01*
X115083166Y-153219452D01*
X115022690Y-153249690D01*
X115627452Y-153128738D02*
X115657690Y-153098500D01*
X115718166Y-153068261D01*
X115869357Y-153068261D01*
X115929833Y-153098500D01*
X115960071Y-153128738D01*
X115990309Y-153189214D01*
X115990309Y-153249690D01*
X115960071Y-153340404D01*
X115597214Y-153703261D01*
X115990309Y-153703261D01*
X108684785Y-153703261D02*
X108473119Y-153400880D01*
X108321928Y-153703261D02*
X108321928Y-153068261D01*
X108563833Y-153068261D01*
X108624309Y-153098500D01*
X108654547Y-153128738D01*
X108684785Y-153189214D01*
X108684785Y-153279928D01*
X108654547Y-153340404D01*
X108624309Y-153370642D01*
X108563833Y-153400880D01*
X108321928Y-153400880D01*
X109289547Y-153703261D02*
X108926690Y-153703261D01*
X109108119Y-153703261D02*
X109108119Y-153068261D01*
X109047642Y-153158976D01*
X108987166Y-153219452D01*
X108926690Y-153249690D01*
X109894309Y-153703261D02*
X109531452Y-153703261D01*
X109712880Y-153703261D02*
X109712880Y-153068261D01*
X109652404Y-153158976D01*
X109591928Y-153219452D01*
X109531452Y-153249690D01*
X110589785Y-153703261D02*
X110378119Y-153400880D01*
X110226928Y-153703261D02*
X110226928Y-153068261D01*
X110468833Y-153068261D01*
X110529309Y-153098500D01*
X110559547Y-153128738D01*
X110589785Y-153189214D01*
X110589785Y-153279928D01*
X110559547Y-153340404D01*
X110529309Y-153370642D01*
X110468833Y-153400880D01*
X110226928Y-153400880D01*
X111194547Y-153703261D02*
X110831690Y-153703261D01*
X111013119Y-153703261D02*
X111013119Y-153068261D01*
X110952642Y-153158976D01*
X110892166Y-153219452D01*
X110831690Y-153249690D01*
X111587642Y-153068261D02*
X111648119Y-153068261D01*
X111708595Y-153098500D01*
X111738833Y-153128738D01*
X111769071Y-153189214D01*
X111799309Y-153310166D01*
X111799309Y-153461357D01*
X111769071Y-153582309D01*
X111738833Y-153642785D01*
X111708595Y-153673023D01*
X111648119Y-153703261D01*
X111587642Y-153703261D01*
X111527166Y-153673023D01*
X111496928Y-153642785D01*
X111466690Y-153582309D01*
X111436452Y-153461357D01*
X111436452Y-153310166D01*
X111466690Y-153189214D01*
X111496928Y-153128738D01*
X111527166Y-153098500D01*
X111587642Y-153068261D01*
X97684166Y-165641261D02*
X97472500Y-165338880D01*
X97321309Y-165641261D02*
X97321309Y-165006261D01*
X97563214Y-165006261D01*
X97623690Y-165036500D01*
X97653928Y-165066738D01*
X97684166Y-165127214D01*
X97684166Y-165217928D01*
X97653928Y-165278404D01*
X97623690Y-165308642D01*
X97563214Y-165338880D01*
X97321309Y-165338880D01*
X98047023Y-165278404D02*
X97986547Y-165248166D01*
X97956309Y-165217928D01*
X97926071Y-165157452D01*
X97926071Y-165127214D01*
X97956309Y-165066738D01*
X97986547Y-165036500D01*
X98047023Y-165006261D01*
X98167976Y-165006261D01*
X98228452Y-165036500D01*
X98258690Y-165066738D01*
X98288928Y-165127214D01*
X98288928Y-165157452D01*
X98258690Y-165217928D01*
X98228452Y-165248166D01*
X98167976Y-165278404D01*
X98047023Y-165278404D01*
X97986547Y-165308642D01*
X97956309Y-165338880D01*
X97926071Y-165399357D01*
X97926071Y-165520309D01*
X97956309Y-165580785D01*
X97986547Y-165611023D01*
X98047023Y-165641261D01*
X98167976Y-165641261D01*
X98228452Y-165611023D01*
X98258690Y-165580785D01*
X98288928Y-165520309D01*
X98288928Y-165399357D01*
X98258690Y-165338880D01*
X98228452Y-165308642D01*
X98167976Y-165278404D01*
X97442261Y-139854214D02*
X97139880Y-140065880D01*
X97442261Y-140217071D02*
X96807261Y-140217071D01*
X96807261Y-139975166D01*
X96837500Y-139914690D01*
X96867738Y-139884452D01*
X96928214Y-139854214D01*
X97018928Y-139854214D01*
X97079404Y-139884452D01*
X97109642Y-139914690D01*
X97139880Y-139975166D01*
X97139880Y-140217071D01*
X96867738Y-139612309D02*
X96837500Y-139582071D01*
X96807261Y-139521595D01*
X96807261Y-139370404D01*
X96837500Y-139309928D01*
X96867738Y-139279690D01*
X96928214Y-139249452D01*
X96988690Y-139249452D01*
X97079404Y-139279690D01*
X97442261Y-139642547D01*
X97442261Y-139249452D01*
X97018928Y-138705166D02*
X97442261Y-138705166D01*
X96777023Y-138856357D02*
X97230595Y-139007547D01*
X97230595Y-138614452D01*
X95842666Y-149959785D02*
X95812428Y-149990023D01*
X95721714Y-150020261D01*
X95661238Y-150020261D01*
X95570523Y-149990023D01*
X95510047Y-149929547D01*
X95479809Y-149869071D01*
X95449571Y-149748119D01*
X95449571Y-149657404D01*
X95479809Y-149536452D01*
X95510047Y-149475976D01*
X95570523Y-149415500D01*
X95661238Y-149385261D01*
X95721714Y-149385261D01*
X95812428Y-149415500D01*
X95842666Y-149445738D01*
X96205523Y-149657404D02*
X96145047Y-149627166D01*
X96114809Y-149596928D01*
X96084571Y-149536452D01*
X96084571Y-149506214D01*
X96114809Y-149445738D01*
X96145047Y-149415500D01*
X96205523Y-149385261D01*
X96326476Y-149385261D01*
X96386952Y-149415500D01*
X96417190Y-149445738D01*
X96447428Y-149506214D01*
X96447428Y-149536452D01*
X96417190Y-149596928D01*
X96386952Y-149627166D01*
X96326476Y-149657404D01*
X96205523Y-149657404D01*
X96145047Y-149687642D01*
X96114809Y-149717880D01*
X96084571Y-149778357D01*
X96084571Y-149899309D01*
X96114809Y-149959785D01*
X96145047Y-149990023D01*
X96205523Y-150020261D01*
X96326476Y-150020261D01*
X96386952Y-149990023D01*
X96417190Y-149959785D01*
X96447428Y-149899309D01*
X96447428Y-149778357D01*
X96417190Y-149717880D01*
X96386952Y-149687642D01*
X96326476Y-149657404D01*
D11*
X93091000Y-144235714D02*
X92728142Y-144235714D01*
X92728142Y-143473714D01*
X93671571Y-143727714D02*
X93671571Y-144235714D01*
X93490142Y-143437428D02*
X93308714Y-143981714D01*
X93780428Y-143981714D01*
D10*
X111518095Y-136857619D02*
X111518095Y-135841619D01*
X111760000Y-135841619D01*
X111905142Y-135890000D01*
X112001904Y-135986761D01*
X112050285Y-136083523D01*
X112098666Y-136277047D01*
X112098666Y-136422190D01*
X112050285Y-136615714D01*
X112001904Y-136712476D01*
X111905142Y-136809238D01*
X111760000Y-136857619D01*
X111518095Y-136857619D01*
X113017904Y-135841619D02*
X112534095Y-135841619D01*
X112485714Y-136325428D01*
X112534095Y-136277047D01*
X112630857Y-136228666D01*
X112872761Y-136228666D01*
X112969523Y-136277047D01*
X113017904Y-136325428D01*
X113066285Y-136422190D01*
X113066285Y-136664095D01*
X113017904Y-136760857D01*
X112969523Y-136809238D01*
X112872761Y-136857619D01*
X112630857Y-136857619D01*
X112534095Y-136809238D01*
X112485714Y-136760857D01*
D18*
X91733309Y-154084261D02*
X91733309Y-153449261D01*
X91884500Y-153449261D01*
X91975214Y-153479500D01*
X92035690Y-153539976D01*
X92065928Y-153600452D01*
X92096166Y-153721404D01*
X92096166Y-153812119D01*
X92065928Y-153933071D01*
X92035690Y-153993547D01*
X91975214Y-154054023D01*
X91884500Y-154084261D01*
X91733309Y-154084261D01*
X92307833Y-153449261D02*
X92700928Y-153449261D01*
X92489261Y-153691166D01*
X92579976Y-153691166D01*
X92640452Y-153721404D01*
X92670690Y-153751642D01*
X92700928Y-153812119D01*
X92700928Y-153963309D01*
X92670690Y-154023785D01*
X92640452Y-154054023D01*
X92579976Y-154084261D01*
X92398547Y-154084261D01*
X92338071Y-154054023D01*
X92307833Y-154023785D01*
D12*
X95225809Y-163860238D02*
X94717809Y-163860238D01*
X94717809Y-163666714D01*
X94742000Y-163618333D01*
X94766190Y-163594142D01*
X94814571Y-163569952D01*
X94887142Y-163569952D01*
X94935523Y-163594142D01*
X94959714Y-163618333D01*
X94983904Y-163666714D01*
X94983904Y-163860238D01*
X94717809Y-163400619D02*
X95225809Y-163279666D01*
X94862952Y-163182904D01*
X95225809Y-163086142D01*
X94717809Y-162965190D01*
X95225809Y-162481380D02*
X94983904Y-162650714D01*
X95225809Y-162771666D02*
X94717809Y-162771666D01*
X94717809Y-162578142D01*
X94742000Y-162529761D01*
X94766190Y-162505571D01*
X94814571Y-162481380D01*
X94887142Y-162481380D01*
X94935523Y-162505571D01*
X94959714Y-162529761D01*
X94983904Y-162578142D01*
X94983904Y-162771666D01*
X95225809Y-161997571D02*
X95225809Y-162287857D01*
X95225809Y-162142714D02*
X94717809Y-162142714D01*
X94790380Y-162191095D01*
X94838761Y-162239476D01*
X94862952Y-162287857D01*
D18*
X115542785Y-148562785D02*
X115512547Y-148593023D01*
X115421833Y-148623261D01*
X115361357Y-148623261D01*
X115270642Y-148593023D01*
X115210166Y-148532547D01*
X115179928Y-148472071D01*
X115149690Y-148351119D01*
X115149690Y-148260404D01*
X115179928Y-148139452D01*
X115210166Y-148078976D01*
X115270642Y-148018500D01*
X115361357Y-147988261D01*
X115421833Y-147988261D01*
X115512547Y-148018500D01*
X115542785Y-148048738D01*
X115784690Y-148048738D02*
X115814928Y-148018500D01*
X115875404Y-147988261D01*
X116026595Y-147988261D01*
X116087071Y-148018500D01*
X116117309Y-148048738D01*
X116147547Y-148109214D01*
X116147547Y-148169690D01*
X116117309Y-148260404D01*
X115754452Y-148623261D01*
X116147547Y-148623261D01*
X116752309Y-148623261D02*
X116389452Y-148623261D01*
X116570880Y-148623261D02*
X116570880Y-147988261D01*
X116510404Y-148078976D01*
X116449928Y-148139452D01*
X116389452Y-148169690D01*
X99413785Y-165538452D02*
X99444023Y-165568690D01*
X99474261Y-165659404D01*
X99474261Y-165719880D01*
X99444023Y-165810595D01*
X99383547Y-165871071D01*
X99323071Y-165901309D01*
X99202119Y-165931547D01*
X99111404Y-165931547D01*
X98990452Y-165901309D01*
X98929976Y-165871071D01*
X98869500Y-165810595D01*
X98839261Y-165719880D01*
X98839261Y-165659404D01*
X98869500Y-165568690D01*
X98899738Y-165538452D01*
X99474261Y-165266309D02*
X98839261Y-165266309D01*
X99141642Y-165266309D02*
X99141642Y-164903452D01*
X99474261Y-164903452D02*
X98839261Y-164903452D01*
X99474261Y-164238214D02*
X99171880Y-164449880D01*
X99474261Y-164601071D02*
X98839261Y-164601071D01*
X98839261Y-164359166D01*
X98869500Y-164298690D01*
X98899738Y-164268452D01*
X98960214Y-164238214D01*
X99050928Y-164238214D01*
X99111404Y-164268452D01*
X99141642Y-164298690D01*
X99171880Y-164359166D01*
X99171880Y-164601071D01*
X98869500Y-163633452D02*
X98839261Y-163693928D01*
X98839261Y-163784642D01*
X98869500Y-163875357D01*
X98929976Y-163935833D01*
X98990452Y-163966071D01*
X99111404Y-163996309D01*
X99202119Y-163996309D01*
X99323071Y-163966071D01*
X99383547Y-163935833D01*
X99444023Y-163875357D01*
X99474261Y-163784642D01*
X99474261Y-163724166D01*
X99444023Y-163633452D01*
X99413785Y-163603214D01*
X99202119Y-163603214D01*
X99202119Y-163724166D01*
X99474261Y-162998452D02*
X99474261Y-163361309D01*
X99474261Y-163179880D02*
X98839261Y-163179880D01*
X98929976Y-163240357D01*
X98990452Y-163300833D01*
X99020690Y-163361309D01*
D11*
X98769714Y-162070142D02*
X99386571Y-162070142D01*
X99459142Y-162033857D01*
X99495428Y-161997571D01*
X99531714Y-161925000D01*
X99531714Y-161779857D01*
X99495428Y-161707285D01*
X99459142Y-161671000D01*
X99386571Y-161634714D01*
X98769714Y-161634714D01*
X99495428Y-161308142D02*
X99531714Y-161199285D01*
X99531714Y-161017857D01*
X99495428Y-160945285D01*
X99459142Y-160909000D01*
X99386571Y-160872714D01*
X99314000Y-160872714D01*
X99241428Y-160909000D01*
X99205142Y-160945285D01*
X99168857Y-161017857D01*
X99132571Y-161163000D01*
X99096285Y-161235571D01*
X99060000Y-161271857D01*
X98987428Y-161308142D01*
X98914857Y-161308142D01*
X98842285Y-161271857D01*
X98806000Y-161235571D01*
X98769714Y-161163000D01*
X98769714Y-160981571D01*
X98806000Y-160872714D01*
X99132571Y-160292142D02*
X99168857Y-160183285D01*
X99205142Y-160147000D01*
X99277714Y-160110714D01*
X99386571Y-160110714D01*
X99459142Y-160147000D01*
X99495428Y-160183285D01*
X99531714Y-160255857D01*
X99531714Y-160546142D01*
X98769714Y-160546142D01*
X98769714Y-160292142D01*
X98806000Y-160219571D01*
X98842285Y-160183285D01*
X98914857Y-160147000D01*
X98987428Y-160147000D01*
X99060000Y-160183285D01*
X99096285Y-160219571D01*
X99132571Y-160292142D01*
X99132571Y-160546142D01*
X99241428Y-159784142D02*
X99241428Y-159203571D01*
X98769714Y-158840714D02*
X99386571Y-158840714D01*
X99459142Y-158804428D01*
X99495428Y-158768142D01*
X99531714Y-158695571D01*
X99531714Y-158550428D01*
X99495428Y-158477857D01*
X99459142Y-158441571D01*
X99386571Y-158405285D01*
X98769714Y-158405285D01*
X99314000Y-158078714D02*
X99314000Y-157715857D01*
X99531714Y-158151285D02*
X98769714Y-157897285D01*
X99531714Y-157643285D01*
X99531714Y-156953857D02*
X99168857Y-157207857D01*
X99531714Y-157389285D02*
X98769714Y-157389285D01*
X98769714Y-157099000D01*
X98806000Y-157026428D01*
X98842285Y-156990142D01*
X98914857Y-156953857D01*
X99023714Y-156953857D01*
X99096285Y-156990142D01*
X99132571Y-157026428D01*
X99168857Y-157099000D01*
X99168857Y-157389285D01*
X98769714Y-156736142D02*
X98769714Y-156300714D01*
X99531714Y-156518428D02*
X98769714Y-156518428D01*
X99531714Y-155647571D02*
X99531714Y-156083000D01*
X99531714Y-155865285D02*
X98769714Y-155865285D01*
X98878571Y-155937857D01*
X98951142Y-156010428D01*
X98987428Y-156083000D01*
D18*
X92858166Y-146004642D02*
X92646500Y-146004642D01*
X92646500Y-146337261D02*
X92646500Y-145702261D01*
X92948880Y-145702261D01*
X93190785Y-146004642D02*
X93402452Y-146004642D01*
X93493166Y-146337261D02*
X93190785Y-146337261D01*
X93190785Y-145702261D01*
X93493166Y-145702261D01*
X93674595Y-145702261D02*
X94037452Y-145702261D01*
X93856023Y-146337261D02*
X93856023Y-145702261D01*
X94218880Y-145762738D02*
X94249119Y-145732500D01*
X94309595Y-145702261D01*
X94460785Y-145702261D01*
X94521261Y-145732500D01*
X94551500Y-145762738D01*
X94581738Y-145823214D01*
X94581738Y-145883690D01*
X94551500Y-145974404D01*
X94188642Y-146337261D01*
X94581738Y-146337261D01*
D11*
X98116571Y-139065000D02*
X98116571Y-139319000D01*
X98515714Y-139319000D02*
X97753714Y-139319000D01*
X97753714Y-138956142D01*
X98116571Y-138665857D02*
X98116571Y-138411857D01*
X98515714Y-138303000D02*
X98515714Y-138665857D01*
X97753714Y-138665857D01*
X97753714Y-138303000D01*
X97753714Y-138085285D02*
X97753714Y-137649857D01*
X98515714Y-137867571D02*
X97753714Y-137867571D01*
X98515714Y-136996714D02*
X98515714Y-137432142D01*
X98515714Y-137214428D02*
X97753714Y-137214428D01*
X97862571Y-137287000D01*
X97935142Y-137359571D01*
X97971428Y-137432142D01*
D12*
X115624428Y-96368809D02*
X115455095Y-96126904D01*
X115334142Y-96368809D02*
X115334142Y-95860809D01*
X115527666Y-95860809D01*
X115576047Y-95885000D01*
X115600238Y-95909190D01*
X115624428Y-95957571D01*
X115624428Y-96030142D01*
X115600238Y-96078523D01*
X115576047Y-96102714D01*
X115527666Y-96126904D01*
X115334142Y-96126904D01*
X116059857Y-96030142D02*
X116059857Y-96368809D01*
X115938904Y-95836619D02*
X115817952Y-96199476D01*
X116132428Y-96199476D01*
X116277571Y-95860809D02*
X116616238Y-95860809D01*
X116398523Y-96368809D01*
D18*
X114714261Y-103659214D02*
X114411880Y-103870880D01*
X114714261Y-104022071D02*
X114079261Y-104022071D01*
X114079261Y-103780166D01*
X114109500Y-103719690D01*
X114139738Y-103689452D01*
X114200214Y-103659214D01*
X114290928Y-103659214D01*
X114351404Y-103689452D01*
X114381642Y-103719690D01*
X114411880Y-103780166D01*
X114411880Y-104022071D01*
X114290928Y-103114928D02*
X114714261Y-103114928D01*
X114049023Y-103266119D02*
X114502595Y-103417309D01*
X114502595Y-103024214D01*
X114714261Y-102752071D02*
X114714261Y-102631119D01*
X114684023Y-102570642D01*
X114653785Y-102540404D01*
X114563071Y-102479928D01*
X114442119Y-102449690D01*
X114200214Y-102449690D01*
X114139738Y-102479928D01*
X114109500Y-102510166D01*
X114079261Y-102570642D01*
X114079261Y-102691595D01*
X114109500Y-102752071D01*
X114139738Y-102782309D01*
X114200214Y-102812547D01*
X114351404Y-102812547D01*
X114411880Y-102782309D01*
X114442119Y-102752071D01*
X114472357Y-102691595D01*
X114472357Y-102570642D01*
X114442119Y-102510166D01*
X114411880Y-102479928D01*
X114351404Y-102449690D01*
X117889261Y-102643214D02*
X117586880Y-102854880D01*
X117889261Y-103006071D02*
X117254261Y-103006071D01*
X117254261Y-102764166D01*
X117284500Y-102703690D01*
X117314738Y-102673452D01*
X117375214Y-102643214D01*
X117465928Y-102643214D01*
X117526404Y-102673452D01*
X117556642Y-102703690D01*
X117586880Y-102764166D01*
X117586880Y-103006071D01*
X117465928Y-102098928D02*
X117889261Y-102098928D01*
X117224023Y-102250119D02*
X117677595Y-102401309D01*
X117677595Y-102008214D01*
X117526404Y-101675595D02*
X117496166Y-101736071D01*
X117465928Y-101766309D01*
X117405452Y-101796547D01*
X117375214Y-101796547D01*
X117314738Y-101766309D01*
X117284500Y-101736071D01*
X117254261Y-101675595D01*
X117254261Y-101554642D01*
X117284500Y-101494166D01*
X117314738Y-101463928D01*
X117375214Y-101433690D01*
X117405452Y-101433690D01*
X117465928Y-101463928D01*
X117496166Y-101494166D01*
X117526404Y-101554642D01*
X117526404Y-101675595D01*
X117556642Y-101736071D01*
X117586880Y-101766309D01*
X117647357Y-101796547D01*
X117768309Y-101796547D01*
X117828785Y-101766309D01*
X117859023Y-101736071D01*
X117889261Y-101675595D01*
X117889261Y-101554642D01*
X117859023Y-101494166D01*
X117828785Y-101463928D01*
X117768309Y-101433690D01*
X117647357Y-101433690D01*
X117586880Y-101463928D01*
X117556642Y-101494166D01*
X117526404Y-101554642D01*
X93384309Y-142781261D02*
X93384309Y-142146261D01*
X93535500Y-142146261D01*
X93626214Y-142176500D01*
X93686690Y-142236976D01*
X93716928Y-142297452D01*
X93747166Y-142418404D01*
X93747166Y-142509119D01*
X93716928Y-142630071D01*
X93686690Y-142690547D01*
X93626214Y-142751023D01*
X93535500Y-142781261D01*
X93384309Y-142781261D01*
X93989071Y-142206738D02*
X94019309Y-142176500D01*
X94079785Y-142146261D01*
X94230976Y-142146261D01*
X94291452Y-142176500D01*
X94321690Y-142206738D01*
X94351928Y-142267214D01*
X94351928Y-142327690D01*
X94321690Y-142418404D01*
X93958833Y-142781261D01*
X94351928Y-142781261D01*
D10*
X102670428Y-129999619D02*
X102670428Y-130822095D01*
X102718809Y-130918857D01*
X102767190Y-130967238D01*
X102863952Y-131015619D01*
X103057476Y-131015619D01*
X103154238Y-130967238D01*
X103202619Y-130918857D01*
X103251000Y-130822095D01*
X103251000Y-129999619D01*
X103734809Y-130483428D02*
X104073476Y-130483428D01*
X104218619Y-131015619D02*
X103734809Y-131015619D01*
X103734809Y-129999619D01*
X104218619Y-129999619D01*
X104557285Y-129999619D02*
X105234619Y-131015619D01*
X105234619Y-129999619D02*
X104557285Y-131015619D01*
X105476523Y-129999619D02*
X106057095Y-129999619D01*
X105766809Y-131015619D02*
X105766809Y-129999619D01*
X106927952Y-131015619D02*
X106347380Y-131015619D01*
X106637666Y-131015619D02*
X106637666Y-129999619D01*
X106540904Y-130144761D01*
X106444142Y-130241523D01*
X106347380Y-130289904D01*
X96792142Y-122488476D02*
X96852619Y-122428000D01*
X96973571Y-122367523D01*
X97275952Y-122367523D01*
X97396904Y-122428000D01*
X97457380Y-122488476D01*
X97517857Y-122609428D01*
X97517857Y-122730380D01*
X97457380Y-122911809D01*
X96731666Y-123637523D01*
X97517857Y-123637523D01*
X97517857Y-126177523D02*
X96792142Y-126177523D01*
X97155000Y-126177523D02*
X97155000Y-124907523D01*
X97034047Y-125088952D01*
X96913095Y-125209904D01*
X96792142Y-125270380D01*
D11*
X91331142Y-103341714D02*
X91077142Y-102978857D01*
X90895714Y-103341714D02*
X90895714Y-102579714D01*
X91186000Y-102579714D01*
X91258571Y-102616000D01*
X91294857Y-102652285D01*
X91331142Y-102724857D01*
X91331142Y-102833714D01*
X91294857Y-102906285D01*
X91258571Y-102942571D01*
X91186000Y-102978857D01*
X90895714Y-102978857D01*
X91585142Y-102579714D02*
X92056857Y-102579714D01*
X91802857Y-102870000D01*
X91911714Y-102870000D01*
X91984285Y-102906285D01*
X92020571Y-102942571D01*
X92056857Y-103015142D01*
X92056857Y-103196571D01*
X92020571Y-103269142D01*
X91984285Y-103305428D01*
X91911714Y-103341714D01*
X91694000Y-103341714D01*
X91621428Y-103305428D01*
X91585142Y-103269142D01*
X92347142Y-102652285D02*
X92383428Y-102616000D01*
X92456000Y-102579714D01*
X92637428Y-102579714D01*
X92710000Y-102616000D01*
X92746285Y-102652285D01*
X92782571Y-102724857D01*
X92782571Y-102797428D01*
X92746285Y-102906285D01*
X92310857Y-103341714D01*
X92782571Y-103341714D01*
X99078142Y-131590142D02*
X99041857Y-131626428D01*
X98933000Y-131662714D01*
X98860428Y-131662714D01*
X98751571Y-131626428D01*
X98679000Y-131553857D01*
X98642714Y-131481285D01*
X98606428Y-131336142D01*
X98606428Y-131227285D01*
X98642714Y-131082142D01*
X98679000Y-131009571D01*
X98751571Y-130937000D01*
X98860428Y-130900714D01*
X98933000Y-130900714D01*
X99041857Y-130937000D01*
X99078142Y-130973285D01*
X99368428Y-130973285D02*
X99404714Y-130937000D01*
X99477285Y-130900714D01*
X99658714Y-130900714D01*
X99731285Y-130937000D01*
X99767571Y-130973285D01*
X99803857Y-131045857D01*
X99803857Y-131118428D01*
X99767571Y-131227285D01*
X99332142Y-131662714D01*
X99803857Y-131662714D01*
X100057857Y-130900714D02*
X100529571Y-130900714D01*
X100275571Y-131191000D01*
X100384428Y-131191000D01*
X100457000Y-131227285D01*
X100493285Y-131263571D01*
X100529571Y-131336142D01*
X100529571Y-131517571D01*
X100493285Y-131590142D01*
X100457000Y-131626428D01*
X100384428Y-131662714D01*
X100166714Y-131662714D01*
X100094142Y-131626428D01*
X100057857Y-131590142D01*
X103269142Y-139282714D02*
X103015142Y-138919857D01*
X102833714Y-139282714D02*
X102833714Y-138520714D01*
X103124000Y-138520714D01*
X103196571Y-138557000D01*
X103232857Y-138593285D01*
X103269142Y-138665857D01*
X103269142Y-138774714D01*
X103232857Y-138847285D01*
X103196571Y-138883571D01*
X103124000Y-138919857D01*
X102833714Y-138919857D01*
X103523142Y-138520714D02*
X103994857Y-138520714D01*
X103740857Y-138811000D01*
X103849714Y-138811000D01*
X103922285Y-138847285D01*
X103958571Y-138883571D01*
X103994857Y-138956142D01*
X103994857Y-139137571D01*
X103958571Y-139210142D01*
X103922285Y-139246428D01*
X103849714Y-139282714D01*
X103632000Y-139282714D01*
X103559428Y-139246428D01*
X103523142Y-139210142D01*
X104248857Y-138520714D02*
X104720571Y-138520714D01*
X104466571Y-138811000D01*
X104575428Y-138811000D01*
X104648000Y-138847285D01*
X104684285Y-138883571D01*
X104720571Y-138956142D01*
X104720571Y-139137571D01*
X104684285Y-139210142D01*
X104648000Y-139246428D01*
X104575428Y-139282714D01*
X104357714Y-139282714D01*
X104285142Y-139246428D01*
X104248857Y-139210142D01*
X99078142Y-130519714D02*
X98824142Y-130156857D01*
X98642714Y-130519714D02*
X98642714Y-129757714D01*
X98933000Y-129757714D01*
X99005571Y-129794000D01*
X99041857Y-129830285D01*
X99078142Y-129902857D01*
X99078142Y-130011714D01*
X99041857Y-130084285D01*
X99005571Y-130120571D01*
X98933000Y-130156857D01*
X98642714Y-130156857D01*
X99332142Y-129757714D02*
X99803857Y-129757714D01*
X99549857Y-130048000D01*
X99658714Y-130048000D01*
X99731285Y-130084285D01*
X99767571Y-130120571D01*
X99803857Y-130193142D01*
X99803857Y-130374571D01*
X99767571Y-130447142D01*
X99731285Y-130483428D01*
X99658714Y-130519714D01*
X99441000Y-130519714D01*
X99368428Y-130483428D01*
X99332142Y-130447142D01*
X100457000Y-130011714D02*
X100457000Y-130519714D01*
X100275571Y-129721428D02*
X100094142Y-130265714D01*
X100565857Y-130265714D01*
X99078142Y-132805714D02*
X98824142Y-132442857D01*
X98642714Y-132805714D02*
X98642714Y-132043714D01*
X98933000Y-132043714D01*
X99005571Y-132080000D01*
X99041857Y-132116285D01*
X99078142Y-132188857D01*
X99078142Y-132297714D01*
X99041857Y-132370285D01*
X99005571Y-132406571D01*
X98933000Y-132442857D01*
X98642714Y-132442857D01*
X99332142Y-132043714D02*
X99803857Y-132043714D01*
X99549857Y-132334000D01*
X99658714Y-132334000D01*
X99731285Y-132370285D01*
X99767571Y-132406571D01*
X99803857Y-132479142D01*
X99803857Y-132660571D01*
X99767571Y-132733142D01*
X99731285Y-132769428D01*
X99658714Y-132805714D01*
X99441000Y-132805714D01*
X99368428Y-132769428D01*
X99332142Y-132733142D01*
X100239285Y-132370285D02*
X100166714Y-132334000D01*
X100130428Y-132297714D01*
X100094142Y-132225142D01*
X100094142Y-132188857D01*
X100130428Y-132116285D01*
X100166714Y-132080000D01*
X100239285Y-132043714D01*
X100384428Y-132043714D01*
X100457000Y-132080000D01*
X100493285Y-132116285D01*
X100529571Y-132188857D01*
X100529571Y-132225142D01*
X100493285Y-132297714D01*
X100457000Y-132334000D01*
X100384428Y-132370285D01*
X100239285Y-132370285D01*
X100166714Y-132406571D01*
X100130428Y-132442857D01*
X100094142Y-132515428D01*
X100094142Y-132660571D01*
X100130428Y-132733142D01*
X100166714Y-132769428D01*
X100239285Y-132805714D01*
X100384428Y-132805714D01*
X100457000Y-132769428D01*
X100493285Y-132733142D01*
X100529571Y-132660571D01*
X100529571Y-132515428D01*
X100493285Y-132442857D01*
X100457000Y-132406571D01*
X100384428Y-132370285D01*
D10*
X108572904Y-136603619D02*
X108572904Y-137426095D01*
X108621285Y-137522857D01*
X108669666Y-137571238D01*
X108766428Y-137619619D01*
X108959952Y-137619619D01*
X109056714Y-137571238D01*
X109105095Y-137522857D01*
X109153476Y-137426095D01*
X109153476Y-136603619D01*
X110121095Y-136603619D02*
X109637285Y-136603619D01*
X109588904Y-137087428D01*
X109637285Y-137039047D01*
X109734047Y-136990666D01*
X109975952Y-136990666D01*
X110072714Y-137039047D01*
X110121095Y-137087428D01*
X110169476Y-137184190D01*
X110169476Y-137426095D01*
X110121095Y-137522857D01*
X110072714Y-137571238D01*
X109975952Y-137619619D01*
X109734047Y-137619619D01*
X109637285Y-137571238D01*
X109588904Y-137522857D01*
X110048523Y-135726714D02*
X109988047Y-135847666D01*
X109927571Y-135908142D01*
X109806619Y-135968619D01*
X109443761Y-135968619D01*
X109322809Y-135908142D01*
X109262333Y-135847666D01*
X109201857Y-135726714D01*
X109201857Y-135545285D01*
X109262333Y-135424333D01*
X109322809Y-135363857D01*
X109443761Y-135303380D01*
X109806619Y-135303380D01*
X109927571Y-135363857D01*
X109988047Y-135424333D01*
X110048523Y-135545285D01*
X110048523Y-135726714D01*
D11*
X93236142Y-138575142D02*
X93199857Y-138611428D01*
X93091000Y-138647714D01*
X93018428Y-138647714D01*
X92909571Y-138611428D01*
X92837000Y-138538857D01*
X92800714Y-138466285D01*
X92764428Y-138321142D01*
X92764428Y-138212285D01*
X92800714Y-138067142D01*
X92837000Y-137994571D01*
X92909571Y-137922000D01*
X93018428Y-137885714D01*
X93091000Y-137885714D01*
X93199857Y-137922000D01*
X93236142Y-137958285D01*
X93526428Y-137958285D02*
X93562714Y-137922000D01*
X93635285Y-137885714D01*
X93816714Y-137885714D01*
X93889285Y-137922000D01*
X93925571Y-137958285D01*
X93961857Y-138030857D01*
X93961857Y-138103428D01*
X93925571Y-138212285D01*
X93490142Y-138647714D01*
X93961857Y-138647714D01*
X94651285Y-137885714D02*
X94288428Y-137885714D01*
X94252142Y-138248571D01*
X94288428Y-138212285D01*
X94361000Y-138176000D01*
X94542428Y-138176000D01*
X94615000Y-138212285D01*
X94651285Y-138248571D01*
X94687571Y-138321142D01*
X94687571Y-138502571D01*
X94651285Y-138575142D01*
X94615000Y-138611428D01*
X94542428Y-138647714D01*
X94361000Y-138647714D01*
X94288428Y-138611428D01*
X94252142Y-138575142D01*
D10*
X93163571Y-137547047D02*
X93163571Y-136772952D01*
X93550619Y-137160000D02*
X92776523Y-137160000D01*
X94248714Y-136403809D02*
X94248714Y-135436190D01*
X94732523Y-135920000D02*
X93764904Y-135920000D01*
D18*
X92876309Y-131859261D02*
X92876309Y-131224261D01*
X93027500Y-131224261D01*
X93118214Y-131254500D01*
X93178690Y-131314976D01*
X93208928Y-131375452D01*
X93239166Y-131496404D01*
X93239166Y-131587119D01*
X93208928Y-131708071D01*
X93178690Y-131768547D01*
X93118214Y-131829023D01*
X93027500Y-131859261D01*
X92876309Y-131859261D01*
X93541547Y-131859261D02*
X93662500Y-131859261D01*
X93722976Y-131829023D01*
X93753214Y-131798785D01*
X93813690Y-131708071D01*
X93843928Y-131587119D01*
X93843928Y-131345214D01*
X93813690Y-131284738D01*
X93783452Y-131254500D01*
X93722976Y-131224261D01*
X93602023Y-131224261D01*
X93541547Y-131254500D01*
X93511309Y-131284738D01*
X93481071Y-131345214D01*
X93481071Y-131496404D01*
X93511309Y-131556880D01*
X93541547Y-131587119D01*
X93602023Y-131617357D01*
X93722976Y-131617357D01*
X93783452Y-131587119D01*
X93813690Y-131556880D01*
X93843928Y-131496404D01*
D11*
X106698142Y-139972142D02*
X106661857Y-140008428D01*
X106553000Y-140044714D01*
X106480428Y-140044714D01*
X106371571Y-140008428D01*
X106299000Y-139935857D01*
X106262714Y-139863285D01*
X106226428Y-139718142D01*
X106226428Y-139609285D01*
X106262714Y-139464142D01*
X106299000Y-139391571D01*
X106371571Y-139319000D01*
X106480428Y-139282714D01*
X106553000Y-139282714D01*
X106661857Y-139319000D01*
X106698142Y-139355285D01*
X107423857Y-140044714D02*
X106988428Y-140044714D01*
X107206142Y-140044714D02*
X107206142Y-139282714D01*
X107133571Y-139391571D01*
X107061000Y-139464142D01*
X106988428Y-139500428D01*
X107714142Y-139355285D02*
X107750428Y-139319000D01*
X107823000Y-139282714D01*
X108004428Y-139282714D01*
X108077000Y-139319000D01*
X108113285Y-139355285D01*
X108149571Y-139427857D01*
X108149571Y-139500428D01*
X108113285Y-139609285D01*
X107677857Y-140044714D01*
X108149571Y-140044714D01*
D10*
X92443904Y-111711619D02*
X92443904Y-112534095D01*
X92492285Y-112630857D01*
X92540666Y-112679238D01*
X92637428Y-112727619D01*
X92830952Y-112727619D01*
X92927714Y-112679238D01*
X92976095Y-112630857D01*
X93024476Y-112534095D01*
X93024476Y-111711619D01*
X93943714Y-111711619D02*
X93750190Y-111711619D01*
X93653428Y-111760000D01*
X93605047Y-111808380D01*
X93508285Y-111953523D01*
X93459904Y-112147047D01*
X93459904Y-112534095D01*
X93508285Y-112630857D01*
X93556666Y-112679238D01*
X93653428Y-112727619D01*
X93846952Y-112727619D01*
X93943714Y-112679238D01*
X93992095Y-112630857D01*
X94040476Y-112534095D01*
X94040476Y-112292190D01*
X93992095Y-112195428D01*
X93943714Y-112147047D01*
X93846952Y-112098666D01*
X93653428Y-112098666D01*
X93556666Y-112147047D01*
X93508285Y-112195428D01*
X93459904Y-112292190D01*
X109395380Y-107327095D02*
X109347000Y-107278714D01*
X109298619Y-107181952D01*
X109298619Y-106940047D01*
X109347000Y-106843285D01*
X109395380Y-106794904D01*
X109492142Y-106746523D01*
X109588904Y-106746523D01*
X109734047Y-106794904D01*
X110314619Y-107375476D01*
X110314619Y-106746523D01*
X109637285Y-105875666D02*
X110314619Y-105875666D01*
X109250238Y-106117571D02*
X109975952Y-106359476D01*
X109975952Y-105730523D01*
X98884619Y-106746523D02*
X98884619Y-107327095D01*
X98884619Y-107036809D02*
X97868619Y-107036809D01*
X98013761Y-107133571D01*
X98110523Y-107230333D01*
X98158904Y-107327095D01*
X97868619Y-105827285D02*
X97868619Y-106311095D01*
X98352428Y-106359476D01*
X98304047Y-106311095D01*
X98255666Y-106214333D01*
X98255666Y-105972428D01*
X98304047Y-105875666D01*
X98352428Y-105827285D01*
X98449190Y-105778904D01*
X98691095Y-105778904D01*
X98787857Y-105827285D01*
X98836238Y-105875666D01*
X98884619Y-105972428D01*
X98884619Y-106214333D01*
X98836238Y-106311095D01*
X98787857Y-106359476D01*
X109032523Y-90756619D02*
X109661476Y-90756619D01*
X109322809Y-91143666D01*
X109467952Y-91143666D01*
X109564714Y-91192047D01*
X109613095Y-91240428D01*
X109661476Y-91337190D01*
X109661476Y-91579095D01*
X109613095Y-91675857D01*
X109564714Y-91724238D01*
X109467952Y-91772619D01*
X109177666Y-91772619D01*
X109080904Y-91724238D01*
X109032523Y-91675857D01*
X110242047Y-91192047D02*
X110145285Y-91143666D01*
X110096904Y-91095285D01*
X110048523Y-90998523D01*
X110048523Y-90950142D01*
X110096904Y-90853380D01*
X110145285Y-90805000D01*
X110242047Y-90756619D01*
X110435571Y-90756619D01*
X110532333Y-90805000D01*
X110580714Y-90853380D01*
X110629095Y-90950142D01*
X110629095Y-90998523D01*
X110580714Y-91095285D01*
X110532333Y-91143666D01*
X110435571Y-91192047D01*
X110242047Y-91192047D01*
X110145285Y-91240428D01*
X110096904Y-91288809D01*
X110048523Y-91385571D01*
X110048523Y-91579095D01*
X110096904Y-91675857D01*
X110145285Y-91724238D01*
X110242047Y-91772619D01*
X110435571Y-91772619D01*
X110532333Y-91724238D01*
X110580714Y-91675857D01*
X110629095Y-91579095D01*
X110629095Y-91385571D01*
X110580714Y-91288809D01*
X110532333Y-91240428D01*
X110435571Y-91192047D01*
X109080904Y-113713380D02*
X109129285Y-113665000D01*
X109226047Y-113616619D01*
X109467952Y-113616619D01*
X109564714Y-113665000D01*
X109613095Y-113713380D01*
X109661476Y-113810142D01*
X109661476Y-113906904D01*
X109613095Y-114052047D01*
X109032523Y-114632619D01*
X109661476Y-114632619D01*
X110290428Y-113616619D02*
X110387190Y-113616619D01*
X110483952Y-113665000D01*
X110532333Y-113713380D01*
X110580714Y-113810142D01*
X110629095Y-114003666D01*
X110629095Y-114245571D01*
X110580714Y-114439095D01*
X110532333Y-114535857D01*
X110483952Y-114584238D01*
X110387190Y-114632619D01*
X110290428Y-114632619D01*
X110193666Y-114584238D01*
X110145285Y-114535857D01*
X110096904Y-114439095D01*
X110048523Y-114245571D01*
X110048523Y-114003666D01*
X110096904Y-113810142D01*
X110145285Y-113713380D01*
X110193666Y-113665000D01*
X110290428Y-113616619D01*
X97786976Y-114632619D02*
X97206404Y-114632619D01*
X97496690Y-114632619D02*
X97496690Y-113616619D01*
X97399928Y-113761761D01*
X97303166Y-113858523D01*
X97206404Y-113906904D01*
X98270785Y-114632619D02*
X98464309Y-114632619D01*
X98561071Y-114584238D01*
X98609452Y-114535857D01*
X98706214Y-114390714D01*
X98754595Y-114197190D01*
X98754595Y-113810142D01*
X98706214Y-113713380D01*
X98657833Y-113665000D01*
X98561071Y-113616619D01*
X98367547Y-113616619D01*
X98270785Y-113665000D01*
X98222404Y-113713380D01*
X98174023Y-113810142D01*
X98174023Y-114052047D01*
X98222404Y-114148809D01*
X98270785Y-114197190D01*
X98367547Y-114245571D01*
X98561071Y-114245571D01*
X98657833Y-114197190D01*
X98706214Y-114148809D01*
X98754595Y-114052047D01*
X98080285Y-91772619D02*
X97499714Y-91772619D01*
X97790000Y-91772619D02*
X97790000Y-90756619D01*
X97693238Y-90901761D01*
X97596476Y-90998523D01*
X97499714Y-91046904D01*
X100632380Y-87579666D02*
X101237142Y-87579666D01*
X100511428Y-87942523D02*
X100934761Y-86672523D01*
X101358095Y-87942523D01*
X101781428Y-87095857D02*
X101781428Y-87942523D01*
X101781428Y-87216809D02*
X101841904Y-87156333D01*
X101962857Y-87095857D01*
X102144285Y-87095857D01*
X102265238Y-87156333D01*
X102325714Y-87277285D01*
X102325714Y-87942523D01*
X102749047Y-87095857D02*
X103232857Y-87095857D01*
X102930476Y-86672523D02*
X102930476Y-87761095D01*
X102990952Y-87882047D01*
X103111904Y-87942523D01*
X103232857Y-87942523D01*
X104140000Y-87882047D02*
X104019047Y-87942523D01*
X103777142Y-87942523D01*
X103656190Y-87882047D01*
X103595714Y-87761095D01*
X103595714Y-87277285D01*
X103656190Y-87156333D01*
X103777142Y-87095857D01*
X104019047Y-87095857D01*
X104140000Y-87156333D01*
X104200476Y-87277285D01*
X104200476Y-87398238D01*
X103595714Y-87519190D01*
X104744761Y-87095857D02*
X104744761Y-87942523D01*
X104744761Y-87216809D02*
X104805238Y-87156333D01*
X104926190Y-87095857D01*
X105107619Y-87095857D01*
X105228571Y-87156333D01*
X105289047Y-87277285D01*
X105289047Y-87942523D01*
X105893809Y-87095857D02*
X105893809Y-87942523D01*
X105893809Y-87216809D02*
X105954285Y-87156333D01*
X106075238Y-87095857D01*
X106256666Y-87095857D01*
X106377619Y-87156333D01*
X106438095Y-87277285D01*
X106438095Y-87942523D01*
X107587142Y-87942523D02*
X107587142Y-87277285D01*
X107526666Y-87156333D01*
X107405714Y-87095857D01*
X107163809Y-87095857D01*
X107042857Y-87156333D01*
X107587142Y-87882047D02*
X107466190Y-87942523D01*
X107163809Y-87942523D01*
X107042857Y-87882047D01*
X106982380Y-87761095D01*
X106982380Y-87640142D01*
X107042857Y-87519190D01*
X107163809Y-87458714D01*
X107466190Y-87458714D01*
X107587142Y-87398238D01*
X93762285Y-91760523D02*
X93641333Y-91700047D01*
X93580857Y-91639571D01*
X93520380Y-91518619D01*
X93520380Y-91155761D01*
X93580857Y-91034809D01*
X93641333Y-90974333D01*
X93762285Y-90913857D01*
X93943714Y-90913857D01*
X94064666Y-90974333D01*
X94125142Y-91034809D01*
X94185619Y-91155761D01*
X94185619Y-91518619D01*
X94125142Y-91639571D01*
X94064666Y-91700047D01*
X93943714Y-91760523D01*
X93762285Y-91760523D01*
D11*
X95340714Y-169363571D02*
X95449571Y-169399857D01*
X95485857Y-169436142D01*
X95522142Y-169508714D01*
X95522142Y-169617571D01*
X95485857Y-169690142D01*
X95449571Y-169726428D01*
X95377000Y-169762714D01*
X95086714Y-169762714D01*
X95086714Y-169000714D01*
X95340714Y-169000714D01*
X95413285Y-169037000D01*
X95449571Y-169073285D01*
X95485857Y-169145857D01*
X95485857Y-169218428D01*
X95449571Y-169291000D01*
X95413285Y-169327285D01*
X95340714Y-169363571D01*
X95086714Y-169363571D01*
X95812428Y-169545000D02*
X96175285Y-169545000D01*
X95739857Y-169762714D02*
X95993857Y-169000714D01*
X96247857Y-169762714D01*
X96393000Y-169000714D02*
X96828428Y-169000714D01*
X96610714Y-169762714D02*
X96610714Y-169000714D01*
X97481571Y-169762714D02*
X97046142Y-169762714D01*
X97263857Y-169762714D02*
X97263857Y-169000714D01*
X97191285Y-169109571D01*
X97118714Y-169182142D01*
X97046142Y-169218428D01*
D10*
X90767120Y-168594365D02*
X90714740Y-168541984D01*
X90662359Y-168437222D01*
X90662359Y-168175318D01*
X90714740Y-168070556D01*
X90767120Y-168018175D01*
X90871882Y-167965794D01*
X90976644Y-167965794D01*
X91133787Y-168018175D01*
X91762359Y-168646746D01*
X91762359Y-167965794D01*
X91711559Y-165961734D02*
X91711559Y-166590305D01*
X91711559Y-166276020D02*
X90611559Y-166276020D01*
X90768701Y-166380781D01*
X90873463Y-166485543D01*
X90925844Y-166590305D01*
M02*
