G04 #@! TF.GenerationSoftware,KiCad,Pcbnew,5.1.6-c6e7f7d~87~ubuntu18.04.1*
G04 #@! TF.CreationDate,2022-06-10T14:43:55+03:00*
G04 #@! TF.ProjectId,ESP32-PoE_Rev_J,45535033-322d-4506-9f45-5f5265765f4a,J*
G04 #@! TF.SameCoordinates,Original*
G04 #@! TF.FileFunction,Paste,Top*
G04 #@! TF.FilePolarity,Positive*
%FSLAX46Y46*%
G04 Gerber Fmt 4.6, Leading zero omitted, Abs format (unit mm)*
G04 Created by KiCad (PCBNEW 5.1.6-c6e7f7d~87~ubuntu18.04.1) date 2022-06-10 14:43:55*
%MOMM*%
%LPD*%
G01*
G04 APERTURE LIST*
%ADD10R,1.754000X1.327000*%
%ADD11R,0.550000X1.200000*%
%ADD12C,0.100000*%
%ADD13R,1.600000X3.000000*%
%ADD14R,0.500000X0.550000*%
%ADD15R,1.016000X1.016000*%
%ADD16R,0.800000X0.800000*%
%ADD17R,0.550000X0.500000*%
%ADD18R,3.400000X2.700000*%
%ADD19R,3.600000X2.400000*%
%ADD20R,2.000000X1.700000*%
%ADD21R,1.650000X0.500000*%
%ADD22R,1.721120X0.396120*%
%ADD23R,1.254000X1.354000*%
%ADD24R,1.000000X1.400000*%
%ADD25R,1.400000X1.000000*%
%ADD26R,2.600000X3.500000*%
%ADD27R,1.400000X0.600000*%
%ADD28R,0.900000X0.900000*%
%ADD29R,1.901600X0.901600*%
%ADD30R,0.901600X1.901600*%
G04 APERTURE END LIST*
D10*
X115959000Y-96797000D03*
X115959000Y-101577000D03*
X92321000Y-96797000D03*
X92321000Y-101577000D03*
D11*
X101158000Y-152938000D03*
X102108000Y-152938000D03*
X103058000Y-152938000D03*
X101158000Y-150338000D03*
X103058000Y-150338000D03*
D12*
G36*
X109631759Y-147802495D02*
G01*
X108630985Y-148584385D01*
X107692717Y-147383457D01*
X108693491Y-146601567D01*
X109631759Y-147802495D01*
G37*
G36*
X108030521Y-149053519D02*
G01*
X107029747Y-149835409D01*
X106091479Y-148634481D01*
X107092253Y-147852591D01*
X108030521Y-149053519D01*
G37*
D13*
X104591000Y-151384000D03*
X106991000Y-151384000D03*
D14*
X109347000Y-150241000D03*
X108331000Y-150241000D03*
D15*
X99695000Y-151892000D03*
X99695000Y-150114000D03*
D14*
X91821000Y-147574000D03*
X90805000Y-147574000D03*
X92837000Y-105283000D03*
X91821000Y-105283000D03*
D16*
X115951000Y-150876000D03*
X114427000Y-150876000D03*
X115951000Y-152400000D03*
X114427000Y-152400000D03*
D14*
X116713000Y-107950000D03*
X115697000Y-107950000D03*
X115697000Y-108966000D03*
X116713000Y-108966000D03*
X115697000Y-105283000D03*
X116713000Y-105283000D03*
X115697000Y-106172000D03*
X116713000Y-106172000D03*
X98552000Y-153035000D03*
X99568000Y-153035000D03*
D17*
X97155000Y-149733000D03*
X97155000Y-148717000D03*
X113538000Y-147066000D03*
X113538000Y-148082000D03*
D14*
X96266000Y-164338000D03*
X95250000Y-164338000D03*
D17*
X111633000Y-152019000D03*
X111633000Y-151003000D03*
X112522000Y-152019000D03*
X112522000Y-151003000D03*
X109728000Y-152019000D03*
X109728000Y-151003000D03*
X110744000Y-152019000D03*
X110744000Y-151003000D03*
D14*
X97282000Y-164338000D03*
X98298000Y-164338000D03*
D17*
X96266000Y-139446000D03*
X96266000Y-138430000D03*
X96075500Y-147828000D03*
X96075500Y-148844000D03*
D18*
X96377000Y-144272000D03*
X107077000Y-144272000D03*
D19*
X112217200Y-138332000D03*
X112217200Y-145132000D03*
D20*
X96734000Y-151765000D03*
X91734000Y-151765000D03*
D16*
X93726000Y-163322000D03*
X92202000Y-163322000D03*
D15*
X113030000Y-149352000D03*
X114808000Y-149352000D03*
D16*
X97536000Y-163322000D03*
X96012000Y-163322000D03*
D21*
X96876000Y-156854500D03*
D22*
X96876000Y-157592000D03*
X96876000Y-158242000D03*
X96876000Y-158892000D03*
D21*
X96876000Y-159629500D03*
D23*
X92326000Y-156742000D03*
X92326000Y-159742000D03*
D24*
X92839540Y-149479000D03*
X94742000Y-149479000D03*
X93786960Y-147269200D03*
D25*
X99476560Y-136845040D03*
X99476560Y-138747500D03*
X101686360Y-137792460D03*
D17*
X115951000Y-94361000D03*
X115951000Y-95377000D03*
X115697000Y-103759000D03*
X115697000Y-102743000D03*
X116586000Y-102743000D03*
X116586000Y-103759000D03*
D25*
X95715000Y-140335000D03*
X93515000Y-141285000D03*
X93515000Y-139385000D03*
D12*
G36*
X98210000Y-129733000D02*
G01*
X98210000Y-125183000D01*
X99910000Y-125183000D01*
X99910000Y-129733000D01*
X98210000Y-129733000D01*
G37*
G36*
X100750000Y-129733000D02*
G01*
X100750000Y-125183000D01*
X102450000Y-125183000D01*
X102450000Y-129733000D01*
X100750000Y-129733000D01*
G37*
G36*
X103290000Y-129733000D02*
G01*
X103290000Y-125183000D01*
X104990000Y-125183000D01*
X104990000Y-129733000D01*
X103290000Y-129733000D01*
G37*
G36*
X105830000Y-129733000D02*
G01*
X105830000Y-125183000D01*
X107530000Y-125183000D01*
X107530000Y-129733000D01*
X105830000Y-129733000D01*
G37*
G36*
X108370000Y-129733000D02*
G01*
X108370000Y-125183000D01*
X110070000Y-125183000D01*
X110070000Y-129733000D01*
X108370000Y-129733000D01*
G37*
G36*
X108370000Y-123483000D02*
G01*
X108370000Y-118933000D01*
X110070000Y-118933000D01*
X110070000Y-123483000D01*
X108370000Y-123483000D01*
G37*
G36*
X105830000Y-123483000D02*
G01*
X105830000Y-118933000D01*
X107530000Y-118933000D01*
X107530000Y-123483000D01*
X105830000Y-123483000D01*
G37*
G36*
X98210000Y-123483000D02*
G01*
X98210000Y-118933000D01*
X99910000Y-118933000D01*
X99910000Y-123483000D01*
X98210000Y-123483000D01*
G37*
G36*
X100750000Y-123483000D02*
G01*
X100750000Y-118933000D01*
X102450000Y-118933000D01*
X102450000Y-123483000D01*
X100750000Y-123483000D01*
G37*
G36*
X103290000Y-123483000D02*
G01*
X103290000Y-118933000D01*
X104990000Y-118933000D01*
X104990000Y-123483000D01*
X103290000Y-123483000D01*
G37*
D14*
X92837000Y-104013000D03*
X91821000Y-104013000D03*
X99695000Y-134493000D03*
X100711000Y-134493000D03*
X103251000Y-138049000D03*
X104267000Y-138049000D03*
X99695000Y-133477000D03*
X100711000Y-133477000D03*
X99695000Y-135509000D03*
X100711000Y-135509000D03*
D26*
X105029000Y-133985000D03*
D27*
X102229000Y-135890000D03*
X102229000Y-134620000D03*
X102229000Y-133350000D03*
X102229000Y-132080000D03*
X107829000Y-132080000D03*
X107829000Y-133350000D03*
X107829000Y-134620000D03*
X107829000Y-135890000D03*
D24*
X93096000Y-130175000D03*
X96896000Y-130175000D03*
D15*
X107188000Y-137795000D03*
X105410000Y-137795000D03*
D28*
X104040000Y-100508000D03*
X104040000Y-97708000D03*
X101240000Y-100508000D03*
D29*
X112740000Y-112898000D03*
X112740000Y-111628000D03*
X112740000Y-110358000D03*
X112740000Y-109088000D03*
X112740000Y-114168000D03*
X95540000Y-114168000D03*
X95540000Y-109088000D03*
X95540000Y-110358000D03*
X95540000Y-111628000D03*
X95540000Y-112898000D03*
D28*
X102640000Y-97708000D03*
D29*
X95540000Y-91308000D03*
X95540000Y-92578000D03*
X95540000Y-93848000D03*
X95540000Y-95118000D03*
X95540000Y-96388000D03*
X95540000Y-97658000D03*
X95540000Y-98928000D03*
X95540000Y-100198000D03*
X95540000Y-101468000D03*
X95540000Y-102738000D03*
X95540000Y-104008000D03*
X95540000Y-105278000D03*
X95540000Y-106548000D03*
X95540000Y-107818000D03*
D30*
X98425000Y-108968000D03*
X99695000Y-108968000D03*
X100965000Y-108968000D03*
X102235000Y-108968000D03*
X103505000Y-108968000D03*
X104775000Y-108968000D03*
X106045000Y-108968000D03*
X107315000Y-108968000D03*
X108585000Y-108968000D03*
X109855000Y-108968000D03*
D29*
X112740000Y-107818000D03*
X112740000Y-106548000D03*
X112740000Y-105278000D03*
X112740000Y-104008000D03*
X112740000Y-102738000D03*
X112740000Y-101468000D03*
X112740000Y-100198000D03*
X112740000Y-98928000D03*
X112740000Y-97658000D03*
X112740000Y-96388000D03*
X112740000Y-95118000D03*
X112740000Y-93848000D03*
X112740000Y-92578000D03*
X112740000Y-91308000D03*
D28*
X101240000Y-97708000D03*
X102640000Y-100508000D03*
X101240000Y-99108000D03*
X104040000Y-99108000D03*
M02*
