M48
; DRILL file {KiCad 5.1.6-c6e7f7d~87~ubuntu18.04.1} date Fri Jun 10 14:44:11 2022
; FORMAT={-:-/ absolute / inch / decimal}
; #@! TF.CreationDate,2022-06-10T14:44:11+03:00
; #@! TF.GenerationSoftware,Kicad,Pcbnew,5.1.6-c6e7f7d~87~ubuntu18.04.1
; #@! TF.FileFunction,Plated,1,4,PTH
FMAT,2
INCH
T1C0.0118
T2C0.0118
T3C0.0157
T4C0.0197
T5C0.0236
T6C0.0354
T7C0.0394
T8C0.0472
%
G90
G05
T1
X4.3797Y-5.8088
T2
X4.3088Y-5.8403
X4.3088Y-5.8797
X4.3403Y-5.8088
X4.3403Y-5.9112
X4.3797Y-5.9112
X4.4112Y-5.8403
X4.4112Y-5.8797
T3
X3.575Y-6.495
X3.585Y-4.095
X3.585Y-6.455
X3.5949Y-5.8581
X3.605Y-3.745
X3.6109Y-4.2409
X3.6119Y-5.9202
X3.62Y-4.745
X3.6295Y-5.6023
X3.635Y-3.78
X3.635Y-4.025
X3.647Y-4.307
X3.652Y-6.237
X3.665Y-6.49
X3.67Y-4.06
X3.695Y-3.855
X3.705Y-3.815
X3.705Y-4.105
X3.705Y-4.145
X3.705Y-4.345
X3.71Y-5.675
X3.7105Y-3.6978
X3.715Y-4.245
X3.715Y-6.255
X3.7375Y-5.8375
X3.7493Y-6.0044
X3.7493Y-5.9706
X3.7511Y-5.4437
X3.755Y-6.275
X3.7584Y-6.4334
X3.7643Y-6.1067
X3.765Y-5.775
X3.805Y-5.175
X3.8083Y-5.4281
X3.8139Y-3.8939
X3.82Y-3.825
X3.825Y-3.71
X3.8279Y-4.0652
X3.83Y-3.995
X3.8398Y-4.3438
X3.8399Y-4.1
X3.8502Y-5.8983
X3.8514Y-4.4836
X3.855Y-4.945
X3.8582Y-3.8133
X3.8585Y-3.7643
X3.8648Y-4.0506
X3.87Y-5.975
X3.8743Y-3.9993
X3.88Y-3.965
X3.885Y-3.645
X3.8943Y-4.4589
X3.8983Y-6.2467
X3.9044Y-4.0556
X3.9118Y-3.7528
X3.9278Y-4.4595
X3.9444Y-4.5432
X3.9518Y-4.0952
X3.955Y-4.575
X3.959Y-5.046
X3.9612Y-4.1561
X3.9614Y-4.46
X3.965Y-4.61
X3.97Y-4.2016
X3.9892Y-4.0595
X3.99Y-4.635
X3.9932Y-4.53
X3.9932Y-4.4964
X3.995Y-4.4597
X4.0167Y-4.0788
X4.02Y-4.16
X4.03Y-6.057
X4.035Y-5.565
X4.045Y-4.57
X4.045Y-4.61
X4.06Y-4.65
X4.0605Y-5.0612
X4.065Y-4.735
X4.075Y-4.4565
X4.095Y-5.365
X4.1Y-5.195
X4.105Y-4.645
X4.105Y-4.23
X4.115Y-5.76
X4.13Y-5.82
X4.135Y-5.195
X4.135Y-5.365
X4.15Y-4.56
X4.155Y-5.075
X4.1671Y-4.23
X4.17Y-5.195
X4.17Y-5.825
X4.1747Y-4.6355
X4.175Y-5.365
X4.175Y-6.055
X4.2013Y-4.656
X4.205Y-4.1228
X4.205Y-4.46
X4.21Y-5.47
X4.2379Y-6.041
X4.266Y-5.951
X4.27Y-4.68
X4.2754Y-6.0421
X4.3106Y-4.0578
X4.32Y-6.015
X4.331Y-5.712
X4.3545Y-4.3095
X4.355Y-6.015
X4.3594Y-4.1932
X4.37Y-4.23
X4.375Y-3.885
X4.375Y-4.0578
X4.38Y-3.745
X4.38Y-3.845
X4.3822Y-4.2618
X4.3826Y-3.7924
X4.387Y-6.027
X4.39Y-4.345
X4.3918Y-4.5299
X4.405Y-5.325
X4.425Y-6.03
X4.452Y-5.301
X4.4689Y-5.9547
X4.487Y-6.036
X4.495Y-4.295
X4.495Y-5.84
X4.4961Y-4.0211
X4.4972Y-3.9855
X4.5Y-3.87
X4.51Y-4.195
X4.52Y-3.955
X4.52Y-6.06
X4.525Y-4.77
X4.5253Y-4.13
X4.53Y-4.0824
X4.5311Y-5.9639
X4.535Y-4.2202
X4.535Y-5.91
X4.5522Y-4.025
X4.565Y-3.69
X4.575Y-4.34
X4.6153Y-4.0765
X4.6172Y-4.11
X3.9858Y-3.8743
X3.9858Y-3.9294
X4.0134Y-3.8468
X4.0134Y-3.957
X4.0685Y-3.8468
X4.0685Y-3.957
X4.0961Y-3.8743
X4.0961Y-3.9294
T4
X3.695Y-5.41
X4.03Y-5.88
X4.165Y-5.475
T5
X3.67Y-5.975
X3.7Y-3.595
X3.7Y-3.6433
X3.735Y-4.85
X3.78Y-4.875
X3.8Y-6.14
X3.82Y-3.595
X3.82Y-3.645
X3.84Y-6.14
X3.8619Y-5.0958
X3.8713Y-6.3075
X3.8713Y-6.345
X3.875Y-5.505
X3.878Y-5.5954
X3.9Y-5.826
X3.92Y-6.075
X3.9242Y-5.6603
X3.925Y-3.595
X3.975Y-3.775
X3.975Y-5.16
X4.015Y-5.16
X4.02Y-6.645
X4.025Y-3.595
X4.025Y-3.775
X4.035Y-5.73
X4.075Y-3.775
X4.08Y-6.3758
X4.095Y-6.58
X4.1Y-5.705
X4.125Y-3.595
X4.125Y-3.775
X4.145Y-5.142
X4.145Y-6.645
X4.17Y-6.49
X4.175Y-3.775
X4.175Y-3.825
X4.175Y-3.875
X4.175Y-3.925
X4.21Y-6.58
X4.225Y-3.595
X4.225Y-3.775
X4.225Y-3.825
X4.225Y-3.875
X4.225Y-3.925
X4.26Y-6.49
X4.26Y-6.645
X4.275Y-3.825
X4.275Y-3.875
X4.275Y-3.925
X4.295Y-4.565
X4.295Y-4.605
X4.295Y-4.645
X4.3Y-3.595
X4.315Y-6.58
X4.35Y-4.77
X4.35Y-4.81
X4.35Y-4.85
X4.355Y-5.33
X4.365Y-6.49
X4.37Y-6.645
X4.3734Y-5.6315
X4.375Y-3.595
X4.395Y-4.96
X4.43Y-6.58
X4.45Y-6.3758
X4.465Y-4.935
X4.465Y-4.975
X4.465Y-5.015
X4.465Y-5.52
X4.465Y-5.56
X4.5Y-3.595
X4.525Y-4.405
X4.6Y-4.48
T6
X3.77Y-5.2508
X3.77Y-5.3492
X3.6642Y-6.5445
X3.6643Y-6.6244
X4.3658Y-5.21
X4.4642Y-5.21
T7
X3.6Y-4.8512
X3.6Y-4.9512
X3.6Y-5.0512
X3.6Y-5.1512
X3.6Y-5.2512
X3.6Y-5.3512
X3.6Y-5.4512
X3.6Y-5.5512
X3.6Y-5.6512
X3.6Y-5.7512
X4.04Y-6.1341
X4.09Y-6.2341
X4.14Y-6.1341
X4.19Y-6.2341
X4.24Y-6.1341
X4.29Y-6.2341
X4.34Y-6.1341
X4.39Y-6.2341
X4.44Y-6.1341
X4.49Y-6.2341
X4.6Y-4.8512
X4.6Y-4.9512
X4.6Y-5.0512
X4.6Y-5.1512
X4.6Y-5.2512
X4.6Y-5.3512
X4.6Y-5.4512
X4.6Y-5.5512
X4.6Y-5.6512
X4.6Y-5.7512
T8
X4.135Y-5.275
X4.0409Y-3.9019
X4.36Y-5.86
T5
G00X3.692Y-6.0883
M15
G01X3.6683Y-6.0883
M16
G05
G00X3.692Y-6.3717
M15
G01X3.6683Y-6.3717
M16
G05
G00X3.8286Y-6.0883
M15
G01X3.805Y-6.0883
M16
G05
G00X3.8286Y-6.3717
M15
G01X3.805Y-6.3717
M16
G05
G00X3.9579Y-6.3483
M15
G01X3.9579Y-6.4034
M16
G05
G00X4.5721Y-6.3483
M15
G01X4.5721Y-6.4034
M16
G05
T0
M30
