G04 #@! TF.GenerationSoftware,KiCad,Pcbnew,5.1.6-c6e7f7d~87~ubuntu18.04.1*
G04 #@! TF.CreationDate,2022-06-10T14:43:55+03:00*
G04 #@! TF.ProjectId,ESP32-PoE_Rev_J,45535033-322d-4506-9f45-5f5265765f4a,J*
G04 #@! TF.SameCoordinates,Original*
G04 #@! TF.FileFunction,Soldermask,Top*
G04 #@! TF.FilePolarity,Negative*
%FSLAX46Y46*%
G04 Gerber Fmt 4.6, Leading zero omitted, Abs format (unit mm)*
G04 Created by KiCad (PCBNEW 5.1.6-c6e7f7d~87~ubuntu18.04.1) date 2022-06-10 14:43:55*
%MOMM*%
%LPD*%
G01*
G04 APERTURE LIST*
%ADD10R,1.625600X1.625600*%
%ADD11C,1.625600*%
%ADD12R,1.601600X1.001600*%
%ADD13C,0.801600*%
%ADD14R,0.651600X1.301600*%
%ADD15C,0.100000*%
%ADD16R,1.701600X3.101600*%
%ADD17O,1.701600X3.101599*%
%ADD18C,3.401601*%
%ADD19R,1.524000X1.524000*%
%ADD20R,0.601600X0.651600*%
%ADD21R,1.117600X1.117600*%
%ADD22R,0.901600X0.901600*%
%ADD23R,0.651600X0.601600*%
%ADD24C,1.879600*%
%ADD25R,1.879600X1.879600*%
%ADD26R,3.301600X2.601600*%
%ADD27R,3.501600X2.301600*%
%ADD28R,2.101600X1.801600*%
%ADD29C,1.254000*%
%ADD30R,1.751600X0.601600*%
%ADD31R,1.751600X0.426600*%
%ADD32C,0.701600*%
%ADD33R,1.101600X1.201600*%
%ADD34O,1.901600X1.301600*%
%ADD35R,1.101600X1.501600*%
%ADD36R,1.501600X1.101600*%
%ADD37C,1.301600*%
%ADD38R,1.101600X4.351600*%
%ADD39R,2.701600X3.601600*%
%ADD40R,1.501600X0.701600*%
%ADD41C,1.901600*%
%ADD42R,1.901600X0.901600*%
%ADD43R,0.901600X1.901600*%
%ADD44R,4.001600X4.001600*%
%ADD45C,1.601600*%
%ADD46C,2.301600*%
%ADD47R,1.501600X1.501600*%
%ADD48C,1.501600*%
%ADD49C,0.254000*%
G04 APERTURE END LIST*
D10*
X113391000Y-132334000D03*
D11*
X110891000Y-132334000D03*
D12*
X115959000Y-101364000D03*
X115959000Y-97010000D03*
D13*
X115059000Y-99187000D03*
X116859000Y-99187000D03*
D12*
X92321000Y-101364000D03*
X92321000Y-97010000D03*
D13*
X91421000Y-99187000D03*
X93221000Y-99187000D03*
D14*
X101158000Y-152938000D03*
X102108000Y-152938000D03*
X103058000Y-152938000D03*
X101158000Y-150338000D03*
X103058000Y-150338000D03*
D15*
G36*
X109703065Y-147811251D02*
G01*
X108622230Y-148655692D01*
X107621411Y-147374701D01*
X108702246Y-146530260D01*
X109703065Y-147811251D01*
G37*
G36*
X108101827Y-149062275D02*
G01*
X107020992Y-149906716D01*
X106020173Y-148625725D01*
X107101008Y-147781284D01*
X108101827Y-149062275D01*
G37*
D16*
X104591000Y-151384000D03*
X106991000Y-151384000D03*
D11*
X102616000Y-155806000D03*
X103886000Y-158346000D03*
X105156000Y-155806000D03*
X106426000Y-158346000D03*
X107696000Y-155806000D03*
X108966000Y-158346000D03*
X110236000Y-155806000D03*
X111506000Y-158346000D03*
X112776000Y-155806000D03*
X114046000Y-158346000D03*
D17*
X100531000Y-161946000D03*
X116131000Y-161946000D03*
D18*
X102616000Y-164996000D03*
X114046000Y-164996000D03*
D19*
X110744000Y-148844000D03*
D20*
X109347000Y-150241000D03*
X108331000Y-150241000D03*
D21*
X99695000Y-151892000D03*
X99695000Y-150114000D03*
D20*
X91821000Y-147574000D03*
X90805000Y-147574000D03*
X92837000Y-105283000D03*
X91821000Y-105283000D03*
D22*
X115951000Y-150876000D03*
X114427000Y-150876000D03*
X115951000Y-152400000D03*
X114427000Y-152400000D03*
D20*
X116713000Y-107950000D03*
X115697000Y-107950000D03*
X115697000Y-108966000D03*
X116713000Y-108966000D03*
X115697000Y-105283000D03*
X116713000Y-105283000D03*
X115697000Y-106172000D03*
X116713000Y-106172000D03*
X98552000Y-153035000D03*
X99568000Y-153035000D03*
D23*
X97155000Y-149733000D03*
X97155000Y-148717000D03*
X113538000Y-147066000D03*
X113538000Y-148082000D03*
D20*
X96266000Y-164338000D03*
X95250000Y-164338000D03*
D23*
X111633000Y-152019000D03*
X111633000Y-151003000D03*
X112522000Y-152019000D03*
X112522000Y-151003000D03*
X109728000Y-152019000D03*
X109728000Y-151003000D03*
X110744000Y-152019000D03*
X110744000Y-151003000D03*
D20*
X97282000Y-164338000D03*
X98298000Y-164338000D03*
D23*
X96266000Y-139446000D03*
X96266000Y-138430000D03*
X96075500Y-147828000D03*
X96075500Y-148844000D03*
D24*
X116840000Y-130840000D03*
X116840000Y-128300000D03*
X116840000Y-125760000D03*
D25*
X116840000Y-123220000D03*
D24*
X116840000Y-133380000D03*
X116840000Y-135920000D03*
X116840000Y-141000000D03*
X116840000Y-138460000D03*
X116840000Y-143540000D03*
X116840000Y-146080000D03*
X91440000Y-130840000D03*
X91440000Y-128300000D03*
X91440000Y-125760000D03*
D25*
X91440000Y-123220000D03*
D24*
X91440000Y-133380000D03*
X91440000Y-135920000D03*
X91440000Y-141000000D03*
X91440000Y-138460000D03*
X91440000Y-143540000D03*
X91440000Y-146080000D03*
D26*
X96377000Y-144272000D03*
X107077000Y-144272000D03*
D27*
X112217200Y-138332000D03*
X112217200Y-145132000D03*
D28*
X96734000Y-151765000D03*
X91734000Y-151765000D03*
D29*
X116586000Y-168529000D03*
X116459000Y-91440000D03*
X91821000Y-91440000D03*
D22*
X93726000Y-163322000D03*
X92202000Y-163322000D03*
D21*
X113030000Y-149352000D03*
X114808000Y-149352000D03*
D22*
X97536000Y-163322000D03*
X96012000Y-163322000D03*
D30*
X96876000Y-156854500D03*
D31*
X96876000Y-157592000D03*
X96876000Y-158242000D03*
X96876000Y-158892000D03*
D30*
X96876000Y-159629500D03*
D32*
X95626000Y-156242000D03*
X95626000Y-160242000D03*
D33*
X92326000Y-156742000D03*
X92326000Y-159742000D03*
D34*
X93476000Y-154642000D03*
X96946000Y-154642000D03*
X96946000Y-161842000D03*
X93476000Y-161842000D03*
D35*
X92839540Y-149479000D03*
X94742000Y-149479000D03*
X93786960Y-147269200D03*
D36*
X99476560Y-136845040D03*
X99476560Y-138747500D03*
X101686360Y-137792460D03*
D23*
X115951000Y-94361000D03*
X115951000Y-95377000D03*
X115697000Y-103759000D03*
X115697000Y-102743000D03*
X116586000Y-102743000D03*
X116586000Y-103759000D03*
D36*
X95715000Y-140335000D03*
X93515000Y-141285000D03*
X93515000Y-139385000D03*
D37*
X107950000Y-124333000D03*
D38*
X99060000Y-127458000D03*
X99060000Y-121208000D03*
X101600000Y-127458000D03*
X101600000Y-121208000D03*
X104140000Y-127458000D03*
X104140000Y-121208000D03*
X106680000Y-127458000D03*
X106680000Y-121208000D03*
X109220000Y-127458000D03*
X109220000Y-121208000D03*
D37*
X100330000Y-124333000D03*
D20*
X92837000Y-104013000D03*
X91821000Y-104013000D03*
X99695000Y-134493000D03*
X100711000Y-134493000D03*
X103251000Y-138049000D03*
X104267000Y-138049000D03*
X99695000Y-133477000D03*
X100711000Y-133477000D03*
X99695000Y-135509000D03*
X100711000Y-135509000D03*
D39*
X105029000Y-133985000D03*
D40*
X102229000Y-135890000D03*
X102229000Y-134620000D03*
X102229000Y-133350000D03*
X102229000Y-132080000D03*
X107829000Y-132080000D03*
X107829000Y-133350000D03*
X107829000Y-134620000D03*
X107829000Y-135890000D03*
D41*
X105029000Y-133985000D03*
D11*
X95758000Y-135870000D03*
D10*
X95758000Y-133370000D03*
D35*
X93096000Y-130175000D03*
X96896000Y-130175000D03*
D21*
X107188000Y-137795000D03*
X105410000Y-137795000D03*
D42*
X112740000Y-112898000D03*
X112740000Y-111628000D03*
X112740000Y-110358000D03*
X112740000Y-109088000D03*
X112740000Y-114168000D03*
X95540000Y-114168000D03*
X95540000Y-109088000D03*
X95540000Y-110358000D03*
X95540000Y-111628000D03*
X95540000Y-112898000D03*
X95540000Y-91308000D03*
X95540000Y-92578000D03*
X95540000Y-93848000D03*
X95540000Y-95118000D03*
X95540000Y-96388000D03*
X95540000Y-97658000D03*
X95540000Y-98928000D03*
X95540000Y-100198000D03*
X95540000Y-101468000D03*
X95540000Y-102738000D03*
X95540000Y-104008000D03*
X95540000Y-105278000D03*
X95540000Y-106548000D03*
X95540000Y-107818000D03*
D43*
X98425000Y-108968000D03*
X99695000Y-108968000D03*
X100965000Y-108968000D03*
X102235000Y-108968000D03*
X103505000Y-108968000D03*
X104775000Y-108968000D03*
X106045000Y-108968000D03*
X107315000Y-108968000D03*
X108585000Y-108968000D03*
X109855000Y-108968000D03*
D42*
X112740000Y-107818000D03*
X112740000Y-106548000D03*
X112740000Y-105278000D03*
X112740000Y-104008000D03*
X112740000Y-102738000D03*
X112740000Y-101468000D03*
X112740000Y-100198000D03*
X112740000Y-98928000D03*
X112740000Y-97658000D03*
X112740000Y-96388000D03*
X112740000Y-95118000D03*
X112740000Y-93848000D03*
X112740000Y-92578000D03*
X112740000Y-91308000D03*
D44*
X102640000Y-99108000D03*
D45*
X102640000Y-99108000D03*
D46*
X92710000Y-117475000D03*
X115570000Y-117475000D03*
X97536000Y-167513000D03*
D47*
X93070680Y-166230300D03*
D48*
X93073220Y-168259760D03*
D49*
G36*
X114681000Y-96837500D02*
G01*
X114173000Y-96837500D01*
X114173000Y-92075000D01*
X114681000Y-92075000D01*
X114681000Y-96837500D01*
G37*
X114681000Y-96837500D02*
X114173000Y-96837500D01*
X114173000Y-92075000D01*
X114681000Y-92075000D01*
X114681000Y-96837500D01*
M02*
