%TF.GenerationSoftware,KiCad,Pcbnew,7.0.9-7.0.9~ubuntu22.04.1*%
%TF.CreationDate,2025-02-21T13:43:35+02:00*%
%TF.ProjectId,ESP32-PoE_Rev_M,45535033-322d-4506-9f45-5f5265765f4d,M*%
%TF.SameCoordinates,PX55f9470PYa244870*%
%TF.FileFunction,Legend,Bot*%
%TF.FilePolarity,Positive*%
%FSLAX46Y46*%
G04 Gerber Fmt 4.6, Leading zero omitted, Abs format (unit mm)*
G04 Created by KiCad (PCBNEW 7.0.9-7.0.9~ubuntu22.04.1) date 2025-02-21 13:43:35*
%MOMM*%
%LPD*%
G01*
G04 APERTURE LIST*
%ADD10C,0.254000*%
%ADD11C,0.152400*%
%ADD12C,0.190500*%
%ADD13C,0.222250*%
%ADD14C,0.317500*%
%ADD15C,0.139700*%
%ADD16C,0.158750*%
%ADD17C,0.250000*%
%ADD18C,0.228600*%
%ADD19C,0.203200*%
%ADD20C,0.150000*%
%ADD21C,0.127000*%
%ADD22C,0.200000*%
%ADD23C,0.370000*%
%ADD24C,0.380000*%
%ADD25C,1.000000*%
%ADD26C,0.400000*%
%ADD27C,0.420000*%
%ADD28C,0.700000*%
%ADD29C,0.100000*%
%ADD30C,0.500000*%
%ADD31C,0.300000*%
G04 APERTURE END LIST*
D10*
X26055000Y56485000D02*
X25674000Y56739000D01*
D11*
X4846000Y4796000D02*
X2179000Y4796000D01*
X1544000Y4161000D02*
X1671000Y4542000D01*
D10*
X25674000Y56231000D02*
X26055000Y56485000D01*
D11*
X2179000Y4796000D02*
X1544000Y4161000D01*
X1544000Y4161000D02*
X1925000Y4288000D01*
X5277800Y4796000D02*
X4846000Y4796000D01*
D10*
X25674000Y56231000D02*
X25674000Y56739000D01*
X23007000Y56485000D02*
X26055000Y56485000D01*
X26399713Y48662188D02*
X26980285Y48662188D01*
X26689999Y48662188D02*
X26689999Y49678188D01*
X26689999Y49678188D02*
X26786761Y49533045D01*
X26786761Y49533045D02*
X26883523Y49436283D01*
X26883523Y49436283D02*
X26980285Y49387902D01*
D12*
X18598285Y67572391D02*
X19033714Y67572391D01*
X18815999Y67572391D02*
X18815999Y68334391D01*
X18815999Y68334391D02*
X18888571Y68225534D01*
X18888571Y68225534D02*
X18961142Y68152962D01*
X18961142Y68152962D02*
X19033714Y68116676D01*
D10*
X9817142Y71268188D02*
X10155809Y71751997D01*
X10397714Y71268188D02*
X10397714Y72284188D01*
X10397714Y72284188D02*
X10010666Y72284188D01*
X10010666Y72284188D02*
X9913904Y72235807D01*
X9913904Y72235807D02*
X9865523Y72187426D01*
X9865523Y72187426D02*
X9817142Y72090664D01*
X9817142Y72090664D02*
X9817142Y71945521D01*
X9817142Y71945521D02*
X9865523Y71848759D01*
X9865523Y71848759D02*
X9913904Y71800378D01*
X9913904Y71800378D02*
X10010666Y71751997D01*
X10010666Y71751997D02*
X10397714Y71751997D01*
X9236571Y71268188D02*
X9333333Y71316568D01*
X9333333Y71316568D02*
X9381714Y71364949D01*
X9381714Y71364949D02*
X9430095Y71461711D01*
X9430095Y71461711D02*
X9430095Y71751997D01*
X9430095Y71751997D02*
X9381714Y71848759D01*
X9381714Y71848759D02*
X9333333Y71897140D01*
X9333333Y71897140D02*
X9236571Y71945521D01*
X9236571Y71945521D02*
X9091428Y71945521D01*
X9091428Y71945521D02*
X8994666Y71897140D01*
X8994666Y71897140D02*
X8946285Y71848759D01*
X8946285Y71848759D02*
X8897904Y71751997D01*
X8897904Y71751997D02*
X8897904Y71461711D01*
X8897904Y71461711D02*
X8946285Y71364949D01*
X8946285Y71364949D02*
X8994666Y71316568D01*
X8994666Y71316568D02*
X9091428Y71268188D01*
X9091428Y71268188D02*
X9236571Y71268188D01*
X8462476Y71268188D02*
X8462476Y72284188D01*
X8462476Y71800378D02*
X7881904Y71800378D01*
X7881904Y71268188D02*
X7881904Y72284188D01*
X7446476Y71316568D02*
X7301333Y71268188D01*
X7301333Y71268188D02*
X7059428Y71268188D01*
X7059428Y71268188D02*
X6962666Y71316568D01*
X6962666Y71316568D02*
X6914285Y71364949D01*
X6914285Y71364949D02*
X6865904Y71461711D01*
X6865904Y71461711D02*
X6865904Y71558473D01*
X6865904Y71558473D02*
X6914285Y71655235D01*
X6914285Y71655235D02*
X6962666Y71703616D01*
X6962666Y71703616D02*
X7059428Y71751997D01*
X7059428Y71751997D02*
X7252952Y71800378D01*
X7252952Y71800378D02*
X7349714Y71848759D01*
X7349714Y71848759D02*
X7398095Y71897140D01*
X7398095Y71897140D02*
X7446476Y71993902D01*
X7446476Y71993902D02*
X7446476Y72090664D01*
X7446476Y72090664D02*
X7398095Y72187426D01*
X7398095Y72187426D02*
X7349714Y72235807D01*
X7349714Y72235807D02*
X7252952Y72284188D01*
X7252952Y72284188D02*
X7011047Y72284188D01*
X7011047Y72284188D02*
X6865904Y72235807D01*
D13*
X4399045Y4372667D02*
X4399045Y3695333D01*
X4737712Y4034000D02*
X4060379Y4034000D01*
X2602333Y666046D02*
X3279667Y666046D01*
D14*
X5493094Y56294984D02*
X5916428Y56899746D01*
X6218809Y56294984D02*
X6218809Y57564984D01*
X6218809Y57564984D02*
X5734999Y57564984D01*
X5734999Y57564984D02*
X5614047Y57504508D01*
X5614047Y57504508D02*
X5553570Y57444032D01*
X5553570Y57444032D02*
X5493094Y57323080D01*
X5493094Y57323080D02*
X5493094Y57141651D01*
X5493094Y57141651D02*
X5553570Y57020699D01*
X5553570Y57020699D02*
X5614047Y56960222D01*
X5614047Y56960222D02*
X5734999Y56899746D01*
X5734999Y56899746D02*
X6218809Y56899746D01*
X4464999Y56355460D02*
X4585951Y56294984D01*
X4585951Y56294984D02*
X4827856Y56294984D01*
X4827856Y56294984D02*
X4948809Y56355460D01*
X4948809Y56355460D02*
X5009285Y56476413D01*
X5009285Y56476413D02*
X5009285Y56960222D01*
X5009285Y56960222D02*
X4948809Y57081175D01*
X4948809Y57081175D02*
X4827856Y57141651D01*
X4827856Y57141651D02*
X4585951Y57141651D01*
X4585951Y57141651D02*
X4464999Y57081175D01*
X4464999Y57081175D02*
X4404523Y56960222D01*
X4404523Y56960222D02*
X4404523Y56839270D01*
X4404523Y56839270D02*
X5009285Y56718318D01*
X3981190Y57141651D02*
X3678809Y56294984D01*
X3678809Y56294984D02*
X3376428Y57141651D01*
X2892619Y56415937D02*
X2832142Y56355460D01*
X2832142Y56355460D02*
X2892619Y56294984D01*
X2892619Y56294984D02*
X2953095Y56355460D01*
X2953095Y56355460D02*
X2892619Y56415937D01*
X2892619Y56415937D02*
X2892619Y56294984D01*
X2287857Y56294984D02*
X2287857Y57564984D01*
X2287857Y57564984D02*
X1864523Y56657841D01*
X1864523Y56657841D02*
X1441190Y57564984D01*
X1441190Y57564984D02*
X1441190Y56294984D01*
X24994246Y2658651D02*
X24752341Y1811984D01*
X24752341Y1811984D02*
X24510436Y2416746D01*
X24510436Y2416746D02*
X24268532Y1811984D01*
X24268532Y1811984D02*
X24026627Y2658651D01*
X23663770Y2658651D02*
X23421865Y1811984D01*
X23421865Y1811984D02*
X23179960Y2416746D01*
X23179960Y2416746D02*
X22938056Y1811984D01*
X22938056Y1811984D02*
X22696151Y2658651D01*
X22333294Y2658651D02*
X22091389Y1811984D01*
X22091389Y1811984D02*
X21849484Y2416746D01*
X21849484Y2416746D02*
X21607580Y1811984D01*
X21607580Y1811984D02*
X21365675Y2658651D01*
X20881866Y1932937D02*
X20821389Y1872460D01*
X20821389Y1872460D02*
X20881866Y1811984D01*
X20881866Y1811984D02*
X20942342Y1872460D01*
X20942342Y1872460D02*
X20881866Y1932937D01*
X20881866Y1932937D02*
X20881866Y1811984D01*
X20095675Y1811984D02*
X20216627Y1872460D01*
X20216627Y1872460D02*
X20277104Y1932937D01*
X20277104Y1932937D02*
X20337580Y2053889D01*
X20337580Y2053889D02*
X20337580Y2416746D01*
X20337580Y2416746D02*
X20277104Y2537699D01*
X20277104Y2537699D02*
X20216627Y2598175D01*
X20216627Y2598175D02*
X20095675Y2658651D01*
X20095675Y2658651D02*
X19914246Y2658651D01*
X19914246Y2658651D02*
X19793294Y2598175D01*
X19793294Y2598175D02*
X19732818Y2537699D01*
X19732818Y2537699D02*
X19672342Y2416746D01*
X19672342Y2416746D02*
X19672342Y2053889D01*
X19672342Y2053889D02*
X19732818Y1932937D01*
X19732818Y1932937D02*
X19793294Y1872460D01*
X19793294Y1872460D02*
X19914246Y1811984D01*
X19914246Y1811984D02*
X20095675Y1811984D01*
X18946627Y1811984D02*
X19067579Y1872460D01*
X19067579Y1872460D02*
X19128056Y1993413D01*
X19128056Y1993413D02*
X19128056Y3081984D01*
X18462818Y1811984D02*
X18462818Y2658651D01*
X18462818Y3081984D02*
X18523294Y3021508D01*
X18523294Y3021508D02*
X18462818Y2961032D01*
X18462818Y2961032D02*
X18402341Y3021508D01*
X18402341Y3021508D02*
X18462818Y3081984D01*
X18462818Y3081984D02*
X18462818Y2961032D01*
X17858056Y1811984D02*
X17858056Y2658651D01*
X17858056Y2537699D02*
X17797579Y2598175D01*
X17797579Y2598175D02*
X17676627Y2658651D01*
X17676627Y2658651D02*
X17495198Y2658651D01*
X17495198Y2658651D02*
X17374246Y2598175D01*
X17374246Y2598175D02*
X17313770Y2477222D01*
X17313770Y2477222D02*
X17313770Y1811984D01*
X17313770Y2477222D02*
X17253294Y2598175D01*
X17253294Y2598175D02*
X17132341Y2658651D01*
X17132341Y2658651D02*
X16950913Y2658651D01*
X16950913Y2658651D02*
X16829960Y2598175D01*
X16829960Y2598175D02*
X16769484Y2477222D01*
X16769484Y2477222D02*
X16769484Y1811984D01*
X15680913Y1872460D02*
X15801865Y1811984D01*
X15801865Y1811984D02*
X16043770Y1811984D01*
X16043770Y1811984D02*
X16164723Y1872460D01*
X16164723Y1872460D02*
X16225199Y1993413D01*
X16225199Y1993413D02*
X16225199Y2477222D01*
X16225199Y2477222D02*
X16164723Y2598175D01*
X16164723Y2598175D02*
X16043770Y2658651D01*
X16043770Y2658651D02*
X15801865Y2658651D01*
X15801865Y2658651D02*
X15680913Y2598175D01*
X15680913Y2598175D02*
X15620437Y2477222D01*
X15620437Y2477222D02*
X15620437Y2356270D01*
X15620437Y2356270D02*
X16225199Y2235318D01*
X15197104Y1811984D02*
X14531866Y2658651D01*
X15197104Y2658651D02*
X14531866Y1811984D01*
X14048057Y1932937D02*
X13987580Y1872460D01*
X13987580Y1872460D02*
X14048057Y1811984D01*
X14048057Y1811984D02*
X14108533Y1872460D01*
X14108533Y1872460D02*
X14048057Y1932937D01*
X14048057Y1932937D02*
X14048057Y1811984D01*
X12899009Y1872460D02*
X13019961Y1811984D01*
X13019961Y1811984D02*
X13261866Y1811984D01*
X13261866Y1811984D02*
X13382818Y1872460D01*
X13382818Y1872460D02*
X13443295Y1932937D01*
X13443295Y1932937D02*
X13503771Y2053889D01*
X13503771Y2053889D02*
X13503771Y2416746D01*
X13503771Y2416746D02*
X13443295Y2537699D01*
X13443295Y2537699D02*
X13382818Y2598175D01*
X13382818Y2598175D02*
X13261866Y2658651D01*
X13261866Y2658651D02*
X13019961Y2658651D01*
X13019961Y2658651D02*
X12899009Y2598175D01*
X12173295Y1811984D02*
X12294247Y1872460D01*
X12294247Y1872460D02*
X12354724Y1932937D01*
X12354724Y1932937D02*
X12415200Y2053889D01*
X12415200Y2053889D02*
X12415200Y2416746D01*
X12415200Y2416746D02*
X12354724Y2537699D01*
X12354724Y2537699D02*
X12294247Y2598175D01*
X12294247Y2598175D02*
X12173295Y2658651D01*
X12173295Y2658651D02*
X11991866Y2658651D01*
X11991866Y2658651D02*
X11870914Y2598175D01*
X11870914Y2598175D02*
X11810438Y2537699D01*
X11810438Y2537699D02*
X11749962Y2416746D01*
X11749962Y2416746D02*
X11749962Y2053889D01*
X11749962Y2053889D02*
X11810438Y1932937D01*
X11810438Y1932937D02*
X11870914Y1872460D01*
X11870914Y1872460D02*
X11991866Y1811984D01*
X11991866Y1811984D02*
X12173295Y1811984D01*
X11205676Y1811984D02*
X11205676Y2658651D01*
X11205676Y2537699D02*
X11145199Y2598175D01*
X11145199Y2598175D02*
X11024247Y2658651D01*
X11024247Y2658651D02*
X10842818Y2658651D01*
X10842818Y2658651D02*
X10721866Y2598175D01*
X10721866Y2598175D02*
X10661390Y2477222D01*
X10661390Y2477222D02*
X10661390Y1811984D01*
X10661390Y2477222D02*
X10600914Y2598175D01*
X10600914Y2598175D02*
X10479961Y2658651D01*
X10479961Y2658651D02*
X10298533Y2658651D01*
X10298533Y2658651D02*
X10177580Y2598175D01*
X10177580Y2598175D02*
X10117104Y2477222D01*
X10117104Y2477222D02*
X10117104Y1811984D01*
D10*
X4344047Y34317235D02*
X3569952Y34317235D01*
X3956999Y33930188D02*
X3956999Y34704283D01*
X23000952Y36488766D02*
X23775048Y36488766D01*
X19838047Y39651235D02*
X19063952Y39651235D01*
X19450999Y39264188D02*
X19450999Y40038283D01*
X3569952Y36869766D02*
X4344048Y36869766D01*
D13*
X10116500Y72891621D02*
X10158833Y72933955D01*
X10158833Y72933955D02*
X10243500Y73060955D01*
X10243500Y73060955D02*
X10285833Y73145621D01*
X10285833Y73145621D02*
X10328167Y73272621D01*
X10328167Y73272621D02*
X10370500Y73484288D01*
X10370500Y73484288D02*
X10370500Y73653621D01*
X10370500Y73653621D02*
X10328167Y73865288D01*
X10328167Y73865288D02*
X10285833Y73992288D01*
X10285833Y73992288D02*
X10243500Y74076955D01*
X10243500Y74076955D02*
X10158833Y74203955D01*
X10158833Y74203955D02*
X10116500Y74246288D01*
X9269833Y73314955D02*
X9312166Y73272621D01*
X9312166Y73272621D02*
X9439166Y73230288D01*
X9439166Y73230288D02*
X9523833Y73230288D01*
X9523833Y73230288D02*
X9650833Y73272621D01*
X9650833Y73272621D02*
X9735500Y73357288D01*
X9735500Y73357288D02*
X9777833Y73441955D01*
X9777833Y73441955D02*
X9820166Y73611288D01*
X9820166Y73611288D02*
X9820166Y73738288D01*
X9820166Y73738288D02*
X9777833Y73907621D01*
X9777833Y73907621D02*
X9735500Y73992288D01*
X9735500Y73992288D02*
X9650833Y74076955D01*
X9650833Y74076955D02*
X9523833Y74119288D01*
X9523833Y74119288D02*
X9439166Y74119288D01*
X9439166Y74119288D02*
X9312166Y74076955D01*
X9312166Y74076955D02*
X9269833Y74034621D01*
X8973500Y72891621D02*
X8931166Y72933955D01*
X8931166Y72933955D02*
X8846500Y73060955D01*
X8846500Y73060955D02*
X8804166Y73145621D01*
X8804166Y73145621D02*
X8761833Y73272621D01*
X8761833Y73272621D02*
X8719500Y73484288D01*
X8719500Y73484288D02*
X8719500Y73653621D01*
X8719500Y73653621D02*
X8761833Y73865288D01*
X8761833Y73865288D02*
X8804166Y73992288D01*
X8804166Y73992288D02*
X8846500Y74076955D01*
X8846500Y74076955D02*
X8931166Y74203955D01*
X8931166Y74203955D02*
X8973500Y74246288D01*
X7661166Y74034621D02*
X7618833Y74076955D01*
X7618833Y74076955D02*
X7534166Y74119288D01*
X7534166Y74119288D02*
X7322500Y74119288D01*
X7322500Y74119288D02*
X7237833Y74076955D01*
X7237833Y74076955D02*
X7195500Y74034621D01*
X7195500Y74034621D02*
X7153166Y73949955D01*
X7153166Y73949955D02*
X7153166Y73865288D01*
X7153166Y73865288D02*
X7195500Y73738288D01*
X7195500Y73738288D02*
X7703500Y73230288D01*
X7703500Y73230288D02*
X7153166Y73230288D01*
X6602833Y74119288D02*
X6518166Y74119288D01*
X6518166Y74119288D02*
X6433499Y74076955D01*
X6433499Y74076955D02*
X6391166Y74034621D01*
X6391166Y74034621D02*
X6348833Y73949955D01*
X6348833Y73949955D02*
X6306499Y73780621D01*
X6306499Y73780621D02*
X6306499Y73568955D01*
X6306499Y73568955D02*
X6348833Y73399621D01*
X6348833Y73399621D02*
X6391166Y73314955D01*
X6391166Y73314955D02*
X6433499Y73272621D01*
X6433499Y73272621D02*
X6518166Y73230288D01*
X6518166Y73230288D02*
X6602833Y73230288D01*
X6602833Y73230288D02*
X6687499Y73272621D01*
X6687499Y73272621D02*
X6729833Y73314955D01*
X6729833Y73314955D02*
X6772166Y73399621D01*
X6772166Y73399621D02*
X6814499Y73568955D01*
X6814499Y73568955D02*
X6814499Y73780621D01*
X6814499Y73780621D02*
X6772166Y73949955D01*
X6772166Y73949955D02*
X6729833Y74034621D01*
X6729833Y74034621D02*
X6687499Y74076955D01*
X6687499Y74076955D02*
X6602833Y74119288D01*
X5967832Y74034621D02*
X5925499Y74076955D01*
X5925499Y74076955D02*
X5840832Y74119288D01*
X5840832Y74119288D02*
X5629166Y74119288D01*
X5629166Y74119288D02*
X5544499Y74076955D01*
X5544499Y74076955D02*
X5502166Y74034621D01*
X5502166Y74034621D02*
X5459832Y73949955D01*
X5459832Y73949955D02*
X5459832Y73865288D01*
X5459832Y73865288D02*
X5502166Y73738288D01*
X5502166Y73738288D02*
X6010166Y73230288D01*
X6010166Y73230288D02*
X5459832Y73230288D01*
X4655499Y74119288D02*
X5078832Y74119288D01*
X5078832Y74119288D02*
X5121165Y73695955D01*
X5121165Y73695955D02*
X5078832Y73738288D01*
X5078832Y73738288D02*
X4994165Y73780621D01*
X4994165Y73780621D02*
X4782499Y73780621D01*
X4782499Y73780621D02*
X4697832Y73738288D01*
X4697832Y73738288D02*
X4655499Y73695955D01*
X4655499Y73695955D02*
X4613165Y73611288D01*
X4613165Y73611288D02*
X4613165Y73399621D01*
X4613165Y73399621D02*
X4655499Y73314955D01*
X4655499Y73314955D02*
X4697832Y73272621D01*
X4697832Y73272621D02*
X4782499Y73230288D01*
X4782499Y73230288D02*
X4994165Y73230288D01*
X4994165Y73230288D02*
X5078832Y73272621D01*
X5078832Y73272621D02*
X5121165Y73314955D01*
D10*
X9877618Y69459949D02*
X9925999Y69411568D01*
X9925999Y69411568D02*
X10071142Y69363188D01*
X10071142Y69363188D02*
X10167904Y69363188D01*
X10167904Y69363188D02*
X10313047Y69411568D01*
X10313047Y69411568D02*
X10409809Y69508330D01*
X10409809Y69508330D02*
X10458190Y69605092D01*
X10458190Y69605092D02*
X10506571Y69798616D01*
X10506571Y69798616D02*
X10506571Y69943759D01*
X10506571Y69943759D02*
X10458190Y70137283D01*
X10458190Y70137283D02*
X10409809Y70234045D01*
X10409809Y70234045D02*
X10313047Y70330807D01*
X10313047Y70330807D02*
X10167904Y70379188D01*
X10167904Y70379188D02*
X10071142Y70379188D01*
X10071142Y70379188D02*
X9925999Y70330807D01*
X9925999Y70330807D02*
X9877618Y70282426D01*
X9297047Y69363188D02*
X9393809Y69411568D01*
X9393809Y69411568D02*
X9442190Y69459949D01*
X9442190Y69459949D02*
X9490571Y69556711D01*
X9490571Y69556711D02*
X9490571Y69846997D01*
X9490571Y69846997D02*
X9442190Y69943759D01*
X9442190Y69943759D02*
X9393809Y69992140D01*
X9393809Y69992140D02*
X9297047Y70040521D01*
X9297047Y70040521D02*
X9151904Y70040521D01*
X9151904Y70040521D02*
X9055142Y69992140D01*
X9055142Y69992140D02*
X9006761Y69943759D01*
X9006761Y69943759D02*
X8958380Y69846997D01*
X8958380Y69846997D02*
X8958380Y69556711D01*
X8958380Y69556711D02*
X9006761Y69459949D01*
X9006761Y69459949D02*
X9055142Y69411568D01*
X9055142Y69411568D02*
X9151904Y69363188D01*
X9151904Y69363188D02*
X9297047Y69363188D01*
X8522952Y69363188D02*
X8522952Y70040521D01*
X8522952Y69943759D02*
X8474571Y69992140D01*
X8474571Y69992140D02*
X8377809Y70040521D01*
X8377809Y70040521D02*
X8232666Y70040521D01*
X8232666Y70040521D02*
X8135904Y69992140D01*
X8135904Y69992140D02*
X8087523Y69895378D01*
X8087523Y69895378D02*
X8087523Y69363188D01*
X8087523Y69895378D02*
X8039142Y69992140D01*
X8039142Y69992140D02*
X7942380Y70040521D01*
X7942380Y70040521D02*
X7797237Y70040521D01*
X7797237Y70040521D02*
X7700476Y69992140D01*
X7700476Y69992140D02*
X7652095Y69895378D01*
X7652095Y69895378D02*
X7652095Y69363188D01*
X7168285Y70040521D02*
X7168285Y69024521D01*
X7168285Y69992140D02*
X7071523Y70040521D01*
X7071523Y70040521D02*
X6877999Y70040521D01*
X6877999Y70040521D02*
X6781237Y69992140D01*
X6781237Y69992140D02*
X6732856Y69943759D01*
X6732856Y69943759D02*
X6684475Y69846997D01*
X6684475Y69846997D02*
X6684475Y69556711D01*
X6684475Y69556711D02*
X6732856Y69459949D01*
X6732856Y69459949D02*
X6781237Y69411568D01*
X6781237Y69411568D02*
X6877999Y69363188D01*
X6877999Y69363188D02*
X7071523Y69363188D01*
X7071523Y69363188D02*
X7168285Y69411568D01*
X6103904Y69363188D02*
X6200666Y69411568D01*
X6200666Y69411568D02*
X6249047Y69508330D01*
X6249047Y69508330D02*
X6249047Y70379188D01*
X5716857Y69363188D02*
X5716857Y70040521D01*
X5716857Y70379188D02*
X5765238Y70330807D01*
X5765238Y70330807D02*
X5716857Y70282426D01*
X5716857Y70282426D02*
X5668476Y70330807D01*
X5668476Y70330807D02*
X5716857Y70379188D01*
X5716857Y70379188D02*
X5716857Y70282426D01*
X4797618Y69363188D02*
X4797618Y69895378D01*
X4797618Y69895378D02*
X4845999Y69992140D01*
X4845999Y69992140D02*
X4942761Y70040521D01*
X4942761Y70040521D02*
X5136285Y70040521D01*
X5136285Y70040521D02*
X5233047Y69992140D01*
X4797618Y69411568D02*
X4894380Y69363188D01*
X4894380Y69363188D02*
X5136285Y69363188D01*
X5136285Y69363188D02*
X5233047Y69411568D01*
X5233047Y69411568D02*
X5281428Y69508330D01*
X5281428Y69508330D02*
X5281428Y69605092D01*
X5281428Y69605092D02*
X5233047Y69701854D01*
X5233047Y69701854D02*
X5136285Y69750235D01*
X5136285Y69750235D02*
X4894380Y69750235D01*
X4894380Y69750235D02*
X4797618Y69798616D01*
X4313809Y70040521D02*
X4313809Y69363188D01*
X4313809Y69943759D02*
X4265428Y69992140D01*
X4265428Y69992140D02*
X4168666Y70040521D01*
X4168666Y70040521D02*
X4023523Y70040521D01*
X4023523Y70040521D02*
X3926761Y69992140D01*
X3926761Y69992140D02*
X3878380Y69895378D01*
X3878380Y69895378D02*
X3878380Y69363188D01*
X3539714Y70040521D02*
X3152666Y70040521D01*
X3394571Y70379188D02*
X3394571Y69508330D01*
X3394571Y69508330D02*
X3346190Y69411568D01*
X3346190Y69411568D02*
X3249428Y69363188D01*
X3249428Y69363188D02*
X3152666Y69363188D01*
X4799847Y18268548D02*
X4896609Y18316928D01*
X4896609Y18316928D02*
X4944990Y18365309D01*
X4944990Y18365309D02*
X4993371Y18462071D01*
X4993371Y18462071D02*
X4993371Y18752357D01*
X4993371Y18752357D02*
X4944990Y18849119D01*
X4944990Y18849119D02*
X4896609Y18897500D01*
X4896609Y18897500D02*
X4799847Y18945881D01*
X4799847Y18945881D02*
X4654704Y18945881D01*
X4654704Y18945881D02*
X4557942Y18897500D01*
X4557942Y18897500D02*
X4509561Y18849119D01*
X4509561Y18849119D02*
X4461180Y18752357D01*
X4461180Y18752357D02*
X4461180Y18462071D01*
X4461180Y18462071D02*
X4509561Y18365309D01*
X4509561Y18365309D02*
X4557942Y18316928D01*
X4557942Y18316928D02*
X4654704Y18268548D01*
X4654704Y18268548D02*
X4799847Y18268548D01*
X3031713Y48281188D02*
X3612285Y48281188D01*
X3321999Y48281188D02*
X3321999Y49297188D01*
X3321999Y49297188D02*
X3418761Y49152045D01*
X3418761Y49152045D02*
X3515523Y49055283D01*
X3515523Y49055283D02*
X3612285Y49006902D01*
D12*
X21845856Y61095391D02*
X22099856Y61458248D01*
X22281285Y61095391D02*
X22281285Y61857391D01*
X22281285Y61857391D02*
X21990999Y61857391D01*
X21990999Y61857391D02*
X21918428Y61821105D01*
X21918428Y61821105D02*
X21882142Y61784819D01*
X21882142Y61784819D02*
X21845856Y61712248D01*
X21845856Y61712248D02*
X21845856Y61603391D01*
X21845856Y61603391D02*
X21882142Y61530819D01*
X21882142Y61530819D02*
X21918428Y61494534D01*
X21918428Y61494534D02*
X21990999Y61458248D01*
X21990999Y61458248D02*
X22281285Y61458248D01*
X21192714Y61603391D02*
X21192714Y61095391D01*
X21374142Y61893676D02*
X21555571Y61349391D01*
X21555571Y61349391D02*
X21083856Y61349391D01*
X20648428Y61857391D02*
X20575857Y61857391D01*
X20575857Y61857391D02*
X20503285Y61821105D01*
X20503285Y61821105D02*
X20467000Y61784819D01*
X20467000Y61784819D02*
X20430714Y61712248D01*
X20430714Y61712248D02*
X20394428Y61567105D01*
X20394428Y61567105D02*
X20394428Y61385676D01*
X20394428Y61385676D02*
X20430714Y61240534D01*
X20430714Y61240534D02*
X20467000Y61167962D01*
X20467000Y61167962D02*
X20503285Y61131676D01*
X20503285Y61131676D02*
X20575857Y61095391D01*
X20575857Y61095391D02*
X20648428Y61095391D01*
X20648428Y61095391D02*
X20721000Y61131676D01*
X20721000Y61131676D02*
X20757285Y61167962D01*
X20757285Y61167962D02*
X20793571Y61240534D01*
X20793571Y61240534D02*
X20829857Y61385676D01*
X20829857Y61385676D02*
X20829857Y61567105D01*
X20829857Y61567105D02*
X20793571Y61712248D01*
X20793571Y61712248D02*
X20757285Y61784819D01*
X20757285Y61784819D02*
X20721000Y61821105D01*
X20721000Y61821105D02*
X20648428Y61857391D01*
D10*
X24582622Y47643381D02*
X24582622Y47304714D01*
X25114812Y47159571D02*
X25114812Y47643381D01*
X25114812Y47643381D02*
X24098812Y47643381D01*
X24098812Y47643381D02*
X24098812Y47159571D01*
X24098812Y46820905D02*
X25114812Y46143571D01*
X24098812Y46143571D02*
X25114812Y46820905D01*
X24098812Y45901667D02*
X24098812Y45321095D01*
X25114812Y45611381D02*
X24098812Y45611381D01*
X24195574Y45030810D02*
X24147193Y44982429D01*
X24147193Y44982429D02*
X24098812Y44885667D01*
X24098812Y44885667D02*
X24098812Y44643762D01*
X24098812Y44643762D02*
X24147193Y44547000D01*
X24147193Y44547000D02*
X24195574Y44498619D01*
X24195574Y44498619D02*
X24292336Y44450238D01*
X24292336Y44450238D02*
X24389098Y44450238D01*
X24389098Y44450238D02*
X24534241Y44498619D01*
X24534241Y44498619D02*
X25114812Y45079191D01*
X25114812Y45079191D02*
X25114812Y44450238D01*
D12*
X1416999Y49919391D02*
X1670999Y50282248D01*
X1852428Y49919391D02*
X1852428Y50681391D01*
X1852428Y50681391D02*
X1562142Y50681391D01*
X1562142Y50681391D02*
X1489571Y50645105D01*
X1489571Y50645105D02*
X1453285Y50608819D01*
X1453285Y50608819D02*
X1416999Y50536248D01*
X1416999Y50536248D02*
X1416999Y50427391D01*
X1416999Y50427391D02*
X1453285Y50354819D01*
X1453285Y50354819D02*
X1489571Y50318534D01*
X1489571Y50318534D02*
X1562142Y50282248D01*
X1562142Y50282248D02*
X1852428Y50282248D01*
X691285Y49919391D02*
X1126714Y49919391D01*
X908999Y49919391D02*
X908999Y50681391D01*
X908999Y50681391D02*
X981571Y50572534D01*
X981571Y50572534D02*
X1054142Y50499962D01*
X1054142Y50499962D02*
X1126714Y50463676D01*
D13*
X20485712Y29074167D02*
X20062379Y29370500D01*
X20485712Y29582167D02*
X19596712Y29582167D01*
X19596712Y29582167D02*
X19596712Y29243500D01*
X19596712Y29243500D02*
X19639045Y29158833D01*
X19639045Y29158833D02*
X19681379Y29116500D01*
X19681379Y29116500D02*
X19766045Y29074167D01*
X19766045Y29074167D02*
X19893045Y29074167D01*
X19893045Y29074167D02*
X19977712Y29116500D01*
X19977712Y29116500D02*
X20020045Y29158833D01*
X20020045Y29158833D02*
X20062379Y29243500D01*
X20062379Y29243500D02*
X20062379Y29582167D01*
X20485712Y28693167D02*
X19596712Y28693167D01*
X19596712Y28693167D02*
X20231712Y28396833D01*
X20231712Y28396833D02*
X19596712Y28100500D01*
X19596712Y28100500D02*
X20485712Y28100500D01*
X20485712Y27211500D02*
X20485712Y27719500D01*
X20485712Y27465500D02*
X19596712Y27465500D01*
X19596712Y27465500D02*
X19723712Y27550167D01*
X19723712Y27550167D02*
X19808379Y27634833D01*
X19808379Y27634833D02*
X19850712Y27719500D01*
X7703499Y63070288D02*
X7703499Y63959288D01*
X7703499Y63959288D02*
X7407166Y63324288D01*
X7407166Y63324288D02*
X7110832Y63959288D01*
X7110832Y63959288D02*
X7110832Y63070288D01*
X6687499Y63070288D02*
X6687499Y63959288D01*
X5756166Y63154955D02*
X5798499Y63112621D01*
X5798499Y63112621D02*
X5925499Y63070288D01*
X5925499Y63070288D02*
X6010166Y63070288D01*
X6010166Y63070288D02*
X6137166Y63112621D01*
X6137166Y63112621D02*
X6221833Y63197288D01*
X6221833Y63197288D02*
X6264166Y63281955D01*
X6264166Y63281955D02*
X6306499Y63451288D01*
X6306499Y63451288D02*
X6306499Y63578288D01*
X6306499Y63578288D02*
X6264166Y63747621D01*
X6264166Y63747621D02*
X6221833Y63832288D01*
X6221833Y63832288D02*
X6137166Y63916955D01*
X6137166Y63916955D02*
X6010166Y63959288D01*
X6010166Y63959288D02*
X5925499Y63959288D01*
X5925499Y63959288D02*
X5798499Y63916955D01*
X5798499Y63916955D02*
X5756166Y63874621D01*
X4867166Y63070288D02*
X5163499Y63493621D01*
X5375166Y63070288D02*
X5375166Y63959288D01*
X5375166Y63959288D02*
X5036499Y63959288D01*
X5036499Y63959288D02*
X4951833Y63916955D01*
X4951833Y63916955D02*
X4909499Y63874621D01*
X4909499Y63874621D02*
X4867166Y63789955D01*
X4867166Y63789955D02*
X4867166Y63662955D01*
X4867166Y63662955D02*
X4909499Y63578288D01*
X4909499Y63578288D02*
X4951833Y63535955D01*
X4951833Y63535955D02*
X5036499Y63493621D01*
X5036499Y63493621D02*
X5375166Y63493621D01*
X4316833Y63959288D02*
X4147499Y63959288D01*
X4147499Y63959288D02*
X4062833Y63916955D01*
X4062833Y63916955D02*
X3978166Y63832288D01*
X3978166Y63832288D02*
X3935833Y63662955D01*
X3935833Y63662955D02*
X3935833Y63366621D01*
X3935833Y63366621D02*
X3978166Y63197288D01*
X3978166Y63197288D02*
X4062833Y63112621D01*
X4062833Y63112621D02*
X4147499Y63070288D01*
X4147499Y63070288D02*
X4316833Y63070288D01*
X4316833Y63070288D02*
X4401499Y63112621D01*
X4401499Y63112621D02*
X4486166Y63197288D01*
X4486166Y63197288D02*
X4528499Y63366621D01*
X4528499Y63366621D02*
X4528499Y63662955D01*
X4528499Y63662955D02*
X4486166Y63832288D01*
X4486166Y63832288D02*
X4401499Y63916955D01*
X4401499Y63916955D02*
X4316833Y63959288D01*
X3766500Y62985621D02*
X3089166Y62985621D01*
X2919833Y63112621D02*
X2792833Y63070288D01*
X2792833Y63070288D02*
X2581167Y63070288D01*
X2581167Y63070288D02*
X2496500Y63112621D01*
X2496500Y63112621D02*
X2454167Y63154955D01*
X2454167Y63154955D02*
X2411833Y63239621D01*
X2411833Y63239621D02*
X2411833Y63324288D01*
X2411833Y63324288D02*
X2454167Y63408955D01*
X2454167Y63408955D02*
X2496500Y63451288D01*
X2496500Y63451288D02*
X2581167Y63493621D01*
X2581167Y63493621D02*
X2750500Y63535955D01*
X2750500Y63535955D02*
X2835167Y63578288D01*
X2835167Y63578288D02*
X2877500Y63620621D01*
X2877500Y63620621D02*
X2919833Y63705288D01*
X2919833Y63705288D02*
X2919833Y63789955D01*
X2919833Y63789955D02*
X2877500Y63874621D01*
X2877500Y63874621D02*
X2835167Y63916955D01*
X2835167Y63916955D02*
X2750500Y63959288D01*
X2750500Y63959288D02*
X2538833Y63959288D01*
X2538833Y63959288D02*
X2411833Y63916955D01*
X2030833Y63070288D02*
X2030833Y63959288D01*
X2030833Y63959288D02*
X1819166Y63959288D01*
X1819166Y63959288D02*
X1692166Y63916955D01*
X1692166Y63916955D02*
X1607500Y63832288D01*
X1607500Y63832288D02*
X1565166Y63747621D01*
X1565166Y63747621D02*
X1522833Y63578288D01*
X1522833Y63578288D02*
X1522833Y63451288D01*
X1522833Y63451288D02*
X1565166Y63281955D01*
X1565166Y63281955D02*
X1607500Y63197288D01*
X1607500Y63197288D02*
X1692166Y63112621D01*
X1692166Y63112621D02*
X1819166Y63070288D01*
X1819166Y63070288D02*
X2030833Y63070288D01*
X676166Y63070288D02*
X1184166Y63070288D01*
X930166Y63070288D02*
X930166Y63959288D01*
X930166Y63959288D02*
X1014833Y63832288D01*
X1014833Y63832288D02*
X1099500Y63747621D01*
X1099500Y63747621D02*
X1184166Y63705288D01*
D12*
X17164999Y60151962D02*
X17201285Y60115676D01*
X17201285Y60115676D02*
X17310142Y60079391D01*
X17310142Y60079391D02*
X17382714Y60079391D01*
X17382714Y60079391D02*
X17491571Y60115676D01*
X17491571Y60115676D02*
X17564142Y60188248D01*
X17564142Y60188248D02*
X17600428Y60260819D01*
X17600428Y60260819D02*
X17636714Y60405962D01*
X17636714Y60405962D02*
X17636714Y60514819D01*
X17636714Y60514819D02*
X17600428Y60659962D01*
X17600428Y60659962D02*
X17564142Y60732534D01*
X17564142Y60732534D02*
X17491571Y60805105D01*
X17491571Y60805105D02*
X17382714Y60841391D01*
X17382714Y60841391D02*
X17310142Y60841391D01*
X17310142Y60841391D02*
X17201285Y60805105D01*
X17201285Y60805105D02*
X17164999Y60768819D01*
X16910999Y60841391D02*
X16439285Y60841391D01*
X16439285Y60841391D02*
X16693285Y60551105D01*
X16693285Y60551105D02*
X16584428Y60551105D01*
X16584428Y60551105D02*
X16511857Y60514819D01*
X16511857Y60514819D02*
X16475571Y60478534D01*
X16475571Y60478534D02*
X16439285Y60405962D01*
X16439285Y60405962D02*
X16439285Y60224534D01*
X16439285Y60224534D02*
X16475571Y60151962D01*
X16475571Y60151962D02*
X16511857Y60115676D01*
X16511857Y60115676D02*
X16584428Y60079391D01*
X16584428Y60079391D02*
X16802142Y60079391D01*
X16802142Y60079391D02*
X16874714Y60115676D01*
X16874714Y60115676D02*
X16910999Y60151962D01*
X10615427Y60079391D02*
X10869427Y60442248D01*
X11050856Y60079391D02*
X11050856Y60841391D01*
X11050856Y60841391D02*
X10760570Y60841391D01*
X10760570Y60841391D02*
X10687999Y60805105D01*
X10687999Y60805105D02*
X10651713Y60768819D01*
X10651713Y60768819D02*
X10615427Y60696248D01*
X10615427Y60696248D02*
X10615427Y60587391D01*
X10615427Y60587391D02*
X10651713Y60514819D01*
X10651713Y60514819D02*
X10687999Y60478534D01*
X10687999Y60478534D02*
X10760570Y60442248D01*
X10760570Y60442248D02*
X11050856Y60442248D01*
X10288856Y60079391D02*
X10288856Y60841391D01*
X10288856Y60841391D02*
X10034856Y60297105D01*
X10034856Y60297105D02*
X9780856Y60841391D01*
X9780856Y60841391D02*
X9780856Y60079391D01*
X9454285Y60768819D02*
X9417999Y60805105D01*
X9417999Y60805105D02*
X9345428Y60841391D01*
X9345428Y60841391D02*
X9163999Y60841391D01*
X9163999Y60841391D02*
X9091428Y60805105D01*
X9091428Y60805105D02*
X9055142Y60768819D01*
X9055142Y60768819D02*
X9018856Y60696248D01*
X9018856Y60696248D02*
X9018856Y60623676D01*
X9018856Y60623676D02*
X9055142Y60514819D01*
X9055142Y60514819D02*
X9490570Y60079391D01*
X9490570Y60079391D02*
X9018856Y60079391D01*
X2287856Y66556391D02*
X2541856Y66919248D01*
X2723285Y66556391D02*
X2723285Y67318391D01*
X2723285Y67318391D02*
X2432999Y67318391D01*
X2432999Y67318391D02*
X2360428Y67282105D01*
X2360428Y67282105D02*
X2324142Y67245819D01*
X2324142Y67245819D02*
X2287856Y67173248D01*
X2287856Y67173248D02*
X2287856Y67064391D01*
X2287856Y67064391D02*
X2324142Y66991819D01*
X2324142Y66991819D02*
X2360428Y66955534D01*
X2360428Y66955534D02*
X2432999Y66919248D01*
X2432999Y66919248D02*
X2723285Y66919248D01*
X1634714Y67064391D02*
X1634714Y66556391D01*
X1816142Y67354676D02*
X1997571Y66810391D01*
X1997571Y66810391D02*
X1525856Y66810391D01*
X909000Y67318391D02*
X1054142Y67318391D01*
X1054142Y67318391D02*
X1126714Y67282105D01*
X1126714Y67282105D02*
X1163000Y67245819D01*
X1163000Y67245819D02*
X1235571Y67136962D01*
X1235571Y67136962D02*
X1271857Y66991819D01*
X1271857Y66991819D02*
X1271857Y66701534D01*
X1271857Y66701534D02*
X1235571Y66628962D01*
X1235571Y66628962D02*
X1199285Y66592676D01*
X1199285Y66592676D02*
X1126714Y66556391D01*
X1126714Y66556391D02*
X981571Y66556391D01*
X981571Y66556391D02*
X909000Y66592676D01*
X909000Y66592676D02*
X872714Y66628962D01*
X872714Y66628962D02*
X836428Y66701534D01*
X836428Y66701534D02*
X836428Y66882962D01*
X836428Y66882962D02*
X872714Y66955534D01*
X872714Y66955534D02*
X909000Y66991819D01*
X909000Y66991819D02*
X981571Y67028105D01*
X981571Y67028105D02*
X1126714Y67028105D01*
X1126714Y67028105D02*
X1199285Y66991819D01*
X1199285Y66991819D02*
X1235571Y66955534D01*
X1235571Y66955534D02*
X1271857Y66882962D01*
D10*
X3373622Y47643381D02*
X3373622Y47304714D01*
X3905812Y47159571D02*
X3905812Y47643381D01*
X3905812Y47643381D02*
X2889812Y47643381D01*
X2889812Y47643381D02*
X2889812Y47159571D01*
X2889812Y46820905D02*
X3905812Y46143571D01*
X2889812Y46143571D02*
X3905812Y46820905D01*
X2889812Y45901667D02*
X2889812Y45321095D01*
X3905812Y45611381D02*
X2889812Y45611381D01*
X3905812Y44450238D02*
X3905812Y45030810D01*
X3905812Y44740524D02*
X2889812Y44740524D01*
X2889812Y44740524D02*
X3034955Y44837286D01*
X3034955Y44837286D02*
X3131717Y44934048D01*
X3131717Y44934048D02*
X3180098Y45030810D01*
D12*
X12592999Y30125534D02*
X12846999Y30125534D01*
X12846999Y29726391D02*
X12846999Y30488391D01*
X12846999Y30488391D02*
X12484142Y30488391D01*
X12193856Y30125534D02*
X11939856Y30125534D01*
X11830999Y29726391D02*
X12193856Y29726391D01*
X12193856Y29726391D02*
X12193856Y30488391D01*
X12193856Y30488391D02*
X11830999Y30488391D01*
X11613284Y30488391D02*
X11177856Y30488391D01*
X11395570Y29726391D02*
X11395570Y30488391D01*
X10996427Y30488391D02*
X10524713Y30488391D01*
X10524713Y30488391D02*
X10778713Y30198105D01*
X10778713Y30198105D02*
X10669856Y30198105D01*
X10669856Y30198105D02*
X10597285Y30161819D01*
X10597285Y30161819D02*
X10560999Y30125534D01*
X10560999Y30125534D02*
X10524713Y30052962D01*
X10524713Y30052962D02*
X10524713Y29871534D01*
X10524713Y29871534D02*
X10560999Y29798962D01*
X10560999Y29798962D02*
X10597285Y29762676D01*
X10597285Y29762676D02*
X10669856Y29726391D01*
X10669856Y29726391D02*
X10887570Y29726391D01*
X10887570Y29726391D02*
X10960142Y29762676D01*
X10960142Y29762676D02*
X10996427Y29798962D01*
X12592999Y25861962D02*
X12629285Y25825676D01*
X12629285Y25825676D02*
X12738142Y25789391D01*
X12738142Y25789391D02*
X12810714Y25789391D01*
X12810714Y25789391D02*
X12919571Y25825676D01*
X12919571Y25825676D02*
X12992142Y25898248D01*
X12992142Y25898248D02*
X13028428Y25970819D01*
X13028428Y25970819D02*
X13064714Y26115962D01*
X13064714Y26115962D02*
X13064714Y26224819D01*
X13064714Y26224819D02*
X13028428Y26369962D01*
X13028428Y26369962D02*
X12992142Y26442534D01*
X12992142Y26442534D02*
X12919571Y26515105D01*
X12919571Y26515105D02*
X12810714Y26551391D01*
X12810714Y26551391D02*
X12738142Y26551391D01*
X12738142Y26551391D02*
X12629285Y26515105D01*
X12629285Y26515105D02*
X12592999Y26478819D01*
X12230142Y25789391D02*
X12084999Y25789391D01*
X12084999Y25789391D02*
X12012428Y25825676D01*
X12012428Y25825676D02*
X11976142Y25861962D01*
X11976142Y25861962D02*
X11903571Y25970819D01*
X11903571Y25970819D02*
X11867285Y26115962D01*
X11867285Y26115962D02*
X11867285Y26406248D01*
X11867285Y26406248D02*
X11903571Y26478819D01*
X11903571Y26478819D02*
X11939857Y26515105D01*
X11939857Y26515105D02*
X12012428Y26551391D01*
X12012428Y26551391D02*
X12157571Y26551391D01*
X12157571Y26551391D02*
X12230142Y26515105D01*
X12230142Y26515105D02*
X12266428Y26478819D01*
X12266428Y26478819D02*
X12302714Y26406248D01*
X12302714Y26406248D02*
X12302714Y26224819D01*
X12302714Y26224819D02*
X12266428Y26152248D01*
X12266428Y26152248D02*
X12230142Y26115962D01*
X12230142Y26115962D02*
X12157571Y26079676D01*
X12157571Y26079676D02*
X12012428Y26079676D01*
X12012428Y26079676D02*
X11939857Y26115962D01*
X11939857Y26115962D02*
X11903571Y26152248D01*
X11903571Y26152248D02*
X11867285Y26224819D01*
X24166038Y16207857D02*
X24202324Y16244143D01*
X24202324Y16244143D02*
X24238609Y16353000D01*
X24238609Y16353000D02*
X24238609Y16425572D01*
X24238609Y16425572D02*
X24202324Y16534429D01*
X24202324Y16534429D02*
X24129752Y16607000D01*
X24129752Y16607000D02*
X24057181Y16643286D01*
X24057181Y16643286D02*
X23912038Y16679572D01*
X23912038Y16679572D02*
X23803181Y16679572D01*
X23803181Y16679572D02*
X23658038Y16643286D01*
X23658038Y16643286D02*
X23585466Y16607000D01*
X23585466Y16607000D02*
X23512895Y16534429D01*
X23512895Y16534429D02*
X23476609Y16425572D01*
X23476609Y16425572D02*
X23476609Y16353000D01*
X23476609Y16353000D02*
X23512895Y16244143D01*
X23512895Y16244143D02*
X23549181Y16207857D01*
X24238609Y15482143D02*
X24238609Y15917572D01*
X24238609Y15699857D02*
X23476609Y15699857D01*
X23476609Y15699857D02*
X23585466Y15772429D01*
X23585466Y15772429D02*
X23658038Y15845000D01*
X23658038Y15845000D02*
X23694324Y15917572D01*
X23476609Y14792715D02*
X23476609Y15155572D01*
X23476609Y15155572D02*
X23839466Y15191858D01*
X23839466Y15191858D02*
X23803181Y15155572D01*
X23803181Y15155572D02*
X23766895Y15083000D01*
X23766895Y15083000D02*
X23766895Y14901572D01*
X23766895Y14901572D02*
X23803181Y14829000D01*
X23803181Y14829000D02*
X23839466Y14792715D01*
X23839466Y14792715D02*
X23912038Y14756429D01*
X23912038Y14756429D02*
X24093466Y14756429D01*
X24093466Y14756429D02*
X24166038Y14792715D01*
X24166038Y14792715D02*
X24202324Y14829000D01*
X24202324Y14829000D02*
X24238609Y14901572D01*
X24238609Y14901572D02*
X24238609Y15083000D01*
X24238609Y15083000D02*
X24202324Y15155572D01*
X24202324Y15155572D02*
X24166038Y15191858D01*
X14107638Y18443057D02*
X14143924Y18479343D01*
X14143924Y18479343D02*
X14180209Y18588200D01*
X14180209Y18588200D02*
X14180209Y18660772D01*
X14180209Y18660772D02*
X14143924Y18769629D01*
X14143924Y18769629D02*
X14071352Y18842200D01*
X14071352Y18842200D02*
X13998781Y18878486D01*
X13998781Y18878486D02*
X13853638Y18914772D01*
X13853638Y18914772D02*
X13744781Y18914772D01*
X13744781Y18914772D02*
X13599638Y18878486D01*
X13599638Y18878486D02*
X13527066Y18842200D01*
X13527066Y18842200D02*
X13454495Y18769629D01*
X13454495Y18769629D02*
X13418209Y18660772D01*
X13418209Y18660772D02*
X13418209Y18588200D01*
X13418209Y18588200D02*
X13454495Y18479343D01*
X13454495Y18479343D02*
X13490781Y18443057D01*
X14180209Y17717343D02*
X14180209Y18152772D01*
X14180209Y17935057D02*
X13418209Y17935057D01*
X13418209Y17935057D02*
X13527066Y18007629D01*
X13527066Y18007629D02*
X13599638Y18080200D01*
X13599638Y18080200D02*
X13635924Y18152772D01*
X13418209Y17064200D02*
X13418209Y17209343D01*
X13418209Y17209343D02*
X13454495Y17281915D01*
X13454495Y17281915D02*
X13490781Y17318200D01*
X13490781Y17318200D02*
X13599638Y17390772D01*
X13599638Y17390772D02*
X13744781Y17427058D01*
X13744781Y17427058D02*
X14035066Y17427058D01*
X14035066Y17427058D02*
X14107638Y17390772D01*
X14107638Y17390772D02*
X14143924Y17354486D01*
X14143924Y17354486D02*
X14180209Y17281915D01*
X14180209Y17281915D02*
X14180209Y17136772D01*
X14180209Y17136772D02*
X14143924Y17064200D01*
X14143924Y17064200D02*
X14107638Y17027915D01*
X14107638Y17027915D02*
X14035066Y16991629D01*
X14035066Y16991629D02*
X13853638Y16991629D01*
X13853638Y16991629D02*
X13781066Y17027915D01*
X13781066Y17027915D02*
X13744781Y17064200D01*
X13744781Y17064200D02*
X13708495Y17136772D01*
X13708495Y17136772D02*
X13708495Y17281915D01*
X13708495Y17281915D02*
X13744781Y17354486D01*
X13744781Y17354486D02*
X13781066Y17390772D01*
X13781066Y17390772D02*
X13853638Y17427058D01*
X14606856Y22940962D02*
X14643142Y22904676D01*
X14643142Y22904676D02*
X14751999Y22868391D01*
X14751999Y22868391D02*
X14824571Y22868391D01*
X14824571Y22868391D02*
X14933428Y22904676D01*
X14933428Y22904676D02*
X15005999Y22977248D01*
X15005999Y22977248D02*
X15042285Y23049819D01*
X15042285Y23049819D02*
X15078571Y23194962D01*
X15078571Y23194962D02*
X15078571Y23303819D01*
X15078571Y23303819D02*
X15042285Y23448962D01*
X15042285Y23448962D02*
X15005999Y23521534D01*
X15005999Y23521534D02*
X14933428Y23594105D01*
X14933428Y23594105D02*
X14824571Y23630391D01*
X14824571Y23630391D02*
X14751999Y23630391D01*
X14751999Y23630391D02*
X14643142Y23594105D01*
X14643142Y23594105D02*
X14606856Y23557819D01*
X13881142Y22868391D02*
X14316571Y22868391D01*
X14098856Y22868391D02*
X14098856Y23630391D01*
X14098856Y23630391D02*
X14171428Y23521534D01*
X14171428Y23521534D02*
X14243999Y23448962D01*
X14243999Y23448962D02*
X14316571Y23412676D01*
X13445714Y23303819D02*
X13518285Y23340105D01*
X13518285Y23340105D02*
X13554571Y23376391D01*
X13554571Y23376391D02*
X13590857Y23448962D01*
X13590857Y23448962D02*
X13590857Y23485248D01*
X13590857Y23485248D02*
X13554571Y23557819D01*
X13554571Y23557819D02*
X13518285Y23594105D01*
X13518285Y23594105D02*
X13445714Y23630391D01*
X13445714Y23630391D02*
X13300571Y23630391D01*
X13300571Y23630391D02*
X13228000Y23594105D01*
X13228000Y23594105D02*
X13191714Y23557819D01*
X13191714Y23557819D02*
X13155428Y23485248D01*
X13155428Y23485248D02*
X13155428Y23448962D01*
X13155428Y23448962D02*
X13191714Y23376391D01*
X13191714Y23376391D02*
X13228000Y23340105D01*
X13228000Y23340105D02*
X13300571Y23303819D01*
X13300571Y23303819D02*
X13445714Y23303819D01*
X13445714Y23303819D02*
X13518285Y23267534D01*
X13518285Y23267534D02*
X13554571Y23231248D01*
X13554571Y23231248D02*
X13590857Y23158676D01*
X13590857Y23158676D02*
X13590857Y23013534D01*
X13590857Y23013534D02*
X13554571Y22940962D01*
X13554571Y22940962D02*
X13518285Y22904676D01*
X13518285Y22904676D02*
X13445714Y22868391D01*
X13445714Y22868391D02*
X13300571Y22868391D01*
X13300571Y22868391D02*
X13228000Y22904676D01*
X13228000Y22904676D02*
X13191714Y22940962D01*
X13191714Y22940962D02*
X13155428Y23013534D01*
X13155428Y23013534D02*
X13155428Y23158676D01*
X13155428Y23158676D02*
X13191714Y23231248D01*
X13191714Y23231248D02*
X13228000Y23267534D01*
X13228000Y23267534D02*
X13300571Y23303819D01*
X14162356Y24210962D02*
X14198642Y24174676D01*
X14198642Y24174676D02*
X14307499Y24138391D01*
X14307499Y24138391D02*
X14380071Y24138391D01*
X14380071Y24138391D02*
X14488928Y24174676D01*
X14488928Y24174676D02*
X14561499Y24247248D01*
X14561499Y24247248D02*
X14597785Y24319819D01*
X14597785Y24319819D02*
X14634071Y24464962D01*
X14634071Y24464962D02*
X14634071Y24573819D01*
X14634071Y24573819D02*
X14597785Y24718962D01*
X14597785Y24718962D02*
X14561499Y24791534D01*
X14561499Y24791534D02*
X14488928Y24864105D01*
X14488928Y24864105D02*
X14380071Y24900391D01*
X14380071Y24900391D02*
X14307499Y24900391D01*
X14307499Y24900391D02*
X14198642Y24864105D01*
X14198642Y24864105D02*
X14162356Y24827819D01*
X13436642Y24138391D02*
X13872071Y24138391D01*
X13654356Y24138391D02*
X13654356Y24900391D01*
X13654356Y24900391D02*
X13726928Y24791534D01*
X13726928Y24791534D02*
X13799499Y24718962D01*
X13799499Y24718962D02*
X13872071Y24682676D01*
X13182642Y24900391D02*
X12674642Y24900391D01*
X12674642Y24900391D02*
X13001214Y24138391D01*
X13862999Y21598391D02*
X14225856Y21598391D01*
X14225856Y21598391D02*
X14225856Y22360391D01*
X13209856Y21598391D02*
X13645285Y21598391D01*
X13427570Y21598391D02*
X13427570Y22360391D01*
X13427570Y22360391D02*
X13500142Y22251534D01*
X13500142Y22251534D02*
X13572713Y22178962D01*
X13572713Y22178962D02*
X13645285Y22142676D01*
X8782999Y7827962D02*
X8819285Y7791676D01*
X8819285Y7791676D02*
X8928142Y7755391D01*
X8928142Y7755391D02*
X9000714Y7755391D01*
X9000714Y7755391D02*
X9109571Y7791676D01*
X9109571Y7791676D02*
X9182142Y7864248D01*
X9182142Y7864248D02*
X9218428Y7936819D01*
X9218428Y7936819D02*
X9254714Y8081962D01*
X9254714Y8081962D02*
X9254714Y8190819D01*
X9254714Y8190819D02*
X9218428Y8335962D01*
X9218428Y8335962D02*
X9182142Y8408534D01*
X9182142Y8408534D02*
X9109571Y8481105D01*
X9109571Y8481105D02*
X9000714Y8517391D01*
X9000714Y8517391D02*
X8928142Y8517391D01*
X8928142Y8517391D02*
X8819285Y8481105D01*
X8819285Y8481105D02*
X8782999Y8444819D01*
X8057285Y7755391D02*
X8492714Y7755391D01*
X8274999Y7755391D02*
X8274999Y8517391D01*
X8274999Y8517391D02*
X8347571Y8408534D01*
X8347571Y8408534D02*
X8420142Y8335962D01*
X8420142Y8335962D02*
X8492714Y8299676D01*
D13*
X4054367Y10212888D02*
X4477700Y10212888D01*
X4477700Y10212888D02*
X4477700Y11101888D01*
X3842700Y11101888D02*
X3292366Y11101888D01*
X3292366Y11101888D02*
X3588700Y10763221D01*
X3588700Y10763221D02*
X3461700Y10763221D01*
X3461700Y10763221D02*
X3377033Y10720888D01*
X3377033Y10720888D02*
X3334700Y10678555D01*
X3334700Y10678555D02*
X3292366Y10593888D01*
X3292366Y10593888D02*
X3292366Y10382221D01*
X3292366Y10382221D02*
X3334700Y10297555D01*
X3334700Y10297555D02*
X3377033Y10255221D01*
X3377033Y10255221D02*
X3461700Y10212888D01*
X3461700Y10212888D02*
X3715700Y10212888D01*
X3715700Y10212888D02*
X3800366Y10255221D01*
X3800366Y10255221D02*
X3842700Y10297555D01*
D12*
X8732199Y5393191D02*
X8986199Y5756048D01*
X9167628Y5393191D02*
X9167628Y6155191D01*
X9167628Y6155191D02*
X8877342Y6155191D01*
X8877342Y6155191D02*
X8804771Y6118905D01*
X8804771Y6118905D02*
X8768485Y6082619D01*
X8768485Y6082619D02*
X8732199Y6010048D01*
X8732199Y6010048D02*
X8732199Y5901191D01*
X8732199Y5901191D02*
X8768485Y5828619D01*
X8768485Y5828619D02*
X8804771Y5792334D01*
X8804771Y5792334D02*
X8877342Y5756048D01*
X8877342Y5756048D02*
X9167628Y5756048D01*
X8079057Y6155191D02*
X8224199Y6155191D01*
X8224199Y6155191D02*
X8296771Y6118905D01*
X8296771Y6118905D02*
X8333057Y6082619D01*
X8333057Y6082619D02*
X8405628Y5973762D01*
X8405628Y5973762D02*
X8441914Y5828619D01*
X8441914Y5828619D02*
X8441914Y5538334D01*
X8441914Y5538334D02*
X8405628Y5465762D01*
X8405628Y5465762D02*
X8369342Y5429476D01*
X8369342Y5429476D02*
X8296771Y5393191D01*
X8296771Y5393191D02*
X8151628Y5393191D01*
X8151628Y5393191D02*
X8079057Y5429476D01*
X8079057Y5429476D02*
X8042771Y5465762D01*
X8042771Y5465762D02*
X8006485Y5538334D01*
X8006485Y5538334D02*
X8006485Y5719762D01*
X8006485Y5719762D02*
X8042771Y5792334D01*
X8042771Y5792334D02*
X8079057Y5828619D01*
X8079057Y5828619D02*
X8151628Y5864905D01*
X8151628Y5864905D02*
X8296771Y5864905D01*
X8296771Y5864905D02*
X8369342Y5828619D01*
X8369342Y5828619D02*
X8405628Y5792334D01*
X8405628Y5792334D02*
X8441914Y5719762D01*
X5462856Y1405391D02*
X5716856Y1768248D01*
X5898285Y1405391D02*
X5898285Y2167391D01*
X5898285Y2167391D02*
X5607999Y2167391D01*
X5607999Y2167391D02*
X5535428Y2131105D01*
X5535428Y2131105D02*
X5499142Y2094819D01*
X5499142Y2094819D02*
X5462856Y2022248D01*
X5462856Y2022248D02*
X5462856Y1913391D01*
X5462856Y1913391D02*
X5499142Y1840819D01*
X5499142Y1840819D02*
X5535428Y1804534D01*
X5535428Y1804534D02*
X5607999Y1768248D01*
X5607999Y1768248D02*
X5898285Y1768248D01*
X5172571Y2094819D02*
X5136285Y2131105D01*
X5136285Y2131105D02*
X5063714Y2167391D01*
X5063714Y2167391D02*
X4882285Y2167391D01*
X4882285Y2167391D02*
X4809714Y2131105D01*
X4809714Y2131105D02*
X4773428Y2094819D01*
X4773428Y2094819D02*
X4737142Y2022248D01*
X4737142Y2022248D02*
X4737142Y1949676D01*
X4737142Y1949676D02*
X4773428Y1840819D01*
X4773428Y1840819D02*
X5208856Y1405391D01*
X5208856Y1405391D02*
X4737142Y1405391D01*
X4446857Y2094819D02*
X4410571Y2131105D01*
X4410571Y2131105D02*
X4338000Y2167391D01*
X4338000Y2167391D02*
X4156571Y2167391D01*
X4156571Y2167391D02*
X4084000Y2131105D01*
X4084000Y2131105D02*
X4047714Y2094819D01*
X4047714Y2094819D02*
X4011428Y2022248D01*
X4011428Y2022248D02*
X4011428Y1949676D01*
X4011428Y1949676D02*
X4047714Y1840819D01*
X4047714Y1840819D02*
X4483142Y1405391D01*
X4483142Y1405391D02*
X4011428Y1405391D01*
X5462856Y334962D02*
X5499142Y298676D01*
X5499142Y298676D02*
X5607999Y262391D01*
X5607999Y262391D02*
X5680571Y262391D01*
X5680571Y262391D02*
X5789428Y298676D01*
X5789428Y298676D02*
X5861999Y371248D01*
X5861999Y371248D02*
X5898285Y443819D01*
X5898285Y443819D02*
X5934571Y588962D01*
X5934571Y588962D02*
X5934571Y697819D01*
X5934571Y697819D02*
X5898285Y842962D01*
X5898285Y842962D02*
X5861999Y915534D01*
X5861999Y915534D02*
X5789428Y988105D01*
X5789428Y988105D02*
X5680571Y1024391D01*
X5680571Y1024391D02*
X5607999Y1024391D01*
X5607999Y1024391D02*
X5499142Y988105D01*
X5499142Y988105D02*
X5462856Y951819D01*
X4737142Y262391D02*
X5172571Y262391D01*
X4954856Y262391D02*
X4954856Y1024391D01*
X4954856Y1024391D02*
X5027428Y915534D01*
X5027428Y915534D02*
X5099999Y842962D01*
X5099999Y842962D02*
X5172571Y806676D01*
X4374285Y262391D02*
X4229142Y262391D01*
X4229142Y262391D02*
X4156571Y298676D01*
X4156571Y298676D02*
X4120285Y334962D01*
X4120285Y334962D02*
X4047714Y443819D01*
X4047714Y443819D02*
X4011428Y588962D01*
X4011428Y588962D02*
X4011428Y879248D01*
X4011428Y879248D02*
X4047714Y951819D01*
X4047714Y951819D02*
X4084000Y988105D01*
X4084000Y988105D02*
X4156571Y1024391D01*
X4156571Y1024391D02*
X4301714Y1024391D01*
X4301714Y1024391D02*
X4374285Y988105D01*
X4374285Y988105D02*
X4410571Y951819D01*
X4410571Y951819D02*
X4446857Y879248D01*
X4446857Y879248D02*
X4446857Y697819D01*
X4446857Y697819D02*
X4410571Y625248D01*
X4410571Y625248D02*
X4374285Y588962D01*
X4374285Y588962D02*
X4301714Y552676D01*
X4301714Y552676D02*
X4156571Y552676D01*
X4156571Y552676D02*
X4084000Y588962D01*
X4084000Y588962D02*
X4047714Y625248D01*
X4047714Y625248D02*
X4011428Y697819D01*
D15*
G36*
X10546786Y4233604D02*
G01*
X10420249Y4233604D01*
X10391917Y4247770D01*
X10381338Y4258348D01*
X10367172Y4286681D01*
X10367172Y4333532D01*
X10381338Y4361865D01*
X10388272Y4368799D01*
X10441703Y4386609D01*
X10546786Y4386609D01*
X10546786Y4233604D01*
G37*
G36*
X10546786Y4526309D02*
G01*
X10446858Y4526309D01*
X10418526Y4540475D01*
X10407948Y4551053D01*
X10393781Y4579388D01*
X10393781Y4599626D01*
X10407948Y4627961D01*
X10418525Y4638538D01*
X10446858Y4652704D01*
X10546786Y4652704D01*
X10546786Y4526309D01*
G37*
G36*
X9987534Y4393261D02*
G01*
X9915262Y4393261D01*
X9951398Y4501668D01*
X9987534Y4393261D01*
G37*
G36*
X10766315Y3960856D02*
G01*
X5198273Y3960856D01*
X5198273Y4163754D01*
X5278102Y4163754D01*
X5298561Y4114363D01*
X5347952Y4093904D01*
X5507609Y4093904D01*
X5667266Y4093904D01*
X5716657Y4114363D01*
X5737116Y4163754D01*
X5810293Y4163754D01*
X5830752Y4114363D01*
X5880143Y4093904D01*
X6146238Y4093904D01*
X6186388Y4110535D01*
X6209435Y4110535D01*
X6229894Y4061144D01*
X6279285Y4040685D01*
X6705038Y4040685D01*
X6754429Y4061144D01*
X6774888Y4110535D01*
X6754429Y4159926D01*
X6705038Y4180385D01*
X6279285Y4180385D01*
X6229894Y4159926D01*
X6209435Y4110535D01*
X6186388Y4110535D01*
X6195629Y4114363D01*
X6216088Y4163754D01*
X6216088Y4270192D01*
X6741625Y4270192D01*
X6747846Y4255173D01*
X6748999Y4238954D01*
X6775610Y4185735D01*
X6784294Y4178204D01*
X6788693Y4167583D01*
X6815302Y4140972D01*
X6825924Y4136572D01*
X6833457Y4127887D01*
X6886675Y4101278D01*
X6902893Y4100126D01*
X6917913Y4093904D01*
X7050961Y4093904D01*
X7061581Y4098304D01*
X7073049Y4097488D01*
X7152877Y4124097D01*
X7193264Y4159125D01*
X7193593Y4163754D01*
X7300426Y4163754D01*
X7304097Y4154891D01*
X7302888Y4145375D01*
X7313962Y4131075D01*
X7320885Y4114363D01*
X7329746Y4110693D01*
X7335621Y4103107D01*
X7353564Y4100827D01*
X7370276Y4093904D01*
X7379139Y4097576D01*
X7388655Y4096366D01*
X7402955Y4107441D01*
X7419667Y4114363D01*
X7423337Y4123225D01*
X7430923Y4129099D01*
X7619740Y4459529D01*
X7619740Y4163754D01*
X7640199Y4114363D01*
X7689590Y4093904D01*
X7738981Y4114363D01*
X7759440Y4163754D01*
X7859226Y4163754D01*
X7879685Y4114363D01*
X7929076Y4093904D01*
X8195171Y4093904D01*
X8244562Y4114363D01*
X8265021Y4163754D01*
X8265021Y4270192D01*
X8364806Y4270192D01*
X8371027Y4255173D01*
X8372180Y4238954D01*
X8398791Y4185735D01*
X8407475Y4178204D01*
X8411874Y4167583D01*
X8438483Y4140972D01*
X8449105Y4136572D01*
X8456638Y4127887D01*
X8509856Y4101278D01*
X8526074Y4100126D01*
X8541094Y4093904D01*
X8674142Y4093904D01*
X8684762Y4098304D01*
X8696230Y4097488D01*
X8776058Y4124097D01*
X8807455Y4151329D01*
X8790558Y4110535D01*
X8811017Y4061144D01*
X8860408Y4040685D01*
X9286161Y4040685D01*
X9335552Y4061144D01*
X9356011Y4110535D01*
X9335552Y4159926D01*
X9286161Y4180385D01*
X8860408Y4180385D01*
X8816668Y4162267D01*
X8820236Y4212451D01*
X8785208Y4252838D01*
X8731882Y4256629D01*
X8662806Y4233604D01*
X8557583Y4233604D01*
X8529251Y4247770D01*
X8518673Y4258348D01*
X8504506Y4286683D01*
X8504506Y4306921D01*
X8518673Y4335256D01*
X8529251Y4345834D01*
X8565474Y4363945D01*
X8664474Y4388695D01*
X8670851Y4393421D01*
X8678769Y4393983D01*
X8731988Y4420592D01*
X8739520Y4429278D01*
X8750142Y4433677D01*
X8776752Y4460286D01*
X8781151Y4470909D01*
X8789837Y4478441D01*
X8816446Y4531659D01*
X8817598Y4547878D01*
X8823820Y4562897D01*
X8823820Y4616116D01*
X8817598Y4631136D01*
X8816446Y4647354D01*
X8789837Y4700572D01*
X8781152Y4708105D01*
X8776752Y4718727D01*
X8772925Y4722554D01*
X9269529Y4722554D01*
X9289988Y4673163D01*
X9339379Y4652704D01*
X9429186Y4652704D01*
X9429186Y4163754D01*
X9449645Y4114363D01*
X9499036Y4093904D01*
X9548427Y4114363D01*
X9568886Y4163754D01*
X9568886Y4185843D01*
X9698865Y4185843D01*
X9702656Y4132516D01*
X9743042Y4097488D01*
X9796369Y4101279D01*
X9831397Y4141665D01*
X9868696Y4253561D01*
X10034100Y4253561D01*
X10071399Y4141665D01*
X10106426Y4101279D01*
X10159753Y4097488D01*
X10200139Y4132516D01*
X10203930Y4185842D01*
X10175813Y4270192D01*
X10227472Y4270192D01*
X10233693Y4255172D01*
X10234846Y4238955D01*
X10261455Y4185736D01*
X10270140Y4178204D01*
X10274540Y4167582D01*
X10301149Y4140972D01*
X10311771Y4136573D01*
X10319304Y4127887D01*
X10372522Y4101278D01*
X10388740Y4100126D01*
X10403760Y4093904D01*
X10616636Y4093904D01*
X10666027Y4114363D01*
X10686486Y4163754D01*
X10686486Y4722554D01*
X10666027Y4771945D01*
X10616636Y4792404D01*
X10430369Y4792404D01*
X10415349Y4786183D01*
X10399131Y4785030D01*
X10345912Y4758420D01*
X10338380Y4749736D01*
X10327759Y4745336D01*
X10301150Y4718726D01*
X10296750Y4708106D01*
X10288066Y4700573D01*
X10261455Y4647354D01*
X10260302Y4631136D01*
X10254081Y4616116D01*
X10254081Y4562897D01*
X10260302Y4547878D01*
X10261455Y4531659D01*
X10288066Y4478440D01*
X10294644Y4472736D01*
X10274541Y4452632D01*
X10270141Y4442011D01*
X10261455Y4434477D01*
X10234846Y4381258D01*
X10233693Y4365042D01*
X10227472Y4350021D01*
X10227472Y4270192D01*
X10175813Y4270192D01*
X10017664Y4744642D01*
X10014243Y4748587D01*
X10013873Y4753792D01*
X9997144Y4768301D01*
X9982636Y4785029D01*
X9977430Y4785400D01*
X9973487Y4788819D01*
X9951402Y4787250D01*
X9929310Y4788820D01*
X9925365Y4785399D01*
X9920160Y4785029D01*
X9905649Y4768300D01*
X9888923Y4753792D01*
X9888552Y4748588D01*
X9885132Y4744643D01*
X9698865Y4185843D01*
X9568886Y4185843D01*
X9568886Y4652704D01*
X9658693Y4652704D01*
X9708084Y4673163D01*
X9728543Y4722554D01*
X9708084Y4771945D01*
X9658693Y4792404D01*
X9339379Y4792404D01*
X9289988Y4771945D01*
X9269529Y4722554D01*
X8772925Y4722554D01*
X8750141Y4745336D01*
X8739520Y4749735D01*
X8731989Y4758419D01*
X8678770Y4785030D01*
X8662551Y4786183D01*
X8647532Y4792404D01*
X8514485Y4792404D01*
X8503862Y4788005D01*
X8492396Y4788819D01*
X8412567Y4762209D01*
X8372181Y4727181D01*
X8368391Y4673855D01*
X8403419Y4633469D01*
X8456745Y4629679D01*
X8525822Y4652704D01*
X8631042Y4652704D01*
X8659376Y4638537D01*
X8669954Y4627959D01*
X8684120Y4599628D01*
X8684120Y4579386D01*
X8669954Y4551055D01*
X8659376Y4540476D01*
X8623150Y4522363D01*
X8524153Y4497613D01*
X8517775Y4492888D01*
X8509856Y4492325D01*
X8456638Y4465716D01*
X8449105Y4457032D01*
X8438483Y4452631D01*
X8411874Y4426020D01*
X8407475Y4415400D01*
X8398791Y4407868D01*
X8372180Y4354649D01*
X8371027Y4338431D01*
X8364806Y4323411D01*
X8364806Y4270192D01*
X8265021Y4270192D01*
X8265021Y4722554D01*
X8244562Y4771945D01*
X8195171Y4792404D01*
X7929076Y4792404D01*
X7879685Y4771945D01*
X7859226Y4722554D01*
X7879685Y4673163D01*
X7929076Y4652704D01*
X8125321Y4652704D01*
X8125321Y4526309D01*
X8008904Y4526309D01*
X7959513Y4505850D01*
X7939054Y4456459D01*
X7959513Y4407068D01*
X8008904Y4386609D01*
X8125321Y4386609D01*
X8125321Y4233604D01*
X7929076Y4233604D01*
X7879685Y4213145D01*
X7859226Y4163754D01*
X7759440Y4163754D01*
X7759440Y4722554D01*
X7755768Y4731418D01*
X7756978Y4740932D01*
X7745904Y4755232D01*
X7738981Y4771945D01*
X7730117Y4775617D01*
X7724245Y4783200D01*
X7706303Y4785481D01*
X7689590Y4792404D01*
X7680726Y4788733D01*
X7671211Y4789942D01*
X7656910Y4778868D01*
X7640199Y4771945D01*
X7636528Y4763084D01*
X7628943Y4757209D01*
X7440126Y4426779D01*
X7440126Y4722554D01*
X7419667Y4771945D01*
X7370276Y4792404D01*
X7320885Y4771945D01*
X7300426Y4722554D01*
X7300426Y4163754D01*
X7193593Y4163754D01*
X7197055Y4212451D01*
X7162027Y4252838D01*
X7108701Y4256629D01*
X7039625Y4233604D01*
X6934402Y4233604D01*
X6906070Y4247770D01*
X6895492Y4258348D01*
X6881325Y4286683D01*
X6881325Y4306921D01*
X6895492Y4335256D01*
X6906070Y4345834D01*
X6942293Y4363945D01*
X7041293Y4388695D01*
X7047670Y4393421D01*
X7055588Y4393983D01*
X7108807Y4420592D01*
X7116339Y4429278D01*
X7126961Y4433677D01*
X7153571Y4460286D01*
X7157970Y4470909D01*
X7166656Y4478441D01*
X7193265Y4531659D01*
X7194417Y4547878D01*
X7200639Y4562897D01*
X7200639Y4616116D01*
X7194417Y4631136D01*
X7193265Y4647354D01*
X7166656Y4700572D01*
X7157971Y4708105D01*
X7153571Y4718727D01*
X7126960Y4745336D01*
X7116339Y4749735D01*
X7108808Y4758419D01*
X7055589Y4785030D01*
X7039370Y4786183D01*
X7024351Y4792404D01*
X6891304Y4792404D01*
X6880681Y4788005D01*
X6869215Y4788819D01*
X6789386Y4762209D01*
X6749000Y4727181D01*
X6745210Y4673855D01*
X6780238Y4633469D01*
X6833564Y4629679D01*
X6902641Y4652704D01*
X7007861Y4652704D01*
X7036195Y4638537D01*
X7046773Y4627959D01*
X7060939Y4599628D01*
X7060939Y4579386D01*
X7046773Y4551055D01*
X7036195Y4540476D01*
X6999969Y4522363D01*
X6900972Y4497613D01*
X6894594Y4492888D01*
X6886675Y4492325D01*
X6833457Y4465716D01*
X6825924Y4457032D01*
X6815302Y4452631D01*
X6788693Y4426020D01*
X6784294Y4415400D01*
X6775610Y4407868D01*
X6748999Y4354649D01*
X6747846Y4338431D01*
X6741625Y4323411D01*
X6741625Y4270192D01*
X6216088Y4270192D01*
X6216088Y4722554D01*
X6195629Y4771945D01*
X6146238Y4792404D01*
X5880143Y4792404D01*
X5830752Y4771945D01*
X5810293Y4722554D01*
X5830752Y4673163D01*
X5880143Y4652704D01*
X6076388Y4652704D01*
X6076388Y4526309D01*
X5959971Y4526309D01*
X5910580Y4505850D01*
X5890121Y4456459D01*
X5910580Y4407068D01*
X5959971Y4386609D01*
X6076388Y4386609D01*
X6076388Y4233604D01*
X5880143Y4233604D01*
X5830752Y4213145D01*
X5810293Y4163754D01*
X5737116Y4163754D01*
X5716657Y4213145D01*
X5667266Y4233604D01*
X5577459Y4233604D01*
X5577459Y4533200D01*
X5582810Y4527030D01*
X5636028Y4500421D01*
X5689354Y4496632D01*
X5729742Y4531660D01*
X5733530Y4584986D01*
X5698503Y4625373D01*
X5655421Y4646914D01*
X5615113Y4687222D01*
X5565728Y4761300D01*
X5559751Y4765303D01*
X5557000Y4771945D01*
X5538209Y4779729D01*
X5521308Y4791047D01*
X5514253Y4789652D01*
X5507609Y4792404D01*
X5488817Y4784621D01*
X5468863Y4780673D01*
X5464860Y4774697D01*
X5458218Y4771945D01*
X5450434Y4753155D01*
X5439116Y4736253D01*
X5440511Y4729199D01*
X5437759Y4722554D01*
X5437759Y4233604D01*
X5347952Y4233604D01*
X5298561Y4213145D01*
X5278102Y4163754D01*
X5198273Y4163754D01*
X5198273Y4872233D01*
X10766315Y4872233D01*
X10766315Y3960856D01*
G37*
D10*
X18734268Y41721435D02*
X18734268Y43421435D01*
X18734268Y43421435D02*
X18162839Y43421435D01*
X18162839Y43421435D02*
X18019982Y43340483D01*
X18019982Y43340483D02*
X17948553Y43259530D01*
X17948553Y43259530D02*
X17877125Y43097626D01*
X17877125Y43097626D02*
X17877125Y42854768D01*
X17877125Y42854768D02*
X17948553Y42692864D01*
X17948553Y42692864D02*
X18019982Y42611911D01*
X18019982Y42611911D02*
X18162839Y42530959D01*
X18162839Y42530959D02*
X18734268Y42530959D01*
X17234268Y41721435D02*
X17234268Y43421435D01*
X17234268Y42773816D02*
X17091411Y42854768D01*
X17091411Y42854768D02*
X16805696Y42854768D01*
X16805696Y42854768D02*
X16662839Y42773816D01*
X16662839Y42773816D02*
X16591411Y42692864D01*
X16591411Y42692864D02*
X16519982Y42530959D01*
X16519982Y42530959D02*
X16519982Y42045245D01*
X16519982Y42045245D02*
X16591411Y41883340D01*
X16591411Y41883340D02*
X16662839Y41802387D01*
X16662839Y41802387D02*
X16805696Y41721435D01*
X16805696Y41721435D02*
X17091411Y41721435D01*
X17091411Y41721435D02*
X17234268Y41802387D01*
X27512572Y74648298D02*
X27464192Y74745060D01*
X27464192Y74745060D02*
X27415811Y74793441D01*
X27415811Y74793441D02*
X27319049Y74841822D01*
X27319049Y74841822D02*
X27028763Y74841822D01*
X27028763Y74841822D02*
X26932001Y74793441D01*
X26932001Y74793441D02*
X26883620Y74745060D01*
X26883620Y74745060D02*
X26835239Y74648298D01*
X26835239Y74648298D02*
X26835239Y74503155D01*
X26835239Y74503155D02*
X26883620Y74406393D01*
X26883620Y74406393D02*
X26932001Y74358012D01*
X26932001Y74358012D02*
X27028763Y74309631D01*
X27028763Y74309631D02*
X27319049Y74309631D01*
X27319049Y74309631D02*
X27415811Y74358012D01*
X27415811Y74358012D02*
X27464192Y74406393D01*
X27464192Y74406393D02*
X27512572Y74503155D01*
X27512572Y74503155D02*
X27512572Y74648298D01*
X26835239Y73874203D02*
X27851239Y73874203D01*
X26883620Y73874203D02*
X26835239Y73777441D01*
X26835239Y73777441D02*
X26835239Y73583917D01*
X26835239Y73583917D02*
X26883620Y73487155D01*
X26883620Y73487155D02*
X26932001Y73438774D01*
X26932001Y73438774D02*
X27028763Y73390393D01*
X27028763Y73390393D02*
X27319049Y73390393D01*
X27319049Y73390393D02*
X27415811Y73438774D01*
X27415811Y73438774D02*
X27464192Y73487155D01*
X27464192Y73487155D02*
X27512572Y73583917D01*
X27512572Y73583917D02*
X27512572Y73777441D01*
X27512572Y73777441D02*
X27464192Y73874203D01*
X27464192Y72567917D02*
X27512572Y72664679D01*
X27512572Y72664679D02*
X27512572Y72858203D01*
X27512572Y72858203D02*
X27464192Y72954965D01*
X27464192Y72954965D02*
X27367430Y73003346D01*
X27367430Y73003346D02*
X26980382Y73003346D01*
X26980382Y73003346D02*
X26883620Y72954965D01*
X26883620Y72954965D02*
X26835239Y72858203D01*
X26835239Y72858203D02*
X26835239Y72664679D01*
X26835239Y72664679D02*
X26883620Y72567917D01*
X26883620Y72567917D02*
X26980382Y72519536D01*
X26980382Y72519536D02*
X27077144Y72519536D01*
X27077144Y72519536D02*
X27173906Y73003346D01*
X26835239Y72084108D02*
X27512572Y72084108D01*
X26932001Y72084108D02*
X26883620Y72035727D01*
X26883620Y72035727D02*
X26835239Y71938965D01*
X26835239Y71938965D02*
X26835239Y71793822D01*
X26835239Y71793822D02*
X26883620Y71697060D01*
X26883620Y71697060D02*
X26980382Y71648679D01*
X26980382Y71648679D02*
X27512572Y71648679D01*
X27604012Y70501083D02*
X26588012Y70501083D01*
X27604012Y70065654D02*
X27071822Y70065654D01*
X27071822Y70065654D02*
X26975060Y70114035D01*
X26975060Y70114035D02*
X26926679Y70210797D01*
X26926679Y70210797D02*
X26926679Y70355940D01*
X26926679Y70355940D02*
X26975060Y70452702D01*
X26975060Y70452702D02*
X27023441Y70501083D01*
X27604012Y69146416D02*
X27071822Y69146416D01*
X27071822Y69146416D02*
X26975060Y69194797D01*
X26975060Y69194797D02*
X26926679Y69291559D01*
X26926679Y69291559D02*
X26926679Y69485083D01*
X26926679Y69485083D02*
X26975060Y69581845D01*
X27555632Y69146416D02*
X27604012Y69243178D01*
X27604012Y69243178D02*
X27604012Y69485083D01*
X27604012Y69485083D02*
X27555632Y69581845D01*
X27555632Y69581845D02*
X27458870Y69630226D01*
X27458870Y69630226D02*
X27362108Y69630226D01*
X27362108Y69630226D02*
X27265346Y69581845D01*
X27265346Y69581845D02*
X27216965Y69485083D01*
X27216965Y69485083D02*
X27216965Y69243178D01*
X27216965Y69243178D02*
X27168584Y69146416D01*
X27604012Y68662607D02*
X26926679Y68662607D01*
X27120203Y68662607D02*
X27023441Y68614226D01*
X27023441Y68614226D02*
X26975060Y68565845D01*
X26975060Y68565845D02*
X26926679Y68469083D01*
X26926679Y68469083D02*
X26926679Y68372321D01*
X27604012Y67598226D02*
X26588012Y67598226D01*
X27555632Y67598226D02*
X27604012Y67694988D01*
X27604012Y67694988D02*
X27604012Y67888512D01*
X27604012Y67888512D02*
X27555632Y67985274D01*
X27555632Y67985274D02*
X27507251Y68033655D01*
X27507251Y68033655D02*
X27410489Y68082036D01*
X27410489Y68082036D02*
X27120203Y68082036D01*
X27120203Y68082036D02*
X27023441Y68033655D01*
X27023441Y68033655D02*
X26975060Y67985274D01*
X26975060Y67985274D02*
X26926679Y67888512D01*
X26926679Y67888512D02*
X26926679Y67694988D01*
X26926679Y67694988D02*
X26975060Y67598226D01*
X26926679Y67211179D02*
X27604012Y67017655D01*
X27604012Y67017655D02*
X27120203Y66824131D01*
X27120203Y66824131D02*
X27604012Y66630607D01*
X27604012Y66630607D02*
X26926679Y66437083D01*
X27604012Y65614607D02*
X27071822Y65614607D01*
X27071822Y65614607D02*
X26975060Y65662988D01*
X26975060Y65662988D02*
X26926679Y65759750D01*
X26926679Y65759750D02*
X26926679Y65953274D01*
X26926679Y65953274D02*
X26975060Y66050036D01*
X27555632Y65614607D02*
X27604012Y65711369D01*
X27604012Y65711369D02*
X27604012Y65953274D01*
X27604012Y65953274D02*
X27555632Y66050036D01*
X27555632Y66050036D02*
X27458870Y66098417D01*
X27458870Y66098417D02*
X27362108Y66098417D01*
X27362108Y66098417D02*
X27265346Y66050036D01*
X27265346Y66050036D02*
X27216965Y65953274D01*
X27216965Y65953274D02*
X27216965Y65711369D01*
X27216965Y65711369D02*
X27168584Y65614607D01*
X27604012Y65130798D02*
X26926679Y65130798D01*
X27120203Y65130798D02*
X27023441Y65082417D01*
X27023441Y65082417D02*
X26975060Y65034036D01*
X26975060Y65034036D02*
X26926679Y64937274D01*
X26926679Y64937274D02*
X26926679Y64840512D01*
X27555632Y64114798D02*
X27604012Y64211560D01*
X27604012Y64211560D02*
X27604012Y64405084D01*
X27604012Y64405084D02*
X27555632Y64501846D01*
X27555632Y64501846D02*
X27458870Y64550227D01*
X27458870Y64550227D02*
X27071822Y64550227D01*
X27071822Y64550227D02*
X26975060Y64501846D01*
X26975060Y64501846D02*
X26926679Y64405084D01*
X26926679Y64405084D02*
X26926679Y64211560D01*
X26926679Y64211560D02*
X26975060Y64114798D01*
X26975060Y64114798D02*
X27071822Y64066417D01*
X27071822Y64066417D02*
X27168584Y64066417D01*
X27168584Y64066417D02*
X27265346Y64550227D01*
D13*
X9058166Y12507355D02*
X9100499Y12465021D01*
X9100499Y12465021D02*
X9227499Y12422688D01*
X9227499Y12422688D02*
X9312166Y12422688D01*
X9312166Y12422688D02*
X9439166Y12465021D01*
X9439166Y12465021D02*
X9523833Y12549688D01*
X9523833Y12549688D02*
X9566166Y12634355D01*
X9566166Y12634355D02*
X9608499Y12803688D01*
X9608499Y12803688D02*
X9608499Y12930688D01*
X9608499Y12930688D02*
X9566166Y13100021D01*
X9566166Y13100021D02*
X9523833Y13184688D01*
X9523833Y13184688D02*
X9439166Y13269355D01*
X9439166Y13269355D02*
X9312166Y13311688D01*
X9312166Y13311688D02*
X9227499Y13311688D01*
X9227499Y13311688D02*
X9100499Y13269355D01*
X9100499Y13269355D02*
X9058166Y13227021D01*
X8719499Y13227021D02*
X8677166Y13269355D01*
X8677166Y13269355D02*
X8592499Y13311688D01*
X8592499Y13311688D02*
X8380833Y13311688D01*
X8380833Y13311688D02*
X8296166Y13269355D01*
X8296166Y13269355D02*
X8253833Y13227021D01*
X8253833Y13227021D02*
X8211499Y13142355D01*
X8211499Y13142355D02*
X8211499Y13057688D01*
X8211499Y13057688D02*
X8253833Y12930688D01*
X8253833Y12930688D02*
X8761833Y12422688D01*
X8761833Y12422688D02*
X8211499Y12422688D01*
D12*
X5988999Y16336962D02*
X6025285Y16300676D01*
X6025285Y16300676D02*
X6134142Y16264391D01*
X6134142Y16264391D02*
X6206714Y16264391D01*
X6206714Y16264391D02*
X6315571Y16300676D01*
X6315571Y16300676D02*
X6388142Y16373248D01*
X6388142Y16373248D02*
X6424428Y16445819D01*
X6424428Y16445819D02*
X6460714Y16590962D01*
X6460714Y16590962D02*
X6460714Y16699819D01*
X6460714Y16699819D02*
X6424428Y16844962D01*
X6424428Y16844962D02*
X6388142Y16917534D01*
X6388142Y16917534D02*
X6315571Y16990105D01*
X6315571Y16990105D02*
X6206714Y17026391D01*
X6206714Y17026391D02*
X6134142Y17026391D01*
X6134142Y17026391D02*
X6025285Y16990105D01*
X6025285Y16990105D02*
X5988999Y16953819D01*
X5734999Y17026391D02*
X5226999Y17026391D01*
X5226999Y17026391D02*
X5553571Y16264391D01*
X24238609Y13994429D02*
X23476609Y13994429D01*
X23476609Y13994429D02*
X23476609Y13813000D01*
X23476609Y13813000D02*
X23512895Y13704143D01*
X23512895Y13704143D02*
X23585466Y13631572D01*
X23585466Y13631572D02*
X23658038Y13595286D01*
X23658038Y13595286D02*
X23803181Y13559000D01*
X23803181Y13559000D02*
X23912038Y13559000D01*
X23912038Y13559000D02*
X24057181Y13595286D01*
X24057181Y13595286D02*
X24129752Y13631572D01*
X24129752Y13631572D02*
X24202324Y13704143D01*
X24202324Y13704143D02*
X24238609Y13813000D01*
X24238609Y13813000D02*
X24238609Y13994429D01*
X23803181Y13123572D02*
X23766895Y13196143D01*
X23766895Y13196143D02*
X23730609Y13232429D01*
X23730609Y13232429D02*
X23658038Y13268715D01*
X23658038Y13268715D02*
X23621752Y13268715D01*
X23621752Y13268715D02*
X23549181Y13232429D01*
X23549181Y13232429D02*
X23512895Y13196143D01*
X23512895Y13196143D02*
X23476609Y13123572D01*
X23476609Y13123572D02*
X23476609Y12978429D01*
X23476609Y12978429D02*
X23512895Y12905857D01*
X23512895Y12905857D02*
X23549181Y12869572D01*
X23549181Y12869572D02*
X23621752Y12833286D01*
X23621752Y12833286D02*
X23658038Y12833286D01*
X23658038Y12833286D02*
X23730609Y12869572D01*
X23730609Y12869572D02*
X23766895Y12905857D01*
X23766895Y12905857D02*
X23803181Y12978429D01*
X23803181Y12978429D02*
X23803181Y13123572D01*
X23803181Y13123572D02*
X23839466Y13196143D01*
X23839466Y13196143D02*
X23875752Y13232429D01*
X23875752Y13232429D02*
X23948324Y13268715D01*
X23948324Y13268715D02*
X24093466Y13268715D01*
X24093466Y13268715D02*
X24166038Y13232429D01*
X24166038Y13232429D02*
X24202324Y13196143D01*
X24202324Y13196143D02*
X24238609Y13123572D01*
X24238609Y13123572D02*
X24238609Y12978429D01*
X24238609Y12978429D02*
X24202324Y12905857D01*
X24202324Y12905857D02*
X24166038Y12869572D01*
X24166038Y12869572D02*
X24093466Y12833286D01*
X24093466Y12833286D02*
X23948324Y12833286D01*
X23948324Y12833286D02*
X23875752Y12869572D01*
X23875752Y12869572D02*
X23839466Y12905857D01*
X23839466Y12905857D02*
X23803181Y12978429D01*
X25274856Y19058391D02*
X25528856Y19421248D01*
X25710285Y19058391D02*
X25710285Y19820391D01*
X25710285Y19820391D02*
X25419999Y19820391D01*
X25419999Y19820391D02*
X25347428Y19784105D01*
X25347428Y19784105D02*
X25311142Y19747819D01*
X25311142Y19747819D02*
X25274856Y19675248D01*
X25274856Y19675248D02*
X25274856Y19566391D01*
X25274856Y19566391D02*
X25311142Y19493819D01*
X25311142Y19493819D02*
X25347428Y19457534D01*
X25347428Y19457534D02*
X25419999Y19421248D01*
X25419999Y19421248D02*
X25710285Y19421248D01*
X24549142Y19058391D02*
X24984571Y19058391D01*
X24766856Y19058391D02*
X24766856Y19820391D01*
X24766856Y19820391D02*
X24839428Y19711534D01*
X24839428Y19711534D02*
X24911999Y19638962D01*
X24911999Y19638962D02*
X24984571Y19602676D01*
X23896000Y19566391D02*
X23896000Y19058391D01*
X24077428Y19856676D02*
X24258857Y19312391D01*
X24258857Y19312391D02*
X23787142Y19312391D01*
X7204571Y45274819D02*
X7277142Y45311105D01*
X7277142Y45311105D02*
X7349714Y45383676D01*
X7349714Y45383676D02*
X7458571Y45492534D01*
X7458571Y45492534D02*
X7531142Y45528819D01*
X7531142Y45528819D02*
X7603714Y45528819D01*
X7567428Y45347391D02*
X7640000Y45383676D01*
X7640000Y45383676D02*
X7712571Y45456248D01*
X7712571Y45456248D02*
X7748857Y45601391D01*
X7748857Y45601391D02*
X7748857Y45855391D01*
X7748857Y45855391D02*
X7712571Y46000534D01*
X7712571Y46000534D02*
X7640000Y46073105D01*
X7640000Y46073105D02*
X7567428Y46109391D01*
X7567428Y46109391D02*
X7422285Y46109391D01*
X7422285Y46109391D02*
X7349714Y46073105D01*
X7349714Y46073105D02*
X7277142Y46000534D01*
X7277142Y46000534D02*
X7240857Y45855391D01*
X7240857Y45855391D02*
X7240857Y45601391D01*
X7240857Y45601391D02*
X7277142Y45456248D01*
X7277142Y45456248D02*
X7349714Y45383676D01*
X7349714Y45383676D02*
X7422285Y45347391D01*
X7422285Y45347391D02*
X7567428Y45347391D01*
X6950571Y46036819D02*
X6914285Y46073105D01*
X6914285Y46073105D02*
X6841714Y46109391D01*
X6841714Y46109391D02*
X6660285Y46109391D01*
X6660285Y46109391D02*
X6587714Y46073105D01*
X6587714Y46073105D02*
X6551428Y46036819D01*
X6551428Y46036819D02*
X6515142Y45964248D01*
X6515142Y45964248D02*
X6515142Y45891676D01*
X6515142Y45891676D02*
X6551428Y45782819D01*
X6551428Y45782819D02*
X6986856Y45347391D01*
X6986856Y45347391D02*
X6515142Y45347391D01*
D13*
X8296166Y38559288D02*
X8296166Y39448288D01*
X8296166Y39448288D02*
X8084499Y39448288D01*
X8084499Y39448288D02*
X7957499Y39405955D01*
X7957499Y39405955D02*
X7872833Y39321288D01*
X7872833Y39321288D02*
X7830499Y39236621D01*
X7830499Y39236621D02*
X7788166Y39067288D01*
X7788166Y39067288D02*
X7788166Y38940288D01*
X7788166Y38940288D02*
X7830499Y38770955D01*
X7830499Y38770955D02*
X7872833Y38686288D01*
X7872833Y38686288D02*
X7957499Y38601621D01*
X7957499Y38601621D02*
X8084499Y38559288D01*
X8084499Y38559288D02*
X8296166Y38559288D01*
X6941499Y38559288D02*
X7449499Y38559288D01*
X7195499Y38559288D02*
X7195499Y39448288D01*
X7195499Y39448288D02*
X7280166Y39321288D01*
X7280166Y39321288D02*
X7364833Y39236621D01*
X7364833Y39236621D02*
X7449499Y39194288D01*
D12*
X12447856Y31703962D02*
X12484142Y31667676D01*
X12484142Y31667676D02*
X12592999Y31631391D01*
X12592999Y31631391D02*
X12665571Y31631391D01*
X12665571Y31631391D02*
X12774428Y31667676D01*
X12774428Y31667676D02*
X12846999Y31740248D01*
X12846999Y31740248D02*
X12883285Y31812819D01*
X12883285Y31812819D02*
X12919571Y31957962D01*
X12919571Y31957962D02*
X12919571Y32066819D01*
X12919571Y32066819D02*
X12883285Y32211962D01*
X12883285Y32211962D02*
X12846999Y32284534D01*
X12846999Y32284534D02*
X12774428Y32357105D01*
X12774428Y32357105D02*
X12665571Y32393391D01*
X12665571Y32393391D02*
X12592999Y32393391D01*
X12592999Y32393391D02*
X12484142Y32357105D01*
X12484142Y32357105D02*
X12447856Y32320819D01*
X11722142Y31631391D02*
X12157571Y31631391D01*
X11939856Y31631391D02*
X11939856Y32393391D01*
X11939856Y32393391D02*
X12012428Y32284534D01*
X12012428Y32284534D02*
X12084999Y32211962D01*
X12084999Y32211962D02*
X12157571Y32175676D01*
X11250428Y32393391D02*
X11177857Y32393391D01*
X11177857Y32393391D02*
X11105285Y32357105D01*
X11105285Y32357105D02*
X11069000Y32320819D01*
X11069000Y32320819D02*
X11032714Y32248248D01*
X11032714Y32248248D02*
X10996428Y32103105D01*
X10996428Y32103105D02*
X10996428Y31921676D01*
X10996428Y31921676D02*
X11032714Y31776534D01*
X11032714Y31776534D02*
X11069000Y31703962D01*
X11069000Y31703962D02*
X11105285Y31667676D01*
X11105285Y31667676D02*
X11177857Y31631391D01*
X11177857Y31631391D02*
X11250428Y31631391D01*
X11250428Y31631391D02*
X11323000Y31667676D01*
X11323000Y31667676D02*
X11359285Y31703962D01*
X11359285Y31703962D02*
X11395571Y31776534D01*
X11395571Y31776534D02*
X11431857Y31921676D01*
X11431857Y31921676D02*
X11431857Y32103105D01*
X11431857Y32103105D02*
X11395571Y32248248D01*
X11395571Y32248248D02*
X11359285Y32320819D01*
X11359285Y32320819D02*
X11323000Y32357105D01*
X11323000Y32357105D02*
X11250428Y32393391D01*
D13*
X9735500Y40083288D02*
X10031833Y40506621D01*
X10243500Y40083288D02*
X10243500Y40972288D01*
X10243500Y40972288D02*
X9904833Y40972288D01*
X9904833Y40972288D02*
X9820167Y40929955D01*
X9820167Y40929955D02*
X9777833Y40887621D01*
X9777833Y40887621D02*
X9735500Y40802955D01*
X9735500Y40802955D02*
X9735500Y40675955D01*
X9735500Y40675955D02*
X9777833Y40591288D01*
X9777833Y40591288D02*
X9820167Y40548955D01*
X9820167Y40548955D02*
X9904833Y40506621D01*
X9904833Y40506621D02*
X10243500Y40506621D01*
X9396833Y40887621D02*
X9354500Y40929955D01*
X9354500Y40929955D02*
X9269833Y40972288D01*
X9269833Y40972288D02*
X9058167Y40972288D01*
X9058167Y40972288D02*
X8973500Y40929955D01*
X8973500Y40929955D02*
X8931167Y40887621D01*
X8931167Y40887621D02*
X8888833Y40802955D01*
X8888833Y40802955D02*
X8888833Y40718288D01*
X8888833Y40718288D02*
X8931167Y40591288D01*
X8931167Y40591288D02*
X9439167Y40083288D01*
X9439167Y40083288D02*
X8888833Y40083288D01*
X8042166Y40083288D02*
X8550166Y40083288D01*
X8296166Y40083288D02*
X8296166Y40972288D01*
X8296166Y40972288D02*
X8380833Y40845288D01*
X8380833Y40845288D02*
X8465500Y40760621D01*
X8465500Y40760621D02*
X8550166Y40718288D01*
D12*
X13808571Y42607819D02*
X13881142Y42644105D01*
X13881142Y42644105D02*
X13953714Y42716676D01*
X13953714Y42716676D02*
X14062571Y42825534D01*
X14062571Y42825534D02*
X14135142Y42861819D01*
X14135142Y42861819D02*
X14207714Y42861819D01*
X14171428Y42680391D02*
X14244000Y42716676D01*
X14244000Y42716676D02*
X14316571Y42789248D01*
X14316571Y42789248D02*
X14352857Y42934391D01*
X14352857Y42934391D02*
X14352857Y43188391D01*
X14352857Y43188391D02*
X14316571Y43333534D01*
X14316571Y43333534D02*
X14244000Y43406105D01*
X14244000Y43406105D02*
X14171428Y43442391D01*
X14171428Y43442391D02*
X14026285Y43442391D01*
X14026285Y43442391D02*
X13953714Y43406105D01*
X13953714Y43406105D02*
X13881142Y43333534D01*
X13881142Y43333534D02*
X13844857Y43188391D01*
X13844857Y43188391D02*
X13844857Y42934391D01*
X13844857Y42934391D02*
X13881142Y42789248D01*
X13881142Y42789248D02*
X13953714Y42716676D01*
X13953714Y42716676D02*
X14026285Y42680391D01*
X14026285Y42680391D02*
X14171428Y42680391D01*
X13590856Y43442391D02*
X13119142Y43442391D01*
X13119142Y43442391D02*
X13373142Y43152105D01*
X13373142Y43152105D02*
X13264285Y43152105D01*
X13264285Y43152105D02*
X13191714Y43115819D01*
X13191714Y43115819D02*
X13155428Y43079534D01*
X13155428Y43079534D02*
X13119142Y43006962D01*
X13119142Y43006962D02*
X13119142Y42825534D01*
X13119142Y42825534D02*
X13155428Y42752962D01*
X13155428Y42752962D02*
X13191714Y42716676D01*
X13191714Y42716676D02*
X13264285Y42680391D01*
X13264285Y42680391D02*
X13481999Y42680391D01*
X13481999Y42680391D02*
X13554571Y42716676D01*
X13554571Y42716676D02*
X13590856Y42752962D01*
X14459609Y47957857D02*
X14096752Y48211857D01*
X14459609Y48393286D02*
X13697609Y48393286D01*
X13697609Y48393286D02*
X13697609Y48103000D01*
X13697609Y48103000D02*
X13733895Y48030429D01*
X13733895Y48030429D02*
X13770181Y47994143D01*
X13770181Y47994143D02*
X13842752Y47957857D01*
X13842752Y47957857D02*
X13951609Y47957857D01*
X13951609Y47957857D02*
X14024181Y47994143D01*
X14024181Y47994143D02*
X14060466Y48030429D01*
X14060466Y48030429D02*
X14096752Y48103000D01*
X14096752Y48103000D02*
X14096752Y48393286D01*
X13697609Y47703857D02*
X13697609Y47232143D01*
X13697609Y47232143D02*
X13987895Y47486143D01*
X13987895Y47486143D02*
X13987895Y47377286D01*
X13987895Y47377286D02*
X14024181Y47304714D01*
X14024181Y47304714D02*
X14060466Y47268429D01*
X14060466Y47268429D02*
X14133038Y47232143D01*
X14133038Y47232143D02*
X14314466Y47232143D01*
X14314466Y47232143D02*
X14387038Y47268429D01*
X14387038Y47268429D02*
X14423324Y47304714D01*
X14423324Y47304714D02*
X14459609Y47377286D01*
X14459609Y47377286D02*
X14459609Y47595000D01*
X14459609Y47595000D02*
X14423324Y47667572D01*
X14423324Y47667572D02*
X14387038Y47703857D01*
X13697609Y46542715D02*
X13697609Y46905572D01*
X13697609Y46905572D02*
X14060466Y46941858D01*
X14060466Y46941858D02*
X14024181Y46905572D01*
X14024181Y46905572D02*
X13987895Y46833000D01*
X13987895Y46833000D02*
X13987895Y46651572D01*
X13987895Y46651572D02*
X14024181Y46579000D01*
X14024181Y46579000D02*
X14060466Y46542715D01*
X14060466Y46542715D02*
X14133038Y46506429D01*
X14133038Y46506429D02*
X14314466Y46506429D01*
X14314466Y46506429D02*
X14387038Y46542715D01*
X14387038Y46542715D02*
X14423324Y46579000D01*
X14423324Y46579000D02*
X14459609Y46651572D01*
X14459609Y46651572D02*
X14459609Y46833000D01*
X14459609Y46833000D02*
X14423324Y46905572D01*
X14423324Y46905572D02*
X14387038Y46941858D01*
X27159609Y20906857D02*
X26796752Y21160857D01*
X27159609Y21342286D02*
X26397609Y21342286D01*
X26397609Y21342286D02*
X26397609Y21052000D01*
X26397609Y21052000D02*
X26433895Y20979429D01*
X26433895Y20979429D02*
X26470181Y20943143D01*
X26470181Y20943143D02*
X26542752Y20906857D01*
X26542752Y20906857D02*
X26651609Y20906857D01*
X26651609Y20906857D02*
X26724181Y20943143D01*
X26724181Y20943143D02*
X26760466Y20979429D01*
X26760466Y20979429D02*
X26796752Y21052000D01*
X26796752Y21052000D02*
X26796752Y21342286D01*
X27159609Y20181143D02*
X27159609Y20616572D01*
X27159609Y20398857D02*
X26397609Y20398857D01*
X26397609Y20398857D02*
X26506466Y20471429D01*
X26506466Y20471429D02*
X26579038Y20544000D01*
X26579038Y20544000D02*
X26615324Y20616572D01*
X26397609Y19491715D02*
X26397609Y19854572D01*
X26397609Y19854572D02*
X26760466Y19890858D01*
X26760466Y19890858D02*
X26724181Y19854572D01*
X26724181Y19854572D02*
X26687895Y19782000D01*
X26687895Y19782000D02*
X26687895Y19600572D01*
X26687895Y19600572D02*
X26724181Y19528000D01*
X26724181Y19528000D02*
X26760466Y19491715D01*
X26760466Y19491715D02*
X26833038Y19455429D01*
X26833038Y19455429D02*
X27014466Y19455429D01*
X27014466Y19455429D02*
X27087038Y19491715D01*
X27087038Y19491715D02*
X27123324Y19528000D01*
X27123324Y19528000D02*
X27159609Y19600572D01*
X27159609Y19600572D02*
X27159609Y19782000D01*
X27159609Y19782000D02*
X27123324Y19854572D01*
X27123324Y19854572D02*
X27087038Y19890858D01*
X11322999Y21035962D02*
X11359285Y20999676D01*
X11359285Y20999676D02*
X11468142Y20963391D01*
X11468142Y20963391D02*
X11540714Y20963391D01*
X11540714Y20963391D02*
X11649571Y20999676D01*
X11649571Y20999676D02*
X11722142Y21072248D01*
X11722142Y21072248D02*
X11758428Y21144819D01*
X11758428Y21144819D02*
X11794714Y21289962D01*
X11794714Y21289962D02*
X11794714Y21398819D01*
X11794714Y21398819D02*
X11758428Y21543962D01*
X11758428Y21543962D02*
X11722142Y21616534D01*
X11722142Y21616534D02*
X11649571Y21689105D01*
X11649571Y21689105D02*
X11540714Y21725391D01*
X11540714Y21725391D02*
X11468142Y21725391D01*
X11468142Y21725391D02*
X11359285Y21689105D01*
X11359285Y21689105D02*
X11322999Y21652819D01*
X10887571Y21398819D02*
X10960142Y21435105D01*
X10960142Y21435105D02*
X10996428Y21471391D01*
X10996428Y21471391D02*
X11032714Y21543962D01*
X11032714Y21543962D02*
X11032714Y21580248D01*
X11032714Y21580248D02*
X10996428Y21652819D01*
X10996428Y21652819D02*
X10960142Y21689105D01*
X10960142Y21689105D02*
X10887571Y21725391D01*
X10887571Y21725391D02*
X10742428Y21725391D01*
X10742428Y21725391D02*
X10669857Y21689105D01*
X10669857Y21689105D02*
X10633571Y21652819D01*
X10633571Y21652819D02*
X10597285Y21580248D01*
X10597285Y21580248D02*
X10597285Y21543962D01*
X10597285Y21543962D02*
X10633571Y21471391D01*
X10633571Y21471391D02*
X10669857Y21435105D01*
X10669857Y21435105D02*
X10742428Y21398819D01*
X10742428Y21398819D02*
X10887571Y21398819D01*
X10887571Y21398819D02*
X10960142Y21362534D01*
X10960142Y21362534D02*
X10996428Y21326248D01*
X10996428Y21326248D02*
X11032714Y21253676D01*
X11032714Y21253676D02*
X11032714Y21108534D01*
X11032714Y21108534D02*
X10996428Y21035962D01*
X10996428Y21035962D02*
X10960142Y20999676D01*
X10960142Y20999676D02*
X10887571Y20963391D01*
X10887571Y20963391D02*
X10742428Y20963391D01*
X10742428Y20963391D02*
X10669857Y20999676D01*
X10669857Y20999676D02*
X10633571Y21035962D01*
X10633571Y21035962D02*
X10597285Y21108534D01*
X10597285Y21108534D02*
X10597285Y21253676D01*
X10597285Y21253676D02*
X10633571Y21326248D01*
X10633571Y21326248D02*
X10669857Y21362534D01*
X10669857Y21362534D02*
X10742428Y21398819D01*
X6986856Y31377391D02*
X7240856Y31740248D01*
X7422285Y31377391D02*
X7422285Y32139391D01*
X7422285Y32139391D02*
X7131999Y32139391D01*
X7131999Y32139391D02*
X7059428Y32103105D01*
X7059428Y32103105D02*
X7023142Y32066819D01*
X7023142Y32066819D02*
X6986856Y31994248D01*
X6986856Y31994248D02*
X6986856Y31885391D01*
X6986856Y31885391D02*
X7023142Y31812819D01*
X7023142Y31812819D02*
X7059428Y31776534D01*
X7059428Y31776534D02*
X7131999Y31740248D01*
X7131999Y31740248D02*
X7422285Y31740248D01*
X6261142Y31377391D02*
X6696571Y31377391D01*
X6478856Y31377391D02*
X6478856Y32139391D01*
X6478856Y32139391D02*
X6551428Y32030534D01*
X6551428Y32030534D02*
X6623999Y31957962D01*
X6623999Y31957962D02*
X6696571Y31921676D01*
X5608000Y32139391D02*
X5753142Y32139391D01*
X5753142Y32139391D02*
X5825714Y32103105D01*
X5825714Y32103105D02*
X5862000Y32066819D01*
X5862000Y32066819D02*
X5934571Y31957962D01*
X5934571Y31957962D02*
X5970857Y31812819D01*
X5970857Y31812819D02*
X5970857Y31522534D01*
X5970857Y31522534D02*
X5934571Y31449962D01*
X5934571Y31449962D02*
X5898285Y31413676D01*
X5898285Y31413676D02*
X5825714Y31377391D01*
X5825714Y31377391D02*
X5680571Y31377391D01*
X5680571Y31377391D02*
X5608000Y31413676D01*
X5608000Y31413676D02*
X5571714Y31449962D01*
X5571714Y31449962D02*
X5535428Y31522534D01*
X5535428Y31522534D02*
X5535428Y31703962D01*
X5535428Y31703962D02*
X5571714Y31776534D01*
X5571714Y31776534D02*
X5608000Y31812819D01*
X5608000Y31812819D02*
X5680571Y31849105D01*
X5680571Y31849105D02*
X5825714Y31849105D01*
X5825714Y31849105D02*
X5898285Y31812819D01*
X5898285Y31812819D02*
X5934571Y31776534D01*
X5934571Y31776534D02*
X5970857Y31703962D01*
X11665609Y54380429D02*
X10903609Y54380429D01*
X10903609Y54380429D02*
X10903609Y54199000D01*
X10903609Y54199000D02*
X10939895Y54090143D01*
X10939895Y54090143D02*
X11012466Y54017572D01*
X11012466Y54017572D02*
X11085038Y53981286D01*
X11085038Y53981286D02*
X11230181Y53945000D01*
X11230181Y53945000D02*
X11339038Y53945000D01*
X11339038Y53945000D02*
X11484181Y53981286D01*
X11484181Y53981286D02*
X11556752Y54017572D01*
X11556752Y54017572D02*
X11629324Y54090143D01*
X11629324Y54090143D02*
X11665609Y54199000D01*
X11665609Y54199000D02*
X11665609Y54380429D01*
X11157609Y53291857D02*
X11665609Y53291857D01*
X10867324Y53473286D02*
X11411609Y53654715D01*
X11411609Y53654715D02*
X11411609Y53183000D01*
X6478856Y23884391D02*
X6732856Y24247248D01*
X6914285Y23884391D02*
X6914285Y24646391D01*
X6914285Y24646391D02*
X6623999Y24646391D01*
X6623999Y24646391D02*
X6551428Y24610105D01*
X6551428Y24610105D02*
X6515142Y24573819D01*
X6515142Y24573819D02*
X6478856Y24501248D01*
X6478856Y24501248D02*
X6478856Y24392391D01*
X6478856Y24392391D02*
X6515142Y24319819D01*
X6515142Y24319819D02*
X6551428Y24283534D01*
X6551428Y24283534D02*
X6623999Y24247248D01*
X6623999Y24247248D02*
X6914285Y24247248D01*
X5753142Y23884391D02*
X6188571Y23884391D01*
X5970856Y23884391D02*
X5970856Y24646391D01*
X5970856Y24646391D02*
X6043428Y24537534D01*
X6043428Y24537534D02*
X6115999Y24464962D01*
X6115999Y24464962D02*
X6188571Y24428676D01*
X5317714Y24319819D02*
X5390285Y24356105D01*
X5390285Y24356105D02*
X5426571Y24392391D01*
X5426571Y24392391D02*
X5462857Y24464962D01*
X5462857Y24464962D02*
X5462857Y24501248D01*
X5462857Y24501248D02*
X5426571Y24573819D01*
X5426571Y24573819D02*
X5390285Y24610105D01*
X5390285Y24610105D02*
X5317714Y24646391D01*
X5317714Y24646391D02*
X5172571Y24646391D01*
X5172571Y24646391D02*
X5100000Y24610105D01*
X5100000Y24610105D02*
X5063714Y24573819D01*
X5063714Y24573819D02*
X5027428Y24501248D01*
X5027428Y24501248D02*
X5027428Y24464962D01*
X5027428Y24464962D02*
X5063714Y24392391D01*
X5063714Y24392391D02*
X5100000Y24356105D01*
X5100000Y24356105D02*
X5172571Y24319819D01*
X5172571Y24319819D02*
X5317714Y24319819D01*
X5317714Y24319819D02*
X5390285Y24283534D01*
X5390285Y24283534D02*
X5426571Y24247248D01*
X5426571Y24247248D02*
X5462857Y24174676D01*
X5462857Y24174676D02*
X5462857Y24029534D01*
X5462857Y24029534D02*
X5426571Y23956962D01*
X5426571Y23956962D02*
X5390285Y23920676D01*
X5390285Y23920676D02*
X5317714Y23884391D01*
X5317714Y23884391D02*
X5172571Y23884391D01*
X5172571Y23884391D02*
X5100000Y23920676D01*
X5100000Y23920676D02*
X5063714Y23956962D01*
X5063714Y23956962D02*
X5027428Y24029534D01*
X5027428Y24029534D02*
X5027428Y24174676D01*
X5027428Y24174676D02*
X5063714Y24247248D01*
X5063714Y24247248D02*
X5100000Y24283534D01*
X5100000Y24283534D02*
X5172571Y24319819D01*
X6986856Y30234391D02*
X7240856Y30597248D01*
X7422285Y30234391D02*
X7422285Y30996391D01*
X7422285Y30996391D02*
X7131999Y30996391D01*
X7131999Y30996391D02*
X7059428Y30960105D01*
X7059428Y30960105D02*
X7023142Y30923819D01*
X7023142Y30923819D02*
X6986856Y30851248D01*
X6986856Y30851248D02*
X6986856Y30742391D01*
X6986856Y30742391D02*
X7023142Y30669819D01*
X7023142Y30669819D02*
X7059428Y30633534D01*
X7059428Y30633534D02*
X7131999Y30597248D01*
X7131999Y30597248D02*
X7422285Y30597248D01*
X6261142Y30234391D02*
X6696571Y30234391D01*
X6478856Y30234391D02*
X6478856Y30996391D01*
X6478856Y30996391D02*
X6551428Y30887534D01*
X6551428Y30887534D02*
X6623999Y30814962D01*
X6623999Y30814962D02*
X6696571Y30778676D01*
X5898285Y30234391D02*
X5753142Y30234391D01*
X5753142Y30234391D02*
X5680571Y30270676D01*
X5680571Y30270676D02*
X5644285Y30306962D01*
X5644285Y30306962D02*
X5571714Y30415819D01*
X5571714Y30415819D02*
X5535428Y30560962D01*
X5535428Y30560962D02*
X5535428Y30851248D01*
X5535428Y30851248D02*
X5571714Y30923819D01*
X5571714Y30923819D02*
X5608000Y30960105D01*
X5608000Y30960105D02*
X5680571Y30996391D01*
X5680571Y30996391D02*
X5825714Y30996391D01*
X5825714Y30996391D02*
X5898285Y30960105D01*
X5898285Y30960105D02*
X5934571Y30923819D01*
X5934571Y30923819D02*
X5970857Y30851248D01*
X5970857Y30851248D02*
X5970857Y30669819D01*
X5970857Y30669819D02*
X5934571Y30597248D01*
X5934571Y30597248D02*
X5898285Y30560962D01*
X5898285Y30560962D02*
X5825714Y30524676D01*
X5825714Y30524676D02*
X5680571Y30524676D01*
X5680571Y30524676D02*
X5608000Y30560962D01*
X5608000Y30560962D02*
X5571714Y30597248D01*
X5571714Y30597248D02*
X5535428Y30669819D01*
X23277038Y26367857D02*
X23313324Y26404143D01*
X23313324Y26404143D02*
X23349609Y26513000D01*
X23349609Y26513000D02*
X23349609Y26585572D01*
X23349609Y26585572D02*
X23313324Y26694429D01*
X23313324Y26694429D02*
X23240752Y26767000D01*
X23240752Y26767000D02*
X23168181Y26803286D01*
X23168181Y26803286D02*
X23023038Y26839572D01*
X23023038Y26839572D02*
X22914181Y26839572D01*
X22914181Y26839572D02*
X22769038Y26803286D01*
X22769038Y26803286D02*
X22696466Y26767000D01*
X22696466Y26767000D02*
X22623895Y26694429D01*
X22623895Y26694429D02*
X22587609Y26585572D01*
X22587609Y26585572D02*
X22587609Y26513000D01*
X22587609Y26513000D02*
X22623895Y26404143D01*
X22623895Y26404143D02*
X22660181Y26367857D01*
X23349609Y25642143D02*
X23349609Y26077572D01*
X23349609Y25859857D02*
X22587609Y25859857D01*
X22587609Y25859857D02*
X22696466Y25932429D01*
X22696466Y25932429D02*
X22769038Y26005000D01*
X22769038Y26005000D02*
X22805324Y26077572D01*
X22841609Y24989000D02*
X23349609Y24989000D01*
X22551324Y25170429D02*
X23095609Y25351858D01*
X23095609Y25351858D02*
X23095609Y24880143D01*
X24619609Y26240857D02*
X24256752Y26494857D01*
X24619609Y26676286D02*
X23857609Y26676286D01*
X23857609Y26676286D02*
X23857609Y26386000D01*
X23857609Y26386000D02*
X23893895Y26313429D01*
X23893895Y26313429D02*
X23930181Y26277143D01*
X23930181Y26277143D02*
X24002752Y26240857D01*
X24002752Y26240857D02*
X24111609Y26240857D01*
X24111609Y26240857D02*
X24184181Y26277143D01*
X24184181Y26277143D02*
X24220466Y26313429D01*
X24220466Y26313429D02*
X24256752Y26386000D01*
X24256752Y26386000D02*
X24256752Y26676286D01*
X24111609Y25587714D02*
X24619609Y25587714D01*
X23821324Y25769143D02*
X24365609Y25950572D01*
X24365609Y25950572D02*
X24365609Y25478857D01*
X24619609Y24789429D02*
X24619609Y25224858D01*
X24619609Y25007143D02*
X23857609Y25007143D01*
X23857609Y25007143D02*
X23966466Y25079715D01*
X23966466Y25079715D02*
X24039038Y25152286D01*
X24039038Y25152286D02*
X24075324Y25224858D01*
D16*
X21031908Y15582534D02*
X21031908Y15219677D01*
X21666908Y15401106D02*
X21031908Y15401106D01*
X21031908Y15098724D02*
X21666908Y14887058D01*
X21666908Y14887058D02*
X21031908Y14675391D01*
X21636670Y14493962D02*
X21666908Y14403248D01*
X21666908Y14403248D02*
X21666908Y14252057D01*
X21666908Y14252057D02*
X21636670Y14191581D01*
X21636670Y14191581D02*
X21606431Y14161343D01*
X21606431Y14161343D02*
X21545955Y14131105D01*
X21545955Y14131105D02*
X21485479Y14131105D01*
X21485479Y14131105D02*
X21425003Y14161343D01*
X21425003Y14161343D02*
X21394765Y14191581D01*
X21394765Y14191581D02*
X21364527Y14252057D01*
X21364527Y14252057D02*
X21334289Y14373010D01*
X21334289Y14373010D02*
X21304050Y14433486D01*
X21304050Y14433486D02*
X21273812Y14463724D01*
X21273812Y14463724D02*
X21213336Y14493962D01*
X21213336Y14493962D02*
X21152860Y14493962D01*
X21152860Y14493962D02*
X21092384Y14463724D01*
X21092384Y14463724D02*
X21062146Y14433486D01*
X21062146Y14433486D02*
X21031908Y14373010D01*
X21031908Y14373010D02*
X21031908Y14221819D01*
X21031908Y14221819D02*
X21062146Y14131105D01*
X21092384Y13889200D02*
X21062146Y13858962D01*
X21062146Y13858962D02*
X21031908Y13798486D01*
X21031908Y13798486D02*
X21031908Y13647295D01*
X21031908Y13647295D02*
X21062146Y13586819D01*
X21062146Y13586819D02*
X21092384Y13556581D01*
X21092384Y13556581D02*
X21152860Y13526343D01*
X21152860Y13526343D02*
X21213336Y13526343D01*
X21213336Y13526343D02*
X21304050Y13556581D01*
X21304050Y13556581D02*
X21666908Y13919438D01*
X21666908Y13919438D02*
X21666908Y13526343D01*
X18491908Y15633334D02*
X18491908Y15270477D01*
X19126908Y15451906D02*
X18491908Y15451906D01*
X18491908Y15149524D02*
X19126908Y14937858D01*
X19126908Y14937858D02*
X18491908Y14726191D01*
X19096670Y14544762D02*
X19126908Y14454048D01*
X19126908Y14454048D02*
X19126908Y14302857D01*
X19126908Y14302857D02*
X19096670Y14242381D01*
X19096670Y14242381D02*
X19066431Y14212143D01*
X19066431Y14212143D02*
X19005955Y14181905D01*
X19005955Y14181905D02*
X18945479Y14181905D01*
X18945479Y14181905D02*
X18885003Y14212143D01*
X18885003Y14212143D02*
X18854765Y14242381D01*
X18854765Y14242381D02*
X18824527Y14302857D01*
X18824527Y14302857D02*
X18794289Y14423810D01*
X18794289Y14423810D02*
X18764050Y14484286D01*
X18764050Y14484286D02*
X18733812Y14514524D01*
X18733812Y14514524D02*
X18673336Y14544762D01*
X18673336Y14544762D02*
X18612860Y14544762D01*
X18612860Y14544762D02*
X18552384Y14514524D01*
X18552384Y14514524D02*
X18522146Y14484286D01*
X18522146Y14484286D02*
X18491908Y14423810D01*
X18491908Y14423810D02*
X18491908Y14272619D01*
X18491908Y14272619D02*
X18522146Y14181905D01*
X18491908Y13970238D02*
X18491908Y13577143D01*
X18491908Y13577143D02*
X18733812Y13788810D01*
X18733812Y13788810D02*
X18733812Y13698095D01*
X18733812Y13698095D02*
X18764050Y13637619D01*
X18764050Y13637619D02*
X18794289Y13607381D01*
X18794289Y13607381D02*
X18854765Y13577143D01*
X18854765Y13577143D02*
X19005955Y13577143D01*
X19005955Y13577143D02*
X19066431Y13607381D01*
X19066431Y13607381D02*
X19096670Y13637619D01*
X19096670Y13637619D02*
X19126908Y13698095D01*
X19126908Y13698095D02*
X19126908Y13879524D01*
X19126908Y13879524D02*
X19096670Y13940000D01*
X19096670Y13940000D02*
X19066431Y13970238D01*
X13411908Y15988934D02*
X13411908Y15626077D01*
X14046908Y15807506D02*
X13411908Y15807506D01*
X13411908Y15505124D02*
X14046908Y15293458D01*
X14046908Y15293458D02*
X13411908Y15081791D01*
X14016670Y14900362D02*
X14046908Y14809648D01*
X14046908Y14809648D02*
X14046908Y14658457D01*
X14046908Y14658457D02*
X14016670Y14597981D01*
X14016670Y14597981D02*
X13986431Y14567743D01*
X13986431Y14567743D02*
X13925955Y14537505D01*
X13925955Y14537505D02*
X13865479Y14537505D01*
X13865479Y14537505D02*
X13805003Y14567743D01*
X13805003Y14567743D02*
X13774765Y14597981D01*
X13774765Y14597981D02*
X13744527Y14658457D01*
X13744527Y14658457D02*
X13714289Y14779410D01*
X13714289Y14779410D02*
X13684050Y14839886D01*
X13684050Y14839886D02*
X13653812Y14870124D01*
X13653812Y14870124D02*
X13593336Y14900362D01*
X13593336Y14900362D02*
X13532860Y14900362D01*
X13532860Y14900362D02*
X13472384Y14870124D01*
X13472384Y14870124D02*
X13442146Y14839886D01*
X13442146Y14839886D02*
X13411908Y14779410D01*
X13411908Y14779410D02*
X13411908Y14628219D01*
X13411908Y14628219D02*
X13442146Y14537505D01*
X14046908Y13932743D02*
X14046908Y14295600D01*
X14046908Y14114172D02*
X13411908Y14114172D01*
X13411908Y14114172D02*
X13502622Y14174648D01*
X13502622Y14174648D02*
X13563098Y14235124D01*
X13563098Y14235124D02*
X13593336Y14295600D01*
D13*
X20255333Y18112288D02*
X20255333Y17392621D01*
X20255333Y17392621D02*
X20213000Y17307955D01*
X20213000Y17307955D02*
X20170666Y17265621D01*
X20170666Y17265621D02*
X20086000Y17223288D01*
X20086000Y17223288D02*
X19916666Y17223288D01*
X19916666Y17223288D02*
X19832000Y17265621D01*
X19832000Y17265621D02*
X19789666Y17307955D01*
X19789666Y17307955D02*
X19747333Y17392621D01*
X19747333Y17392621D02*
X19747333Y18112288D01*
X18943000Y17815955D02*
X18943000Y17223288D01*
X19154667Y18154621D02*
X19366333Y17519621D01*
X19366333Y17519621D02*
X18816000Y17519621D01*
D12*
X15262519Y18278958D02*
X15698703Y18355931D01*
X15570413Y17971063D02*
X16109229Y18509879D01*
X16109229Y18509879D02*
X15903966Y18715142D01*
X15903966Y18715142D02*
X15826992Y18740799D01*
X15826992Y18740799D02*
X15775676Y18740799D01*
X15775676Y18740799D02*
X15698703Y18715142D01*
X15698703Y18715142D02*
X15621729Y18638168D01*
X15621729Y18638168D02*
X15596071Y18561194D01*
X15596071Y18561194D02*
X15596071Y18509879D01*
X15596071Y18509879D02*
X15621729Y18432905D01*
X15621729Y18432905D02*
X15826992Y18227642D01*
X15544756Y18971720D02*
X15544756Y19023036D01*
X15544756Y19023036D02*
X15519098Y19100010D01*
X15519098Y19100010D02*
X15390808Y19228299D01*
X15390808Y19228299D02*
X15313835Y19253957D01*
X15313835Y19253957D02*
X15262519Y19253957D01*
X15262519Y19253957D02*
X15185545Y19228299D01*
X15185545Y19228299D02*
X15134230Y19176983D01*
X15134230Y19176983D02*
X15082914Y19074352D01*
X15082914Y19074352D02*
X15082914Y18458563D01*
X15082914Y18458563D02*
X14749361Y18792115D01*
X14826335Y19792772D02*
X14928967Y19690141D01*
X14928967Y19690141D02*
X14954625Y19613167D01*
X14954625Y19613167D02*
X14954625Y19561851D01*
X14954625Y19561851D02*
X14928967Y19433562D01*
X14928967Y19433562D02*
X14851993Y19305273D01*
X14851993Y19305273D02*
X14646730Y19100010D01*
X14646730Y19100010D02*
X14569757Y19074352D01*
X14569757Y19074352D02*
X14518441Y19074352D01*
X14518441Y19074352D02*
X14441467Y19100010D01*
X14441467Y19100010D02*
X14338836Y19202641D01*
X14338836Y19202641D02*
X14313178Y19279615D01*
X14313178Y19279615D02*
X14313178Y19330930D01*
X14313178Y19330930D02*
X14338836Y19407904D01*
X14338836Y19407904D02*
X14467125Y19536193D01*
X14467125Y19536193D02*
X14544099Y19561851D01*
X14544099Y19561851D02*
X14595414Y19561851D01*
X14595414Y19561851D02*
X14672388Y19536193D01*
X14672388Y19536193D02*
X14775020Y19433562D01*
X14775020Y19433562D02*
X14800677Y19356588D01*
X14800677Y19356588D02*
X14800677Y19305273D01*
X14800677Y19305273D02*
X14775020Y19228299D01*
X12270056Y16032162D02*
X12306342Y15995876D01*
X12306342Y15995876D02*
X12415199Y15959591D01*
X12415199Y15959591D02*
X12487771Y15959591D01*
X12487771Y15959591D02*
X12596628Y15995876D01*
X12596628Y15995876D02*
X12669199Y16068448D01*
X12669199Y16068448D02*
X12705485Y16141019D01*
X12705485Y16141019D02*
X12741771Y16286162D01*
X12741771Y16286162D02*
X12741771Y16395019D01*
X12741771Y16395019D02*
X12705485Y16540162D01*
X12705485Y16540162D02*
X12669199Y16612734D01*
X12669199Y16612734D02*
X12596628Y16685305D01*
X12596628Y16685305D02*
X12487771Y16721591D01*
X12487771Y16721591D02*
X12415199Y16721591D01*
X12415199Y16721591D02*
X12306342Y16685305D01*
X12306342Y16685305D02*
X12270056Y16649019D01*
X11544342Y15959591D02*
X11979771Y15959591D01*
X11762056Y15959591D02*
X11762056Y16721591D01*
X11762056Y16721591D02*
X11834628Y16612734D01*
X11834628Y16612734D02*
X11907199Y16540162D01*
X11907199Y16540162D02*
X11979771Y16503876D01*
X11290342Y16721591D02*
X10818628Y16721591D01*
X10818628Y16721591D02*
X11072628Y16431305D01*
X11072628Y16431305D02*
X10963771Y16431305D01*
X10963771Y16431305D02*
X10891200Y16395019D01*
X10891200Y16395019D02*
X10854914Y16358734D01*
X10854914Y16358734D02*
X10818628Y16286162D01*
X10818628Y16286162D02*
X10818628Y16104734D01*
X10818628Y16104734D02*
X10854914Y16032162D01*
X10854914Y16032162D02*
X10891200Y15995876D01*
X10891200Y15995876D02*
X10963771Y15959591D01*
X10963771Y15959591D02*
X11181485Y15959591D01*
X11181485Y15959591D02*
X11254057Y15995876D01*
X11254057Y15995876D02*
X11290342Y16032162D01*
D13*
X9820166Y27383288D02*
X9820166Y28272288D01*
X9820166Y28272288D02*
X9608499Y28272288D01*
X9608499Y28272288D02*
X9481499Y28229955D01*
X9481499Y28229955D02*
X9396833Y28145288D01*
X9396833Y28145288D02*
X9354499Y28060621D01*
X9354499Y28060621D02*
X9312166Y27891288D01*
X9312166Y27891288D02*
X9312166Y27764288D01*
X9312166Y27764288D02*
X9354499Y27594955D01*
X9354499Y27594955D02*
X9396833Y27510288D01*
X9396833Y27510288D02*
X9481499Y27425621D01*
X9481499Y27425621D02*
X9608499Y27383288D01*
X9608499Y27383288D02*
X9820166Y27383288D01*
X8550166Y28272288D02*
X8719499Y28272288D01*
X8719499Y28272288D02*
X8804166Y28229955D01*
X8804166Y28229955D02*
X8846499Y28187621D01*
X8846499Y28187621D02*
X8931166Y28060621D01*
X8931166Y28060621D02*
X8973499Y27891288D01*
X8973499Y27891288D02*
X8973499Y27552621D01*
X8973499Y27552621D02*
X8931166Y27467955D01*
X8931166Y27467955D02*
X8888833Y27425621D01*
X8888833Y27425621D02*
X8804166Y27383288D01*
X8804166Y27383288D02*
X8634833Y27383288D01*
X8634833Y27383288D02*
X8550166Y27425621D01*
X8550166Y27425621D02*
X8507833Y27467955D01*
X8507833Y27467955D02*
X8465499Y27552621D01*
X8465499Y27552621D02*
X8465499Y27764288D01*
X8465499Y27764288D02*
X8507833Y27848955D01*
X8507833Y27848955D02*
X8550166Y27891288D01*
X8550166Y27891288D02*
X8634833Y27933621D01*
X8634833Y27933621D02*
X8804166Y27933621D01*
X8804166Y27933621D02*
X8888833Y27891288D01*
X8888833Y27891288D02*
X8931166Y27848955D01*
X8931166Y27848955D02*
X8973499Y27764288D01*
X9820166Y25859288D02*
X9820166Y26748288D01*
X9820166Y26748288D02*
X9608499Y26748288D01*
X9608499Y26748288D02*
X9481499Y26705955D01*
X9481499Y26705955D02*
X9396833Y26621288D01*
X9396833Y26621288D02*
X9354499Y26536621D01*
X9354499Y26536621D02*
X9312166Y26367288D01*
X9312166Y26367288D02*
X9312166Y26240288D01*
X9312166Y26240288D02*
X9354499Y26070955D01*
X9354499Y26070955D02*
X9396833Y25986288D01*
X9396833Y25986288D02*
X9481499Y25901621D01*
X9481499Y25901621D02*
X9608499Y25859288D01*
X9608499Y25859288D02*
X9820166Y25859288D01*
X9015833Y26748288D02*
X8423166Y26748288D01*
X8423166Y26748288D02*
X8804166Y25859288D01*
D10*
X20866142Y31263188D02*
X21204809Y31746997D01*
X21446714Y31263188D02*
X21446714Y32279188D01*
X21446714Y32279188D02*
X21059666Y32279188D01*
X21059666Y32279188D02*
X20962904Y32230807D01*
X20962904Y32230807D02*
X20914523Y32182426D01*
X20914523Y32182426D02*
X20866142Y32085664D01*
X20866142Y32085664D02*
X20866142Y31940521D01*
X20866142Y31940521D02*
X20914523Y31843759D01*
X20914523Y31843759D02*
X20962904Y31795378D01*
X20962904Y31795378D02*
X21059666Y31746997D01*
X21059666Y31746997D02*
X21446714Y31746997D01*
X20479095Y32182426D02*
X20430714Y32230807D01*
X20430714Y32230807D02*
X20333952Y32279188D01*
X20333952Y32279188D02*
X20092047Y32279188D01*
X20092047Y32279188D02*
X19995285Y32230807D01*
X19995285Y32230807D02*
X19946904Y32182426D01*
X19946904Y32182426D02*
X19898523Y32085664D01*
X19898523Y32085664D02*
X19898523Y31988902D01*
X19898523Y31988902D02*
X19946904Y31843759D01*
X19946904Y31843759D02*
X20527476Y31263188D01*
X20527476Y31263188D02*
X19898523Y31263188D01*
X19317952Y31843759D02*
X19414714Y31892140D01*
X19414714Y31892140D02*
X19463095Y31940521D01*
X19463095Y31940521D02*
X19511476Y32037283D01*
X19511476Y32037283D02*
X19511476Y32085664D01*
X19511476Y32085664D02*
X19463095Y32182426D01*
X19463095Y32182426D02*
X19414714Y32230807D01*
X19414714Y32230807D02*
X19317952Y32279188D01*
X19317952Y32279188D02*
X19124428Y32279188D01*
X19124428Y32279188D02*
X19027666Y32230807D01*
X19027666Y32230807D02*
X18979285Y32182426D01*
X18979285Y32182426D02*
X18930904Y32085664D01*
X18930904Y32085664D02*
X18930904Y32037283D01*
X18930904Y32037283D02*
X18979285Y31940521D01*
X18979285Y31940521D02*
X19027666Y31892140D01*
X19027666Y31892140D02*
X19124428Y31843759D01*
X19124428Y31843759D02*
X19317952Y31843759D01*
X19317952Y31843759D02*
X19414714Y31795378D01*
X19414714Y31795378D02*
X19463095Y31746997D01*
X19463095Y31746997D02*
X19511476Y31650235D01*
X19511476Y31650235D02*
X19511476Y31456711D01*
X19511476Y31456711D02*
X19463095Y31359949D01*
X19463095Y31359949D02*
X19414714Y31311568D01*
X19414714Y31311568D02*
X19317952Y31263188D01*
X19317952Y31263188D02*
X19124428Y31263188D01*
X19124428Y31263188D02*
X19027666Y31311568D01*
X19027666Y31311568D02*
X18979285Y31359949D01*
X18979285Y31359949D02*
X18930904Y31456711D01*
X18930904Y31456711D02*
X18930904Y31650235D01*
X18930904Y31650235D02*
X18979285Y31746997D01*
X18979285Y31746997D02*
X19027666Y31795378D01*
X19027666Y31795378D02*
X19124428Y31843759D01*
D13*
X12103712Y46261501D02*
X11680379Y46557834D01*
X12103712Y46769501D02*
X11214712Y46769501D01*
X11214712Y46769501D02*
X11214712Y46430834D01*
X11214712Y46430834D02*
X11257045Y46346167D01*
X11257045Y46346167D02*
X11299379Y46303834D01*
X11299379Y46303834D02*
X11384045Y46261501D01*
X11384045Y46261501D02*
X11511045Y46261501D01*
X11511045Y46261501D02*
X11595712Y46303834D01*
X11595712Y46303834D02*
X11638045Y46346167D01*
X11638045Y46346167D02*
X11680379Y46430834D01*
X11680379Y46430834D02*
X11680379Y46769501D01*
X11299379Y45922834D02*
X11257045Y45880501D01*
X11257045Y45880501D02*
X11214712Y45795834D01*
X11214712Y45795834D02*
X11214712Y45584167D01*
X11214712Y45584167D02*
X11257045Y45499501D01*
X11257045Y45499501D02*
X11299379Y45457167D01*
X11299379Y45457167D02*
X11384045Y45414834D01*
X11384045Y45414834D02*
X11468712Y45414834D01*
X11468712Y45414834D02*
X11595712Y45457167D01*
X11595712Y45457167D02*
X12103712Y45965167D01*
X12103712Y45965167D02*
X12103712Y45414834D01*
X11214712Y44864500D02*
X11214712Y44779834D01*
X11214712Y44779834D02*
X11257045Y44695167D01*
X11257045Y44695167D02*
X11299379Y44652834D01*
X11299379Y44652834D02*
X11384045Y44610500D01*
X11384045Y44610500D02*
X11553379Y44568167D01*
X11553379Y44568167D02*
X11765045Y44568167D01*
X11765045Y44568167D02*
X11934379Y44610500D01*
X11934379Y44610500D02*
X12019045Y44652834D01*
X12019045Y44652834D02*
X12061379Y44695167D01*
X12061379Y44695167D02*
X12103712Y44779834D01*
X12103712Y44779834D02*
X12103712Y44864500D01*
X12103712Y44864500D02*
X12061379Y44949167D01*
X12061379Y44949167D02*
X12019045Y44991500D01*
X12019045Y44991500D02*
X11934379Y45033834D01*
X11934379Y45033834D02*
X11765045Y45076167D01*
X11765045Y45076167D02*
X11553379Y45076167D01*
X11553379Y45076167D02*
X11384045Y45033834D01*
X11384045Y45033834D02*
X11299379Y44991500D01*
X11299379Y44991500D02*
X11257045Y44949167D01*
X11257045Y44949167D02*
X11214712Y44864500D01*
D12*
X2813999Y72652391D02*
X3067999Y73015248D01*
X3249428Y72652391D02*
X3249428Y73414391D01*
X3249428Y73414391D02*
X2959142Y73414391D01*
X2959142Y73414391D02*
X2886571Y73378105D01*
X2886571Y73378105D02*
X2850285Y73341819D01*
X2850285Y73341819D02*
X2813999Y73269248D01*
X2813999Y73269248D02*
X2813999Y73160391D01*
X2813999Y73160391D02*
X2850285Y73087819D01*
X2850285Y73087819D02*
X2886571Y73051534D01*
X2886571Y73051534D02*
X2959142Y73015248D01*
X2959142Y73015248D02*
X3249428Y73015248D01*
X2451142Y72652391D02*
X2305999Y72652391D01*
X2305999Y72652391D02*
X2233428Y72688676D01*
X2233428Y72688676D02*
X2197142Y72724962D01*
X2197142Y72724962D02*
X2124571Y72833819D01*
X2124571Y72833819D02*
X2088285Y72978962D01*
X2088285Y72978962D02*
X2088285Y73269248D01*
X2088285Y73269248D02*
X2124571Y73341819D01*
X2124571Y73341819D02*
X2160857Y73378105D01*
X2160857Y73378105D02*
X2233428Y73414391D01*
X2233428Y73414391D02*
X2378571Y73414391D01*
X2378571Y73414391D02*
X2451142Y73378105D01*
X2451142Y73378105D02*
X2487428Y73341819D01*
X2487428Y73341819D02*
X2523714Y73269248D01*
X2523714Y73269248D02*
X2523714Y73087819D01*
X2523714Y73087819D02*
X2487428Y73015248D01*
X2487428Y73015248D02*
X2451142Y72978962D01*
X2451142Y72978962D02*
X2378571Y72942676D01*
X2378571Y72942676D02*
X2233428Y72942676D01*
X2233428Y72942676D02*
X2160857Y72978962D01*
X2160857Y72978962D02*
X2124571Y73015248D01*
X2124571Y73015248D02*
X2088285Y73087819D01*
X19683227Y60104791D02*
X19937227Y60467648D01*
X20118656Y60104791D02*
X20118656Y60866791D01*
X20118656Y60866791D02*
X19828370Y60866791D01*
X19828370Y60866791D02*
X19755799Y60830505D01*
X19755799Y60830505D02*
X19719513Y60794219D01*
X19719513Y60794219D02*
X19683227Y60721648D01*
X19683227Y60721648D02*
X19683227Y60612791D01*
X19683227Y60612791D02*
X19719513Y60540219D01*
X19719513Y60540219D02*
X19755799Y60503934D01*
X19755799Y60503934D02*
X19828370Y60467648D01*
X19828370Y60467648D02*
X20118656Y60467648D01*
X19356656Y60104791D02*
X19356656Y60866791D01*
X19356656Y60866791D02*
X19102656Y60322505D01*
X19102656Y60322505D02*
X18848656Y60866791D01*
X18848656Y60866791D02*
X18848656Y60104791D01*
X18558370Y60866791D02*
X18086656Y60866791D01*
X18086656Y60866791D02*
X18340656Y60576505D01*
X18340656Y60576505D02*
X18231799Y60576505D01*
X18231799Y60576505D02*
X18159228Y60540219D01*
X18159228Y60540219D02*
X18122942Y60503934D01*
X18122942Y60503934D02*
X18086656Y60431362D01*
X18086656Y60431362D02*
X18086656Y60249934D01*
X18086656Y60249934D02*
X18122942Y60177362D01*
X18122942Y60177362D02*
X18159228Y60141076D01*
X18159228Y60141076D02*
X18231799Y60104791D01*
X18231799Y60104791D02*
X18449513Y60104791D01*
X18449513Y60104791D02*
X18522085Y60141076D01*
X18522085Y60141076D02*
X18558370Y60177362D01*
D13*
X22390712Y48674501D02*
X21967379Y48970834D01*
X22390712Y49182501D02*
X21501712Y49182501D01*
X21501712Y49182501D02*
X21501712Y48843834D01*
X21501712Y48843834D02*
X21544045Y48759167D01*
X21544045Y48759167D02*
X21586379Y48716834D01*
X21586379Y48716834D02*
X21671045Y48674501D01*
X21671045Y48674501D02*
X21798045Y48674501D01*
X21798045Y48674501D02*
X21882712Y48716834D01*
X21882712Y48716834D02*
X21925045Y48759167D01*
X21925045Y48759167D02*
X21967379Y48843834D01*
X21967379Y48843834D02*
X21967379Y49182501D01*
X21798045Y47912501D02*
X22390712Y47912501D01*
X21459379Y48124167D02*
X22094379Y48335834D01*
X22094379Y48335834D02*
X22094379Y47785501D01*
X21586379Y47489167D02*
X21544045Y47446834D01*
X21544045Y47446834D02*
X21501712Y47362167D01*
X21501712Y47362167D02*
X21501712Y47150500D01*
X21501712Y47150500D02*
X21544045Y47065834D01*
X21544045Y47065834D02*
X21586379Y47023500D01*
X21586379Y47023500D02*
X21671045Y46981167D01*
X21671045Y46981167D02*
X21755712Y46981167D01*
X21755712Y46981167D02*
X21882712Y47023500D01*
X21882712Y47023500D02*
X22390712Y47531500D01*
X22390712Y47531500D02*
X22390712Y46981167D01*
D10*
X23406142Y29518449D02*
X23454523Y29470068D01*
X23454523Y29470068D02*
X23599666Y29421688D01*
X23599666Y29421688D02*
X23696428Y29421688D01*
X23696428Y29421688D02*
X23841571Y29470068D01*
X23841571Y29470068D02*
X23938333Y29566830D01*
X23938333Y29566830D02*
X23986714Y29663592D01*
X23986714Y29663592D02*
X24035095Y29857116D01*
X24035095Y29857116D02*
X24035095Y30002259D01*
X24035095Y30002259D02*
X23986714Y30195783D01*
X23986714Y30195783D02*
X23938333Y30292545D01*
X23938333Y30292545D02*
X23841571Y30389307D01*
X23841571Y30389307D02*
X23696428Y30437688D01*
X23696428Y30437688D02*
X23599666Y30437688D01*
X23599666Y30437688D02*
X23454523Y30389307D01*
X23454523Y30389307D02*
X23406142Y30340926D01*
X23019095Y30340926D02*
X22970714Y30389307D01*
X22970714Y30389307D02*
X22873952Y30437688D01*
X22873952Y30437688D02*
X22632047Y30437688D01*
X22632047Y30437688D02*
X22535285Y30389307D01*
X22535285Y30389307D02*
X22486904Y30340926D01*
X22486904Y30340926D02*
X22438523Y30244164D01*
X22438523Y30244164D02*
X22438523Y30147402D01*
X22438523Y30147402D02*
X22486904Y30002259D01*
X22486904Y30002259D02*
X23067476Y29421688D01*
X23067476Y29421688D02*
X22438523Y29421688D01*
X21567666Y30437688D02*
X21761190Y30437688D01*
X21761190Y30437688D02*
X21857952Y30389307D01*
X21857952Y30389307D02*
X21906333Y30340926D01*
X21906333Y30340926D02*
X22003095Y30195783D01*
X22003095Y30195783D02*
X22051476Y30002259D01*
X22051476Y30002259D02*
X22051476Y29615211D01*
X22051476Y29615211D02*
X22003095Y29518449D01*
X22003095Y29518449D02*
X21954714Y29470068D01*
X21954714Y29470068D02*
X21857952Y29421688D01*
X21857952Y29421688D02*
X21664428Y29421688D01*
X21664428Y29421688D02*
X21567666Y29470068D01*
X21567666Y29470068D02*
X21519285Y29518449D01*
X21519285Y29518449D02*
X21470904Y29615211D01*
X21470904Y29615211D02*
X21470904Y29857116D01*
X21470904Y29857116D02*
X21519285Y29953878D01*
X21519285Y29953878D02*
X21567666Y30002259D01*
X21567666Y30002259D02*
X21664428Y30050640D01*
X21664428Y30050640D02*
X21857952Y30050640D01*
X21857952Y30050640D02*
X21954714Y30002259D01*
X21954714Y30002259D02*
X22003095Y29953878D01*
X22003095Y29953878D02*
X22051476Y29857116D01*
X25114812Y34913143D02*
X24631003Y35251810D01*
X25114812Y35493715D02*
X24098812Y35493715D01*
X24098812Y35493715D02*
X24098812Y35106667D01*
X24098812Y35106667D02*
X24147193Y35009905D01*
X24147193Y35009905D02*
X24195574Y34961524D01*
X24195574Y34961524D02*
X24292336Y34913143D01*
X24292336Y34913143D02*
X24437479Y34913143D01*
X24437479Y34913143D02*
X24534241Y34961524D01*
X24534241Y34961524D02*
X24582622Y35009905D01*
X24582622Y35009905D02*
X24631003Y35106667D01*
X24631003Y35106667D02*
X24631003Y35493715D01*
X24437479Y34042286D02*
X25114812Y34042286D01*
X24050432Y34284191D02*
X24776146Y34526096D01*
X24776146Y34526096D02*
X24776146Y33897143D01*
X24098812Y33606858D02*
X24098812Y32977905D01*
X24098812Y32977905D02*
X24485860Y33316572D01*
X24485860Y33316572D02*
X24485860Y33171429D01*
X24485860Y33171429D02*
X24534241Y33074667D01*
X24534241Y33074667D02*
X24582622Y33026286D01*
X24582622Y33026286D02*
X24679384Y32977905D01*
X24679384Y32977905D02*
X24921289Y32977905D01*
X24921289Y32977905D02*
X25018051Y33026286D01*
X25018051Y33026286D02*
X25066432Y33074667D01*
X25066432Y33074667D02*
X25114812Y33171429D01*
X25114812Y33171429D02*
X25114812Y33461715D01*
X25114812Y33461715D02*
X25066432Y33558477D01*
X25066432Y33558477D02*
X25018051Y33606858D01*
D12*
X27281456Y61853762D02*
X27317742Y61817476D01*
X27317742Y61817476D02*
X27426599Y61781191D01*
X27426599Y61781191D02*
X27499171Y61781191D01*
X27499171Y61781191D02*
X27608028Y61817476D01*
X27608028Y61817476D02*
X27680599Y61890048D01*
X27680599Y61890048D02*
X27716885Y61962619D01*
X27716885Y61962619D02*
X27753171Y62107762D01*
X27753171Y62107762D02*
X27753171Y62216619D01*
X27753171Y62216619D02*
X27716885Y62361762D01*
X27716885Y62361762D02*
X27680599Y62434334D01*
X27680599Y62434334D02*
X27608028Y62506905D01*
X27608028Y62506905D02*
X27499171Y62543191D01*
X27499171Y62543191D02*
X27426599Y62543191D01*
X27426599Y62543191D02*
X27317742Y62506905D01*
X27317742Y62506905D02*
X27281456Y62470619D01*
X26991171Y62470619D02*
X26954885Y62506905D01*
X26954885Y62506905D02*
X26882314Y62543191D01*
X26882314Y62543191D02*
X26700885Y62543191D01*
X26700885Y62543191D02*
X26628314Y62506905D01*
X26628314Y62506905D02*
X26592028Y62470619D01*
X26592028Y62470619D02*
X26555742Y62398048D01*
X26555742Y62398048D02*
X26555742Y62325476D01*
X26555742Y62325476D02*
X26592028Y62216619D01*
X26592028Y62216619D02*
X27027456Y61781191D01*
X27027456Y61781191D02*
X26555742Y61781191D01*
X26120314Y62216619D02*
X26192885Y62252905D01*
X26192885Y62252905D02*
X26229171Y62289191D01*
X26229171Y62289191D02*
X26265457Y62361762D01*
X26265457Y62361762D02*
X26265457Y62398048D01*
X26265457Y62398048D02*
X26229171Y62470619D01*
X26229171Y62470619D02*
X26192885Y62506905D01*
X26192885Y62506905D02*
X26120314Y62543191D01*
X26120314Y62543191D02*
X25975171Y62543191D01*
X25975171Y62543191D02*
X25902600Y62506905D01*
X25902600Y62506905D02*
X25866314Y62470619D01*
X25866314Y62470619D02*
X25830028Y62398048D01*
X25830028Y62398048D02*
X25830028Y62361762D01*
X25830028Y62361762D02*
X25866314Y62289191D01*
X25866314Y62289191D02*
X25902600Y62252905D01*
X25902600Y62252905D02*
X25975171Y62216619D01*
X25975171Y62216619D02*
X26120314Y62216619D01*
X26120314Y62216619D02*
X26192885Y62180334D01*
X26192885Y62180334D02*
X26229171Y62144048D01*
X26229171Y62144048D02*
X26265457Y62071476D01*
X26265457Y62071476D02*
X26265457Y61926334D01*
X26265457Y61926334D02*
X26229171Y61853762D01*
X26229171Y61853762D02*
X26192885Y61817476D01*
X26192885Y61817476D02*
X26120314Y61781191D01*
X26120314Y61781191D02*
X25975171Y61781191D01*
X25975171Y61781191D02*
X25902600Y61817476D01*
X25902600Y61817476D02*
X25866314Y61853762D01*
X25866314Y61853762D02*
X25830028Y61926334D01*
X25830028Y61926334D02*
X25830028Y62071476D01*
X25830028Y62071476D02*
X25866314Y62144048D01*
X25866314Y62144048D02*
X25902600Y62180334D01*
X25902600Y62180334D02*
X25975171Y62216619D01*
X6331609Y66626857D02*
X5968752Y66880857D01*
X6331609Y67062286D02*
X5569609Y67062286D01*
X5569609Y67062286D02*
X5569609Y66772000D01*
X5569609Y66772000D02*
X5605895Y66699429D01*
X5605895Y66699429D02*
X5642181Y66663143D01*
X5642181Y66663143D02*
X5714752Y66626857D01*
X5714752Y66626857D02*
X5823609Y66626857D01*
X5823609Y66626857D02*
X5896181Y66663143D01*
X5896181Y66663143D02*
X5932466Y66699429D01*
X5932466Y66699429D02*
X5968752Y66772000D01*
X5968752Y66772000D02*
X5968752Y67062286D01*
X5823609Y65973714D02*
X6331609Y65973714D01*
X5533324Y66155143D02*
X6077609Y66336572D01*
X6077609Y66336572D02*
X6077609Y65864857D01*
X5569609Y65211715D02*
X5569609Y65574572D01*
X5569609Y65574572D02*
X5932466Y65610858D01*
X5932466Y65610858D02*
X5896181Y65574572D01*
X5896181Y65574572D02*
X5859895Y65502000D01*
X5859895Y65502000D02*
X5859895Y65320572D01*
X5859895Y65320572D02*
X5896181Y65248000D01*
X5896181Y65248000D02*
X5932466Y65211715D01*
X5932466Y65211715D02*
X6005038Y65175429D01*
X6005038Y65175429D02*
X6186466Y65175429D01*
X6186466Y65175429D02*
X6259038Y65211715D01*
X6259038Y65211715D02*
X6295324Y65248000D01*
X6295324Y65248000D02*
X6331609Y65320572D01*
X6331609Y65320572D02*
X6331609Y65502000D01*
X6331609Y65502000D02*
X6295324Y65574572D01*
X6295324Y65574572D02*
X6259038Y65610858D01*
D13*
X24192333Y61800288D02*
X24192333Y61080621D01*
X24192333Y61080621D02*
X24150000Y60995955D01*
X24150000Y60995955D02*
X24107666Y60953621D01*
X24107666Y60953621D02*
X24023000Y60911288D01*
X24023000Y60911288D02*
X23853666Y60911288D01*
X23853666Y60911288D02*
X23769000Y60953621D01*
X23769000Y60953621D02*
X23726666Y60995955D01*
X23726666Y60995955D02*
X23684333Y61080621D01*
X23684333Y61080621D02*
X23684333Y61800288D01*
X23134000Y61419288D02*
X23218667Y61461621D01*
X23218667Y61461621D02*
X23261000Y61503955D01*
X23261000Y61503955D02*
X23303333Y61588621D01*
X23303333Y61588621D02*
X23303333Y61630955D01*
X23303333Y61630955D02*
X23261000Y61715621D01*
X23261000Y61715621D02*
X23218667Y61757955D01*
X23218667Y61757955D02*
X23134000Y61800288D01*
X23134000Y61800288D02*
X22964667Y61800288D01*
X22964667Y61800288D02*
X22880000Y61757955D01*
X22880000Y61757955D02*
X22837667Y61715621D01*
X22837667Y61715621D02*
X22795333Y61630955D01*
X22795333Y61630955D02*
X22795333Y61588621D01*
X22795333Y61588621D02*
X22837667Y61503955D01*
X22837667Y61503955D02*
X22880000Y61461621D01*
X22880000Y61461621D02*
X22964667Y61419288D01*
X22964667Y61419288D02*
X23134000Y61419288D01*
X23134000Y61419288D02*
X23218667Y61376955D01*
X23218667Y61376955D02*
X23261000Y61334621D01*
X23261000Y61334621D02*
X23303333Y61249955D01*
X23303333Y61249955D02*
X23303333Y61080621D01*
X23303333Y61080621D02*
X23261000Y60995955D01*
X23261000Y60995955D02*
X23218667Y60953621D01*
X23218667Y60953621D02*
X23134000Y60911288D01*
X23134000Y60911288D02*
X22964667Y60911288D01*
X22964667Y60911288D02*
X22880000Y60953621D01*
X22880000Y60953621D02*
X22837667Y60995955D01*
X22837667Y60995955D02*
X22795333Y61080621D01*
X22795333Y61080621D02*
X22795333Y61249955D01*
X22795333Y61249955D02*
X22837667Y61334621D01*
X22837667Y61334621D02*
X22880000Y61376955D01*
X22880000Y61376955D02*
X22964667Y61419288D01*
D12*
X5629771Y8695191D02*
X5629771Y8078334D01*
X5629771Y8078334D02*
X5593485Y8005762D01*
X5593485Y8005762D02*
X5557200Y7969476D01*
X5557200Y7969476D02*
X5484628Y7933191D01*
X5484628Y7933191D02*
X5339485Y7933191D01*
X5339485Y7933191D02*
X5266914Y7969476D01*
X5266914Y7969476D02*
X5230628Y8005762D01*
X5230628Y8005762D02*
X5194342Y8078334D01*
X5194342Y8078334D02*
X5194342Y8695191D01*
X4904056Y8695191D02*
X4432342Y8695191D01*
X4432342Y8695191D02*
X4686342Y8404905D01*
X4686342Y8404905D02*
X4577485Y8404905D01*
X4577485Y8404905D02*
X4504914Y8368619D01*
X4504914Y8368619D02*
X4468628Y8332334D01*
X4468628Y8332334D02*
X4432342Y8259762D01*
X4432342Y8259762D02*
X4432342Y8078334D01*
X4432342Y8078334D02*
X4468628Y8005762D01*
X4468628Y8005762D02*
X4504914Y7969476D01*
X4504914Y7969476D02*
X4577485Y7933191D01*
X4577485Y7933191D02*
X4795199Y7933191D01*
X4795199Y7933191D02*
X4867771Y7969476D01*
X4867771Y7969476D02*
X4904056Y8005762D01*
X5462856Y2548391D02*
X5716856Y2911248D01*
X5898285Y2548391D02*
X5898285Y3310391D01*
X5898285Y3310391D02*
X5607999Y3310391D01*
X5607999Y3310391D02*
X5535428Y3274105D01*
X5535428Y3274105D02*
X5499142Y3237819D01*
X5499142Y3237819D02*
X5462856Y3165248D01*
X5462856Y3165248D02*
X5462856Y3056391D01*
X5462856Y3056391D02*
X5499142Y2983819D01*
X5499142Y2983819D02*
X5535428Y2947534D01*
X5535428Y2947534D02*
X5607999Y2911248D01*
X5607999Y2911248D02*
X5898285Y2911248D01*
X4737142Y2548391D02*
X5172571Y2548391D01*
X4954856Y2548391D02*
X4954856Y3310391D01*
X4954856Y3310391D02*
X5027428Y3201534D01*
X5027428Y3201534D02*
X5099999Y3128962D01*
X5099999Y3128962D02*
X5172571Y3092676D01*
X4483142Y3310391D02*
X3975142Y3310391D01*
X3975142Y3310391D02*
X4301714Y2548391D01*
D10*
X3461095Y60092188D02*
X2880523Y60092188D01*
X3170809Y59076188D02*
X3170809Y60092188D01*
X2009666Y59076188D02*
X2590238Y59076188D01*
X2299952Y59076188D02*
X2299952Y60092188D01*
X2299952Y60092188D02*
X2396714Y59947045D01*
X2396714Y59947045D02*
X2493476Y59850283D01*
X2493476Y59850283D02*
X2590238Y59801902D01*
D12*
X9925999Y46871391D02*
X10179999Y47234248D01*
X10361428Y46871391D02*
X10361428Y47633391D01*
X10361428Y47633391D02*
X10071142Y47633391D01*
X10071142Y47633391D02*
X9998571Y47597105D01*
X9998571Y47597105D02*
X9962285Y47560819D01*
X9962285Y47560819D02*
X9925999Y47488248D01*
X9925999Y47488248D02*
X9925999Y47379391D01*
X9925999Y47379391D02*
X9962285Y47306819D01*
X9962285Y47306819D02*
X9998571Y47270534D01*
X9998571Y47270534D02*
X10071142Y47234248D01*
X10071142Y47234248D02*
X10361428Y47234248D01*
X9635714Y47560819D02*
X9599428Y47597105D01*
X9599428Y47597105D02*
X9526857Y47633391D01*
X9526857Y47633391D02*
X9345428Y47633391D01*
X9345428Y47633391D02*
X9272857Y47597105D01*
X9272857Y47597105D02*
X9236571Y47560819D01*
X9236571Y47560819D02*
X9200285Y47488248D01*
X9200285Y47488248D02*
X9200285Y47415676D01*
X9200285Y47415676D02*
X9236571Y47306819D01*
X9236571Y47306819D02*
X9671999Y46871391D01*
X9671999Y46871391D02*
X9200285Y46871391D01*
X9925999Y48141391D02*
X10179999Y48504248D01*
X10361428Y48141391D02*
X10361428Y48903391D01*
X10361428Y48903391D02*
X10071142Y48903391D01*
X10071142Y48903391D02*
X9998571Y48867105D01*
X9998571Y48867105D02*
X9962285Y48830819D01*
X9962285Y48830819D02*
X9925999Y48758248D01*
X9925999Y48758248D02*
X9925999Y48649391D01*
X9925999Y48649391D02*
X9962285Y48576819D01*
X9962285Y48576819D02*
X9998571Y48540534D01*
X9998571Y48540534D02*
X10071142Y48504248D01*
X10071142Y48504248D02*
X10361428Y48504248D01*
X9671999Y48903391D02*
X9200285Y48903391D01*
X9200285Y48903391D02*
X9454285Y48613105D01*
X9454285Y48613105D02*
X9345428Y48613105D01*
X9345428Y48613105D02*
X9272857Y48576819D01*
X9272857Y48576819D02*
X9236571Y48540534D01*
X9236571Y48540534D02*
X9200285Y48467962D01*
X9200285Y48467962D02*
X9200285Y48286534D01*
X9200285Y48286534D02*
X9236571Y48213962D01*
X9236571Y48213962D02*
X9272857Y48177676D01*
X9272857Y48177676D02*
X9345428Y48141391D01*
X9345428Y48141391D02*
X9563142Y48141391D01*
X9563142Y48141391D02*
X9635714Y48177676D01*
X9635714Y48177676D02*
X9671999Y48213962D01*
X2160856Y76280962D02*
X2197142Y76244676D01*
X2197142Y76244676D02*
X2305999Y76208391D01*
X2305999Y76208391D02*
X2378571Y76208391D01*
X2378571Y76208391D02*
X2487428Y76244676D01*
X2487428Y76244676D02*
X2559999Y76317248D01*
X2559999Y76317248D02*
X2596285Y76389819D01*
X2596285Y76389819D02*
X2632571Y76534962D01*
X2632571Y76534962D02*
X2632571Y76643819D01*
X2632571Y76643819D02*
X2596285Y76788962D01*
X2596285Y76788962D02*
X2559999Y76861534D01*
X2559999Y76861534D02*
X2487428Y76934105D01*
X2487428Y76934105D02*
X2378571Y76970391D01*
X2378571Y76970391D02*
X2305999Y76970391D01*
X2305999Y76970391D02*
X2197142Y76934105D01*
X2197142Y76934105D02*
X2160856Y76897819D01*
X1870571Y76897819D02*
X1834285Y76934105D01*
X1834285Y76934105D02*
X1761714Y76970391D01*
X1761714Y76970391D02*
X1580285Y76970391D01*
X1580285Y76970391D02*
X1507714Y76934105D01*
X1507714Y76934105D02*
X1471428Y76897819D01*
X1471428Y76897819D02*
X1435142Y76825248D01*
X1435142Y76825248D02*
X1435142Y76752676D01*
X1435142Y76752676D02*
X1471428Y76643819D01*
X1471428Y76643819D02*
X1906856Y76208391D01*
X1906856Y76208391D02*
X1435142Y76208391D01*
X963428Y76970391D02*
X890857Y76970391D01*
X890857Y76970391D02*
X818285Y76934105D01*
X818285Y76934105D02*
X782000Y76897819D01*
X782000Y76897819D02*
X745714Y76825248D01*
X745714Y76825248D02*
X709428Y76680105D01*
X709428Y76680105D02*
X709428Y76498676D01*
X709428Y76498676D02*
X745714Y76353534D01*
X745714Y76353534D02*
X782000Y76280962D01*
X782000Y76280962D02*
X818285Y76244676D01*
X818285Y76244676D02*
X890857Y76208391D01*
X890857Y76208391D02*
X963428Y76208391D01*
X963428Y76208391D02*
X1036000Y76244676D01*
X1036000Y76244676D02*
X1072285Y76280962D01*
X1072285Y76280962D02*
X1108571Y76353534D01*
X1108571Y76353534D02*
X1144857Y76498676D01*
X1144857Y76498676D02*
X1144857Y76680105D01*
X1144857Y76680105D02*
X1108571Y76825248D01*
X1108571Y76825248D02*
X1072285Y76897819D01*
X1072285Y76897819D02*
X1036000Y76934105D01*
X1036000Y76934105D02*
X963428Y76970391D01*
X15336199Y56193191D02*
X15699056Y56193191D01*
X15699056Y56193191D02*
X15699056Y56955191D01*
X14719342Y56955191D02*
X15082199Y56955191D01*
X15082199Y56955191D02*
X15118485Y56592334D01*
X15118485Y56592334D02*
X15082199Y56628619D01*
X15082199Y56628619D02*
X15009628Y56664905D01*
X15009628Y56664905D02*
X14828199Y56664905D01*
X14828199Y56664905D02*
X14755628Y56628619D01*
X14755628Y56628619D02*
X14719342Y56592334D01*
X14719342Y56592334D02*
X14683056Y56519762D01*
X14683056Y56519762D02*
X14683056Y56338334D01*
X14683056Y56338334D02*
X14719342Y56265762D01*
X14719342Y56265762D02*
X14755628Y56229476D01*
X14755628Y56229476D02*
X14828199Y56193191D01*
X14828199Y56193191D02*
X15009628Y56193191D01*
X15009628Y56193191D02*
X15082199Y56229476D01*
X15082199Y56229476D02*
X15118485Y56265762D01*
X11508056Y55634391D02*
X11762056Y55997248D01*
X11943485Y55634391D02*
X11943485Y56396391D01*
X11943485Y56396391D02*
X11653199Y56396391D01*
X11653199Y56396391D02*
X11580628Y56360105D01*
X11580628Y56360105D02*
X11544342Y56323819D01*
X11544342Y56323819D02*
X11508056Y56251248D01*
X11508056Y56251248D02*
X11508056Y56142391D01*
X11508056Y56142391D02*
X11544342Y56069819D01*
X11544342Y56069819D02*
X11580628Y56033534D01*
X11580628Y56033534D02*
X11653199Y55997248D01*
X11653199Y55997248D02*
X11943485Y55997248D01*
X11254056Y56396391D02*
X10782342Y56396391D01*
X10782342Y56396391D02*
X11036342Y56106105D01*
X11036342Y56106105D02*
X10927485Y56106105D01*
X10927485Y56106105D02*
X10854914Y56069819D01*
X10854914Y56069819D02*
X10818628Y56033534D01*
X10818628Y56033534D02*
X10782342Y55960962D01*
X10782342Y55960962D02*
X10782342Y55779534D01*
X10782342Y55779534D02*
X10818628Y55706962D01*
X10818628Y55706962D02*
X10854914Y55670676D01*
X10854914Y55670676D02*
X10927485Y55634391D01*
X10927485Y55634391D02*
X11145199Y55634391D01*
X11145199Y55634391D02*
X11217771Y55670676D01*
X11217771Y55670676D02*
X11254056Y55706962D01*
X10528342Y56396391D02*
X10020342Y56396391D01*
X10020342Y56396391D02*
X10346914Y55634391D01*
X19813856Y55862991D02*
X20067856Y56225848D01*
X20249285Y55862991D02*
X20249285Y56624991D01*
X20249285Y56624991D02*
X19958999Y56624991D01*
X19958999Y56624991D02*
X19886428Y56588705D01*
X19886428Y56588705D02*
X19850142Y56552419D01*
X19850142Y56552419D02*
X19813856Y56479848D01*
X19813856Y56479848D02*
X19813856Y56370991D01*
X19813856Y56370991D02*
X19850142Y56298419D01*
X19850142Y56298419D02*
X19886428Y56262134D01*
X19886428Y56262134D02*
X19958999Y56225848D01*
X19958999Y56225848D02*
X20249285Y56225848D01*
X19124428Y56624991D02*
X19487285Y56624991D01*
X19487285Y56624991D02*
X19523571Y56262134D01*
X19523571Y56262134D02*
X19487285Y56298419D01*
X19487285Y56298419D02*
X19414714Y56334705D01*
X19414714Y56334705D02*
X19233285Y56334705D01*
X19233285Y56334705D02*
X19160714Y56298419D01*
X19160714Y56298419D02*
X19124428Y56262134D01*
X19124428Y56262134D02*
X19088142Y56189562D01*
X19088142Y56189562D02*
X19088142Y56008134D01*
X19088142Y56008134D02*
X19124428Y55935562D01*
X19124428Y55935562D02*
X19160714Y55899276D01*
X19160714Y55899276D02*
X19233285Y55862991D01*
X19233285Y55862991D02*
X19414714Y55862991D01*
X19414714Y55862991D02*
X19487285Y55899276D01*
X19487285Y55899276D02*
X19523571Y55935562D01*
X18797857Y56552419D02*
X18761571Y56588705D01*
X18761571Y56588705D02*
X18689000Y56624991D01*
X18689000Y56624991D02*
X18507571Y56624991D01*
X18507571Y56624991D02*
X18435000Y56588705D01*
X18435000Y56588705D02*
X18398714Y56552419D01*
X18398714Y56552419D02*
X18362428Y56479848D01*
X18362428Y56479848D02*
X18362428Y56407276D01*
X18362428Y56407276D02*
X18398714Y56298419D01*
X18398714Y56298419D02*
X18834142Y55862991D01*
X18834142Y55862991D02*
X18362428Y55862991D01*
X26143609Y59006857D02*
X25780752Y59260857D01*
X26143609Y59442286D02*
X25381609Y59442286D01*
X25381609Y59442286D02*
X25381609Y59152000D01*
X25381609Y59152000D02*
X25417895Y59079429D01*
X25417895Y59079429D02*
X25454181Y59043143D01*
X25454181Y59043143D02*
X25526752Y59006857D01*
X25526752Y59006857D02*
X25635609Y59006857D01*
X25635609Y59006857D02*
X25708181Y59043143D01*
X25708181Y59043143D02*
X25744466Y59079429D01*
X25744466Y59079429D02*
X25780752Y59152000D01*
X25780752Y59152000D02*
X25780752Y59442286D01*
X25381609Y58317429D02*
X25381609Y58680286D01*
X25381609Y58680286D02*
X25744466Y58716572D01*
X25744466Y58716572D02*
X25708181Y58680286D01*
X25708181Y58680286D02*
X25671895Y58607714D01*
X25671895Y58607714D02*
X25671895Y58426286D01*
X25671895Y58426286D02*
X25708181Y58353714D01*
X25708181Y58353714D02*
X25744466Y58317429D01*
X25744466Y58317429D02*
X25817038Y58281143D01*
X25817038Y58281143D02*
X25998466Y58281143D01*
X25998466Y58281143D02*
X26071038Y58317429D01*
X26071038Y58317429D02*
X26107324Y58353714D01*
X26107324Y58353714D02*
X26143609Y58426286D01*
X26143609Y58426286D02*
X26143609Y58607714D01*
X26143609Y58607714D02*
X26107324Y58680286D01*
X26107324Y58680286D02*
X26071038Y58716572D01*
X25635609Y57628000D02*
X26143609Y57628000D01*
X25345324Y57809429D02*
X25889609Y57990858D01*
X25889609Y57990858D02*
X25889609Y57519143D01*
D17*
X3321904Y20840381D02*
X3321904Y20030858D01*
X3321904Y20030858D02*
X3274285Y19935620D01*
X3274285Y19935620D02*
X3226666Y19888000D01*
X3226666Y19888000D02*
X3131428Y19840381D01*
X3131428Y19840381D02*
X2940952Y19840381D01*
X2940952Y19840381D02*
X2845714Y19888000D01*
X2845714Y19888000D02*
X2798095Y19935620D01*
X2798095Y19935620D02*
X2750476Y20030858D01*
X2750476Y20030858D02*
X2750476Y20840381D01*
X1750476Y19840381D02*
X2321904Y19840381D01*
X2036190Y19840381D02*
X2036190Y20840381D01*
X2036190Y20840381D02*
X2131428Y20697524D01*
X2131428Y20697524D02*
X2226666Y20602286D01*
X2226666Y20602286D02*
X2321904Y20554667D01*
D10*
X15302332Y8276188D02*
X15640999Y8759997D01*
X15882904Y8276188D02*
X15882904Y9292188D01*
X15882904Y9292188D02*
X15495856Y9292188D01*
X15495856Y9292188D02*
X15399094Y9243807D01*
X15399094Y9243807D02*
X15350713Y9195426D01*
X15350713Y9195426D02*
X15302332Y9098664D01*
X15302332Y9098664D02*
X15302332Y8953521D01*
X15302332Y8953521D02*
X15350713Y8856759D01*
X15350713Y8856759D02*
X15399094Y8808378D01*
X15399094Y8808378D02*
X15495856Y8759997D01*
X15495856Y8759997D02*
X15882904Y8759997D01*
X14963666Y9292188D02*
X14286332Y9292188D01*
X14286332Y9292188D02*
X14721761Y8276188D01*
D12*
X11284609Y25224857D02*
X10921752Y25478857D01*
X11284609Y25660286D02*
X10522609Y25660286D01*
X10522609Y25660286D02*
X10522609Y25370000D01*
X10522609Y25370000D02*
X10558895Y25297429D01*
X10558895Y25297429D02*
X10595181Y25261143D01*
X10595181Y25261143D02*
X10667752Y25224857D01*
X10667752Y25224857D02*
X10776609Y25224857D01*
X10776609Y25224857D02*
X10849181Y25261143D01*
X10849181Y25261143D02*
X10885466Y25297429D01*
X10885466Y25297429D02*
X10921752Y25370000D01*
X10921752Y25370000D02*
X10921752Y25660286D01*
X10522609Y24535429D02*
X10522609Y24898286D01*
X10522609Y24898286D02*
X10885466Y24934572D01*
X10885466Y24934572D02*
X10849181Y24898286D01*
X10849181Y24898286D02*
X10812895Y24825714D01*
X10812895Y24825714D02*
X10812895Y24644286D01*
X10812895Y24644286D02*
X10849181Y24571714D01*
X10849181Y24571714D02*
X10885466Y24535429D01*
X10885466Y24535429D02*
X10958038Y24499143D01*
X10958038Y24499143D02*
X11139466Y24499143D01*
X11139466Y24499143D02*
X11212038Y24535429D01*
X11212038Y24535429D02*
X11248324Y24571714D01*
X11248324Y24571714D02*
X11284609Y24644286D01*
X11284609Y24644286D02*
X11284609Y24825714D01*
X11284609Y24825714D02*
X11248324Y24898286D01*
X11248324Y24898286D02*
X11212038Y24934572D01*
X10522609Y23809715D02*
X10522609Y24172572D01*
X10522609Y24172572D02*
X10885466Y24208858D01*
X10885466Y24208858D02*
X10849181Y24172572D01*
X10849181Y24172572D02*
X10812895Y24100000D01*
X10812895Y24100000D02*
X10812895Y23918572D01*
X10812895Y23918572D02*
X10849181Y23846000D01*
X10849181Y23846000D02*
X10885466Y23809715D01*
X10885466Y23809715D02*
X10958038Y23773429D01*
X10958038Y23773429D02*
X11139466Y23773429D01*
X11139466Y23773429D02*
X11212038Y23809715D01*
X11212038Y23809715D02*
X11248324Y23846000D01*
X11248324Y23846000D02*
X11284609Y23918572D01*
X11284609Y23918572D02*
X11284609Y24100000D01*
X11284609Y24100000D02*
X11248324Y24172572D01*
X11248324Y24172572D02*
X11212038Y24208858D01*
X27341038Y60694143D02*
X27377324Y60730429D01*
X27377324Y60730429D02*
X27413609Y60839286D01*
X27413609Y60839286D02*
X27413609Y60911858D01*
X27413609Y60911858D02*
X27377324Y61020715D01*
X27377324Y61020715D02*
X27304752Y61093286D01*
X27304752Y61093286D02*
X27232181Y61129572D01*
X27232181Y61129572D02*
X27087038Y61165858D01*
X27087038Y61165858D02*
X26978181Y61165858D01*
X26978181Y61165858D02*
X26833038Y61129572D01*
X26833038Y61129572D02*
X26760466Y61093286D01*
X26760466Y61093286D02*
X26687895Y61020715D01*
X26687895Y61020715D02*
X26651609Y60911858D01*
X26651609Y60911858D02*
X26651609Y60839286D01*
X26651609Y60839286D02*
X26687895Y60730429D01*
X26687895Y60730429D02*
X26724181Y60694143D01*
X27413609Y60258715D02*
X27377324Y60331286D01*
X27377324Y60331286D02*
X27304752Y60367572D01*
X27304752Y60367572D02*
X26651609Y60367572D01*
X27413609Y59641857D02*
X27014466Y59641857D01*
X27014466Y59641857D02*
X26941895Y59678143D01*
X26941895Y59678143D02*
X26905609Y59750715D01*
X26905609Y59750715D02*
X26905609Y59895857D01*
X26905609Y59895857D02*
X26941895Y59968429D01*
X27377324Y59641857D02*
X27413609Y59714429D01*
X27413609Y59714429D02*
X27413609Y59895857D01*
X27413609Y59895857D02*
X27377324Y59968429D01*
X27377324Y59968429D02*
X27304752Y60004715D01*
X27304752Y60004715D02*
X27232181Y60004715D01*
X27232181Y60004715D02*
X27159609Y59968429D01*
X27159609Y59968429D02*
X27123324Y59895857D01*
X27123324Y59895857D02*
X27123324Y59714429D01*
X27123324Y59714429D02*
X27087038Y59641857D01*
X27377324Y59315286D02*
X27413609Y59242714D01*
X27413609Y59242714D02*
X27413609Y59097571D01*
X27413609Y59097571D02*
X27377324Y59025000D01*
X27377324Y59025000D02*
X27304752Y58988714D01*
X27304752Y58988714D02*
X27268466Y58988714D01*
X27268466Y58988714D02*
X27195895Y59025000D01*
X27195895Y59025000D02*
X27159609Y59097571D01*
X27159609Y59097571D02*
X27159609Y59206428D01*
X27159609Y59206428D02*
X27123324Y59279000D01*
X27123324Y59279000D02*
X27050752Y59315286D01*
X27050752Y59315286D02*
X27014466Y59315286D01*
X27014466Y59315286D02*
X26941895Y59279000D01*
X26941895Y59279000D02*
X26905609Y59206428D01*
X26905609Y59206428D02*
X26905609Y59097571D01*
X26905609Y59097571D02*
X26941895Y59025000D01*
X27377324Y58698429D02*
X27413609Y58625857D01*
X27413609Y58625857D02*
X27413609Y58480714D01*
X27413609Y58480714D02*
X27377324Y58408143D01*
X27377324Y58408143D02*
X27304752Y58371857D01*
X27304752Y58371857D02*
X27268466Y58371857D01*
X27268466Y58371857D02*
X27195895Y58408143D01*
X27195895Y58408143D02*
X27159609Y58480714D01*
X27159609Y58480714D02*
X27159609Y58589571D01*
X27159609Y58589571D02*
X27123324Y58662143D01*
X27123324Y58662143D02*
X27050752Y58698429D01*
X27050752Y58698429D02*
X27014466Y58698429D01*
X27014466Y58698429D02*
X26941895Y58662143D01*
X26941895Y58662143D02*
X26905609Y58589571D01*
X26905609Y58589571D02*
X26905609Y58480714D01*
X26905609Y58480714D02*
X26941895Y58408143D01*
X26905609Y57718714D02*
X27413609Y57718714D01*
X26615324Y57900143D02*
X27159609Y58081572D01*
X27159609Y58081572D02*
X27159609Y57609857D01*
X27486181Y57501000D02*
X27486181Y56920429D01*
X27014466Y56739001D02*
X27014466Y56485001D01*
X27413609Y56376144D02*
X27413609Y56739001D01*
X27413609Y56739001D02*
X26651609Y56739001D01*
X26651609Y56739001D02*
X26651609Y56376144D01*
X27413609Y56049572D02*
X26651609Y56049572D01*
X26651609Y56049572D02*
X27413609Y55614143D01*
X27413609Y55614143D02*
X26651609Y55614143D01*
X27413609Y54852143D02*
X27413609Y55287572D01*
X27413609Y55069857D02*
X26651609Y55069857D01*
X26651609Y55069857D02*
X26760466Y55142429D01*
X26760466Y55142429D02*
X26833038Y55215000D01*
X26833038Y55215000D02*
X26869324Y55287572D01*
X22226856Y54364391D02*
X22480856Y54727248D01*
X22662285Y54364391D02*
X22662285Y55126391D01*
X22662285Y55126391D02*
X22371999Y55126391D01*
X22371999Y55126391D02*
X22299428Y55090105D01*
X22299428Y55090105D02*
X22263142Y55053819D01*
X22263142Y55053819D02*
X22226856Y54981248D01*
X22226856Y54981248D02*
X22226856Y54872391D01*
X22226856Y54872391D02*
X22263142Y54799819D01*
X22263142Y54799819D02*
X22299428Y54763534D01*
X22299428Y54763534D02*
X22371999Y54727248D01*
X22371999Y54727248D02*
X22662285Y54727248D01*
X21537428Y55126391D02*
X21900285Y55126391D01*
X21900285Y55126391D02*
X21936571Y54763534D01*
X21936571Y54763534D02*
X21900285Y54799819D01*
X21900285Y54799819D02*
X21827714Y54836105D01*
X21827714Y54836105D02*
X21646285Y54836105D01*
X21646285Y54836105D02*
X21573714Y54799819D01*
X21573714Y54799819D02*
X21537428Y54763534D01*
X21537428Y54763534D02*
X21501142Y54690962D01*
X21501142Y54690962D02*
X21501142Y54509534D01*
X21501142Y54509534D02*
X21537428Y54436962D01*
X21537428Y54436962D02*
X21573714Y54400676D01*
X21573714Y54400676D02*
X21646285Y54364391D01*
X21646285Y54364391D02*
X21827714Y54364391D01*
X21827714Y54364391D02*
X21900285Y54400676D01*
X21900285Y54400676D02*
X21936571Y54436962D01*
X21247142Y55126391D02*
X20775428Y55126391D01*
X20775428Y55126391D02*
X21029428Y54836105D01*
X21029428Y54836105D02*
X20920571Y54836105D01*
X20920571Y54836105D02*
X20848000Y54799819D01*
X20848000Y54799819D02*
X20811714Y54763534D01*
X20811714Y54763534D02*
X20775428Y54690962D01*
X20775428Y54690962D02*
X20775428Y54509534D01*
X20775428Y54509534D02*
X20811714Y54436962D01*
X20811714Y54436962D02*
X20848000Y54400676D01*
X20848000Y54400676D02*
X20920571Y54364391D01*
X20920571Y54364391D02*
X21138285Y54364391D01*
X21138285Y54364391D02*
X21210857Y54400676D01*
X21210857Y54400676D02*
X21247142Y54436962D01*
D13*
X15353133Y55450288D02*
X15353133Y54730621D01*
X15353133Y54730621D02*
X15310800Y54645955D01*
X15310800Y54645955D02*
X15268466Y54603621D01*
X15268466Y54603621D02*
X15183800Y54561288D01*
X15183800Y54561288D02*
X15014466Y54561288D01*
X15014466Y54561288D02*
X14929800Y54603621D01*
X14929800Y54603621D02*
X14887466Y54645955D01*
X14887466Y54645955D02*
X14845133Y54730621D01*
X14845133Y54730621D02*
X14845133Y55450288D01*
X14379467Y54561288D02*
X14210133Y54561288D01*
X14210133Y54561288D02*
X14125467Y54603621D01*
X14125467Y54603621D02*
X14083133Y54645955D01*
X14083133Y54645955D02*
X13998467Y54772955D01*
X13998467Y54772955D02*
X13956133Y54942288D01*
X13956133Y54942288D02*
X13956133Y55280955D01*
X13956133Y55280955D02*
X13998467Y55365621D01*
X13998467Y55365621D02*
X14040800Y55407955D01*
X14040800Y55407955D02*
X14125467Y55450288D01*
X14125467Y55450288D02*
X14294800Y55450288D01*
X14294800Y55450288D02*
X14379467Y55407955D01*
X14379467Y55407955D02*
X14421800Y55365621D01*
X14421800Y55365621D02*
X14464133Y55280955D01*
X14464133Y55280955D02*
X14464133Y55069288D01*
X14464133Y55069288D02*
X14421800Y54984621D01*
X14421800Y54984621D02*
X14379467Y54942288D01*
X14379467Y54942288D02*
X14294800Y54899955D01*
X14294800Y54899955D02*
X14125467Y54899955D01*
X14125467Y54899955D02*
X14040800Y54942288D01*
X14040800Y54942288D02*
X13998467Y54984621D01*
X13998467Y54984621D02*
X13956133Y55069288D01*
D10*
X14715714Y53370682D02*
X14836666Y53431158D01*
X14836666Y53431158D02*
X14897143Y53491635D01*
X14897143Y53491635D02*
X14957619Y53612587D01*
X14957619Y53612587D02*
X14957619Y53975444D01*
X14957619Y53975444D02*
X14897143Y54096397D01*
X14897143Y54096397D02*
X14836666Y54156873D01*
X14836666Y54156873D02*
X14715714Y54217349D01*
X14715714Y54217349D02*
X14534285Y54217349D01*
X14534285Y54217349D02*
X14413333Y54156873D01*
X14413333Y54156873D02*
X14352857Y54096397D01*
X14352857Y54096397D02*
X14292381Y53975444D01*
X14292381Y53975444D02*
X14292381Y53612587D01*
X14292381Y53612587D02*
X14352857Y53491635D01*
X14352857Y53491635D02*
X14413333Y53431158D01*
X14413333Y53431158D02*
X14534285Y53370682D01*
X14534285Y53370682D02*
X14715714Y53370682D01*
D18*
%TO.C,R40*%
X21927500Y63216000D02*
X21927500Y62708000D01*
X21038500Y63216000D02*
X21038500Y62708000D01*
D10*
%TO.C,EXT2*%
X25674000Y48200000D02*
X25420000Y47946000D01*
X25420000Y48200000D02*
X27960000Y48200000D01*
X25420000Y48200000D02*
X25420000Y47946000D01*
X27960000Y47946000D02*
X27706000Y48200000D01*
X25420000Y47946000D02*
X25420000Y45914000D01*
X27960000Y47692000D02*
X27960000Y48200000D01*
X27960000Y45914000D02*
X27960000Y47692000D01*
X25420000Y45914000D02*
X25674000Y45660000D01*
X27706000Y45660000D02*
X27960000Y45914000D01*
X25674000Y45660000D02*
X25420000Y45406000D01*
X27960000Y45406000D02*
X27706000Y45660000D01*
X25420000Y45406000D02*
X25420000Y43374000D01*
X27960000Y43374000D02*
X27960000Y45406000D01*
X27960000Y43374000D02*
X27706000Y43120000D01*
X25420000Y43374000D02*
X25674000Y43120000D01*
X27706000Y43120000D02*
X27960000Y42866000D01*
X25674000Y43120000D02*
X25420000Y42866000D01*
X25420000Y42866000D02*
X25420000Y40834000D01*
X27960000Y40834000D02*
X27960000Y42866000D01*
X25420000Y40834000D02*
X25674000Y40580000D01*
X27706000Y40580000D02*
X27960000Y40834000D01*
X25674000Y40580000D02*
X25420000Y40326000D01*
X27960000Y40326000D02*
X27706000Y40580000D01*
X25420000Y40326000D02*
X25420000Y38294000D01*
X27960000Y38294000D02*
X27960000Y40326000D01*
X25420000Y38294000D02*
X25674000Y38040000D01*
X27706000Y38040000D02*
X27960000Y38294000D01*
X25674000Y38040000D02*
X25420000Y37786000D01*
X27960000Y37786000D02*
X27706000Y38040000D01*
X25420000Y37786000D02*
X25420000Y35754000D01*
X27960000Y35754000D02*
X27960000Y37786000D01*
X25420000Y35754000D02*
X25674000Y35500000D01*
X27706000Y35500000D02*
X27960000Y35754000D01*
X25674000Y35500000D02*
X25420000Y35246000D01*
X25674000Y35500000D02*
X25420000Y35246000D01*
X27960000Y35246000D02*
X27706000Y35500000D01*
X27960000Y35246000D02*
X27706000Y35500000D01*
X25420000Y35246000D02*
X25420000Y33214000D01*
X25420000Y35246000D02*
X25420000Y33214000D01*
X27960000Y33214000D02*
X27960000Y35246000D01*
X27960000Y33214000D02*
X27960000Y35246000D01*
X25420000Y33214000D02*
X25674000Y32960000D01*
X25420000Y33214000D02*
X25674000Y32960000D01*
X27706000Y32960000D02*
X27960000Y33214000D01*
X27706000Y32960000D02*
X27960000Y33214000D01*
X25674000Y32960000D02*
X25420000Y32706000D01*
X27960000Y32706000D02*
X27706000Y32960000D01*
X25420000Y32706000D02*
X25420000Y30674000D01*
X27960000Y30674000D02*
X27960000Y32706000D01*
X25420000Y30674000D02*
X25674000Y30420000D01*
X27706000Y30420000D02*
X27960000Y30674000D01*
X25674000Y30420000D02*
X25420000Y30166000D01*
X25674000Y30420000D02*
X25420000Y30166000D01*
X27960000Y30166000D02*
X27706000Y30420000D01*
X27960000Y30166000D02*
X27706000Y30420000D01*
X25420000Y30166000D02*
X25420000Y28134000D01*
X25420000Y30166000D02*
X25420000Y28134000D01*
X27960000Y28134000D02*
X27960000Y30166000D01*
X27960000Y28134000D02*
X27960000Y30166000D01*
X25420000Y28134000D02*
X25674000Y27880000D01*
X25420000Y28134000D02*
X25674000Y27880000D01*
X27706000Y27880000D02*
X27960000Y28134000D01*
X27706000Y27880000D02*
X27960000Y28134000D01*
X25674000Y27880000D02*
X25420000Y27626000D01*
X27960000Y27626000D02*
X27706000Y27880000D01*
X25420000Y27626000D02*
X25420000Y25594000D01*
X27960000Y25594000D02*
X27960000Y27626000D01*
X25420000Y25594000D02*
X25674000Y25340000D01*
X27706000Y25340000D02*
X27960000Y25594000D01*
X25674000Y25340000D02*
X25420000Y25086000D01*
X25674000Y25340000D02*
X25420000Y25086000D01*
X27960000Y25086000D02*
X27706000Y25340000D01*
X27960000Y25086000D02*
X27706000Y25340000D01*
X25420000Y25086000D02*
X25420000Y23054000D01*
X25420000Y25086000D02*
X25420000Y23054000D01*
X27960000Y23054000D02*
X27960000Y25086000D01*
X27960000Y23054000D02*
X27960000Y25086000D01*
X25420000Y23054000D02*
X25674000Y22800000D01*
X25420000Y23054000D02*
X25674000Y22800000D01*
X27706000Y22800000D02*
X27960000Y23054000D01*
X27706000Y22800000D02*
X27960000Y23054000D01*
X25674000Y22800000D02*
X27706000Y22800000D01*
D18*
%TO.C,R1*%
X1036000Y49436500D02*
X1544000Y49436500D01*
X1036000Y48547500D02*
X1544000Y48547500D01*
D10*
%TO.C,RM1*%
X19273200Y30424600D02*
X16326800Y30424600D01*
X16326800Y30424600D02*
X16326800Y30208700D01*
X19273200Y30234100D02*
X19273200Y30424600D01*
X19273200Y26436800D02*
X19273200Y26614600D01*
X19273200Y26424100D02*
X16326800Y26424100D01*
X16326800Y26411400D02*
X16326800Y26627300D01*
%TO.C,MICRO_SD1*%
X9990000Y61113000D02*
X17990000Y61113000D01*
X8365000Y67113000D02*
X19615000Y67113000D01*
%TO.C,C3*%
X14498000Y58771000D02*
X13482000Y58771000D01*
X14498000Y60803000D02*
X13482000Y60803000D01*
%TO.C,RM2*%
X8046400Y59990200D02*
X8262300Y59990200D01*
X8059100Y57043800D02*
X8059100Y59990200D01*
X8071800Y57043800D02*
X8249600Y57043800D01*
X11869100Y57043800D02*
X12059600Y57043800D01*
X12059600Y59990200D02*
X11843700Y59990200D01*
X12059600Y57043800D02*
X12059600Y59990200D01*
D18*
%TO.C,R46*%
X1988500Y65121000D02*
X1988500Y65629000D01*
X2877500Y65121000D02*
X2877500Y65629000D01*
D10*
%TO.C,EXT1*%
X274000Y48200000D02*
X20000Y47946000D01*
X20000Y48200000D02*
X2560000Y48200000D01*
X20000Y48200000D02*
X20000Y47946000D01*
X2560000Y47946000D02*
X2306000Y48200000D01*
X20000Y47946000D02*
X20000Y45914000D01*
X2560000Y47692000D02*
X2560000Y48200000D01*
X2560000Y45914000D02*
X2560000Y47692000D01*
X20000Y45914000D02*
X274000Y45660000D01*
X2306000Y45660000D02*
X2560000Y45914000D01*
X274000Y45660000D02*
X20000Y45406000D01*
X2560000Y45406000D02*
X2306000Y45660000D01*
X20000Y45406000D02*
X20000Y43374000D01*
X2560000Y43374000D02*
X2560000Y45406000D01*
X2560000Y43374000D02*
X2306000Y43120000D01*
X20000Y43374000D02*
X274000Y43120000D01*
X2306000Y43120000D02*
X2560000Y42866000D01*
X274000Y43120000D02*
X20000Y42866000D01*
X20000Y42866000D02*
X20000Y40834000D01*
X2560000Y40834000D02*
X2560000Y42866000D01*
X20000Y40834000D02*
X274000Y40580000D01*
X2306000Y40580000D02*
X2560000Y40834000D01*
X274000Y40580000D02*
X20000Y40326000D01*
X2560000Y40326000D02*
X2306000Y40580000D01*
X20000Y40326000D02*
X20000Y38294000D01*
X2560000Y38294000D02*
X2560000Y40326000D01*
X20000Y38294000D02*
X274000Y38040000D01*
X2306000Y38040000D02*
X2560000Y38294000D01*
X274000Y38040000D02*
X20000Y37786000D01*
X2560000Y37786000D02*
X2306000Y38040000D01*
X20000Y37786000D02*
X20000Y35754000D01*
X2560000Y35754000D02*
X2560000Y37786000D01*
X20000Y35754000D02*
X274000Y35500000D01*
X2306000Y35500000D02*
X2560000Y35754000D01*
X274000Y35500000D02*
X20000Y35246000D01*
X274000Y35500000D02*
X20000Y35246000D01*
X2560000Y35246000D02*
X2306000Y35500000D01*
X2560000Y35246000D02*
X2306000Y35500000D01*
X20000Y35246000D02*
X20000Y33214000D01*
X20000Y35246000D02*
X20000Y33214000D01*
X2560000Y33214000D02*
X2560000Y35246000D01*
X2560000Y33214000D02*
X2560000Y35246000D01*
X20000Y33214000D02*
X274000Y32960000D01*
X20000Y33214000D02*
X274000Y32960000D01*
X2306000Y32960000D02*
X2560000Y33214000D01*
X2306000Y32960000D02*
X2560000Y33214000D01*
X274000Y32960000D02*
X20000Y32706000D01*
X2560000Y32706000D02*
X2306000Y32960000D01*
X20000Y32706000D02*
X20000Y30674000D01*
X2560000Y30674000D02*
X2560000Y32706000D01*
X20000Y30674000D02*
X274000Y30420000D01*
X2306000Y30420000D02*
X2560000Y30674000D01*
X274000Y30420000D02*
X20000Y30166000D01*
X274000Y30420000D02*
X20000Y30166000D01*
X2560000Y30166000D02*
X2306000Y30420000D01*
X2560000Y30166000D02*
X2306000Y30420000D01*
X20000Y30166000D02*
X20000Y28134000D01*
X20000Y30166000D02*
X20000Y28134000D01*
X2560000Y28134000D02*
X2560000Y30166000D01*
X2560000Y28134000D02*
X2560000Y30166000D01*
X20000Y28134000D02*
X274000Y27880000D01*
X20000Y28134000D02*
X274000Y27880000D01*
X2306000Y27880000D02*
X2560000Y28134000D01*
X2306000Y27880000D02*
X2560000Y28134000D01*
X274000Y27880000D02*
X20000Y27626000D01*
X2560000Y27626000D02*
X2306000Y27880000D01*
X20000Y27626000D02*
X20000Y25594000D01*
X2560000Y25594000D02*
X2560000Y27626000D01*
X20000Y25594000D02*
X274000Y25340000D01*
X2306000Y25340000D02*
X2560000Y25594000D01*
X274000Y25340000D02*
X20000Y25086000D01*
X274000Y25340000D02*
X20000Y25086000D01*
X2560000Y25086000D02*
X2306000Y25340000D01*
X2560000Y25086000D02*
X2306000Y25340000D01*
X20000Y25086000D02*
X20000Y23054000D01*
X20000Y25086000D02*
X20000Y23054000D01*
X2560000Y23054000D02*
X2560000Y25086000D01*
X2560000Y23054000D02*
X2560000Y25086000D01*
X20000Y23054000D02*
X274000Y22800000D01*
X20000Y23054000D02*
X274000Y22800000D01*
X2306000Y22800000D02*
X2560000Y23054000D01*
X2306000Y22800000D02*
X2560000Y23054000D01*
X274000Y22800000D02*
X2306000Y22800000D01*
%TO.C,FET3*%
X13913800Y28291000D02*
X13202600Y28291000D01*
X16047400Y28291000D02*
X15336200Y28291000D01*
X13202600Y29129200D02*
X13202600Y28291000D01*
X16047400Y29129200D02*
X16047400Y28291000D01*
%TO.C,C9*%
X14244000Y26894000D02*
X15260000Y26894000D01*
X14244000Y25370000D02*
X15260000Y25370000D01*
D18*
%TO.C,C15*%
X22689500Y17242000D02*
X22689500Y17750000D01*
X23578500Y17242000D02*
X23578500Y17750000D01*
%TO.C,C16*%
X13228000Y18956500D02*
X12720000Y18956500D01*
X13228000Y19845500D02*
X12720000Y19845500D01*
%TO.C,C18*%
X16403000Y22766500D02*
X15895000Y22766500D01*
X16403000Y23655500D02*
X15895000Y23655500D01*
D10*
%TO.C,C17*%
X16784000Y23846000D02*
X15768000Y23846000D01*
X16784000Y25370000D02*
X15768000Y25370000D01*
%TO.C,L1*%
X14574200Y21560000D02*
X15412400Y21560000D01*
X14574200Y19782000D02*
X15412400Y19782000D01*
%TO.C,C1*%
X6624000Y7717000D02*
X7640000Y7717000D01*
X6624000Y6193000D02*
X7640000Y6193000D01*
%TO.C,L3*%
X3906200Y13432000D02*
X4744400Y13432000D01*
X3906200Y11654000D02*
X4744400Y11654000D01*
D18*
%TO.C,R6*%
X6370000Y6129500D02*
X6878000Y6129500D01*
X6370000Y5240500D02*
X6878000Y5240500D01*
%TO.C,R22*%
X909000Y2319500D02*
X1417000Y2319500D01*
X909000Y1430500D02*
X1417000Y1430500D01*
%TO.C,C19*%
X909000Y1303500D02*
X1417000Y1303500D01*
X909000Y414500D02*
X1417000Y414500D01*
D19*
%TO.C,BAT_SENS_E1*%
X401000Y4973800D02*
X1163000Y4973800D01*
X1340800Y4796000D02*
X1340800Y3526000D01*
X223200Y3526000D02*
X223200Y4796000D01*
X1163000Y3348200D02*
X401000Y3348200D01*
X1340801Y4770601D02*
G75*
G03*
X1137601Y4973801I-177800J25400D01*
G01*
X426399Y4973801D02*
G75*
G03*
X223199Y4770601I-25400J-177800D01*
G01*
X1137600Y3348200D02*
G75*
G03*
X1340800Y3551400I25400J177800D01*
G01*
X223200Y3551400D02*
G75*
G03*
X426400Y3348200I177800J-25400D01*
G01*
D10*
%TO.C,Sign_Antistatic*%
X11450000Y49434500D02*
X4338000Y49434500D01*
X9672000Y52927000D02*
X4338000Y49434500D01*
X9608500Y51911000D02*
X9608500Y50831500D01*
X9227500Y50704500D02*
X9291000Y50704500D01*
X9227500Y50704500D02*
X9227500Y51720500D01*
X9164000Y50514000D02*
X9164000Y50641000D01*
X8656000Y50514000D02*
X8503600Y50514000D01*
X7894000Y56546500D02*
X11450000Y49434500D01*
X7297100Y52990500D02*
X6116000Y52990500D01*
X6116000Y52990500D02*
X7894000Y56546500D01*
X5671500Y52101500D02*
X6116000Y52990500D01*
X5671500Y52101500D02*
X5989000Y52101500D01*
X4338000Y49434500D02*
X5671500Y52101500D01*
X9227500Y50450500D02*
G75*
G03*
X9608500Y50831500I0J381000D01*
G01*
X9608521Y51911000D02*
G75*
G03*
X9419048Y52226925I-358121J0D01*
G01*
X9100489Y52545993D02*
G75*
G03*
X9416549Y52228359I795011J475007D01*
G01*
X9418000Y50577500D02*
G75*
G03*
X9291000Y50704500I-127000J0D01*
G01*
X8529015Y52165010D02*
G75*
G03*
X9225935Y51718656I850885J561290D01*
G01*
X9163959Y50514002D02*
G75*
G03*
X9225071Y50447956I63541J-2502D01*
G01*
X9227500Y50704500D02*
G75*
G03*
X9164000Y50641000I0J-63500D01*
G01*
X8656000Y50514001D02*
G75*
G03*
X8782966Y50640900I-63500J190499D01*
G01*
X8782999Y50641000D02*
G75*
G03*
X8782067Y50957826I-317499J157480D01*
G01*
X8465500Y50514000D02*
G75*
G03*
X7893915Y51274535I-855980J-48260D01*
G01*
X8783000Y50958500D02*
G75*
G03*
X7831708Y51719334I-1236980J-571500D01*
G01*
X9100500Y52546000D02*
G75*
G03*
X7513721Y53053821I-1120140J-767080D01*
G01*
X7297098Y52990485D02*
G75*
G03*
X7512916Y53052386I33002J292115D01*
G01*
X7893998Y51275995D02*
G75*
G03*
X7454275Y51402005I-1264998J-3584095D01*
G01*
X6497016Y51911013D02*
G75*
G03*
X7319462Y51464924I970284J807687D01*
G01*
X6496995Y51910996D02*
G75*
G03*
X5988301Y52101026I-444495J-413996D01*
G01*
D20*
%TO.C,Sign_RecycleBin*%
X19339500Y33040000D02*
X19339500Y33802000D01*
X19339500Y33802000D02*
X14767500Y33802000D01*
X19288700Y33141600D02*
X14869100Y33141600D01*
X19288700Y33446400D02*
X14818300Y33446400D01*
X19288700Y33598800D02*
X14869100Y33598800D01*
X19288700Y33649600D02*
X14818300Y33649600D01*
D10*
X19133500Y38578000D02*
X14942500Y34387000D01*
X19006500Y34514000D02*
X14942500Y38451000D01*
X18498500Y38070000D02*
X15577500Y38070000D01*
X17990500Y34514000D02*
X17482500Y34514000D01*
X17990500Y34895000D02*
X18244500Y37943000D01*
X17990500Y34895000D02*
X17990500Y34514000D01*
X17990500Y34895000D02*
X16593500Y34895000D01*
X17990500Y38197000D02*
X17990500Y38705000D01*
X17990500Y38705000D02*
X17863500Y38705000D01*
X17863500Y38705000D02*
X17863500Y38197000D01*
X17482500Y34514000D02*
X17482500Y34768000D01*
X17228500Y37181000D02*
X17228500Y37562000D01*
X17228500Y37562000D02*
X16339500Y37562000D01*
X17228500Y38832000D02*
X16847500Y38832000D01*
X17228500Y38959000D02*
X17228500Y38832000D01*
X17101500Y37435000D02*
X16466500Y37435000D01*
X16847500Y38832000D02*
X16847500Y38959000D01*
X16847500Y38959000D02*
X17228500Y38959000D01*
X16339500Y37181000D02*
X17228500Y37181000D01*
X16339500Y37562000D02*
X16339500Y37181000D01*
X16085500Y35403000D02*
X15958500Y37435000D01*
X15958500Y37562000D02*
X15577500Y37562000D01*
X15958500Y38070000D02*
X15958500Y37562000D01*
X15831500Y37562000D02*
X15831500Y37943000D01*
X15831500Y37943000D02*
X15831500Y37816000D01*
X15831500Y37943000D02*
X15831500Y37816000D01*
X15831500Y37943000D02*
X15704500Y37943000D01*
X15831500Y38070000D02*
X15704500Y37689000D01*
X15704500Y37943000D02*
X15704500Y37562000D01*
X15577500Y37562000D02*
X15577500Y38070000D01*
D20*
X14869100Y33243200D02*
X19237900Y33243200D01*
X14818300Y33344800D02*
X19237900Y33344800D01*
X14818300Y33497200D02*
X19237900Y33497200D01*
X14818300Y33751200D02*
X19237900Y33751200D01*
X14767500Y33040000D02*
X19339500Y33040000D01*
X14767500Y33802000D02*
X14767500Y33040000D01*
D10*
X18244500Y38197000D02*
G75*
G03*
X15958500Y38197000I-1143000J-1143000D01*
G01*
D21*
X16212500Y34895000D02*
G75*
G03*
X16212500Y34895000I-127000J0D01*
G01*
D10*
X16487109Y34895000D02*
G75*
G03*
X16487109Y34895000I-401609J0D01*
G01*
D22*
%TO.C,Sign_PB-Free*%
X16385220Y41351680D02*
X18818540Y43772300D01*
D10*
X19348237Y42515000D02*
G75*
G03*
X19348237Y42515000I-1802237J0D01*
G01*
D20*
%TO.C,Logo_OSHW*%
X22280560Y73688420D02*
X22077360Y72517480D01*
X23276240Y73685880D02*
X23471820Y72614000D01*
X22283100Y73685880D02*
X23268620Y73685880D01*
D23*
X22374540Y73548720D02*
X22194200Y72530180D01*
X23164480Y73546180D02*
X23382920Y72596220D01*
D20*
X22526940Y73536020D02*
X22280560Y72420960D01*
D24*
X22387240Y73536020D02*
X23174640Y73541100D01*
D20*
X22471060Y73393780D02*
X23121300Y73393780D01*
D25*
X22768240Y73078820D02*
X22707280Y71661500D01*
D20*
X25183780Y72923880D02*
X24320180Y72326980D01*
X20362860Y72901020D02*
X19649120Y72227920D01*
X20398420Y72880700D02*
X21251860Y72286340D01*
D24*
X25166000Y72758780D02*
X25704480Y72194900D01*
D23*
X25166000Y72743540D02*
X24332880Y72210140D01*
D24*
X20367940Y72738460D02*
X19834540Y72238080D01*
D23*
X20390800Y72728300D02*
X21241700Y72172040D01*
D20*
X22082440Y72619080D02*
X21249320Y72283800D01*
D23*
X23405780Y72568280D02*
X24289700Y72210140D01*
X22158640Y72499700D02*
X21292500Y72151720D01*
D25*
X23255920Y72281260D02*
X23128920Y71575140D01*
D20*
X19910740Y72245700D02*
X20632100Y71361780D01*
X19646580Y72215220D02*
X20362860Y71244940D01*
X25879740Y72194900D02*
X25186320Y72916260D01*
D23*
X19809140Y72189820D02*
X20461920Y71361780D01*
D26*
X25704480Y72182200D02*
X25173620Y71402420D01*
D25*
X20482240Y72093300D02*
X21589680Y71031580D01*
X24972960Y72042500D02*
X23951880Y71189060D01*
X23901080Y72032340D02*
X23421020Y71468460D01*
D20*
X21259480Y72006940D02*
X22257700Y72393020D01*
X21264560Y72001860D02*
X20355240Y72603840D01*
D25*
X22011320Y71956140D02*
X22171340Y71514180D01*
X21531260Y71780880D02*
X21820820Y71323680D01*
D23*
X25155840Y71392260D02*
X25361580Y71074760D01*
D25*
X24800240Y71366860D02*
X24038240Y71001100D01*
D20*
X25308240Y71361780D02*
X25872120Y72187280D01*
X20629560Y71356700D02*
X20136800Y70373720D01*
X25318400Y71349080D02*
X25539380Y71003640D01*
D23*
X20451760Y71300820D02*
X20045360Y70455000D01*
D20*
X20294280Y71280500D02*
X19915820Y70376260D01*
X22488840Y71270340D02*
X23311800Y71138260D01*
X23342280Y71133180D02*
X23512460Y71039200D01*
X23342280Y71133180D02*
X23512460Y71039200D01*
D27*
X25341260Y71046820D02*
X23918860Y70495640D01*
D20*
X23542940Y71026500D02*
X23809640Y70719160D01*
X25521600Y70965540D02*
X23852820Y70315300D01*
X23563260Y70909660D02*
X23901080Y70650580D01*
X21752240Y70846160D02*
X22483760Y71265260D01*
D25*
X20754020Y70782660D02*
X21112160Y70607400D01*
D20*
X23677560Y70541360D02*
X23852820Y70315300D01*
D25*
X20494940Y70348320D02*
X21104540Y70180680D01*
D20*
X18899820Y70292440D02*
X19925980Y70493100D01*
X18892200Y70282280D02*
X18892200Y69317080D01*
D23*
X18998880Y70203540D02*
X18998880Y69418680D01*
X19011580Y70195920D02*
X20025040Y70401660D01*
D20*
X21322980Y69974940D02*
X21752240Y70846160D01*
D25*
X19506880Y69832700D02*
X21020720Y69827620D01*
D23*
X19019200Y69436460D02*
X20037740Y69223100D01*
D20*
X18892200Y69317080D02*
X20063140Y69091020D01*
D23*
X20037740Y69223100D02*
X20487320Y68321400D01*
D20*
X24134760Y69177380D02*
X23850280Y69299300D01*
X21490620Y69159600D02*
X21330600Y69974940D01*
X19981860Y69101180D02*
X20319680Y68296000D01*
D25*
X20510180Y69083400D02*
X21195980Y69304380D01*
D20*
X23680100Y69040220D02*
X23845200Y69294220D01*
X23873140Y69017360D02*
X25254900Y68489040D01*
X23931560Y68974180D02*
X23809640Y68796380D01*
X23809640Y68796380D02*
X23098440Y68420460D01*
D25*
X24038240Y68656680D02*
X25051700Y67475580D01*
X23946800Y68656680D02*
X24678320Y68323940D01*
D20*
X21919880Y68649060D02*
X21490620Y69159600D01*
X25552080Y68626200D02*
X24571640Y69012280D01*
D23*
X25338720Y68588100D02*
X23898540Y69162140D01*
D25*
X23901080Y68542380D02*
X24228740Y67925160D01*
X20761640Y68496660D02*
X21348380Y68915760D01*
D20*
X23098440Y68420460D02*
X22580280Y68420460D01*
X22592980Y68415380D02*
X21919880Y68649060D01*
X20367940Y68415380D02*
X19694840Y67404460D01*
D23*
X20482240Y68308700D02*
X19847800Y67404460D01*
D20*
X25252360Y68278220D02*
X25872120Y67401920D01*
D23*
X25153300Y68250280D02*
X25338720Y68588100D01*
D25*
X23481980Y68222340D02*
X23588660Y67612740D01*
D20*
X25224420Y68097880D02*
X25552080Y68626200D01*
D25*
X21630320Y67627980D02*
X21996080Y68283300D01*
X20563520Y67567020D02*
X21630320Y68679540D01*
D23*
X21188360Y67467960D02*
X22125620Y67127600D01*
X24271920Y67465420D02*
X25158380Y66845660D01*
X25719720Y67414620D02*
X25153300Y68250280D01*
D20*
X25557160Y67414620D02*
X25028840Y68235040D01*
D23*
X19849780Y67404460D02*
X20395880Y66850740D01*
X25712100Y67399380D02*
X25166000Y66845660D01*
D20*
X19692300Y67399380D02*
X20383180Y66705960D01*
X25867040Y67391760D02*
X25176160Y66708500D01*
D25*
X22323740Y67386680D02*
X22471060Y68108040D01*
D20*
X21272180Y67315560D02*
X22140860Y66949800D01*
D23*
X22125620Y67127600D02*
X22354220Y66045560D01*
D20*
X23489600Y67066640D02*
X23278780Y65943960D01*
D23*
X23360060Y67059020D02*
X24271920Y67465420D01*
D20*
X25092340Y66995520D02*
X25623200Y67480660D01*
X23456580Y66962500D02*
X24437020Y67343500D01*
D23*
X20398420Y66850740D02*
X21188360Y67467960D01*
D20*
X20390800Y66700880D02*
X21381400Y67404460D01*
D25*
X22747920Y66576420D02*
X22834280Y68044540D01*
D23*
X23189880Y66045560D02*
X23360060Y67059020D01*
X22354220Y66045560D02*
X23189880Y66045560D01*
D20*
X23042560Y66012540D02*
X23266080Y67119980D01*
X22300880Y65928720D02*
X23258460Y65931260D01*
D23*
X23728360Y70645500D02*
G75*
G03*
X21874160Y70721700I-965200J-889000D01*
G01*
X22031640Y68781140D02*
G75*
G03*
X23896000Y69151980I746760J1117599D01*
G01*
X21848760Y70696300D02*
G75*
G03*
X22046880Y68770980I1061719J-863600D01*
G01*
D10*
%TO.C,C2*%
X9672000Y11781000D02*
X8148000Y11781000D01*
X9672000Y9495000D02*
X8148000Y9495000D01*
%TO.C,C7*%
X7640000Y17369000D02*
X6624000Y17369000D01*
X7640000Y18893000D02*
X6624000Y18893000D01*
%TO.C,D8*%
X27405000Y16186000D02*
X27405000Y11186000D01*
X24705000Y14816000D02*
X27405000Y14816000D01*
X24705000Y14376000D02*
X27405000Y14376000D01*
X24705000Y11186000D02*
X24705000Y16186000D01*
D18*
%TO.C,R14*%
X24531000Y18448500D02*
X25039000Y18448500D01*
X24531000Y17559500D02*
X25039000Y17559500D01*
D10*
%TO.C,Q2*%
X9491660Y44968640D02*
X10202860Y44968640D01*
X7358060Y44968640D02*
X8069260Y44968640D01*
X10202860Y44130440D02*
X10202860Y44968640D01*
X7358060Y44130440D02*
X7358060Y44968640D01*
%TO.C,D1*%
X6450000Y43999000D02*
X6450000Y38999000D01*
X3750000Y42629000D02*
X6450000Y42629000D01*
X3750000Y42189000D02*
X6450000Y42189000D01*
X3750000Y38999000D02*
X3750000Y43999000D01*
%TO.C,C10*%
X15133000Y31212000D02*
X14117000Y31212000D01*
X15133000Y32736000D02*
X14117000Y32736000D01*
D18*
%TO.C,R21*%
X8656000Y42324500D02*
X9164000Y42324500D01*
X8656000Y41435500D02*
X9164000Y41435500D01*
D10*
%TO.C,Q3*%
X12796200Y42134000D02*
X13507400Y42134000D01*
X10662600Y42134000D02*
X11373800Y42134000D01*
X13507400Y41295800D02*
X13507400Y42134000D01*
X10662600Y41295800D02*
X10662600Y42134000D01*
D18*
%TO.C,R35*%
X14561500Y49754000D02*
X14561500Y49246000D01*
X13672500Y49754000D02*
X13672500Y49246000D01*
%TO.C,R15*%
X25864500Y18131000D02*
X25864500Y18639000D01*
X26753500Y18131000D02*
X26753500Y18639000D01*
%TO.C,C8*%
X11259500Y20163000D02*
X11259500Y19655000D01*
X10370500Y20163000D02*
X10370500Y19655000D01*
%TO.C,R16*%
X3703000Y32164500D02*
X4211000Y32164500D01*
X3703000Y31275500D02*
X4211000Y31275500D01*
D28*
%TO.C,Logo_Olimex*%
X22499000Y76322400D02*
X21914800Y75750900D01*
X22499000Y78290900D02*
X22499000Y78049600D01*
X22499000Y78341700D02*
X21991000Y78849700D01*
X22486300Y76309700D02*
X22486300Y77071700D01*
X21927500Y75750900D02*
X20886100Y75750900D01*
X20898800Y78925900D02*
X20263800Y78316300D01*
X20898800Y78938600D02*
X21902100Y78938600D01*
X20289200Y76360500D02*
X20848000Y75776300D01*
X20276500Y78329000D02*
X20276500Y76398600D01*
D29*
X19425600Y79281500D02*
X19425600Y76131900D01*
X19412900Y79281500D02*
X19425600Y79281500D01*
X19400200Y79281500D02*
X19412900Y79281500D01*
X19285900Y79192600D02*
X19349400Y79205300D01*
D28*
X19120800Y76208100D02*
X19120800Y78938600D01*
D29*
X19120800Y79281500D02*
X19400200Y79281500D01*
X19108100Y79281500D02*
X18803300Y79281500D01*
X18981100Y79205300D02*
X18866800Y79205300D01*
X18803300Y79281500D02*
X18803300Y76246200D01*
D28*
X18663600Y75763600D02*
X19120800Y76220800D01*
X17677800Y75763600D02*
X18663600Y75763600D01*
D29*
X17482500Y76576400D02*
X16872900Y76576400D01*
X17482500Y78595700D02*
X17482500Y76576400D01*
X17342800Y76639900D02*
X17406300Y76639900D01*
D28*
X17165000Y78481400D02*
X17165000Y76881200D01*
D29*
X16999900Y76639900D02*
X16911000Y76639900D01*
X16872900Y76576400D02*
X16847500Y76576400D01*
X16847500Y76576400D02*
X16847500Y78595700D01*
X16263300Y76233500D02*
X16263300Y79218000D01*
X16263300Y79230700D02*
X15018700Y79230700D01*
X16110900Y79167200D02*
X16187100Y79167200D01*
D28*
X15945800Y76322400D02*
X15945800Y78913200D01*
X15945800Y78913200D02*
X15107600Y78913200D01*
X15107600Y78913200D02*
X14498000Y78405200D01*
D29*
X15018700Y79230700D02*
X14434500Y78748100D01*
D28*
X14396400Y77617800D02*
X14396400Y78329000D01*
X14320200Y78405200D02*
X13685200Y78913200D01*
D29*
X13774100Y79230700D02*
X14396400Y78735400D01*
X13748700Y79230700D02*
X13774100Y79230700D01*
D28*
X13685200Y78913200D02*
X12796200Y78913200D01*
X12783500Y78925900D02*
X12783500Y76322400D01*
D29*
X12605700Y79154500D02*
X12504100Y79154500D01*
X12453300Y76208100D02*
X12453300Y79218000D01*
X12453300Y79218000D02*
X12453300Y79230700D01*
X12453300Y79230700D02*
X13748700Y79230700D01*
D28*
X11526200Y76195400D02*
X11094400Y75763600D01*
X11526200Y78430600D02*
X11526200Y76195400D01*
X11526200Y78456000D02*
X11043600Y78964000D01*
X11094400Y75763600D02*
X9773600Y75763600D01*
D29*
X11081700Y79268800D02*
X9710100Y79268800D01*
D28*
X10995500Y78938600D02*
X9773600Y78938600D01*
X10307000Y77363800D02*
X11526200Y77363800D01*
X9773600Y75763600D02*
X8630600Y76881200D01*
X9773600Y78938600D02*
X8681400Y77871800D01*
D29*
X9710100Y79268800D02*
X9659300Y79268800D01*
X9659300Y79268800D02*
X8402000Y78024200D01*
D30*
X8656000Y77757500D02*
X8097200Y77757500D01*
X8630600Y76982800D02*
X8097200Y76982800D01*
D28*
X7284400Y76068400D02*
X8122600Y76881200D01*
X7233600Y78748100D02*
X8097200Y77854400D01*
D26*
X22823747Y77567000D02*
G75*
G03*
X22823747Y77567000I-337447J0D01*
G01*
X17531324Y75789000D02*
G75*
G03*
X17531324Y75789000I-366324J0D01*
G01*
X17525818Y79014800D02*
G75*
G03*
X17525818Y79014800I-373518J0D01*
G01*
X16292759Y75814400D02*
G75*
G03*
X16292759Y75814400I-359659J0D01*
G01*
X14767318Y77084400D02*
G75*
G03*
X14767318Y77084400I-370918J0D01*
G01*
X13146729Y75801700D02*
G75*
G03*
X13146729Y75801700I-363229J0D01*
G01*
X10158659Y77363800D02*
G75*
G03*
X10158659Y77363800I-359659J0D01*
G01*
X7283666Y75712800D02*
G75*
G03*
X7283666Y75712800I-329466J0D01*
G01*
X7224735Y79103700D02*
G75*
G03*
X7224735Y79103700I-359435J0D01*
G01*
D10*
%TO.C,D4*%
X12034200Y52294000D02*
X13939200Y52294000D01*
X12034200Y52471800D02*
X12034200Y52294000D01*
X12034200Y52471800D02*
X13939200Y52471800D01*
X12948600Y52471800D02*
X13939200Y53843400D01*
X13939200Y52471800D02*
X13939200Y52294000D01*
X12847000Y52929000D02*
X13228000Y52929000D01*
X12720000Y53056000D02*
X13355000Y53056000D01*
X12593000Y53183000D02*
X13355000Y53183000D01*
X12593000Y53310000D02*
X13482000Y53310000D01*
X13482000Y53437000D02*
X12339000Y53437000D01*
X12339000Y53564000D02*
X13609000Y53564000D01*
X13736000Y53691000D02*
X12212000Y53691000D01*
X12034200Y53843400D02*
X12948600Y52471800D01*
X12034200Y53843400D02*
X13939200Y53843400D01*
X12986700Y54326000D02*
X12986700Y52040000D01*
D18*
%TO.C,R18*%
X8275000Y24036500D02*
X7767000Y24036500D01*
X8275000Y24925500D02*
X7767000Y24925500D01*
%TO.C,R19*%
X4211000Y30132500D02*
X3703000Y30132500D01*
X4211000Y31021500D02*
X3703000Y31021500D01*
%TO.C,C14*%
X20403500Y25624000D02*
X20403500Y26132000D01*
X21292500Y25624000D02*
X21292500Y26132000D01*
%TO.C,R41*%
X22181500Y26132000D02*
X22181500Y25624000D01*
X21292500Y26132000D02*
X21292500Y25624000D01*
%TO.C,TVS2*%
X21991000Y15908500D02*
X21483000Y15908500D01*
X21991000Y16797500D02*
X21483000Y16797500D01*
%TO.C,TVS3*%
X19578000Y16797500D02*
X20086000Y16797500D01*
X19578000Y15908500D02*
X20086000Y15908500D01*
D10*
%TO.C,TVS1*%
X16834800Y15131300D02*
X15704500Y15131300D01*
X16834800Y17938000D02*
X15704500Y17938000D01*
D22*
%TO.C,U4*%
X17871873Y18407860D02*
G75*
G03*
X17871873Y18407860I-176013J0D01*
G01*
D10*
X23093360Y23805360D02*
X23093360Y23404040D01*
X22692040Y23805360D02*
X23093360Y23805360D01*
X18094640Y23805360D02*
X18495960Y23805360D01*
X18094640Y23404040D02*
X18094640Y23805360D01*
X23093360Y19207960D02*
X23093360Y18806640D01*
X18094640Y18981900D02*
X18094640Y19207960D01*
X23093360Y18806640D02*
X22692040Y18806640D01*
X18495960Y18806640D02*
X18269900Y18806640D01*
X18269900Y18806640D02*
X18094640Y18981900D01*
D18*
%TO.C,R26*%
X16544086Y18504296D02*
X16184876Y18863506D01*
X17172704Y19132914D02*
X16813494Y19492124D01*
D10*
%TO.C,C13*%
X12339000Y17242000D02*
X11323000Y17242000D01*
X12339000Y18766000D02*
X11323000Y18766000D01*
%TO.C,D6*%
X6497000Y27732200D02*
X6497000Y29637200D01*
X6319200Y27732200D02*
X6497000Y27732200D01*
X6319200Y27732200D02*
X6319200Y29637200D01*
X6319200Y28646600D02*
X4947600Y29637200D01*
X6319200Y29637200D02*
X6497000Y29637200D01*
X5862000Y28545000D02*
X5862000Y28926000D01*
X5735000Y28418000D02*
X5735000Y29053000D01*
X5608000Y28291000D02*
X5608000Y29053000D01*
X5481000Y28291000D02*
X5481000Y29180000D01*
X5354000Y29180000D02*
X5354000Y28037000D01*
X5227000Y28037000D02*
X5227000Y29307000D01*
X5100000Y29434000D02*
X5100000Y27910000D01*
X4947600Y27732200D02*
X6319200Y28646600D01*
X4947600Y27732200D02*
X4947600Y29637200D01*
X4465000Y28684700D02*
X6751000Y28684700D01*
%TO.C,D7*%
X4719000Y27198800D02*
X4719000Y25293800D01*
X4896800Y27198800D02*
X4719000Y27198800D01*
X4896800Y27198800D02*
X4896800Y25293800D01*
X4896800Y26284400D02*
X6268400Y25293800D01*
X4896800Y25293800D02*
X4719000Y25293800D01*
X5354000Y26386000D02*
X5354000Y26005000D01*
X5481000Y26513000D02*
X5481000Y25878000D01*
X5608000Y26640000D02*
X5608000Y25878000D01*
X5735000Y26640000D02*
X5735000Y25751000D01*
X5862000Y25751000D02*
X5862000Y26894000D01*
X5989000Y26894000D02*
X5989000Y25624000D01*
X6116000Y25497000D02*
X6116000Y27021000D01*
X6268400Y27198800D02*
X4896800Y26284400D01*
X6268400Y27198800D02*
X6268400Y25293800D01*
X6751000Y26246300D02*
X4465000Y26246300D01*
%TO.C,R28*%
X19832000Y35657000D02*
X19832000Y34133000D01*
X22118000Y35657000D02*
X22118000Y34133000D01*
D18*
%TO.C,R20*%
X11386500Y43658000D02*
X11386500Y43150000D01*
X10497500Y43658000D02*
X10497500Y43150000D01*
%TO.C,R9*%
X3703000Y73693500D02*
X3195000Y73693500D01*
X3703000Y74582500D02*
X3195000Y74582500D01*
D10*
%TO.C,RM3*%
X15920400Y59990200D02*
X16136300Y59990200D01*
X15933100Y57043800D02*
X15933100Y59990200D01*
X15945800Y57043800D02*
X16123600Y57043800D01*
X19743100Y57043800D02*
X19933600Y57043800D01*
X19933600Y59990200D02*
X19717700Y59990200D01*
X19933600Y57043800D02*
X19933600Y59990200D01*
%TO.C,CE*%
X10914000Y34030000D02*
X10914000Y33530000D01*
X10914000Y37530000D02*
X10914000Y37030000D01*
X8914000Y35780000D02*
X7664000Y35780000D01*
X7664000Y35280000D02*
X8914000Y35280000D01*
X7664000Y35530000D02*
X8914000Y35530000D01*
X7664000Y35780000D02*
X7664000Y35280000D01*
X7414000Y34030000D02*
X7414000Y33530000D01*
X7414000Y37530000D02*
X7414000Y37030000D01*
D31*
X10963980Y33780000D02*
G75*
G03*
X10964000Y37280000I-49980J1750000D01*
G01*
D10*
X10914000Y34030000D02*
G75*
G03*
X10914000Y37030000I0J1500000D01*
G01*
X10914000Y33530000D02*
G75*
G03*
X10914000Y37530000I0J2000000D01*
G01*
D31*
X7463980Y33780000D02*
G75*
G03*
X7464000Y37280000I-49980J1750000D01*
G01*
D10*
X7414000Y34030000D02*
G75*
G03*
X7414000Y37030000I0J1500000D01*
G01*
X7414000Y33530000D02*
G75*
G03*
X7414000Y37530000I0J2000000D01*
G01*
%TO.C,R42*%
X23591000Y44826800D02*
X23591000Y40762800D01*
X20391000Y44826800D02*
X20391000Y40762800D01*
%TO.C,C26*%
X22753000Y32228000D02*
X23769000Y32228000D01*
X22753000Y30704000D02*
X23769000Y30704000D01*
%TO.C,R43*%
X22245000Y33244000D02*
X22245000Y34260000D01*
X23769000Y33244000D02*
X23769000Y34260000D01*
D18*
%TO.C,C28*%
X24912000Y61755500D02*
X25420000Y61755500D01*
X24912000Y60866500D02*
X25420000Y60866500D01*
%TO.C,R45*%
X6433500Y68423000D02*
X6433500Y67915000D01*
X5544500Y68423000D02*
X5544500Y67915000D01*
D10*
%TO.C,U8*%
X25089799Y62568300D02*
X23959499Y62568300D01*
X25089799Y65375000D02*
X23959499Y65375000D01*
%TO.C,U3*%
X4007800Y4783300D02*
X2877500Y4783300D01*
X4007800Y7590000D02*
X2877500Y7590000D01*
D18*
%TO.C,R17*%
X1417000Y2446500D02*
X909000Y2446500D01*
X1417000Y3335500D02*
X909000Y3335500D01*
D10*
%TO.C,T1*%
X4642800Y59279000D02*
X3931600Y59279000D01*
X6776400Y59279000D02*
X6065200Y59279000D01*
X3931600Y60117200D02*
X3931600Y59279000D01*
X6776400Y60117200D02*
X6776400Y59279000D01*
D18*
%TO.C,R2*%
X7894000Y47912500D02*
X8402000Y47912500D01*
X7894000Y47023500D02*
X8402000Y47023500D01*
%TO.C,R3*%
X8402000Y47912500D02*
X7894000Y47912500D01*
X8402000Y48801500D02*
X7894000Y48801500D01*
D10*
%TO.C,C20*%
X3957000Y74646000D02*
X2941000Y74646000D01*
X3957000Y76170000D02*
X2941000Y76170000D01*
%TO.C,L5*%
X13558200Y58771000D02*
X14396400Y58771000D01*
X13558200Y56993000D02*
X14396400Y56993000D01*
D18*
%TO.C,R37*%
X12720000Y56548500D02*
X13228000Y56548500D01*
X12720000Y55659500D02*
X13228000Y55659500D01*
%TO.C,R52*%
X17038000Y56675500D02*
X17546000Y56675500D01*
X17038000Y55786500D02*
X17546000Y55786500D01*
D10*
%TO.C,R54*%
X22880000Y58136000D02*
X22880000Y59152000D01*
X24912000Y58136000D02*
X24912000Y59152000D01*
%TO.C,U1*%
X8251000Y19425000D02*
X5251000Y19425000D01*
X5251000Y22425000D02*
X5251000Y19425000D01*
X5251000Y22425000D02*
X8251000Y22425000D01*
X8251000Y22425000D02*
X8251000Y19425000D01*
X6391512Y20125000D02*
G75*
G03*
X6391512Y20125000I-390512J0D01*
G01*
%TO.C,R7*%
X18181000Y10460000D02*
X22245000Y10460000D01*
X18181000Y7260000D02*
X22245000Y7260000D01*
D18*
%TO.C,R55*%
X10370500Y22449000D02*
X10370500Y22957000D01*
X11259500Y22449000D02*
X11259500Y22957000D01*
D10*
%TO.C,Class4_EN1*%
X22245000Y60168000D02*
X20721000Y60168000D01*
X20467000Y59914000D02*
X20467000Y57120000D01*
X22499000Y57120000D02*
X22499000Y59914000D01*
X22245000Y56866000D02*
X20721000Y56866000D01*
X22499000Y59914000D02*
G75*
G03*
X22245000Y60168000I-254000J0D01*
G01*
X20721000Y60168000D02*
G75*
G03*
X20467000Y59914000I0J-254000D01*
G01*
X22245000Y56866000D02*
G75*
G03*
X22499000Y57120000I0J254000D01*
G01*
X20467000Y57120000D02*
G75*
G03*
X20721000Y56866000I254000J0D01*
G01*
D18*
%TO.C,R53*%
X21102000Y56421500D02*
X21610000Y56421500D01*
X21102000Y55532500D02*
X21610000Y55532500D01*
D10*
%TO.C,U9*%
X15300000Y49913000D02*
X15300000Y53913000D01*
X20300000Y49913000D02*
X20300000Y53913000D01*
%TD*%
M02*
