G04 #@! TF.GenerationSoftware,KiCad,Pcbnew,5.1.0-rc2-unknown-036be7d~80~ubuntu16.04.1*
G04 #@! TF.CreationDate,2021-11-05T15:53:19+02:00*
G04 #@! TF.ProjectId,ESP32-PoE_Rev_G1,45535033-322d-4506-9f45-5f5265765f47,G1*
G04 #@! TF.SameCoordinates,Original*
G04 #@! TF.FileFunction,Soldermask,Top*
G04 #@! TF.FilePolarity,Negative*
%FSLAX46Y46*%
G04 Gerber Fmt 4.6, Leading zero omitted, Abs format (unit mm)*
G04 Created by KiCad (PCBNEW 5.1.0-rc2-unknown-036be7d~80~ubuntu16.04.1) date 2021-11-05 15:53:19*
%MOMM*%
%LPD*%
G04 APERTURE LIST*
%ADD10C,2.101600*%
%ADD11R,5.101600X5.101600*%
%ADD12R,1.901600X0.901600*%
%ADD13R,0.901600X1.901600*%
%ADD14R,1.601600X1.001600*%
%ADD15C,0.801600*%
%ADD16R,0.651600X1.301600*%
%ADD17C,1.371600*%
%ADD18C,0.100000*%
%ADD19R,1.701600X3.101600*%
%ADD20C,1.625600*%
%ADD21O,1.701600X3.101599*%
%ADD22C,3.401601*%
%ADD23R,1.524000X1.524000*%
%ADD24R,0.601600X0.651600*%
%ADD25R,1.117600X1.117600*%
%ADD26R,0.901600X0.901600*%
%ADD27R,1.501600X1.501600*%
%ADD28C,1.501600*%
%ADD29R,0.651600X0.601600*%
%ADD30C,1.879600*%
%ADD31R,1.879600X1.879600*%
%ADD32R,3.301600X2.601600*%
%ADD33R,3.501600X2.301600*%
%ADD34R,2.101600X1.801600*%
%ADD35C,1.254000*%
%ADD36R,1.751600X0.601600*%
%ADD37R,1.751600X0.426600*%
%ADD38C,0.701600*%
%ADD39R,1.101600X1.201600*%
%ADD40O,1.901600X1.301600*%
%ADD41R,1.101600X1.501600*%
%ADD42R,1.501600X1.101600*%
%ADD43C,1.301600*%
%ADD44R,1.101600X4.351600*%
%ADD45R,2.701600X3.601600*%
%ADD46R,1.501600X0.701600*%
%ADD47C,1.901600*%
%ADD48R,1.625600X1.625600*%
G04 APERTURE END LIST*
D10*
X103140000Y-104235000D03*
D11*
X103140000Y-104235000D03*
D12*
X112740000Y-96725000D03*
X112740000Y-97995000D03*
X112740000Y-99265000D03*
X112740000Y-100535000D03*
X112740000Y-101805000D03*
X112740000Y-103075000D03*
X112740000Y-104345000D03*
X112740000Y-105615000D03*
X112740000Y-106885000D03*
X112740000Y-108155000D03*
X112740000Y-109425000D03*
X112740000Y-110695000D03*
X112740000Y-111965000D03*
X112740000Y-113235000D03*
D13*
X109870000Y-114335000D03*
X108600000Y-114335000D03*
X107330000Y-114335000D03*
X106060000Y-114335000D03*
X104790000Y-114335000D03*
X103520000Y-114335000D03*
X102250000Y-114335000D03*
X100980000Y-114335000D03*
X99710000Y-114335000D03*
X98440000Y-114335000D03*
D12*
X95540000Y-113235000D03*
X95540000Y-111965000D03*
X95540000Y-110695000D03*
X95540000Y-109425000D03*
X95540000Y-108155000D03*
X95540000Y-106885000D03*
X95540000Y-105615000D03*
X95540000Y-104345000D03*
X95540000Y-103075000D03*
X95540000Y-101805000D03*
X95540000Y-100535000D03*
X95540000Y-99265000D03*
X95540000Y-97995000D03*
X95540000Y-96725000D03*
D14*
X115959000Y-106444000D03*
X115959000Y-102090000D03*
D15*
X115059000Y-104267000D03*
X116859000Y-104267000D03*
D14*
X92321000Y-106444000D03*
X92321000Y-102090000D03*
D15*
X91421000Y-104267000D03*
X93221000Y-104267000D03*
D16*
X101158000Y-152938000D03*
X102108000Y-152938000D03*
X103058000Y-152938000D03*
X101158000Y-150338000D03*
X103058000Y-150338000D03*
D17*
X108662238Y-147592976D03*
D18*
G36*
X109703065Y-147811251D02*
G01*
X108622230Y-148655692D01*
X107621411Y-147374701D01*
X108702246Y-146530260D01*
X109703065Y-147811251D01*
X109703065Y-147811251D01*
G37*
D17*
X107061000Y-148844000D03*
D18*
G36*
X108101827Y-149062275D02*
G01*
X107020992Y-149906716D01*
X106020173Y-148625725D01*
X107101008Y-147781284D01*
X108101827Y-149062275D01*
X108101827Y-149062275D01*
G37*
D19*
X104591000Y-151384000D03*
X106991000Y-151384000D03*
D20*
X102616000Y-155806000D03*
X103886000Y-158346000D03*
X105156000Y-155806000D03*
X106426000Y-158346000D03*
X107696000Y-155806000D03*
X108966000Y-158346000D03*
X110236000Y-155806000D03*
X111506000Y-158346000D03*
X112776000Y-155806000D03*
X114046000Y-158346000D03*
D21*
X100531000Y-161946000D03*
X116131000Y-161946000D03*
D22*
X102616000Y-164996000D03*
X114046000Y-164996000D03*
D23*
X110744000Y-148844000D03*
D24*
X109347000Y-150241000D03*
X108331000Y-150241000D03*
D25*
X99695000Y-151892000D03*
X99695000Y-150114000D03*
D24*
X91821000Y-147574000D03*
X90805000Y-147574000D03*
X93218000Y-112903000D03*
X92202000Y-112903000D03*
D26*
X115951000Y-150876000D03*
X114427000Y-150876000D03*
X115951000Y-152400000D03*
X114427000Y-152400000D03*
D27*
X95638620Y-163852860D03*
D28*
X97650300Y-163850320D03*
D24*
X116713000Y-113030000D03*
X115697000Y-113030000D03*
X114427000Y-115189000D03*
X115443000Y-115189000D03*
X115697000Y-110363000D03*
X116713000Y-110363000D03*
X115697000Y-111252000D03*
X116713000Y-111252000D03*
X98552000Y-153035000D03*
X99568000Y-153035000D03*
D29*
X97155000Y-149733000D03*
X97155000Y-148717000D03*
X113538000Y-147066000D03*
X113538000Y-148082000D03*
X111633000Y-152019000D03*
X111633000Y-151003000D03*
X112522000Y-152019000D03*
X112522000Y-151003000D03*
X109728000Y-152019000D03*
X109728000Y-151003000D03*
X110744000Y-152019000D03*
X110744000Y-151003000D03*
X96266000Y-139446000D03*
X96266000Y-138430000D03*
X96075500Y-147828000D03*
X96075500Y-148844000D03*
D30*
X116840000Y-130840000D03*
X116840000Y-128300000D03*
X116840000Y-125760000D03*
D31*
X116840000Y-123220000D03*
D30*
X116840000Y-133380000D03*
X116840000Y-135920000D03*
X116840000Y-141000000D03*
X116840000Y-138460000D03*
X116840000Y-143540000D03*
X116840000Y-146080000D03*
X91440000Y-130840000D03*
X91440000Y-128300000D03*
X91440000Y-125760000D03*
D31*
X91440000Y-123220000D03*
D30*
X91440000Y-133380000D03*
X91440000Y-135920000D03*
X91440000Y-141000000D03*
X91440000Y-138460000D03*
X91440000Y-143540000D03*
X91440000Y-146080000D03*
D32*
X96377000Y-144272000D03*
X107077000Y-144272000D03*
D33*
X112217200Y-138332000D03*
X112217200Y-145132000D03*
D34*
X96734000Y-151765000D03*
X91734000Y-151765000D03*
D35*
X116586000Y-168529000D03*
X116459000Y-96774000D03*
X91821000Y-96774000D03*
D26*
X92456000Y-169291000D03*
X90932000Y-169291000D03*
D25*
X113030000Y-149352000D03*
X114808000Y-149352000D03*
D26*
X92456000Y-167005000D03*
X90932000Y-167005000D03*
D36*
X96876000Y-156854500D03*
D37*
X96876000Y-157592000D03*
X96876000Y-158242000D03*
X96876000Y-158892000D03*
D36*
X96876000Y-159629500D03*
D38*
X95626000Y-156242000D03*
X95626000Y-160242000D03*
D39*
X92326000Y-156742000D03*
X92326000Y-159742000D03*
D40*
X93476000Y-154642000D03*
X96946000Y-154642000D03*
X96946000Y-161842000D03*
X93476000Y-161842000D03*
D41*
X92839540Y-149479000D03*
X94742000Y-149479000D03*
X93786960Y-147269200D03*
D42*
X99476560Y-136845040D03*
X99476560Y-138747500D03*
X101686360Y-137792460D03*
D29*
X115951000Y-99441000D03*
X115951000Y-100457000D03*
X115697000Y-108839000D03*
X115697000Y-107823000D03*
X116586000Y-107823000D03*
X116586000Y-108839000D03*
D42*
X95715000Y-140335000D03*
X93515000Y-141285000D03*
X93515000Y-139385000D03*
D43*
X107950000Y-124333000D03*
D44*
X99060000Y-127458000D03*
X99060000Y-121208000D03*
X101600000Y-127458000D03*
X101600000Y-121208000D03*
X104140000Y-127458000D03*
X104140000Y-121208000D03*
X106680000Y-127458000D03*
X106680000Y-121208000D03*
X109220000Y-127458000D03*
X109220000Y-121208000D03*
D43*
X100330000Y-124333000D03*
D24*
X92964000Y-109093000D03*
X91948000Y-109093000D03*
X99695000Y-134493000D03*
X100711000Y-134493000D03*
X103251000Y-138049000D03*
X104267000Y-138049000D03*
X99695000Y-133477000D03*
X100711000Y-133477000D03*
X99695000Y-135509000D03*
X100711000Y-135509000D03*
D45*
X105029000Y-133985000D03*
D46*
X102229000Y-135890000D03*
X102229000Y-134620000D03*
X102229000Y-133350000D03*
X102229000Y-132080000D03*
X107829000Y-132080000D03*
X107829000Y-133350000D03*
X107829000Y-134620000D03*
X107829000Y-135890000D03*
D47*
X105029000Y-133985000D03*
D20*
X95758000Y-135870000D03*
D48*
X95758000Y-133370000D03*
X113391000Y-132334000D03*
D20*
X110891000Y-132334000D03*
D41*
X93096000Y-130175000D03*
X96896000Y-130175000D03*
D25*
X107188000Y-137795000D03*
X105410000Y-137795000D03*
M02*
