M48
; DRILL file {KiCad 5.1.0-rc2-unknown-036be7d~80~ubuntu16.04.1} date  5.11.2021 (пт) 15:53:21 EET
; FORMAT={-:-/ absolute / inch / decimal}
; #@! TF.CreationDate,2021-11-05T15:53:21+02:00*
; #@! TF.GenerationSoftware,Kicad,Pcbnew,5.1.0-rc2-unknown-036be7d~80~ubuntu16.04.1
; #@! TF.FileFunction,Plated,1,2,PTH
FMAT,2
INCH
T1C0.0118
T2C0.0118
T3C0.0157
T4C0.0197
T5C0.0236
T6C0.0354
T7C0.0394
T8C0.0472
T9C0.0512
%
G90
G05
T1
X4.3797Y-5.8088
T2
X4.3088Y-5.8403
X4.3088Y-5.8797
X4.3403Y-5.8088
X4.3403Y-5.9112
X4.3797Y-5.9112
X4.4112Y-5.8403
X4.4112Y-5.8797
T3
X3.5949Y-5.8581
X3.6119Y-5.9202
X3.625Y-4.64
X3.627Y-4.476
X3.627Y-4.512
X3.6295Y-5.6023
X3.6453Y-4.725
X3.652Y-6.237
X3.66Y-6.465
X3.66Y-6.425
X3.67Y-6.665
X3.688Y-4.503
X3.695Y-6.425
X3.6981Y-4.3885
X3.7Y-3.9392
X3.7Y-4.035
X3.7Y-4.35
X3.705Y-4.645
X3.707Y-4.55
X3.71Y-5.675
X3.72Y-4.68
X3.7375Y-5.8375
X3.7409Y-6.2771
X3.7493Y-6.0044
X3.7493Y-5.9706
X3.7511Y-5.4437
X3.76Y-6.245
X3.7643Y-6.1067
X3.765Y-5.775
X3.769Y-4.499
X3.775Y-4.79
X3.775Y-6.665
X3.805Y-5.175
X3.806Y-4.36
X3.8083Y-5.4281
X3.8247Y-3.9335
X3.8312Y-4.2847
X3.835Y-4.15
X3.8399Y-4.0799
X3.84Y-3.9025
X3.8502Y-5.8983
X3.855Y-4.115
X3.8603Y-4.9476
X3.87Y-5.975
X3.874Y-3.9015
X3.8746Y-4.0249
X3.8925Y-4.21
X3.8983Y-6.2467
X3.9026Y-4.0435
X3.945Y-4.605
X3.965Y-4.95
X3.9675Y-4.3575
X3.985Y-4.56
X3.99Y-4.24
X4.0175Y-4.56
X4.03Y-6.057
X4.035Y-4.3243
X4.035Y-5.565
X4.06Y-5.06
X4.065Y-4.735
X4.08Y-4.3243
X4.095Y-5.365
X4.115Y-5.76
X4.13Y-5.82
X4.135Y-5.365
X4.14Y-5.195
X4.15Y-4.575
X4.155Y-5.042
X4.1652Y-4.3603
X4.17Y-5.825
X4.175Y-5.195
X4.175Y-5.365
X4.175Y-6.055
X4.21Y-5.47
X4.2379Y-6.041
X4.255Y-4.72
X4.266Y-5.951
X4.275Y-4.63
X4.2754Y-6.0421
X4.29Y-3.955
X4.31Y-3.995
X4.32Y-6.015
X4.331Y-5.712
X4.34Y-3.955
X4.345Y-4.015
X4.345Y-4.215
X4.355Y-6.015
X4.359Y-4.313
X4.36Y-3.845
X4.367Y-4.362
X4.37Y-4.185
X4.37Y-5.635
X4.3721Y-4.2771
X4.38Y-4.405
X4.387Y-6.027
X4.39Y-5.16
X4.3975Y-4.5316
X4.3975Y-4.5651
X4.425Y-6.03
X4.455Y-4.52
X4.4689Y-5.9547
X4.487Y-6.036
X4.495Y-4.07
X4.495Y-4.36
X4.495Y-5.84
X4.5Y-4.685
X4.5064Y-4.5639
X4.51Y-4.245
X4.51Y-4.65
X4.515Y-4.6
X4.52Y-6.06
X4.5311Y-5.9639
X4.535Y-5.91
X4.566Y-4.728
X4.575Y-4.525
X4.59Y-4.415
X4.59Y-4.775
X4.602Y-4.315
X4.625Y-4.14
T4
X3.695Y-5.41
X3.9422Y-4.6417
X4.03Y-5.88
X4.165Y-5.475
T5
X3.585Y-3.89
X3.585Y-3.94
X3.585Y-3.99
X3.585Y-4.04
X3.5958Y-4.3219
X3.635Y-3.89
X3.67Y-5.975
X3.69Y-3.78
X3.69Y-3.8375
X3.69Y-3.89
X3.73Y-6.56
X3.73Y-6.605
X3.7313Y-4.8885
X3.79Y-4.875
X3.8Y-6.14
X3.815Y-3.81
X3.815Y-3.86
X3.84Y-6.14
X3.855Y-3.78
X3.8619Y-5.0958
X3.8713Y-6.3075
X3.8713Y-6.345
X3.875Y-5.505
X3.878Y-5.5954
X3.9Y-5.826
X3.905Y-3.81
X3.91Y-6.495
X3.91Y-6.655
X3.92Y-6.075
X3.9242Y-5.6603
X3.94Y-4.425
X3.955Y-3.78
X3.975Y-5.16
X4.005Y-3.81
X4.015Y-5.16
X4.02Y-6.645
X4.035Y-4.425
X4.035Y-5.73
X4.055Y-3.78
X4.08Y-4.425
X4.08Y-6.3758
X4.095Y-6.58
X4.1Y-4.225
X4.1Y-5.705
X4.105Y-3.81
X4.145Y-6.645
X4.15Y-4.225
X4.155Y-3.78
X4.17Y-6.49
X4.2Y-4.025
X4.2Y-4.075
X4.2Y-4.125
X4.2Y-4.175
X4.2Y-4.225
X4.205Y-3.81
X4.21Y-6.58
X4.245Y-4.425
X4.25Y-4.075
X4.25Y-4.125
X4.25Y-4.175
X4.25Y-4.225
X4.255Y-3.78
X4.26Y-6.49
X4.26Y-6.645
X4.3Y-4.125
X4.3Y-4.175
X4.305Y-3.81
X4.315Y-6.58
X4.355Y-3.78
X4.355Y-5.33
X4.365Y-6.49
X4.37Y-4.09
X4.37Y-6.645
X4.38Y-4.845
X4.38Y-4.885
X4.43Y-4.92
X4.43Y-6.58
X4.45Y-6.3758
X4.465Y-5.52
X4.465Y-5.56
X4.5Y-4.2
X4.505Y-3.78
X4.505Y-3.825
X4.505Y-3.885
X4.505Y-3.93
X4.505Y-3.975
X4.62Y-3.885
X4.62Y-4.02
X4.62Y-4.07
X3.9898Y-4.0329
X3.9898Y-4.1037
X3.9898Y-4.1746
X4.0606Y-4.0329
X4.0606Y-4.1746
X4.1315Y-4.0329
X4.1315Y-4.1037
X4.1315Y-4.1746
T6
X3.7653Y-6.4509
X3.8445Y-6.4508
X4.3658Y-5.21
X4.4642Y-5.21
X3.77Y-5.2508
X3.77Y-5.3492
T7
X4.6Y-4.8512
X4.6Y-4.9512
X4.6Y-5.0512
X4.6Y-5.1512
X4.6Y-5.2512
X4.6Y-5.3512
X4.6Y-5.4512
X4.6Y-5.5512
X4.6Y-5.6512
X4.6Y-5.7512
X4.04Y-6.1341
X4.09Y-6.2341
X4.14Y-6.1341
X4.19Y-6.2341
X4.24Y-6.1341
X4.29Y-6.2341
X4.34Y-6.1341
X4.39Y-6.2341
X4.44Y-6.1341
X4.49Y-6.2341
X3.6Y-4.8512
X3.6Y-4.9512
X3.6Y-5.0512
X3.6Y-5.1512
X3.6Y-5.2512
X3.6Y-5.3512
X3.6Y-5.4512
X3.6Y-5.5512
X3.6Y-5.6512
X3.6Y-5.7512
T8
X4.36Y-5.86
X4.135Y-5.275
T9
X4.0606Y-4.1037
T5
G00X3.692Y-6.0883
M15
G01X3.6683Y-6.0883
M16
G05
G00X3.692Y-6.3717
M15
G01X3.6683Y-6.3717
M16
G05
G00X3.8286Y-6.0883
M15
G01X3.805Y-6.0883
M16
G05
G00X3.8286Y-6.3717
M15
G01X3.805Y-6.3717
M16
G05
G00X3.9579Y-6.3483
M15
G01X3.9579Y-6.4034
M16
G05
G00X4.5721Y-6.3483
M15
G01X4.5721Y-6.4034
M16
G05
T0
M30
