G04 #@! TF.GenerationSoftware,KiCad,Pcbnew,5.1.0-rc2-unknown-036be7d~80~ubuntu16.04.1*
G04 #@! TF.CreationDate,2021-11-05T15:53:19+02:00*
G04 #@! TF.ProjectId,ESP32-PoE_Rev_G1,45535033-322d-4506-9f45-5f5265765f47,G1*
G04 #@! TF.SameCoordinates,Original*
G04 #@! TF.FileFunction,Paste,Top*
G04 #@! TF.FilePolarity,Positive*
%FSLAX46Y46*%
G04 Gerber Fmt 4.6, Leading zero omitted, Abs format (unit mm)*
G04 Created by KiCad (PCBNEW 5.1.0-rc2-unknown-036be7d~80~ubuntu16.04.1) date 2021-11-05 15:53:19*
%MOMM*%
%LPD*%
G04 APERTURE LIST*
%ADD10R,1.901600X0.901600*%
%ADD11R,0.901600X1.901600*%
%ADD12R,1.200000X1.800000*%
%ADD13R,1.754000X1.327000*%
%ADD14R,0.550000X1.200000*%
%ADD15C,1.270000*%
%ADD16C,0.100000*%
%ADD17R,1.600000X3.000000*%
%ADD18R,0.500000X0.550000*%
%ADD19R,1.016000X1.016000*%
%ADD20R,0.800000X0.800000*%
%ADD21R,0.550000X0.500000*%
%ADD22R,3.400000X2.700000*%
%ADD23R,3.600000X2.400000*%
%ADD24R,2.000000X1.700000*%
%ADD25R,1.650000X0.500000*%
%ADD26R,1.721120X0.396120*%
%ADD27R,1.254000X1.354000*%
%ADD28R,1.000000X1.400000*%
%ADD29R,1.400000X1.000000*%
%ADD30C,1.700000*%
%ADD31R,2.600000X3.500000*%
%ADD32R,1.400000X0.600000*%
G04 APERTURE END LIST*
D10*
X112740000Y-96725000D03*
X112740000Y-97995000D03*
X112740000Y-99265000D03*
X112740000Y-100535000D03*
X112740000Y-101805000D03*
X112740000Y-103075000D03*
X112740000Y-104345000D03*
X112740000Y-105615000D03*
X112740000Y-106885000D03*
X112740000Y-108155000D03*
X112740000Y-109425000D03*
X112740000Y-110695000D03*
X112740000Y-111965000D03*
X112740000Y-113235000D03*
D11*
X109870000Y-114335000D03*
X108600000Y-114335000D03*
X107330000Y-114335000D03*
X106060000Y-114335000D03*
X104790000Y-114335000D03*
X103520000Y-114335000D03*
X102250000Y-114335000D03*
X100980000Y-114335000D03*
X99710000Y-114335000D03*
X98440000Y-114335000D03*
D10*
X95540000Y-113235000D03*
X95540000Y-111965000D03*
X95540000Y-110695000D03*
X95540000Y-109425000D03*
X95540000Y-108155000D03*
X95540000Y-106885000D03*
X95540000Y-105615000D03*
X95540000Y-104345000D03*
X95540000Y-103075000D03*
X95540000Y-101805000D03*
X95540000Y-100535000D03*
X95540000Y-99265000D03*
X95540000Y-97995000D03*
X95540000Y-96725000D03*
D12*
X102240000Y-102735000D03*
X102240000Y-105735000D03*
X104040000Y-102735000D03*
X104040000Y-105735000D03*
D13*
X115959000Y-101877000D03*
X115959000Y-106657000D03*
X92321000Y-101877000D03*
X92321000Y-106657000D03*
D14*
X101158000Y-152938000D03*
X102108000Y-152938000D03*
X103058000Y-152938000D03*
X101158000Y-150338000D03*
X103058000Y-150338000D03*
D15*
X108662238Y-147592976D03*
D16*
G36*
X109631759Y-147802495D02*
G01*
X108630985Y-148584385D01*
X107692717Y-147383457D01*
X108693491Y-146601567D01*
X109631759Y-147802495D01*
X109631759Y-147802495D01*
G37*
D15*
X107061000Y-148844000D03*
D16*
G36*
X108030521Y-149053519D02*
G01*
X107029747Y-149835409D01*
X106091479Y-148634481D01*
X107092253Y-147852591D01*
X108030521Y-149053519D01*
X108030521Y-149053519D01*
G37*
D17*
X104591000Y-151384000D03*
X106991000Y-151384000D03*
D18*
X109347000Y-150241000D03*
X108331000Y-150241000D03*
D19*
X99695000Y-151892000D03*
X99695000Y-150114000D03*
D18*
X91821000Y-147574000D03*
X90805000Y-147574000D03*
X93218000Y-112903000D03*
X92202000Y-112903000D03*
D20*
X115951000Y-150876000D03*
X114427000Y-150876000D03*
X115951000Y-152400000D03*
X114427000Y-152400000D03*
D18*
X116713000Y-113030000D03*
X115697000Y-113030000D03*
X114427000Y-115189000D03*
X115443000Y-115189000D03*
X115697000Y-110363000D03*
X116713000Y-110363000D03*
X115697000Y-111252000D03*
X116713000Y-111252000D03*
X98552000Y-153035000D03*
X99568000Y-153035000D03*
D21*
X97155000Y-149733000D03*
X97155000Y-148717000D03*
X113538000Y-147066000D03*
X113538000Y-148082000D03*
X111633000Y-152019000D03*
X111633000Y-151003000D03*
X112522000Y-152019000D03*
X112522000Y-151003000D03*
X109728000Y-152019000D03*
X109728000Y-151003000D03*
X110744000Y-152019000D03*
X110744000Y-151003000D03*
X96266000Y-139446000D03*
X96266000Y-138430000D03*
X96075500Y-147828000D03*
X96075500Y-148844000D03*
D22*
X96377000Y-144272000D03*
X107077000Y-144272000D03*
D23*
X112217200Y-138332000D03*
X112217200Y-145132000D03*
D24*
X96734000Y-151765000D03*
X91734000Y-151765000D03*
D20*
X92456000Y-169291000D03*
X90932000Y-169291000D03*
D19*
X113030000Y-149352000D03*
X114808000Y-149352000D03*
D20*
X92456000Y-167005000D03*
X90932000Y-167005000D03*
D25*
X96876000Y-156854500D03*
D26*
X96876000Y-157592000D03*
X96876000Y-158242000D03*
X96876000Y-158892000D03*
D25*
X96876000Y-159629500D03*
D27*
X92326000Y-156742000D03*
X92326000Y-159742000D03*
D28*
X92839540Y-149479000D03*
X94742000Y-149479000D03*
X93786960Y-147269200D03*
D29*
X99476560Y-136845040D03*
X99476560Y-138747500D03*
X101686360Y-137792460D03*
D21*
X115951000Y-99441000D03*
X115951000Y-100457000D03*
X115697000Y-108839000D03*
X115697000Y-107823000D03*
X116586000Y-107823000D03*
X116586000Y-108839000D03*
D29*
X95715000Y-140335000D03*
X93515000Y-141285000D03*
X93515000Y-139385000D03*
D30*
X99060000Y-127458000D03*
D16*
G36*
X98210000Y-129733000D02*
G01*
X98210000Y-125183000D01*
X99910000Y-125183000D01*
X99910000Y-129733000D01*
X98210000Y-129733000D01*
X98210000Y-129733000D01*
G37*
D30*
X101600000Y-127458000D03*
D16*
G36*
X100750000Y-129733000D02*
G01*
X100750000Y-125183000D01*
X102450000Y-125183000D01*
X102450000Y-129733000D01*
X100750000Y-129733000D01*
X100750000Y-129733000D01*
G37*
D30*
X104140000Y-127458000D03*
D16*
G36*
X103290000Y-129733000D02*
G01*
X103290000Y-125183000D01*
X104990000Y-125183000D01*
X104990000Y-129733000D01*
X103290000Y-129733000D01*
X103290000Y-129733000D01*
G37*
D30*
X106680000Y-127458000D03*
D16*
G36*
X105830000Y-129733000D02*
G01*
X105830000Y-125183000D01*
X107530000Y-125183000D01*
X107530000Y-129733000D01*
X105830000Y-129733000D01*
X105830000Y-129733000D01*
G37*
D30*
X109220000Y-127458000D03*
D16*
G36*
X108370000Y-129733000D02*
G01*
X108370000Y-125183000D01*
X110070000Y-125183000D01*
X110070000Y-129733000D01*
X108370000Y-129733000D01*
X108370000Y-129733000D01*
G37*
D30*
X109220000Y-121208000D03*
D16*
G36*
X108370000Y-123483000D02*
G01*
X108370000Y-118933000D01*
X110070000Y-118933000D01*
X110070000Y-123483000D01*
X108370000Y-123483000D01*
X108370000Y-123483000D01*
G37*
D30*
X106680000Y-121208000D03*
D16*
G36*
X105830000Y-123483000D02*
G01*
X105830000Y-118933000D01*
X107530000Y-118933000D01*
X107530000Y-123483000D01*
X105830000Y-123483000D01*
X105830000Y-123483000D01*
G37*
D30*
X99060000Y-121208000D03*
D16*
G36*
X98210000Y-123483000D02*
G01*
X98210000Y-118933000D01*
X99910000Y-118933000D01*
X99910000Y-123483000D01*
X98210000Y-123483000D01*
X98210000Y-123483000D01*
G37*
D30*
X101600000Y-121208000D03*
D16*
G36*
X100750000Y-123483000D02*
G01*
X100750000Y-118933000D01*
X102450000Y-118933000D01*
X102450000Y-123483000D01*
X100750000Y-123483000D01*
X100750000Y-123483000D01*
G37*
D30*
X104140000Y-121208000D03*
D16*
G36*
X103290000Y-123483000D02*
G01*
X103290000Y-118933000D01*
X104990000Y-118933000D01*
X104990000Y-123483000D01*
X103290000Y-123483000D01*
X103290000Y-123483000D01*
G37*
D18*
X92964000Y-109093000D03*
X91948000Y-109093000D03*
X99695000Y-134493000D03*
X100711000Y-134493000D03*
X103251000Y-138049000D03*
X104267000Y-138049000D03*
X99695000Y-133477000D03*
X100711000Y-133477000D03*
X99695000Y-135509000D03*
X100711000Y-135509000D03*
D31*
X105029000Y-133985000D03*
D32*
X102229000Y-135890000D03*
X102229000Y-134620000D03*
X102229000Y-133350000D03*
X102229000Y-132080000D03*
X107829000Y-132080000D03*
X107829000Y-133350000D03*
X107829000Y-134620000D03*
X107829000Y-135890000D03*
D28*
X93096000Y-130175000D03*
X96896000Y-130175000D03*
D19*
X107188000Y-137795000D03*
X105410000Y-137795000D03*
M02*
