G04 #@! TF.GenerationSoftware,KiCad,Pcbnew,5.1.0-rc1-unknown-9a8afdf~76~ubuntu18.04.1*
G04 #@! TF.CreationDate,2019-02-22T09:22:25+02:00
G04 #@! TF.ProjectId,ESP32-PoE_Rev_C,45535033-322d-4506-9f45-5f5265765f43,C*
G04 #@! TF.SameCoordinates,Original*
G04 #@! TF.FileFunction,Legend,Top*
G04 #@! TF.FilePolarity,Positive*
%FSLAX46Y46*%
G04 Gerber Fmt 4.6, Leading zero omitted, Abs format (unit mm)*
G04 Created by KiCad (PCBNEW 5.1.0-rc1-unknown-9a8afdf~76~ubuntu18.04.1) date 2019-02-22 09:22:25*
%MOMM*%
%LPD*%
G04 APERTURE LIST*
%ADD10C,0.254000*%
%ADD11C,0.304800*%
%ADD12C,0.200000*%
%ADD13C,0.127000*%
%ADD14C,0.100000*%
%ADD15C,0.050000*%
%ADD16C,0.600000*%
%ADD17C,0.190500*%
%ADD18C,0.158750*%
G04 APERTURE END LIST*
D10*
X116622285Y-121998619D02*
X116041714Y-121998619D01*
X116332000Y-121998619D02*
X116332000Y-120982619D01*
X116235238Y-121127761D01*
X116138476Y-121224523D01*
X116041714Y-121272904D01*
X92238285Y-121998619D02*
X91657714Y-121998619D01*
X91948000Y-121998619D02*
X91948000Y-120982619D01*
X91851238Y-121127761D01*
X91754476Y-121224523D01*
X91657714Y-121272904D01*
D11*
X91222285Y-119845666D02*
X91222285Y-119422333D01*
X91887523Y-119240904D02*
X91887523Y-119845666D01*
X90617523Y-119845666D01*
X90617523Y-119240904D01*
X91827047Y-118757095D02*
X91887523Y-118575666D01*
X91887523Y-118273285D01*
X91827047Y-118152333D01*
X91766571Y-118091857D01*
X91645619Y-118031380D01*
X91524666Y-118031380D01*
X91403714Y-118091857D01*
X91343238Y-118152333D01*
X91282761Y-118273285D01*
X91222285Y-118515190D01*
X91161809Y-118636142D01*
X91101333Y-118696619D01*
X90980380Y-118757095D01*
X90859428Y-118757095D01*
X90738476Y-118696619D01*
X90678000Y-118636142D01*
X90617523Y-118515190D01*
X90617523Y-118212809D01*
X90678000Y-118031380D01*
X91887523Y-117487095D02*
X90617523Y-117487095D01*
X90617523Y-117003285D01*
X90678000Y-116882333D01*
X90738476Y-116821857D01*
X90859428Y-116761380D01*
X91040857Y-116761380D01*
X91161809Y-116821857D01*
X91222285Y-116882333D01*
X91282761Y-117003285D01*
X91282761Y-117487095D01*
X90617523Y-116338047D02*
X90617523Y-115551857D01*
X91101333Y-115975190D01*
X91101333Y-115793761D01*
X91161809Y-115672809D01*
X91222285Y-115612333D01*
X91343238Y-115551857D01*
X91645619Y-115551857D01*
X91766571Y-115612333D01*
X91827047Y-115672809D01*
X91887523Y-115793761D01*
X91887523Y-116156619D01*
X91827047Y-116277571D01*
X91766571Y-116338047D01*
X90738476Y-115068047D02*
X90678000Y-115007571D01*
X90617523Y-114886619D01*
X90617523Y-114584238D01*
X90678000Y-114463285D01*
X90738476Y-114402809D01*
X90859428Y-114342333D01*
X90980380Y-114342333D01*
X91161809Y-114402809D01*
X91887523Y-115128523D01*
X91887523Y-114342333D01*
X91403714Y-113798047D02*
X91403714Y-112830428D01*
X91887523Y-112225666D02*
X90617523Y-112225666D01*
X90617523Y-111741857D01*
X90678000Y-111620904D01*
X90738476Y-111560428D01*
X90859428Y-111499952D01*
X91040857Y-111499952D01*
X91161809Y-111560428D01*
X91222285Y-111620904D01*
X91282761Y-111741857D01*
X91282761Y-112225666D01*
X91887523Y-110774238D02*
X91827047Y-110895190D01*
X91766571Y-110955666D01*
X91645619Y-111016142D01*
X91282761Y-111016142D01*
X91161809Y-110955666D01*
X91101333Y-110895190D01*
X91040857Y-110774238D01*
X91040857Y-110592809D01*
X91101333Y-110471857D01*
X91161809Y-110411380D01*
X91282761Y-110350904D01*
X91645619Y-110350904D01*
X91766571Y-110411380D01*
X91827047Y-110471857D01*
X91887523Y-110592809D01*
X91887523Y-110774238D01*
X91222285Y-109806619D02*
X91222285Y-109383285D01*
X91887523Y-109201857D02*
X91887523Y-109806619D01*
X90617523Y-109806619D01*
X90617523Y-109201857D01*
D10*
X90150000Y-163830000D02*
X90150000Y-170150000D01*
X91313000Y-162687000D02*
X90150000Y-163830000D01*
X91313000Y-153797000D02*
X91313000Y-162687000D01*
X90150000Y-152654000D02*
X91313000Y-153797000D01*
X90150000Y-152654000D02*
X90150000Y-95150000D01*
X90150000Y-170150000D02*
X118150000Y-170150000D01*
X90150000Y-95150000D02*
X118150000Y-95150000D01*
X118150000Y-170150000D02*
X118150000Y-95150000D01*
X110891000Y-137882000D02*
X110891000Y-137132000D01*
X113391000Y-137882000D02*
X113391000Y-137132000D01*
X109041000Y-137882000D02*
X115241000Y-137882000D01*
X109041000Y-148882000D02*
X109041000Y-137882000D01*
X115241000Y-148882000D02*
X109041000Y-148882000D01*
X115241000Y-137882000D02*
X115241000Y-148882000D01*
X97242000Y-137005000D02*
X96492000Y-137005000D01*
X97242000Y-133505000D02*
X96492000Y-133505000D01*
X97242000Y-139255000D02*
X97242000Y-131255000D01*
X108742000Y-139255000D02*
X97242000Y-139255000D01*
X108742000Y-131255000D02*
X108742000Y-139255000D01*
X97242000Y-131255000D02*
X108742000Y-131255000D01*
X98653600Y-163842700D02*
X99656900Y-163842700D01*
X93586300Y-163842700D02*
X94640400Y-163842700D01*
X93581220Y-163850320D02*
X93581220Y-170159680D01*
X93581220Y-170159680D02*
X99661980Y-170159680D01*
X99661980Y-170159680D02*
X99661980Y-163842698D01*
X91326000Y-161942000D02*
X91326000Y-154542000D01*
X95826000Y-154542000D02*
X94626000Y-154542000D01*
X97326000Y-156442000D02*
X97326000Y-155442000D01*
X97326000Y-161042000D02*
X97326000Y-160042000D01*
X92326000Y-161942000D02*
X91326000Y-161942000D01*
X90226000Y-162306000D02*
X90226000Y-154178000D01*
X91326000Y-154542000D02*
X92326000Y-154542000D01*
X95826000Y-161942000D02*
X94626000Y-161942000D01*
X90297000Y-162306000D02*
X91313000Y-161925000D01*
X90297000Y-154178000D02*
X91313000Y-154559000D01*
X99327000Y-144272000D02*
X100227000Y-144272000D01*
X103227000Y-144272000D02*
X104127000Y-144272000D01*
X103227000Y-144272000D02*
G75*
G02X102227000Y-144272000I-500000J0D01*
G01*
X101227000Y-144272000D02*
G75*
G02X100227000Y-144272000I-500000J0D01*
G01*
X102227000Y-144272000D02*
G75*
G02X101227000Y-144272000I-500000J0D01*
G01*
X104838270Y-144272000D02*
G75*
G03X104838270Y-144272000I-3111270J0D01*
G01*
X108227000Y-146372000D02*
X104727000Y-149072000D01*
X108227000Y-145872000D02*
X108227000Y-146372000D01*
X105127000Y-145872000D02*
X108227000Y-145872000D01*
X105127000Y-142672000D02*
X105127000Y-145872000D01*
X108227000Y-142672000D02*
X105127000Y-142672000D01*
X108227000Y-142172000D02*
X108227000Y-142672000D01*
X104727000Y-139472000D02*
X108227000Y-142172000D01*
X98727000Y-139472000D02*
X104727000Y-139472000D01*
X95227000Y-142172000D02*
X98727000Y-139472000D01*
X95227000Y-142672000D02*
X95227000Y-142172000D01*
X98327000Y-142672000D02*
X95227000Y-142672000D01*
X98327000Y-145872000D02*
X98327000Y-142672000D01*
X95227000Y-145872000D02*
X98327000Y-145872000D01*
X95227000Y-146372000D02*
X95227000Y-145872000D01*
X98727000Y-149072000D02*
X95227000Y-146372000D01*
X104727000Y-149072000D02*
X98727000Y-149072000D01*
X100331000Y-153846000D02*
X116331000Y-153846000D01*
X116331000Y-153846000D02*
X116331000Y-159616000D01*
X116331000Y-164046000D02*
X116331000Y-175846000D01*
X116331000Y-175846000D02*
X100331000Y-175846000D01*
X100331000Y-175846000D02*
X100331000Y-164046000D01*
X100331000Y-159616000D02*
X100331000Y-153846000D01*
X106861000Y-152503000D02*
X107261000Y-152503000D01*
X106861000Y-149503000D02*
X107261000Y-149503000D01*
D12*
X106961000Y-150753000D02*
G75*
G02X106961000Y-151253000I0J-250000D01*
G01*
X106961000Y-150253000D02*
G75*
G02X106961000Y-150753000I0J-250000D01*
G01*
X106961000Y-151253000D02*
G75*
G02X106961000Y-151753000I0J-250000D01*
G01*
X106911000Y-150253000D02*
X106911000Y-149903000D01*
X106911000Y-151753000D02*
X106911000Y-152103000D01*
D10*
X91948000Y-108521500D02*
X91694000Y-108521500D01*
X91948000Y-108521500D02*
X92202000Y-108521500D01*
X91948000Y-107632500D02*
X92202000Y-107632500D01*
X91948000Y-107632500D02*
X91694000Y-107632500D01*
D13*
X116798738Y-104267000D02*
G75*
G03X116798738Y-104267000I-839738J0D01*
G01*
X116898000Y-106267000D02*
X117456800Y-106267000D01*
X114461200Y-106267000D02*
X115070800Y-106267000D01*
X116898000Y-102267000D02*
X117456800Y-102267000D01*
X114462000Y-102267000D02*
X115020800Y-102267000D01*
X117459000Y-106267000D02*
X117459000Y-102267000D01*
X114459000Y-106267000D02*
X114459000Y-102267000D01*
X93160738Y-104267000D02*
G75*
G03X93160738Y-104267000I-839738J0D01*
G01*
X93260000Y-106267000D02*
X93818800Y-106267000D01*
X90823200Y-106267000D02*
X91432800Y-106267000D01*
X93260000Y-102267000D02*
X93818800Y-102267000D01*
X90824000Y-102267000D02*
X91382800Y-102267000D01*
X93821000Y-106267000D02*
X93821000Y-102267000D01*
X90821000Y-106267000D02*
X90821000Y-102267000D01*
D10*
X97790000Y-121158000D02*
X97790000Y-120904000D01*
X97790000Y-127762000D02*
X97790000Y-127508000D01*
X110490000Y-127762000D02*
X110490000Y-127508000D01*
X110490000Y-121158000D02*
X110490000Y-120904000D01*
X97790000Y-128778000D02*
X93980000Y-128778000D01*
X94996000Y-127762000D02*
X97790000Y-127762000D01*
X94996000Y-120904000D02*
X94996000Y-127762000D01*
X97790000Y-120904000D02*
X94996000Y-120904000D01*
X113284000Y-120904000D02*
X110490000Y-120904000D01*
X113284000Y-127762000D02*
X113284000Y-120904000D01*
X110490000Y-127762000D02*
X113284000Y-127762000D01*
X96520000Y-119888000D02*
X97790000Y-119888000D01*
X96520000Y-119634000D02*
X96520000Y-119888000D01*
X95250000Y-119634000D02*
X95250000Y-119888000D01*
X96520000Y-119634000D02*
X95250000Y-119634000D01*
X110490000Y-119888000D02*
X111760000Y-119888000D01*
X113030000Y-119888000D02*
X114300000Y-119888000D01*
X111760000Y-119888000D02*
X111760000Y-119634000D01*
X113030000Y-119634000D02*
X111760000Y-119634000D01*
X113030000Y-119888000D02*
X113030000Y-119634000D01*
X97790000Y-127508000D02*
X95250000Y-127508000D01*
X113030000Y-127508000D02*
X110490000Y-127508000D01*
X93980000Y-119888000D02*
X93980000Y-128778000D01*
X114300000Y-128778000D02*
X114300000Y-119888000D01*
X114300000Y-128778000D02*
X110490000Y-128778000D01*
X93980000Y-119888000D02*
X95250000Y-119888000D01*
X95250000Y-121158000D02*
X95250000Y-127508000D01*
X113030000Y-127508000D02*
X113030000Y-121158000D01*
X110490000Y-121158000D02*
X113030000Y-121158000D01*
X95250000Y-121158000D02*
X97790000Y-121158000D01*
X95504000Y-121031000D02*
X95123000Y-121031000D01*
X95504000Y-127635000D02*
X95123000Y-127635000D01*
X112903000Y-127635000D02*
X113157000Y-127635000D01*
X112776000Y-121031000D02*
X113284000Y-121031000D01*
X95140000Y-89285000D02*
X95140000Y-95905000D01*
X113140000Y-114785000D02*
X113140000Y-114245000D01*
X113140000Y-114785000D02*
X110650000Y-114785000D01*
X95140000Y-114785000D02*
X97510000Y-114785000D01*
X95140000Y-114785000D02*
X95140000Y-114195000D01*
X113140000Y-89285000D02*
X113140000Y-95905000D01*
X94549411Y-95505000D02*
G75*
G03X94549411Y-95505000I-339411J0D01*
G01*
X95140000Y-95285000D02*
X113140000Y-95285000D01*
X95140000Y-89285000D02*
X113140000Y-89285000D01*
X93903800Y-140487400D02*
X94310200Y-140487400D01*
X95529400Y-139166600D02*
X95529400Y-139954000D01*
X94869000Y-139166600D02*
X95529400Y-139166600D01*
X92684600Y-139166600D02*
X93345000Y-139166600D01*
X92684600Y-139954000D02*
X92684600Y-139166600D01*
X117030500Y-108331000D02*
X117030500Y-108585000D01*
X117030500Y-108331000D02*
X117030500Y-108077000D01*
X116141500Y-108331000D02*
X116141500Y-108077000D01*
X116141500Y-108331000D02*
X116141500Y-108585000D01*
X115252500Y-108331000D02*
X115252500Y-108077000D01*
X115252500Y-108331000D02*
X115252500Y-108585000D01*
X116141500Y-108331000D02*
X116141500Y-108585000D01*
X116141500Y-108331000D02*
X116141500Y-108077000D01*
X116395500Y-99949000D02*
X116395500Y-100203000D01*
X116395500Y-99949000D02*
X116395500Y-99695000D01*
X115506500Y-99949000D02*
X115506500Y-99695000D01*
X115506500Y-99949000D02*
X115506500Y-100203000D01*
X103479600Y-134747000D02*
X104190800Y-134747000D01*
X103479600Y-133908800D02*
X103479600Y-134747000D01*
X106324400Y-133908800D02*
X106324400Y-134747000D01*
X105613200Y-134747000D02*
X106324400Y-134747000D01*
X95211900Y-147736560D02*
X94500700Y-147736560D01*
X95211900Y-148574760D02*
X95211900Y-147736560D01*
X92367100Y-148574760D02*
X92367100Y-147736560D01*
X93078300Y-147736560D02*
X92367100Y-147736560D01*
D13*
X93091000Y-167589200D02*
X92075000Y-167589200D01*
X92075000Y-166370000D02*
X93091000Y-166370000D01*
D14*
X91434000Y-167005000D02*
X91954000Y-167005000D01*
X91604000Y-166895000D02*
X91604000Y-167115000D01*
X91604000Y-166895000D02*
X91714000Y-166995000D01*
X91604000Y-167115000D02*
X91704000Y-167015000D01*
X91794000Y-166895000D02*
X91794000Y-167115000D01*
D15*
X91871800Y-167250600D02*
X91741800Y-167360600D01*
X91740200Y-167359600D02*
X91820200Y-167349600D01*
X91740200Y-167359600D02*
X91740200Y-167279600D01*
X91524800Y-167359600D02*
X91524800Y-167279600D01*
X91524800Y-167359600D02*
X91604800Y-167349600D01*
X91664800Y-167229600D02*
X91534800Y-167339600D01*
D10*
X93103700Y-166433500D02*
X93256100Y-166560500D01*
X93103700Y-167525700D02*
X93243400Y-167398700D01*
X93256100Y-166560500D02*
X93256100Y-167386000D01*
X93091000Y-167487600D02*
X93091000Y-166446200D01*
X115062000Y-150241000D02*
X114046000Y-150241000D01*
X115062000Y-148717000D02*
X114046000Y-148717000D01*
X110236000Y-151003000D02*
X111252000Y-151003000D01*
X110236000Y-152527000D02*
X111252000Y-152527000D01*
D13*
X93091000Y-169875200D02*
X92075000Y-169875200D01*
X92075000Y-168656000D02*
X93091000Y-168656000D01*
D14*
X91434000Y-169291000D02*
X91954000Y-169291000D01*
X91604000Y-169181000D02*
X91604000Y-169401000D01*
X91604000Y-169181000D02*
X91714000Y-169281000D01*
X91604000Y-169401000D02*
X91704000Y-169301000D01*
X91794000Y-169181000D02*
X91794000Y-169401000D01*
D15*
X91871800Y-169536600D02*
X91741800Y-169646600D01*
X91740200Y-169645600D02*
X91820200Y-169635600D01*
X91740200Y-169645600D02*
X91740200Y-169565600D01*
X91524800Y-169645600D02*
X91524800Y-169565600D01*
X91524800Y-169645600D02*
X91604800Y-169635600D01*
X91664800Y-169515600D02*
X91534800Y-169625600D01*
D10*
X93103700Y-168719500D02*
X93256100Y-168846500D01*
X93103700Y-169811700D02*
X93243400Y-169684700D01*
X93256100Y-168846500D02*
X93256100Y-169672000D01*
X93091000Y-169773600D02*
X93091000Y-168732200D01*
D13*
X98628200Y-136271000D02*
X99466400Y-136271000D01*
X98628200Y-138049000D02*
X99466400Y-138049000D01*
D10*
X110490000Y-130683000D02*
X110490000Y-132207000D01*
X112776000Y-130683000D02*
X112776000Y-132207000D01*
X103958000Y-136318000D02*
X103958000Y-139018000D01*
X107148000Y-136318000D02*
X102148000Y-136318000D01*
X103518000Y-136318000D02*
X103518000Y-139018000D01*
X102148000Y-139018000D02*
X107148000Y-139018000D01*
X94924000Y-153115000D02*
X94924000Y-150415000D01*
X91734000Y-153115000D02*
X96734000Y-153115000D01*
X95364000Y-153115000D02*
X95364000Y-150415000D01*
X96734000Y-150415000D02*
X91734000Y-150415000D01*
X112141000Y-143059000D02*
X112141000Y-143859000D01*
X112141000Y-141659000D02*
X112141000Y-141059000D01*
X109041000Y-145459000D02*
X110141000Y-145459000D01*
X115241000Y-145459000D02*
X114141000Y-145459000D01*
X109041000Y-138259000D02*
X110141000Y-138259000D01*
X115241000Y-138259000D02*
X114141000Y-138259000D01*
X111141000Y-141659000D02*
X113141000Y-141659000D01*
X111141000Y-143059000D02*
X112141000Y-141659000D01*
X113141000Y-143059000D02*
X112141000Y-141659000D01*
X111141000Y-143059000D02*
X113141000Y-143059000D01*
X109041000Y-145459000D02*
X109041000Y-138259000D01*
X115241000Y-138259000D02*
X115241000Y-145459000D01*
D16*
X115041000Y-140359000D02*
X109241000Y-140359000D01*
D10*
X102311200Y-150495000D02*
X103441500Y-150495000D01*
X102311200Y-153301700D02*
X103441500Y-153301700D01*
X99822000Y-151638000D02*
X98806000Y-151638000D01*
X99822000Y-150114000D02*
X98806000Y-150114000D01*
X96837500Y-148844000D02*
X96837500Y-149098000D01*
X96837500Y-148844000D02*
X96837500Y-148590000D01*
X95948500Y-148844000D02*
X95948500Y-148590000D01*
X95948500Y-148844000D02*
X95948500Y-149098000D01*
X95948500Y-139192000D02*
X95948500Y-138938000D01*
X95948500Y-139192000D02*
X95948500Y-139446000D01*
X96837500Y-139192000D02*
X96837500Y-139446000D01*
X96837500Y-139192000D02*
X96837500Y-138938000D01*
X113982500Y-147574000D02*
X113982500Y-147828000D01*
X113982500Y-147574000D02*
X113982500Y-147320000D01*
X113093500Y-147574000D02*
X113093500Y-147320000D01*
X113093500Y-147574000D02*
X113093500Y-147828000D01*
X99123500Y-152654000D02*
X99123500Y-152908000D01*
X99123500Y-152654000D02*
X99123500Y-152400000D01*
X98234500Y-152654000D02*
X98234500Y-152400000D01*
X98234500Y-152654000D02*
X98234500Y-152908000D01*
X100139500Y-152654000D02*
X100139500Y-152908000D01*
X100139500Y-152654000D02*
X100139500Y-152400000D01*
X99250500Y-152654000D02*
X99250500Y-152400000D01*
X99250500Y-152654000D02*
X99250500Y-152908000D01*
X116205000Y-110807500D02*
X116459000Y-110807500D01*
X116205000Y-110807500D02*
X115951000Y-110807500D01*
X116205000Y-111696500D02*
X115951000Y-111696500D01*
X116205000Y-111696500D02*
X116459000Y-111696500D01*
X116205000Y-109918500D02*
X116459000Y-109918500D01*
X116205000Y-109918500D02*
X115951000Y-109918500D01*
X116205000Y-110807500D02*
X115951000Y-110807500D01*
X116205000Y-110807500D02*
X116459000Y-110807500D01*
X115062000Y-114871500D02*
X115316000Y-114871500D01*
X115062000Y-114871500D02*
X114808000Y-114871500D01*
X115062000Y-115760500D02*
X114808000Y-115760500D01*
X115062000Y-115760500D02*
X115316000Y-115760500D01*
X116205000Y-113474500D02*
X115951000Y-113474500D01*
X116205000Y-113474500D02*
X116459000Y-113474500D01*
X116205000Y-112585500D02*
X116459000Y-112585500D01*
X116205000Y-112585500D02*
X115951000Y-112585500D01*
X108648500Y-140462000D02*
X108648500Y-140716000D01*
X108648500Y-140462000D02*
X108648500Y-140208000D01*
X107759500Y-140462000D02*
X107759500Y-140208000D01*
X107759500Y-140462000D02*
X107759500Y-140716000D01*
X101727000Y-134874000D02*
X101727000Y-133350000D01*
X99441000Y-134874000D02*
X99441000Y-133350000D01*
X99441000Y-134239000D02*
X99441000Y-132715000D01*
X97155000Y-134239000D02*
X97155000Y-132715000D01*
X103251000Y-134112000D02*
X103251000Y-135128000D01*
X101727000Y-134112000D02*
X101727000Y-135128000D01*
D13*
X116586000Y-152984200D02*
X115570000Y-152984200D01*
X115570000Y-151765000D02*
X116586000Y-151765000D01*
D14*
X114929000Y-152400000D02*
X115449000Y-152400000D01*
X115099000Y-152290000D02*
X115099000Y-152510000D01*
X115099000Y-152290000D02*
X115209000Y-152390000D01*
X115099000Y-152510000D02*
X115199000Y-152410000D01*
X115289000Y-152290000D02*
X115289000Y-152510000D01*
D15*
X115366800Y-152645600D02*
X115236800Y-152755600D01*
X115235200Y-152754600D02*
X115315200Y-152744600D01*
X115235200Y-152754600D02*
X115235200Y-152674600D01*
X115019800Y-152754600D02*
X115019800Y-152674600D01*
X115019800Y-152754600D02*
X115099800Y-152744600D01*
X115159800Y-152624600D02*
X115029800Y-152734600D01*
D10*
X116598700Y-151828500D02*
X116751100Y-151955500D01*
X116598700Y-152920700D02*
X116738400Y-152793700D01*
X116751100Y-151955500D02*
X116751100Y-152781000D01*
X116586000Y-152882600D02*
X116586000Y-151841200D01*
D13*
X116586000Y-151460200D02*
X115570000Y-151460200D01*
X115570000Y-150241000D02*
X116586000Y-150241000D01*
D14*
X114929000Y-150876000D02*
X115449000Y-150876000D01*
X115099000Y-150766000D02*
X115099000Y-150986000D01*
X115099000Y-150766000D02*
X115209000Y-150866000D01*
X115099000Y-150986000D02*
X115199000Y-150886000D01*
X115289000Y-150766000D02*
X115289000Y-150986000D01*
D15*
X115366800Y-151121600D02*
X115236800Y-151231600D01*
X115235200Y-151230600D02*
X115315200Y-151220600D01*
X115235200Y-151230600D02*
X115235200Y-151150600D01*
X115019800Y-151230600D02*
X115019800Y-151150600D01*
X115019800Y-151230600D02*
X115099800Y-151220600D01*
X115159800Y-151100600D02*
X115029800Y-151210600D01*
D10*
X116598700Y-150304500D02*
X116751100Y-150431500D01*
X116598700Y-151396700D02*
X116738400Y-151269700D01*
X116751100Y-150431500D02*
X116751100Y-151257000D01*
X116586000Y-151358600D02*
X116586000Y-150317200D01*
X92710000Y-113347500D02*
X92456000Y-113347500D01*
X92710000Y-113347500D02*
X92964000Y-113347500D01*
X92710000Y-112458500D02*
X92964000Y-112458500D01*
X92710000Y-112458500D02*
X92456000Y-112458500D01*
X113773857Y-133458857D02*
X113725476Y-133507238D01*
X113580333Y-133555619D01*
X113483571Y-133555619D01*
X113338428Y-133507238D01*
X113241666Y-133410476D01*
X113193285Y-133313714D01*
X113144904Y-133120190D01*
X113144904Y-132975047D01*
X113193285Y-132781523D01*
X113241666Y-132684761D01*
X113338428Y-132588000D01*
X113483571Y-132539619D01*
X113580333Y-132539619D01*
X113725476Y-132588000D01*
X113773857Y-132636380D01*
X114160904Y-132636380D02*
X114209285Y-132588000D01*
X114306047Y-132539619D01*
X114547952Y-132539619D01*
X114644714Y-132588000D01*
X114693095Y-132636380D01*
X114741476Y-132733142D01*
X114741476Y-132829904D01*
X114693095Y-132975047D01*
X114112523Y-133555619D01*
X114741476Y-133555619D01*
X115080142Y-132539619D02*
X115757476Y-132539619D01*
X115322047Y-133555619D01*
X114657190Y-135472714D02*
X115624809Y-135472714D01*
X115141000Y-135956523D02*
X115141000Y-134988904D01*
X114657190Y-135472714D02*
X115624809Y-135472714D01*
X115141000Y-135956523D02*
X115141000Y-134988904D01*
X94596857Y-132315857D02*
X94548476Y-132364238D01*
X94403333Y-132412619D01*
X94306571Y-132412619D01*
X94161428Y-132364238D01*
X94064666Y-132267476D01*
X94016285Y-132170714D01*
X93967904Y-131977190D01*
X93967904Y-131832047D01*
X94016285Y-131638523D01*
X94064666Y-131541761D01*
X94161428Y-131445000D01*
X94306571Y-131396619D01*
X94403333Y-131396619D01*
X94548476Y-131445000D01*
X94596857Y-131493380D01*
X94983904Y-131493380D02*
X95032285Y-131445000D01*
X95129047Y-131396619D01*
X95370952Y-131396619D01*
X95467714Y-131445000D01*
X95516095Y-131493380D01*
X95564476Y-131590142D01*
X95564476Y-131686904D01*
X95516095Y-131832047D01*
X94935523Y-132412619D01*
X95564476Y-132412619D01*
X96048285Y-132412619D02*
X96241809Y-132412619D01*
X96338571Y-132364238D01*
X96386952Y-132315857D01*
X96483714Y-132170714D01*
X96532095Y-131977190D01*
X96532095Y-131590142D01*
X96483714Y-131493380D01*
X96435333Y-131445000D01*
X96338571Y-131396619D01*
X96145047Y-131396619D01*
X96048285Y-131445000D01*
X95999904Y-131493380D01*
X95951523Y-131590142D01*
X95951523Y-131832047D01*
X95999904Y-131928809D01*
X96048285Y-131977190D01*
X96145047Y-132025571D01*
X96338571Y-132025571D01*
X96435333Y-131977190D01*
X96483714Y-131928809D01*
X96532095Y-131832047D01*
X94832714Y-132238809D02*
X94832714Y-131271190D01*
X95316523Y-131755000D02*
X94348904Y-131755000D01*
X94832714Y-132238809D02*
X94832714Y-131271190D01*
X95316523Y-131755000D02*
X94348904Y-131755000D01*
D17*
X91149714Y-164410571D02*
X91258571Y-164446857D01*
X91294857Y-164483142D01*
X91331142Y-164555714D01*
X91331142Y-164664571D01*
X91294857Y-164737142D01*
X91258571Y-164773428D01*
X91186000Y-164809714D01*
X90895714Y-164809714D01*
X90895714Y-164047714D01*
X91149714Y-164047714D01*
X91222285Y-164084000D01*
X91258571Y-164120285D01*
X91294857Y-164192857D01*
X91294857Y-164265428D01*
X91258571Y-164338000D01*
X91222285Y-164374285D01*
X91149714Y-164410571D01*
X90895714Y-164410571D01*
X91621428Y-164592000D02*
X91984285Y-164592000D01*
X91548857Y-164809714D02*
X91802857Y-164047714D01*
X92056857Y-164809714D01*
X92202000Y-164047714D02*
X92637428Y-164047714D01*
X92419714Y-164809714D02*
X92419714Y-164047714D01*
X93290571Y-164809714D02*
X92855142Y-164809714D01*
X93072857Y-164809714D02*
X93072857Y-164047714D01*
X93000285Y-164156571D01*
X92927714Y-164229142D01*
X92855142Y-164265428D01*
D18*
X99423461Y-160090152D02*
X99937509Y-160090152D01*
X99997985Y-160059914D01*
X100028223Y-160029676D01*
X100058461Y-159969200D01*
X100058461Y-159848247D01*
X100028223Y-159787771D01*
X99997985Y-159757533D01*
X99937509Y-159727295D01*
X99423461Y-159727295D01*
X100028223Y-159455152D02*
X100058461Y-159364438D01*
X100058461Y-159213247D01*
X100028223Y-159152771D01*
X99997985Y-159122533D01*
X99937509Y-159092295D01*
X99877033Y-159092295D01*
X99816557Y-159122533D01*
X99786319Y-159152771D01*
X99756080Y-159213247D01*
X99725842Y-159334200D01*
X99695604Y-159394676D01*
X99665366Y-159424914D01*
X99604890Y-159455152D01*
X99544414Y-159455152D01*
X99483938Y-159424914D01*
X99453700Y-159394676D01*
X99423461Y-159334200D01*
X99423461Y-159183009D01*
X99453700Y-159092295D01*
X99725842Y-158608485D02*
X99756080Y-158517771D01*
X99786319Y-158487533D01*
X99846795Y-158457295D01*
X99937509Y-158457295D01*
X99997985Y-158487533D01*
X100028223Y-158517771D01*
X100058461Y-158578247D01*
X100058461Y-158820152D01*
X99423461Y-158820152D01*
X99423461Y-158608485D01*
X99453700Y-158548009D01*
X99483938Y-158517771D01*
X99544414Y-158487533D01*
X99604890Y-158487533D01*
X99665366Y-158517771D01*
X99695604Y-158548009D01*
X99725842Y-158608485D01*
X99725842Y-158820152D01*
X99816557Y-158185152D02*
X99816557Y-157701342D01*
X99423461Y-157398961D02*
X99937509Y-157398961D01*
X99997985Y-157368723D01*
X100028223Y-157338485D01*
X100058461Y-157278009D01*
X100058461Y-157157057D01*
X100028223Y-157096580D01*
X99997985Y-157066342D01*
X99937509Y-157036104D01*
X99423461Y-157036104D01*
X99877033Y-156763961D02*
X99877033Y-156461580D01*
X100058461Y-156824438D02*
X99423461Y-156612771D01*
X100058461Y-156401104D01*
X100058461Y-155826580D02*
X99756080Y-156038247D01*
X100058461Y-156189438D02*
X99423461Y-156189438D01*
X99423461Y-155947533D01*
X99453700Y-155887057D01*
X99483938Y-155856819D01*
X99544414Y-155826580D01*
X99635128Y-155826580D01*
X99695604Y-155856819D01*
X99725842Y-155887057D01*
X99756080Y-155947533D01*
X99756080Y-156189438D01*
X99423461Y-155645152D02*
X99423461Y-155282295D01*
X100058461Y-155463723D02*
X99423461Y-155463723D01*
X100058461Y-154738009D02*
X100058461Y-155100866D01*
X100058461Y-154919438D02*
X99423461Y-154919438D01*
X99514176Y-154979914D01*
X99574652Y-155040390D01*
X99604890Y-155100866D01*
D10*
X93429666Y-145747619D02*
X92945857Y-145747619D01*
X92945857Y-144731619D01*
X94203761Y-145070285D02*
X94203761Y-145747619D01*
X93961857Y-144683238D02*
X93719952Y-145408952D01*
X94348904Y-145408952D01*
D17*
X117692714Y-158913285D02*
X117692714Y-159276142D01*
X116930714Y-159276142D01*
X117475000Y-158695571D02*
X117475000Y-158332714D01*
X117692714Y-158768142D02*
X116930714Y-158514142D01*
X117692714Y-158260142D01*
X117692714Y-158006142D02*
X116930714Y-158006142D01*
X117692714Y-157570714D01*
X116930714Y-157570714D01*
X117765285Y-157389285D02*
X117765285Y-156808714D01*
X117620142Y-156191857D02*
X117656428Y-156228142D01*
X117692714Y-156337000D01*
X117692714Y-156409571D01*
X117656428Y-156518428D01*
X117583857Y-156591000D01*
X117511285Y-156627285D01*
X117366142Y-156663571D01*
X117257285Y-156663571D01*
X117112142Y-156627285D01*
X117039571Y-156591000D01*
X116967000Y-156518428D01*
X116930714Y-156409571D01*
X116930714Y-156337000D01*
X116967000Y-156228142D01*
X117003285Y-156191857D01*
X116930714Y-155720142D02*
X116930714Y-155575000D01*
X116967000Y-155502428D01*
X117039571Y-155429857D01*
X117184714Y-155393571D01*
X117438714Y-155393571D01*
X117583857Y-155429857D01*
X117656428Y-155502428D01*
X117692714Y-155575000D01*
X117692714Y-155720142D01*
X117656428Y-155792714D01*
X117583857Y-155865285D01*
X117438714Y-155901571D01*
X117184714Y-155901571D01*
X117039571Y-155865285D01*
X116967000Y-155792714D01*
X116930714Y-155720142D01*
X117692714Y-155067000D02*
X116930714Y-155067000D01*
X117692714Y-154631571D01*
X116930714Y-154631571D01*
X117692714Y-153869571D02*
X117692714Y-154305000D01*
X117692714Y-154087285D02*
X116930714Y-154087285D01*
X117039571Y-154159857D01*
X117112142Y-154232428D01*
X117148428Y-154305000D01*
X105410000Y-153506714D02*
X105047142Y-153506714D01*
X105047142Y-152744714D01*
X105627714Y-152817285D02*
X105664000Y-152781000D01*
X105736571Y-152744714D01*
X105918000Y-152744714D01*
X105990571Y-152781000D01*
X106026857Y-152817285D01*
X106063142Y-152889857D01*
X106063142Y-152962428D01*
X106026857Y-153071285D01*
X105591428Y-153506714D01*
X106063142Y-153506714D01*
X93816714Y-109328857D02*
X93453857Y-109582857D01*
X93816714Y-109764285D02*
X93054714Y-109764285D01*
X93054714Y-109474000D01*
X93091000Y-109401428D01*
X93127285Y-109365142D01*
X93199857Y-109328857D01*
X93308714Y-109328857D01*
X93381285Y-109365142D01*
X93417571Y-109401428D01*
X93453857Y-109474000D01*
X93453857Y-109764285D01*
X93054714Y-109074857D02*
X93054714Y-108603142D01*
X93345000Y-108857142D01*
X93345000Y-108748285D01*
X93381285Y-108675714D01*
X93417571Y-108639428D01*
X93490142Y-108603142D01*
X93671571Y-108603142D01*
X93744142Y-108639428D01*
X93780428Y-108675714D01*
X93816714Y-108748285D01*
X93816714Y-108966000D01*
X93780428Y-109038571D01*
X93744142Y-109074857D01*
X93127285Y-108312857D02*
X93091000Y-108276571D01*
X93054714Y-108204000D01*
X93054714Y-108022571D01*
X93091000Y-107950000D01*
X93127285Y-107913714D01*
X93199857Y-107877428D01*
X93272428Y-107877428D01*
X93381285Y-107913714D01*
X93816714Y-108349142D01*
X93816714Y-107877428D01*
X117230071Y-100565857D02*
X117266357Y-100457000D01*
X117302642Y-100420714D01*
X117375214Y-100384428D01*
X117484071Y-100384428D01*
X117556642Y-100420714D01*
X117592928Y-100457000D01*
X117629214Y-100529571D01*
X117629214Y-100819857D01*
X116867214Y-100819857D01*
X116867214Y-100565857D01*
X116903500Y-100493285D01*
X116939785Y-100457000D01*
X117012357Y-100420714D01*
X117084928Y-100420714D01*
X117157500Y-100457000D01*
X117193785Y-100493285D01*
X117230071Y-100565857D01*
X117230071Y-100819857D01*
X116867214Y-100057857D02*
X117484071Y-100057857D01*
X117556642Y-100021571D01*
X117592928Y-99985285D01*
X117629214Y-99912714D01*
X117629214Y-99767571D01*
X117592928Y-99695000D01*
X117556642Y-99658714D01*
X117484071Y-99622428D01*
X116867214Y-99622428D01*
X116867214Y-99368428D02*
X116867214Y-98933000D01*
X117629214Y-99150714D02*
X116867214Y-99150714D01*
X117629214Y-98279857D02*
X117629214Y-98715285D01*
X117629214Y-98497571D02*
X116867214Y-98497571D01*
X116976071Y-98570142D01*
X117048642Y-98642714D01*
X117084928Y-98715285D01*
X91530714Y-100475142D02*
X91167857Y-100729142D01*
X91530714Y-100910571D02*
X90768714Y-100910571D01*
X90768714Y-100620285D01*
X90805000Y-100547714D01*
X90841285Y-100511428D01*
X90913857Y-100475142D01*
X91022714Y-100475142D01*
X91095285Y-100511428D01*
X91131571Y-100547714D01*
X91167857Y-100620285D01*
X91167857Y-100910571D01*
X91494428Y-100184857D02*
X91530714Y-100076000D01*
X91530714Y-99894571D01*
X91494428Y-99822000D01*
X91458142Y-99785714D01*
X91385571Y-99749428D01*
X91313000Y-99749428D01*
X91240428Y-99785714D01*
X91204142Y-99822000D01*
X91167857Y-99894571D01*
X91131571Y-100039714D01*
X91095285Y-100112285D01*
X91059000Y-100148571D01*
X90986428Y-100184857D01*
X90913857Y-100184857D01*
X90841285Y-100148571D01*
X90805000Y-100112285D01*
X90768714Y-100039714D01*
X90768714Y-99858285D01*
X90805000Y-99749428D01*
X90768714Y-99531714D02*
X90768714Y-99096285D01*
X91530714Y-99314000D02*
X90768714Y-99314000D01*
X91530714Y-98443142D02*
X91530714Y-98878571D01*
X91530714Y-98660857D02*
X90768714Y-98660857D01*
X90877571Y-98733428D01*
X90950142Y-98806000D01*
X90986428Y-98878571D01*
D10*
X94796428Y-117553619D02*
X94796428Y-118376095D01*
X94844809Y-118472857D01*
X94893190Y-118521238D01*
X94989952Y-118569619D01*
X95183476Y-118569619D01*
X95280238Y-118521238D01*
X95328619Y-118472857D01*
X95377000Y-118376095D01*
X95377000Y-117553619D01*
X95860809Y-118037428D02*
X96199476Y-118037428D01*
X96344619Y-118569619D02*
X95860809Y-118569619D01*
X95860809Y-117553619D01*
X96344619Y-117553619D01*
X96683285Y-117553619D02*
X97360619Y-118569619D01*
X97360619Y-117553619D02*
X96683285Y-118569619D01*
X97602523Y-117553619D02*
X98183095Y-117553619D01*
X97892809Y-118569619D02*
X97892809Y-117553619D01*
X99053952Y-118569619D02*
X98473380Y-118569619D01*
X98763666Y-118569619D02*
X98763666Y-117553619D01*
X98666904Y-117698761D01*
X98570142Y-117795523D01*
X98473380Y-117843904D01*
X96792142Y-122488476D02*
X96852619Y-122428000D01*
X96973571Y-122367523D01*
X97275952Y-122367523D01*
X97396904Y-122428000D01*
X97457380Y-122488476D01*
X97517857Y-122609428D01*
X97517857Y-122730380D01*
X97457380Y-122911809D01*
X96731666Y-123637523D01*
X97517857Y-123637523D01*
X97517857Y-126177523D02*
X96792142Y-126177523D01*
X97155000Y-126177523D02*
X97155000Y-124907523D01*
X97034047Y-125088952D01*
X96913095Y-125209904D01*
X96792142Y-125270380D01*
X92661619Y-99834095D02*
X93484095Y-99834095D01*
X93580857Y-99785714D01*
X93629238Y-99737333D01*
X93677619Y-99640571D01*
X93677619Y-99447047D01*
X93629238Y-99350285D01*
X93580857Y-99301904D01*
X93484095Y-99253523D01*
X92661619Y-99253523D01*
X93677619Y-98721333D02*
X93677619Y-98527809D01*
X93629238Y-98431047D01*
X93580857Y-98382666D01*
X93435714Y-98285904D01*
X93242190Y-98237523D01*
X92855142Y-98237523D01*
X92758380Y-98285904D01*
X92710000Y-98334285D01*
X92661619Y-98431047D01*
X92661619Y-98624571D01*
X92710000Y-98721333D01*
X92758380Y-98769714D01*
X92855142Y-98818095D01*
X93097047Y-98818095D01*
X93193809Y-98769714D01*
X93242190Y-98721333D01*
X93290571Y-98624571D01*
X93290571Y-98431047D01*
X93242190Y-98334285D01*
X93193809Y-98285904D01*
X93097047Y-98237523D01*
X92849095Y-143207619D02*
X92849095Y-142191619D01*
X93091000Y-142191619D01*
X93236142Y-142240000D01*
X93332904Y-142336761D01*
X93381285Y-142433523D01*
X93429666Y-142627047D01*
X93429666Y-142772190D01*
X93381285Y-142965714D01*
X93332904Y-143062476D01*
X93236142Y-143159238D01*
X93091000Y-143207619D01*
X92849095Y-143207619D01*
X93816714Y-142288380D02*
X93865095Y-142240000D01*
X93961857Y-142191619D01*
X94203761Y-142191619D01*
X94300523Y-142240000D01*
X94348904Y-142288380D01*
X94397285Y-142385142D01*
X94397285Y-142481904D01*
X94348904Y-142627047D01*
X93768333Y-143207619D01*
X94397285Y-143207619D01*
D18*
X118016261Y-108739214D02*
X117713880Y-108950880D01*
X118016261Y-109102071D02*
X117381261Y-109102071D01*
X117381261Y-108860166D01*
X117411500Y-108799690D01*
X117441738Y-108769452D01*
X117502214Y-108739214D01*
X117592928Y-108739214D01*
X117653404Y-108769452D01*
X117683642Y-108799690D01*
X117713880Y-108860166D01*
X117713880Y-109102071D01*
X117592928Y-108194928D02*
X118016261Y-108194928D01*
X117351023Y-108346119D02*
X117804595Y-108497309D01*
X117804595Y-108104214D01*
X117653404Y-107771595D02*
X117623166Y-107832071D01*
X117592928Y-107862309D01*
X117532452Y-107892547D01*
X117502214Y-107892547D01*
X117441738Y-107862309D01*
X117411500Y-107832071D01*
X117381261Y-107771595D01*
X117381261Y-107650642D01*
X117411500Y-107590166D01*
X117441738Y-107559928D01*
X117502214Y-107529690D01*
X117532452Y-107529690D01*
X117592928Y-107559928D01*
X117623166Y-107590166D01*
X117653404Y-107650642D01*
X117653404Y-107771595D01*
X117683642Y-107832071D01*
X117713880Y-107862309D01*
X117774357Y-107892547D01*
X117895309Y-107892547D01*
X117955785Y-107862309D01*
X117986023Y-107832071D01*
X118016261Y-107771595D01*
X118016261Y-107650642D01*
X117986023Y-107590166D01*
X117955785Y-107559928D01*
X117895309Y-107529690D01*
X117774357Y-107529690D01*
X117713880Y-107559928D01*
X117683642Y-107590166D01*
X117653404Y-107650642D01*
X114968261Y-108231214D02*
X114665880Y-108442880D01*
X114968261Y-108594071D02*
X114333261Y-108594071D01*
X114333261Y-108352166D01*
X114363500Y-108291690D01*
X114393738Y-108261452D01*
X114454214Y-108231214D01*
X114544928Y-108231214D01*
X114605404Y-108261452D01*
X114635642Y-108291690D01*
X114665880Y-108352166D01*
X114665880Y-108594071D01*
X114544928Y-107686928D02*
X114968261Y-107686928D01*
X114303023Y-107838119D02*
X114756595Y-107989309D01*
X114756595Y-107596214D01*
X114968261Y-107324071D02*
X114968261Y-107203119D01*
X114938023Y-107142642D01*
X114907785Y-107112404D01*
X114817071Y-107051928D01*
X114696119Y-107021690D01*
X114454214Y-107021690D01*
X114393738Y-107051928D01*
X114363500Y-107082166D01*
X114333261Y-107142642D01*
X114333261Y-107263595D01*
X114363500Y-107324071D01*
X114393738Y-107354309D01*
X114454214Y-107384547D01*
X114605404Y-107384547D01*
X114665880Y-107354309D01*
X114696119Y-107324071D01*
X114726357Y-107263595D01*
X114726357Y-107142642D01*
X114696119Y-107082166D01*
X114665880Y-107051928D01*
X114605404Y-107021690D01*
D17*
X115025714Y-100311857D02*
X114662857Y-100565857D01*
X115025714Y-100747285D02*
X114263714Y-100747285D01*
X114263714Y-100457000D01*
X114300000Y-100384428D01*
X114336285Y-100348142D01*
X114408857Y-100311857D01*
X114517714Y-100311857D01*
X114590285Y-100348142D01*
X114626571Y-100384428D01*
X114662857Y-100457000D01*
X114662857Y-100747285D01*
X114517714Y-99658714D02*
X115025714Y-99658714D01*
X114227428Y-99840142D02*
X114771714Y-100021571D01*
X114771714Y-99549857D01*
X114263714Y-99332142D02*
X114263714Y-98824142D01*
X115025714Y-99150714D01*
X107006571Y-134239000D02*
X107006571Y-134493000D01*
X107405714Y-134493000D02*
X106643714Y-134493000D01*
X106643714Y-134130142D01*
X107006571Y-133839857D02*
X107006571Y-133585857D01*
X107405714Y-133477000D02*
X107405714Y-133839857D01*
X106643714Y-133839857D01*
X106643714Y-133477000D01*
X106643714Y-133259285D02*
X106643714Y-132823857D01*
X107405714Y-133041571D02*
X106643714Y-133041571D01*
X107405714Y-132170714D02*
X107405714Y-132606142D01*
X107405714Y-132388428D02*
X106643714Y-132388428D01*
X106752571Y-132461000D01*
X106825142Y-132533571D01*
X106861428Y-132606142D01*
X91258571Y-149352000D02*
X91258571Y-149606000D01*
X91657714Y-149606000D02*
X90895714Y-149606000D01*
X90895714Y-149243142D01*
X91258571Y-148952857D02*
X91258571Y-148698857D01*
X91657714Y-148590000D02*
X91657714Y-148952857D01*
X90895714Y-148952857D01*
X90895714Y-148590000D01*
X90895714Y-148372285D02*
X90895714Y-147936857D01*
X91657714Y-148154571D02*
X90895714Y-148154571D01*
X90968285Y-147719142D02*
X90932000Y-147682857D01*
X90895714Y-147610285D01*
X90895714Y-147428857D01*
X90932000Y-147356285D01*
X90968285Y-147320000D01*
X91040857Y-147283714D01*
X91113428Y-147283714D01*
X91222285Y-147320000D01*
X91657714Y-147755428D01*
X91657714Y-147283714D01*
D18*
X90798347Y-166088785D02*
X90768109Y-166119023D01*
X90677395Y-166149261D01*
X90616919Y-166149261D01*
X90526204Y-166119023D01*
X90465728Y-166058547D01*
X90435490Y-165998071D01*
X90405252Y-165877119D01*
X90405252Y-165786404D01*
X90435490Y-165665452D01*
X90465728Y-165604976D01*
X90526204Y-165544500D01*
X90616919Y-165514261D01*
X90677395Y-165514261D01*
X90768109Y-165544500D01*
X90798347Y-165574738D01*
X91070490Y-166149261D02*
X91070490Y-165514261D01*
X91070490Y-165816642D02*
X91433347Y-165816642D01*
X91433347Y-166149261D02*
X91433347Y-165514261D01*
X92098585Y-166149261D02*
X91886919Y-165846880D01*
X91735728Y-166149261D02*
X91735728Y-165514261D01*
X91977633Y-165514261D01*
X92038109Y-165544500D01*
X92068347Y-165574738D01*
X92098585Y-165635214D01*
X92098585Y-165725928D01*
X92068347Y-165786404D01*
X92038109Y-165816642D01*
X91977633Y-165846880D01*
X91735728Y-165846880D01*
X92703347Y-165544500D02*
X92642871Y-165514261D01*
X92552157Y-165514261D01*
X92461442Y-165544500D01*
X92400966Y-165604976D01*
X92370728Y-165665452D01*
X92340490Y-165786404D01*
X92340490Y-165877119D01*
X92370728Y-165998071D01*
X92400966Y-166058547D01*
X92461442Y-166119023D01*
X92552157Y-166149261D01*
X92612633Y-166149261D01*
X92703347Y-166119023D01*
X92733585Y-166088785D01*
X92733585Y-165877119D01*
X92612633Y-165877119D01*
X93338347Y-166149261D02*
X92975490Y-166149261D01*
X93156919Y-166149261D02*
X93156919Y-165514261D01*
X93096442Y-165604976D01*
X93035966Y-165665452D01*
X92975490Y-165695690D01*
X116685785Y-149832785D02*
X116655547Y-149863023D01*
X116564833Y-149893261D01*
X116504357Y-149893261D01*
X116413642Y-149863023D01*
X116353166Y-149802547D01*
X116322928Y-149742071D01*
X116292690Y-149621119D01*
X116292690Y-149530404D01*
X116322928Y-149409452D01*
X116353166Y-149348976D01*
X116413642Y-149288500D01*
X116504357Y-149258261D01*
X116564833Y-149258261D01*
X116655547Y-149288500D01*
X116685785Y-149318738D01*
X116927690Y-149318738D02*
X116957928Y-149288500D01*
X117018404Y-149258261D01*
X117169595Y-149258261D01*
X117230071Y-149288500D01*
X117260309Y-149318738D01*
X117290547Y-149379214D01*
X117290547Y-149439690D01*
X117260309Y-149530404D01*
X116897452Y-149893261D01*
X117290547Y-149893261D01*
X117895309Y-149893261D02*
X117532452Y-149893261D01*
X117713880Y-149893261D02*
X117713880Y-149258261D01*
X117653404Y-149348976D01*
X117592928Y-149409452D01*
X117532452Y-149439690D01*
D17*
X108476142Y-153434142D02*
X108439857Y-153470428D01*
X108331000Y-153506714D01*
X108258428Y-153506714D01*
X108149571Y-153470428D01*
X108077000Y-153397857D01*
X108040714Y-153325285D01*
X108004428Y-153180142D01*
X108004428Y-153071285D01*
X108040714Y-152926142D01*
X108077000Y-152853571D01*
X108149571Y-152781000D01*
X108258428Y-152744714D01*
X108331000Y-152744714D01*
X108439857Y-152781000D01*
X108476142Y-152817285D01*
X108766428Y-152817285D02*
X108802714Y-152781000D01*
X108875285Y-152744714D01*
X109056714Y-152744714D01*
X109129285Y-152781000D01*
X109165571Y-152817285D01*
X109201857Y-152889857D01*
X109201857Y-152962428D01*
X109165571Y-153071285D01*
X108730142Y-153506714D01*
X109201857Y-153506714D01*
X109492142Y-152817285D02*
X109528428Y-152781000D01*
X109601000Y-152744714D01*
X109782428Y-152744714D01*
X109855000Y-152781000D01*
X109891285Y-152817285D01*
X109927571Y-152889857D01*
X109927571Y-152962428D01*
X109891285Y-153071285D01*
X109455857Y-153506714D01*
X109927571Y-153506714D01*
D18*
X90544952Y-168435261D02*
X90544952Y-167800261D01*
X90786857Y-167800261D01*
X90847333Y-167830500D01*
X90877571Y-167860738D01*
X90907809Y-167921214D01*
X90907809Y-168011928D01*
X90877571Y-168072404D01*
X90847333Y-168102642D01*
X90786857Y-168132880D01*
X90544952Y-168132880D01*
X91119476Y-167800261D02*
X91270666Y-168435261D01*
X91391619Y-167981690D01*
X91512571Y-168435261D01*
X91663761Y-167800261D01*
X92268523Y-168435261D02*
X92056857Y-168132880D01*
X91905666Y-168435261D02*
X91905666Y-167800261D01*
X92147571Y-167800261D01*
X92208047Y-167830500D01*
X92238285Y-167860738D01*
X92268523Y-167921214D01*
X92268523Y-168011928D01*
X92238285Y-168072404D01*
X92208047Y-168102642D01*
X92147571Y-168132880D01*
X91905666Y-168132880D01*
X92873285Y-168435261D02*
X92510428Y-168435261D01*
X92691857Y-168435261D02*
X92691857Y-167800261D01*
X92631380Y-167890976D01*
X92570904Y-167951452D01*
X92510428Y-167981690D01*
D17*
X97917000Y-138901714D02*
X97554142Y-138901714D01*
X97554142Y-138139714D01*
X98497571Y-138139714D02*
X98352428Y-138139714D01*
X98279857Y-138176000D01*
X98243571Y-138212285D01*
X98171000Y-138321142D01*
X98134714Y-138466285D01*
X98134714Y-138756571D01*
X98171000Y-138829142D01*
X98207285Y-138865428D01*
X98279857Y-138901714D01*
X98425000Y-138901714D01*
X98497571Y-138865428D01*
X98533857Y-138829142D01*
X98570142Y-138756571D01*
X98570142Y-138575142D01*
X98533857Y-138502571D01*
X98497571Y-138466285D01*
X98425000Y-138430000D01*
X98279857Y-138430000D01*
X98207285Y-138466285D01*
X98171000Y-138502571D01*
X98134714Y-138575142D01*
D10*
X114662857Y-131209142D02*
X114711238Y-131257523D01*
X114759619Y-131402666D01*
X114759619Y-131499428D01*
X114711238Y-131644571D01*
X114614476Y-131741333D01*
X114517714Y-131789714D01*
X114324190Y-131838095D01*
X114179047Y-131838095D01*
X113985523Y-131789714D01*
X113888761Y-131741333D01*
X113792000Y-131644571D01*
X113743619Y-131499428D01*
X113743619Y-131402666D01*
X113792000Y-131257523D01*
X113840380Y-131209142D01*
X113840380Y-130822095D02*
X113792000Y-130773714D01*
X113743619Y-130676952D01*
X113743619Y-130435047D01*
X113792000Y-130338285D01*
X113840380Y-130289904D01*
X113937142Y-130241523D01*
X114033904Y-130241523D01*
X114179047Y-130289904D01*
X114759619Y-130870476D01*
X114759619Y-130241523D01*
X114082285Y-129370666D02*
X114759619Y-129370666D01*
X113695238Y-129612571D02*
X114420952Y-129854476D01*
X114420952Y-129225523D01*
D17*
X99894571Y-138901714D02*
X99894571Y-138139714D01*
X100076000Y-138139714D01*
X100184857Y-138176000D01*
X100257428Y-138248571D01*
X100293714Y-138321142D01*
X100330000Y-138466285D01*
X100330000Y-138575142D01*
X100293714Y-138720285D01*
X100257428Y-138792857D01*
X100184857Y-138865428D01*
X100076000Y-138901714D01*
X99894571Y-138901714D01*
X101055714Y-138901714D02*
X100620285Y-138901714D01*
X100838000Y-138901714D02*
X100838000Y-138139714D01*
X100765428Y-138248571D01*
X100692857Y-138321142D01*
X100620285Y-138357428D01*
D18*
X91733309Y-154084261D02*
X91733309Y-153449261D01*
X91884500Y-153449261D01*
X91975214Y-153479500D01*
X92035690Y-153539976D01*
X92065928Y-153600452D01*
X92096166Y-153721404D01*
X92096166Y-153812119D01*
X92065928Y-153933071D01*
X92035690Y-153993547D01*
X91975214Y-154054023D01*
X91884500Y-154084261D01*
X91733309Y-154084261D01*
X92307833Y-153449261D02*
X92700928Y-153449261D01*
X92489261Y-153691166D01*
X92579976Y-153691166D01*
X92640452Y-153721404D01*
X92670690Y-153751642D01*
X92700928Y-153812119D01*
X92700928Y-153963309D01*
X92670690Y-154023785D01*
X92640452Y-154054023D01*
X92579976Y-154084261D01*
X92398547Y-154084261D01*
X92338071Y-154054023D01*
X92307833Y-154023785D01*
D17*
X110199714Y-146993428D02*
X109437714Y-146993428D01*
X109437714Y-146812000D01*
X109474000Y-146703142D01*
X109546571Y-146630571D01*
X109619142Y-146594285D01*
X109764285Y-146558000D01*
X109873142Y-146558000D01*
X110018285Y-146594285D01*
X110090857Y-146630571D01*
X110163428Y-146703142D01*
X110199714Y-146812000D01*
X110199714Y-146993428D01*
X109437714Y-145868571D02*
X109437714Y-146231428D01*
X109800571Y-146267714D01*
X109764285Y-146231428D01*
X109728000Y-146158857D01*
X109728000Y-145977428D01*
X109764285Y-145904857D01*
X109800571Y-145868571D01*
X109873142Y-145832285D01*
X110054571Y-145832285D01*
X110127142Y-145868571D01*
X110163428Y-145904857D01*
X110199714Y-145977428D01*
X110199714Y-146158857D01*
X110163428Y-146231428D01*
X110127142Y-146267714D01*
D18*
X102513190Y-149512261D02*
X102513190Y-150026309D01*
X102543428Y-150086785D01*
X102573666Y-150117023D01*
X102634142Y-150147261D01*
X102755095Y-150147261D01*
X102815571Y-150117023D01*
X102845809Y-150086785D01*
X102876047Y-150026309D01*
X102876047Y-149512261D01*
X103117952Y-149512261D02*
X103541285Y-149512261D01*
X103269142Y-150147261D01*
X100605166Y-150086785D02*
X100574928Y-150117023D01*
X100484214Y-150147261D01*
X100423738Y-150147261D01*
X100333023Y-150117023D01*
X100272547Y-150056547D01*
X100242309Y-149996071D01*
X100212071Y-149875119D01*
X100212071Y-149784404D01*
X100242309Y-149663452D01*
X100272547Y-149602976D01*
X100333023Y-149542500D01*
X100423738Y-149512261D01*
X100484214Y-149512261D01*
X100574928Y-149542500D01*
X100605166Y-149572738D01*
X101149452Y-149512261D02*
X101028500Y-149512261D01*
X100968023Y-149542500D01*
X100937785Y-149572738D01*
X100877309Y-149663452D01*
X100847071Y-149784404D01*
X100847071Y-150026309D01*
X100877309Y-150086785D01*
X100907547Y-150117023D01*
X100968023Y-150147261D01*
X101088976Y-150147261D01*
X101149452Y-150117023D01*
X101179690Y-150086785D01*
X101209928Y-150026309D01*
X101209928Y-149875119D01*
X101179690Y-149814642D01*
X101149452Y-149784404D01*
X101088976Y-149754166D01*
X100968023Y-149754166D01*
X100907547Y-149784404D01*
X100877309Y-149814642D01*
X100847071Y-149875119D01*
X97557166Y-149705785D02*
X97526928Y-149736023D01*
X97436214Y-149766261D01*
X97375738Y-149766261D01*
X97285023Y-149736023D01*
X97224547Y-149675547D01*
X97194309Y-149615071D01*
X97164071Y-149494119D01*
X97164071Y-149403404D01*
X97194309Y-149282452D01*
X97224547Y-149221976D01*
X97285023Y-149161500D01*
X97375738Y-149131261D01*
X97436214Y-149131261D01*
X97526928Y-149161500D01*
X97557166Y-149191738D01*
X97920023Y-149403404D02*
X97859547Y-149373166D01*
X97829309Y-149342928D01*
X97799071Y-149282452D01*
X97799071Y-149252214D01*
X97829309Y-149191738D01*
X97859547Y-149161500D01*
X97920023Y-149131261D01*
X98040976Y-149131261D01*
X98101452Y-149161500D01*
X98131690Y-149191738D01*
X98161928Y-149252214D01*
X98161928Y-149282452D01*
X98131690Y-149342928D01*
X98101452Y-149373166D01*
X98040976Y-149403404D01*
X97920023Y-149403404D01*
X97859547Y-149433642D01*
X97829309Y-149463880D01*
X97799071Y-149524357D01*
X97799071Y-149645309D01*
X97829309Y-149705785D01*
X97859547Y-149736023D01*
X97920023Y-149766261D01*
X98040976Y-149766261D01*
X98101452Y-149736023D01*
X98131690Y-149705785D01*
X98161928Y-149645309D01*
X98161928Y-149524357D01*
X98131690Y-149463880D01*
X98101452Y-149433642D01*
X98040976Y-149403404D01*
X96612273Y-140902975D02*
X96248787Y-140838831D01*
X96355695Y-141159554D02*
X95906682Y-140710541D01*
X96077734Y-140539489D01*
X96141879Y-140518107D01*
X96184642Y-140518107D01*
X96248787Y-140539489D01*
X96312931Y-140603634D01*
X96334313Y-140667778D01*
X96334313Y-140710541D01*
X96312931Y-140774686D01*
X96141879Y-140945739D01*
X96377076Y-140325673D02*
X96377076Y-140282910D01*
X96398458Y-140218765D01*
X96505365Y-140111858D01*
X96569510Y-140090476D01*
X96612273Y-140090476D01*
X96676418Y-140111858D01*
X96719181Y-140154621D01*
X96761944Y-140240147D01*
X96761944Y-140753304D01*
X97039904Y-140475344D01*
X97125431Y-139791134D02*
X97424773Y-140090476D01*
X96847470Y-139726990D02*
X97061286Y-140154621D01*
X97339246Y-139876660D01*
X114968261Y-147601214D02*
X114665880Y-147812880D01*
X114968261Y-147964071D02*
X114333261Y-147964071D01*
X114333261Y-147722166D01*
X114363500Y-147661690D01*
X114393738Y-147631452D01*
X114454214Y-147601214D01*
X114544928Y-147601214D01*
X114605404Y-147631452D01*
X114635642Y-147661690D01*
X114665880Y-147722166D01*
X114665880Y-147964071D01*
X114393738Y-147359309D02*
X114363500Y-147329071D01*
X114333261Y-147268595D01*
X114333261Y-147117404D01*
X114363500Y-147056928D01*
X114393738Y-147026690D01*
X114454214Y-146996452D01*
X114514690Y-146996452D01*
X114605404Y-147026690D01*
X114968261Y-147389547D01*
X114968261Y-146996452D01*
X114333261Y-146421928D02*
X114333261Y-146724309D01*
X114635642Y-146754547D01*
X114605404Y-146724309D01*
X114575166Y-146663833D01*
X114575166Y-146512642D01*
X114605404Y-146452166D01*
X114635642Y-146421928D01*
X114696119Y-146391690D01*
X114847309Y-146391690D01*
X114907785Y-146421928D01*
X114938023Y-146452166D01*
X114968261Y-146512642D01*
X114968261Y-146663833D01*
X114938023Y-146724309D01*
X114907785Y-146754547D01*
X97051585Y-153957261D02*
X96839919Y-153654880D01*
X96688728Y-153957261D02*
X96688728Y-153322261D01*
X96930633Y-153322261D01*
X96991109Y-153352500D01*
X97021347Y-153382738D01*
X97051585Y-153443214D01*
X97051585Y-153533928D01*
X97021347Y-153594404D01*
X96991109Y-153624642D01*
X96930633Y-153654880D01*
X96688728Y-153654880D01*
X97293490Y-153382738D02*
X97323728Y-153352500D01*
X97384204Y-153322261D01*
X97535395Y-153322261D01*
X97595871Y-153352500D01*
X97626109Y-153382738D01*
X97656347Y-153443214D01*
X97656347Y-153503690D01*
X97626109Y-153594404D01*
X97263252Y-153957261D01*
X97656347Y-153957261D01*
X97958728Y-153957261D02*
X98079680Y-153957261D01*
X98140157Y-153927023D01*
X98170395Y-153896785D01*
X98230871Y-153806071D01*
X98261109Y-153685119D01*
X98261109Y-153443214D01*
X98230871Y-153382738D01*
X98200633Y-153352500D01*
X98140157Y-153322261D01*
X98019204Y-153322261D01*
X97958728Y-153352500D01*
X97928490Y-153382738D01*
X97898252Y-153443214D01*
X97898252Y-153594404D01*
X97928490Y-153654880D01*
X97958728Y-153685119D01*
X98019204Y-153715357D01*
X98140157Y-153715357D01*
X98200633Y-153685119D01*
X98230871Y-153654880D01*
X98261109Y-153594404D01*
X99169461Y-154840214D02*
X98867080Y-155051880D01*
X99169461Y-155203071D02*
X98534461Y-155203071D01*
X98534461Y-154961166D01*
X98564700Y-154900690D01*
X98594938Y-154870452D01*
X98655414Y-154840214D01*
X98746128Y-154840214D01*
X98806604Y-154870452D01*
X98836842Y-154900690D01*
X98867080Y-154961166D01*
X98867080Y-155203071D01*
X98534461Y-154628547D02*
X98534461Y-154235452D01*
X98776366Y-154447119D01*
X98776366Y-154356404D01*
X98806604Y-154295928D01*
X98836842Y-154265690D01*
X98897319Y-154235452D01*
X99048509Y-154235452D01*
X99108985Y-154265690D01*
X99139223Y-154295928D01*
X99169461Y-154356404D01*
X99169461Y-154537833D01*
X99139223Y-154598309D01*
X99108985Y-154628547D01*
X98534461Y-153842357D02*
X98534461Y-153781880D01*
X98564700Y-153721404D01*
X98594938Y-153691166D01*
X98655414Y-153660928D01*
X98776366Y-153630690D01*
X98927557Y-153630690D01*
X99048509Y-153660928D01*
X99108985Y-153691166D01*
X99139223Y-153721404D01*
X99169461Y-153781880D01*
X99169461Y-153842357D01*
X99139223Y-153902833D01*
X99108985Y-153933071D01*
X99048509Y-153963309D01*
X98927557Y-153993547D01*
X98776366Y-153993547D01*
X98655414Y-153963309D01*
X98594938Y-153933071D01*
X98564700Y-153902833D01*
X98534461Y-153842357D01*
X117889261Y-111660214D02*
X117586880Y-111871880D01*
X117889261Y-112023071D02*
X117254261Y-112023071D01*
X117254261Y-111781166D01*
X117284500Y-111720690D01*
X117314738Y-111690452D01*
X117375214Y-111660214D01*
X117465928Y-111660214D01*
X117526404Y-111690452D01*
X117556642Y-111720690D01*
X117586880Y-111781166D01*
X117586880Y-112023071D01*
X117254261Y-111448547D02*
X117254261Y-111055452D01*
X117496166Y-111267119D01*
X117496166Y-111176404D01*
X117526404Y-111115928D01*
X117556642Y-111085690D01*
X117617119Y-111055452D01*
X117768309Y-111055452D01*
X117828785Y-111085690D01*
X117859023Y-111115928D01*
X117889261Y-111176404D01*
X117889261Y-111357833D01*
X117859023Y-111418309D01*
X117828785Y-111448547D01*
X117889261Y-110450690D02*
X117889261Y-110813547D01*
X117889261Y-110632119D02*
X117254261Y-110632119D01*
X117344976Y-110692595D01*
X117405452Y-110753071D01*
X117435690Y-110813547D01*
X114526785Y-109888261D02*
X114315119Y-109585880D01*
X114163928Y-109888261D02*
X114163928Y-109253261D01*
X114405833Y-109253261D01*
X114466309Y-109283500D01*
X114496547Y-109313738D01*
X114526785Y-109374214D01*
X114526785Y-109464928D01*
X114496547Y-109525404D01*
X114466309Y-109555642D01*
X114405833Y-109585880D01*
X114163928Y-109585880D01*
X114738452Y-109253261D02*
X115131547Y-109253261D01*
X114919880Y-109495166D01*
X115010595Y-109495166D01*
X115071071Y-109525404D01*
X115101309Y-109555642D01*
X115131547Y-109616119D01*
X115131547Y-109767309D01*
X115101309Y-109827785D01*
X115071071Y-109858023D01*
X115010595Y-109888261D01*
X114829166Y-109888261D01*
X114768690Y-109858023D01*
X114738452Y-109827785D01*
X115675833Y-109253261D02*
X115554880Y-109253261D01*
X115494404Y-109283500D01*
X115464166Y-109313738D01*
X115403690Y-109404452D01*
X115373452Y-109525404D01*
X115373452Y-109767309D01*
X115403690Y-109827785D01*
X115433928Y-109858023D01*
X115494404Y-109888261D01*
X115615357Y-109888261D01*
X115675833Y-109858023D01*
X115706071Y-109827785D01*
X115736309Y-109767309D01*
X115736309Y-109616119D01*
X115706071Y-109555642D01*
X115675833Y-109525404D01*
X115615357Y-109495166D01*
X115494404Y-109495166D01*
X115433928Y-109525404D01*
X115403690Y-109555642D01*
X115373452Y-109616119D01*
D17*
X115715142Y-116930714D02*
X115461142Y-116567857D01*
X115279714Y-116930714D02*
X115279714Y-116168714D01*
X115570000Y-116168714D01*
X115642571Y-116205000D01*
X115678857Y-116241285D01*
X115715142Y-116313857D01*
X115715142Y-116422714D01*
X115678857Y-116495285D01*
X115642571Y-116531571D01*
X115570000Y-116567857D01*
X115279714Y-116567857D01*
X115969142Y-116168714D02*
X116440857Y-116168714D01*
X116186857Y-116459000D01*
X116295714Y-116459000D01*
X116368285Y-116495285D01*
X116404571Y-116531571D01*
X116440857Y-116604142D01*
X116440857Y-116785571D01*
X116404571Y-116858142D01*
X116368285Y-116894428D01*
X116295714Y-116930714D01*
X116078000Y-116930714D01*
X116005428Y-116894428D01*
X115969142Y-116858142D01*
X116803714Y-116930714D02*
X116948857Y-116930714D01*
X117021428Y-116894428D01*
X117057714Y-116858142D01*
X117130285Y-116749285D01*
X117166571Y-116604142D01*
X117166571Y-116313857D01*
X117130285Y-116241285D01*
X117094000Y-116205000D01*
X117021428Y-116168714D01*
X116876285Y-116168714D01*
X116803714Y-116205000D01*
X116767428Y-116241285D01*
X116731142Y-116313857D01*
X116731142Y-116495285D01*
X116767428Y-116567857D01*
X116803714Y-116604142D01*
X116876285Y-116640428D01*
X117021428Y-116640428D01*
X117094000Y-116604142D01*
X117130285Y-116567857D01*
X117166571Y-116495285D01*
X115969142Y-114517714D02*
X115715142Y-114154857D01*
X115533714Y-114517714D02*
X115533714Y-113755714D01*
X115824000Y-113755714D01*
X115896571Y-113792000D01*
X115932857Y-113828285D01*
X115969142Y-113900857D01*
X115969142Y-114009714D01*
X115932857Y-114082285D01*
X115896571Y-114118571D01*
X115824000Y-114154857D01*
X115533714Y-114154857D01*
X116622285Y-114009714D02*
X116622285Y-114517714D01*
X116440857Y-113719428D02*
X116259428Y-114263714D01*
X116731142Y-114263714D01*
X117348000Y-114009714D02*
X117348000Y-114517714D01*
X117166571Y-113719428D02*
X116985142Y-114263714D01*
X117456857Y-114263714D01*
D18*
X106297185Y-140079185D02*
X106266947Y-140109423D01*
X106176233Y-140139661D01*
X106115757Y-140139661D01*
X106025042Y-140109423D01*
X105964566Y-140048947D01*
X105934328Y-139988471D01*
X105904090Y-139867519D01*
X105904090Y-139776804D01*
X105934328Y-139655852D01*
X105964566Y-139595376D01*
X106025042Y-139534900D01*
X106115757Y-139504661D01*
X106176233Y-139504661D01*
X106266947Y-139534900D01*
X106297185Y-139565138D01*
X106901947Y-140139661D02*
X106539090Y-140139661D01*
X106720519Y-140139661D02*
X106720519Y-139504661D01*
X106660042Y-139595376D01*
X106599566Y-139655852D01*
X106539090Y-139686090D01*
X107446233Y-139716328D02*
X107446233Y-140139661D01*
X107295042Y-139474423D02*
X107143852Y-139927995D01*
X107536947Y-139927995D01*
D17*
X98824142Y-130773714D02*
X98570142Y-130410857D01*
X98388714Y-130773714D02*
X98388714Y-130011714D01*
X98679000Y-130011714D01*
X98751571Y-130048000D01*
X98787857Y-130084285D01*
X98824142Y-130156857D01*
X98824142Y-130265714D01*
X98787857Y-130338285D01*
X98751571Y-130374571D01*
X98679000Y-130410857D01*
X98388714Y-130410857D01*
X99477285Y-130265714D02*
X99477285Y-130773714D01*
X99295857Y-129975428D02*
X99114428Y-130519714D01*
X99586142Y-130519714D01*
X99803857Y-130011714D02*
X100275571Y-130011714D01*
X100021571Y-130302000D01*
X100130428Y-130302000D01*
X100203000Y-130338285D01*
X100239285Y-130374571D01*
X100275571Y-130447142D01*
X100275571Y-130628571D01*
X100239285Y-130701142D01*
X100203000Y-130737428D01*
X100130428Y-130773714D01*
X99912714Y-130773714D01*
X99840142Y-130737428D01*
X99803857Y-130701142D01*
X96411142Y-130773714D02*
X96157142Y-130410857D01*
X95975714Y-130773714D02*
X95975714Y-130011714D01*
X96266000Y-130011714D01*
X96338571Y-130048000D01*
X96374857Y-130084285D01*
X96411142Y-130156857D01*
X96411142Y-130265714D01*
X96374857Y-130338285D01*
X96338571Y-130374571D01*
X96266000Y-130410857D01*
X95975714Y-130410857D01*
X97064285Y-130265714D02*
X97064285Y-130773714D01*
X96882857Y-129975428D02*
X96701428Y-130519714D01*
X97173142Y-130519714D01*
X97826285Y-130011714D02*
X97463428Y-130011714D01*
X97427142Y-130374571D01*
X97463428Y-130338285D01*
X97536000Y-130302000D01*
X97717428Y-130302000D01*
X97790000Y-130338285D01*
X97826285Y-130374571D01*
X97862571Y-130447142D01*
X97862571Y-130628571D01*
X97826285Y-130701142D01*
X97790000Y-130737428D01*
X97717428Y-130773714D01*
X97536000Y-130773714D01*
X97463428Y-130737428D01*
X97427142Y-130701142D01*
D18*
X102715785Y-132615214D02*
X102746023Y-132645452D01*
X102776261Y-132736166D01*
X102776261Y-132796642D01*
X102746023Y-132887357D01*
X102685547Y-132947833D01*
X102625071Y-132978071D01*
X102504119Y-133008309D01*
X102413404Y-133008309D01*
X102292452Y-132978071D01*
X102231976Y-132947833D01*
X102171500Y-132887357D01*
X102141261Y-132796642D01*
X102141261Y-132736166D01*
X102171500Y-132645452D01*
X102201738Y-132615214D01*
X102141261Y-132403547D02*
X102141261Y-132010452D01*
X102383166Y-132222119D01*
X102383166Y-132131404D01*
X102413404Y-132070928D01*
X102443642Y-132040690D01*
X102504119Y-132010452D01*
X102655309Y-132010452D01*
X102715785Y-132040690D01*
X102746023Y-132070928D01*
X102776261Y-132131404D01*
X102776261Y-132312833D01*
X102746023Y-132373309D01*
X102715785Y-132403547D01*
X102141261Y-131617357D02*
X102141261Y-131556880D01*
X102171500Y-131496404D01*
X102201738Y-131466166D01*
X102262214Y-131435928D01*
X102383166Y-131405690D01*
X102534357Y-131405690D01*
X102655309Y-131435928D01*
X102715785Y-131466166D01*
X102746023Y-131496404D01*
X102776261Y-131556880D01*
X102776261Y-131617357D01*
X102746023Y-131677833D01*
X102715785Y-131708071D01*
X102655309Y-131738309D01*
X102534357Y-131768547D01*
X102383166Y-131768547D01*
X102262214Y-131738309D01*
X102201738Y-131708071D01*
X102171500Y-131677833D01*
X102141261Y-131617357D01*
X111382023Y-153267833D02*
X111684404Y-153267833D01*
X111321547Y-153449261D02*
X111533214Y-152814261D01*
X111744880Y-153449261D01*
X112319404Y-153388785D02*
X112289166Y-153419023D01*
X112198452Y-153449261D01*
X112137976Y-153449261D01*
X112047261Y-153419023D01*
X111986785Y-153358547D01*
X111956547Y-153298071D01*
X111926309Y-153177119D01*
X111926309Y-153086404D01*
X111956547Y-152965452D01*
X111986785Y-152904976D01*
X112047261Y-152844500D01*
X112137976Y-152814261D01*
X112198452Y-152814261D01*
X112289166Y-152844500D01*
X112319404Y-152874738D01*
X112500833Y-152814261D02*
X112863690Y-152814261D01*
X112682261Y-153449261D02*
X112682261Y-152814261D01*
X113407976Y-153449261D02*
X113045119Y-153449261D01*
X113226547Y-153449261D02*
X113226547Y-152814261D01*
X113166071Y-152904976D01*
X113105595Y-152965452D01*
X113045119Y-152995690D01*
X111893047Y-150782261D02*
X111590666Y-150782261D01*
X111590666Y-150147261D01*
X112104714Y-150782261D02*
X112104714Y-150147261D01*
X112467571Y-150782261D01*
X112467571Y-150147261D01*
X112769952Y-150782261D02*
X112769952Y-150147261D01*
X113132809Y-150782261D02*
X112860666Y-150419404D01*
X113132809Y-150147261D02*
X112769952Y-150510119D01*
X113737571Y-150782261D02*
X113374714Y-150782261D01*
X113556142Y-150782261D02*
X113556142Y-150147261D01*
X113495666Y-150237976D01*
X113435190Y-150298452D01*
X113374714Y-150328690D01*
D17*
X93562714Y-114554000D02*
X93199857Y-114808000D01*
X93562714Y-114989428D02*
X92800714Y-114989428D01*
X92800714Y-114699142D01*
X92837000Y-114626571D01*
X92873285Y-114590285D01*
X92945857Y-114554000D01*
X93054714Y-114554000D01*
X93127285Y-114590285D01*
X93163571Y-114626571D01*
X93199857Y-114699142D01*
X93199857Y-114989428D01*
X93054714Y-113900857D02*
X93562714Y-113900857D01*
X92764428Y-114082285D02*
X93308714Y-114263714D01*
X93308714Y-113792000D01*
M02*
