G04 #@! TF.GenerationSoftware,KiCad,Pcbnew,6.0.0-rc1-unknown-69d90a4~84~ubuntu18.04.1*
G04 #@! TF.CreationDate,2019-01-16T16:00:12+02:00
G04 #@! TF.ProjectId,ESP32-PoE-ISO_Rev_A,45535033-322d-4506-9f45-2d49534f5f52,A*
G04 #@! TF.SameCoordinates,Original*
G04 #@! TF.FileFunction,Soldermask,Top*
G04 #@! TF.FilePolarity,Negative*
%FSLAX46Y46*%
G04 Gerber Fmt 4.6, Leading zero omitted, Abs format (unit mm)*
G04 Created by KiCad (PCBNEW 6.0.0-rc1-unknown-69d90a4~84~ubuntu18.04.1) date 16.01.2019 (ср) 16:00:12 EET*
%MOMM*%
%LPD*%
G04 APERTURE LIST*
%ADD10C,0.100000*%
G04 APERTURE END LIST*
D10*
G36*
X115411105Y-183807561D02*
G01*
X115411107Y-183807562D01*
X115411108Y-183807562D01*
X115592840Y-183882838D01*
X115720631Y-183935771D01*
X115999197Y-184121903D01*
X116236097Y-184358803D01*
X116422229Y-184637369D01*
X116550439Y-184946895D01*
X116615800Y-185275486D01*
X116615800Y-185610514D01*
X116587386Y-185753360D01*
X116550438Y-185939108D01*
X116422803Y-186247246D01*
X116422229Y-186248631D01*
X116236097Y-186527197D01*
X115999197Y-186764097D01*
X115848724Y-186864640D01*
X115720631Y-186950229D01*
X115411108Y-187078438D01*
X115411107Y-187078438D01*
X115411105Y-187078439D01*
X115082514Y-187143800D01*
X114747486Y-187143800D01*
X114418895Y-187078439D01*
X114418893Y-187078438D01*
X114418892Y-187078438D01*
X114109369Y-186950229D01*
X113981276Y-186864640D01*
X113830803Y-186764097D01*
X113593903Y-186527197D01*
X113407771Y-186248631D01*
X113407197Y-186247246D01*
X113279562Y-185939108D01*
X113242614Y-185753360D01*
X113214200Y-185610514D01*
X113214200Y-185275486D01*
X113279561Y-184946895D01*
X113407771Y-184637369D01*
X113593903Y-184358803D01*
X113830803Y-184121903D01*
X114109369Y-183935771D01*
X114237160Y-183882838D01*
X114418892Y-183807562D01*
X114418893Y-183807562D01*
X114418895Y-183807561D01*
X114747486Y-183742200D01*
X115082514Y-183742200D01*
X115411105Y-183807561D01*
X115411105Y-183807561D01*
G37*
G36*
X103981105Y-183807561D02*
G01*
X103981107Y-183807562D01*
X103981108Y-183807562D01*
X104162840Y-183882838D01*
X104290631Y-183935771D01*
X104569197Y-184121903D01*
X104806097Y-184358803D01*
X104992229Y-184637369D01*
X105120439Y-184946895D01*
X105185800Y-185275486D01*
X105185800Y-185610514D01*
X105157386Y-185753360D01*
X105120438Y-185939108D01*
X104992803Y-186247246D01*
X104992229Y-186248631D01*
X104806097Y-186527197D01*
X104569197Y-186764097D01*
X104418724Y-186864640D01*
X104290631Y-186950229D01*
X103981108Y-187078438D01*
X103981107Y-187078438D01*
X103981105Y-187078439D01*
X103652514Y-187143800D01*
X103317486Y-187143800D01*
X102988895Y-187078439D01*
X102988893Y-187078438D01*
X102988892Y-187078438D01*
X102679369Y-186950229D01*
X102551276Y-186864640D01*
X102400803Y-186764097D01*
X102163903Y-186527197D01*
X101977771Y-186248631D01*
X101977197Y-186247246D01*
X101849562Y-185939108D01*
X101812614Y-185753360D01*
X101784200Y-185610514D01*
X101784200Y-185275486D01*
X101849561Y-184946895D01*
X101977771Y-184637369D01*
X102163903Y-184358803D01*
X102400803Y-184121903D01*
X102679369Y-183935771D01*
X102807160Y-183882838D01*
X102988892Y-183807562D01*
X102988893Y-183807562D01*
X102988895Y-183807561D01*
X103317486Y-183742200D01*
X103652514Y-183742200D01*
X103981105Y-183807561D01*
X103981105Y-183807561D01*
G37*
G36*
X92003889Y-185706095D02*
G01*
X92003891Y-185706096D01*
X92003892Y-185706096D01*
X92117996Y-185753360D01*
X92220688Y-185821976D01*
X92308024Y-185909312D01*
X92376640Y-186012004D01*
X92423904Y-186126108D01*
X92448000Y-186247248D01*
X92448000Y-186370752D01*
X92423904Y-186491892D01*
X92376640Y-186605996D01*
X92308024Y-186708688D01*
X92220688Y-186796024D01*
X92117996Y-186864640D01*
X92003892Y-186911904D01*
X92003891Y-186911904D01*
X92003889Y-186911905D01*
X91882754Y-186936000D01*
X91759246Y-186936000D01*
X91638111Y-186911905D01*
X91638109Y-186911904D01*
X91638108Y-186911904D01*
X91524004Y-186864640D01*
X91421312Y-186796024D01*
X91333976Y-186708688D01*
X91265360Y-186605996D01*
X91218096Y-186491892D01*
X91194000Y-186370752D01*
X91194000Y-186247248D01*
X91218096Y-186126108D01*
X91265360Y-186012004D01*
X91333976Y-185909312D01*
X91421312Y-185821976D01*
X91524004Y-185753360D01*
X91638108Y-185706096D01*
X91638109Y-185706096D01*
X91638111Y-185706095D01*
X91759246Y-185682000D01*
X91882754Y-185682000D01*
X92003889Y-185706095D01*
X92003889Y-185706095D01*
G37*
G36*
X101539336Y-180851808D02*
G01*
X101566785Y-180854512D01*
X101627343Y-180872882D01*
X101727161Y-180903161D01*
X101874967Y-180982165D01*
X101928681Y-181026247D01*
X102004517Y-181088484D01*
X102110837Y-181218035D01*
X102115811Y-181227341D01*
X102189840Y-181365839D01*
X102220119Y-181465657D01*
X102238489Y-181526215D01*
X102238489Y-181526217D01*
X102250800Y-181651205D01*
X102250800Y-183134795D01*
X102241567Y-183228536D01*
X102238489Y-183259785D01*
X102220119Y-183320343D01*
X102189840Y-183420161D01*
X102135931Y-183521018D01*
X102110837Y-183567965D01*
X102004517Y-183697516D01*
X101874966Y-183803836D01*
X101828019Y-183828930D01*
X101727162Y-183882839D01*
X101627344Y-183913118D01*
X101566786Y-183931488D01*
X101539337Y-183934191D01*
X101400000Y-183947916D01*
X101260664Y-183934192D01*
X101233215Y-183931488D01*
X101172657Y-183913118D01*
X101072839Y-183882839D01*
X100971982Y-183828930D01*
X100925035Y-183803836D01*
X100795484Y-183697516D01*
X100689164Y-183567965D01*
X100664070Y-183521018D01*
X100610161Y-183420161D01*
X100579882Y-183320343D01*
X100561512Y-183259785D01*
X100558434Y-183228536D01*
X100549201Y-183134795D01*
X100549200Y-181651206D01*
X100561511Y-181526218D01*
X100561511Y-181526216D01*
X100579881Y-181465658D01*
X100610160Y-181365840D01*
X100689164Y-181218034D01*
X100795483Y-181088484D01*
X100860199Y-181035373D01*
X100925034Y-180982164D01*
X100971981Y-180957070D01*
X101072838Y-180903161D01*
X101172656Y-180872882D01*
X101233214Y-180854512D01*
X101260663Y-180851809D01*
X101400000Y-180838084D01*
X101539336Y-180851808D01*
X101539336Y-180851808D01*
G37*
G36*
X117139336Y-180851808D02*
G01*
X117166785Y-180854512D01*
X117227343Y-180872882D01*
X117327161Y-180903161D01*
X117474967Y-180982165D01*
X117528681Y-181026247D01*
X117604517Y-181088484D01*
X117710837Y-181218035D01*
X117715811Y-181227341D01*
X117789840Y-181365839D01*
X117820119Y-181465657D01*
X117838489Y-181526215D01*
X117838489Y-181526217D01*
X117850800Y-181651205D01*
X117850800Y-183134795D01*
X117841567Y-183228536D01*
X117838489Y-183259785D01*
X117820119Y-183320343D01*
X117789840Y-183420161D01*
X117735931Y-183521018D01*
X117710837Y-183567965D01*
X117604517Y-183697516D01*
X117474966Y-183803836D01*
X117428019Y-183828930D01*
X117327162Y-183882839D01*
X117227344Y-183913118D01*
X117166786Y-183931488D01*
X117139337Y-183934191D01*
X117000000Y-183947916D01*
X116860664Y-183934192D01*
X116833215Y-183931488D01*
X116772657Y-183913118D01*
X116672839Y-183882839D01*
X116571982Y-183828930D01*
X116525035Y-183803836D01*
X116395484Y-183697516D01*
X116289164Y-183567965D01*
X116264070Y-183521018D01*
X116210161Y-183420161D01*
X116179882Y-183320343D01*
X116161512Y-183259785D01*
X116158434Y-183228536D01*
X116149201Y-183134795D01*
X116149200Y-181651206D01*
X116161511Y-181526218D01*
X116161511Y-181526216D01*
X116179881Y-181465658D01*
X116210160Y-181365840D01*
X116289164Y-181218034D01*
X116395483Y-181088484D01*
X116460199Y-181035373D01*
X116525034Y-180982164D01*
X116571981Y-180957070D01*
X116672838Y-180903161D01*
X116772656Y-180872882D01*
X116833214Y-180854512D01*
X116860663Y-180851809D01*
X117000000Y-180838084D01*
X117139336Y-180851808D01*
X117139336Y-180851808D01*
G37*
G36*
X92960420Y-182510660D02*
G01*
X91458820Y-182510660D01*
X91458820Y-181009060D01*
X92960420Y-181009060D01*
X92960420Y-182510660D01*
X92960420Y-182510660D01*
G37*
G36*
X94308016Y-181009060D02*
G01*
X94440301Y-181035373D01*
X94468599Y-181047095D01*
X94576937Y-181091969D01*
X94699907Y-181174135D01*
X94804485Y-181278713D01*
X94886651Y-181401683D01*
X94931525Y-181510021D01*
X94938235Y-181526218D01*
X94943247Y-181538320D01*
X94972100Y-181683373D01*
X94972100Y-181831267D01*
X94943247Y-181976320D01*
X94886651Y-182112957D01*
X94804485Y-182235927D01*
X94699907Y-182340505D01*
X94576937Y-182422671D01*
X94468599Y-182467545D01*
X94440301Y-182479267D01*
X94367773Y-182493694D01*
X94295247Y-182508120D01*
X94147353Y-182508120D01*
X94074827Y-182493694D01*
X94002299Y-182479267D01*
X93974001Y-182467545D01*
X93865663Y-182422671D01*
X93742693Y-182340505D01*
X93638115Y-182235927D01*
X93555949Y-182112957D01*
X93499353Y-181976320D01*
X93470500Y-181831267D01*
X93470500Y-181683373D01*
X93499353Y-181538320D01*
X93504366Y-181526218D01*
X93511075Y-181510021D01*
X93555949Y-181401683D01*
X93638115Y-181278713D01*
X93742693Y-181174135D01*
X93865663Y-181091969D01*
X93974001Y-181047095D01*
X94002299Y-181035373D01*
X94134584Y-181009060D01*
X94147353Y-181006520D01*
X94295247Y-181006520D01*
X94308016Y-181009060D01*
X94308016Y-181009060D01*
G37*
G36*
X102462307Y-178328916D02*
G01*
X102544877Y-178353964D01*
X102663401Y-178389917D01*
X102848730Y-178488977D01*
X102848732Y-178488978D01*
X102848731Y-178488978D01*
X102970462Y-178588880D01*
X104481420Y-180099837D01*
X104581323Y-180221569D01*
X104622072Y-180297806D01*
X104680383Y-180406898D01*
X104741384Y-180607991D01*
X104741384Y-180607993D01*
X104761982Y-180817120D01*
X104753507Y-180903161D01*
X104741384Y-181026249D01*
X104738616Y-181035373D01*
X104680383Y-181227341D01*
X104581323Y-181412671D01*
X104448011Y-181575111D01*
X104285571Y-181708423D01*
X104100241Y-181807483D01*
X103899149Y-181868484D01*
X103864732Y-181871874D01*
X103690020Y-181889082D01*
X103515308Y-181871874D01*
X103480891Y-181868484D01*
X103279798Y-181807483D01*
X103094469Y-181708423D01*
X102972737Y-181608520D01*
X101461780Y-180097562D01*
X101361878Y-179975831D01*
X101361877Y-179975830D01*
X101262817Y-179790501D01*
X101206789Y-179605800D01*
X101201816Y-179589407D01*
X101181218Y-179380280D01*
X101201816Y-179171153D01*
X101226864Y-179088583D01*
X101262817Y-178970059D01*
X101361877Y-178784730D01*
X101495190Y-178622290D01*
X101657630Y-178488977D01*
X101842959Y-178389917D01*
X101961483Y-178353964D01*
X102044053Y-178328916D01*
X102253180Y-178308318D01*
X102462307Y-178328916D01*
X102462307Y-178328916D01*
G37*
G36*
X110842331Y-174430787D02*
G01*
X111016290Y-174468955D01*
X111047590Y-174475822D01*
X111240118Y-174560036D01*
X111310924Y-174609386D01*
X111412518Y-174680192D01*
X111486829Y-174757480D01*
X111558163Y-174831671D01*
X111643071Y-174964311D01*
X112258901Y-176172946D01*
X113650980Y-178905056D01*
X113650982Y-178905061D01*
X113650983Y-178905063D01*
X113708379Y-179051706D01*
X113708379Y-179051708D01*
X113745321Y-179258577D01*
X113741195Y-179468678D01*
X113696160Y-179673937D01*
X113611946Y-179866465D01*
X113491790Y-180038865D01*
X113340309Y-180184512D01*
X113194321Y-180277964D01*
X113163321Y-180297808D01*
X112967642Y-180374396D01*
X112967639Y-180374396D01*
X112967638Y-180374397D01*
X112760769Y-180411339D01*
X112550668Y-180407213D01*
X112382341Y-180370281D01*
X112345409Y-180362178D01*
X112152881Y-180277964D01*
X112071967Y-180221570D01*
X111980481Y-180157808D01*
X111906170Y-180080520D01*
X111834836Y-180006329D01*
X111808980Y-179965937D01*
X111749928Y-179873690D01*
X109742020Y-175932943D01*
X109684621Y-175786290D01*
X109675439Y-175734872D01*
X109647679Y-175579423D01*
X109647679Y-175579421D01*
X109651805Y-175369321D01*
X109696840Y-175164063D01*
X109781054Y-174971535D01*
X109781054Y-174971534D01*
X109878532Y-174831673D01*
X109901210Y-174799134D01*
X109978498Y-174724823D01*
X110052689Y-174653489D01*
X110229679Y-174540191D01*
X110425359Y-174463603D01*
X110632229Y-174426661D01*
X110632231Y-174426661D01*
X110842331Y-174430787D01*
X110842331Y-174430787D01*
G37*
G36*
X91892800Y-180386800D02*
G01*
X91241200Y-180386800D01*
X91241200Y-179785200D01*
X91892800Y-179785200D01*
X91892800Y-180386800D01*
X91892800Y-180386800D01*
G37*
G36*
X94371800Y-180004800D02*
G01*
X93720200Y-180004800D01*
X93720200Y-178703200D01*
X94371800Y-178703200D01*
X94371800Y-180004800D01*
X94371800Y-180004800D01*
G37*
G36*
X95321800Y-180004800D02*
G01*
X94670200Y-180004800D01*
X94670200Y-178703200D01*
X95321800Y-178703200D01*
X95321800Y-180004800D01*
X95321800Y-180004800D01*
G37*
G36*
X96271800Y-180004800D02*
G01*
X95620200Y-180004800D01*
X95620200Y-178703200D01*
X96271800Y-178703200D01*
X96271800Y-180004800D01*
X96271800Y-180004800D01*
G37*
G36*
X115152085Y-178011435D02*
G01*
X115152087Y-178011436D01*
X115152088Y-178011436D01*
X115300005Y-178072705D01*
X115399622Y-178139267D01*
X115433130Y-178161657D01*
X115546343Y-178274870D01*
X115546344Y-178274872D01*
X115635295Y-178407995D01*
X115668839Y-178488978D01*
X115696565Y-178555915D01*
X115727800Y-178712946D01*
X115727800Y-178873054D01*
X115708505Y-178970059D01*
X115696564Y-179030088D01*
X115635295Y-179178005D01*
X115581458Y-179258577D01*
X115546343Y-179311130D01*
X115433130Y-179424343D01*
X115399622Y-179446732D01*
X115300005Y-179513295D01*
X115152088Y-179574564D01*
X115152087Y-179574564D01*
X115152085Y-179574565D01*
X114995054Y-179605800D01*
X114834946Y-179605800D01*
X114677915Y-179574565D01*
X114677913Y-179574564D01*
X114677912Y-179574564D01*
X114529995Y-179513295D01*
X114430378Y-179446732D01*
X114396870Y-179424343D01*
X114283657Y-179311130D01*
X114248542Y-179258577D01*
X114194705Y-179178005D01*
X114133436Y-179030088D01*
X114121496Y-178970059D01*
X114102200Y-178873054D01*
X114102200Y-178712946D01*
X114133435Y-178555915D01*
X114161161Y-178488978D01*
X114194705Y-178407995D01*
X114283656Y-178274872D01*
X114283657Y-178274870D01*
X114396870Y-178161657D01*
X114430378Y-178139267D01*
X114529995Y-178072705D01*
X114677912Y-178011436D01*
X114677913Y-178011436D01*
X114677915Y-178011435D01*
X114834946Y-177980200D01*
X114995054Y-177980200D01*
X115152085Y-178011435D01*
X115152085Y-178011435D01*
G37*
G36*
X110072085Y-178011435D02*
G01*
X110072087Y-178011436D01*
X110072088Y-178011436D01*
X110220005Y-178072705D01*
X110319622Y-178139267D01*
X110353130Y-178161657D01*
X110466343Y-178274870D01*
X110466344Y-178274872D01*
X110555295Y-178407995D01*
X110588839Y-178488978D01*
X110616565Y-178555915D01*
X110647800Y-178712946D01*
X110647800Y-178873054D01*
X110628505Y-178970059D01*
X110616564Y-179030088D01*
X110555295Y-179178005D01*
X110501458Y-179258577D01*
X110466343Y-179311130D01*
X110353130Y-179424343D01*
X110319622Y-179446732D01*
X110220005Y-179513295D01*
X110072088Y-179574564D01*
X110072087Y-179574564D01*
X110072085Y-179574565D01*
X109915054Y-179605800D01*
X109754946Y-179605800D01*
X109597915Y-179574565D01*
X109597913Y-179574564D01*
X109597912Y-179574564D01*
X109449995Y-179513295D01*
X109350378Y-179446732D01*
X109316870Y-179424343D01*
X109203657Y-179311130D01*
X109168542Y-179258577D01*
X109114705Y-179178005D01*
X109053436Y-179030088D01*
X109041496Y-178970059D01*
X109022200Y-178873054D01*
X109022200Y-178712946D01*
X109053435Y-178555915D01*
X109081161Y-178488978D01*
X109114705Y-178407995D01*
X109203656Y-178274872D01*
X109203657Y-178274870D01*
X109316870Y-178161657D01*
X109350378Y-178139267D01*
X109449995Y-178072705D01*
X109597912Y-178011436D01*
X109597913Y-178011436D01*
X109597915Y-178011435D01*
X109754946Y-177980200D01*
X109915054Y-177980200D01*
X110072085Y-178011435D01*
X110072085Y-178011435D01*
G37*
G36*
X107532085Y-178011435D02*
G01*
X107532087Y-178011436D01*
X107532088Y-178011436D01*
X107680005Y-178072705D01*
X107779622Y-178139267D01*
X107813130Y-178161657D01*
X107926343Y-178274870D01*
X107926344Y-178274872D01*
X108015295Y-178407995D01*
X108048839Y-178488978D01*
X108076565Y-178555915D01*
X108107800Y-178712946D01*
X108107800Y-178873054D01*
X108088505Y-178970059D01*
X108076564Y-179030088D01*
X108015295Y-179178005D01*
X107961458Y-179258577D01*
X107926343Y-179311130D01*
X107813130Y-179424343D01*
X107779622Y-179446732D01*
X107680005Y-179513295D01*
X107532088Y-179574564D01*
X107532087Y-179574564D01*
X107532085Y-179574565D01*
X107375054Y-179605800D01*
X107214946Y-179605800D01*
X107057915Y-179574565D01*
X107057913Y-179574564D01*
X107057912Y-179574564D01*
X106909995Y-179513295D01*
X106810378Y-179446732D01*
X106776870Y-179424343D01*
X106663657Y-179311130D01*
X106628542Y-179258577D01*
X106574705Y-179178005D01*
X106513436Y-179030088D01*
X106501496Y-178970059D01*
X106482200Y-178873054D01*
X106482200Y-178712946D01*
X106513435Y-178555915D01*
X106541161Y-178488978D01*
X106574705Y-178407995D01*
X106663656Y-178274872D01*
X106663657Y-178274870D01*
X106776870Y-178161657D01*
X106810378Y-178139267D01*
X106909995Y-178072705D01*
X107057912Y-178011436D01*
X107057913Y-178011436D01*
X107057915Y-178011435D01*
X107214946Y-177980200D01*
X107375054Y-177980200D01*
X107532085Y-178011435D01*
X107532085Y-178011435D01*
G37*
G36*
X104992085Y-178011435D02*
G01*
X104992087Y-178011436D01*
X104992088Y-178011436D01*
X105140005Y-178072705D01*
X105239622Y-178139267D01*
X105273130Y-178161657D01*
X105386343Y-178274870D01*
X105386344Y-178274872D01*
X105475295Y-178407995D01*
X105508839Y-178488978D01*
X105536565Y-178555915D01*
X105567800Y-178712946D01*
X105567800Y-178873054D01*
X105548505Y-178970059D01*
X105536564Y-179030088D01*
X105475295Y-179178005D01*
X105421458Y-179258577D01*
X105386343Y-179311130D01*
X105273130Y-179424343D01*
X105239622Y-179446732D01*
X105140005Y-179513295D01*
X104992088Y-179574564D01*
X104992087Y-179574564D01*
X104992085Y-179574565D01*
X104835054Y-179605800D01*
X104674946Y-179605800D01*
X104517915Y-179574565D01*
X104517913Y-179574564D01*
X104517912Y-179574564D01*
X104369995Y-179513295D01*
X104270378Y-179446732D01*
X104236870Y-179424343D01*
X104123657Y-179311130D01*
X104088542Y-179258577D01*
X104034705Y-179178005D01*
X103973436Y-179030088D01*
X103961496Y-178970059D01*
X103942200Y-178873054D01*
X103942200Y-178712946D01*
X103973435Y-178555915D01*
X104001161Y-178488978D01*
X104034705Y-178407995D01*
X104123656Y-178274872D01*
X104123657Y-178274870D01*
X104236870Y-178161657D01*
X104270378Y-178139267D01*
X104369995Y-178072705D01*
X104517912Y-178011436D01*
X104517913Y-178011436D01*
X104517915Y-178011435D01*
X104674946Y-177980200D01*
X104835054Y-177980200D01*
X104992085Y-178011435D01*
X104992085Y-178011435D01*
G37*
G36*
X91892800Y-179370800D02*
G01*
X91241200Y-179370800D01*
X91241200Y-178769200D01*
X91892800Y-178769200D01*
X91892800Y-179370800D01*
X91892800Y-179370800D01*
G37*
G36*
X92017800Y-177996800D02*
G01*
X91116200Y-177996800D01*
X91116200Y-177095200D01*
X92017800Y-177095200D01*
X92017800Y-177996800D01*
X92017800Y-177996800D01*
G37*
G36*
X94371800Y-177404800D02*
G01*
X93720200Y-177404800D01*
X93720200Y-176103200D01*
X94371800Y-176103200D01*
X94371800Y-177404800D01*
X94371800Y-177404800D01*
G37*
G36*
X96271800Y-177404800D02*
G01*
X95620200Y-177404800D01*
X95620200Y-176103200D01*
X96271800Y-176103200D01*
X96271800Y-177404800D01*
X96271800Y-177404800D01*
G37*
G36*
X103722085Y-175471435D02*
G01*
X103722087Y-175471436D01*
X103722088Y-175471436D01*
X103870005Y-175532705D01*
X103969622Y-175599268D01*
X104003130Y-175621657D01*
X104116343Y-175734870D01*
X104116344Y-175734872D01*
X104205295Y-175867995D01*
X104232195Y-175932938D01*
X104266565Y-176015915D01*
X104297800Y-176172946D01*
X104297800Y-176333052D01*
X104266564Y-176490088D01*
X104205295Y-176638005D01*
X104138732Y-176737622D01*
X104116343Y-176771130D01*
X104003130Y-176884343D01*
X103969622Y-176906733D01*
X103870005Y-176973295D01*
X103722088Y-177034564D01*
X103722087Y-177034564D01*
X103722085Y-177034565D01*
X103565054Y-177065800D01*
X103404946Y-177065800D01*
X103247915Y-177034565D01*
X103247913Y-177034564D01*
X103247912Y-177034564D01*
X103099995Y-176973295D01*
X103000378Y-176906732D01*
X102966870Y-176884343D01*
X102853657Y-176771130D01*
X102831268Y-176737622D01*
X102764705Y-176638005D01*
X102703436Y-176490088D01*
X102672200Y-176333052D01*
X102672200Y-176172946D01*
X102703435Y-176015915D01*
X102737805Y-175932938D01*
X102764705Y-175867995D01*
X102853656Y-175734872D01*
X102853657Y-175734870D01*
X102966870Y-175621657D01*
X103000378Y-175599268D01*
X103099995Y-175532705D01*
X103247912Y-175471436D01*
X103247913Y-175471436D01*
X103247915Y-175471435D01*
X103404946Y-175440200D01*
X103565054Y-175440200D01*
X103722085Y-175471435D01*
X103722085Y-175471435D01*
G37*
G36*
X113882085Y-175471435D02*
G01*
X113882087Y-175471436D01*
X113882088Y-175471436D01*
X114030005Y-175532705D01*
X114129622Y-175599268D01*
X114163130Y-175621657D01*
X114276343Y-175734870D01*
X114276344Y-175734872D01*
X114365295Y-175867995D01*
X114392195Y-175932938D01*
X114426565Y-176015915D01*
X114457800Y-176172946D01*
X114457800Y-176333052D01*
X114426564Y-176490088D01*
X114365295Y-176638005D01*
X114298732Y-176737622D01*
X114276343Y-176771130D01*
X114163130Y-176884343D01*
X114129622Y-176906733D01*
X114030005Y-176973295D01*
X113882088Y-177034564D01*
X113882087Y-177034564D01*
X113882085Y-177034565D01*
X113725054Y-177065800D01*
X113564946Y-177065800D01*
X113407915Y-177034565D01*
X113407913Y-177034564D01*
X113407912Y-177034564D01*
X113259995Y-176973295D01*
X113160378Y-176906732D01*
X113126870Y-176884343D01*
X113013657Y-176771130D01*
X112991268Y-176737622D01*
X112924705Y-176638005D01*
X112863436Y-176490088D01*
X112832200Y-176333052D01*
X112832200Y-176172946D01*
X112863435Y-176015915D01*
X112897805Y-175932938D01*
X112924705Y-175867995D01*
X113013656Y-175734872D01*
X113013657Y-175734870D01*
X113126870Y-175621657D01*
X113160378Y-175599268D01*
X113259995Y-175532705D01*
X113407912Y-175471436D01*
X113407913Y-175471436D01*
X113407915Y-175471435D01*
X113564946Y-175440200D01*
X113725054Y-175440200D01*
X113882085Y-175471435D01*
X113882085Y-175471435D01*
G37*
G36*
X106262085Y-175471435D02*
G01*
X106262087Y-175471436D01*
X106262088Y-175471436D01*
X106410005Y-175532705D01*
X106509622Y-175599268D01*
X106543130Y-175621657D01*
X106656343Y-175734870D01*
X106656344Y-175734872D01*
X106745295Y-175867995D01*
X106772195Y-175932938D01*
X106806565Y-176015915D01*
X106837800Y-176172946D01*
X106837800Y-176333052D01*
X106806564Y-176490088D01*
X106745295Y-176638005D01*
X106678732Y-176737622D01*
X106656343Y-176771130D01*
X106543130Y-176884343D01*
X106509622Y-176906733D01*
X106410005Y-176973295D01*
X106262088Y-177034564D01*
X106262087Y-177034564D01*
X106262085Y-177034565D01*
X106105054Y-177065800D01*
X105944946Y-177065800D01*
X105787915Y-177034565D01*
X105787913Y-177034564D01*
X105787912Y-177034564D01*
X105639995Y-176973295D01*
X105540378Y-176906732D01*
X105506870Y-176884343D01*
X105393657Y-176771130D01*
X105371268Y-176737622D01*
X105304705Y-176638005D01*
X105243436Y-176490088D01*
X105212200Y-176333052D01*
X105212200Y-176172946D01*
X105243435Y-176015915D01*
X105277805Y-175932938D01*
X105304705Y-175867995D01*
X105393656Y-175734872D01*
X105393657Y-175734870D01*
X105506870Y-175621657D01*
X105540378Y-175599268D01*
X105639995Y-175532705D01*
X105787912Y-175471436D01*
X105787913Y-175471436D01*
X105787915Y-175471435D01*
X105944946Y-175440200D01*
X106105054Y-175440200D01*
X106262085Y-175471435D01*
X106262085Y-175471435D01*
G37*
G36*
X108802085Y-175471435D02*
G01*
X108802087Y-175471436D01*
X108802088Y-175471436D01*
X108950005Y-175532705D01*
X109049622Y-175599268D01*
X109083130Y-175621657D01*
X109196343Y-175734870D01*
X109196344Y-175734872D01*
X109285295Y-175867995D01*
X109312195Y-175932938D01*
X109346565Y-176015915D01*
X109377800Y-176172946D01*
X109377800Y-176333052D01*
X109346564Y-176490088D01*
X109285295Y-176638005D01*
X109218732Y-176737622D01*
X109196343Y-176771130D01*
X109083130Y-176884343D01*
X109049622Y-176906733D01*
X108950005Y-176973295D01*
X108802088Y-177034564D01*
X108802087Y-177034564D01*
X108802085Y-177034565D01*
X108645054Y-177065800D01*
X108484946Y-177065800D01*
X108327915Y-177034565D01*
X108327913Y-177034564D01*
X108327912Y-177034564D01*
X108179995Y-176973295D01*
X108080378Y-176906732D01*
X108046870Y-176884343D01*
X107933657Y-176771130D01*
X107911268Y-176737622D01*
X107844705Y-176638005D01*
X107783436Y-176490088D01*
X107752200Y-176333052D01*
X107752200Y-176172946D01*
X107783435Y-176015915D01*
X107817805Y-175932938D01*
X107844705Y-175867995D01*
X107933656Y-175734872D01*
X107933657Y-175734870D01*
X108046870Y-175621657D01*
X108080378Y-175599268D01*
X108179995Y-175532705D01*
X108327912Y-175471436D01*
X108327913Y-175471436D01*
X108327915Y-175471435D01*
X108484946Y-175440200D01*
X108645054Y-175440200D01*
X108802085Y-175471435D01*
X108802085Y-175471435D01*
G37*
G36*
X92017800Y-176472800D02*
G01*
X91116200Y-176472800D01*
X91116200Y-175571200D01*
X92017800Y-175571200D01*
X92017800Y-176472800D01*
X92017800Y-176472800D01*
G37*
G36*
X96189800Y-175818800D02*
G01*
X95072200Y-175818800D01*
X95072200Y-174701200D01*
X96189800Y-174701200D01*
X96189800Y-175818800D01*
X96189800Y-175818800D01*
G37*
G36*
X97480800Y-174671800D02*
G01*
X96829200Y-174671800D01*
X96829200Y-174070200D01*
X97480800Y-174070200D01*
X97480800Y-174671800D01*
X97480800Y-174671800D01*
G37*
G36*
X94432800Y-174671800D02*
G01*
X93781200Y-174671800D01*
X93781200Y-174070200D01*
X94432800Y-174070200D01*
X94432800Y-174671800D01*
X94432800Y-174671800D01*
G37*
G36*
X91892800Y-174671800D02*
G01*
X91241200Y-174671800D01*
X91241200Y-174070200D01*
X91892800Y-174070200D01*
X91892800Y-174671800D01*
X91892800Y-174671800D01*
G37*
G36*
X96189800Y-174040800D02*
G01*
X95072200Y-174040800D01*
X95072200Y-172923200D01*
X96189800Y-172923200D01*
X96189800Y-174040800D01*
X96189800Y-174040800D01*
G37*
G36*
X91892800Y-173655800D02*
G01*
X91241200Y-173655800D01*
X91241200Y-173054200D01*
X91892800Y-173054200D01*
X91892800Y-173655800D01*
X91892800Y-173655800D01*
G37*
G36*
X97480800Y-173655800D02*
G01*
X96829200Y-173655800D01*
X96829200Y-173054200D01*
X97480800Y-173054200D01*
X97480800Y-173655800D01*
X97480800Y-173655800D01*
G37*
G36*
X94432800Y-173655800D02*
G01*
X93781200Y-173655800D01*
X93781200Y-173054200D01*
X94432800Y-173054200D01*
X94432800Y-173655800D01*
X94432800Y-173655800D01*
G37*
G36*
X92017800Y-172281800D02*
G01*
X91116200Y-172281800D01*
X91116200Y-171380200D01*
X92017800Y-171380200D01*
X92017800Y-172281800D01*
X92017800Y-172281800D01*
G37*
G36*
X109833800Y-171168800D02*
G01*
X107532200Y-171168800D01*
X107532200Y-167667200D01*
X109833800Y-167667200D01*
X109833800Y-171168800D01*
X109833800Y-171168800D01*
G37*
G36*
X103033800Y-171168800D02*
G01*
X100732200Y-171168800D01*
X100732200Y-167667200D01*
X103033800Y-167667200D01*
X103033800Y-171168800D01*
X103033800Y-171168800D01*
G37*
G36*
X92017800Y-170757800D02*
G01*
X91116200Y-170757800D01*
X91116200Y-169856200D01*
X92017800Y-169856200D01*
X92017800Y-170757800D01*
X92017800Y-170757800D01*
G37*
G36*
X116735800Y-169468800D02*
G01*
X115110200Y-169468800D01*
X115110200Y-167843200D01*
X116735800Y-167843200D01*
X116735800Y-169468800D01*
X116735800Y-169468800D01*
G37*
G36*
X112660085Y-167874435D02*
G01*
X112660087Y-167874436D01*
X112660088Y-167874436D01*
X112808005Y-167935705D01*
X112907622Y-168002267D01*
X112941130Y-168024657D01*
X113054343Y-168137870D01*
X113054344Y-168137872D01*
X113143295Y-168270995D01*
X113204564Y-168418912D01*
X113235800Y-168575948D01*
X113235800Y-168736052D01*
X113204564Y-168893088D01*
X113143295Y-169041005D01*
X113076732Y-169140622D01*
X113054343Y-169174130D01*
X112941130Y-169287343D01*
X112907622Y-169309733D01*
X112808005Y-169376295D01*
X112660088Y-169437564D01*
X112660087Y-169437564D01*
X112660085Y-169437565D01*
X112503054Y-169468800D01*
X112342946Y-169468800D01*
X112185915Y-169437565D01*
X112185913Y-169437564D01*
X112185912Y-169437564D01*
X112037995Y-169376295D01*
X111938378Y-169309733D01*
X111904870Y-169287343D01*
X111791657Y-169174130D01*
X111769268Y-169140622D01*
X111702705Y-169041005D01*
X111641436Y-168893088D01*
X111610200Y-168736052D01*
X111610200Y-168575948D01*
X111641436Y-168418912D01*
X111702705Y-168270995D01*
X111791656Y-168137872D01*
X111791657Y-168137870D01*
X111904870Y-168024657D01*
X111938378Y-168002267D01*
X112037995Y-167935705D01*
X112185912Y-167874436D01*
X112185913Y-167874436D01*
X112185915Y-167874435D01*
X112342946Y-167843200D01*
X112503054Y-167843200D01*
X112660085Y-167874435D01*
X112660085Y-167874435D01*
G37*
G36*
X91892800Y-168956800D02*
G01*
X91241200Y-168956800D01*
X91241200Y-168355200D01*
X91892800Y-168355200D01*
X91892800Y-168956800D01*
X91892800Y-168956800D01*
G37*
G36*
X91892800Y-167940800D02*
G01*
X91241200Y-167940800D01*
X91241200Y-167339200D01*
X91892800Y-167339200D01*
X91892800Y-167940800D01*
X91892800Y-167940800D01*
G37*
G36*
X92017800Y-166566800D02*
G01*
X91116200Y-166566800D01*
X91116200Y-165665200D01*
X92017800Y-165665200D01*
X92017800Y-166566800D01*
X92017800Y-166566800D01*
G37*
G36*
X110527799Y-166042799D02*
G01*
X107626201Y-166042799D01*
X107626201Y-163141201D01*
X110527799Y-163141201D01*
X110527799Y-166042799D01*
X110527799Y-166042799D01*
G37*
G36*
X101583085Y-163536435D02*
G01*
X101583087Y-163536436D01*
X101583088Y-163536436D01*
X101731005Y-163597705D01*
X101830622Y-163664267D01*
X101864130Y-163686657D01*
X101977343Y-163799870D01*
X101977344Y-163799872D01*
X102066295Y-163932995D01*
X102127564Y-164080912D01*
X102158800Y-164237948D01*
X102158800Y-164398052D01*
X102127564Y-164555088D01*
X102066295Y-164703005D01*
X101999732Y-164802622D01*
X101977343Y-164836130D01*
X101864130Y-164949343D01*
X101830622Y-164971732D01*
X101731005Y-165038295D01*
X101583088Y-165099564D01*
X101583087Y-165099564D01*
X101583085Y-165099565D01*
X101426054Y-165130800D01*
X101265946Y-165130800D01*
X101108915Y-165099565D01*
X101108913Y-165099564D01*
X101108912Y-165099564D01*
X100960995Y-165038295D01*
X100861378Y-164971733D01*
X100827870Y-164949343D01*
X100714657Y-164836130D01*
X100692268Y-164802622D01*
X100625705Y-164703005D01*
X100564436Y-164555088D01*
X100533200Y-164398052D01*
X100533200Y-164237948D01*
X100564436Y-164080912D01*
X100625705Y-163932995D01*
X100714656Y-163799872D01*
X100714657Y-163799870D01*
X100827870Y-163686657D01*
X100861378Y-163664268D01*
X100960995Y-163597705D01*
X101108912Y-163536436D01*
X101108913Y-163536436D01*
X101108915Y-163536435D01*
X101265946Y-163505200D01*
X101426054Y-163505200D01*
X101583085Y-163536435D01*
X101583085Y-163536435D01*
G37*
G36*
X92017800Y-165042800D02*
G01*
X91116200Y-165042800D01*
X91116200Y-164141200D01*
X92017800Y-164141200D01*
X92017800Y-165042800D01*
X92017800Y-165042800D01*
G37*
G36*
X91892800Y-163241800D02*
G01*
X91241200Y-163241800D01*
X91241200Y-162640200D01*
X91892800Y-162640200D01*
X91892800Y-163241800D01*
X91892800Y-163241800D01*
G37*
G36*
X102158800Y-162630800D02*
G01*
X100533200Y-162630800D01*
X100533200Y-161005200D01*
X102158800Y-161005200D01*
X102158800Y-162630800D01*
X102158800Y-162630800D01*
G37*
G36*
X91892800Y-162225800D02*
G01*
X91241200Y-162225800D01*
X91241200Y-161624200D01*
X91892800Y-161624200D01*
X91892800Y-162225800D01*
X91892800Y-162225800D01*
G37*
G36*
X95173800Y-161086800D02*
G01*
X93802200Y-161086800D01*
X93802200Y-159461200D01*
X95173800Y-159461200D01*
X95173800Y-161086800D01*
X95173800Y-161086800D01*
G37*
G36*
X107044800Y-160939800D02*
G01*
X103743200Y-160939800D01*
X103743200Y-158338200D01*
X107044800Y-158338200D01*
X107044800Y-160939800D01*
X107044800Y-160939800D01*
G37*
G36*
X117744800Y-160939800D02*
G01*
X114443200Y-160939800D01*
X114443200Y-158338200D01*
X117744800Y-158338200D01*
X117744800Y-160939800D01*
X117744800Y-160939800D01*
G37*
G36*
X92017800Y-160851800D02*
G01*
X91116200Y-160851800D01*
X91116200Y-159950200D01*
X92017800Y-159950200D01*
X92017800Y-160851800D01*
X92017800Y-160851800D01*
G37*
G36*
X92017800Y-159327800D02*
G01*
X91116200Y-159327800D01*
X91116200Y-158426200D01*
X92017800Y-158426200D01*
X92017800Y-159327800D01*
X92017800Y-159327800D01*
G37*
G36*
X95173800Y-159054800D02*
G01*
X93802200Y-159054800D01*
X93802200Y-157429200D01*
X95173800Y-157429200D01*
X95173800Y-159054800D01*
X95173800Y-159054800D01*
G37*
G36*
X97373576Y-155612616D02*
G01*
X97496256Y-155649831D01*
X97556687Y-155682132D01*
X97609314Y-155710262D01*
X97609316Y-155710263D01*
X97609315Y-155710263D01*
X97708411Y-155791589D01*
X97789737Y-155890685D01*
X97850169Y-156003744D01*
X97887384Y-156126424D01*
X97899949Y-156254000D01*
X97887384Y-156381576D01*
X97850169Y-156504256D01*
X97817868Y-156564687D01*
X97789738Y-156617314D01*
X97708411Y-156716411D01*
X97609314Y-156797738D01*
X97556687Y-156825868D01*
X97496256Y-156858169D01*
X97373576Y-156895384D01*
X97277969Y-156904800D01*
X96614031Y-156904800D01*
X96518424Y-156895384D01*
X96395744Y-156858169D01*
X96335313Y-156825868D01*
X96282686Y-156797738D01*
X96183589Y-156716411D01*
X96102262Y-156617314D01*
X96074132Y-156564687D01*
X96041831Y-156504256D01*
X96004616Y-156381576D01*
X95992051Y-156254000D01*
X96004616Y-156126424D01*
X96041831Y-156003744D01*
X96102263Y-155890685D01*
X96183589Y-155791589D01*
X96282685Y-155710263D01*
X96282684Y-155710263D01*
X96282686Y-155710262D01*
X96335313Y-155682132D01*
X96395744Y-155649831D01*
X96518424Y-155612616D01*
X96614031Y-155603200D01*
X97277969Y-155603200D01*
X97373576Y-155612616D01*
X97373576Y-155612616D01*
G37*
G36*
X93903576Y-155612616D02*
G01*
X94026256Y-155649831D01*
X94086687Y-155682132D01*
X94139314Y-155710262D01*
X94139316Y-155710263D01*
X94139315Y-155710263D01*
X94238411Y-155791589D01*
X94319737Y-155890685D01*
X94380169Y-156003744D01*
X94417384Y-156126424D01*
X94429949Y-156254000D01*
X94417384Y-156381576D01*
X94380169Y-156504256D01*
X94347868Y-156564687D01*
X94319738Y-156617314D01*
X94238411Y-156716411D01*
X94139314Y-156797738D01*
X94086687Y-156825868D01*
X94026256Y-156858169D01*
X93903576Y-156895384D01*
X93807969Y-156904800D01*
X93144031Y-156904800D01*
X93048424Y-156895384D01*
X92925744Y-156858169D01*
X92865313Y-156825868D01*
X92812686Y-156797738D01*
X92713589Y-156716411D01*
X92632262Y-156617314D01*
X92604132Y-156564687D01*
X92571831Y-156504256D01*
X92534616Y-156381576D01*
X92522051Y-156254000D01*
X92534616Y-156126424D01*
X92571831Y-156003744D01*
X92632263Y-155890685D01*
X92713589Y-155791589D01*
X92812685Y-155710263D01*
X92812684Y-155710263D01*
X92812686Y-155710262D01*
X92865313Y-155682132D01*
X92925744Y-155649831D01*
X93048424Y-155612616D01*
X93144031Y-155603200D01*
X93807969Y-155603200D01*
X93903576Y-155612616D01*
X93903576Y-155612616D01*
G37*
G36*
X111080126Y-150650135D02*
G01*
X111281221Y-150711137D01*
X111466550Y-150810197D01*
X111594105Y-150914879D01*
X111628991Y-150943509D01*
X111762302Y-151105949D01*
X111861363Y-151291278D01*
X111922365Y-151492373D01*
X111937800Y-151649093D01*
X111937800Y-155817907D01*
X111922365Y-155974627D01*
X111861363Y-156175722D01*
X111762303Y-156361050D01*
X111628991Y-156523491D01*
X111466550Y-156656803D01*
X111355031Y-156716411D01*
X111281222Y-156755863D01*
X111080127Y-156816865D01*
X110871000Y-156837462D01*
X110661874Y-156816865D01*
X110460779Y-156755863D01*
X110386970Y-156716411D01*
X110275451Y-156656803D01*
X110113010Y-156523491D01*
X109979698Y-156361050D01*
X109880638Y-156175722D01*
X109819636Y-155974627D01*
X109804201Y-155817907D01*
X109804200Y-151649094D01*
X109819635Y-151492374D01*
X109880637Y-151291279D01*
X109979698Y-151105949D01*
X110113009Y-150943509D01*
X110147895Y-150914879D01*
X110275450Y-150810197D01*
X110460778Y-150711137D01*
X110661873Y-150650135D01*
X110871000Y-150629538D01*
X111080126Y-150650135D01*
X111080126Y-150650135D01*
G37*
G36*
X95728324Y-154316681D02*
G01*
X95728326Y-154316682D01*
X95728327Y-154316682D01*
X95792166Y-154343125D01*
X95844643Y-154378189D01*
X95861931Y-154387430D01*
X95880691Y-154393120D01*
X95900200Y-154395042D01*
X95919709Y-154393121D01*
X95938468Y-154387430D01*
X95945727Y-154383550D01*
X95943107Y-154386743D01*
X95933866Y-154404032D01*
X95928175Y-154422791D01*
X95926254Y-154442300D01*
X95928175Y-154461809D01*
X95933866Y-154480568D01*
X95963318Y-154551673D01*
X95963319Y-154551676D01*
X95976800Y-154619449D01*
X95976800Y-154688551D01*
X95963622Y-154754800D01*
X95963318Y-154756327D01*
X95936877Y-154820163D01*
X95936875Y-154820166D01*
X95898484Y-154877622D01*
X95849622Y-154926484D01*
X95792166Y-154964875D01*
X95792163Y-154964877D01*
X95728327Y-154991318D01*
X95728326Y-154991318D01*
X95728324Y-154991319D01*
X95660551Y-155004800D01*
X95591449Y-155004800D01*
X95523676Y-154991319D01*
X95523674Y-154991318D01*
X95523673Y-154991318D01*
X95459837Y-154964877D01*
X95459834Y-154964875D01*
X95402378Y-154926484D01*
X95353516Y-154877622D01*
X95315125Y-154820166D01*
X95315123Y-154820163D01*
X95288682Y-154756327D01*
X95288378Y-154754800D01*
X95275200Y-154688551D01*
X95275200Y-154619449D01*
X95288681Y-154551676D01*
X95288682Y-154551673D01*
X95315123Y-154487837D01*
X95319980Y-154480568D01*
X95353516Y-154430378D01*
X95402378Y-154381516D01*
X95459834Y-154343125D01*
X95459837Y-154343123D01*
X95523673Y-154316682D01*
X95523674Y-154316682D01*
X95523676Y-154316681D01*
X95591449Y-154303200D01*
X95660551Y-154303200D01*
X95728324Y-154316681D01*
X95728324Y-154316681D01*
G37*
G36*
X92876800Y-154754800D02*
G01*
X91775200Y-154754800D01*
X91775200Y-153553200D01*
X92876800Y-153553200D01*
X92876800Y-154754800D01*
X92876800Y-154754800D01*
G37*
G36*
X100948085Y-152761435D02*
G01*
X100948087Y-152761436D01*
X100948088Y-152761436D01*
X101096005Y-152822705D01*
X101162745Y-152867300D01*
X101229130Y-152911657D01*
X101342343Y-153024870D01*
X101342344Y-153024872D01*
X101431295Y-153157995D01*
X101492564Y-153305912D01*
X101523800Y-153462948D01*
X101523800Y-153623052D01*
X101492564Y-153780088D01*
X101431295Y-153928005D01*
X101364733Y-154027622D01*
X101342343Y-154061130D01*
X101229130Y-154174343D01*
X101195622Y-154196733D01*
X101096005Y-154263295D01*
X100948088Y-154324564D01*
X100948087Y-154324564D01*
X100948085Y-154324565D01*
X100791054Y-154355800D01*
X100630946Y-154355800D01*
X100473915Y-154324565D01*
X100473913Y-154324564D01*
X100473912Y-154324564D01*
X100325995Y-154263295D01*
X100226378Y-154196733D01*
X100192870Y-154174343D01*
X100079657Y-154061130D01*
X100057267Y-154027622D01*
X99990705Y-153928005D01*
X99929436Y-153780088D01*
X99898200Y-153623052D01*
X99898200Y-153462948D01*
X99929436Y-153305912D01*
X99990705Y-153157995D01*
X100079656Y-153024872D01*
X100079657Y-153024870D01*
X100192870Y-152911657D01*
X100259255Y-152867300D01*
X100325995Y-152822705D01*
X100473912Y-152761436D01*
X100473913Y-152761436D01*
X100473915Y-152761435D01*
X100630946Y-152730200D01*
X100791054Y-152730200D01*
X100948085Y-152761435D01*
X100948085Y-152761435D01*
G37*
G36*
X106028085Y-152761435D02*
G01*
X106028087Y-152761436D01*
X106028088Y-152761436D01*
X106176005Y-152822705D01*
X106242745Y-152867300D01*
X106309130Y-152911657D01*
X106422343Y-153024870D01*
X106422344Y-153024872D01*
X106511295Y-153157995D01*
X106572564Y-153305912D01*
X106603800Y-153462948D01*
X106603800Y-153623052D01*
X106572564Y-153780088D01*
X106511295Y-153928005D01*
X106444733Y-154027622D01*
X106422343Y-154061130D01*
X106309130Y-154174343D01*
X106275622Y-154196733D01*
X106176005Y-154263295D01*
X106028088Y-154324564D01*
X106028087Y-154324564D01*
X106028085Y-154324565D01*
X105871054Y-154355800D01*
X105710946Y-154355800D01*
X105553915Y-154324565D01*
X105553913Y-154324564D01*
X105553912Y-154324564D01*
X105405995Y-154263295D01*
X105306378Y-154196733D01*
X105272870Y-154174343D01*
X105159657Y-154061130D01*
X105137267Y-154027622D01*
X105070705Y-153928005D01*
X105009436Y-153780088D01*
X104978200Y-153623052D01*
X104978200Y-153462948D01*
X105009436Y-153305912D01*
X105070705Y-153157995D01*
X105159656Y-153024872D01*
X105159657Y-153024870D01*
X105272870Y-152911657D01*
X105339255Y-152867300D01*
X105405995Y-152822705D01*
X105553912Y-152761436D01*
X105553913Y-152761436D01*
X105553915Y-152761435D01*
X105710946Y-152730200D01*
X105871054Y-152730200D01*
X106028085Y-152761435D01*
X106028085Y-152761435D01*
G37*
G36*
X113648085Y-152761435D02*
G01*
X113648087Y-152761436D01*
X113648088Y-152761436D01*
X113796005Y-152822705D01*
X113862745Y-152867300D01*
X113929130Y-152911657D01*
X114042343Y-153024870D01*
X114042344Y-153024872D01*
X114131295Y-153157995D01*
X114192564Y-153305912D01*
X114223800Y-153462948D01*
X114223800Y-153623052D01*
X114192564Y-153780088D01*
X114131295Y-153928005D01*
X114064733Y-154027622D01*
X114042343Y-154061130D01*
X113929130Y-154174343D01*
X113895622Y-154196733D01*
X113796005Y-154263295D01*
X113648088Y-154324564D01*
X113648087Y-154324564D01*
X113648085Y-154324565D01*
X113491054Y-154355800D01*
X113330946Y-154355800D01*
X113173915Y-154324565D01*
X113173913Y-154324564D01*
X113173912Y-154324564D01*
X113025995Y-154263295D01*
X112926378Y-154196733D01*
X112892870Y-154174343D01*
X112779657Y-154061130D01*
X112757267Y-154027622D01*
X112690705Y-153928005D01*
X112629436Y-153780088D01*
X112598200Y-153623052D01*
X112598200Y-153462948D01*
X112629436Y-153305912D01*
X112690705Y-153157995D01*
X112779656Y-153024872D01*
X112779657Y-153024870D01*
X112892870Y-152911657D01*
X112959255Y-152867300D01*
X113025995Y-152822705D01*
X113173912Y-152761436D01*
X113173913Y-152761436D01*
X113173915Y-152761435D01*
X113330946Y-152730200D01*
X113491054Y-152730200D01*
X113648085Y-152761435D01*
X113648085Y-152761435D01*
G37*
G36*
X116763800Y-154355800D02*
G01*
X115138200Y-154355800D01*
X115138200Y-152730200D01*
X116763800Y-152730200D01*
X116763800Y-154355800D01*
X116763800Y-154355800D01*
G37*
G36*
X103488085Y-152761435D02*
G01*
X103488087Y-152761436D01*
X103488088Y-152761436D01*
X103636005Y-152822705D01*
X103702745Y-152867300D01*
X103769130Y-152911657D01*
X103882343Y-153024870D01*
X103882344Y-153024872D01*
X103971295Y-153157995D01*
X104032564Y-153305912D01*
X104063800Y-153462948D01*
X104063800Y-153623052D01*
X104032564Y-153780088D01*
X103971295Y-153928005D01*
X103904733Y-154027622D01*
X103882343Y-154061130D01*
X103769130Y-154174343D01*
X103735622Y-154196733D01*
X103636005Y-154263295D01*
X103488088Y-154324564D01*
X103488087Y-154324564D01*
X103488085Y-154324565D01*
X103331054Y-154355800D01*
X103170946Y-154355800D01*
X103013915Y-154324565D01*
X103013913Y-154324564D01*
X103013912Y-154324564D01*
X102865995Y-154263295D01*
X102766378Y-154196733D01*
X102732870Y-154174343D01*
X102619657Y-154061130D01*
X102597267Y-154027622D01*
X102530705Y-153928005D01*
X102469436Y-153780088D01*
X102438200Y-153623052D01*
X102438200Y-153462948D01*
X102469436Y-153305912D01*
X102530705Y-153157995D01*
X102619656Y-153024872D01*
X102619657Y-153024870D01*
X102732870Y-152911657D01*
X102799255Y-152867300D01*
X102865995Y-152822705D01*
X103013912Y-152761436D01*
X103013913Y-152761436D01*
X103013915Y-152761435D01*
X103170946Y-152730200D01*
X103331054Y-152730200D01*
X103488085Y-152761435D01*
X103488085Y-152761435D01*
G37*
G36*
X108568085Y-152761435D02*
G01*
X108568087Y-152761436D01*
X108568088Y-152761436D01*
X108716005Y-152822705D01*
X108782745Y-152867300D01*
X108849130Y-152911657D01*
X108962343Y-153024870D01*
X108962344Y-153024872D01*
X109051295Y-153157995D01*
X109112564Y-153305912D01*
X109143800Y-153462948D01*
X109143800Y-153623052D01*
X109112564Y-153780088D01*
X109051295Y-153928005D01*
X108984733Y-154027622D01*
X108962343Y-154061130D01*
X108849130Y-154174343D01*
X108815622Y-154196733D01*
X108716005Y-154263295D01*
X108568088Y-154324564D01*
X108568087Y-154324564D01*
X108568085Y-154324565D01*
X108411054Y-154355800D01*
X108250946Y-154355800D01*
X108093915Y-154324565D01*
X108093913Y-154324564D01*
X108093912Y-154324564D01*
X107945995Y-154263295D01*
X107846378Y-154196733D01*
X107812870Y-154174343D01*
X107699657Y-154061130D01*
X107677267Y-154027622D01*
X107610705Y-153928005D01*
X107549436Y-153780088D01*
X107518200Y-153623052D01*
X107518200Y-153462948D01*
X107549436Y-153305912D01*
X107610705Y-153157995D01*
X107699656Y-153024872D01*
X107699657Y-153024870D01*
X107812870Y-152911657D01*
X107879255Y-152867300D01*
X107945995Y-152822705D01*
X108093912Y-152761436D01*
X108093913Y-152761436D01*
X108093915Y-152761435D01*
X108250946Y-152730200D01*
X108411054Y-152730200D01*
X108568085Y-152761435D01*
X108568085Y-152761435D01*
G37*
G36*
X97751800Y-154342300D02*
G01*
X96026254Y-154342300D01*
X96006745Y-154344221D01*
X95987986Y-154349912D01*
X95980726Y-154353792D01*
X95983347Y-154350599D01*
X95992588Y-154333311D01*
X95998278Y-154314551D01*
X96000200Y-154295042D01*
X96000200Y-153740700D01*
X97751800Y-153740700D01*
X97751800Y-154342300D01*
X97751800Y-154342300D01*
G37*
G36*
X97751800Y-153517300D02*
G01*
X96000200Y-153517300D01*
X96000200Y-153090700D01*
X97751800Y-153090700D01*
X97751800Y-153517300D01*
X97751800Y-153517300D01*
G37*
G36*
X97751800Y-152867300D02*
G01*
X96000200Y-152867300D01*
X96000200Y-152440700D01*
X97751800Y-152440700D01*
X97751800Y-152867300D01*
X97751800Y-152867300D01*
G37*
G36*
X97751800Y-152217300D02*
G01*
X96000200Y-152217300D01*
X96000200Y-151790700D01*
X97751800Y-151790700D01*
X97751800Y-152217300D01*
X97751800Y-152217300D01*
G37*
G36*
X92876800Y-151754800D02*
G01*
X91775200Y-151754800D01*
X91775200Y-150553200D01*
X92876800Y-150553200D01*
X92876800Y-151754800D01*
X92876800Y-151754800D01*
G37*
G36*
X95987986Y-150958088D02*
G01*
X96006746Y-150963779D01*
X96026254Y-150965700D01*
X97751800Y-150965700D01*
X97751800Y-151567300D01*
X96000200Y-151567300D01*
X96000200Y-151012958D01*
X95998279Y-150993449D01*
X95992588Y-150974690D01*
X95983347Y-150957401D01*
X95980726Y-150954207D01*
X95987986Y-150958088D01*
X95987986Y-150958088D01*
G37*
G36*
X95728324Y-150316681D02*
G01*
X95728326Y-150316682D01*
X95728327Y-150316682D01*
X95792163Y-150343123D01*
X95792166Y-150343125D01*
X95849622Y-150381516D01*
X95898484Y-150430378D01*
X95936875Y-150487834D01*
X95936877Y-150487837D01*
X95963318Y-150551673D01*
X95963319Y-150551676D01*
X95976800Y-150619449D01*
X95976800Y-150688551D01*
X95972307Y-150711137D01*
X95963318Y-150756327D01*
X95933866Y-150827432D01*
X95928175Y-150846192D01*
X95926254Y-150865701D01*
X95928176Y-150885210D01*
X95933866Y-150903969D01*
X95943108Y-150921258D01*
X95945728Y-150924451D01*
X95938468Y-150920570D01*
X95919709Y-150914879D01*
X95900200Y-150912958D01*
X95880691Y-150914879D01*
X95861932Y-150920570D01*
X95844643Y-150929811D01*
X95792166Y-150964875D01*
X95728327Y-150991318D01*
X95728326Y-150991318D01*
X95728324Y-150991319D01*
X95660551Y-151004800D01*
X95591449Y-151004800D01*
X95523676Y-150991319D01*
X95523674Y-150991318D01*
X95523673Y-150991318D01*
X95459837Y-150964877D01*
X95449677Y-150958088D01*
X95402378Y-150926484D01*
X95353516Y-150877622D01*
X95315125Y-150820166D01*
X95315123Y-150820163D01*
X95288682Y-150756327D01*
X95279693Y-150711137D01*
X95275200Y-150688551D01*
X95275200Y-150619449D01*
X95288681Y-150551676D01*
X95288682Y-150551673D01*
X95315123Y-150487837D01*
X95315125Y-150487834D01*
X95353516Y-150430378D01*
X95402378Y-150381516D01*
X95459834Y-150343125D01*
X95459837Y-150343123D01*
X95523673Y-150316682D01*
X95523674Y-150316682D01*
X95523676Y-150316681D01*
X95591449Y-150303200D01*
X95660551Y-150303200D01*
X95728324Y-150316681D01*
X95728324Y-150316681D01*
G37*
G36*
X93903576Y-148412616D02*
G01*
X94026256Y-148449831D01*
X94086687Y-148482132D01*
X94139314Y-148510262D01*
X94139316Y-148510263D01*
X94139315Y-148510263D01*
X94238411Y-148591589D01*
X94319737Y-148690685D01*
X94380169Y-148803744D01*
X94417384Y-148926424D01*
X94429949Y-149054000D01*
X94417384Y-149181576D01*
X94380169Y-149304256D01*
X94347868Y-149364687D01*
X94319738Y-149417314D01*
X94238411Y-149516411D01*
X94139314Y-149597738D01*
X94086687Y-149625868D01*
X94026256Y-149658169D01*
X93903576Y-149695384D01*
X93807969Y-149704800D01*
X93144031Y-149704800D01*
X93048424Y-149695384D01*
X92925744Y-149658169D01*
X92865313Y-149625868D01*
X92812686Y-149597738D01*
X92713589Y-149516411D01*
X92632262Y-149417314D01*
X92604132Y-149364687D01*
X92571831Y-149304256D01*
X92534616Y-149181576D01*
X92522051Y-149054000D01*
X92534616Y-148926424D01*
X92571831Y-148803744D01*
X92632263Y-148690685D01*
X92713589Y-148591589D01*
X92812685Y-148510263D01*
X92812684Y-148510263D01*
X92812686Y-148510262D01*
X92865313Y-148482132D01*
X92925744Y-148449831D01*
X93048424Y-148412616D01*
X93144031Y-148403200D01*
X93807969Y-148403200D01*
X93903576Y-148412616D01*
X93903576Y-148412616D01*
G37*
G36*
X97373576Y-148412616D02*
G01*
X97496256Y-148449831D01*
X97556687Y-148482132D01*
X97609314Y-148510262D01*
X97609316Y-148510263D01*
X97609315Y-148510263D01*
X97708411Y-148591589D01*
X97789737Y-148690685D01*
X97850169Y-148803744D01*
X97887384Y-148926424D01*
X97899949Y-149054000D01*
X97887384Y-149181576D01*
X97850169Y-149304256D01*
X97817868Y-149364687D01*
X97789738Y-149417314D01*
X97708411Y-149516411D01*
X97609314Y-149597738D01*
X97556687Y-149625868D01*
X97496256Y-149658169D01*
X97373576Y-149695384D01*
X97277969Y-149704800D01*
X96614031Y-149704800D01*
X96518424Y-149695384D01*
X96395744Y-149658169D01*
X96335313Y-149625868D01*
X96282686Y-149597738D01*
X96183589Y-149516411D01*
X96102262Y-149417314D01*
X96074132Y-149364687D01*
X96041831Y-149304256D01*
X96004616Y-149181576D01*
X95992051Y-149054000D01*
X96004616Y-148926424D01*
X96041831Y-148803744D01*
X96102263Y-148690685D01*
X96183589Y-148591589D01*
X96282685Y-148510263D01*
X96282684Y-148510263D01*
X96282686Y-148510262D01*
X96335313Y-148482132D01*
X96395744Y-148449831D01*
X96518424Y-148412616D01*
X96614031Y-148403200D01*
X97277969Y-148403200D01*
X97373576Y-148412616D01*
X97373576Y-148412616D01*
G37*
G36*
X97073340Y-148030160D02*
G01*
X95971740Y-148030160D01*
X95971740Y-146528560D01*
X97073340Y-146528560D01*
X97073340Y-148030160D01*
X97073340Y-148030160D01*
G37*
G36*
X91714129Y-145176316D02*
G01*
X91714131Y-145176317D01*
X91714132Y-145176317D01*
X91885162Y-145247160D01*
X92039087Y-145350010D01*
X92169990Y-145480913D01*
X92272840Y-145634838D01*
X92343684Y-145805871D01*
X92379800Y-145987438D01*
X92379800Y-146172562D01*
X92343684Y-146354129D01*
X92343683Y-146354132D01*
X92272840Y-146525162D01*
X92169991Y-146679086D01*
X92039086Y-146809991D01*
X91885162Y-146912840D01*
X91714132Y-146983683D01*
X91714131Y-146983683D01*
X91714129Y-146983684D01*
X91532562Y-147019800D01*
X91347438Y-147019800D01*
X91165871Y-146983684D01*
X91165869Y-146983683D01*
X91165868Y-146983683D01*
X90994838Y-146912840D01*
X90840914Y-146809991D01*
X90710009Y-146679086D01*
X90607160Y-146525162D01*
X90536317Y-146354132D01*
X90536316Y-146354129D01*
X90500200Y-146172562D01*
X90500200Y-145987438D01*
X90536316Y-145805871D01*
X90607160Y-145634838D01*
X90710010Y-145480913D01*
X90840913Y-145350010D01*
X90994838Y-145247160D01*
X91165868Y-145176317D01*
X91165869Y-145176317D01*
X91165871Y-145176316D01*
X91347438Y-145140200D01*
X91532562Y-145140200D01*
X91714129Y-145176316D01*
X91714129Y-145176316D01*
G37*
G36*
X117114129Y-145176316D02*
G01*
X117114131Y-145176317D01*
X117114132Y-145176317D01*
X117285162Y-145247160D01*
X117439087Y-145350010D01*
X117569990Y-145480913D01*
X117672840Y-145634838D01*
X117743684Y-145805871D01*
X117779800Y-145987438D01*
X117779800Y-146172562D01*
X117743684Y-146354129D01*
X117743683Y-146354132D01*
X117672840Y-146525162D01*
X117569991Y-146679086D01*
X117439086Y-146809991D01*
X117285162Y-146912840D01*
X117114132Y-146983683D01*
X117114131Y-146983683D01*
X117114129Y-146983684D01*
X116932562Y-147019800D01*
X116747438Y-147019800D01*
X116565871Y-146983684D01*
X116565869Y-146983683D01*
X116565868Y-146983683D01*
X116394838Y-146912840D01*
X116240914Y-146809991D01*
X116110009Y-146679086D01*
X116007160Y-146525162D01*
X115936317Y-146354132D01*
X115936316Y-146354129D01*
X115900200Y-146172562D01*
X115900200Y-145987438D01*
X115936316Y-145805871D01*
X116007160Y-145634838D01*
X116110010Y-145480913D01*
X116240913Y-145350010D01*
X116394838Y-145247160D01*
X116565868Y-145176317D01*
X116565869Y-145176317D01*
X116565871Y-145176316D01*
X116747438Y-145140200D01*
X116932562Y-145140200D01*
X117114129Y-145176316D01*
X117114129Y-145176316D01*
G37*
G36*
X112088800Y-146103800D02*
G01*
X110587200Y-146103800D01*
X110587200Y-144802200D01*
X112088800Y-144802200D01*
X112088800Y-146103800D01*
X112088800Y-146103800D01*
G37*
G36*
X114288800Y-146103800D02*
G01*
X112787200Y-146103800D01*
X112787200Y-144802200D01*
X114288800Y-144802200D01*
X114288800Y-146103800D01*
X114288800Y-146103800D01*
G37*
G36*
X98020760Y-145820360D02*
G01*
X96919160Y-145820360D01*
X96919160Y-144318760D01*
X98020760Y-144318760D01*
X98020760Y-145820360D01*
X98020760Y-145820360D01*
G37*
G36*
X96118300Y-145820360D02*
G01*
X95016700Y-145820360D01*
X95016700Y-144318760D01*
X96118300Y-144318760D01*
X96118300Y-145820360D01*
X96118300Y-145820360D01*
G37*
G36*
X107513800Y-145334800D02*
G01*
X106862200Y-145334800D01*
X106862200Y-144733200D01*
X107513800Y-144733200D01*
X107513800Y-145334800D01*
X107513800Y-145334800D01*
G37*
G36*
X115260800Y-145334800D02*
G01*
X114609200Y-145334800D01*
X114609200Y-144733200D01*
X115260800Y-144733200D01*
X115260800Y-145334800D01*
X115260800Y-145334800D01*
G37*
G36*
X110307800Y-145334800D02*
G01*
X109656200Y-145334800D01*
X109656200Y-144733200D01*
X110307800Y-144733200D01*
X110307800Y-145334800D01*
X110307800Y-145334800D01*
G37*
G36*
X108402800Y-145334800D02*
G01*
X107751200Y-145334800D01*
X107751200Y-144733200D01*
X108402800Y-144733200D01*
X108402800Y-145334800D01*
X108402800Y-145334800D01*
G37*
G36*
X114288800Y-144503800D02*
G01*
X112787200Y-144503800D01*
X112787200Y-143202200D01*
X114288800Y-143202200D01*
X114288800Y-144503800D01*
X114288800Y-144503800D01*
G37*
G36*
X112088800Y-144503800D02*
G01*
X110587200Y-144503800D01*
X110587200Y-143202200D01*
X112088800Y-143202200D01*
X112088800Y-144503800D01*
X112088800Y-144503800D01*
G37*
G36*
X117114129Y-142636316D02*
G01*
X117114131Y-142636317D01*
X117114132Y-142636317D01*
X117285162Y-142707160D01*
X117439087Y-142810010D01*
X117569990Y-142940913D01*
X117672840Y-143094838D01*
X117743684Y-143265871D01*
X117779800Y-143447438D01*
X117779800Y-143632562D01*
X117762964Y-143717200D01*
X117743683Y-143814132D01*
X117672840Y-143985162D01*
X117569991Y-144139086D01*
X117439086Y-144269991D01*
X117285162Y-144372840D01*
X117114132Y-144443683D01*
X117114131Y-144443683D01*
X117114129Y-144443684D01*
X116932562Y-144479800D01*
X116747438Y-144479800D01*
X116565871Y-144443684D01*
X116565869Y-144443683D01*
X116565868Y-144443683D01*
X116394838Y-144372840D01*
X116240914Y-144269991D01*
X116110009Y-144139086D01*
X116007160Y-143985162D01*
X115936317Y-143814132D01*
X115917036Y-143717200D01*
X115900200Y-143632562D01*
X115900200Y-143447438D01*
X115936316Y-143265871D01*
X116007160Y-143094838D01*
X116110010Y-142940913D01*
X116240913Y-142810010D01*
X116394838Y-142707160D01*
X116565868Y-142636317D01*
X116565869Y-142636317D01*
X116565871Y-142636316D01*
X116747438Y-142600200D01*
X116932562Y-142600200D01*
X117114129Y-142636316D01*
X117114129Y-142636316D01*
G37*
G36*
X91714129Y-142636316D02*
G01*
X91714131Y-142636317D01*
X91714132Y-142636317D01*
X91885162Y-142707160D01*
X92039087Y-142810010D01*
X92169990Y-142940913D01*
X92272840Y-143094838D01*
X92343684Y-143265871D01*
X92379800Y-143447438D01*
X92379800Y-143632562D01*
X92362964Y-143717200D01*
X92343683Y-143814132D01*
X92272840Y-143985162D01*
X92169991Y-144139086D01*
X92039086Y-144269991D01*
X91885162Y-144372840D01*
X91714132Y-144443683D01*
X91714131Y-144443683D01*
X91714129Y-144443684D01*
X91532562Y-144479800D01*
X91347438Y-144479800D01*
X91165871Y-144443684D01*
X91165869Y-144443683D01*
X91165868Y-144443683D01*
X90994838Y-144372840D01*
X90840914Y-144269991D01*
X90710009Y-144139086D01*
X90607160Y-143985162D01*
X90536317Y-143814132D01*
X90517036Y-143717200D01*
X90500200Y-143632562D01*
X90500200Y-143447438D01*
X90536316Y-143265871D01*
X90607160Y-143094838D01*
X90710010Y-142940913D01*
X90840913Y-142810010D01*
X90994838Y-142707160D01*
X91165868Y-142636317D01*
X91165869Y-142636317D01*
X91165871Y-142636316D01*
X91347438Y-142600200D01*
X91532562Y-142600200D01*
X91714129Y-142636316D01*
X91714129Y-142636316D01*
G37*
G36*
X107513800Y-144318800D02*
G01*
X106862200Y-144318800D01*
X106862200Y-143717200D01*
X107513800Y-143717200D01*
X107513800Y-144318800D01*
X107513800Y-144318800D01*
G37*
G36*
X110307800Y-144318800D02*
G01*
X109656200Y-144318800D01*
X109656200Y-143717200D01*
X110307800Y-143717200D01*
X110307800Y-144318800D01*
X110307800Y-144318800D01*
G37*
G36*
X108402800Y-144318800D02*
G01*
X107751200Y-144318800D01*
X107751200Y-143717200D01*
X108402800Y-143717200D01*
X108402800Y-144318800D01*
X108402800Y-144318800D01*
G37*
G36*
X115260800Y-144318800D02*
G01*
X114609200Y-144318800D01*
X114609200Y-143717200D01*
X115260800Y-143717200D01*
X115260800Y-144318800D01*
X115260800Y-144318800D01*
G37*
G36*
X98970800Y-143752800D02*
G01*
X97869200Y-143752800D01*
X97869200Y-142251200D01*
X98970800Y-142251200D01*
X98970800Y-143752800D01*
X98970800Y-143752800D01*
G37*
G36*
X95170800Y-143752800D02*
G01*
X94069200Y-143752800D01*
X94069200Y-142251200D01*
X95170800Y-142251200D01*
X95170800Y-143752800D01*
X95170800Y-143752800D01*
G37*
G36*
X111171800Y-142819800D02*
G01*
X110570200Y-142819800D01*
X110570200Y-142168200D01*
X111171800Y-142168200D01*
X111171800Y-142819800D01*
X111171800Y-142819800D01*
G37*
G36*
X110155800Y-142819800D02*
G01*
X109554200Y-142819800D01*
X109554200Y-142168200D01*
X110155800Y-142168200D01*
X110155800Y-142819800D01*
X110155800Y-142819800D01*
G37*
G36*
X117114129Y-140096316D02*
G01*
X117114131Y-140096317D01*
X117114132Y-140096317D01*
X117285162Y-140167160D01*
X117439087Y-140270010D01*
X117569990Y-140400913D01*
X117672840Y-140554838D01*
X117743684Y-140725871D01*
X117779800Y-140907438D01*
X117779800Y-141092562D01*
X117743684Y-141274129D01*
X117743683Y-141274132D01*
X117672840Y-141445162D01*
X117569991Y-141599086D01*
X117439086Y-141729991D01*
X117285162Y-141832840D01*
X117114132Y-141903683D01*
X117114131Y-141903683D01*
X117114129Y-141903684D01*
X116932562Y-141939800D01*
X116747438Y-141939800D01*
X116565871Y-141903684D01*
X116565869Y-141903683D01*
X116565868Y-141903683D01*
X116394838Y-141832840D01*
X116240914Y-141729991D01*
X116110009Y-141599086D01*
X116007160Y-141445162D01*
X115936317Y-141274132D01*
X115936316Y-141274129D01*
X115900200Y-141092562D01*
X115900200Y-140907438D01*
X115936316Y-140725871D01*
X116007160Y-140554838D01*
X116110010Y-140400913D01*
X116240913Y-140270010D01*
X116394838Y-140167160D01*
X116565868Y-140096317D01*
X116565869Y-140096317D01*
X116565871Y-140096316D01*
X116747438Y-140060200D01*
X116932562Y-140060200D01*
X117114129Y-140096316D01*
X117114129Y-140096316D01*
G37*
G36*
X91714129Y-140096316D02*
G01*
X91714131Y-140096317D01*
X91714132Y-140096317D01*
X91885162Y-140167160D01*
X92039087Y-140270010D01*
X92169990Y-140400913D01*
X92272840Y-140554838D01*
X92343684Y-140725871D01*
X92379800Y-140907438D01*
X92379800Y-141092562D01*
X92343684Y-141274129D01*
X92343683Y-141274132D01*
X92272840Y-141445162D01*
X92169991Y-141599086D01*
X92039086Y-141729991D01*
X91885162Y-141832840D01*
X91714132Y-141903683D01*
X91714131Y-141903683D01*
X91714129Y-141903684D01*
X91532562Y-141939800D01*
X91347438Y-141939800D01*
X91165871Y-141903684D01*
X91165869Y-141903683D01*
X91165868Y-141903683D01*
X90994838Y-141832840D01*
X90840914Y-141729991D01*
X90710009Y-141599086D01*
X90607160Y-141445162D01*
X90536317Y-141274132D01*
X90536316Y-141274129D01*
X90500200Y-141092562D01*
X90500200Y-140907438D01*
X90536316Y-140725871D01*
X90607160Y-140554838D01*
X90710010Y-140400913D01*
X90840913Y-140270010D01*
X90994838Y-140167160D01*
X91165868Y-140096317D01*
X91165869Y-140096317D01*
X91165871Y-140096316D01*
X91347438Y-140060200D01*
X91532562Y-140060200D01*
X91714129Y-140096316D01*
X91714129Y-140096316D01*
G37*
G36*
X98970800Y-141720800D02*
G01*
X97869200Y-141720800D01*
X97869200Y-140219200D01*
X98970800Y-140219200D01*
X98970800Y-141720800D01*
X98970800Y-141720800D01*
G37*
G36*
X95170800Y-141720800D02*
G01*
X94069200Y-141720800D01*
X94069200Y-140219200D01*
X95170800Y-140219200D01*
X95170800Y-141720800D01*
X95170800Y-141720800D01*
G37*
G36*
X110378300Y-141719300D02*
G01*
X109951700Y-141719300D01*
X109951700Y-140347700D01*
X110378300Y-140347700D01*
X110378300Y-141719300D01*
X110378300Y-141719300D01*
G37*
G36*
X113628300Y-141719300D02*
G01*
X113201700Y-141719300D01*
X113201700Y-140347700D01*
X113628300Y-140347700D01*
X113628300Y-141719300D01*
X113628300Y-141719300D01*
G37*
G36*
X112978300Y-141719300D02*
G01*
X112551700Y-141719300D01*
X112551700Y-140347700D01*
X112978300Y-140347700D01*
X112978300Y-141719300D01*
X112978300Y-141719300D01*
G37*
G36*
X112328300Y-141719300D02*
G01*
X111901700Y-141719300D01*
X111901700Y-140347700D01*
X112328300Y-140347700D01*
X112328300Y-141719300D01*
X112328300Y-141719300D01*
G37*
G36*
X111678300Y-141719300D02*
G01*
X111251700Y-141719300D01*
X111251700Y-140347700D01*
X111678300Y-140347700D01*
X111678300Y-141719300D01*
X111678300Y-141719300D01*
G37*
G36*
X111028300Y-141719300D02*
G01*
X110601700Y-141719300D01*
X110601700Y-140347700D01*
X111028300Y-140347700D01*
X111028300Y-141719300D01*
X111028300Y-141719300D01*
G37*
G36*
X109728300Y-141719300D02*
G01*
X109301700Y-141719300D01*
X109301700Y-140347700D01*
X109728300Y-140347700D01*
X109728300Y-141719300D01*
X109728300Y-141719300D01*
G37*
G36*
X109078300Y-141719300D02*
G01*
X108651700Y-141719300D01*
X108651700Y-140347700D01*
X109078300Y-140347700D01*
X109078300Y-141719300D01*
X109078300Y-141719300D01*
G37*
G36*
X108428300Y-141719300D02*
G01*
X108001700Y-141719300D01*
X108001700Y-140347700D01*
X108428300Y-140347700D01*
X108428300Y-141719300D01*
X108428300Y-141719300D01*
G37*
G36*
X107778300Y-141719300D02*
G01*
X107351700Y-141719300D01*
X107351700Y-140347700D01*
X107778300Y-140347700D01*
X107778300Y-141719300D01*
X107778300Y-141719300D01*
G37*
G36*
X95104840Y-139526240D02*
G01*
X94003240Y-139526240D01*
X94003240Y-138024640D01*
X95104840Y-138024640D01*
X95104840Y-139526240D01*
X95104840Y-139526240D01*
G37*
G36*
X97007300Y-139526240D02*
G01*
X95905700Y-139526240D01*
X95905700Y-138024640D01*
X97007300Y-138024640D01*
X97007300Y-139526240D01*
X97007300Y-139526240D01*
G37*
G36*
X91714129Y-137556316D02*
G01*
X91714131Y-137556317D01*
X91714132Y-137556317D01*
X91885162Y-137627160D01*
X92014828Y-137713800D01*
X92039087Y-137730010D01*
X92169990Y-137860913D01*
X92272840Y-138014838D01*
X92343684Y-138185871D01*
X92379800Y-138367438D01*
X92379800Y-138552562D01*
X92343684Y-138734129D01*
X92343683Y-138734132D01*
X92272840Y-138905162D01*
X92169991Y-139059086D01*
X92039086Y-139189991D01*
X91885162Y-139292840D01*
X91714132Y-139363683D01*
X91714131Y-139363683D01*
X91714129Y-139363684D01*
X91532562Y-139399800D01*
X91347438Y-139399800D01*
X91165871Y-139363684D01*
X91165869Y-139363683D01*
X91165868Y-139363683D01*
X90994838Y-139292840D01*
X90840914Y-139189991D01*
X90710009Y-139059086D01*
X90607160Y-138905162D01*
X90536317Y-138734132D01*
X90536316Y-138734129D01*
X90500200Y-138552562D01*
X90500200Y-138367438D01*
X90536316Y-138185871D01*
X90607160Y-138014838D01*
X90710010Y-137860913D01*
X90840913Y-137730010D01*
X90865173Y-137713800D01*
X90994838Y-137627160D01*
X91165868Y-137556317D01*
X91165869Y-137556317D01*
X91165871Y-137556316D01*
X91347438Y-137520200D01*
X91532562Y-137520200D01*
X91714129Y-137556316D01*
X91714129Y-137556316D01*
G37*
G36*
X117114129Y-137556316D02*
G01*
X117114131Y-137556317D01*
X117114132Y-137556317D01*
X117285162Y-137627160D01*
X117414828Y-137713800D01*
X117439087Y-137730010D01*
X117569990Y-137860913D01*
X117672840Y-138014838D01*
X117743684Y-138185871D01*
X117779800Y-138367438D01*
X117779800Y-138552562D01*
X117743684Y-138734129D01*
X117743683Y-138734132D01*
X117672840Y-138905162D01*
X117569991Y-139059086D01*
X117439086Y-139189991D01*
X117285162Y-139292840D01*
X117114132Y-139363683D01*
X117114131Y-139363683D01*
X117114129Y-139363684D01*
X116932562Y-139399800D01*
X116747438Y-139399800D01*
X116565871Y-139363684D01*
X116565869Y-139363683D01*
X116565868Y-139363683D01*
X116394838Y-139292840D01*
X116240914Y-139189991D01*
X116110009Y-139059086D01*
X116007160Y-138905162D01*
X115936317Y-138734132D01*
X115936316Y-138734129D01*
X115900200Y-138552562D01*
X115900200Y-138367438D01*
X115936316Y-138185871D01*
X116007160Y-138014838D01*
X116110010Y-137860913D01*
X116240913Y-137730010D01*
X116265173Y-137713800D01*
X116394838Y-137627160D01*
X116565868Y-137556317D01*
X116565869Y-137556317D01*
X116565871Y-137556316D01*
X116747438Y-137520200D01*
X116932562Y-137520200D01*
X117114129Y-137556316D01*
X117114129Y-137556316D01*
G37*
G36*
X100253800Y-139242800D02*
G01*
X99136200Y-139242800D01*
X99136200Y-138125200D01*
X100253800Y-138125200D01*
X100253800Y-139242800D01*
X100253800Y-139242800D01*
G37*
G36*
X98475800Y-139242800D02*
G01*
X97358200Y-139242800D01*
X97358200Y-138125200D01*
X98475800Y-138125200D01*
X98475800Y-139242800D01*
X98475800Y-139242800D01*
G37*
G36*
X106321200Y-137817200D02*
G01*
X104498800Y-137817200D01*
X104498800Y-135994800D01*
X106321200Y-135994800D01*
X106321200Y-137817200D01*
X106321200Y-137817200D01*
G37*
G36*
X101163800Y-137714800D02*
G01*
X100512200Y-137714800D01*
X100512200Y-137113200D01*
X101163800Y-137113200D01*
X101163800Y-137714800D01*
X101163800Y-137714800D01*
G37*
G36*
X98181800Y-137713800D02*
G01*
X97530200Y-137713800D01*
X97530200Y-136412200D01*
X98181800Y-136412200D01*
X98181800Y-137713800D01*
X98181800Y-137713800D01*
G37*
G36*
X100081800Y-137713800D02*
G01*
X99430200Y-137713800D01*
X99430200Y-136412200D01*
X100081800Y-136412200D01*
X100081800Y-137713800D01*
X100081800Y-137713800D01*
G37*
G36*
X96052260Y-137316440D02*
G01*
X94950660Y-137316440D01*
X94950660Y-135814840D01*
X96052260Y-135814840D01*
X96052260Y-137316440D01*
X96052260Y-137316440D01*
G37*
G36*
X117114129Y-135016316D02*
G01*
X117114131Y-135016317D01*
X117114132Y-135016317D01*
X117285162Y-135087160D01*
X117439087Y-135190010D01*
X117569990Y-135320913D01*
X117672840Y-135474838D01*
X117743684Y-135645871D01*
X117779800Y-135827438D01*
X117779800Y-136012562D01*
X117762964Y-136097200D01*
X117743683Y-136194132D01*
X117672840Y-136365162D01*
X117569991Y-136519086D01*
X117439086Y-136649991D01*
X117285162Y-136752840D01*
X117114132Y-136823683D01*
X117114131Y-136823683D01*
X117114129Y-136823684D01*
X116932562Y-136859800D01*
X116747438Y-136859800D01*
X116565871Y-136823684D01*
X116565869Y-136823683D01*
X116565868Y-136823683D01*
X116394838Y-136752840D01*
X116240914Y-136649991D01*
X116110009Y-136519086D01*
X116007160Y-136365162D01*
X115936317Y-136194132D01*
X115917036Y-136097200D01*
X115900200Y-136012562D01*
X115900200Y-135827438D01*
X115936316Y-135645871D01*
X116007160Y-135474838D01*
X116110010Y-135320913D01*
X116240913Y-135190010D01*
X116394838Y-135087160D01*
X116565868Y-135016317D01*
X116565869Y-135016317D01*
X116565871Y-135016316D01*
X116747438Y-134980200D01*
X116932562Y-134980200D01*
X117114129Y-135016316D01*
X117114129Y-135016316D01*
G37*
G36*
X91714129Y-135016316D02*
G01*
X91714131Y-135016317D01*
X91714132Y-135016317D01*
X91885162Y-135087160D01*
X92039087Y-135190010D01*
X92169990Y-135320913D01*
X92272840Y-135474838D01*
X92343684Y-135645871D01*
X92379800Y-135827438D01*
X92379800Y-136012562D01*
X92362964Y-136097200D01*
X92343683Y-136194132D01*
X92272840Y-136365162D01*
X92169991Y-136519086D01*
X92039086Y-136649991D01*
X91885162Y-136752840D01*
X91714132Y-136823683D01*
X91714131Y-136823683D01*
X91714129Y-136823684D01*
X91532562Y-136859800D01*
X91347438Y-136859800D01*
X91165871Y-136823684D01*
X91165869Y-136823683D01*
X91165868Y-136823683D01*
X90994838Y-136752840D01*
X90840914Y-136649991D01*
X90710009Y-136519086D01*
X90607160Y-136365162D01*
X90536317Y-136194132D01*
X90517036Y-136097200D01*
X90500200Y-136012562D01*
X90500200Y-135827438D01*
X90536316Y-135645871D01*
X90607160Y-135474838D01*
X90710010Y-135320913D01*
X90840913Y-135190010D01*
X90994838Y-135087160D01*
X91165868Y-135016317D01*
X91165869Y-135016317D01*
X91165871Y-135016316D01*
X91347438Y-134980200D01*
X91532562Y-134980200D01*
X91714129Y-135016316D01*
X91714129Y-135016316D01*
G37*
G36*
X101163800Y-136698800D02*
G01*
X100512200Y-136698800D01*
X100512200Y-136097200D01*
X101163800Y-136097200D01*
X101163800Y-136698800D01*
X101163800Y-136698800D01*
G37*
G36*
X101163800Y-135428800D02*
G01*
X100512200Y-135428800D01*
X100512200Y-134827200D01*
X101163800Y-134827200D01*
X101163800Y-135428800D01*
X101163800Y-135428800D01*
G37*
G36*
X96927800Y-135400800D02*
G01*
X93826200Y-135400800D01*
X93826200Y-133699200D01*
X96927800Y-133699200D01*
X96927800Y-135400800D01*
X96927800Y-135400800D01*
G37*
G36*
X99131800Y-135113800D02*
G01*
X98480200Y-135113800D01*
X98480200Y-133812200D01*
X99131800Y-133812200D01*
X99131800Y-135113800D01*
X99131800Y-135113800D01*
G37*
G36*
X98181800Y-135113800D02*
G01*
X97530200Y-135113800D01*
X97530200Y-133812200D01*
X98181800Y-133812200D01*
X98181800Y-135113800D01*
X98181800Y-135113800D01*
G37*
G36*
X100081800Y-135113800D02*
G01*
X99430200Y-135113800D01*
X99430200Y-133812200D01*
X100081800Y-133812200D01*
X100081800Y-135113800D01*
X100081800Y-135113800D01*
G37*
G36*
X109078300Y-134480300D02*
G01*
X108651700Y-134480300D01*
X108651700Y-133108700D01*
X109078300Y-133108700D01*
X109078300Y-134480300D01*
X109078300Y-134480300D01*
G37*
G36*
X113628300Y-134480300D02*
G01*
X113201700Y-134480300D01*
X113201700Y-133108700D01*
X113628300Y-133108700D01*
X113628300Y-134480300D01*
X113628300Y-134480300D01*
G37*
G36*
X112978300Y-134480300D02*
G01*
X112551700Y-134480300D01*
X112551700Y-133108700D01*
X112978300Y-133108700D01*
X112978300Y-134480300D01*
X112978300Y-134480300D01*
G37*
G36*
X112328300Y-134480300D02*
G01*
X111901700Y-134480300D01*
X111901700Y-133108700D01*
X112328300Y-133108700D01*
X112328300Y-134480300D01*
X112328300Y-134480300D01*
G37*
G36*
X107778300Y-134480300D02*
G01*
X107351700Y-134480300D01*
X107351700Y-133108700D01*
X107778300Y-133108700D01*
X107778300Y-134480300D01*
X107778300Y-134480300D01*
G37*
G36*
X108428300Y-134480300D02*
G01*
X108001700Y-134480300D01*
X108001700Y-133108700D01*
X108428300Y-133108700D01*
X108428300Y-134480300D01*
X108428300Y-134480300D01*
G37*
G36*
X111678300Y-134480300D02*
G01*
X111251700Y-134480300D01*
X111251700Y-133108700D01*
X111678300Y-133108700D01*
X111678300Y-134480300D01*
X111678300Y-134480300D01*
G37*
G36*
X109728300Y-134480300D02*
G01*
X109301700Y-134480300D01*
X109301700Y-133108700D01*
X109728300Y-133108700D01*
X109728300Y-134480300D01*
X109728300Y-134480300D01*
G37*
G36*
X110378300Y-134480300D02*
G01*
X109951700Y-134480300D01*
X109951700Y-133108700D01*
X110378300Y-133108700D01*
X110378300Y-134480300D01*
X110378300Y-134480300D01*
G37*
G36*
X111028300Y-134480300D02*
G01*
X110601700Y-134480300D01*
X110601700Y-133108700D01*
X111028300Y-133108700D01*
X111028300Y-134480300D01*
X111028300Y-134480300D01*
G37*
G36*
X101163800Y-134412800D02*
G01*
X100512200Y-134412800D01*
X100512200Y-133811200D01*
X101163800Y-133811200D01*
X101163800Y-134412800D01*
X101163800Y-134412800D01*
G37*
G36*
X117114129Y-132476316D02*
G01*
X117114131Y-132476317D01*
X117114132Y-132476317D01*
X117285162Y-132547160D01*
X117422311Y-132638800D01*
X117439087Y-132650010D01*
X117569990Y-132780913D01*
X117672840Y-132934838D01*
X117743684Y-133105871D01*
X117779800Y-133287438D01*
X117779800Y-133472562D01*
X117768812Y-133527800D01*
X117743683Y-133654132D01*
X117672840Y-133825162D01*
X117569991Y-133979086D01*
X117439086Y-134109991D01*
X117285162Y-134212840D01*
X117114132Y-134283683D01*
X117114131Y-134283683D01*
X117114129Y-134283684D01*
X116932562Y-134319800D01*
X116747438Y-134319800D01*
X116565871Y-134283684D01*
X116565869Y-134283683D01*
X116565868Y-134283683D01*
X116394838Y-134212840D01*
X116240914Y-134109991D01*
X116110009Y-133979086D01*
X116007160Y-133825162D01*
X115936317Y-133654132D01*
X115911188Y-133527800D01*
X115900200Y-133472562D01*
X115900200Y-133287438D01*
X115936316Y-133105871D01*
X116007160Y-132934838D01*
X116110010Y-132780913D01*
X116240913Y-132650010D01*
X116257690Y-132638800D01*
X116394838Y-132547160D01*
X116565868Y-132476317D01*
X116565869Y-132476317D01*
X116565871Y-132476316D01*
X116747438Y-132440200D01*
X116932562Y-132440200D01*
X117114129Y-132476316D01*
X117114129Y-132476316D01*
G37*
G36*
X91714129Y-132476316D02*
G01*
X91714131Y-132476317D01*
X91714132Y-132476317D01*
X91885162Y-132547160D01*
X92022311Y-132638800D01*
X92039087Y-132650010D01*
X92169990Y-132780913D01*
X92272840Y-132934838D01*
X92343684Y-133105871D01*
X92379800Y-133287438D01*
X92379800Y-133472562D01*
X92368812Y-133527800D01*
X92343683Y-133654132D01*
X92272840Y-133825162D01*
X92169991Y-133979086D01*
X92039086Y-134109991D01*
X91885162Y-134212840D01*
X91714132Y-134283683D01*
X91714131Y-134283683D01*
X91714129Y-134283684D01*
X91532562Y-134319800D01*
X91347438Y-134319800D01*
X91165871Y-134283684D01*
X91165869Y-134283683D01*
X91165868Y-134283683D01*
X90994838Y-134212840D01*
X90840914Y-134109991D01*
X90710009Y-133979086D01*
X90607160Y-133825162D01*
X90536317Y-133654132D01*
X90511188Y-133527800D01*
X90500200Y-133472562D01*
X90500200Y-133287438D01*
X90536316Y-133105871D01*
X90607160Y-132934838D01*
X90710010Y-132780913D01*
X90840913Y-132650010D01*
X90857690Y-132638800D01*
X90994838Y-132547160D01*
X91165868Y-132476317D01*
X91165869Y-132476317D01*
X91165871Y-132476316D01*
X91347438Y-132440200D01*
X91532562Y-132440200D01*
X91714129Y-132476316D01*
X91714129Y-132476316D01*
G37*
G36*
X99618800Y-133527800D02*
G01*
X98501200Y-133527800D01*
X98501200Y-132410200D01*
X99618800Y-132410200D01*
X99618800Y-133527800D01*
X99618800Y-133527800D01*
G37*
G36*
X96927800Y-133000800D02*
G01*
X93826200Y-133000800D01*
X93826200Y-131299200D01*
X96927800Y-131299200D01*
X96927800Y-133000800D01*
X96927800Y-133000800D01*
G37*
G36*
X107746800Y-132638800D02*
G01*
X106629200Y-132638800D01*
X106629200Y-131521200D01*
X107746800Y-131521200D01*
X107746800Y-132638800D01*
X107746800Y-132638800D01*
G37*
G36*
X109524800Y-132638800D02*
G01*
X108407200Y-132638800D01*
X108407200Y-131521200D01*
X109524800Y-131521200D01*
X109524800Y-132638800D01*
X109524800Y-132638800D01*
G37*
G36*
X91714129Y-129936316D02*
G01*
X91714131Y-129936317D01*
X91714132Y-129936317D01*
X91885162Y-130007160D01*
X92039087Y-130110010D01*
X92169990Y-130240913D01*
X92272840Y-130394838D01*
X92343684Y-130565871D01*
X92379800Y-130747438D01*
X92379800Y-130932562D01*
X92343684Y-131114129D01*
X92343683Y-131114132D01*
X92272840Y-131285162D01*
X92169991Y-131439086D01*
X92039086Y-131569991D01*
X91885162Y-131672840D01*
X91714132Y-131743683D01*
X91714131Y-131743683D01*
X91714129Y-131743684D01*
X91532562Y-131779800D01*
X91347438Y-131779800D01*
X91165871Y-131743684D01*
X91165869Y-131743683D01*
X91165868Y-131743683D01*
X90994838Y-131672840D01*
X90840914Y-131569991D01*
X90710009Y-131439086D01*
X90607160Y-131285162D01*
X90536317Y-131114132D01*
X90536316Y-131114129D01*
X90500200Y-130932562D01*
X90500200Y-130747438D01*
X90536316Y-130565871D01*
X90607160Y-130394838D01*
X90710010Y-130240913D01*
X90840913Y-130110010D01*
X90994838Y-130007160D01*
X91165868Y-129936317D01*
X91165869Y-129936317D01*
X91165871Y-129936316D01*
X91347438Y-129900200D01*
X91532562Y-129900200D01*
X91714129Y-129936316D01*
X91714129Y-129936316D01*
G37*
G36*
X117114129Y-129936316D02*
G01*
X117114131Y-129936317D01*
X117114132Y-129936317D01*
X117285162Y-130007160D01*
X117439087Y-130110010D01*
X117569990Y-130240913D01*
X117672840Y-130394838D01*
X117743684Y-130565871D01*
X117779800Y-130747438D01*
X117779800Y-130932562D01*
X117743684Y-131114129D01*
X117743683Y-131114132D01*
X117672840Y-131285162D01*
X117569991Y-131439086D01*
X117439086Y-131569991D01*
X117285162Y-131672840D01*
X117114132Y-131743683D01*
X117114131Y-131743683D01*
X117114129Y-131743684D01*
X116932562Y-131779800D01*
X116747438Y-131779800D01*
X116565871Y-131743684D01*
X116565869Y-131743683D01*
X116565868Y-131743683D01*
X116394838Y-131672840D01*
X116240914Y-131569991D01*
X116110009Y-131439086D01*
X116007160Y-131285162D01*
X115936317Y-131114132D01*
X115936316Y-131114129D01*
X115900200Y-130932562D01*
X115900200Y-130747438D01*
X115936316Y-130565871D01*
X116007160Y-130394838D01*
X116110010Y-130240913D01*
X116240913Y-130110010D01*
X116394838Y-130007160D01*
X116565868Y-129936317D01*
X116565869Y-129936317D01*
X116565871Y-129936316D01*
X116747438Y-129900200D01*
X116932562Y-129900200D01*
X117114129Y-129936316D01*
X117114129Y-129936316D01*
G37*
G36*
X99618800Y-131749800D02*
G01*
X98501200Y-131749800D01*
X98501200Y-130632200D01*
X99618800Y-130632200D01*
X99618800Y-131749800D01*
X99618800Y-131749800D01*
G37*
G36*
X107230800Y-129633800D02*
G01*
X106129200Y-129633800D01*
X106129200Y-125282200D01*
X107230800Y-125282200D01*
X107230800Y-129633800D01*
X107230800Y-129633800D01*
G37*
G36*
X102150800Y-129633800D02*
G01*
X101049200Y-129633800D01*
X101049200Y-125282200D01*
X102150800Y-125282200D01*
X102150800Y-129633800D01*
X102150800Y-129633800D01*
G37*
G36*
X99610800Y-129633800D02*
G01*
X98509200Y-129633800D01*
X98509200Y-125282200D01*
X99610800Y-125282200D01*
X99610800Y-129633800D01*
X99610800Y-129633800D01*
G37*
G36*
X109770800Y-129633800D02*
G01*
X108669200Y-129633800D01*
X108669200Y-125282200D01*
X109770800Y-125282200D01*
X109770800Y-129633800D01*
X109770800Y-129633800D01*
G37*
G36*
X104690800Y-129633800D02*
G01*
X103589200Y-129633800D01*
X103589200Y-125282200D01*
X104690800Y-125282200D01*
X104690800Y-129633800D01*
X104690800Y-129633800D01*
G37*
G36*
X117114129Y-127396316D02*
G01*
X117114131Y-127396317D01*
X117114132Y-127396317D01*
X117285162Y-127467160D01*
X117439087Y-127570010D01*
X117569990Y-127700913D01*
X117672840Y-127854838D01*
X117743684Y-128025871D01*
X117779800Y-128207438D01*
X117779800Y-128392562D01*
X117743684Y-128574129D01*
X117743683Y-128574132D01*
X117672840Y-128745162D01*
X117569991Y-128899086D01*
X117439086Y-129029991D01*
X117285162Y-129132840D01*
X117114132Y-129203683D01*
X117114131Y-129203683D01*
X117114129Y-129203684D01*
X116932562Y-129239800D01*
X116747438Y-129239800D01*
X116565871Y-129203684D01*
X116565869Y-129203683D01*
X116565868Y-129203683D01*
X116394838Y-129132840D01*
X116240914Y-129029991D01*
X116110009Y-128899086D01*
X116007160Y-128745162D01*
X115936317Y-128574132D01*
X115936316Y-128574129D01*
X115900200Y-128392562D01*
X115900200Y-128207438D01*
X115936316Y-128025871D01*
X116007160Y-127854838D01*
X116110010Y-127700913D01*
X116240913Y-127570010D01*
X116394838Y-127467160D01*
X116565868Y-127396317D01*
X116565869Y-127396317D01*
X116565871Y-127396316D01*
X116747438Y-127360200D01*
X116932562Y-127360200D01*
X117114129Y-127396316D01*
X117114129Y-127396316D01*
G37*
G36*
X91714129Y-127396316D02*
G01*
X91714131Y-127396317D01*
X91714132Y-127396317D01*
X91885162Y-127467160D01*
X92039087Y-127570010D01*
X92169990Y-127700913D01*
X92272840Y-127854838D01*
X92343684Y-128025871D01*
X92379800Y-128207438D01*
X92379800Y-128392562D01*
X92343684Y-128574129D01*
X92343683Y-128574132D01*
X92272840Y-128745162D01*
X92169991Y-128899086D01*
X92039086Y-129029991D01*
X91885162Y-129132840D01*
X91714132Y-129203683D01*
X91714131Y-129203683D01*
X91714129Y-129203684D01*
X91532562Y-129239800D01*
X91347438Y-129239800D01*
X91165871Y-129203684D01*
X91165869Y-129203683D01*
X91165868Y-129203683D01*
X90994838Y-129132840D01*
X90840914Y-129029991D01*
X90710009Y-128899086D01*
X90607160Y-128745162D01*
X90536317Y-128574132D01*
X90536316Y-128574129D01*
X90500200Y-128392562D01*
X90500200Y-128207438D01*
X90536316Y-128025871D01*
X90607160Y-127854838D01*
X90710010Y-127700913D01*
X90840913Y-127570010D01*
X90994838Y-127467160D01*
X91165868Y-127396317D01*
X91165869Y-127396317D01*
X91165871Y-127396316D01*
X91347438Y-127360200D01*
X91532562Y-127360200D01*
X91714129Y-127396316D01*
X91714129Y-127396316D01*
G37*
G36*
X117114129Y-124856316D02*
G01*
X117114131Y-124856317D01*
X117114132Y-124856317D01*
X117285162Y-124927160D01*
X117369930Y-124983800D01*
X117439087Y-125030010D01*
X117569990Y-125160913D01*
X117672840Y-125314838D01*
X117743684Y-125485871D01*
X117779800Y-125667438D01*
X117779800Y-125852562D01*
X117743684Y-126034129D01*
X117743683Y-126034132D01*
X117672840Y-126205162D01*
X117569991Y-126359086D01*
X117439086Y-126489991D01*
X117285162Y-126592840D01*
X117114132Y-126663683D01*
X117114131Y-126663683D01*
X117114129Y-126663684D01*
X116932562Y-126699800D01*
X116747438Y-126699800D01*
X116565871Y-126663684D01*
X116565869Y-126663683D01*
X116565868Y-126663683D01*
X116394838Y-126592840D01*
X116240914Y-126489991D01*
X116110009Y-126359086D01*
X116007160Y-126205162D01*
X115936317Y-126034132D01*
X115936316Y-126034129D01*
X115900200Y-125852562D01*
X115900200Y-125667438D01*
X115936316Y-125485871D01*
X116007160Y-125314838D01*
X116110010Y-125160913D01*
X116240913Y-125030010D01*
X116310071Y-124983800D01*
X116394838Y-124927160D01*
X116565868Y-124856317D01*
X116565869Y-124856317D01*
X116565871Y-124856316D01*
X116747438Y-124820200D01*
X116932562Y-124820200D01*
X117114129Y-124856316D01*
X117114129Y-124856316D01*
G37*
G36*
X91714129Y-124856316D02*
G01*
X91714131Y-124856317D01*
X91714132Y-124856317D01*
X91885162Y-124927160D01*
X91969930Y-124983800D01*
X92039087Y-125030010D01*
X92169990Y-125160913D01*
X92272840Y-125314838D01*
X92343684Y-125485871D01*
X92379800Y-125667438D01*
X92379800Y-125852562D01*
X92343684Y-126034129D01*
X92343683Y-126034132D01*
X92272840Y-126205162D01*
X92169991Y-126359086D01*
X92039086Y-126489991D01*
X91885162Y-126592840D01*
X91714132Y-126663683D01*
X91714131Y-126663683D01*
X91714129Y-126663684D01*
X91532562Y-126699800D01*
X91347438Y-126699800D01*
X91165871Y-126663684D01*
X91165869Y-126663683D01*
X91165868Y-126663683D01*
X90994838Y-126592840D01*
X90840914Y-126489991D01*
X90710009Y-126359086D01*
X90607160Y-126205162D01*
X90536317Y-126034132D01*
X90536316Y-126034129D01*
X90500200Y-125852562D01*
X90500200Y-125667438D01*
X90536316Y-125485871D01*
X90607160Y-125314838D01*
X90710010Y-125160913D01*
X90840913Y-125030010D01*
X90910071Y-124983800D01*
X90994838Y-124927160D01*
X91165868Y-124856317D01*
X91165869Y-124856317D01*
X91165871Y-124856316D01*
X91347438Y-124820200D01*
X91532562Y-124820200D01*
X91714129Y-124856316D01*
X91714129Y-124856316D01*
G37*
G36*
X100519831Y-123707210D02*
G01*
X100519833Y-123707211D01*
X100519834Y-123707211D01*
X100638269Y-123756268D01*
X100744859Y-123827489D01*
X100835511Y-123918141D01*
X100906732Y-124024731D01*
X100955790Y-124143169D01*
X100980800Y-124268902D01*
X100980800Y-124397098D01*
X100955790Y-124522831D01*
X100955789Y-124522834D01*
X100906732Y-124641269D01*
X100835511Y-124747859D01*
X100744859Y-124838511D01*
X100638269Y-124909732D01*
X100519834Y-124958789D01*
X100519833Y-124958789D01*
X100519831Y-124958790D01*
X100394098Y-124983800D01*
X100265902Y-124983800D01*
X100140169Y-124958790D01*
X100140167Y-124958789D01*
X100140166Y-124958789D01*
X100021731Y-124909732D01*
X99915141Y-124838511D01*
X99824489Y-124747859D01*
X99753268Y-124641269D01*
X99704211Y-124522834D01*
X99704210Y-124522831D01*
X99679200Y-124397098D01*
X99679200Y-124268902D01*
X99704210Y-124143169D01*
X99753268Y-124024731D01*
X99824489Y-123918141D01*
X99915141Y-123827489D01*
X100021731Y-123756268D01*
X100140166Y-123707211D01*
X100140167Y-123707211D01*
X100140169Y-123707210D01*
X100265902Y-123682200D01*
X100394098Y-123682200D01*
X100519831Y-123707210D01*
X100519831Y-123707210D01*
G37*
G36*
X108139831Y-123707210D02*
G01*
X108139833Y-123707211D01*
X108139834Y-123707211D01*
X108258269Y-123756268D01*
X108364859Y-123827489D01*
X108455511Y-123918141D01*
X108526732Y-124024731D01*
X108575790Y-124143169D01*
X108600800Y-124268902D01*
X108600800Y-124397098D01*
X108575790Y-124522831D01*
X108575789Y-124522834D01*
X108526732Y-124641269D01*
X108455511Y-124747859D01*
X108364859Y-124838511D01*
X108258269Y-124909732D01*
X108139834Y-124958789D01*
X108139833Y-124958789D01*
X108139831Y-124958790D01*
X108014098Y-124983800D01*
X107885902Y-124983800D01*
X107760169Y-124958790D01*
X107760167Y-124958789D01*
X107760166Y-124958789D01*
X107641731Y-124909732D01*
X107535141Y-124838511D01*
X107444489Y-124747859D01*
X107373268Y-124641269D01*
X107324211Y-124522834D01*
X107324210Y-124522831D01*
X107299200Y-124397098D01*
X107299200Y-124268902D01*
X107324210Y-124143169D01*
X107373268Y-124024731D01*
X107444489Y-123918141D01*
X107535141Y-123827489D01*
X107641731Y-123756268D01*
X107760166Y-123707211D01*
X107760167Y-123707211D01*
X107760169Y-123707210D01*
X107885902Y-123682200D01*
X108014098Y-123682200D01*
X108139831Y-123707210D01*
X108139831Y-123707210D01*
G37*
G36*
X117779800Y-124159800D02*
G01*
X115900200Y-124159800D01*
X115900200Y-122280200D01*
X117779800Y-122280200D01*
X117779800Y-124159800D01*
X117779800Y-124159800D01*
G37*
G36*
X92379800Y-124159800D02*
G01*
X90500200Y-124159800D01*
X90500200Y-122280200D01*
X92379800Y-122280200D01*
X92379800Y-124159800D01*
X92379800Y-124159800D01*
G37*
G36*
X99610800Y-123383800D02*
G01*
X98509200Y-123383800D01*
X98509200Y-119032200D01*
X99610800Y-119032200D01*
X99610800Y-123383800D01*
X99610800Y-123383800D01*
G37*
G36*
X109770800Y-123383800D02*
G01*
X108669200Y-123383800D01*
X108669200Y-119032200D01*
X109770800Y-119032200D01*
X109770800Y-123383800D01*
X109770800Y-123383800D01*
G37*
G36*
X107230800Y-123383800D02*
G01*
X106129200Y-123383800D01*
X106129200Y-119032200D01*
X107230800Y-119032200D01*
X107230800Y-123383800D01*
X107230800Y-123383800D01*
G37*
G36*
X104690800Y-123383800D02*
G01*
X103589200Y-123383800D01*
X103589200Y-119032200D01*
X104690800Y-119032200D01*
X104690800Y-123383800D01*
X104690800Y-123383800D01*
G37*
G36*
X102150800Y-123383800D02*
G01*
X101049200Y-123383800D01*
X101049200Y-119032200D01*
X102150800Y-119032200D01*
X102150800Y-123383800D01*
X102150800Y-123383800D01*
G37*
G36*
X106560800Y-115685800D02*
G01*
X105559200Y-115685800D01*
X105559200Y-113884200D01*
X106560800Y-113884200D01*
X106560800Y-115685800D01*
X106560800Y-115685800D01*
G37*
G36*
X98940800Y-115685800D02*
G01*
X97939200Y-115685800D01*
X97939200Y-113884200D01*
X98940800Y-113884200D01*
X98940800Y-115685800D01*
X98940800Y-115685800D01*
G37*
G36*
X102750800Y-115685800D02*
G01*
X101749200Y-115685800D01*
X101749200Y-113884200D01*
X102750800Y-113884200D01*
X102750800Y-115685800D01*
X102750800Y-115685800D01*
G37*
G36*
X101480800Y-115685800D02*
G01*
X100479200Y-115685800D01*
X100479200Y-113884200D01*
X101480800Y-113884200D01*
X101480800Y-115685800D01*
X101480800Y-115685800D01*
G37*
G36*
X104020800Y-115685800D02*
G01*
X103019200Y-115685800D01*
X103019200Y-113884200D01*
X104020800Y-113884200D01*
X104020800Y-115685800D01*
X104020800Y-115685800D01*
G37*
G36*
X107830800Y-115685800D02*
G01*
X106829200Y-115685800D01*
X106829200Y-113884200D01*
X107830800Y-113884200D01*
X107830800Y-115685800D01*
X107830800Y-115685800D01*
G37*
G36*
X105290800Y-115685800D02*
G01*
X104289200Y-115685800D01*
X104289200Y-113884200D01*
X105290800Y-113884200D01*
X105290800Y-115685800D01*
X105290800Y-115685800D01*
G37*
G36*
X100210800Y-115685800D02*
G01*
X99209200Y-115685800D01*
X99209200Y-113884200D01*
X100210800Y-113884200D01*
X100210800Y-115685800D01*
X100210800Y-115685800D01*
G37*
G36*
X110370800Y-115685800D02*
G01*
X109369200Y-115685800D01*
X109369200Y-113884200D01*
X110370800Y-113884200D01*
X110370800Y-115685800D01*
X110370800Y-115685800D01*
G37*
G36*
X109100800Y-115685800D02*
G01*
X108099200Y-115685800D01*
X108099200Y-113884200D01*
X109100800Y-113884200D01*
X109100800Y-115685800D01*
X109100800Y-115685800D01*
G37*
G36*
X114040800Y-113835800D02*
G01*
X112239200Y-113835800D01*
X112239200Y-112834200D01*
X114040800Y-112834200D01*
X114040800Y-113835800D01*
X114040800Y-113835800D01*
G37*
G36*
X96040800Y-113795800D02*
G01*
X94239200Y-113795800D01*
X94239200Y-112794200D01*
X96040800Y-112794200D01*
X96040800Y-113795800D01*
X96040800Y-113795800D01*
G37*
G36*
X114040800Y-112565800D02*
G01*
X112239200Y-112565800D01*
X112239200Y-111564200D01*
X114040800Y-111564200D01*
X114040800Y-112565800D01*
X114040800Y-112565800D01*
G37*
G36*
X96040800Y-112525800D02*
G01*
X94239200Y-112525800D01*
X94239200Y-111524200D01*
X96040800Y-111524200D01*
X96040800Y-112525800D01*
X96040800Y-112525800D01*
G37*
G36*
X114040800Y-111295800D02*
G01*
X112239200Y-111295800D01*
X112239200Y-110294200D01*
X114040800Y-110294200D01*
X114040800Y-111295800D01*
X114040800Y-111295800D01*
G37*
G36*
X96040800Y-111255800D02*
G01*
X94239200Y-111255800D01*
X94239200Y-110254200D01*
X96040800Y-110254200D01*
X96040800Y-111255800D01*
X96040800Y-111255800D01*
G37*
G36*
X114040800Y-110025800D02*
G01*
X112239200Y-110025800D01*
X112239200Y-109024200D01*
X114040800Y-109024200D01*
X114040800Y-110025800D01*
X114040800Y-110025800D01*
G37*
G36*
X96040800Y-109985800D02*
G01*
X94239200Y-109985800D01*
X94239200Y-108984200D01*
X96040800Y-108984200D01*
X96040800Y-109985800D01*
X96040800Y-109985800D01*
G37*
G36*
X114040800Y-108755800D02*
G01*
X112239200Y-108755800D01*
X112239200Y-107754200D01*
X114040800Y-107754200D01*
X114040800Y-108755800D01*
X114040800Y-108755800D01*
G37*
G36*
X96040800Y-108715800D02*
G01*
X94239200Y-108715800D01*
X94239200Y-107714200D01*
X96040800Y-107714200D01*
X96040800Y-108715800D01*
X96040800Y-108715800D01*
G37*
G36*
X107640000Y-107685000D02*
G01*
X101240000Y-107685000D01*
X101240000Y-101285000D01*
X107640000Y-101285000D01*
X107640000Y-107685000D01*
X107640000Y-107685000D01*
G37*
G36*
X114040800Y-107485800D02*
G01*
X112239200Y-107485800D01*
X112239200Y-106484200D01*
X114040800Y-106484200D01*
X114040800Y-107485800D01*
X114040800Y-107485800D01*
G37*
G36*
X96040800Y-107445800D02*
G01*
X94239200Y-107445800D01*
X94239200Y-106444200D01*
X96040800Y-106444200D01*
X96040800Y-107445800D01*
X96040800Y-107445800D01*
G37*
G36*
X116759800Y-107344800D02*
G01*
X115158200Y-107344800D01*
X115158200Y-105943200D01*
X116759800Y-105943200D01*
X116759800Y-107344800D01*
X116759800Y-107344800D01*
G37*
G36*
X93121800Y-107344800D02*
G01*
X91520200Y-107344800D01*
X91520200Y-105943200D01*
X93121800Y-105943200D01*
X93121800Y-107344800D01*
X93121800Y-107344800D01*
G37*
G36*
X114040800Y-106215800D02*
G01*
X112239200Y-106215800D01*
X112239200Y-105214200D01*
X114040800Y-105214200D01*
X114040800Y-106215800D01*
X114040800Y-106215800D01*
G37*
G36*
X96040800Y-106175800D02*
G01*
X94239200Y-106175800D01*
X94239200Y-105174200D01*
X96040800Y-105174200D01*
X96040800Y-106175800D01*
X96040800Y-106175800D01*
G37*
G36*
X114040800Y-104945800D02*
G01*
X112239200Y-104945800D01*
X112239200Y-103944200D01*
X114040800Y-103944200D01*
X114040800Y-104945800D01*
X114040800Y-104945800D01*
G37*
G36*
X96040800Y-104905800D02*
G01*
X94239200Y-104905800D01*
X94239200Y-103904200D01*
X96040800Y-103904200D01*
X96040800Y-104905800D01*
X96040800Y-104905800D01*
G37*
G36*
X93337907Y-103881602D02*
G01*
X93410850Y-103911816D01*
X93476493Y-103955677D01*
X93532323Y-104011507D01*
X93576184Y-104077150D01*
X93606398Y-104150093D01*
X93621800Y-104227523D01*
X93621800Y-104306477D01*
X93606398Y-104383907D01*
X93576184Y-104456850D01*
X93532323Y-104522493D01*
X93476493Y-104578323D01*
X93410850Y-104622184D01*
X93337907Y-104652398D01*
X93260477Y-104667800D01*
X93181523Y-104667800D01*
X93104093Y-104652398D01*
X93031150Y-104622184D01*
X92965507Y-104578323D01*
X92909677Y-104522493D01*
X92865816Y-104456850D01*
X92835602Y-104383907D01*
X92820200Y-104306477D01*
X92820200Y-104227523D01*
X92835602Y-104150093D01*
X92865816Y-104077150D01*
X92909677Y-104011507D01*
X92965507Y-103955677D01*
X93031150Y-103911816D01*
X93104093Y-103881602D01*
X93181523Y-103866200D01*
X93260477Y-103866200D01*
X93337907Y-103881602D01*
X93337907Y-103881602D01*
G37*
G36*
X91537907Y-103881602D02*
G01*
X91610850Y-103911816D01*
X91676493Y-103955677D01*
X91732323Y-104011507D01*
X91776184Y-104077150D01*
X91806398Y-104150093D01*
X91821800Y-104227523D01*
X91821800Y-104306477D01*
X91806398Y-104383907D01*
X91776184Y-104456850D01*
X91732323Y-104522493D01*
X91676493Y-104578323D01*
X91610850Y-104622184D01*
X91537907Y-104652398D01*
X91460477Y-104667800D01*
X91381523Y-104667800D01*
X91304093Y-104652398D01*
X91231150Y-104622184D01*
X91165507Y-104578323D01*
X91109677Y-104522493D01*
X91065816Y-104456850D01*
X91035602Y-104383907D01*
X91020200Y-104306477D01*
X91020200Y-104227523D01*
X91035602Y-104150093D01*
X91065816Y-104077150D01*
X91109677Y-104011507D01*
X91165507Y-103955677D01*
X91231150Y-103911816D01*
X91304093Y-103881602D01*
X91381523Y-103866200D01*
X91460477Y-103866200D01*
X91537907Y-103881602D01*
X91537907Y-103881602D01*
G37*
G36*
X115175907Y-103881602D02*
G01*
X115248850Y-103911816D01*
X115314493Y-103955677D01*
X115370323Y-104011507D01*
X115414184Y-104077150D01*
X115444398Y-104150093D01*
X115459800Y-104227523D01*
X115459800Y-104306477D01*
X115444398Y-104383907D01*
X115414184Y-104456850D01*
X115370323Y-104522493D01*
X115314493Y-104578323D01*
X115248850Y-104622184D01*
X115175907Y-104652398D01*
X115098477Y-104667800D01*
X115019523Y-104667800D01*
X114942093Y-104652398D01*
X114869150Y-104622184D01*
X114803507Y-104578323D01*
X114747677Y-104522493D01*
X114703816Y-104456850D01*
X114673602Y-104383907D01*
X114658200Y-104306477D01*
X114658200Y-104227523D01*
X114673602Y-104150093D01*
X114703816Y-104077150D01*
X114747677Y-104011507D01*
X114803507Y-103955677D01*
X114869150Y-103911816D01*
X114942093Y-103881602D01*
X115019523Y-103866200D01*
X115098477Y-103866200D01*
X115175907Y-103881602D01*
X115175907Y-103881602D01*
G37*
G36*
X116975907Y-103881602D02*
G01*
X117048850Y-103911816D01*
X117114493Y-103955677D01*
X117170323Y-104011507D01*
X117214184Y-104077150D01*
X117244398Y-104150093D01*
X117259800Y-104227523D01*
X117259800Y-104306477D01*
X117244398Y-104383907D01*
X117214184Y-104456850D01*
X117170323Y-104522493D01*
X117114493Y-104578323D01*
X117048850Y-104622184D01*
X116975907Y-104652398D01*
X116898477Y-104667800D01*
X116819523Y-104667800D01*
X116742093Y-104652398D01*
X116669150Y-104622184D01*
X116603507Y-104578323D01*
X116547677Y-104522493D01*
X116503816Y-104456850D01*
X116473602Y-104383907D01*
X116458200Y-104306477D01*
X116458200Y-104227523D01*
X116473602Y-104150093D01*
X116503816Y-104077150D01*
X116547677Y-104011507D01*
X116603507Y-103955677D01*
X116669150Y-103911816D01*
X116742093Y-103881602D01*
X116819523Y-103866200D01*
X116898477Y-103866200D01*
X116975907Y-103881602D01*
X116975907Y-103881602D01*
G37*
G36*
X114040800Y-103675800D02*
G01*
X112239200Y-103675800D01*
X112239200Y-102674200D01*
X114040800Y-102674200D01*
X114040800Y-103675800D01*
X114040800Y-103675800D01*
G37*
G36*
X96040800Y-103635800D02*
G01*
X94239200Y-103635800D01*
X94239200Y-102634200D01*
X96040800Y-102634200D01*
X96040800Y-103635800D01*
X96040800Y-103635800D01*
G37*
G36*
X93121800Y-102590800D02*
G01*
X91520200Y-102590800D01*
X91520200Y-101189200D01*
X93121800Y-101189200D01*
X93121800Y-102590800D01*
X93121800Y-102590800D01*
G37*
G36*
X116759800Y-102590800D02*
G01*
X115158200Y-102590800D01*
X115158200Y-101189200D01*
X116759800Y-101189200D01*
X116759800Y-102590800D01*
X116759800Y-102590800D01*
G37*
G36*
X114040800Y-102405800D02*
G01*
X112239200Y-102405800D01*
X112239200Y-101404200D01*
X114040800Y-101404200D01*
X114040800Y-102405800D01*
X114040800Y-102405800D01*
G37*
G36*
X96040800Y-102365800D02*
G01*
X94239200Y-102365800D01*
X94239200Y-101364200D01*
X96040800Y-101364200D01*
X96040800Y-102365800D01*
X96040800Y-102365800D01*
G37*
G36*
X114040800Y-101135800D02*
G01*
X112239200Y-101135800D01*
X112239200Y-100134200D01*
X114040800Y-100134200D01*
X114040800Y-101135800D01*
X114040800Y-101135800D01*
G37*
G36*
X96040800Y-101095800D02*
G01*
X94239200Y-101095800D01*
X94239200Y-100094200D01*
X96040800Y-100094200D01*
X96040800Y-101095800D01*
X96040800Y-101095800D01*
G37*
G36*
X116276800Y-99995800D02*
G01*
X115625200Y-99995800D01*
X115625200Y-99394200D01*
X116276800Y-99394200D01*
X116276800Y-99995800D01*
X116276800Y-99995800D01*
G37*
G36*
X93670800Y-99995800D02*
G01*
X93019200Y-99995800D01*
X93019200Y-99394200D01*
X93670800Y-99394200D01*
X93670800Y-99995800D01*
X93670800Y-99995800D01*
G37*
G36*
X92400800Y-99995800D02*
G01*
X91749200Y-99995800D01*
X91749200Y-99394200D01*
X92400800Y-99394200D01*
X92400800Y-99995800D01*
X92400800Y-99995800D01*
G37*
G36*
X91511800Y-99995800D02*
G01*
X90860200Y-99995800D01*
X90860200Y-99394200D01*
X91511800Y-99394200D01*
X91511800Y-99995800D01*
X91511800Y-99995800D01*
G37*
G36*
X114040800Y-99865800D02*
G01*
X112239200Y-99865800D01*
X112239200Y-98864200D01*
X114040800Y-98864200D01*
X114040800Y-99865800D01*
X114040800Y-99865800D01*
G37*
G36*
X96040800Y-99825800D02*
G01*
X94239200Y-99825800D01*
X94239200Y-98824200D01*
X96040800Y-98824200D01*
X96040800Y-99825800D01*
X96040800Y-99825800D01*
G37*
G36*
X116276800Y-98979800D02*
G01*
X115625200Y-98979800D01*
X115625200Y-98378200D01*
X116276800Y-98378200D01*
X116276800Y-98979800D01*
X116276800Y-98979800D01*
G37*
G36*
X93670800Y-98979800D02*
G01*
X93019200Y-98979800D01*
X93019200Y-98378200D01*
X93670800Y-98378200D01*
X93670800Y-98979800D01*
X93670800Y-98979800D01*
G37*
G36*
X92400800Y-98979800D02*
G01*
X91749200Y-98979800D01*
X91749200Y-98378200D01*
X92400800Y-98378200D01*
X92400800Y-98979800D01*
X92400800Y-98979800D01*
G37*
G36*
X91511800Y-98979800D02*
G01*
X90860200Y-98979800D01*
X90860200Y-98378200D01*
X91511800Y-98378200D01*
X91511800Y-98979800D01*
X91511800Y-98979800D01*
G37*
G36*
X114040800Y-98595800D02*
G01*
X112239200Y-98595800D01*
X112239200Y-97594200D01*
X114040800Y-97594200D01*
X114040800Y-98595800D01*
X114040800Y-98595800D01*
G37*
G36*
X96040800Y-98555800D02*
G01*
X94239200Y-98555800D01*
X94239200Y-97554200D01*
X96040800Y-97554200D01*
X96040800Y-98555800D01*
X96040800Y-98555800D01*
G37*
G36*
X116641889Y-96171095D02*
G01*
X116641891Y-96171096D01*
X116641892Y-96171096D01*
X116755996Y-96218360D01*
X116858688Y-96286976D01*
X116946024Y-96374312D01*
X117014640Y-96477004D01*
X117061904Y-96591108D01*
X117086000Y-96712248D01*
X117086000Y-96835752D01*
X117061904Y-96956892D01*
X117014640Y-97070996D01*
X116946024Y-97173688D01*
X116858688Y-97261024D01*
X116755996Y-97329640D01*
X116641892Y-97376904D01*
X116641891Y-97376904D01*
X116641889Y-97376905D01*
X116520754Y-97401000D01*
X116397246Y-97401000D01*
X116276111Y-97376905D01*
X116276109Y-97376904D01*
X116276108Y-97376904D01*
X116162004Y-97329640D01*
X116059312Y-97261024D01*
X115971976Y-97173688D01*
X115903360Y-97070996D01*
X115856096Y-96956892D01*
X115832000Y-96835752D01*
X115832000Y-96712248D01*
X115856096Y-96591108D01*
X115903360Y-96477004D01*
X115971976Y-96374312D01*
X116059312Y-96286976D01*
X116162004Y-96218360D01*
X116276108Y-96171096D01*
X116276109Y-96171096D01*
X116276111Y-96171095D01*
X116397246Y-96147000D01*
X116520754Y-96147000D01*
X116641889Y-96171095D01*
X116641889Y-96171095D01*
G37*
G36*
X92003889Y-96171095D02*
G01*
X92003891Y-96171096D01*
X92003892Y-96171096D01*
X92117996Y-96218360D01*
X92220688Y-96286976D01*
X92308024Y-96374312D01*
X92376640Y-96477004D01*
X92423904Y-96591108D01*
X92448000Y-96712248D01*
X92448000Y-96835752D01*
X92423904Y-96956892D01*
X92376640Y-97070996D01*
X92308024Y-97173688D01*
X92220688Y-97261024D01*
X92117996Y-97329640D01*
X92003892Y-97376904D01*
X92003891Y-97376904D01*
X92003889Y-97376905D01*
X91882754Y-97401000D01*
X91759246Y-97401000D01*
X91638111Y-97376905D01*
X91638109Y-97376904D01*
X91638108Y-97376904D01*
X91524004Y-97329640D01*
X91421312Y-97261024D01*
X91333976Y-97173688D01*
X91265360Y-97070996D01*
X91218096Y-96956892D01*
X91194000Y-96835752D01*
X91194000Y-96712248D01*
X91218096Y-96591108D01*
X91265360Y-96477004D01*
X91333976Y-96374312D01*
X91421312Y-96286976D01*
X91524004Y-96218360D01*
X91638108Y-96171096D01*
X91638109Y-96171096D01*
X91638111Y-96171095D01*
X91759246Y-96147000D01*
X91882754Y-96147000D01*
X92003889Y-96171095D01*
X92003889Y-96171095D01*
G37*
G36*
X114040800Y-97325800D02*
G01*
X112239200Y-97325800D01*
X112239200Y-96324200D01*
X114040800Y-96324200D01*
X114040800Y-97325800D01*
X114040800Y-97325800D01*
G37*
G36*
X96040800Y-97285800D02*
G01*
X94239200Y-97285800D01*
X94239200Y-96284200D01*
X96040800Y-96284200D01*
X96040800Y-97285800D01*
X96040800Y-97285800D01*
G37*
M02*
