G04 #@! TF.GenerationSoftware,KiCad,Pcbnew,5.1.0-rc1-unknown-9a8afdf~76~ubuntu18.04.1*
G04 #@! TF.CreationDate,2019-02-22T09:22:25+02:00
G04 #@! TF.ProjectId,ESP32-PoE_Rev_C,45535033-322d-4506-9f45-5f5265765f43,C*
G04 #@! TF.SameCoordinates,Original*
G04 #@! TF.FileFunction,Paste,Bot*
G04 #@! TF.FilePolarity,Positive*
%FSLAX46Y46*%
G04 Gerber Fmt 4.6, Leading zero omitted, Abs format (unit mm)*
G04 Created by KiCad (PCBNEW 5.1.0-rc1-unknown-9a8afdf~76~ubuntu18.04.1) date 2019-02-22 09:22:25*
%MOMM*%
%LPD*%
G04 APERTURE LIST*
%ADD10C,0.254000*%
%ADD11C,0.200000*%
%ADD12C,0.100000*%
%ADD13R,0.500000X1.000000*%
%ADD14R,1.754000X1.454000*%
%ADD15R,0.230000X0.780000*%
%ADD16R,0.780000X0.230000*%
%ADD17R,1.270000X0.325000*%
%ADD18R,1.200000X0.550000*%
%ADD19R,0.381000X1.016000*%
%ADD20R,0.635000X1.016000*%
%ADD21R,1.016000X0.381000*%
%ADD22R,1.016000X0.635000*%
%ADD23R,1.016000X1.016000*%
%ADD24R,1.400000X1.200000*%
%ADD25R,0.500000X0.550000*%
%ADD26R,1.016000X1.778000*%
%ADD27R,1.000000X1.400000*%
%ADD28R,0.550000X0.500000*%
%ADD29R,1.000000X0.400000*%
%ADD30R,0.400000X1.000000*%
%ADD31R,1.524000X1.270000*%
%ADD32R,1.778000X1.016000*%
%ADD33R,1.270000X1.524000*%
G04 APERTURE END LIST*
D10*
X90150000Y-163830000D02*
X90150000Y-170150000D01*
X91313000Y-162687000D02*
X90150000Y-163830000D01*
X91313000Y-153797000D02*
X91313000Y-162687000D01*
X90150000Y-152654000D02*
X91313000Y-153797000D01*
X90150000Y-152654000D02*
X90150000Y-95150000D01*
X90150000Y-170150000D02*
X118150000Y-170150000D01*
X90150000Y-95150000D02*
X118150000Y-95150000D01*
X118150000Y-170150000D02*
X118150000Y-95150000D01*
D11*
X112344000Y-149644000D02*
X112344000Y-150444000D01*
X111544000Y-149644000D02*
X112344000Y-149644000D01*
X111544000Y-150444000D02*
X111544000Y-149644000D01*
X112344000Y-150444000D02*
X111544000Y-150444000D01*
X112344000Y-150344000D02*
X111544000Y-150344000D01*
X112344000Y-150244000D02*
X111544000Y-150244000D01*
X112344000Y-150144000D02*
X111544000Y-150144000D01*
X112344000Y-150044000D02*
X111544000Y-150044000D01*
X112344000Y-149944000D02*
X111544000Y-149944000D01*
X112344000Y-149844000D02*
X111544000Y-149844000D01*
X112344000Y-149744000D02*
X111544000Y-149744000D01*
X109944000Y-149744000D02*
X109144000Y-149744000D01*
X109944000Y-149844000D02*
X109144000Y-149844000D01*
X109944000Y-149944000D02*
X109144000Y-149944000D01*
X109944000Y-150044000D02*
X109144000Y-150044000D01*
X109944000Y-150144000D02*
X109144000Y-150144000D01*
X109944000Y-150244000D02*
X109144000Y-150244000D01*
X109944000Y-150344000D02*
X109144000Y-150344000D01*
X109944000Y-150444000D02*
X109144000Y-150444000D01*
X109144000Y-150444000D02*
X109144000Y-149644000D01*
X109144000Y-149644000D02*
X109944000Y-149644000D01*
X109944000Y-149644000D02*
X109944000Y-150444000D01*
X112344000Y-147344000D02*
X111544000Y-147344000D01*
X112344000Y-147444000D02*
X111544000Y-147444000D01*
X112344000Y-147544000D02*
X111544000Y-147544000D01*
X112344000Y-147644000D02*
X111544000Y-147644000D01*
X112344000Y-147744000D02*
X111544000Y-147744000D01*
X112344000Y-147844000D02*
X111544000Y-147844000D01*
X112344000Y-147944000D02*
X111544000Y-147944000D01*
X112344000Y-148044000D02*
X111544000Y-148044000D01*
X111544000Y-148044000D02*
X111544000Y-147244000D01*
X111544000Y-147244000D02*
X112344000Y-147244000D01*
X112344000Y-147244000D02*
X112344000Y-148044000D01*
X109944000Y-147244000D02*
X109944000Y-148044000D01*
X109144000Y-147244000D02*
X109944000Y-147244000D01*
X109144000Y-148044000D02*
X109144000Y-147244000D01*
X109944000Y-148044000D02*
X109144000Y-148044000D01*
X109944000Y-147944000D02*
X109144000Y-147944000D01*
X109944000Y-147844000D02*
X109144000Y-147844000D01*
X109944000Y-147744000D02*
X109144000Y-147744000D01*
X109944000Y-147644000D02*
X109144000Y-147644000D01*
X109944000Y-147544000D02*
X109144000Y-147544000D01*
X109944000Y-147444000D02*
X109144000Y-147444000D01*
X109944000Y-147344000D02*
X109144000Y-147344000D01*
X110544000Y-150444000D02*
X110944000Y-150444000D01*
X110544000Y-149644000D02*
X110544000Y-150444000D01*
X110944000Y-149644000D02*
X110544000Y-149644000D01*
X110944000Y-150444000D02*
X110944000Y-149644000D01*
X110844000Y-150444000D02*
X110844000Y-149644000D01*
X110744000Y-150444000D02*
X110744000Y-149644000D01*
X110644000Y-150444000D02*
X110644000Y-149644000D01*
X110644000Y-148044000D02*
X110644000Y-147244000D01*
X110744000Y-148044000D02*
X110744000Y-147244000D01*
X110844000Y-148044000D02*
X110844000Y-147244000D01*
X110944000Y-148044000D02*
X110944000Y-147244000D01*
X110944000Y-147244000D02*
X110544000Y-147244000D01*
X110544000Y-147244000D02*
X110544000Y-148044000D01*
X110544000Y-148044000D02*
X110944000Y-148044000D01*
X112344000Y-148644000D02*
X112344000Y-149044000D01*
X111544000Y-148644000D02*
X112344000Y-148644000D01*
X111544000Y-149044000D02*
X111544000Y-148644000D01*
X112344000Y-149044000D02*
X111544000Y-149044000D01*
X112344000Y-148944000D02*
X111544000Y-148944000D01*
X111544000Y-148844000D02*
X112344000Y-148844000D01*
X112344000Y-148744000D02*
X111544000Y-148744000D01*
X109944000Y-148744000D02*
X109144000Y-148744000D01*
X109144000Y-148844000D02*
X109944000Y-148844000D01*
X109944000Y-148944000D02*
X109144000Y-148944000D01*
X109944000Y-149044000D02*
X109144000Y-149044000D01*
X109144000Y-149044000D02*
X109144000Y-148644000D01*
X109144000Y-148644000D02*
X109944000Y-148644000D01*
X109944000Y-148644000D02*
X109944000Y-149044000D01*
D12*
G36*
X109216000Y-130395000D02*
G01*
X109716000Y-130395000D01*
X109716000Y-130145000D01*
X109216000Y-130145000D01*
X109216000Y-130395000D01*
G37*
X109216000Y-130395000D02*
X109716000Y-130395000D01*
X109716000Y-130145000D01*
X109216000Y-130145000D01*
X109216000Y-130395000D01*
G36*
X108216000Y-130395000D02*
G01*
X108716000Y-130395000D01*
X108716000Y-130145000D01*
X108216000Y-130145000D01*
X108216000Y-130395000D01*
G37*
X108216000Y-130395000D02*
X108716000Y-130395000D01*
X108716000Y-130145000D01*
X108216000Y-130145000D01*
X108216000Y-130395000D01*
G36*
X108216000Y-132745000D02*
G01*
X108716000Y-132745000D01*
X108716000Y-132495000D01*
X108216000Y-132495000D01*
X108216000Y-132745000D01*
G37*
X108216000Y-132745000D02*
X108716000Y-132745000D01*
X108716000Y-132495000D01*
X108216000Y-132495000D01*
X108216000Y-132745000D01*
G36*
X107666000Y-130795000D02*
G01*
X107666000Y-131095000D01*
X110266000Y-131095000D01*
X110266000Y-130795000D01*
X107666000Y-130795000D01*
G37*
X107666000Y-130795000D02*
X107666000Y-131095000D01*
X110266000Y-131095000D01*
X110266000Y-130795000D01*
X107666000Y-130795000D01*
G36*
X109216000Y-132745000D02*
G01*
X109716000Y-132745000D01*
X109716000Y-132495000D01*
X109216000Y-132495000D01*
X109216000Y-132745000D01*
G37*
X109216000Y-132745000D02*
X109716000Y-132745000D01*
X109716000Y-132495000D01*
X109216000Y-132495000D01*
X109216000Y-132745000D01*
G36*
X107666000Y-131795000D02*
G01*
X107666000Y-132095000D01*
X110266000Y-132095000D01*
X110266000Y-131795000D01*
X107666000Y-131795000D01*
G37*
X107666000Y-131795000D02*
X107666000Y-132095000D01*
X110266000Y-132095000D01*
X110266000Y-131795000D01*
X107666000Y-131795000D01*
D13*
X100290000Y-108587000D03*
X101390000Y-108587000D03*
X102490000Y-108587000D03*
X103590000Y-108587000D03*
X104340000Y-108587000D03*
X105040000Y-108587000D03*
X105790000Y-108587000D03*
X106890000Y-108587000D03*
X107990000Y-108587000D03*
D14*
X109440000Y-110337000D03*
X98840000Y-110337000D03*
X109440000Y-114787000D03*
X98840000Y-114787000D03*
D15*
X108994000Y-151294000D03*
X109494000Y-151294000D03*
X109994000Y-151294000D03*
X110494000Y-151294000D03*
X110994000Y-151294000D03*
X111494000Y-151294000D03*
X111994000Y-151294000D03*
X112494000Y-151294000D03*
D16*
X113194000Y-150594000D03*
X113194000Y-150094000D03*
X113194000Y-149594000D03*
X113194000Y-149094000D03*
X113194000Y-148594000D03*
X113194000Y-148094000D03*
X113194000Y-147594000D03*
X113194000Y-147094000D03*
D15*
X112494000Y-146394000D03*
X111994000Y-146394000D03*
X111494000Y-146394000D03*
X110994000Y-146394000D03*
X110494000Y-146394000D03*
X109994000Y-146394000D03*
X109494000Y-146394000D03*
X108994000Y-146394000D03*
D16*
X108294000Y-147094000D03*
X108294000Y-147594000D03*
X108294000Y-148094000D03*
X108294000Y-148594000D03*
X108294000Y-149094000D03*
X108294000Y-149594000D03*
X108294000Y-150094000D03*
X108294000Y-150594000D03*
D17*
X93916500Y-150880000D03*
X93916500Y-150230000D03*
X93916500Y-149580000D03*
X93916500Y-148930000D03*
X93916500Y-148280000D03*
X93916500Y-147630000D03*
X93916500Y-146980000D03*
X93916500Y-146330000D03*
X93916500Y-145680000D03*
X93916500Y-145030000D03*
X101155500Y-145030000D03*
X101155500Y-145680000D03*
X101155500Y-146330000D03*
X101155500Y-146980000D03*
X101155500Y-147630000D03*
X101155500Y-148280000D03*
X101155500Y-148930000D03*
X101155500Y-149580000D03*
X101155500Y-150230000D03*
X101155500Y-150880000D03*
D18*
X93442000Y-168018500D03*
X93442000Y-167068500D03*
X93442000Y-166118500D03*
X96042000Y-168018500D03*
X96042000Y-166118500D03*
D19*
X106680000Y-117221000D03*
X105918000Y-117221000D03*
X106680000Y-118745000D03*
X105918000Y-118745000D03*
D20*
X107569000Y-117221000D03*
X107569000Y-118745000D03*
X105029000Y-117221000D03*
X105029000Y-118745000D03*
D19*
X95250000Y-107569000D03*
X94488000Y-107569000D03*
X95250000Y-109093000D03*
X94488000Y-109093000D03*
D20*
X96139000Y-107569000D03*
X96139000Y-109093000D03*
X93599000Y-107569000D03*
X93599000Y-109093000D03*
D21*
X107061000Y-141605000D03*
X107061000Y-142367000D03*
X108585000Y-141605000D03*
X108585000Y-142367000D03*
D22*
X107061000Y-140716000D03*
X108585000Y-140716000D03*
X107061000Y-143256000D03*
X108585000Y-143256000D03*
D23*
X106426000Y-125349000D03*
X104648000Y-125349000D03*
D24*
X95969000Y-140043000D03*
X93769000Y-141643000D03*
X93769000Y-140043000D03*
X95969000Y-141643000D03*
D25*
X95758000Y-138684000D03*
X96774000Y-138684000D03*
D26*
X108966000Y-122301000D03*
X105410000Y-122301000D03*
D23*
X105664000Y-153543000D03*
X103886000Y-153543000D03*
D27*
X94300040Y-121320560D03*
X96202500Y-121320560D03*
X95247460Y-123530360D03*
D23*
X106299000Y-126873000D03*
X108077000Y-126873000D03*
D28*
X96520000Y-132207000D03*
X96520000Y-133223000D03*
X94615000Y-133223000D03*
X94615000Y-132207000D03*
D29*
X106616000Y-132645000D03*
X106616000Y-131845000D03*
X106616000Y-131045000D03*
X106616000Y-130245000D03*
D30*
X106966000Y-129095000D03*
X107766000Y-129095000D03*
X108566000Y-129095000D03*
X109366000Y-129095000D03*
X110166000Y-129095000D03*
X110966000Y-129095000D03*
D29*
X111316000Y-130245000D03*
X111316000Y-131045000D03*
X111316000Y-131845000D03*
X111316000Y-132645000D03*
D30*
X110966000Y-133795000D03*
X110166000Y-133795000D03*
X109366000Y-133795000D03*
X108566000Y-133795000D03*
X107766000Y-133795000D03*
X106966000Y-133795000D03*
D28*
X116459000Y-113792000D03*
X116459000Y-112776000D03*
D27*
X116400000Y-116195000D03*
X112600000Y-116195000D03*
D25*
X93345000Y-143129000D03*
X94361000Y-143129000D03*
D31*
X104013000Y-149606000D03*
X106045000Y-149606000D03*
D27*
X96453960Y-131028440D03*
X94551500Y-131028440D03*
X95506540Y-128818640D03*
D23*
X101346000Y-152908000D03*
X99568000Y-152908000D03*
X105537000Y-144018000D03*
X103759000Y-144018000D03*
X104013000Y-152146000D03*
X105791000Y-152146000D03*
X105283000Y-145542000D03*
X107061000Y-145542000D03*
D32*
X116459000Y-159258000D03*
X116459000Y-155702000D03*
D31*
X101219000Y-118618000D03*
X103251000Y-118618000D03*
D27*
X94300040Y-134401560D03*
X96202500Y-134401560D03*
X95247460Y-136611360D03*
D23*
X99314000Y-167894000D03*
X99314000Y-166116000D03*
D27*
X103571040Y-140116560D03*
X105473500Y-140116560D03*
X104518460Y-142326360D03*
D25*
X91186000Y-149098000D03*
X92202000Y-149098000D03*
X91186000Y-148209000D03*
X92202000Y-148209000D03*
D28*
X97663000Y-167259000D03*
X97663000Y-166243000D03*
X96393000Y-124079000D03*
X96393000Y-125095000D03*
D25*
X94234000Y-169291000D03*
X95250000Y-169291000D03*
D28*
X109728000Y-152908000D03*
X109728000Y-153924000D03*
X108331000Y-152908000D03*
X108331000Y-153924000D03*
X112014000Y-152908000D03*
X112014000Y-153924000D03*
X110617000Y-152908000D03*
X110617000Y-153924000D03*
X114681000Y-152146000D03*
X114681000Y-153162000D03*
X115951000Y-151511000D03*
X115951000Y-152527000D03*
D25*
X91567000Y-169291000D03*
X92583000Y-169291000D03*
D28*
X106934000Y-152400000D03*
X106934000Y-151384000D03*
X105537000Y-129032000D03*
X105537000Y-128016000D03*
D25*
X109982000Y-127635000D03*
X110998000Y-127635000D03*
X102489000Y-120269000D03*
X101473000Y-120269000D03*
D28*
X112776000Y-107569000D03*
X112776000Y-108585000D03*
D25*
X104140000Y-123952000D03*
X105156000Y-123952000D03*
D28*
X104140000Y-120777000D03*
X104140000Y-121793000D03*
X93218000Y-117221000D03*
X93218000Y-118237000D03*
X102616000Y-152781000D03*
X102616000Y-153797000D03*
X113157000Y-152146000D03*
X113157000Y-153162000D03*
D25*
X104521000Y-150876000D03*
X105537000Y-150876000D03*
X105791000Y-147447000D03*
X106807000Y-147447000D03*
D33*
X101219000Y-116713000D03*
X103251000Y-116713000D03*
D25*
X108839000Y-125603000D03*
X107823000Y-125603000D03*
D23*
X98958400Y-126517400D03*
X98958400Y-128295400D03*
D28*
X97282000Y-125095000D03*
X97282000Y-124079000D03*
D31*
X96964500Y-159131000D03*
X98996500Y-159131000D03*
D25*
X98298000Y-168402000D03*
X97282000Y-168402000D03*
X112903000Y-103251000D03*
X111887000Y-103251000D03*
M02*
