G04 #@! TF.GenerationSoftware,KiCad,Pcbnew,5.1.0-rc1-unknown-9a8afdf~76~ubuntu18.04.1*
G04 #@! TF.CreationDate,2019-02-22T09:22:25+02:00
G04 #@! TF.ProjectId,ESP32-PoE_Rev_C,45535033-322d-4506-9f45-5f5265765f43,C*
G04 #@! TF.SameCoordinates,Original*
G04 #@! TF.FileFunction,Soldermask,Top*
G04 #@! TF.FilePolarity,Negative*
%FSLAX46Y46*%
G04 Gerber Fmt 4.6, Leading zero omitted, Abs format (unit mm)*
G04 Created by KiCad (PCBNEW 5.1.0-rc1-unknown-9a8afdf~76~ubuntu18.04.1) date 2019-02-22 09:22:25*
%MOMM*%
%LPD*%
G04 APERTURE LIST*
%ADD10C,0.254000*%
%ADD11C,0.100000*%
G04 APERTURE END LIST*
D10*
X90150000Y-163830000D02*
X90150000Y-170150000D01*
X91313000Y-162687000D02*
X90150000Y-163830000D01*
X91313000Y-153797000D02*
X91313000Y-162687000D01*
X90150000Y-152654000D02*
X91313000Y-153797000D01*
X90150000Y-152654000D02*
X90150000Y-95150000D01*
X90150000Y-170150000D02*
X118150000Y-170150000D01*
X90150000Y-95150000D02*
X118150000Y-95150000D01*
X118150000Y-170150000D02*
X118150000Y-95150000D01*
D11*
G36*
X92906800Y-169741800D02*
G01*
X92005200Y-169741800D01*
X92005200Y-168840200D01*
X92906800Y-168840200D01*
X92906800Y-169741800D01*
X92906800Y-169741800D01*
G37*
G36*
X91382800Y-169741800D02*
G01*
X90481200Y-169741800D01*
X90481200Y-168840200D01*
X91382800Y-168840200D01*
X91382800Y-169741800D01*
X91382800Y-169741800D01*
G37*
G36*
X114676321Y-167914047D02*
G01*
X114736889Y-167926095D01*
X114793942Y-167949727D01*
X114850997Y-167973360D01*
X114953687Y-168041975D01*
X115041025Y-168129313D01*
X115109640Y-168232003D01*
X115156905Y-168346112D01*
X115181000Y-168467245D01*
X115181000Y-168590755D01*
X115156905Y-168711888D01*
X115109640Y-168825997D01*
X115041025Y-168928687D01*
X114953687Y-169016025D01*
X114850997Y-169084640D01*
X114793943Y-169108272D01*
X114736889Y-169131905D01*
X114676321Y-169143953D01*
X114615755Y-169156000D01*
X114492245Y-169156000D01*
X114431679Y-169143953D01*
X114371111Y-169131905D01*
X114314057Y-169108272D01*
X114257003Y-169084640D01*
X114154313Y-169016025D01*
X114066975Y-168928687D01*
X113998360Y-168825997D01*
X113951095Y-168711888D01*
X113927000Y-168590755D01*
X113927000Y-168467245D01*
X113951095Y-168346112D01*
X113998360Y-168232003D01*
X114066975Y-168129313D01*
X114154313Y-168041975D01*
X114257003Y-167973360D01*
X114314058Y-167949727D01*
X114371111Y-167926095D01*
X114431679Y-167914047D01*
X114492245Y-167902000D01*
X114615755Y-167902000D01*
X114676321Y-167914047D01*
X114676321Y-167914047D01*
G37*
G36*
X91382800Y-167455800D02*
G01*
X90481200Y-167455800D01*
X90481200Y-166554200D01*
X91382800Y-166554200D01*
X91382800Y-167455800D01*
X91382800Y-167455800D01*
G37*
G36*
X92906800Y-167455800D02*
G01*
X92005200Y-167455800D01*
X92005200Y-166554200D01*
X92906800Y-166554200D01*
X92906800Y-167455800D01*
X92906800Y-167455800D01*
G37*
G36*
X114377809Y-163327880D02*
G01*
X114542105Y-163360561D01*
X114723842Y-163435839D01*
X114841294Y-163484489D01*
X114851631Y-163488771D01*
X115130197Y-163674903D01*
X115367097Y-163911803D01*
X115553229Y-164190369D01*
X115681439Y-164499895D01*
X115746800Y-164828486D01*
X115746800Y-165163514D01*
X115681439Y-165492105D01*
X115553229Y-165801631D01*
X115367097Y-166080197D01*
X115130197Y-166317097D01*
X114851631Y-166503229D01*
X114542105Y-166631439D01*
X114377809Y-166664120D01*
X114213515Y-166696800D01*
X113878485Y-166696800D01*
X113714191Y-166664120D01*
X113549895Y-166631439D01*
X113240369Y-166503229D01*
X112961803Y-166317097D01*
X112724903Y-166080197D01*
X112538771Y-165801631D01*
X112410561Y-165492105D01*
X112345200Y-165163514D01*
X112345200Y-164828486D01*
X112410561Y-164499895D01*
X112538771Y-164190369D01*
X112724903Y-163911803D01*
X112961803Y-163674903D01*
X113240369Y-163488771D01*
X113250707Y-163484489D01*
X113368158Y-163435839D01*
X113549895Y-163360561D01*
X113714191Y-163327880D01*
X113878485Y-163295200D01*
X114213515Y-163295200D01*
X114377809Y-163327880D01*
X114377809Y-163327880D01*
G37*
G36*
X102947809Y-163327880D02*
G01*
X103112105Y-163360561D01*
X103293842Y-163435839D01*
X103411294Y-163484489D01*
X103421631Y-163488771D01*
X103700197Y-163674903D01*
X103937097Y-163911803D01*
X104123229Y-164190369D01*
X104251439Y-164499895D01*
X104316800Y-164828486D01*
X104316800Y-165163514D01*
X104251439Y-165492105D01*
X104123229Y-165801631D01*
X103937097Y-166080197D01*
X103700197Y-166317097D01*
X103421631Y-166503229D01*
X103112105Y-166631439D01*
X102947809Y-166664120D01*
X102783515Y-166696800D01*
X102448485Y-166696800D01*
X102284191Y-166664120D01*
X102119895Y-166631439D01*
X101810369Y-166503229D01*
X101531803Y-166317097D01*
X101294903Y-166080197D01*
X101108771Y-165801631D01*
X100980561Y-165492105D01*
X100915200Y-165163514D01*
X100915200Y-164828486D01*
X100980561Y-164499895D01*
X101108771Y-164190369D01*
X101294903Y-163911803D01*
X101531803Y-163674903D01*
X101810369Y-163488771D01*
X101820707Y-163484489D01*
X101938158Y-163435839D01*
X102119895Y-163360561D01*
X102284191Y-163327880D01*
X102448485Y-163295200D01*
X102783515Y-163295200D01*
X102947809Y-163327880D01*
X102947809Y-163327880D01*
G37*
G36*
X96389420Y-164603660D02*
G01*
X94887820Y-164603660D01*
X94887820Y-163102060D01*
X96389420Y-163102060D01*
X96389420Y-164603660D01*
X96389420Y-164603660D01*
G37*
G36*
X97869299Y-163128372D02*
G01*
X98005939Y-163184970D01*
X98128905Y-163267133D01*
X98233487Y-163371715D01*
X98315650Y-163494681D01*
X98372248Y-163631321D01*
X98401100Y-163776371D01*
X98401100Y-163924269D01*
X98372248Y-164069319D01*
X98315650Y-164205959D01*
X98233487Y-164328925D01*
X98128905Y-164433507D01*
X98005939Y-164515670D01*
X97869299Y-164572268D01*
X97724249Y-164601120D01*
X97576351Y-164601120D01*
X97431301Y-164572268D01*
X97294661Y-164515670D01*
X97171695Y-164433507D01*
X97067113Y-164328925D01*
X96984950Y-164205959D01*
X96928352Y-164069319D01*
X96899500Y-163924269D01*
X96899500Y-163776371D01*
X96928352Y-163631321D01*
X96984950Y-163494681D01*
X97067113Y-163371715D01*
X97171695Y-163267133D01*
X97294661Y-163184970D01*
X97431301Y-163128372D01*
X97576351Y-163099520D01*
X97724249Y-163099520D01*
X97869299Y-163128372D01*
X97869299Y-163128372D01*
G37*
G36*
X100697786Y-160407511D02*
G01*
X100858160Y-160456161D01*
X101005967Y-160535164D01*
X101135517Y-160641484D01*
X101241838Y-160771036D01*
X101320840Y-160918839D01*
X101369490Y-161079214D01*
X101381800Y-161204207D01*
X101381800Y-162687793D01*
X101369490Y-162812786D01*
X101320840Y-162973161D01*
X101241838Y-163120964D01*
X101135517Y-163250516D01*
X101005965Y-163356837D01*
X100858162Y-163435839D01*
X100697787Y-163484489D01*
X100531000Y-163500915D01*
X100364214Y-163484489D01*
X100203839Y-163435839D01*
X100056036Y-163356837D01*
X99926484Y-163250516D01*
X99820163Y-163120964D01*
X99741161Y-162973161D01*
X99692511Y-162812786D01*
X99680201Y-162687793D01*
X99680200Y-161204208D01*
X99692510Y-161079215D01*
X99741160Y-160918841D01*
X99820163Y-160771034D01*
X99926483Y-160641484D01*
X100056035Y-160535163D01*
X100203838Y-160456161D01*
X100364213Y-160407511D01*
X100531000Y-160391085D01*
X100697786Y-160407511D01*
X100697786Y-160407511D01*
G37*
G36*
X116297786Y-160407511D02*
G01*
X116458160Y-160456161D01*
X116605967Y-160535164D01*
X116735517Y-160641484D01*
X116841838Y-160771036D01*
X116920840Y-160918839D01*
X116969490Y-161079214D01*
X116981800Y-161204207D01*
X116981800Y-162687793D01*
X116969490Y-162812786D01*
X116920840Y-162973161D01*
X116841838Y-163120964D01*
X116735517Y-163250516D01*
X116605965Y-163356837D01*
X116458162Y-163435839D01*
X116297787Y-163484489D01*
X116131000Y-163500915D01*
X115964214Y-163484489D01*
X115803839Y-163435839D01*
X115656036Y-163356837D01*
X115526484Y-163250516D01*
X115420163Y-163120964D01*
X115341161Y-162973161D01*
X115292511Y-162812786D01*
X115280201Y-162687793D01*
X115280200Y-161204208D01*
X115292510Y-161079215D01*
X115341160Y-160918841D01*
X115420163Y-160771034D01*
X115526483Y-160641484D01*
X115656035Y-160535163D01*
X115803838Y-160456161D01*
X115964213Y-160407511D01*
X116131000Y-160391085D01*
X116297786Y-160407511D01*
X116297786Y-160407511D01*
G37*
G36*
X93855771Y-161195909D02*
G01*
X93903579Y-161200617D01*
X94026255Y-161237831D01*
X94026258Y-161237832D01*
X94139313Y-161298261D01*
X94238412Y-161379588D01*
X94319739Y-161478687D01*
X94380168Y-161591742D01*
X94380169Y-161591745D01*
X94417383Y-161714421D01*
X94429948Y-161842000D01*
X94417383Y-161969579D01*
X94380169Y-162092255D01*
X94380168Y-162092258D01*
X94319739Y-162205313D01*
X94238412Y-162304412D01*
X94139313Y-162385739D01*
X94026258Y-162446168D01*
X94026255Y-162446169D01*
X93903579Y-162483383D01*
X93855771Y-162488091D01*
X93807965Y-162492800D01*
X93144035Y-162492800D01*
X93096229Y-162488091D01*
X93048421Y-162483383D01*
X92925745Y-162446169D01*
X92925742Y-162446168D01*
X92812687Y-162385739D01*
X92713588Y-162304412D01*
X92632261Y-162205313D01*
X92571832Y-162092258D01*
X92571831Y-162092255D01*
X92534617Y-161969579D01*
X92522052Y-161842000D01*
X92534617Y-161714421D01*
X92571831Y-161591745D01*
X92571832Y-161591742D01*
X92632261Y-161478687D01*
X92713588Y-161379588D01*
X92812687Y-161298261D01*
X92925742Y-161237832D01*
X92925745Y-161237831D01*
X93048421Y-161200617D01*
X93096229Y-161195909D01*
X93144035Y-161191200D01*
X93807965Y-161191200D01*
X93855771Y-161195909D01*
X93855771Y-161195909D01*
G37*
G36*
X97325771Y-161195909D02*
G01*
X97373579Y-161200617D01*
X97496255Y-161237831D01*
X97496258Y-161237832D01*
X97609313Y-161298261D01*
X97708412Y-161379588D01*
X97789739Y-161478687D01*
X97850168Y-161591742D01*
X97850169Y-161591745D01*
X97887383Y-161714421D01*
X97899948Y-161842000D01*
X97887383Y-161969579D01*
X97850169Y-162092255D01*
X97850168Y-162092258D01*
X97789739Y-162205313D01*
X97708412Y-162304412D01*
X97609313Y-162385739D01*
X97496258Y-162446168D01*
X97496255Y-162446169D01*
X97373579Y-162483383D01*
X97325771Y-162488091D01*
X97277965Y-162492800D01*
X96614035Y-162492800D01*
X96566229Y-162488091D01*
X96518421Y-162483383D01*
X96395745Y-162446169D01*
X96395742Y-162446168D01*
X96282687Y-162385739D01*
X96183588Y-162304412D01*
X96102261Y-162205313D01*
X96041832Y-162092258D01*
X96041831Y-162092255D01*
X96004617Y-161969579D01*
X95992052Y-161842000D01*
X96004617Y-161714421D01*
X96041831Y-161591745D01*
X96041832Y-161591742D01*
X96102261Y-161478687D01*
X96183588Y-161379588D01*
X96282687Y-161298261D01*
X96395742Y-161237832D01*
X96395745Y-161237831D01*
X96518421Y-161200617D01*
X96566229Y-161195909D01*
X96614035Y-161191200D01*
X97277965Y-161191200D01*
X97325771Y-161195909D01*
X97325771Y-161195909D01*
G37*
G36*
X95728324Y-155904681D02*
G01*
X95792166Y-155931125D01*
X95849622Y-155969516D01*
X95898484Y-156018378D01*
X95936875Y-156075834D01*
X95963319Y-156139676D01*
X95976800Y-156207449D01*
X95976800Y-156276551D01*
X95963319Y-156344324D01*
X95948178Y-156380877D01*
X95941069Y-156404314D01*
X95938667Y-156428700D01*
X95941069Y-156453086D01*
X95948182Y-156476535D01*
X95959732Y-156498146D01*
X95975278Y-156517088D01*
X95994219Y-156532633D01*
X96015830Y-156544185D01*
X96039279Y-156551298D01*
X96063666Y-156553700D01*
X97751800Y-156553700D01*
X97751800Y-159930300D01*
X96063666Y-159930300D01*
X96039280Y-159932702D01*
X96015831Y-159939815D01*
X95994220Y-159951366D01*
X95975278Y-159966911D01*
X95959733Y-159985853D01*
X95948182Y-160007464D01*
X95941069Y-160030913D01*
X95938667Y-160055299D01*
X95941069Y-160079685D01*
X95948178Y-160103123D01*
X95963319Y-160139676D01*
X95976800Y-160207449D01*
X95976800Y-160276551D01*
X95963319Y-160344324D01*
X95936875Y-160408166D01*
X95898484Y-160465622D01*
X95849622Y-160514484D01*
X95792166Y-160552875D01*
X95728324Y-160579319D01*
X95660551Y-160592800D01*
X95591449Y-160592800D01*
X95523676Y-160579319D01*
X95459834Y-160552875D01*
X95402378Y-160514484D01*
X95353516Y-160465622D01*
X95315125Y-160408166D01*
X95288681Y-160344324D01*
X95275200Y-160276551D01*
X95275200Y-160207449D01*
X95288681Y-160139676D01*
X95315125Y-160075834D01*
X95353516Y-160018378D01*
X95402378Y-159969516D01*
X95459834Y-159931125D01*
X95523676Y-159904681D01*
X95591449Y-159891200D01*
X95660551Y-159891200D01*
X95728324Y-159904681D01*
X95792166Y-159931125D01*
X95805763Y-159940210D01*
X95827366Y-159951757D01*
X95850815Y-159958870D01*
X95875201Y-159961272D01*
X95899587Y-159958870D01*
X95923036Y-159951757D01*
X95944647Y-159940206D01*
X95963589Y-159924661D01*
X95979134Y-159905719D01*
X95990685Y-159884108D01*
X95997798Y-159860659D01*
X96000200Y-159836273D01*
X96000200Y-156647727D01*
X95997798Y-156623341D01*
X95990685Y-156599892D01*
X95979134Y-156578281D01*
X95963589Y-156559339D01*
X95944647Y-156543794D01*
X95923036Y-156532243D01*
X95899587Y-156525130D01*
X95875201Y-156522728D01*
X95850815Y-156525130D01*
X95827366Y-156532243D01*
X95805763Y-156543790D01*
X95792166Y-156552875D01*
X95728324Y-156579319D01*
X95660551Y-156592800D01*
X95591449Y-156592800D01*
X95523676Y-156579319D01*
X95459834Y-156552875D01*
X95402378Y-156514484D01*
X95353516Y-156465622D01*
X95315125Y-156408166D01*
X95288681Y-156344324D01*
X95275200Y-156276551D01*
X95275200Y-156207449D01*
X95288681Y-156139676D01*
X95315125Y-156075834D01*
X95353516Y-156018378D01*
X95402378Y-155969516D01*
X95459834Y-155931125D01*
X95523676Y-155904681D01*
X95591449Y-155891200D01*
X95660551Y-155891200D01*
X95728324Y-155904681D01*
X95728324Y-155904681D01*
G37*
G36*
X92876800Y-160342800D02*
G01*
X91775200Y-160342800D01*
X91775200Y-159141200D01*
X92876800Y-159141200D01*
X92876800Y-160342800D01*
X92876800Y-160342800D01*
G37*
G36*
X104123085Y-157564435D02*
G01*
X104271004Y-157625705D01*
X104271005Y-157625706D01*
X104404130Y-157714657D01*
X104517343Y-157827870D01*
X104517344Y-157827872D01*
X104606295Y-157960996D01*
X104667565Y-158108915D01*
X104698800Y-158265945D01*
X104698800Y-158426055D01*
X104667565Y-158583085D01*
X104606295Y-158731004D01*
X104606294Y-158731005D01*
X104517343Y-158864130D01*
X104404130Y-158977343D01*
X104337115Y-159022121D01*
X104271004Y-159066295D01*
X104123085Y-159127565D01*
X103966055Y-159158800D01*
X103805945Y-159158800D01*
X103648915Y-159127565D01*
X103500996Y-159066295D01*
X103434885Y-159022121D01*
X103367870Y-158977343D01*
X103254657Y-158864130D01*
X103165706Y-158731005D01*
X103165705Y-158731004D01*
X103104435Y-158583085D01*
X103073200Y-158426055D01*
X103073200Y-158265945D01*
X103104435Y-158108915D01*
X103165705Y-157960996D01*
X103254656Y-157827872D01*
X103254657Y-157827870D01*
X103367870Y-157714657D01*
X103500995Y-157625706D01*
X103500996Y-157625705D01*
X103648915Y-157564435D01*
X103805945Y-157533200D01*
X103966055Y-157533200D01*
X104123085Y-157564435D01*
X104123085Y-157564435D01*
G37*
G36*
X106663085Y-157564435D02*
G01*
X106811004Y-157625705D01*
X106811005Y-157625706D01*
X106944130Y-157714657D01*
X107057343Y-157827870D01*
X107057344Y-157827872D01*
X107146295Y-157960996D01*
X107207565Y-158108915D01*
X107238800Y-158265945D01*
X107238800Y-158426055D01*
X107207565Y-158583085D01*
X107146295Y-158731004D01*
X107146294Y-158731005D01*
X107057343Y-158864130D01*
X106944130Y-158977343D01*
X106877115Y-159022121D01*
X106811004Y-159066295D01*
X106663085Y-159127565D01*
X106506055Y-159158800D01*
X106345945Y-159158800D01*
X106188915Y-159127565D01*
X106040996Y-159066295D01*
X105974885Y-159022121D01*
X105907870Y-158977343D01*
X105794657Y-158864130D01*
X105705706Y-158731005D01*
X105705705Y-158731004D01*
X105644435Y-158583085D01*
X105613200Y-158426055D01*
X105613200Y-158265945D01*
X105644435Y-158108915D01*
X105705705Y-157960996D01*
X105794656Y-157827872D01*
X105794657Y-157827870D01*
X105907870Y-157714657D01*
X106040995Y-157625706D01*
X106040996Y-157625705D01*
X106188915Y-157564435D01*
X106345945Y-157533200D01*
X106506055Y-157533200D01*
X106663085Y-157564435D01*
X106663085Y-157564435D01*
G37*
G36*
X109203085Y-157564435D02*
G01*
X109351004Y-157625705D01*
X109351005Y-157625706D01*
X109484130Y-157714657D01*
X109597343Y-157827870D01*
X109597344Y-157827872D01*
X109686295Y-157960996D01*
X109747565Y-158108915D01*
X109778800Y-158265945D01*
X109778800Y-158426055D01*
X109747565Y-158583085D01*
X109686295Y-158731004D01*
X109686294Y-158731005D01*
X109597343Y-158864130D01*
X109484130Y-158977343D01*
X109417115Y-159022121D01*
X109351004Y-159066295D01*
X109203085Y-159127565D01*
X109046055Y-159158800D01*
X108885945Y-159158800D01*
X108728915Y-159127565D01*
X108580996Y-159066295D01*
X108514885Y-159022121D01*
X108447870Y-158977343D01*
X108334657Y-158864130D01*
X108245706Y-158731005D01*
X108245705Y-158731004D01*
X108184435Y-158583085D01*
X108153200Y-158426055D01*
X108153200Y-158265945D01*
X108184435Y-158108915D01*
X108245705Y-157960996D01*
X108334656Y-157827872D01*
X108334657Y-157827870D01*
X108447870Y-157714657D01*
X108580995Y-157625706D01*
X108580996Y-157625705D01*
X108728915Y-157564435D01*
X108885945Y-157533200D01*
X109046055Y-157533200D01*
X109203085Y-157564435D01*
X109203085Y-157564435D01*
G37*
G36*
X111743085Y-157564435D02*
G01*
X111891004Y-157625705D01*
X111891005Y-157625706D01*
X112024130Y-157714657D01*
X112137343Y-157827870D01*
X112137344Y-157827872D01*
X112226295Y-157960996D01*
X112287565Y-158108915D01*
X112318800Y-158265945D01*
X112318800Y-158426055D01*
X112287565Y-158583085D01*
X112226295Y-158731004D01*
X112226294Y-158731005D01*
X112137343Y-158864130D01*
X112024130Y-158977343D01*
X111957115Y-159022121D01*
X111891004Y-159066295D01*
X111743085Y-159127565D01*
X111586055Y-159158800D01*
X111425945Y-159158800D01*
X111268915Y-159127565D01*
X111120996Y-159066295D01*
X111054885Y-159022121D01*
X110987870Y-158977343D01*
X110874657Y-158864130D01*
X110785706Y-158731005D01*
X110785705Y-158731004D01*
X110724435Y-158583085D01*
X110693200Y-158426055D01*
X110693200Y-158265945D01*
X110724435Y-158108915D01*
X110785705Y-157960996D01*
X110874656Y-157827872D01*
X110874657Y-157827870D01*
X110987870Y-157714657D01*
X111120995Y-157625706D01*
X111120996Y-157625705D01*
X111268915Y-157564435D01*
X111425945Y-157533200D01*
X111586055Y-157533200D01*
X111743085Y-157564435D01*
X111743085Y-157564435D01*
G37*
G36*
X114283085Y-157564435D02*
G01*
X114431004Y-157625705D01*
X114431005Y-157625706D01*
X114564130Y-157714657D01*
X114677343Y-157827870D01*
X114677344Y-157827872D01*
X114766295Y-157960996D01*
X114827565Y-158108915D01*
X114858800Y-158265945D01*
X114858800Y-158426055D01*
X114827565Y-158583085D01*
X114766295Y-158731004D01*
X114766294Y-158731005D01*
X114677343Y-158864130D01*
X114564130Y-158977343D01*
X114497115Y-159022121D01*
X114431004Y-159066295D01*
X114283085Y-159127565D01*
X114126055Y-159158800D01*
X113965945Y-159158800D01*
X113808915Y-159127565D01*
X113660996Y-159066295D01*
X113594885Y-159022121D01*
X113527870Y-158977343D01*
X113414657Y-158864130D01*
X113325706Y-158731005D01*
X113325705Y-158731004D01*
X113264435Y-158583085D01*
X113233200Y-158426055D01*
X113233200Y-158265945D01*
X113264435Y-158108915D01*
X113325705Y-157960996D01*
X113414656Y-157827872D01*
X113414657Y-157827870D01*
X113527870Y-157714657D01*
X113660995Y-157625706D01*
X113660996Y-157625705D01*
X113808915Y-157564435D01*
X113965945Y-157533200D01*
X114126055Y-157533200D01*
X114283085Y-157564435D01*
X114283085Y-157564435D01*
G37*
G36*
X92876800Y-157342800D02*
G01*
X91775200Y-157342800D01*
X91775200Y-156141200D01*
X92876800Y-156141200D01*
X92876800Y-157342800D01*
X92876800Y-157342800D01*
G37*
G36*
X107933085Y-155024435D02*
G01*
X108081004Y-155085705D01*
X108081005Y-155085706D01*
X108214130Y-155174657D01*
X108327343Y-155287870D01*
X108327344Y-155287872D01*
X108416295Y-155420996D01*
X108477565Y-155568915D01*
X108508800Y-155725945D01*
X108508800Y-155886055D01*
X108477565Y-156043085D01*
X108416295Y-156191004D01*
X108416294Y-156191005D01*
X108327343Y-156324130D01*
X108214130Y-156437343D01*
X108190569Y-156453086D01*
X108081004Y-156526295D01*
X107933085Y-156587565D01*
X107776055Y-156618800D01*
X107615945Y-156618800D01*
X107458915Y-156587565D01*
X107310996Y-156526295D01*
X107201431Y-156453086D01*
X107177870Y-156437343D01*
X107064657Y-156324130D01*
X106975706Y-156191005D01*
X106975705Y-156191004D01*
X106914435Y-156043085D01*
X106883200Y-155886055D01*
X106883200Y-155725945D01*
X106914435Y-155568915D01*
X106975705Y-155420996D01*
X107064656Y-155287872D01*
X107064657Y-155287870D01*
X107177870Y-155174657D01*
X107310995Y-155085706D01*
X107310996Y-155085705D01*
X107458915Y-155024435D01*
X107615945Y-154993200D01*
X107776055Y-154993200D01*
X107933085Y-155024435D01*
X107933085Y-155024435D01*
G37*
G36*
X113013085Y-155024435D02*
G01*
X113161004Y-155085705D01*
X113161005Y-155085706D01*
X113294130Y-155174657D01*
X113407343Y-155287870D01*
X113407344Y-155287872D01*
X113496295Y-155420996D01*
X113557565Y-155568915D01*
X113588800Y-155725945D01*
X113588800Y-155886055D01*
X113557565Y-156043085D01*
X113496295Y-156191004D01*
X113496294Y-156191005D01*
X113407343Y-156324130D01*
X113294130Y-156437343D01*
X113270569Y-156453086D01*
X113161004Y-156526295D01*
X113013085Y-156587565D01*
X112856055Y-156618800D01*
X112695945Y-156618800D01*
X112538915Y-156587565D01*
X112390996Y-156526295D01*
X112281431Y-156453086D01*
X112257870Y-156437343D01*
X112144657Y-156324130D01*
X112055706Y-156191005D01*
X112055705Y-156191004D01*
X111994435Y-156043085D01*
X111963200Y-155886055D01*
X111963200Y-155725945D01*
X111994435Y-155568915D01*
X112055705Y-155420996D01*
X112144656Y-155287872D01*
X112144657Y-155287870D01*
X112257870Y-155174657D01*
X112390995Y-155085706D01*
X112390996Y-155085705D01*
X112538915Y-155024435D01*
X112695945Y-154993200D01*
X112856055Y-154993200D01*
X113013085Y-155024435D01*
X113013085Y-155024435D01*
G37*
G36*
X110473085Y-155024435D02*
G01*
X110621004Y-155085705D01*
X110621005Y-155085706D01*
X110754130Y-155174657D01*
X110867343Y-155287870D01*
X110867344Y-155287872D01*
X110956295Y-155420996D01*
X111017565Y-155568915D01*
X111048800Y-155725945D01*
X111048800Y-155886055D01*
X111017565Y-156043085D01*
X110956295Y-156191004D01*
X110956294Y-156191005D01*
X110867343Y-156324130D01*
X110754130Y-156437343D01*
X110730569Y-156453086D01*
X110621004Y-156526295D01*
X110473085Y-156587565D01*
X110316055Y-156618800D01*
X110155945Y-156618800D01*
X109998915Y-156587565D01*
X109850996Y-156526295D01*
X109741431Y-156453086D01*
X109717870Y-156437343D01*
X109604657Y-156324130D01*
X109515706Y-156191005D01*
X109515705Y-156191004D01*
X109454435Y-156043085D01*
X109423200Y-155886055D01*
X109423200Y-155725945D01*
X109454435Y-155568915D01*
X109515705Y-155420996D01*
X109604656Y-155287872D01*
X109604657Y-155287870D01*
X109717870Y-155174657D01*
X109850995Y-155085706D01*
X109850996Y-155085705D01*
X109998915Y-155024435D01*
X110155945Y-154993200D01*
X110316055Y-154993200D01*
X110473085Y-155024435D01*
X110473085Y-155024435D01*
G37*
G36*
X102853085Y-155024435D02*
G01*
X103001004Y-155085705D01*
X103001005Y-155085706D01*
X103134130Y-155174657D01*
X103247343Y-155287870D01*
X103247344Y-155287872D01*
X103336295Y-155420996D01*
X103397565Y-155568915D01*
X103428800Y-155725945D01*
X103428800Y-155886055D01*
X103397565Y-156043085D01*
X103336295Y-156191004D01*
X103336294Y-156191005D01*
X103247343Y-156324130D01*
X103134130Y-156437343D01*
X103110569Y-156453086D01*
X103001004Y-156526295D01*
X102853085Y-156587565D01*
X102696055Y-156618800D01*
X102535945Y-156618800D01*
X102378915Y-156587565D01*
X102230996Y-156526295D01*
X102121431Y-156453086D01*
X102097870Y-156437343D01*
X101984657Y-156324130D01*
X101895706Y-156191005D01*
X101895705Y-156191004D01*
X101834435Y-156043085D01*
X101803200Y-155886055D01*
X101803200Y-155725945D01*
X101834435Y-155568915D01*
X101895705Y-155420996D01*
X101984656Y-155287872D01*
X101984657Y-155287870D01*
X102097870Y-155174657D01*
X102230995Y-155085706D01*
X102230996Y-155085705D01*
X102378915Y-155024435D01*
X102535945Y-154993200D01*
X102696055Y-154993200D01*
X102853085Y-155024435D01*
X102853085Y-155024435D01*
G37*
G36*
X105393085Y-155024435D02*
G01*
X105541004Y-155085705D01*
X105541005Y-155085706D01*
X105674130Y-155174657D01*
X105787343Y-155287870D01*
X105787344Y-155287872D01*
X105876295Y-155420996D01*
X105937565Y-155568915D01*
X105968800Y-155725945D01*
X105968800Y-155886055D01*
X105937565Y-156043085D01*
X105876295Y-156191004D01*
X105876294Y-156191005D01*
X105787343Y-156324130D01*
X105674130Y-156437343D01*
X105650569Y-156453086D01*
X105541004Y-156526295D01*
X105393085Y-156587565D01*
X105236055Y-156618800D01*
X105075945Y-156618800D01*
X104918915Y-156587565D01*
X104770996Y-156526295D01*
X104661431Y-156453086D01*
X104637870Y-156437343D01*
X104524657Y-156324130D01*
X104435706Y-156191005D01*
X104435705Y-156191004D01*
X104374435Y-156043085D01*
X104343200Y-155886055D01*
X104343200Y-155725945D01*
X104374435Y-155568915D01*
X104435705Y-155420996D01*
X104524656Y-155287872D01*
X104524657Y-155287870D01*
X104637870Y-155174657D01*
X104770995Y-155085706D01*
X104770996Y-155085705D01*
X104918915Y-155024435D01*
X105075945Y-154993200D01*
X105236055Y-154993200D01*
X105393085Y-155024435D01*
X105393085Y-155024435D01*
G37*
G36*
X93855771Y-153995909D02*
G01*
X93903579Y-154000617D01*
X94026255Y-154037831D01*
X94026258Y-154037832D01*
X94139313Y-154098261D01*
X94238412Y-154179588D01*
X94319739Y-154278687D01*
X94380168Y-154391742D01*
X94380169Y-154391745D01*
X94417383Y-154514421D01*
X94429948Y-154642000D01*
X94417383Y-154769579D01*
X94380169Y-154892255D01*
X94380168Y-154892258D01*
X94319739Y-155005313D01*
X94238412Y-155104412D01*
X94139313Y-155185739D01*
X94026258Y-155246168D01*
X94026255Y-155246169D01*
X93903579Y-155283383D01*
X93858020Y-155287870D01*
X93807965Y-155292800D01*
X93144035Y-155292800D01*
X93093980Y-155287870D01*
X93048421Y-155283383D01*
X92925745Y-155246169D01*
X92925742Y-155246168D01*
X92812687Y-155185739D01*
X92713588Y-155104412D01*
X92632261Y-155005313D01*
X92571832Y-154892258D01*
X92571831Y-154892255D01*
X92534617Y-154769579D01*
X92522052Y-154642000D01*
X92534617Y-154514421D01*
X92571831Y-154391745D01*
X92571832Y-154391742D01*
X92632261Y-154278687D01*
X92713588Y-154179588D01*
X92812687Y-154098261D01*
X92925742Y-154037832D01*
X92925745Y-154037831D01*
X93048421Y-154000617D01*
X93096229Y-153995909D01*
X93144035Y-153991200D01*
X93807965Y-153991200D01*
X93855771Y-153995909D01*
X93855771Y-153995909D01*
G37*
G36*
X97325771Y-153995909D02*
G01*
X97373579Y-154000617D01*
X97496255Y-154037831D01*
X97496258Y-154037832D01*
X97609313Y-154098261D01*
X97708412Y-154179588D01*
X97789739Y-154278687D01*
X97850168Y-154391742D01*
X97850169Y-154391745D01*
X97887383Y-154514421D01*
X97899948Y-154642000D01*
X97887383Y-154769579D01*
X97850169Y-154892255D01*
X97850168Y-154892258D01*
X97789739Y-155005313D01*
X97708412Y-155104412D01*
X97609313Y-155185739D01*
X97496258Y-155246168D01*
X97496255Y-155246169D01*
X97373579Y-155283383D01*
X97328020Y-155287870D01*
X97277965Y-155292800D01*
X96614035Y-155292800D01*
X96563980Y-155287870D01*
X96518421Y-155283383D01*
X96395745Y-155246169D01*
X96395742Y-155246168D01*
X96282687Y-155185739D01*
X96183588Y-155104412D01*
X96102261Y-155005313D01*
X96041832Y-154892258D01*
X96041831Y-154892255D01*
X96004617Y-154769579D01*
X95992052Y-154642000D01*
X96004617Y-154514421D01*
X96041831Y-154391745D01*
X96041832Y-154391742D01*
X96102261Y-154278687D01*
X96183588Y-154179588D01*
X96282687Y-154098261D01*
X96395742Y-154037832D01*
X96395745Y-154037831D01*
X96518421Y-154000617D01*
X96566229Y-153995909D01*
X96614035Y-153991200D01*
X97277965Y-153991200D01*
X97325771Y-153995909D01*
X97325771Y-153995909D01*
G37*
G36*
X100020800Y-153462800D02*
G01*
X99369200Y-153462800D01*
X99369200Y-152861200D01*
X100020800Y-152861200D01*
X100020800Y-153462800D01*
X100020800Y-153462800D01*
G37*
G36*
X99004800Y-153462800D02*
G01*
X98353200Y-153462800D01*
X98353200Y-152861200D01*
X99004800Y-152861200D01*
X99004800Y-153462800D01*
X99004800Y-153462800D01*
G37*
G36*
X102220800Y-153167800D02*
G01*
X100919200Y-153167800D01*
X100919200Y-152516200D01*
X102220800Y-152516200D01*
X102220800Y-153167800D01*
X102220800Y-153167800D01*
G37*
G36*
X106711800Y-152553800D02*
G01*
X104945799Y-152553800D01*
X104921413Y-152556202D01*
X104897964Y-152563315D01*
X104876353Y-152574866D01*
X104857411Y-152590411D01*
X104841866Y-152609353D01*
X104830315Y-152630964D01*
X104823202Y-152654413D01*
X104820800Y-152678799D01*
X104820800Y-153167800D01*
X103519200Y-153167800D01*
X103519200Y-152516200D01*
X104885201Y-152516200D01*
X104909587Y-152513798D01*
X104933036Y-152506685D01*
X104954647Y-152495134D01*
X104973589Y-152479589D01*
X104989134Y-152460647D01*
X105000685Y-152439036D01*
X105007798Y-152415587D01*
X105010200Y-152391201D01*
X105010200Y-152342799D01*
X105007798Y-152318413D01*
X105000685Y-152294964D01*
X104989134Y-152273353D01*
X104973589Y-152254411D01*
X104954647Y-152238866D01*
X104933036Y-152227315D01*
X104909587Y-152220202D01*
X104885201Y-152217800D01*
X103519200Y-152217800D01*
X103519200Y-151566200D01*
X104885201Y-151566200D01*
X104909587Y-151563798D01*
X104933036Y-151556685D01*
X104954647Y-151545134D01*
X104973589Y-151529589D01*
X104989134Y-151510647D01*
X105000685Y-151489036D01*
X105007798Y-151465587D01*
X105010200Y-151441201D01*
X105010200Y-151392799D01*
X105007798Y-151368413D01*
X105000685Y-151344964D01*
X104989134Y-151323353D01*
X104973589Y-151304411D01*
X104954647Y-151288866D01*
X104933036Y-151277315D01*
X104909587Y-151270202D01*
X104885201Y-151267800D01*
X103519200Y-151267800D01*
X103519200Y-150616200D01*
X104885201Y-150616200D01*
X104909587Y-150613798D01*
X104933036Y-150606685D01*
X104954647Y-150595134D01*
X104973589Y-150579589D01*
X104989134Y-150560647D01*
X105000685Y-150539036D01*
X105007798Y-150515587D01*
X105010200Y-150491201D01*
X105010200Y-149452200D01*
X106711800Y-149452200D01*
X106711800Y-152553800D01*
X106711800Y-152553800D01*
G37*
G36*
X116401800Y-152850800D02*
G01*
X115500200Y-152850800D01*
X115500200Y-151949200D01*
X116401800Y-151949200D01*
X116401800Y-152850800D01*
X116401800Y-152850800D01*
G37*
G36*
X114877800Y-152850800D02*
G01*
X113976200Y-152850800D01*
X113976200Y-151949200D01*
X114877800Y-151949200D01*
X114877800Y-152850800D01*
X114877800Y-152850800D01*
G37*
G36*
X92784800Y-152665800D02*
G01*
X90683200Y-152665800D01*
X90683200Y-150864200D01*
X92784800Y-150864200D01*
X92784800Y-152665800D01*
X92784800Y-152665800D01*
G37*
G36*
X98983800Y-151434800D02*
G01*
X97909799Y-151434800D01*
X97885413Y-151437202D01*
X97861964Y-151444315D01*
X97840353Y-151455866D01*
X97821411Y-151471411D01*
X97805866Y-151490353D01*
X97794315Y-151511964D01*
X97787202Y-151535413D01*
X97784800Y-151559799D01*
X97784800Y-152665800D01*
X95683200Y-152665800D01*
X95683200Y-150864200D01*
X97741201Y-150864200D01*
X97765587Y-150861798D01*
X97789036Y-150854685D01*
X97810647Y-150843134D01*
X97829589Y-150827589D01*
X97845134Y-150808647D01*
X97856685Y-150787036D01*
X97863798Y-150763587D01*
X97866200Y-150739201D01*
X97866200Y-150317200D01*
X98983800Y-150317200D01*
X98983800Y-151434800D01*
X98983800Y-151434800D01*
G37*
G36*
X109111800Y-151081201D02*
G01*
X109114202Y-151105587D01*
X109121315Y-151129036D01*
X109132866Y-151150647D01*
X109148411Y-151169589D01*
X109167353Y-151185134D01*
X109188964Y-151196685D01*
X109212413Y-151203798D01*
X109236799Y-151206200D01*
X110413800Y-151206200D01*
X110413800Y-152323800D01*
X109236799Y-152323800D01*
X109212413Y-152326202D01*
X109188964Y-152333315D01*
X109167353Y-152344866D01*
X109148411Y-152360411D01*
X109132866Y-152379353D01*
X109121315Y-152400964D01*
X109114202Y-152424413D01*
X109111800Y-152448799D01*
X109111800Y-152553800D01*
X107410200Y-152553800D01*
X107410200Y-149452200D01*
X109111800Y-149452200D01*
X109111800Y-151081201D01*
X109111800Y-151081201D01*
G37*
G36*
X100020800Y-152446800D02*
G01*
X99369200Y-152446800D01*
X99369200Y-151845200D01*
X100020800Y-151845200D01*
X100020800Y-152446800D01*
X100020800Y-152446800D01*
G37*
G36*
X99004800Y-152446800D02*
G01*
X98353200Y-152446800D01*
X98353200Y-151845200D01*
X99004800Y-151845200D01*
X99004800Y-152446800D01*
X99004800Y-152446800D01*
G37*
G36*
X112191800Y-152323800D02*
G01*
X111074200Y-152323800D01*
X111074200Y-151206200D01*
X112191800Y-151206200D01*
X112191800Y-152323800D01*
X112191800Y-152323800D01*
G37*
G36*
X100761800Y-150491201D02*
G01*
X100764202Y-150515587D01*
X100771315Y-150539036D01*
X100782866Y-150560647D01*
X100798411Y-150579589D01*
X100817353Y-150595134D01*
X100838964Y-150606685D01*
X100862413Y-150613798D01*
X100886799Y-150616200D01*
X102220800Y-150616200D01*
X102220800Y-151267800D01*
X100886799Y-151267800D01*
X100862413Y-151270202D01*
X100838964Y-151277315D01*
X100817353Y-151288866D01*
X100798411Y-151304411D01*
X100782866Y-151323353D01*
X100771315Y-151344964D01*
X100764202Y-151368413D01*
X100761800Y-151392799D01*
X100761800Y-151434800D01*
X99644200Y-151434800D01*
X99644200Y-150317200D01*
X100761800Y-150317200D01*
X100761800Y-150491201D01*
X100761800Y-150491201D01*
G37*
G36*
X114877800Y-151326800D02*
G01*
X113976200Y-151326800D01*
X113976200Y-150425200D01*
X114877800Y-150425200D01*
X114877800Y-151326800D01*
X114877800Y-151326800D01*
G37*
G36*
X116401800Y-151326800D02*
G01*
X115500200Y-151326800D01*
X115500200Y-150425200D01*
X116401800Y-150425200D01*
X116401800Y-151326800D01*
X116401800Y-151326800D01*
G37*
G36*
X95292800Y-150229800D02*
G01*
X94191200Y-150229800D01*
X94191200Y-148728200D01*
X95292800Y-148728200D01*
X95292800Y-150229800D01*
X95292800Y-150229800D01*
G37*
G36*
X93390340Y-150229800D02*
G01*
X92288740Y-150229800D01*
X92288740Y-148728200D01*
X93390340Y-148728200D01*
X93390340Y-150229800D01*
X93390340Y-150229800D01*
G37*
G36*
X114223800Y-150037800D02*
G01*
X113106200Y-150037800D01*
X113106200Y-148920200D01*
X114223800Y-148920200D01*
X114223800Y-150037800D01*
X114223800Y-150037800D01*
G37*
G36*
X116001800Y-150037800D02*
G01*
X114884200Y-150037800D01*
X114884200Y-148920200D01*
X116001800Y-148920200D01*
X116001800Y-150037800D01*
X116001800Y-150037800D01*
G37*
G36*
X111655200Y-149755200D02*
G01*
X109832800Y-149755200D01*
X109832800Y-147932800D01*
X111655200Y-147932800D01*
X111655200Y-149755200D01*
X111655200Y-149755200D01*
G37*
G36*
X96718800Y-149652800D02*
G01*
X96067200Y-149652800D01*
X96067200Y-149051200D01*
X96718800Y-149051200D01*
X96718800Y-149652800D01*
X96718800Y-149652800D01*
G37*
G36*
X96718800Y-148636800D02*
G01*
X96067200Y-148636800D01*
X96067200Y-148035200D01*
X96718800Y-148035200D01*
X96718800Y-148636800D01*
X96718800Y-148636800D01*
G37*
G36*
X113863800Y-148382800D02*
G01*
X113212200Y-148382800D01*
X113212200Y-147781200D01*
X113863800Y-147781200D01*
X113863800Y-148382800D01*
X113863800Y-148382800D01*
G37*
G36*
X94337760Y-148020000D02*
G01*
X93236160Y-148020000D01*
X93236160Y-146518400D01*
X94337760Y-146518400D01*
X94337760Y-148020000D01*
X94337760Y-148020000D01*
G37*
G36*
X113863800Y-147366800D02*
G01*
X113212200Y-147366800D01*
X113212200Y-146765200D01*
X113863800Y-146765200D01*
X113863800Y-147366800D01*
X113863800Y-147366800D01*
G37*
G36*
X117053607Y-145164277D02*
G01*
X117114129Y-145176316D01*
X117285162Y-145247160D01*
X117439087Y-145350010D01*
X117569990Y-145480913D01*
X117672840Y-145634838D01*
X117743684Y-145805871D01*
X117779800Y-145987438D01*
X117779800Y-146172562D01*
X117743684Y-146354129D01*
X117672840Y-146525162D01*
X117569990Y-146679087D01*
X117439087Y-146809990D01*
X117285162Y-146912840D01*
X117114129Y-146983684D01*
X117053607Y-146995723D01*
X116932564Y-147019800D01*
X116747436Y-147019800D01*
X116626393Y-146995723D01*
X116565871Y-146983684D01*
X116394838Y-146912840D01*
X116240913Y-146809990D01*
X116110010Y-146679087D01*
X116007160Y-146525162D01*
X115936316Y-146354129D01*
X115900200Y-146172562D01*
X115900200Y-145987438D01*
X115936316Y-145805871D01*
X116007160Y-145634838D01*
X116110010Y-145480913D01*
X116240913Y-145350010D01*
X116394838Y-145247160D01*
X116565871Y-145176316D01*
X116626393Y-145164277D01*
X116747436Y-145140200D01*
X116932564Y-145140200D01*
X117053607Y-145164277D01*
X117053607Y-145164277D01*
G37*
G36*
X91653607Y-145164277D02*
G01*
X91714129Y-145176316D01*
X91885162Y-145247160D01*
X92039087Y-145350010D01*
X92169990Y-145480913D01*
X92272840Y-145634838D01*
X92343684Y-145805871D01*
X92379800Y-145987438D01*
X92379800Y-146172562D01*
X92343684Y-146354129D01*
X92272840Y-146525162D01*
X92169990Y-146679087D01*
X92039087Y-146809990D01*
X91885162Y-146912840D01*
X91714129Y-146983684D01*
X91653607Y-146995723D01*
X91532564Y-147019800D01*
X91347436Y-147019800D01*
X91226393Y-146995723D01*
X91165871Y-146983684D01*
X90994838Y-146912840D01*
X90840913Y-146809990D01*
X90710010Y-146679087D01*
X90607160Y-146525162D01*
X90536316Y-146354129D01*
X90500200Y-146172562D01*
X90500200Y-145987438D01*
X90536316Y-145805871D01*
X90607160Y-145634838D01*
X90710010Y-145480913D01*
X90840913Y-145350010D01*
X90994838Y-145247160D01*
X91165871Y-145176316D01*
X91226393Y-145164277D01*
X91347436Y-145140200D01*
X91532564Y-145140200D01*
X91653607Y-145164277D01*
X91653607Y-145164277D01*
G37*
G36*
X113891800Y-146409800D02*
G01*
X110390200Y-146409800D01*
X110390200Y-144108200D01*
X113891800Y-144108200D01*
X113891800Y-146409800D01*
X113891800Y-146409800D01*
G37*
G36*
X108727800Y-145572800D02*
G01*
X105426200Y-145572800D01*
X105426200Y-142971200D01*
X108727800Y-142971200D01*
X108727800Y-145572800D01*
X108727800Y-145572800D01*
G37*
G36*
X98027800Y-145572800D02*
G01*
X94726200Y-145572800D01*
X94726200Y-142971200D01*
X98027800Y-142971200D01*
X98027800Y-145572800D01*
X98027800Y-145572800D01*
G37*
G36*
X91653607Y-142624277D02*
G01*
X91714129Y-142636316D01*
X91885162Y-142707160D01*
X92039087Y-142810010D01*
X92169990Y-142940913D01*
X92272840Y-143094838D01*
X92343684Y-143265871D01*
X92379800Y-143447438D01*
X92379800Y-143632562D01*
X92343684Y-143814129D01*
X92272840Y-143985162D01*
X92169990Y-144139087D01*
X92039087Y-144269990D01*
X91885162Y-144372840D01*
X91714129Y-144443684D01*
X91653607Y-144455723D01*
X91532564Y-144479800D01*
X91347436Y-144479800D01*
X91226393Y-144455723D01*
X91165871Y-144443684D01*
X90994838Y-144372840D01*
X90840913Y-144269990D01*
X90710010Y-144139087D01*
X90607160Y-143985162D01*
X90536316Y-143814129D01*
X90500200Y-143632562D01*
X90500200Y-143447438D01*
X90536316Y-143265871D01*
X90607160Y-143094838D01*
X90710010Y-142940913D01*
X90840913Y-142810010D01*
X90994838Y-142707160D01*
X91165871Y-142636316D01*
X91226393Y-142624277D01*
X91347436Y-142600200D01*
X91532564Y-142600200D01*
X91653607Y-142624277D01*
X91653607Y-142624277D01*
G37*
G36*
X117053607Y-142624277D02*
G01*
X117114129Y-142636316D01*
X117285162Y-142707160D01*
X117439087Y-142810010D01*
X117569990Y-142940913D01*
X117672840Y-143094838D01*
X117743684Y-143265871D01*
X117779800Y-143447438D01*
X117779800Y-143632562D01*
X117743684Y-143814129D01*
X117672840Y-143985162D01*
X117569990Y-144139087D01*
X117439087Y-144269990D01*
X117285162Y-144372840D01*
X117114129Y-144443684D01*
X117053607Y-144455723D01*
X116932564Y-144479800D01*
X116747436Y-144479800D01*
X116626393Y-144455723D01*
X116565871Y-144443684D01*
X116394838Y-144372840D01*
X116240913Y-144269990D01*
X116110010Y-144139087D01*
X116007160Y-143985162D01*
X115936316Y-143814129D01*
X115900200Y-143632562D01*
X115900200Y-143447438D01*
X115936316Y-143265871D01*
X116007160Y-143094838D01*
X116110010Y-142940913D01*
X116240913Y-142810010D01*
X116394838Y-142707160D01*
X116565871Y-142636316D01*
X116626393Y-142624277D01*
X116747436Y-142600200D01*
X116932564Y-142600200D01*
X117053607Y-142624277D01*
X117053607Y-142624277D01*
G37*
G36*
X117053607Y-140084277D02*
G01*
X117114129Y-140096316D01*
X117285162Y-140167160D01*
X117298691Y-140176200D01*
X117439087Y-140270010D01*
X117569990Y-140400913D01*
X117672841Y-140554840D01*
X117743684Y-140725872D01*
X117779800Y-140907436D01*
X117779800Y-141092564D01*
X117774427Y-141119575D01*
X117743684Y-141274129D01*
X117672840Y-141445162D01*
X117569990Y-141599087D01*
X117439087Y-141729990D01*
X117285162Y-141832840D01*
X117114129Y-141903684D01*
X117053607Y-141915723D01*
X116932564Y-141939800D01*
X116747436Y-141939800D01*
X116626393Y-141915723D01*
X116565871Y-141903684D01*
X116394838Y-141832840D01*
X116240913Y-141729990D01*
X116110010Y-141599087D01*
X116007160Y-141445162D01*
X115936316Y-141274129D01*
X115905573Y-141119575D01*
X115900200Y-141092564D01*
X115900200Y-140907436D01*
X115936316Y-140725872D01*
X116007159Y-140554840D01*
X116110010Y-140400913D01*
X116240913Y-140270010D01*
X116381309Y-140176200D01*
X116394838Y-140167160D01*
X116565871Y-140096316D01*
X116626393Y-140084277D01*
X116747436Y-140060200D01*
X116932564Y-140060200D01*
X117053607Y-140084277D01*
X117053607Y-140084277D01*
G37*
G36*
X91653607Y-140084277D02*
G01*
X91714129Y-140096316D01*
X91885162Y-140167160D01*
X91898691Y-140176200D01*
X92039087Y-140270010D01*
X92169990Y-140400913D01*
X92272841Y-140554840D01*
X92343684Y-140725871D01*
X92358604Y-140800879D01*
X92365717Y-140824327D01*
X92377268Y-140845938D01*
X92392814Y-140864880D01*
X92411756Y-140880425D01*
X92433366Y-140891976D01*
X92456815Y-140899089D01*
X92481201Y-140901491D01*
X92505588Y-140899089D01*
X92529036Y-140891976D01*
X92550647Y-140880425D01*
X92569589Y-140864879D01*
X92585134Y-140845937D01*
X92596685Y-140824327D01*
X92603798Y-140800878D01*
X92606200Y-140776492D01*
X92606200Y-140176200D01*
X93707800Y-140176200D01*
X93707800Y-141677800D01*
X92606200Y-141677800D01*
X92606200Y-141223508D01*
X92603798Y-141199122D01*
X92596685Y-141175673D01*
X92585134Y-141154062D01*
X92569589Y-141135120D01*
X92550647Y-141119575D01*
X92529036Y-141108024D01*
X92505587Y-141100911D01*
X92481201Y-141098509D01*
X92456815Y-141100911D01*
X92433366Y-141108024D01*
X92411755Y-141119575D01*
X92392813Y-141135120D01*
X92377268Y-141154062D01*
X92365717Y-141175673D01*
X92358604Y-141199121D01*
X92343684Y-141274129D01*
X92272840Y-141445162D01*
X92169990Y-141599087D01*
X92039087Y-141729990D01*
X91885162Y-141832840D01*
X91714129Y-141903684D01*
X91653607Y-141915723D01*
X91532564Y-141939800D01*
X91347436Y-141939800D01*
X91226393Y-141915723D01*
X91165871Y-141903684D01*
X90994838Y-141832840D01*
X90840913Y-141729990D01*
X90710010Y-141599087D01*
X90607160Y-141445162D01*
X90536316Y-141274129D01*
X90505573Y-141119575D01*
X90500200Y-141092564D01*
X90500200Y-140907436D01*
X90536316Y-140725872D01*
X90607159Y-140554840D01*
X90710010Y-140400913D01*
X90840913Y-140270010D01*
X90981309Y-140176200D01*
X90994838Y-140167160D01*
X91165871Y-140096316D01*
X91226393Y-140084277D01*
X91347436Y-140060200D01*
X91532564Y-140060200D01*
X91653607Y-140084277D01*
X91653607Y-140084277D01*
G37*
G36*
X95607800Y-141677800D02*
G01*
X94506200Y-141677800D01*
X94506200Y-140176200D01*
X95607800Y-140176200D01*
X95607800Y-141677800D01*
X95607800Y-141677800D01*
G37*
G36*
X108529800Y-141270800D02*
G01*
X107878200Y-141270800D01*
X107878200Y-140669200D01*
X108529800Y-140669200D01*
X108529800Y-141270800D01*
X108529800Y-141270800D01*
G37*
G36*
X108529800Y-140254800D02*
G01*
X107878200Y-140254800D01*
X107878200Y-139653200D01*
X108529800Y-139653200D01*
X108529800Y-140254800D01*
X108529800Y-140254800D01*
G37*
G36*
X96718800Y-140000800D02*
G01*
X96067200Y-140000800D01*
X96067200Y-139399200D01*
X96718800Y-139399200D01*
X96718800Y-140000800D01*
X96718800Y-140000800D01*
G37*
G36*
X113891800Y-139609800D02*
G01*
X110390200Y-139609800D01*
X110390200Y-137308200D01*
X113891800Y-137308200D01*
X113891800Y-139609800D01*
X113891800Y-139609800D01*
G37*
G36*
X96292800Y-137805800D02*
G01*
X94782799Y-137805800D01*
X94758413Y-137808202D01*
X94734964Y-137815315D01*
X94713353Y-137826866D01*
X94694411Y-137842411D01*
X94678866Y-137861353D01*
X94667315Y-137882964D01*
X94660202Y-137906413D01*
X94657800Y-137930799D01*
X94657800Y-139477800D01*
X93556200Y-139477800D01*
X93556200Y-137930799D01*
X93553798Y-137906413D01*
X93546685Y-137882964D01*
X93535134Y-137861353D01*
X93519589Y-137842411D01*
X93500647Y-137826866D01*
X93479036Y-137815315D01*
X93455587Y-137808202D01*
X93431201Y-137805800D01*
X93191200Y-137805800D01*
X93191200Y-136204200D01*
X96292800Y-136204200D01*
X96292800Y-137805800D01*
X96292800Y-137805800D01*
G37*
G36*
X91653607Y-137544277D02*
G01*
X91714129Y-137556316D01*
X91885162Y-137627160D01*
X92039087Y-137730010D01*
X92169990Y-137860913D01*
X92272840Y-138014838D01*
X92343684Y-138185871D01*
X92379800Y-138367438D01*
X92379800Y-138552562D01*
X92343684Y-138734129D01*
X92272840Y-138905162D01*
X92169990Y-139059087D01*
X92039087Y-139189990D01*
X91885162Y-139292840D01*
X91714129Y-139363684D01*
X91653607Y-139375723D01*
X91532564Y-139399800D01*
X91347436Y-139399800D01*
X91226393Y-139375723D01*
X91165871Y-139363684D01*
X90994838Y-139292840D01*
X90840913Y-139189990D01*
X90710010Y-139059087D01*
X90607160Y-138905162D01*
X90536316Y-138734129D01*
X90500200Y-138552562D01*
X90500200Y-138367438D01*
X90536316Y-138185871D01*
X90607160Y-138014838D01*
X90710010Y-137860913D01*
X90840913Y-137730010D01*
X90994838Y-137627160D01*
X91165871Y-137556316D01*
X91226393Y-137544277D01*
X91347436Y-137520200D01*
X91532564Y-137520200D01*
X91653607Y-137544277D01*
X91653607Y-137544277D01*
G37*
G36*
X117053607Y-137544277D02*
G01*
X117114129Y-137556316D01*
X117285162Y-137627160D01*
X117439087Y-137730010D01*
X117569990Y-137860913D01*
X117672840Y-138014838D01*
X117743684Y-138185871D01*
X117779800Y-138367438D01*
X117779800Y-138552562D01*
X117743684Y-138734129D01*
X117672840Y-138905162D01*
X117569990Y-139059087D01*
X117439087Y-139189990D01*
X117285162Y-139292840D01*
X117114129Y-139363684D01*
X117053607Y-139375723D01*
X116932564Y-139399800D01*
X116747436Y-139399800D01*
X116626393Y-139375723D01*
X116565871Y-139363684D01*
X116394838Y-139292840D01*
X116240913Y-139189990D01*
X116110010Y-139059087D01*
X116007160Y-138905162D01*
X115936316Y-138734129D01*
X115900200Y-138552562D01*
X115900200Y-138367438D01*
X115936316Y-138185871D01*
X116007160Y-138014838D01*
X116110010Y-137860913D01*
X116240913Y-137730010D01*
X116394838Y-137627160D01*
X116565871Y-137556316D01*
X116626393Y-137544277D01*
X116747436Y-137520200D01*
X116932564Y-137520200D01*
X117053607Y-137544277D01*
X117053607Y-137544277D01*
G37*
G36*
X96718800Y-138984800D02*
G01*
X96067200Y-138984800D01*
X96067200Y-138383200D01*
X96718800Y-138383200D01*
X96718800Y-138984800D01*
X96718800Y-138984800D01*
G37*
G36*
X108198800Y-138568800D02*
G01*
X106097200Y-138568800D01*
X106097200Y-136767200D01*
X108198800Y-136767200D01*
X108198800Y-138568800D01*
X108198800Y-138568800D01*
G37*
G36*
X101523800Y-136321800D02*
G01*
X101013799Y-136321800D01*
X100989413Y-136324202D01*
X100965964Y-136331315D01*
X100944353Y-136342866D01*
X100925411Y-136358411D01*
X100909866Y-136377353D01*
X100898315Y-136398964D01*
X100891202Y-136422413D01*
X100888800Y-136446799D01*
X100888800Y-136642201D01*
X100891202Y-136666587D01*
X100898315Y-136690036D01*
X100909866Y-136711647D01*
X100925411Y-136730589D01*
X100944353Y-136746134D01*
X100965964Y-136757685D01*
X100989413Y-136764798D01*
X101013799Y-136767200D01*
X103198800Y-136767200D01*
X103198800Y-138568800D01*
X101097200Y-138568800D01*
X101097200Y-137970799D01*
X101094798Y-137946413D01*
X101087685Y-137922964D01*
X101076134Y-137901353D01*
X101060589Y-137882411D01*
X101041647Y-137866866D01*
X101020036Y-137855315D01*
X100996587Y-137848202D01*
X100972201Y-137845800D01*
X99263200Y-137845800D01*
X99263200Y-136474200D01*
X99519201Y-136474200D01*
X99543587Y-136471798D01*
X99567036Y-136464685D01*
X99588647Y-136453134D01*
X99607589Y-136437589D01*
X99623134Y-136418647D01*
X99634685Y-136397036D01*
X99641798Y-136373587D01*
X99644200Y-136349201D01*
X99644200Y-134696200D01*
X101523800Y-134696200D01*
X101523800Y-136321800D01*
X101523800Y-136321800D01*
G37*
G36*
X98856800Y-137845800D02*
G01*
X97231200Y-137845800D01*
X97231200Y-136474200D01*
X98856800Y-136474200D01*
X98856800Y-137845800D01*
X98856800Y-137845800D01*
G37*
G36*
X112572800Y-133706201D02*
G01*
X112574130Y-133719699D01*
X112569134Y-133710353D01*
X112553589Y-133691411D01*
X112534647Y-133675866D01*
X112513036Y-133664315D01*
X112489587Y-133657202D01*
X112465201Y-133654800D01*
X111816799Y-133654800D01*
X111792413Y-133657202D01*
X111768964Y-133664315D01*
X111747353Y-133675866D01*
X111728411Y-133691411D01*
X111712866Y-133710353D01*
X111701315Y-133731964D01*
X111694202Y-133755413D01*
X111691800Y-133779799D01*
X111691800Y-136932800D01*
X110090200Y-136932800D01*
X110090200Y-133831200D01*
X110568201Y-133831200D01*
X110592587Y-133828798D01*
X110616036Y-133821685D01*
X110637647Y-133810134D01*
X110656589Y-133794589D01*
X110672134Y-133775647D01*
X110683685Y-133754036D01*
X110690798Y-133730587D01*
X110693200Y-133706201D01*
X110693200Y-132029200D01*
X112572800Y-132029200D01*
X112572800Y-133706201D01*
X112572800Y-133706201D01*
G37*
G36*
X112593866Y-133775647D02*
G01*
X112609411Y-133794589D01*
X112628353Y-133810134D01*
X112649964Y-133821685D01*
X112673413Y-133828798D01*
X112697799Y-133831200D01*
X114191800Y-133831200D01*
X114191800Y-136932800D01*
X112590200Y-136932800D01*
X112590200Y-133779799D01*
X112588870Y-133766301D01*
X112593866Y-133775647D01*
X112593866Y-133775647D01*
G37*
G36*
X117053607Y-135004277D02*
G01*
X117114129Y-135016316D01*
X117285162Y-135087160D01*
X117439087Y-135190010D01*
X117569990Y-135320913D01*
X117672841Y-135474840D01*
X117743684Y-135645872D01*
X117779800Y-135827436D01*
X117779800Y-136012564D01*
X117755723Y-136133607D01*
X117743684Y-136194129D01*
X117672840Y-136365162D01*
X117569990Y-136519087D01*
X117439087Y-136649990D01*
X117285162Y-136752840D01*
X117114129Y-136823684D01*
X117053607Y-136835723D01*
X116932564Y-136859800D01*
X116747436Y-136859800D01*
X116626393Y-136835723D01*
X116565871Y-136823684D01*
X116394838Y-136752840D01*
X116240913Y-136649990D01*
X116110010Y-136519087D01*
X116007160Y-136365162D01*
X115936316Y-136194129D01*
X115924277Y-136133607D01*
X115900200Y-136012564D01*
X115900200Y-135827436D01*
X115936316Y-135645872D01*
X116007159Y-135474840D01*
X116110010Y-135320913D01*
X116240913Y-135190010D01*
X116394838Y-135087160D01*
X116565871Y-135016316D01*
X116626393Y-135004277D01*
X116747436Y-134980200D01*
X116932564Y-134980200D01*
X117053607Y-135004277D01*
X117053607Y-135004277D01*
G37*
G36*
X91653607Y-135004277D02*
G01*
X91714129Y-135016316D01*
X91885162Y-135087160D01*
X92039087Y-135190010D01*
X92169990Y-135320913D01*
X92272841Y-135474840D01*
X92343684Y-135645872D01*
X92379800Y-135827436D01*
X92379800Y-136012564D01*
X92355723Y-136133607D01*
X92343684Y-136194129D01*
X92272840Y-136365162D01*
X92169990Y-136519087D01*
X92039087Y-136649990D01*
X91885162Y-136752840D01*
X91714129Y-136823684D01*
X91653607Y-136835723D01*
X91532564Y-136859800D01*
X91347436Y-136859800D01*
X91226393Y-136835723D01*
X91165871Y-136823684D01*
X90994838Y-136752840D01*
X90840913Y-136649990D01*
X90710010Y-136519087D01*
X90607160Y-136365162D01*
X90536316Y-136194129D01*
X90524277Y-136133607D01*
X90500200Y-136012564D01*
X90500200Y-135827436D01*
X90536316Y-135645872D01*
X90607159Y-135474840D01*
X90710010Y-135320913D01*
X90840913Y-135190010D01*
X90994838Y-135087160D01*
X91165871Y-135016316D01*
X91226393Y-135004277D01*
X91347436Y-134980200D01*
X91532564Y-134980200D01*
X91653607Y-135004277D01*
X91653607Y-135004277D01*
G37*
G36*
X103047800Y-136067800D02*
G01*
X101930200Y-136067800D01*
X101930200Y-134950200D01*
X103047800Y-134950200D01*
X103047800Y-136067800D01*
X103047800Y-136067800D01*
G37*
G36*
X105455340Y-135965160D02*
G01*
X104353740Y-135965160D01*
X104353740Y-134463560D01*
X105455340Y-134463560D01*
X105455340Y-135965160D01*
X105455340Y-135965160D01*
G37*
G36*
X99237800Y-135686800D02*
G01*
X97358200Y-135686800D01*
X97358200Y-134061200D01*
X99237800Y-134061200D01*
X99237800Y-135686800D01*
X99237800Y-135686800D01*
G37*
G36*
X117053607Y-132464277D02*
G01*
X117114129Y-132476316D01*
X117285162Y-132547160D01*
X117439087Y-132650010D01*
X117569990Y-132780913D01*
X117672841Y-132934840D01*
X117743684Y-133105872D01*
X117779800Y-133287436D01*
X117779800Y-133472564D01*
X117755723Y-133593607D01*
X117743684Y-133654129D01*
X117672840Y-133825162D01*
X117569990Y-133979087D01*
X117439087Y-134109990D01*
X117285162Y-134212840D01*
X117114129Y-134283684D01*
X117053607Y-134295723D01*
X116932564Y-134319800D01*
X116747436Y-134319800D01*
X116626393Y-134295723D01*
X116565871Y-134283684D01*
X116394838Y-134212840D01*
X116240913Y-134109990D01*
X116110010Y-133979087D01*
X116007160Y-133825162D01*
X115936316Y-133654129D01*
X115924277Y-133593607D01*
X115900200Y-133472564D01*
X115900200Y-133287436D01*
X115936316Y-133105872D01*
X116007159Y-132934840D01*
X116110010Y-132780913D01*
X116240913Y-132650010D01*
X116394838Y-132547160D01*
X116565871Y-132476316D01*
X116626393Y-132464277D01*
X116747436Y-132440200D01*
X116932564Y-132440200D01*
X117053607Y-132464277D01*
X117053607Y-132464277D01*
G37*
G36*
X91653607Y-132464277D02*
G01*
X91714129Y-132476316D01*
X91885162Y-132547160D01*
X92039087Y-132650010D01*
X92169990Y-132780913D01*
X92272841Y-132934840D01*
X92343684Y-133105872D01*
X92379800Y-133287436D01*
X92379800Y-133472564D01*
X92355723Y-133593607D01*
X92343684Y-133654129D01*
X92272840Y-133825162D01*
X92169990Y-133979087D01*
X92039087Y-134109990D01*
X91885162Y-134212840D01*
X91714129Y-134283684D01*
X91653607Y-134295723D01*
X91532564Y-134319800D01*
X91347436Y-134319800D01*
X91226393Y-134295723D01*
X91165871Y-134283684D01*
X90994838Y-134212840D01*
X90840913Y-134109990D01*
X90710010Y-133979087D01*
X90607160Y-133825162D01*
X90536316Y-133654129D01*
X90524277Y-133593607D01*
X90500200Y-133472564D01*
X90500200Y-133287436D01*
X90536316Y-133105872D01*
X90607159Y-132934840D01*
X90710010Y-132780913D01*
X90840913Y-132650010D01*
X90994838Y-132547160D01*
X91165871Y-132476316D01*
X91226393Y-132464277D01*
X91347436Y-132440200D01*
X91532564Y-132440200D01*
X91653607Y-132464277D01*
X91653607Y-132464277D01*
G37*
G36*
X96292800Y-134305800D02*
G01*
X93191200Y-134305800D01*
X93191200Y-132704200D01*
X96292800Y-132704200D01*
X96292800Y-134305800D01*
X96292800Y-134305800D01*
G37*
G36*
X103047800Y-134289800D02*
G01*
X101930200Y-134289800D01*
X101930200Y-133172200D01*
X103047800Y-133172200D01*
X103047800Y-134289800D01*
X103047800Y-134289800D01*
G37*
G36*
X104500300Y-133755360D02*
G01*
X103398700Y-133755360D01*
X103398700Y-132253760D01*
X104500300Y-132253760D01*
X104500300Y-133755360D01*
X104500300Y-133755360D01*
G37*
G36*
X106402760Y-133755360D02*
G01*
X105301160Y-133755360D01*
X105301160Y-132253760D01*
X106402760Y-132253760D01*
X106402760Y-133755360D01*
X106402760Y-133755360D01*
G37*
G36*
X101523800Y-133527800D02*
G01*
X99644200Y-133527800D01*
X99644200Y-131902200D01*
X101523800Y-131902200D01*
X101523800Y-133527800D01*
X101523800Y-133527800D01*
G37*
G36*
X110416799Y-132895799D02*
G01*
X107515201Y-132895799D01*
X107515201Y-129994201D01*
X110416799Y-129994201D01*
X110416799Y-132895799D01*
X110416799Y-132895799D01*
G37*
G36*
X99237800Y-132892800D02*
G01*
X97358200Y-132892800D01*
X97358200Y-131267200D01*
X99237800Y-131267200D01*
X99237800Y-132892800D01*
X99237800Y-132892800D01*
G37*
G36*
X91653607Y-129924277D02*
G01*
X91714129Y-129936316D01*
X91885162Y-130007160D01*
X92039087Y-130110010D01*
X92169990Y-130240913D01*
X92272840Y-130394838D01*
X92343684Y-130565871D01*
X92379800Y-130747438D01*
X92379800Y-130932562D01*
X92343684Y-131114129D01*
X92272840Y-131285162D01*
X92169990Y-131439087D01*
X92039087Y-131569990D01*
X91885162Y-131672840D01*
X91714129Y-131743684D01*
X91653607Y-131755723D01*
X91532564Y-131779800D01*
X91347436Y-131779800D01*
X91226393Y-131755723D01*
X91165871Y-131743684D01*
X90994838Y-131672840D01*
X90840913Y-131569990D01*
X90710010Y-131439087D01*
X90607160Y-131285162D01*
X90536316Y-131114129D01*
X90500200Y-130932562D01*
X90500200Y-130747438D01*
X90536316Y-130565871D01*
X90607160Y-130394838D01*
X90710010Y-130240913D01*
X90840913Y-130110010D01*
X90994838Y-130007160D01*
X91165871Y-129936316D01*
X91226393Y-129924277D01*
X91347436Y-129900200D01*
X91532564Y-129900200D01*
X91653607Y-129924277D01*
X91653607Y-129924277D01*
G37*
G36*
X117053607Y-129924277D02*
G01*
X117114129Y-129936316D01*
X117285162Y-130007160D01*
X117439087Y-130110010D01*
X117569990Y-130240913D01*
X117672840Y-130394838D01*
X117743684Y-130565871D01*
X117779800Y-130747438D01*
X117779800Y-130932562D01*
X117743684Y-131114129D01*
X117672840Y-131285162D01*
X117569990Y-131439087D01*
X117439087Y-131569990D01*
X117285162Y-131672840D01*
X117114129Y-131743684D01*
X117053607Y-131755723D01*
X116932564Y-131779800D01*
X116747436Y-131779800D01*
X116626393Y-131755723D01*
X116565871Y-131743684D01*
X116394838Y-131672840D01*
X116240913Y-131569990D01*
X116110010Y-131439087D01*
X116007160Y-131285162D01*
X115936316Y-131114129D01*
X115900200Y-130932562D01*
X115900200Y-130747438D01*
X115936316Y-130565871D01*
X116007160Y-130394838D01*
X116110010Y-130240913D01*
X116240913Y-130110010D01*
X116394838Y-130007160D01*
X116565871Y-129936316D01*
X116626393Y-129924277D01*
X116747436Y-129900200D01*
X116932564Y-129900200D01*
X117053607Y-129924277D01*
X117053607Y-129924277D01*
G37*
G36*
X112572800Y-130860800D02*
G01*
X110693200Y-130860800D01*
X110693200Y-129235200D01*
X112572800Y-129235200D01*
X112572800Y-130860800D01*
X112572800Y-130860800D01*
G37*
G36*
X107230800Y-129633800D02*
G01*
X106129200Y-129633800D01*
X106129200Y-125282200D01*
X107230800Y-125282200D01*
X107230800Y-129633800D01*
X107230800Y-129633800D01*
G37*
G36*
X99610800Y-129633800D02*
G01*
X98509200Y-129633800D01*
X98509200Y-125282200D01*
X99610800Y-125282200D01*
X99610800Y-129633800D01*
X99610800Y-129633800D01*
G37*
G36*
X102150800Y-129633800D02*
G01*
X101049200Y-129633800D01*
X101049200Y-125282200D01*
X102150800Y-125282200D01*
X102150800Y-129633800D01*
X102150800Y-129633800D01*
G37*
G36*
X109770800Y-129633800D02*
G01*
X108669200Y-129633800D01*
X108669200Y-125282200D01*
X109770800Y-125282200D01*
X109770800Y-129633800D01*
X109770800Y-129633800D01*
G37*
G36*
X104690800Y-129633800D02*
G01*
X103589200Y-129633800D01*
X103589200Y-125282200D01*
X104690800Y-125282200D01*
X104690800Y-129633800D01*
X104690800Y-129633800D01*
G37*
G36*
X91653607Y-127384277D02*
G01*
X91714129Y-127396316D01*
X91885162Y-127467160D01*
X92039087Y-127570010D01*
X92169990Y-127700913D01*
X92272840Y-127854838D01*
X92343684Y-128025871D01*
X92379800Y-128207438D01*
X92379800Y-128392562D01*
X92343684Y-128574129D01*
X92272840Y-128745162D01*
X92169990Y-128899087D01*
X92039087Y-129029990D01*
X91885162Y-129132840D01*
X91714129Y-129203684D01*
X91653607Y-129215723D01*
X91532564Y-129239800D01*
X91347436Y-129239800D01*
X91226393Y-129215723D01*
X91165871Y-129203684D01*
X90994838Y-129132840D01*
X90840913Y-129029990D01*
X90710010Y-128899087D01*
X90607160Y-128745162D01*
X90536316Y-128574129D01*
X90500200Y-128392562D01*
X90500200Y-128207438D01*
X90536316Y-128025871D01*
X90607160Y-127854838D01*
X90710010Y-127700913D01*
X90840913Y-127570010D01*
X90994838Y-127467160D01*
X91165871Y-127396316D01*
X91226393Y-127384277D01*
X91347436Y-127360200D01*
X91532564Y-127360200D01*
X91653607Y-127384277D01*
X91653607Y-127384277D01*
G37*
G36*
X117053607Y-127384277D02*
G01*
X117114129Y-127396316D01*
X117285162Y-127467160D01*
X117439087Y-127570010D01*
X117569990Y-127700913D01*
X117672840Y-127854838D01*
X117743684Y-128025871D01*
X117779800Y-128207438D01*
X117779800Y-128392562D01*
X117743684Y-128574129D01*
X117672840Y-128745162D01*
X117569990Y-128899087D01*
X117439087Y-129029990D01*
X117285162Y-129132840D01*
X117114129Y-129203684D01*
X117053607Y-129215723D01*
X116932564Y-129239800D01*
X116747436Y-129239800D01*
X116626393Y-129215723D01*
X116565871Y-129203684D01*
X116394838Y-129132840D01*
X116240913Y-129029990D01*
X116110010Y-128899087D01*
X116007160Y-128745162D01*
X115936316Y-128574129D01*
X115900200Y-128392562D01*
X115900200Y-128207438D01*
X115936316Y-128025871D01*
X116007160Y-127854838D01*
X116110010Y-127700913D01*
X116240913Y-127570010D01*
X116394838Y-127467160D01*
X116565871Y-127396316D01*
X116626393Y-127384277D01*
X116747436Y-127360200D01*
X116932564Y-127360200D01*
X117053607Y-127384277D01*
X117053607Y-127384277D01*
G37*
G36*
X91653607Y-124844277D02*
G01*
X91714129Y-124856316D01*
X91885162Y-124927160D01*
X92039087Y-125030010D01*
X92169990Y-125160913D01*
X92272840Y-125314838D01*
X92343684Y-125485871D01*
X92379800Y-125667438D01*
X92379800Y-125852562D01*
X92343684Y-126034129D01*
X92272840Y-126205162D01*
X92169990Y-126359087D01*
X92039087Y-126489990D01*
X91885162Y-126592840D01*
X91714129Y-126663684D01*
X91653607Y-126675723D01*
X91532564Y-126699800D01*
X91347436Y-126699800D01*
X91226393Y-126675723D01*
X91165871Y-126663684D01*
X90994838Y-126592840D01*
X90840913Y-126489990D01*
X90710010Y-126359087D01*
X90607160Y-126205162D01*
X90536316Y-126034129D01*
X90500200Y-125852562D01*
X90500200Y-125667438D01*
X90536316Y-125485871D01*
X90607160Y-125314838D01*
X90710010Y-125160913D01*
X90840913Y-125030010D01*
X90994838Y-124927160D01*
X91165871Y-124856316D01*
X91226393Y-124844277D01*
X91347436Y-124820200D01*
X91532564Y-124820200D01*
X91653607Y-124844277D01*
X91653607Y-124844277D01*
G37*
G36*
X117053607Y-124844277D02*
G01*
X117114129Y-124856316D01*
X117285162Y-124927160D01*
X117439087Y-125030010D01*
X117569990Y-125160913D01*
X117672840Y-125314838D01*
X117743684Y-125485871D01*
X117779800Y-125667438D01*
X117779800Y-125852562D01*
X117743684Y-126034129D01*
X117672840Y-126205162D01*
X117569990Y-126359087D01*
X117439087Y-126489990D01*
X117285162Y-126592840D01*
X117114129Y-126663684D01*
X117053607Y-126675723D01*
X116932564Y-126699800D01*
X116747436Y-126699800D01*
X116626393Y-126675723D01*
X116565871Y-126663684D01*
X116394838Y-126592840D01*
X116240913Y-126489990D01*
X116110010Y-126359087D01*
X116007160Y-126205162D01*
X115936316Y-126034129D01*
X115900200Y-125852562D01*
X115900200Y-125667438D01*
X115936316Y-125485871D01*
X116007160Y-125314838D01*
X116110010Y-125160913D01*
X116240913Y-125030010D01*
X116394838Y-124927160D01*
X116565871Y-124856316D01*
X116626393Y-124844277D01*
X116747436Y-124820200D01*
X116932564Y-124820200D01*
X117053607Y-124844277D01*
X117053607Y-124844277D01*
G37*
G36*
X108139830Y-123707209D02*
G01*
X108258271Y-123756269D01*
X108364858Y-123827488D01*
X108455512Y-123918142D01*
X108526731Y-124024729D01*
X108575791Y-124143170D01*
X108600800Y-124268900D01*
X108600800Y-124397100D01*
X108575791Y-124522830D01*
X108526731Y-124641271D01*
X108455512Y-124747858D01*
X108364858Y-124838512D01*
X108258271Y-124909731D01*
X108139830Y-124958791D01*
X108014100Y-124983800D01*
X107885900Y-124983800D01*
X107760170Y-124958791D01*
X107641729Y-124909731D01*
X107535142Y-124838512D01*
X107444488Y-124747858D01*
X107373269Y-124641271D01*
X107324209Y-124522830D01*
X107299200Y-124397100D01*
X107299200Y-124268900D01*
X107324209Y-124143170D01*
X107373269Y-124024729D01*
X107444488Y-123918142D01*
X107535142Y-123827488D01*
X107641729Y-123756269D01*
X107760170Y-123707209D01*
X107885900Y-123682200D01*
X108014100Y-123682200D01*
X108139830Y-123707209D01*
X108139830Y-123707209D01*
G37*
G36*
X100519830Y-123707209D02*
G01*
X100638271Y-123756269D01*
X100744858Y-123827488D01*
X100835512Y-123918142D01*
X100906731Y-124024729D01*
X100955791Y-124143170D01*
X100980800Y-124268900D01*
X100980800Y-124397100D01*
X100955791Y-124522830D01*
X100906731Y-124641271D01*
X100835512Y-124747858D01*
X100744858Y-124838512D01*
X100638271Y-124909731D01*
X100519830Y-124958791D01*
X100394100Y-124983800D01*
X100265900Y-124983800D01*
X100140170Y-124958791D01*
X100021729Y-124909731D01*
X99915142Y-124838512D01*
X99824488Y-124747858D01*
X99753269Y-124641271D01*
X99704209Y-124522830D01*
X99679200Y-124397100D01*
X99679200Y-124268900D01*
X99704209Y-124143170D01*
X99753269Y-124024729D01*
X99824488Y-123918142D01*
X99915142Y-123827488D01*
X100021729Y-123756269D01*
X100140170Y-123707209D01*
X100265900Y-123682200D01*
X100394100Y-123682200D01*
X100519830Y-123707209D01*
X100519830Y-123707209D01*
G37*
G36*
X92379800Y-124159800D02*
G01*
X90500200Y-124159800D01*
X90500200Y-122280200D01*
X92379800Y-122280200D01*
X92379800Y-124159800D01*
X92379800Y-124159800D01*
G37*
G36*
X117779800Y-124159800D02*
G01*
X115900200Y-124159800D01*
X115900200Y-122280200D01*
X117779800Y-122280200D01*
X117779800Y-124159800D01*
X117779800Y-124159800D01*
G37*
G36*
X109770800Y-123383800D02*
G01*
X108669200Y-123383800D01*
X108669200Y-119032200D01*
X109770800Y-119032200D01*
X109770800Y-123383800D01*
X109770800Y-123383800D01*
G37*
G36*
X104690800Y-123383800D02*
G01*
X103589200Y-123383800D01*
X103589200Y-119032200D01*
X104690800Y-119032200D01*
X104690800Y-123383800D01*
X104690800Y-123383800D01*
G37*
G36*
X99610800Y-123383800D02*
G01*
X98509200Y-123383800D01*
X98509200Y-119032200D01*
X99610800Y-119032200D01*
X99610800Y-123383800D01*
X99610800Y-123383800D01*
G37*
G36*
X107230800Y-123383800D02*
G01*
X106129200Y-123383800D01*
X106129200Y-119032200D01*
X107230800Y-119032200D01*
X107230800Y-123383800D01*
X107230800Y-123383800D01*
G37*
G36*
X102150800Y-123383800D02*
G01*
X101049200Y-123383800D01*
X101049200Y-119032200D01*
X102150800Y-119032200D01*
X102150800Y-123383800D01*
X102150800Y-123383800D01*
G37*
G36*
X101480800Y-115685800D02*
G01*
X100479200Y-115685800D01*
X100479200Y-113884200D01*
X101480800Y-113884200D01*
X101480800Y-115685800D01*
X101480800Y-115685800D01*
G37*
G36*
X98940800Y-115685800D02*
G01*
X97939200Y-115685800D01*
X97939200Y-113884200D01*
X98940800Y-113884200D01*
X98940800Y-115685800D01*
X98940800Y-115685800D01*
G37*
G36*
X100210800Y-115685800D02*
G01*
X99209200Y-115685800D01*
X99209200Y-113884200D01*
X100210800Y-113884200D01*
X100210800Y-115685800D01*
X100210800Y-115685800D01*
G37*
G36*
X102750800Y-115685800D02*
G01*
X101749200Y-115685800D01*
X101749200Y-113884200D01*
X102750800Y-113884200D01*
X102750800Y-115685800D01*
X102750800Y-115685800D01*
G37*
G36*
X104020800Y-115685800D02*
G01*
X103019200Y-115685800D01*
X103019200Y-113884200D01*
X104020800Y-113884200D01*
X104020800Y-115685800D01*
X104020800Y-115685800D01*
G37*
G36*
X105290800Y-115685800D02*
G01*
X104289200Y-115685800D01*
X104289200Y-113884200D01*
X105290800Y-113884200D01*
X105290800Y-115685800D01*
X105290800Y-115685800D01*
G37*
G36*
X106560800Y-115685800D02*
G01*
X105559200Y-115685800D01*
X105559200Y-113884200D01*
X106560800Y-113884200D01*
X106560800Y-115685800D01*
X106560800Y-115685800D01*
G37*
G36*
X107830800Y-115685800D02*
G01*
X106829200Y-115685800D01*
X106829200Y-113884200D01*
X107830800Y-113884200D01*
X107830800Y-115685800D01*
X107830800Y-115685800D01*
G37*
G36*
X109100800Y-115685800D02*
G01*
X108099200Y-115685800D01*
X108099200Y-113884200D01*
X109100800Y-113884200D01*
X109100800Y-115685800D01*
X109100800Y-115685800D01*
G37*
G36*
X110370800Y-115685800D02*
G01*
X109369200Y-115685800D01*
X109369200Y-113884200D01*
X110370800Y-113884200D01*
X110370800Y-115685800D01*
X110370800Y-115685800D01*
G37*
G36*
X115870800Y-115641800D02*
G01*
X115269200Y-115641800D01*
X115269200Y-114990200D01*
X115870800Y-114990200D01*
X115870800Y-115641800D01*
X115870800Y-115641800D01*
G37*
G36*
X114854800Y-115641800D02*
G01*
X114253200Y-115641800D01*
X114253200Y-114990200D01*
X114854800Y-114990200D01*
X114854800Y-115641800D01*
X114854800Y-115641800D01*
G37*
G36*
X114040800Y-113835800D02*
G01*
X112239200Y-113835800D01*
X112239200Y-112834200D01*
X114040800Y-112834200D01*
X114040800Y-113835800D01*
X114040800Y-113835800D01*
G37*
G36*
X96040800Y-113795800D02*
G01*
X94239200Y-113795800D01*
X94239200Y-112794200D01*
X96040800Y-112794200D01*
X96040800Y-113795800D01*
X96040800Y-113795800D01*
G37*
G36*
X115997800Y-113355800D02*
G01*
X115396200Y-113355800D01*
X115396200Y-112704200D01*
X115997800Y-112704200D01*
X115997800Y-113355800D01*
X115997800Y-113355800D01*
G37*
G36*
X117013800Y-113355800D02*
G01*
X116412200Y-113355800D01*
X116412200Y-112704200D01*
X117013800Y-112704200D01*
X117013800Y-113355800D01*
X117013800Y-113355800D01*
G37*
G36*
X92502800Y-113228800D02*
G01*
X91901200Y-113228800D01*
X91901200Y-112577200D01*
X92502800Y-112577200D01*
X92502800Y-113228800D01*
X92502800Y-113228800D01*
G37*
G36*
X93518800Y-113228800D02*
G01*
X92917200Y-113228800D01*
X92917200Y-112577200D01*
X93518800Y-112577200D01*
X93518800Y-113228800D01*
X93518800Y-113228800D01*
G37*
G36*
X114040800Y-112565800D02*
G01*
X112239200Y-112565800D01*
X112239200Y-111564200D01*
X114040800Y-111564200D01*
X114040800Y-112565800D01*
X114040800Y-112565800D01*
G37*
G36*
X96040800Y-112525800D02*
G01*
X94239200Y-112525800D01*
X94239200Y-111524200D01*
X96040800Y-111524200D01*
X96040800Y-112525800D01*
X96040800Y-112525800D01*
G37*
G36*
X117013800Y-111577800D02*
G01*
X116412200Y-111577800D01*
X116412200Y-110037200D01*
X117013800Y-110037200D01*
X117013800Y-111577800D01*
X117013800Y-111577800D01*
G37*
G36*
X115997800Y-111577800D02*
G01*
X115396200Y-111577800D01*
X115396200Y-110037200D01*
X115997800Y-110037200D01*
X115997800Y-111577800D01*
X115997800Y-111577800D01*
G37*
G36*
X114040800Y-111295800D02*
G01*
X112239200Y-111295800D01*
X112239200Y-110294200D01*
X114040800Y-110294200D01*
X114040800Y-111295800D01*
X114040800Y-111295800D01*
G37*
G36*
X96040800Y-111255800D02*
G01*
X94239200Y-111255800D01*
X94239200Y-110254200D01*
X96040800Y-110254200D01*
X96040800Y-111255800D01*
X96040800Y-111255800D01*
G37*
G36*
X114040800Y-110025800D02*
G01*
X112239200Y-110025800D01*
X112239200Y-109024200D01*
X114040800Y-109024200D01*
X114040800Y-110025800D01*
X114040800Y-110025800D01*
G37*
G36*
X96040800Y-109985800D02*
G01*
X94239200Y-109985800D01*
X94239200Y-108984200D01*
X96040800Y-108984200D01*
X96040800Y-109985800D01*
X96040800Y-109985800D01*
G37*
G36*
X116911800Y-109139800D02*
G01*
X115371200Y-109139800D01*
X115371200Y-108538200D01*
X116911800Y-108538200D01*
X116911800Y-109139800D01*
X116911800Y-109139800D01*
G37*
G36*
X114040800Y-108755800D02*
G01*
X112239200Y-108755800D01*
X112239200Y-107754200D01*
X114040800Y-107754200D01*
X114040800Y-108755800D01*
X114040800Y-108755800D01*
G37*
G36*
X96040800Y-108715800D02*
G01*
X94239200Y-108715800D01*
X94239200Y-107714200D01*
X96040800Y-107714200D01*
X96040800Y-108715800D01*
X96040800Y-108715800D01*
G37*
G36*
X91740800Y-108402800D02*
G01*
X91139200Y-108402800D01*
X91139200Y-107751200D01*
X91740800Y-107751200D01*
X91740800Y-108402800D01*
X91740800Y-108402800D01*
G37*
G36*
X92756800Y-108402800D02*
G01*
X92155200Y-108402800D01*
X92155200Y-107751200D01*
X92756800Y-107751200D01*
X92756800Y-108402800D01*
X92756800Y-108402800D01*
G37*
G36*
X116759800Y-107397201D02*
G01*
X116762202Y-107421587D01*
X116769315Y-107445036D01*
X116780866Y-107466647D01*
X116796411Y-107485589D01*
X116815353Y-107501134D01*
X116836964Y-107512685D01*
X116860413Y-107519798D01*
X116884799Y-107522200D01*
X116911800Y-107522200D01*
X116911800Y-108123800D01*
X115371200Y-108123800D01*
X115371200Y-107469799D01*
X115368798Y-107445413D01*
X115361685Y-107421964D01*
X115350134Y-107400353D01*
X115334589Y-107381411D01*
X115315647Y-107365866D01*
X115294036Y-107354315D01*
X115270587Y-107347202D01*
X115246201Y-107344800D01*
X115158200Y-107344800D01*
X115158200Y-105943200D01*
X116759800Y-105943200D01*
X116759800Y-107397201D01*
X116759800Y-107397201D01*
G37*
G36*
X107640000Y-107685000D02*
G01*
X101240000Y-107685000D01*
X101240000Y-101285000D01*
X107640000Y-101285000D01*
X107640000Y-107685000D01*
X107640000Y-107685000D01*
G37*
G36*
X114040800Y-107485800D02*
G01*
X112239200Y-107485800D01*
X112239200Y-106484200D01*
X114040800Y-106484200D01*
X114040800Y-107485800D01*
X114040800Y-107485800D01*
G37*
G36*
X96040800Y-107445800D02*
G01*
X94239200Y-107445800D01*
X94239200Y-106444200D01*
X96040800Y-106444200D01*
X96040800Y-107445800D01*
X96040800Y-107445800D01*
G37*
G36*
X93121800Y-107344800D02*
G01*
X91520200Y-107344800D01*
X91520200Y-105943200D01*
X93121800Y-105943200D01*
X93121800Y-107344800D01*
X93121800Y-107344800D01*
G37*
G36*
X114040800Y-106215800D02*
G01*
X112239200Y-106215800D01*
X112239200Y-105214200D01*
X114040800Y-105214200D01*
X114040800Y-106215800D01*
X114040800Y-106215800D01*
G37*
G36*
X96040800Y-106175800D02*
G01*
X94239200Y-106175800D01*
X94239200Y-105174200D01*
X96040800Y-105174200D01*
X96040800Y-106175800D01*
X96040800Y-106175800D01*
G37*
G36*
X114040800Y-104945800D02*
G01*
X112239200Y-104945800D01*
X112239200Y-103944200D01*
X114040800Y-103944200D01*
X114040800Y-104945800D01*
X114040800Y-104945800D01*
G37*
G36*
X96040800Y-104905800D02*
G01*
X94239200Y-104905800D01*
X94239200Y-103904200D01*
X96040800Y-103904200D01*
X96040800Y-104905800D01*
X96040800Y-104905800D01*
G37*
G36*
X93337908Y-103881602D02*
G01*
X93410848Y-103911815D01*
X93410850Y-103911816D01*
X93437446Y-103929587D01*
X93476494Y-103955678D01*
X93532322Y-104011506D01*
X93576185Y-104077152D01*
X93606398Y-104150092D01*
X93621800Y-104227523D01*
X93621800Y-104306477D01*
X93606398Y-104383908D01*
X93577067Y-104454718D01*
X93576184Y-104456850D01*
X93532321Y-104522495D01*
X93476495Y-104578321D01*
X93410850Y-104622184D01*
X93410849Y-104622185D01*
X93410848Y-104622185D01*
X93337908Y-104652398D01*
X93260477Y-104667800D01*
X93181523Y-104667800D01*
X93104092Y-104652398D01*
X93031152Y-104622185D01*
X93031151Y-104622185D01*
X93031150Y-104622184D01*
X92965505Y-104578321D01*
X92909679Y-104522495D01*
X92865816Y-104456850D01*
X92864933Y-104454718D01*
X92835602Y-104383908D01*
X92820200Y-104306477D01*
X92820200Y-104227523D01*
X92835602Y-104150092D01*
X92865815Y-104077152D01*
X92909678Y-104011506D01*
X92965506Y-103955678D01*
X93004554Y-103929587D01*
X93031150Y-103911816D01*
X93031152Y-103911815D01*
X93104092Y-103881602D01*
X93181523Y-103866200D01*
X93260477Y-103866200D01*
X93337908Y-103881602D01*
X93337908Y-103881602D01*
G37*
G36*
X115175908Y-103881602D02*
G01*
X115248848Y-103911815D01*
X115248850Y-103911816D01*
X115275446Y-103929587D01*
X115314494Y-103955678D01*
X115370322Y-104011506D01*
X115414185Y-104077152D01*
X115444398Y-104150092D01*
X115459800Y-104227523D01*
X115459800Y-104306477D01*
X115444398Y-104383908D01*
X115415067Y-104454718D01*
X115414184Y-104456850D01*
X115370321Y-104522495D01*
X115314495Y-104578321D01*
X115248850Y-104622184D01*
X115248849Y-104622185D01*
X115248848Y-104622185D01*
X115175908Y-104652398D01*
X115098477Y-104667800D01*
X115019523Y-104667800D01*
X114942092Y-104652398D01*
X114869152Y-104622185D01*
X114869151Y-104622185D01*
X114869150Y-104622184D01*
X114803505Y-104578321D01*
X114747679Y-104522495D01*
X114703816Y-104456850D01*
X114702933Y-104454718D01*
X114673602Y-104383908D01*
X114658200Y-104306477D01*
X114658200Y-104227523D01*
X114673602Y-104150092D01*
X114703815Y-104077152D01*
X114747678Y-104011506D01*
X114803506Y-103955678D01*
X114842554Y-103929587D01*
X114869150Y-103911816D01*
X114869152Y-103911815D01*
X114942092Y-103881602D01*
X115019523Y-103866200D01*
X115098477Y-103866200D01*
X115175908Y-103881602D01*
X115175908Y-103881602D01*
G37*
G36*
X116975908Y-103881602D02*
G01*
X117048848Y-103911815D01*
X117048850Y-103911816D01*
X117075446Y-103929587D01*
X117114494Y-103955678D01*
X117170322Y-104011506D01*
X117214185Y-104077152D01*
X117244398Y-104150092D01*
X117259800Y-104227523D01*
X117259800Y-104306477D01*
X117244398Y-104383908D01*
X117215067Y-104454718D01*
X117214184Y-104456850D01*
X117170321Y-104522495D01*
X117114495Y-104578321D01*
X117048850Y-104622184D01*
X117048849Y-104622185D01*
X117048848Y-104622185D01*
X116975908Y-104652398D01*
X116898477Y-104667800D01*
X116819523Y-104667800D01*
X116742092Y-104652398D01*
X116669152Y-104622185D01*
X116669151Y-104622185D01*
X116669150Y-104622184D01*
X116603505Y-104578321D01*
X116547679Y-104522495D01*
X116503816Y-104456850D01*
X116502933Y-104454718D01*
X116473602Y-104383908D01*
X116458200Y-104306477D01*
X116458200Y-104227523D01*
X116473602Y-104150092D01*
X116503815Y-104077152D01*
X116547678Y-104011506D01*
X116603506Y-103955678D01*
X116642554Y-103929587D01*
X116669150Y-103911816D01*
X116669152Y-103911815D01*
X116742092Y-103881602D01*
X116819523Y-103866200D01*
X116898477Y-103866200D01*
X116975908Y-103881602D01*
X116975908Y-103881602D01*
G37*
G36*
X91537908Y-103881602D02*
G01*
X91610848Y-103911815D01*
X91610850Y-103911816D01*
X91637446Y-103929587D01*
X91676494Y-103955678D01*
X91732322Y-104011506D01*
X91776185Y-104077152D01*
X91806398Y-104150092D01*
X91821800Y-104227523D01*
X91821800Y-104306477D01*
X91806398Y-104383908D01*
X91777067Y-104454718D01*
X91776184Y-104456850D01*
X91732321Y-104522495D01*
X91676495Y-104578321D01*
X91610850Y-104622184D01*
X91610849Y-104622185D01*
X91610848Y-104622185D01*
X91537908Y-104652398D01*
X91460477Y-104667800D01*
X91381523Y-104667800D01*
X91304092Y-104652398D01*
X91231152Y-104622185D01*
X91231151Y-104622185D01*
X91231150Y-104622184D01*
X91165505Y-104578321D01*
X91109679Y-104522495D01*
X91065816Y-104456850D01*
X91064933Y-104454718D01*
X91035602Y-104383908D01*
X91020200Y-104306477D01*
X91020200Y-104227523D01*
X91035602Y-104150092D01*
X91065815Y-104077152D01*
X91109678Y-104011506D01*
X91165506Y-103955678D01*
X91204554Y-103929587D01*
X91231150Y-103911816D01*
X91231152Y-103911815D01*
X91304092Y-103881602D01*
X91381523Y-103866200D01*
X91460477Y-103866200D01*
X91537908Y-103881602D01*
X91537908Y-103881602D01*
G37*
G36*
X114040800Y-103675800D02*
G01*
X112239200Y-103675800D01*
X112239200Y-102674200D01*
X114040800Y-102674200D01*
X114040800Y-103675800D01*
X114040800Y-103675800D01*
G37*
G36*
X96040800Y-103635800D02*
G01*
X94239200Y-103635800D01*
X94239200Y-102634200D01*
X96040800Y-102634200D01*
X96040800Y-103635800D01*
X96040800Y-103635800D01*
G37*
G36*
X116759800Y-102590800D02*
G01*
X115158200Y-102590800D01*
X115158200Y-101189200D01*
X116759800Y-101189200D01*
X116759800Y-102590800D01*
X116759800Y-102590800D01*
G37*
G36*
X93121800Y-102590800D02*
G01*
X91520200Y-102590800D01*
X91520200Y-101189200D01*
X93121800Y-101189200D01*
X93121800Y-102590800D01*
X93121800Y-102590800D01*
G37*
G36*
X114040800Y-102405800D02*
G01*
X112239200Y-102405800D01*
X112239200Y-101404200D01*
X114040800Y-101404200D01*
X114040800Y-102405800D01*
X114040800Y-102405800D01*
G37*
G36*
X96040800Y-102365800D02*
G01*
X94239200Y-102365800D01*
X94239200Y-101364200D01*
X96040800Y-101364200D01*
X96040800Y-102365800D01*
X96040800Y-102365800D01*
G37*
G36*
X114040800Y-101135800D02*
G01*
X112239200Y-101135800D01*
X112239200Y-100134200D01*
X114040800Y-100134200D01*
X114040800Y-101135800D01*
X114040800Y-101135800D01*
G37*
G36*
X96040800Y-101095800D02*
G01*
X94239200Y-101095800D01*
X94239200Y-100094200D01*
X96040800Y-100094200D01*
X96040800Y-101095800D01*
X96040800Y-101095800D01*
G37*
G36*
X116276800Y-100757800D02*
G01*
X115625200Y-100757800D01*
X115625200Y-100156200D01*
X116276800Y-100156200D01*
X116276800Y-100757800D01*
X116276800Y-100757800D01*
G37*
G36*
X114040800Y-99865800D02*
G01*
X112239200Y-99865800D01*
X112239200Y-98864200D01*
X114040800Y-98864200D01*
X114040800Y-99865800D01*
X114040800Y-99865800D01*
G37*
G36*
X96040800Y-99825800D02*
G01*
X94239200Y-99825800D01*
X94239200Y-98824200D01*
X96040800Y-98824200D01*
X96040800Y-99825800D01*
X96040800Y-99825800D01*
G37*
G36*
X116276800Y-99741800D02*
G01*
X115625200Y-99741800D01*
X115625200Y-99140200D01*
X116276800Y-99140200D01*
X116276800Y-99741800D01*
X116276800Y-99741800D01*
G37*
G36*
X114040800Y-98595800D02*
G01*
X112239200Y-98595800D01*
X112239200Y-97594200D01*
X114040800Y-97594200D01*
X114040800Y-98595800D01*
X114040800Y-98595800D01*
G37*
G36*
X96040800Y-98555800D02*
G01*
X94239200Y-98555800D01*
X94239200Y-97554200D01*
X96040800Y-97554200D01*
X96040800Y-98555800D01*
X96040800Y-98555800D01*
G37*
G36*
X116581322Y-96159048D02*
G01*
X116641889Y-96171095D01*
X116698943Y-96194728D01*
X116755997Y-96218360D01*
X116858687Y-96286975D01*
X116946025Y-96374313D01*
X117014640Y-96477003D01*
X117061905Y-96591112D01*
X117086000Y-96712245D01*
X117086000Y-96835755D01*
X117061905Y-96956888D01*
X117014640Y-97070997D01*
X116946025Y-97173687D01*
X116858687Y-97261025D01*
X116755997Y-97329640D01*
X116698943Y-97353272D01*
X116641889Y-97376905D01*
X116581322Y-97388952D01*
X116520755Y-97401000D01*
X116397245Y-97401000D01*
X116336678Y-97388952D01*
X116276111Y-97376905D01*
X116219057Y-97353272D01*
X116162003Y-97329640D01*
X116059313Y-97261025D01*
X115971975Y-97173687D01*
X115903360Y-97070997D01*
X115856095Y-96956888D01*
X115832000Y-96835755D01*
X115832000Y-96712245D01*
X115856095Y-96591112D01*
X115903360Y-96477003D01*
X115971975Y-96374313D01*
X116059313Y-96286975D01*
X116162003Y-96218360D01*
X116219057Y-96194728D01*
X116276111Y-96171095D01*
X116336678Y-96159048D01*
X116397245Y-96147000D01*
X116520755Y-96147000D01*
X116581322Y-96159048D01*
X116581322Y-96159048D01*
G37*
G36*
X91943322Y-96159048D02*
G01*
X92003889Y-96171095D01*
X92060943Y-96194728D01*
X92117997Y-96218360D01*
X92220687Y-96286975D01*
X92308025Y-96374313D01*
X92376640Y-96477003D01*
X92423905Y-96591112D01*
X92448000Y-96712245D01*
X92448000Y-96835755D01*
X92423905Y-96956888D01*
X92376640Y-97070997D01*
X92308025Y-97173687D01*
X92220687Y-97261025D01*
X92117997Y-97329640D01*
X92060943Y-97353272D01*
X92003889Y-97376905D01*
X91943322Y-97388952D01*
X91882755Y-97401000D01*
X91759245Y-97401000D01*
X91698678Y-97388952D01*
X91638111Y-97376905D01*
X91581057Y-97353272D01*
X91524003Y-97329640D01*
X91421313Y-97261025D01*
X91333975Y-97173687D01*
X91265360Y-97070997D01*
X91218095Y-96956888D01*
X91194000Y-96835755D01*
X91194000Y-96712245D01*
X91218095Y-96591112D01*
X91265360Y-96477003D01*
X91333975Y-96374313D01*
X91421313Y-96286975D01*
X91524003Y-96218360D01*
X91581057Y-96194728D01*
X91638111Y-96171095D01*
X91698678Y-96159048D01*
X91759245Y-96147000D01*
X91882755Y-96147000D01*
X91943322Y-96159048D01*
X91943322Y-96159048D01*
G37*
G36*
X114040800Y-97325800D02*
G01*
X112239200Y-97325800D01*
X112239200Y-96324200D01*
X114040800Y-96324200D01*
X114040800Y-97325800D01*
X114040800Y-97325800D01*
G37*
G36*
X96040800Y-97285800D02*
G01*
X94239200Y-97285800D01*
X94239200Y-96284200D01*
X96040800Y-96284200D01*
X96040800Y-97285800D01*
X96040800Y-97285800D01*
G37*
M02*
