G04 #@! TF.GenerationSoftware,KiCad,Pcbnew,6.0.0-rc1-unknown-69d90a4~84~ubuntu18.04.1*
G04 #@! TF.CreationDate,2019-01-16T16:00:12+02:00
G04 #@! TF.ProjectId,ESP32-PoE-ISO_Rev_A,45535033-322d-4506-9f45-2d49534f5f52,A*
G04 #@! TF.SameCoordinates,Original*
G04 #@! TF.FileFunction,Paste,Top*
G04 #@! TF.FilePolarity,Positive*
%FSLAX46Y46*%
G04 Gerber Fmt 4.6, Leading zero omitted, Abs format (unit mm)*
G04 Created by KiCad (PCBNEW 6.0.0-rc1-unknown-69d90a4~84~ubuntu18.04.1) date 16.01.2019 (ср) 16:00:12 EET*
%MOMM*%
%LPD*%
G04 APERTURE LIST*
%ADD10R,0.550000X0.500000*%
%ADD11R,3.400000X2.700000*%
%ADD12R,1.400000X1.200000*%
%ADD13R,1.754000X1.427000*%
%ADD14R,1.254000X4.504000*%
%ADD15R,1.400000X1.400000*%
%ADD16R,1.550000X0.750000*%
%ADD17R,0.750000X1.550000*%
%ADD18R,3.000000X1.600000*%
%ADD19R,1.000000X1.400000*%
%ADD20R,1.650000X0.500000*%
%ADD21R,1.650000X0.325000*%
%ADD22R,1.000000X1.100000*%
%ADD23R,1.016000X1.016000*%
%ADD24R,0.800000X0.800000*%
%ADD25R,2.400000X3.600000*%
%ADD26R,0.325000X1.270000*%
%ADD27R,0.550000X1.200000*%
%ADD28R,0.500000X0.550000*%
%ADD29R,1.270000X1.524000*%
G04 APERTURE END LIST*
D10*
X107188000Y-145034000D03*
X107188000Y-144018000D03*
D11*
X116094000Y-159639000D03*
X105394000Y-159639000D03*
D10*
X93345000Y-99695000D03*
X93345000Y-98679000D03*
D12*
X111338000Y-143853000D03*
X113538000Y-145453000D03*
X113538000Y-143853000D03*
X111338000Y-145453000D03*
D10*
X109982000Y-144018000D03*
X109982000Y-145034000D03*
D13*
X115959000Y-101826500D03*
X115959000Y-106707500D03*
X92321000Y-101826500D03*
X92321000Y-106707500D03*
D14*
X109220000Y-121208000D03*
X109220000Y-127458000D03*
X106680000Y-121208000D03*
X106680000Y-127458000D03*
X104140000Y-121208000D03*
X104140000Y-127458000D03*
X101600000Y-121208000D03*
X101600000Y-127458000D03*
X99060000Y-121208000D03*
X99060000Y-127458000D03*
D15*
X105706400Y-105768000D03*
X103166400Y-105768000D03*
X105681000Y-103101000D03*
X103141000Y-103101000D03*
D16*
X95140000Y-96785000D03*
X95140000Y-98055000D03*
X95140000Y-99325000D03*
X95140000Y-100595000D03*
X95140000Y-101865000D03*
X95140000Y-103135000D03*
X95140000Y-104405000D03*
X95140000Y-105675000D03*
X95140000Y-106945000D03*
X95140000Y-108215000D03*
X95140000Y-109485000D03*
X95140000Y-110755000D03*
X95140000Y-112025000D03*
X95140000Y-113295000D03*
D17*
X98440000Y-114785000D03*
X99710000Y-114785000D03*
X100980000Y-114785000D03*
X102250000Y-114785000D03*
X103520000Y-114785000D03*
X104790000Y-114785000D03*
X106060000Y-114785000D03*
X107330000Y-114785000D03*
X108600000Y-114785000D03*
X109870000Y-114785000D03*
D16*
X113140000Y-113335000D03*
X113140000Y-112065000D03*
X113140000Y-110795000D03*
X113140000Y-109525000D03*
X113140000Y-108255000D03*
X113140000Y-106985000D03*
X113140000Y-105715000D03*
X113140000Y-104445000D03*
X113140000Y-103175000D03*
X113140000Y-101905000D03*
X113140000Y-100635000D03*
X113140000Y-99365000D03*
X113140000Y-98095000D03*
X113140000Y-96825000D03*
D10*
X114935000Y-145034000D03*
X114935000Y-144018000D03*
X115951000Y-98679000D03*
X115951000Y-99695000D03*
D18*
X95377000Y-132150000D03*
X95377000Y-134550000D03*
D19*
X97469960Y-145069560D03*
X95567500Y-145069560D03*
X96522540Y-147279360D03*
X94554040Y-138775440D03*
X96456500Y-138775440D03*
X95501460Y-136565640D03*
D20*
X96876000Y-151266500D03*
D21*
X96876000Y-152004000D03*
X96876000Y-152654000D03*
X96876000Y-153304000D03*
D20*
X96876000Y-154041500D03*
D22*
X92326000Y-151154000D03*
X92326000Y-154154000D03*
D23*
X107188000Y-132080000D03*
X108966000Y-132080000D03*
D24*
X91567000Y-177546000D03*
X91567000Y-176022000D03*
D23*
X99060000Y-132969000D03*
X99060000Y-131191000D03*
D24*
X91567000Y-171831000D03*
X91567000Y-170307000D03*
D25*
X108683000Y-169418000D03*
X101883000Y-169418000D03*
D26*
X107565000Y-141033500D03*
X108215000Y-141033500D03*
X108865000Y-141033500D03*
X109515000Y-141033500D03*
X110165000Y-141033500D03*
X110815000Y-141033500D03*
X111465000Y-141033500D03*
X112115000Y-141033500D03*
X112765000Y-141033500D03*
X113415000Y-141033500D03*
X113415000Y-133794500D03*
X112765000Y-133794500D03*
X112115000Y-133794500D03*
X111465000Y-133794500D03*
X110815000Y-133794500D03*
X110165000Y-133794500D03*
X109515000Y-133794500D03*
X108865000Y-133794500D03*
X108215000Y-133794500D03*
X107565000Y-133794500D03*
D27*
X99756000Y-134463000D03*
X98806000Y-134463000D03*
X97856000Y-134463000D03*
X99756000Y-137063000D03*
X97856000Y-137063000D03*
D23*
X95631000Y-173482000D03*
X95631000Y-175260000D03*
X99695000Y-138684000D03*
X97917000Y-138684000D03*
D28*
X110871000Y-142494000D03*
X109855000Y-142494000D03*
D10*
X108077000Y-145034000D03*
X108077000Y-144018000D03*
X91567000Y-180086000D03*
X91567000Y-179070000D03*
X91567000Y-168656000D03*
X91567000Y-167640000D03*
X91567000Y-162941000D03*
X91567000Y-161925000D03*
X91567000Y-174371000D03*
X91567000Y-173355000D03*
X100838000Y-134112000D03*
X100838000Y-135128000D03*
X100838000Y-137414000D03*
X100838000Y-136398000D03*
X97155000Y-173355000D03*
X97155000Y-174371000D03*
D24*
X91567000Y-160401000D03*
X91567000Y-158877000D03*
X91567000Y-166116000D03*
X91567000Y-164592000D03*
D29*
X94488000Y-158242000D03*
X94488000Y-160274000D03*
D27*
X94046000Y-179354000D03*
X94996000Y-179354000D03*
X95946000Y-179354000D03*
X94046000Y-176754000D03*
X95946000Y-176754000D03*
D10*
X94107000Y-173355000D03*
X94107000Y-174371000D03*
X91186000Y-98679000D03*
X91186000Y-99695000D03*
X92075000Y-99695000D03*
X92075000Y-98679000D03*
D19*
X98420000Y-143002000D03*
X94620000Y-143002000D03*
X94620000Y-140970000D03*
X98420000Y-140970000D03*
M02*
