M48
; DRILL file {KiCad 5.1.0-rc1-unknown-9a8afdf~76~ubuntu18.04.1} date 22.02.2019 (пт)  9:22:29 EET
; FORMAT={-:-/ absolute / metric / decimal}
; #@! TF.CreationDate,2019-02-22T09:22:29+02:00
; #@! TF.GenerationSoftware,Kicad,Pcbnew,5.1.0-rc1-unknown-9a8afdf~76~ubuntu18.04.1
; #@! TF.FileFunction,Plated,1,2,PTH
FMAT,2
METRIC
T1C0.300
T2C0.300
T3C0.400
T4C0.500
T5C0.600
T6C0.900
T7C1.000
T8C1.200
%
G90
G05
T1
X111.244Y-147.544
T2
X109.444Y-148.344
X109.444Y-149.344
X110.244Y-147.544
X110.244Y-150.144
X111.244Y-150.144
X112.044Y-148.344
X112.044Y-149.344
T3
X92.075Y-113.538
X92.075Y-114.554
X92.075Y-118.237
X92.456Y-116.205
X93.091Y-163.576
X93.218Y-144.145
X93.243Y-120.777
X93.345Y-110.363
X93.345Y-169.291
X93.599Y-111.252
X93.726Y-115.697
X94.107Y-117.983
X94.107Y-135.636
X94.234Y-144.145
X94.488Y-114.427
X94.488Y-118.872
X94.742Y-128.651
X94.996Y-138.303
X94.996Y-148.209
X95.631Y-146.685
X96.012Y-168.91
X96.266Y-122.555
X96.393Y-110.998
X96.52Y-135.636
X96.596Y-129.718
X96.647Y-110.109
X96.774Y-137.795
X96.901Y-99.822
X97.536Y-104.775
X97.536Y-106.045
X97.536Y-106.934
X97.79Y-99.568
X98.552Y-100.076
X98.679Y-156.972
X98.679Y-157.861
X98.806Y-107.061
X99.06Y-107.95
X99.695Y-154.051
X100.076Y-112.141
X100.076Y-128.016
X100.076Y-129.032
X100.203Y-116.967
X100.584Y-119.888
X100.711Y-106.934
X100.711Y-130.175
X101.219Y-144.272
X101.346Y-142.113
X101.346Y-143.002
X101.473Y-110.617
X101.981Y-159.258
X102.235Y-157.988
X103.124Y-120.345
X103.124Y-121.539
X103.632Y-109.855
X104.267Y-146.431
X104.648Y-139.7
X104.648Y-140.462
X105.283Y-146.558
X105.41Y-116.205
X105.41Y-126.873
X105.918Y-110.744
X106.553Y-153.543
X106.934Y-140.081
X107.315Y-112.141
X107.442Y-153.035
X107.823Y-120.015
X108.204Y-128.016
X108.585Y-117.602
X108.839Y-103.886
X109.474Y-140.97
X109.855Y-104.14
X109.982Y-106.807
X110.109Y-154.432
X110.236Y-102.87
X110.617Y-98.679
X110.744Y-104.14
X110.744Y-116.205
X110.871Y-106.299
X110.998Y-142.748
X111.125Y-143.637
X111.633Y-107.696
X111.633Y-108.585
X111.633Y-120.523
X111.707Y-116.295
X112.014Y-118.999
X112.522Y-120.269
X113.03Y-151.511
X113.792Y-153.289
X113.919Y-114.681
X114.173Y-148.463
X114.427Y-110.998
X114.427Y-112.141
X114.554Y-108.331
X114.681Y-116.205
X114.793Y-106.695
X115.062Y-151.511
X115.951Y-153.162
X116.078Y-148.819
X116.205Y-114.681
X116.205Y-119.761
X116.586Y-112.141
X116.967Y-109.601
X116.967Y-120.777
X117.475Y-105.156
X107.966Y-130.445
X107.966Y-131.445
X107.966Y-132.445
X108.966Y-130.445
X108.966Y-131.445
X108.966Y-132.445
X109.966Y-130.445
X109.966Y-131.445
X109.966Y-132.445
T4
X100.076Y-117.983
T5
X91.059Y-108.966
X91.313Y-150.241
X92.329Y-100.584
X94.742Y-166.624
X94.742Y-167.767
X94.844Y-124.968
X96.012Y-126.111
X96.139Y-153.416
X96.901Y-96.774
X96.901Y-98.044
X97.79Y-155.956
X97.917Y-160.528
X98.044Y-127.533
X98.679Y-141.986
X98.933Y-139.7
X98.933Y-160.147
X99.06Y-148.336
X99.314Y-164.973
X99.314Y-169.037
X99.949Y-143.51
X100.076Y-96.774
X100.914Y-131.267
X100.914Y-134.214
X101.473Y-151.892
X102.108Y-168.783
X102.489Y-113.157
X102.489Y-148.59
X102.997Y-151.892
X103.124Y-96.774
X103.632Y-113.157
X103.632Y-161.946
X104.013Y-167.132
X104.14Y-145.288
X105.029Y-147.574
X105.283Y-168.783
X105.918Y-164.846
X106.045Y-96.774
X106.68Y-163.322
X106.934Y-167.132
X107.696Y-134.849
X108.204Y-164.846
X108.204Y-168.783
X108.966Y-96.774
X109.474Y-135.128
X109.601Y-167.132
X109.728Y-163.322
X110.617Y-161.946
X110.871Y-112.649
X110.871Y-125.476
X110.871Y-126.619
X110.871Y-164.846
X110.998Y-168.783
X111.506Y-96.774
X112.014Y-125.476
X112.014Y-126.619
X112.014Y-127.762
X112.522Y-167.132
X112.649Y-131.445
X112.928Y-140.589
X113.03Y-161.946
X113.132Y-130.454
X113.157Y-125.476
X113.157Y-126.619
X113.665Y-128.143
X113.665Y-133.096
X114.3Y-154.305
X114.554Y-118.745
X114.554Y-119.888
X102.1Y-102.136
X102.1Y-104.371
X102.1Y-106.835
X104.411Y-102.136
X104.411Y-106.835
X106.773Y-102.136
X106.773Y-104.371
X106.773Y-106.835
T6
X95.639Y-163.853
X97.65Y-163.85
T7
X116.84Y-123.22
X116.84Y-125.76
X116.84Y-128.3
X116.84Y-130.84
X116.84Y-133.38
X116.84Y-135.92
X116.84Y-138.46
X116.84Y-141.0
X116.84Y-143.54
X116.84Y-146.08
X102.616Y-155.806
X103.886Y-158.346
X105.156Y-155.806
X106.426Y-158.346
X107.696Y-155.806
X108.966Y-158.346
X110.236Y-155.806
X111.506Y-158.346
X112.776Y-155.806
X114.046Y-158.346
X104.411Y-104.498
X91.44Y-123.22
X91.44Y-125.76
X91.44Y-128.3
X91.44Y-130.84
X91.44Y-133.38
X91.44Y-135.92
X91.44Y-138.46
X91.44Y-141.0
X91.44Y-143.54
X91.44Y-146.08
T8
X110.744Y-148.844
T5
G00X100.531Y-161.246
M15
G01X100.531Y-162.646
M16
G05
G00X116.131Y-161.246
M15
G01X116.131Y-162.646
M16
G05
G00X93.776Y-154.642
M15
G01X93.176Y-154.642
M16
G05
G00X93.776Y-161.842
M15
G01X93.176Y-161.842
M16
G05
G00X97.246Y-154.642
M15
G01X96.646Y-154.642
M16
G05
G00X97.246Y-161.842
M15
G01X96.646Y-161.842
M16
G05
T0
M30
