G04 #@! TF.GenerationSoftware,KiCad,Pcbnew,5.1.0-rc1-unknown-9a8afdf~76~ubuntu18.04.1*
G04 #@! TF.CreationDate,2019-02-22T09:22:25+02:00
G04 #@! TF.ProjectId,ESP32-PoE_Rev_C,45535033-322d-4506-9f45-5f5265765f43,C*
G04 #@! TF.SameCoordinates,Original*
G04 #@! TF.FileFunction,Legend,Bot*
G04 #@! TF.FilePolarity,Positive*
%FSLAX46Y46*%
G04 Gerber Fmt 4.6, Leading zero omitted, Abs format (unit mm)*
G04 Created by KiCad (PCBNEW 5.1.0-rc1-unknown-9a8afdf~76~ubuntu18.04.1) date 2019-02-22 09:22:25*
%MOMM*%
%LPD*%
G04 APERTURE LIST*
%ADD10C,0.190500*%
%ADD11C,0.254000*%
%ADD12C,0.381000*%
%ADD13C,0.127000*%
%ADD14C,0.200000*%
%ADD15C,0.050000*%
%ADD16C,0.150000*%
%ADD17C,0.400000*%
%ADD18C,0.700000*%
%ADD19C,0.500000*%
%ADD20C,0.100000*%
%ADD21C,0.420000*%
%ADD22C,0.370000*%
%ADD23C,0.380000*%
%ADD24C,1.000000*%
%ADD25C,0.152400*%
%ADD26C,0.125000*%
%ADD27C,0.158750*%
%ADD28C,0.180000*%
G04 APERTURE END LIST*
D10*
X108621285Y-108929714D02*
X109056714Y-108929714D01*
X108839000Y-108929714D02*
X108839000Y-108167714D01*
X108911571Y-108276571D01*
X108984142Y-108349142D01*
X109056714Y-108385428D01*
D11*
X97182819Y-115424857D02*
X97231200Y-115473238D01*
X97376342Y-115521619D01*
X97473104Y-115521619D01*
X97618247Y-115473238D01*
X97715009Y-115376476D01*
X97763390Y-115279714D01*
X97811771Y-115086190D01*
X97811771Y-114941047D01*
X97763390Y-114747523D01*
X97715009Y-114650761D01*
X97618247Y-114554000D01*
X97473104Y-114505619D01*
X97376342Y-114505619D01*
X97231200Y-114554000D01*
X97182819Y-114602380D01*
X96602247Y-115521619D02*
X96699009Y-115473238D01*
X96747390Y-115424857D01*
X96795771Y-115328095D01*
X96795771Y-115037809D01*
X96747390Y-114941047D01*
X96699009Y-114892666D01*
X96602247Y-114844285D01*
X96457104Y-114844285D01*
X96360342Y-114892666D01*
X96311961Y-114941047D01*
X96263580Y-115037809D01*
X96263580Y-115328095D01*
X96311961Y-115424857D01*
X96360342Y-115473238D01*
X96457104Y-115521619D01*
X96602247Y-115521619D01*
X95828152Y-115521619D02*
X95828152Y-114844285D01*
X95828152Y-114941047D02*
X95779771Y-114892666D01*
X95683009Y-114844285D01*
X95537866Y-114844285D01*
X95441104Y-114892666D01*
X95392723Y-114989428D01*
X95392723Y-115521619D01*
X95392723Y-114989428D02*
X95344342Y-114892666D01*
X95247580Y-114844285D01*
X95102438Y-114844285D01*
X95005676Y-114892666D01*
X94957295Y-114989428D01*
X94957295Y-115521619D01*
X94473485Y-114844285D02*
X94473485Y-115860285D01*
X94473485Y-114892666D02*
X94376723Y-114844285D01*
X94183200Y-114844285D01*
X94086438Y-114892666D01*
X94038057Y-114941047D01*
X93989676Y-115037809D01*
X93989676Y-115328095D01*
X94038057Y-115424857D01*
X94086438Y-115473238D01*
X94183200Y-115521619D01*
X94376723Y-115521619D01*
X94473485Y-115473238D01*
X93409104Y-115521619D02*
X93505866Y-115473238D01*
X93554247Y-115376476D01*
X93554247Y-114505619D01*
X93022057Y-115521619D02*
X93022057Y-114844285D01*
X93022057Y-114505619D02*
X93070438Y-114554000D01*
X93022057Y-114602380D01*
X92973676Y-114554000D01*
X93022057Y-114505619D01*
X93022057Y-114602380D01*
X92102819Y-115521619D02*
X92102819Y-114989428D01*
X92151200Y-114892666D01*
X92247961Y-114844285D01*
X92441485Y-114844285D01*
X92538247Y-114892666D01*
X92102819Y-115473238D02*
X92199580Y-115521619D01*
X92441485Y-115521619D01*
X92538247Y-115473238D01*
X92586628Y-115376476D01*
X92586628Y-115279714D01*
X92538247Y-115182952D01*
X92441485Y-115134571D01*
X92199580Y-115134571D01*
X92102819Y-115086190D01*
X91619009Y-114844285D02*
X91619009Y-115521619D01*
X91619009Y-114941047D02*
X91570628Y-114892666D01*
X91473866Y-114844285D01*
X91328723Y-114844285D01*
X91231961Y-114892666D01*
X91183580Y-114989428D01*
X91183580Y-115521619D01*
X90844914Y-114844285D02*
X90457866Y-114844285D01*
X90699771Y-114505619D02*
X90699771Y-115376476D01*
X90651390Y-115473238D01*
X90554628Y-115521619D01*
X90457866Y-115521619D01*
X97173142Y-113616619D02*
X97511809Y-113132809D01*
X97753714Y-113616619D02*
X97753714Y-112600619D01*
X97366666Y-112600619D01*
X97269904Y-112649000D01*
X97221523Y-112697380D01*
X97173142Y-112794142D01*
X97173142Y-112939285D01*
X97221523Y-113036047D01*
X97269904Y-113084428D01*
X97366666Y-113132809D01*
X97753714Y-113132809D01*
X96592571Y-113616619D02*
X96689333Y-113568238D01*
X96737714Y-113519857D01*
X96786095Y-113423095D01*
X96786095Y-113132809D01*
X96737714Y-113036047D01*
X96689333Y-112987666D01*
X96592571Y-112939285D01*
X96447428Y-112939285D01*
X96350666Y-112987666D01*
X96302285Y-113036047D01*
X96253904Y-113132809D01*
X96253904Y-113423095D01*
X96302285Y-113519857D01*
X96350666Y-113568238D01*
X96447428Y-113616619D01*
X96592571Y-113616619D01*
X95818476Y-113616619D02*
X95818476Y-112600619D01*
X95818476Y-113084428D02*
X95237904Y-113084428D01*
X95237904Y-113616619D02*
X95237904Y-112600619D01*
X94802476Y-113568238D02*
X94657333Y-113616619D01*
X94415428Y-113616619D01*
X94318666Y-113568238D01*
X94270285Y-113519857D01*
X94221904Y-113423095D01*
X94221904Y-113326333D01*
X94270285Y-113229571D01*
X94318666Y-113181190D01*
X94415428Y-113132809D01*
X94608952Y-113084428D01*
X94705714Y-113036047D01*
X94754095Y-112987666D01*
X94802476Y-112890904D01*
X94802476Y-112794142D01*
X94754095Y-112697380D01*
X94705714Y-112649000D01*
X94608952Y-112600619D01*
X94367047Y-112600619D01*
X94221904Y-112649000D01*
X115787714Y-121490619D02*
X116368285Y-121490619D01*
X116078000Y-121490619D02*
X116078000Y-120474619D01*
X116174761Y-120619761D01*
X116271523Y-120716523D01*
X116368285Y-120764904D01*
X91149714Y-121490619D02*
X91730285Y-121490619D01*
X91440000Y-121490619D02*
X91440000Y-120474619D01*
X91536761Y-120619761D01*
X91633523Y-120716523D01*
X91730285Y-120764904D01*
X90150000Y-163830000D02*
X90150000Y-170150000D01*
X91313000Y-162687000D02*
X90150000Y-163830000D01*
X91313000Y-153797000D02*
X91313000Y-162687000D01*
X90150000Y-152654000D02*
X91313000Y-153797000D01*
X90150000Y-152654000D02*
X90150000Y-95150000D01*
X90150000Y-170150000D02*
X118150000Y-170150000D01*
D12*
X114046000Y-99840142D02*
X113538000Y-99840142D01*
X113320285Y-100638428D02*
X114046000Y-100638428D01*
X114046000Y-99114428D01*
X113320285Y-99114428D01*
X112739714Y-100565857D02*
X112522000Y-100638428D01*
X112159142Y-100638428D01*
X112014000Y-100565857D01*
X111941428Y-100493285D01*
X111868857Y-100348142D01*
X111868857Y-100203000D01*
X111941428Y-100057857D01*
X112014000Y-99985285D01*
X112159142Y-99912714D01*
X112449428Y-99840142D01*
X112594571Y-99767571D01*
X112667142Y-99695000D01*
X112739714Y-99549857D01*
X112739714Y-99404714D01*
X112667142Y-99259571D01*
X112594571Y-99187000D01*
X112449428Y-99114428D01*
X112086571Y-99114428D01*
X111868857Y-99187000D01*
X111215714Y-100638428D02*
X111215714Y-99114428D01*
X110635142Y-99114428D01*
X110490000Y-99187000D01*
X110417428Y-99259571D01*
X110344857Y-99404714D01*
X110344857Y-99622428D01*
X110417428Y-99767571D01*
X110490000Y-99840142D01*
X110635142Y-99912714D01*
X111215714Y-99912714D01*
X109836857Y-99114428D02*
X108893428Y-99114428D01*
X109401428Y-99695000D01*
X109183714Y-99695000D01*
X109038571Y-99767571D01*
X108966000Y-99840142D01*
X108893428Y-99985285D01*
X108893428Y-100348142D01*
X108966000Y-100493285D01*
X109038571Y-100565857D01*
X109183714Y-100638428D01*
X109619142Y-100638428D01*
X109764285Y-100565857D01*
X109836857Y-100493285D01*
X108312857Y-99259571D02*
X108240285Y-99187000D01*
X108095142Y-99114428D01*
X107732285Y-99114428D01*
X107587142Y-99187000D01*
X107514571Y-99259571D01*
X107442000Y-99404714D01*
X107442000Y-99549857D01*
X107514571Y-99767571D01*
X108385428Y-100638428D01*
X107442000Y-100638428D01*
X106788857Y-100057857D02*
X105627714Y-100057857D01*
X104902000Y-100638428D02*
X104902000Y-99114428D01*
X104321428Y-99114428D01*
X104176285Y-99187000D01*
X104103714Y-99259571D01*
X104031142Y-99404714D01*
X104031142Y-99622428D01*
X104103714Y-99767571D01*
X104176285Y-99840142D01*
X104321428Y-99912714D01*
X104902000Y-99912714D01*
X103160285Y-100638428D02*
X103305428Y-100565857D01*
X103378000Y-100493285D01*
X103450571Y-100348142D01*
X103450571Y-99912714D01*
X103378000Y-99767571D01*
X103305428Y-99695000D01*
X103160285Y-99622428D01*
X102942571Y-99622428D01*
X102797428Y-99695000D01*
X102724857Y-99767571D01*
X102652285Y-99912714D01*
X102652285Y-100348142D01*
X102724857Y-100493285D01*
X102797428Y-100565857D01*
X102942571Y-100638428D01*
X103160285Y-100638428D01*
X101999142Y-99840142D02*
X101491142Y-99840142D01*
X101273428Y-100638428D02*
X101999142Y-100638428D01*
X101999142Y-99114428D01*
X101273428Y-99114428D01*
D11*
X111112904Y-102313619D02*
X111451571Y-101829809D01*
X111693476Y-102313619D02*
X111693476Y-101297619D01*
X111306428Y-101297619D01*
X111209666Y-101346000D01*
X111161285Y-101394380D01*
X111112904Y-101491142D01*
X111112904Y-101636285D01*
X111161285Y-101733047D01*
X111209666Y-101781428D01*
X111306428Y-101829809D01*
X111693476Y-101829809D01*
X110290428Y-102265238D02*
X110387190Y-102313619D01*
X110580714Y-102313619D01*
X110677476Y-102265238D01*
X110725857Y-102168476D01*
X110725857Y-101781428D01*
X110677476Y-101684666D01*
X110580714Y-101636285D01*
X110387190Y-101636285D01*
X110290428Y-101684666D01*
X110242047Y-101781428D01*
X110242047Y-101878190D01*
X110725857Y-101974952D01*
X109903380Y-101636285D02*
X109661476Y-102313619D01*
X109419571Y-101636285D01*
X109032523Y-102216857D02*
X108984142Y-102265238D01*
X109032523Y-102313619D01*
X109080904Y-102265238D01*
X109032523Y-102216857D01*
X109032523Y-102313619D01*
X107968142Y-102216857D02*
X108016523Y-102265238D01*
X108161666Y-102313619D01*
X108258428Y-102313619D01*
X108403571Y-102265238D01*
X108500333Y-102168476D01*
X108548714Y-102071714D01*
X108597095Y-101878190D01*
X108597095Y-101733047D01*
X108548714Y-101539523D01*
X108500333Y-101442761D01*
X108403571Y-101346000D01*
X108258428Y-101297619D01*
X108161666Y-101297619D01*
X108016523Y-101346000D01*
X107968142Y-101394380D01*
D10*
X112340571Y-106553000D02*
X112376857Y-106516714D01*
X112449428Y-106407857D01*
X112485714Y-106335285D01*
X112522000Y-106226428D01*
X112558285Y-106045000D01*
X112558285Y-105899857D01*
X112522000Y-105718428D01*
X112485714Y-105609571D01*
X112449428Y-105537000D01*
X112376857Y-105428142D01*
X112340571Y-105391857D01*
X111614857Y-106190142D02*
X111651142Y-106226428D01*
X111760000Y-106262714D01*
X111832571Y-106262714D01*
X111941428Y-106226428D01*
X112014000Y-106153857D01*
X112050285Y-106081285D01*
X112086571Y-105936142D01*
X112086571Y-105827285D01*
X112050285Y-105682142D01*
X112014000Y-105609571D01*
X111941428Y-105537000D01*
X111832571Y-105500714D01*
X111760000Y-105500714D01*
X111651142Y-105537000D01*
X111614857Y-105573285D01*
X111360857Y-106553000D02*
X111324571Y-106516714D01*
X111252000Y-106407857D01*
X111215714Y-106335285D01*
X111179428Y-106226428D01*
X111143142Y-106045000D01*
X111143142Y-105899857D01*
X111179428Y-105718428D01*
X111215714Y-105609571D01*
X111252000Y-105537000D01*
X111324571Y-105428142D01*
X111360857Y-105391857D01*
X110236000Y-105573285D02*
X110199714Y-105537000D01*
X110127142Y-105500714D01*
X109945714Y-105500714D01*
X109873142Y-105537000D01*
X109836857Y-105573285D01*
X109800571Y-105645857D01*
X109800571Y-105718428D01*
X109836857Y-105827285D01*
X110272285Y-106262714D01*
X109800571Y-106262714D01*
X109328857Y-105500714D02*
X109256285Y-105500714D01*
X109183714Y-105537000D01*
X109147428Y-105573285D01*
X109111142Y-105645857D01*
X109074857Y-105791000D01*
X109074857Y-105972428D01*
X109111142Y-106117571D01*
X109147428Y-106190142D01*
X109183714Y-106226428D01*
X109256285Y-106262714D01*
X109328857Y-106262714D01*
X109401428Y-106226428D01*
X109437714Y-106190142D01*
X109474000Y-106117571D01*
X109510285Y-105972428D01*
X109510285Y-105791000D01*
X109474000Y-105645857D01*
X109437714Y-105573285D01*
X109401428Y-105537000D01*
X109328857Y-105500714D01*
X108349142Y-106262714D02*
X108784571Y-106262714D01*
X108566857Y-106262714D02*
X108566857Y-105500714D01*
X108639428Y-105609571D01*
X108712000Y-105682142D01*
X108784571Y-105718428D01*
X107913714Y-105827285D02*
X107986285Y-105791000D01*
X108022571Y-105754714D01*
X108058857Y-105682142D01*
X108058857Y-105645857D01*
X108022571Y-105573285D01*
X107986285Y-105537000D01*
X107913714Y-105500714D01*
X107768571Y-105500714D01*
X107696000Y-105537000D01*
X107659714Y-105573285D01*
X107623428Y-105645857D01*
X107623428Y-105682142D01*
X107659714Y-105754714D01*
X107696000Y-105791000D01*
X107768571Y-105827285D01*
X107913714Y-105827285D01*
X107986285Y-105863571D01*
X108022571Y-105899857D01*
X108058857Y-105972428D01*
X108058857Y-106117571D01*
X108022571Y-106190142D01*
X107986285Y-106226428D01*
X107913714Y-106262714D01*
X107768571Y-106262714D01*
X107696000Y-106226428D01*
X107659714Y-106190142D01*
X107623428Y-106117571D01*
X107623428Y-105972428D01*
X107659714Y-105899857D01*
X107696000Y-105863571D01*
X107768571Y-105827285D01*
X114535857Y-98007714D02*
X114535857Y-97245714D01*
X114209285Y-98007714D02*
X114209285Y-97608571D01*
X114245571Y-97536000D01*
X114318142Y-97499714D01*
X114427000Y-97499714D01*
X114499571Y-97536000D01*
X114535857Y-97572285D01*
X113955285Y-97499714D02*
X113665000Y-97499714D01*
X113846428Y-97245714D02*
X113846428Y-97898857D01*
X113810142Y-97971428D01*
X113737571Y-98007714D01*
X113665000Y-98007714D01*
X113519857Y-97499714D02*
X113229571Y-97499714D01*
X113411000Y-97245714D02*
X113411000Y-97898857D01*
X113374714Y-97971428D01*
X113302142Y-98007714D01*
X113229571Y-98007714D01*
X112975571Y-97499714D02*
X112975571Y-98261714D01*
X112975571Y-97536000D02*
X112903000Y-97499714D01*
X112757857Y-97499714D01*
X112685285Y-97536000D01*
X112649000Y-97572285D01*
X112612714Y-97644857D01*
X112612714Y-97862571D01*
X112649000Y-97935142D01*
X112685285Y-97971428D01*
X112757857Y-98007714D01*
X112903000Y-98007714D01*
X112975571Y-97971428D01*
X112322428Y-97971428D02*
X112249857Y-98007714D01*
X112104714Y-98007714D01*
X112032142Y-97971428D01*
X111995857Y-97898857D01*
X111995857Y-97862571D01*
X112032142Y-97790000D01*
X112104714Y-97753714D01*
X112213571Y-97753714D01*
X112286142Y-97717428D01*
X112322428Y-97644857D01*
X112322428Y-97608571D01*
X112286142Y-97536000D01*
X112213571Y-97499714D01*
X112104714Y-97499714D01*
X112032142Y-97536000D01*
X111669285Y-97935142D02*
X111633000Y-97971428D01*
X111669285Y-98007714D01*
X111705571Y-97971428D01*
X111669285Y-97935142D01*
X111669285Y-98007714D01*
X111669285Y-97536000D02*
X111633000Y-97572285D01*
X111669285Y-97608571D01*
X111705571Y-97572285D01*
X111669285Y-97536000D01*
X111669285Y-97608571D01*
X110762142Y-97209428D02*
X111415285Y-98189142D01*
X109963857Y-97209428D02*
X110617000Y-98189142D01*
X109782428Y-97499714D02*
X109637285Y-98007714D01*
X109492142Y-97644857D01*
X109347000Y-98007714D01*
X109201857Y-97499714D01*
X108984142Y-97499714D02*
X108839000Y-98007714D01*
X108693857Y-97644857D01*
X108548714Y-98007714D01*
X108403571Y-97499714D01*
X108185857Y-97499714D02*
X108040714Y-98007714D01*
X107895571Y-97644857D01*
X107750428Y-98007714D01*
X107605285Y-97499714D01*
X107315000Y-97935142D02*
X107278714Y-97971428D01*
X107315000Y-98007714D01*
X107351285Y-97971428D01*
X107315000Y-97935142D01*
X107315000Y-98007714D01*
X106843285Y-98007714D02*
X106915857Y-97971428D01*
X106952142Y-97935142D01*
X106988428Y-97862571D01*
X106988428Y-97644857D01*
X106952142Y-97572285D01*
X106915857Y-97536000D01*
X106843285Y-97499714D01*
X106734428Y-97499714D01*
X106661857Y-97536000D01*
X106625571Y-97572285D01*
X106589285Y-97644857D01*
X106589285Y-97862571D01*
X106625571Y-97935142D01*
X106661857Y-97971428D01*
X106734428Y-98007714D01*
X106843285Y-98007714D01*
X106153857Y-98007714D02*
X106226428Y-97971428D01*
X106262714Y-97898857D01*
X106262714Y-97245714D01*
X105863571Y-98007714D02*
X105863571Y-97499714D01*
X105863571Y-97245714D02*
X105899857Y-97282000D01*
X105863571Y-97318285D01*
X105827285Y-97282000D01*
X105863571Y-97245714D01*
X105863571Y-97318285D01*
X105500714Y-98007714D02*
X105500714Y-97499714D01*
X105500714Y-97572285D02*
X105464428Y-97536000D01*
X105391857Y-97499714D01*
X105283000Y-97499714D01*
X105210428Y-97536000D01*
X105174142Y-97608571D01*
X105174142Y-98007714D01*
X105174142Y-97608571D02*
X105137857Y-97536000D01*
X105065285Y-97499714D01*
X104956428Y-97499714D01*
X104883857Y-97536000D01*
X104847571Y-97608571D01*
X104847571Y-98007714D01*
X104194428Y-97971428D02*
X104267000Y-98007714D01*
X104412142Y-98007714D01*
X104484714Y-97971428D01*
X104521000Y-97898857D01*
X104521000Y-97608571D01*
X104484714Y-97536000D01*
X104412142Y-97499714D01*
X104267000Y-97499714D01*
X104194428Y-97536000D01*
X104158142Y-97608571D01*
X104158142Y-97681142D01*
X104521000Y-97753714D01*
X103904142Y-98007714D02*
X103505000Y-97499714D01*
X103904142Y-97499714D02*
X103505000Y-98007714D01*
X103214714Y-97935142D02*
X103178428Y-97971428D01*
X103214714Y-98007714D01*
X103251000Y-97971428D01*
X103214714Y-97935142D01*
X103214714Y-98007714D01*
X102525285Y-97971428D02*
X102597857Y-98007714D01*
X102743000Y-98007714D01*
X102815571Y-97971428D01*
X102851857Y-97935142D01*
X102888142Y-97862571D01*
X102888142Y-97644857D01*
X102851857Y-97572285D01*
X102815571Y-97536000D01*
X102743000Y-97499714D01*
X102597857Y-97499714D01*
X102525285Y-97536000D01*
X102089857Y-98007714D02*
X102162428Y-97971428D01*
X102198714Y-97935142D01*
X102235000Y-97862571D01*
X102235000Y-97644857D01*
X102198714Y-97572285D01*
X102162428Y-97536000D01*
X102089857Y-97499714D01*
X101981000Y-97499714D01*
X101908428Y-97536000D01*
X101872142Y-97572285D01*
X101835857Y-97644857D01*
X101835857Y-97862571D01*
X101872142Y-97935142D01*
X101908428Y-97971428D01*
X101981000Y-98007714D01*
X102089857Y-98007714D01*
X101509285Y-98007714D02*
X101509285Y-97499714D01*
X101509285Y-97572285D02*
X101473000Y-97536000D01*
X101400428Y-97499714D01*
X101291571Y-97499714D01*
X101219000Y-97536000D01*
X101182714Y-97608571D01*
X101182714Y-98007714D01*
X101182714Y-97608571D02*
X101146428Y-97536000D01*
X101073857Y-97499714D01*
X100965000Y-97499714D01*
X100892428Y-97536000D01*
X100856142Y-97608571D01*
X100856142Y-98007714D01*
D11*
X90150000Y-95150000D02*
X118150000Y-95150000D01*
X118150000Y-170150000D02*
X118150000Y-95150000D01*
X98515000Y-111312000D02*
X98515000Y-113812000D01*
X109765000Y-111312000D02*
X109765000Y-113812000D01*
X100140000Y-115387000D02*
X108140000Y-115387000D01*
X98515000Y-109387000D02*
X109765000Y-109387000D01*
X104340000Y-109687000D02*
X104340000Y-110587000D01*
X104340000Y-110587000D02*
X102440000Y-110587000D01*
X102440000Y-110587000D02*
X102440000Y-111987000D01*
X102440000Y-111987000D02*
X104040000Y-111987000D01*
X104040000Y-111987000D02*
X105140000Y-112587000D01*
X105240000Y-111987000D02*
X106940000Y-111987000D01*
X106940000Y-111987000D02*
X106940000Y-110587000D01*
X106940000Y-110587000D02*
X105040000Y-110587000D01*
X105040000Y-110587000D02*
X105040000Y-109687000D01*
X105040000Y-109687000D02*
X105040000Y-109687000D01*
D13*
X104388528Y-112635528D02*
G75*
G03X104740000Y-111787000I-848528J848528D01*
G01*
X104740000Y-111787000D02*
X104840000Y-111887000D01*
X104740000Y-111787000D02*
X104640000Y-111887000D01*
D14*
X108021873Y-151742140D02*
G75*
G03X108021873Y-151742140I-176013J0D01*
G01*
D11*
X108645960Y-151343360D02*
X108419900Y-151343360D01*
X113243360Y-151343360D02*
X112842040Y-151343360D01*
X113243360Y-150942040D02*
X113243360Y-151343360D01*
X113243360Y-146344640D02*
X113243360Y-146745960D01*
X112842040Y-146344640D02*
X113243360Y-146344640D01*
X108244640Y-146344640D02*
X108645960Y-146344640D01*
X108244640Y-146745960D02*
X108244640Y-146344640D01*
X108244640Y-151168100D02*
X108244640Y-150942040D01*
X108419900Y-151343360D02*
X108244640Y-151168100D01*
X100266500Y-151384000D02*
X94805500Y-151384000D01*
X100266500Y-144145000D02*
X100266500Y-151765000D01*
X94805500Y-151765000D02*
X94805500Y-144145000D01*
X100266500Y-144145000D02*
X94805500Y-144145000D01*
X94805500Y-151765000D02*
X100266500Y-151765000D01*
X95300800Y-165671500D02*
X94170500Y-165671500D01*
X95300800Y-168478200D02*
X94170500Y-168478200D01*
X104305100Y-119456200D02*
X104305100Y-116509800D01*
X104317800Y-119456200D02*
X104495600Y-119456200D01*
X104292400Y-116509800D02*
X104508300Y-116509800D01*
X108115100Y-119456200D02*
X108305600Y-119456200D01*
X108305600Y-119456200D02*
X108305600Y-116509800D01*
X108305600Y-116509800D02*
X108089700Y-116509800D01*
X92875100Y-109804200D02*
X92875100Y-106857800D01*
X92887800Y-109804200D02*
X93065600Y-109804200D01*
X92862400Y-106857800D02*
X93078300Y-106857800D01*
X96685100Y-109804200D02*
X96875600Y-109804200D01*
X96875600Y-109804200D02*
X96875600Y-106857800D01*
X96875600Y-106857800D02*
X96659700Y-106857800D01*
X109296200Y-143979900D02*
X106349800Y-143979900D01*
X109296200Y-143967200D02*
X109296200Y-143789400D01*
X106349800Y-143992600D02*
X106349800Y-143776700D01*
X109296200Y-140169900D02*
X109296200Y-139979400D01*
X109296200Y-139979400D02*
X106349800Y-139979400D01*
X106349800Y-139979400D02*
X106349800Y-140195300D01*
X105029000Y-126111000D02*
X106045000Y-126111000D01*
X105029000Y-124587000D02*
X106045000Y-124587000D01*
X94615000Y-139573000D02*
X95123000Y-139573000D01*
X94615000Y-142113000D02*
X95123000Y-142113000D01*
X96266000Y-139128500D02*
X96520000Y-139128500D01*
X96266000Y-139128500D02*
X96012000Y-139128500D01*
X96266000Y-138239500D02*
X96012000Y-138239500D01*
X96266000Y-138239500D02*
X96520000Y-138239500D01*
X107950000Y-123444000D02*
X106426000Y-123444000D01*
X107950000Y-121158000D02*
X106426000Y-121158000D01*
D13*
X104267000Y-152908000D02*
X103251000Y-152908000D01*
X103251000Y-152908000D02*
X103251000Y-154178000D01*
X103251000Y-154178000D02*
X104267000Y-154178000D01*
X106299000Y-152908000D02*
X106299000Y-154178000D01*
X106299000Y-154178000D02*
X105283000Y-154178000D01*
X106299000Y-152908000D02*
X105283000Y-152908000D01*
D11*
X111066580Y-165719760D02*
X109138720Y-169064940D01*
X113123980Y-169430700D02*
X109359700Y-169428160D01*
X113421160Y-169148760D02*
X111442500Y-165724840D01*
X111107220Y-165668960D02*
G75*
G02X111396780Y-165668960I144780J-144780D01*
G01*
X113423700Y-169184320D02*
G75*
G02X113202720Y-169425620I-231140J-10160D01*
G01*
X109352080Y-169428160D02*
G75*
G02X109128560Y-169133520I35560J259080D01*
G01*
D15*
X111066580Y-168396920D02*
X111188500Y-168485820D01*
X111188500Y-168485820D02*
X111244380Y-168534080D01*
X111244380Y-168534080D02*
X111328200Y-168628060D01*
X111404400Y-168744900D02*
X111650780Y-169161460D01*
X111328200Y-168628060D02*
X111404400Y-168744900D01*
X111650780Y-169161460D02*
X111729520Y-169148760D01*
X111732060Y-169148760D02*
X111765080Y-169128440D01*
X111770160Y-169123360D02*
X111787940Y-169101750D01*
X111787940Y-169100500D02*
X111805720Y-169052240D01*
X111805720Y-169052240D02*
X111815980Y-168978580D01*
X111815880Y-168978580D02*
X111818420Y-168851580D01*
X111818420Y-168851580D02*
X111803180Y-168716960D01*
X111803180Y-168716960D02*
X111770160Y-168595040D01*
X111770160Y-168589960D02*
X111726980Y-168501060D01*
X111726980Y-168501060D02*
X111673640Y-168422320D01*
X111673640Y-168422320D02*
X111427260Y-168198800D01*
X111429800Y-168201340D02*
X111925100Y-167896540D01*
X111925100Y-167896540D02*
X112003840Y-168036240D01*
X112003840Y-168036240D02*
X112087660Y-168160700D01*
X112087660Y-168160700D02*
X112090200Y-168219120D01*
X112092740Y-168219120D02*
X112077500Y-168287700D01*
X112077500Y-168287700D02*
X112090200Y-168574720D01*
X112090200Y-168574720D02*
X112059720Y-168633140D01*
X112059720Y-168633140D02*
X112029240Y-168716960D01*
X112029240Y-168716960D02*
X112006380Y-168841420D01*
X112006380Y-168841420D02*
X111998760Y-168953180D01*
X111998760Y-168953180D02*
X112014000Y-169067480D01*
X112014000Y-169067480D02*
X112044480Y-169136060D01*
X112044480Y-169136060D02*
X112085120Y-169169080D01*
X112085120Y-169169080D02*
X112125760Y-169179240D01*
X112125760Y-169179240D02*
X112166400Y-169164000D01*
X112171480Y-169161460D02*
X112199420Y-169130980D01*
X112199420Y-169130980D02*
X112486440Y-168315640D01*
X112488980Y-168318180D02*
X112501680Y-168257220D01*
X112501680Y-168254680D02*
X112501680Y-168140380D01*
X112501680Y-168137840D02*
X112486440Y-168046400D01*
X112486440Y-168043000D02*
X112417860Y-167903000D01*
X112417860Y-167906700D02*
X112285780Y-167703500D01*
X112087660Y-167383460D02*
X111993680Y-167264080D01*
X111993680Y-167264080D02*
X111950500Y-167218360D01*
X111947960Y-167215820D02*
X111914940Y-167192960D01*
X111914940Y-167192960D02*
X111843820Y-167172640D01*
X111843820Y-167172640D02*
X111180880Y-167083740D01*
X111180880Y-167083740D02*
X110909100Y-167035480D01*
X110906560Y-167038020D02*
X110792260Y-166989760D01*
X110792260Y-166989760D02*
X110619540Y-166880540D01*
X110614460Y-166880540D02*
X110210600Y-167579040D01*
X110210600Y-167579040D02*
X110342680Y-167700960D01*
X110345220Y-167703500D02*
X110444280Y-167845740D01*
X110550960Y-167954960D02*
X110761780Y-168153080D01*
X110439200Y-167843200D02*
X110553500Y-167957500D01*
D11*
X111937800Y-167360600D02*
X110794800Y-168026080D01*
X111732060Y-167294560D02*
X110708440Y-167932100D01*
X111460280Y-167225980D02*
X110571280Y-167800020D01*
X111158020Y-167190420D02*
X110459520Y-167650160D01*
X110893860Y-167147240D02*
X110357920Y-167533320D01*
X110738920Y-167081200D02*
X110512860Y-167271700D01*
X111841280Y-167292020D02*
X110863380Y-167147240D01*
X110655100Y-167030400D02*
X110474760Y-167327580D01*
X110479840Y-167652700D02*
X110657640Y-167873680D01*
X112171480Y-167736520D02*
X112372140Y-168112440D01*
X112016540Y-167787320D02*
X112303560Y-168226740D01*
X112400080Y-168191180D02*
X112128300Y-169024300D01*
X112204500Y-168148000D02*
X112222280Y-168549320D01*
X112222280Y-168556940D02*
X112130840Y-168882060D01*
X111676180Y-168785540D02*
X111696500Y-169034460D01*
X111602520Y-168541700D02*
X111676180Y-168785540D01*
X111246920Y-168216580D02*
X111602520Y-168541700D01*
X111498380Y-168643300D02*
X111191040Y-168318180D01*
X111696500Y-169034460D02*
X111498380Y-168643300D01*
X112372140Y-167335200D02*
X109159040Y-169275760D01*
X112158780Y-167617140D02*
X111053880Y-168282620D01*
X96672400Y-123063000D02*
X95961200Y-123063000D01*
X96672400Y-122224800D02*
X96672400Y-123063000D01*
X93827600Y-122224800D02*
X93827600Y-123063000D01*
X94538800Y-123063000D02*
X93827600Y-123063000D01*
X107696000Y-126111000D02*
X106680000Y-126111000D01*
X107696000Y-127635000D02*
X106680000Y-127635000D01*
X96075500Y-132715000D02*
X96075500Y-132969000D01*
X96075500Y-132715000D02*
X96075500Y-132461000D01*
X96964500Y-132715000D02*
X96964500Y-132461000D01*
X96964500Y-132715000D02*
X96964500Y-132969000D01*
X95059500Y-132715000D02*
X95059500Y-132461000D01*
X95059500Y-132715000D02*
X95059500Y-132969000D01*
X94170500Y-132715000D02*
X94170500Y-132969000D01*
X94170500Y-132715000D02*
X94170500Y-132461000D01*
X106466000Y-128945000D02*
X106566000Y-128945000D01*
X111366000Y-128945000D02*
X111466000Y-128945000D01*
X111466000Y-128945000D02*
X111466000Y-129445000D01*
X111466000Y-133445000D02*
X111466000Y-133945000D01*
X111466000Y-133945000D02*
X111366000Y-133945000D01*
X106566000Y-133945000D02*
X106466000Y-133945000D01*
X106466000Y-133945000D02*
X106466000Y-133445000D01*
X106466000Y-129445000D02*
X106466000Y-128945000D01*
X116903500Y-113284000D02*
X116903500Y-113030000D01*
X116903500Y-113284000D02*
X116903500Y-113538000D01*
X116014500Y-113284000D02*
X116014500Y-113538000D01*
X116014500Y-113284000D02*
X116014500Y-113030000D01*
X115160400Y-115255200D02*
X115160400Y-117160200D01*
X113788800Y-115255200D02*
X113788800Y-117160200D01*
X113788800Y-116169600D02*
X115160400Y-117160200D01*
X115160400Y-115255200D02*
X113788800Y-116169600D01*
X115744600Y-116207700D02*
X113268100Y-116207700D01*
X111693300Y-117185600D02*
X112988700Y-117185600D01*
X111706000Y-115179000D02*
X113001400Y-115179000D01*
X111680600Y-117185600D02*
X111680600Y-115191700D01*
X117332100Y-117198300D02*
X115960500Y-117198300D01*
X117332100Y-115179000D02*
X115960500Y-115179000D01*
X117332100Y-117198300D02*
X117332100Y-115179000D01*
X93853000Y-143573500D02*
X94107000Y-143573500D01*
X93853000Y-143573500D02*
X93599000Y-143573500D01*
X93853000Y-142684500D02*
X93599000Y-142684500D01*
X93853000Y-142684500D02*
X94107000Y-142684500D01*
D13*
X104597200Y-150495000D02*
X105435400Y-150495000D01*
X104597200Y-148717000D02*
X105435400Y-148717000D01*
D11*
X94081600Y-129286000D02*
X94792800Y-129286000D01*
X94081600Y-130124200D02*
X94081600Y-129286000D01*
X96926400Y-130124200D02*
X96926400Y-129286000D01*
X96215200Y-129286000D02*
X96926400Y-129286000D01*
X99949000Y-153670000D02*
X100965000Y-153670000D01*
X99949000Y-152146000D02*
X100965000Y-152146000D01*
X104140000Y-144780000D02*
X105156000Y-144780000D01*
X104140000Y-143256000D02*
X105156000Y-143256000D01*
X105410000Y-151384000D02*
X104394000Y-151384000D01*
X105410000Y-152908000D02*
X104394000Y-152908000D01*
X106680000Y-144780000D02*
X105664000Y-144780000D01*
X106680000Y-146304000D02*
X105664000Y-146304000D01*
X115316000Y-158242000D02*
X115316000Y-156718000D01*
X117602000Y-158242000D02*
X117602000Y-156718000D01*
D13*
X101803200Y-119507000D02*
X102641400Y-119507000D01*
X101803200Y-117729000D02*
X102641400Y-117729000D01*
D11*
X96672400Y-136144000D02*
X95961200Y-136144000D01*
X96672400Y-135305800D02*
X96672400Y-136144000D01*
X93827600Y-135305800D02*
X93827600Y-136144000D01*
X94538800Y-136144000D02*
X93827600Y-136144000D01*
X98552000Y-166497000D02*
X98552000Y-167513000D01*
X100076000Y-166497000D02*
X100076000Y-167513000D01*
X90170000Y-121950000D02*
X92710000Y-121950000D01*
X92456000Y-127030000D02*
X92710000Y-127284000D01*
X92710000Y-126776000D02*
X92456000Y-127030000D01*
X92710000Y-124236000D02*
X92710000Y-122458000D01*
X92456000Y-124490000D02*
X92710000Y-124236000D01*
X92710000Y-124744000D02*
X92456000Y-124490000D01*
X92710000Y-126776000D02*
X92710000Y-124744000D01*
X92710000Y-122458000D02*
X92710000Y-121950000D01*
X92710000Y-122204000D02*
X92456000Y-121950000D01*
X90424000Y-121950000D02*
X90170000Y-122204000D01*
X92710000Y-129316000D02*
X92710000Y-127284000D01*
X92456000Y-129570000D02*
X92710000Y-129316000D01*
X92710000Y-132364000D02*
X92456000Y-132110000D01*
X92710000Y-131856000D02*
X92710000Y-129824000D01*
X92456000Y-132110000D02*
X92710000Y-131856000D01*
X90170000Y-131856000D02*
X90424000Y-132110000D01*
X90170000Y-129824000D02*
X90170000Y-131856000D01*
X90424000Y-129570000D02*
X90170000Y-129824000D01*
X90170000Y-129316000D02*
X90424000Y-129570000D01*
X90170000Y-127284000D02*
X90170000Y-129316000D01*
X90424000Y-127030000D02*
X90170000Y-127284000D01*
X90170000Y-126776000D02*
X90424000Y-127030000D01*
X90170000Y-124744000D02*
X90170000Y-126776000D01*
X90424000Y-124490000D02*
X90170000Y-124744000D01*
X90170000Y-124236000D02*
X90424000Y-124490000D01*
X90170000Y-122204000D02*
X90170000Y-124236000D01*
X90170000Y-121950000D02*
X90170000Y-122204000D01*
X90424000Y-132110000D02*
X90170000Y-132364000D01*
X90170000Y-132364000D02*
X90170000Y-134396000D01*
X90170000Y-136936000D02*
X90424000Y-137190000D01*
X92710000Y-134396000D02*
X92710000Y-132364000D01*
X92710000Y-129824000D02*
X92456000Y-129570000D01*
X92456000Y-137190000D02*
X92710000Y-136936000D01*
X90170000Y-134904000D02*
X90170000Y-136936000D01*
X90424000Y-134650000D02*
X90170000Y-134904000D01*
X92710000Y-136936000D02*
X92710000Y-134904000D01*
X92456000Y-134650000D02*
X92710000Y-134396000D01*
X92710000Y-134904000D02*
X92456000Y-134650000D01*
X90170000Y-134396000D02*
X90424000Y-134650000D01*
X90170000Y-136936000D02*
X90424000Y-137190000D01*
X92456000Y-137190000D02*
X92710000Y-136936000D01*
X92710000Y-136936000D02*
X92710000Y-134904000D01*
X90170000Y-134904000D02*
X90170000Y-136936000D01*
X90424000Y-134650000D02*
X90170000Y-134904000D01*
X92710000Y-134904000D02*
X92456000Y-134650000D01*
X92710000Y-139984000D02*
X92456000Y-139730000D01*
X90424000Y-139730000D02*
X90170000Y-139984000D01*
X90170000Y-139984000D02*
X90170000Y-142016000D01*
X92710000Y-142016000D02*
X92710000Y-139984000D01*
X92456000Y-142270000D02*
X92710000Y-142016000D01*
X90170000Y-142016000D02*
X90424000Y-142270000D01*
X90170000Y-139476000D02*
X90424000Y-139730000D01*
X92710000Y-139984000D02*
X92456000Y-139730000D01*
X92456000Y-139730000D02*
X92710000Y-139476000D01*
X92710000Y-142016000D02*
X92710000Y-139984000D01*
X90424000Y-139730000D02*
X90170000Y-139984000D01*
X90170000Y-139984000D02*
X90170000Y-142016000D01*
X92456000Y-142270000D02*
X92710000Y-142016000D01*
X92710000Y-139476000D02*
X92710000Y-137444000D01*
X90170000Y-142016000D02*
X90424000Y-142270000D01*
X90170000Y-137444000D02*
X90170000Y-139476000D01*
X90424000Y-137190000D02*
X90170000Y-137444000D01*
X92710000Y-137444000D02*
X92456000Y-137190000D01*
X92710000Y-142524000D02*
X92456000Y-142270000D01*
X90424000Y-142270000D02*
X90170000Y-142524000D01*
X90170000Y-142524000D02*
X90170000Y-144556000D01*
X90170000Y-147096000D02*
X90424000Y-147350000D01*
X92710000Y-144556000D02*
X92710000Y-142524000D01*
X92456000Y-147350000D02*
X92710000Y-147096000D01*
X90424000Y-147350000D02*
X92456000Y-147350000D01*
X90170000Y-145064000D02*
X90170000Y-147096000D01*
X90424000Y-144810000D02*
X90170000Y-145064000D01*
X92710000Y-147096000D02*
X92710000Y-145064000D01*
X92456000Y-144810000D02*
X92710000Y-144556000D01*
X92710000Y-145064000D02*
X92456000Y-144810000D01*
X90170000Y-144556000D02*
X90424000Y-144810000D01*
X90170000Y-147096000D02*
X90424000Y-147350000D01*
X92456000Y-147350000D02*
X92710000Y-147096000D01*
X92710000Y-147096000D02*
X92710000Y-145064000D01*
X90170000Y-145064000D02*
X90170000Y-147096000D01*
X90424000Y-144810000D02*
X90170000Y-145064000D01*
X92710000Y-145064000D02*
X92456000Y-144810000D01*
X115570000Y-121950000D02*
X118110000Y-121950000D01*
X117856000Y-127030000D02*
X118110000Y-127284000D01*
X118110000Y-126776000D02*
X117856000Y-127030000D01*
X118110000Y-124236000D02*
X118110000Y-122458000D01*
X117856000Y-124490000D02*
X118110000Y-124236000D01*
X118110000Y-124744000D02*
X117856000Y-124490000D01*
X118110000Y-126776000D02*
X118110000Y-124744000D01*
X118110000Y-122458000D02*
X118110000Y-121950000D01*
X118110000Y-122204000D02*
X117856000Y-121950000D01*
X115824000Y-121950000D02*
X115570000Y-122204000D01*
X118110000Y-129316000D02*
X118110000Y-127284000D01*
X117856000Y-129570000D02*
X118110000Y-129316000D01*
X118110000Y-132364000D02*
X117856000Y-132110000D01*
X118110000Y-131856000D02*
X118110000Y-129824000D01*
X117856000Y-132110000D02*
X118110000Y-131856000D01*
X115570000Y-131856000D02*
X115824000Y-132110000D01*
X115570000Y-129824000D02*
X115570000Y-131856000D01*
X115824000Y-129570000D02*
X115570000Y-129824000D01*
X115570000Y-129316000D02*
X115824000Y-129570000D01*
X115570000Y-127284000D02*
X115570000Y-129316000D01*
X115824000Y-127030000D02*
X115570000Y-127284000D01*
X115570000Y-126776000D02*
X115824000Y-127030000D01*
X115570000Y-124744000D02*
X115570000Y-126776000D01*
X115824000Y-124490000D02*
X115570000Y-124744000D01*
X115570000Y-124236000D02*
X115824000Y-124490000D01*
X115570000Y-122204000D02*
X115570000Y-124236000D01*
X115570000Y-121950000D02*
X115570000Y-122204000D01*
X115824000Y-132110000D02*
X115570000Y-132364000D01*
X115570000Y-132364000D02*
X115570000Y-134396000D01*
X115570000Y-136936000D02*
X115824000Y-137190000D01*
X118110000Y-134396000D02*
X118110000Y-132364000D01*
X118110000Y-129824000D02*
X117856000Y-129570000D01*
X117856000Y-137190000D02*
X118110000Y-136936000D01*
X115570000Y-134904000D02*
X115570000Y-136936000D01*
X115824000Y-134650000D02*
X115570000Y-134904000D01*
X118110000Y-136936000D02*
X118110000Y-134904000D01*
X117856000Y-134650000D02*
X118110000Y-134396000D01*
X118110000Y-134904000D02*
X117856000Y-134650000D01*
X115570000Y-134396000D02*
X115824000Y-134650000D01*
X115570000Y-136936000D02*
X115824000Y-137190000D01*
X117856000Y-137190000D02*
X118110000Y-136936000D01*
X118110000Y-136936000D02*
X118110000Y-134904000D01*
X115570000Y-134904000D02*
X115570000Y-136936000D01*
X115824000Y-134650000D02*
X115570000Y-134904000D01*
X118110000Y-134904000D02*
X117856000Y-134650000D01*
X118110000Y-139984000D02*
X117856000Y-139730000D01*
X115824000Y-139730000D02*
X115570000Y-139984000D01*
X115570000Y-139984000D02*
X115570000Y-142016000D01*
X118110000Y-142016000D02*
X118110000Y-139984000D01*
X117856000Y-142270000D02*
X118110000Y-142016000D01*
X115570000Y-142016000D02*
X115824000Y-142270000D01*
X115570000Y-139476000D02*
X115824000Y-139730000D01*
X118110000Y-139984000D02*
X117856000Y-139730000D01*
X117856000Y-139730000D02*
X118110000Y-139476000D01*
X118110000Y-142016000D02*
X118110000Y-139984000D01*
X115824000Y-139730000D02*
X115570000Y-139984000D01*
X115570000Y-139984000D02*
X115570000Y-142016000D01*
X117856000Y-142270000D02*
X118110000Y-142016000D01*
X118110000Y-139476000D02*
X118110000Y-137444000D01*
X115570000Y-142016000D02*
X115824000Y-142270000D01*
X115570000Y-137444000D02*
X115570000Y-139476000D01*
X115824000Y-137190000D02*
X115570000Y-137444000D01*
X118110000Y-137444000D02*
X117856000Y-137190000D01*
X118110000Y-142524000D02*
X117856000Y-142270000D01*
X115824000Y-142270000D02*
X115570000Y-142524000D01*
X115570000Y-142524000D02*
X115570000Y-144556000D01*
X115570000Y-147096000D02*
X115824000Y-147350000D01*
X118110000Y-144556000D02*
X118110000Y-142524000D01*
X117856000Y-147350000D02*
X118110000Y-147096000D01*
X115824000Y-147350000D02*
X117856000Y-147350000D01*
X115570000Y-145064000D02*
X115570000Y-147096000D01*
X115824000Y-144810000D02*
X115570000Y-145064000D01*
X118110000Y-147096000D02*
X118110000Y-145064000D01*
X117856000Y-144810000D02*
X118110000Y-144556000D01*
X118110000Y-145064000D02*
X117856000Y-144810000D01*
X115570000Y-144556000D02*
X115824000Y-144810000D01*
X115570000Y-147096000D02*
X115824000Y-147350000D01*
X117856000Y-147350000D02*
X118110000Y-147096000D01*
X118110000Y-147096000D02*
X118110000Y-145064000D01*
X115570000Y-145064000D02*
X115570000Y-147096000D01*
X115824000Y-144810000D02*
X115570000Y-145064000D01*
X118110000Y-145064000D02*
X117856000Y-144810000D01*
X105943400Y-141859000D02*
X105232200Y-141859000D01*
X105943400Y-141020800D02*
X105943400Y-141859000D01*
X103098600Y-141020800D02*
X103098600Y-141859000D01*
X103809800Y-141859000D02*
X103098600Y-141859000D01*
X91694000Y-149542500D02*
X91948000Y-149542500D01*
X91694000Y-149542500D02*
X91440000Y-149542500D01*
X91694000Y-148653500D02*
X91440000Y-148653500D01*
X91694000Y-148653500D02*
X91948000Y-148653500D01*
X91694000Y-148653500D02*
X91948000Y-148653500D01*
X91694000Y-148653500D02*
X91440000Y-148653500D01*
X91694000Y-147764500D02*
X91440000Y-147764500D01*
X91694000Y-147764500D02*
X91948000Y-147764500D01*
X98107500Y-166751000D02*
X98107500Y-166497000D01*
X98107500Y-166751000D02*
X98107500Y-167005000D01*
X97218500Y-166751000D02*
X97218500Y-167005000D01*
X97218500Y-166751000D02*
X97218500Y-166497000D01*
X95948500Y-124587000D02*
X95948500Y-124841000D01*
X95948500Y-124587000D02*
X95948500Y-124333000D01*
X96837500Y-124587000D02*
X96837500Y-124333000D01*
X96837500Y-124587000D02*
X96837500Y-124841000D01*
X94742000Y-169735500D02*
X94996000Y-169735500D01*
X94742000Y-169735500D02*
X94488000Y-169735500D01*
X94742000Y-168846500D02*
X94488000Y-168846500D01*
X94742000Y-168846500D02*
X94996000Y-168846500D01*
X109283500Y-153416000D02*
X109283500Y-153670000D01*
X109283500Y-153416000D02*
X109283500Y-153162000D01*
X110172500Y-153416000D02*
X110172500Y-153162000D01*
X110172500Y-153416000D02*
X110172500Y-153670000D01*
X107886500Y-153416000D02*
X107886500Y-153670000D01*
X107886500Y-153416000D02*
X107886500Y-153162000D01*
X108775500Y-153416000D02*
X108775500Y-153162000D01*
X108775500Y-153416000D02*
X108775500Y-153670000D01*
X111569500Y-153416000D02*
X111569500Y-153670000D01*
X111569500Y-153416000D02*
X111569500Y-153162000D01*
X112458500Y-153416000D02*
X112458500Y-153162000D01*
X112458500Y-153416000D02*
X112458500Y-153670000D01*
X110172500Y-153416000D02*
X110172500Y-153670000D01*
X110172500Y-153416000D02*
X110172500Y-153162000D01*
X111061500Y-153416000D02*
X111061500Y-153162000D01*
X111061500Y-153416000D02*
X111061500Y-153670000D01*
X114236500Y-152654000D02*
X114236500Y-152908000D01*
X114236500Y-152654000D02*
X114236500Y-152400000D01*
X115125500Y-152654000D02*
X115125500Y-152400000D01*
X115125500Y-152654000D02*
X115125500Y-152908000D01*
X115506500Y-152019000D02*
X115506500Y-152273000D01*
X115506500Y-152019000D02*
X115506500Y-151765000D01*
X116395500Y-152019000D02*
X116395500Y-151765000D01*
X116395500Y-152019000D02*
X116395500Y-152273000D01*
X92075000Y-169735500D02*
X92329000Y-169735500D01*
X92075000Y-169735500D02*
X91821000Y-169735500D01*
X92075000Y-168846500D02*
X91821000Y-168846500D01*
X92075000Y-168846500D02*
X92329000Y-168846500D01*
X107378500Y-151892000D02*
X107378500Y-151638000D01*
X107378500Y-151892000D02*
X107378500Y-152146000D01*
X106489500Y-151892000D02*
X106489500Y-152146000D01*
X106489500Y-151892000D02*
X106489500Y-151638000D01*
X105981500Y-128524000D02*
X105981500Y-128270000D01*
X105981500Y-128524000D02*
X105981500Y-128778000D01*
X105092500Y-128524000D02*
X105092500Y-128778000D01*
X105092500Y-128524000D02*
X105092500Y-128270000D01*
X110490000Y-128079500D02*
X110744000Y-128079500D01*
X110490000Y-128079500D02*
X110236000Y-128079500D01*
X110490000Y-127190500D02*
X110236000Y-127190500D01*
X110490000Y-127190500D02*
X110744000Y-127190500D01*
X101981000Y-119824500D02*
X101727000Y-119824500D01*
X101981000Y-119824500D02*
X102235000Y-119824500D01*
X101981000Y-120713500D02*
X102235000Y-120713500D01*
X101981000Y-120713500D02*
X101727000Y-120713500D01*
X112331500Y-108077000D02*
X112331500Y-108331000D01*
X112331500Y-108077000D02*
X112331500Y-107823000D01*
X113220500Y-108077000D02*
X113220500Y-107823000D01*
X113220500Y-108077000D02*
X113220500Y-108331000D01*
X104648000Y-124396500D02*
X104902000Y-124396500D01*
X104648000Y-124396500D02*
X104394000Y-124396500D01*
X104648000Y-123507500D02*
X104394000Y-123507500D01*
X104648000Y-123507500D02*
X104902000Y-123507500D01*
X103695500Y-121285000D02*
X103695500Y-121539000D01*
X103695500Y-121285000D02*
X103695500Y-121031000D01*
X104584500Y-121285000D02*
X104584500Y-121031000D01*
X104584500Y-121285000D02*
X104584500Y-121539000D01*
X92773500Y-117729000D02*
X92773500Y-117983000D01*
X92773500Y-117729000D02*
X92773500Y-117475000D01*
X93662500Y-117729000D02*
X93662500Y-117475000D01*
X93662500Y-117729000D02*
X93662500Y-117983000D01*
X102171500Y-153289000D02*
X102171500Y-153543000D01*
X102171500Y-153289000D02*
X102171500Y-153035000D01*
X103060500Y-153289000D02*
X103060500Y-153035000D01*
X103060500Y-153289000D02*
X103060500Y-153543000D01*
X112712500Y-152654000D02*
X112712500Y-152908000D01*
X112712500Y-152654000D02*
X112712500Y-152400000D01*
X113601500Y-152654000D02*
X113601500Y-152400000D01*
X113601500Y-152654000D02*
X113601500Y-152908000D01*
X105029000Y-151320500D02*
X105283000Y-151320500D01*
X105029000Y-151320500D02*
X104775000Y-151320500D01*
X105029000Y-150431500D02*
X104775000Y-150431500D01*
X105029000Y-150431500D02*
X105283000Y-150431500D01*
X106299000Y-147891500D02*
X106553000Y-147891500D01*
X106299000Y-147891500D02*
X106045000Y-147891500D01*
X106299000Y-147002500D02*
X106045000Y-147002500D01*
X106299000Y-147002500D02*
X106553000Y-147002500D01*
X102743000Y-115697000D02*
X101727000Y-115697000D01*
X102743000Y-117729000D02*
X101727000Y-117729000D01*
X107009037Y-167700960D02*
G75*
G03X107009037Y-167700960I-1802237J0D01*
G01*
D14*
X104046020Y-168864280D02*
X106479340Y-166443660D01*
D16*
X112982000Y-105995000D02*
X112982000Y-106757000D01*
X117554000Y-105995000D02*
X112982000Y-105995000D01*
X117554000Y-106757000D02*
X117554000Y-105995000D01*
X112982000Y-106757000D02*
X117554000Y-106757000D01*
X113032800Y-106045800D02*
X117452400Y-106045800D01*
X117503200Y-106147400D02*
X113032800Y-106147400D01*
X113032800Y-106299800D02*
X117452400Y-106299800D01*
X113032800Y-106452200D02*
X117452400Y-106452200D01*
X117503200Y-106198200D02*
X113083600Y-106198200D01*
X117503200Y-106350600D02*
X113032800Y-106350600D01*
X113083600Y-106553800D02*
X117452400Y-106553800D01*
X117503200Y-106655400D02*
X113083600Y-106655400D01*
D11*
X117348000Y-101219000D02*
X113157000Y-105410000D01*
X117221000Y-105283000D02*
X113157000Y-101346000D01*
X116205000Y-104902000D02*
X114808000Y-104902000D01*
X116205000Y-104902000D02*
X116459000Y-101854000D01*
X116713000Y-101727000D02*
X113792000Y-101727000D01*
X115697000Y-105283000D02*
X115697000Y-105029000D01*
X116205000Y-105283000D02*
X115697000Y-105283000D01*
X116205000Y-104902000D02*
X116205000Y-105283000D01*
X114300000Y-104394000D02*
X114173000Y-102362000D01*
X114701609Y-104902000D02*
G75*
G03X114701609Y-104902000I-401609J0D01*
G01*
X116078000Y-101092000D02*
X116078000Y-101600000D01*
X116205000Y-101092000D02*
X116078000Y-101092000D01*
X116205000Y-101600000D02*
X116205000Y-101092000D01*
X113792000Y-102235000D02*
X113792000Y-101727000D01*
X114173000Y-102235000D02*
X113792000Y-102235000D01*
X114173000Y-101727000D02*
X114173000Y-102235000D01*
X114046000Y-101854000D02*
X114046000Y-101981000D01*
X114046000Y-101727000D02*
X113919000Y-102108000D01*
X114046000Y-101854000D02*
X114046000Y-101981000D01*
X113919000Y-101854000D02*
X113919000Y-102235000D01*
X114046000Y-101854000D02*
X113919000Y-101854000D01*
X114046000Y-102235000D02*
X114046000Y-101854000D01*
X115443000Y-102616000D02*
X115443000Y-102235000D01*
X114554000Y-102616000D02*
X115443000Y-102616000D01*
X114554000Y-102235000D02*
X114554000Y-102616000D01*
X115443000Y-102235000D02*
X114554000Y-102235000D01*
X115316000Y-102362000D02*
X114681000Y-102362000D01*
X115062000Y-100838000D02*
X115443000Y-100838000D01*
X115062000Y-100965000D02*
X115062000Y-100838000D01*
X115443000Y-100965000D02*
X115062000Y-100965000D01*
X115443000Y-100838000D02*
X115443000Y-100965000D01*
X114173000Y-101600000D02*
G75*
G02X116459000Y-101600000I1143000J-1143000D01*
G01*
D13*
X114427000Y-104902000D02*
G75*
G03X114427000Y-104902000I-127000J0D01*
G01*
D17*
X114116747Y-136906000D02*
G75*
G03X114116747Y-136906000I-337447J0D01*
G01*
D18*
X113792000Y-136131300D02*
X113284000Y-135623300D01*
X112191800Y-135547100D02*
X111556800Y-136156700D01*
X111582200Y-138112500D02*
X112141000Y-138696700D01*
X109956600Y-138709400D02*
X110413800Y-138252200D01*
X108970800Y-138709400D02*
X109956600Y-138709400D01*
D17*
X108824324Y-138684000D02*
G75*
G03X108824324Y-138684000I-366324J0D01*
G01*
D18*
X108458000Y-135991600D02*
X108458000Y-137591800D01*
D17*
X108818818Y-135458200D02*
G75*
G03X108818818Y-135458200I-373518J0D01*
G01*
X107585759Y-138658600D02*
G75*
G03X107585759Y-138658600I-359659J0D01*
G01*
D18*
X107238800Y-138150600D02*
X107238800Y-135559800D01*
X107238800Y-135559800D02*
X106400600Y-135559800D01*
X106400600Y-135559800D02*
X105791000Y-136067800D01*
X105689400Y-136855200D02*
X105689400Y-136144000D01*
X105613200Y-136067800D02*
X104978200Y-135559800D01*
D17*
X106060318Y-137388600D02*
G75*
G03X106060318Y-137388600I-370918J0D01*
G01*
D18*
X104978200Y-135559800D02*
X104089200Y-135559800D01*
D17*
X104439729Y-138671300D02*
G75*
G03X104439729Y-138671300I-363229J0D01*
G01*
X98576666Y-138760200D02*
G75*
G03X98576666Y-138760200I-329466J0D01*
G01*
D18*
X98577400Y-138404600D02*
X99415600Y-137591800D01*
D19*
X99923600Y-137490200D02*
X99390200Y-137490200D01*
D18*
X101066600Y-138709400D02*
X99923600Y-137591800D01*
X102387400Y-138709400D02*
X101066600Y-138709400D01*
X102819200Y-138277600D02*
X102387400Y-138709400D01*
X102819200Y-136042400D02*
X102819200Y-138277600D01*
X102819200Y-136017000D02*
X102336600Y-135509000D01*
X102288500Y-135534400D02*
X101066600Y-135534400D01*
X101066600Y-135534400D02*
X99974400Y-136601200D01*
D19*
X99949000Y-136715500D02*
X99390200Y-136715500D01*
D18*
X98526600Y-135724900D02*
X99390200Y-136618600D01*
D17*
X98517735Y-135369300D02*
G75*
G03X98517735Y-135369300I-359435J0D01*
G01*
D18*
X101600000Y-137109200D02*
X102819200Y-137109200D01*
D17*
X101451659Y-137109200D02*
G75*
G03X101451659Y-137109200I-359659J0D01*
G01*
D18*
X113220500Y-138722100D02*
X112179100Y-138722100D01*
X113779300Y-138163300D02*
X113779300Y-137401300D01*
X113792000Y-138150600D02*
X113207800Y-138722100D01*
X113792000Y-136182100D02*
X113792000Y-136423400D01*
X111569500Y-136144000D02*
X111569500Y-138074400D01*
X112191800Y-135534400D02*
X113195100Y-135534400D01*
X104076500Y-135547100D02*
X104076500Y-138150600D01*
X110413800Y-138264900D02*
X110413800Y-135534400D01*
D20*
X110413800Y-135191500D02*
X110693200Y-135191500D01*
X110718600Y-135191500D02*
X110718600Y-138341100D01*
X110705900Y-135191500D02*
X110718600Y-135191500D01*
X110693200Y-135191500D02*
X110705900Y-135191500D01*
X110578900Y-135280400D02*
X110642400Y-135267700D01*
X110096300Y-135191500D02*
X110096300Y-138226800D01*
X110401100Y-135191500D02*
X110096300Y-135191500D01*
X110274100Y-135267700D02*
X110159800Y-135267700D01*
X108775500Y-135877300D02*
X108775500Y-137896600D01*
X108140500Y-137896600D02*
X108140500Y-135877300D01*
X108165900Y-137896600D02*
X108140500Y-137896600D01*
X108775500Y-137896600D02*
X108165900Y-137896600D01*
X108635800Y-137833100D02*
X108699300Y-137833100D01*
X108292900Y-137833100D02*
X108204000Y-137833100D01*
X107556300Y-138239500D02*
X107556300Y-135255000D01*
X106311700Y-135242300D02*
X105727500Y-135724900D01*
X107556300Y-135242300D02*
X106311700Y-135242300D01*
X107403900Y-135305800D02*
X107480100Y-135305800D01*
X103746300Y-138264900D02*
X103746300Y-135255000D01*
X105067100Y-135242300D02*
X105689400Y-135737600D01*
X105041700Y-135242300D02*
X105067100Y-135242300D01*
X103746300Y-135242300D02*
X105041700Y-135242300D01*
X103746300Y-135255000D02*
X103746300Y-135242300D01*
X103898700Y-135318500D02*
X103797100Y-135318500D01*
X100952300Y-135204200D02*
X99695000Y-136448800D01*
X101003100Y-135204200D02*
X100952300Y-135204200D01*
X102374700Y-135204200D02*
X101003100Y-135204200D01*
D11*
X108331000Y-125158500D02*
X108077000Y-125158500D01*
X108331000Y-125158500D02*
X108585000Y-125158500D01*
X108331000Y-126047500D02*
X108585000Y-126047500D01*
X108331000Y-126047500D02*
X108077000Y-126047500D01*
X99720400Y-127914400D02*
X99720400Y-126898400D01*
X98196400Y-127914400D02*
X98196400Y-126898400D01*
X97726500Y-124587000D02*
X97726500Y-124333000D01*
X97726500Y-124587000D02*
X97726500Y-124841000D01*
X96837500Y-124587000D02*
X96837500Y-124841000D01*
X96837500Y-124587000D02*
X96837500Y-124333000D01*
D21*
X97619820Y-103680260D02*
X97068640Y-102257860D01*
D22*
X97965260Y-103494840D02*
X97647760Y-103700580D01*
D17*
X98755200Y-104043480D02*
X97975420Y-103512620D01*
D23*
X99331780Y-103505000D02*
X98767900Y-104043480D01*
D22*
X99316540Y-103505000D02*
X98783140Y-102671880D01*
X99141280Y-101744780D02*
X98783140Y-102628700D01*
X100119180Y-101503480D02*
X99169220Y-101721920D01*
D23*
X100109020Y-100726240D02*
X100114100Y-101513640D01*
D22*
X100121720Y-100713540D02*
X99103180Y-100533200D01*
X99072700Y-100497640D02*
X98724720Y-99631500D01*
X99301300Y-98729800D02*
X98745040Y-99580700D01*
D23*
X99311460Y-98706940D02*
X98811080Y-98173540D01*
D22*
X98762820Y-98148140D02*
X97934780Y-98800920D01*
X97873820Y-98790760D02*
X97028000Y-98384360D01*
X96768920Y-97350580D02*
X96974660Y-98364040D01*
X96776540Y-97337880D02*
X95991680Y-97337880D01*
X96009460Y-97358200D02*
X95796100Y-98376740D01*
X95796100Y-98376740D02*
X94894400Y-98826320D01*
X94881700Y-98821240D02*
X93977460Y-98186800D01*
X93977460Y-98188780D02*
X93423740Y-98734880D01*
X93423740Y-98737420D02*
X94040960Y-99527360D01*
X94040960Y-99527360D02*
X93700600Y-100464620D01*
X93700600Y-100464620D02*
X92618560Y-100693220D01*
X92618560Y-100693220D02*
X92618560Y-101528880D01*
X92618560Y-101528880D02*
X93632020Y-101699060D01*
X93632020Y-101699060D02*
X94038420Y-102610920D01*
X93987620Y-104058720D02*
X94823280Y-103492300D01*
X94823280Y-103492300D02*
X95161100Y-103677720D01*
X95161100Y-103677720D02*
X95735140Y-102237540D01*
X95724980Y-102235000D02*
G75*
G02X95354140Y-100370640I746760J1117600D01*
G01*
X95343980Y-100385880D02*
G75*
G02X97269300Y-100187760I1061720J-863600D01*
G01*
X97294700Y-100213160D02*
G75*
G02X97218500Y-102067360I-965200J-889000D01*
G01*
X94038420Y-102610920D02*
X93418660Y-103497380D01*
X93972380Y-104051100D02*
X93418660Y-103505000D01*
D16*
X97538540Y-103860600D02*
X96888300Y-102191820D01*
X97922080Y-103657400D02*
X97576640Y-103878380D01*
X97934780Y-103647240D02*
X98760280Y-104211120D01*
X98767900Y-104218740D02*
X99489260Y-103525320D01*
X99496880Y-103522780D02*
X98899980Y-102659180D01*
X100258880Y-101615240D02*
X99187000Y-101810820D01*
X100258880Y-100622100D02*
X100258880Y-101607620D01*
X100261420Y-100619560D02*
X99090480Y-100416360D01*
X99192080Y-100421440D02*
X98856800Y-99588320D01*
X99453700Y-98737420D02*
X98859340Y-99590860D01*
X99474020Y-98701860D02*
X98800920Y-97988120D01*
X98788220Y-97985580D02*
X97817940Y-98701860D01*
X97853500Y-98633280D02*
X96949260Y-98254820D01*
X96865440Y-97238820D02*
X97066100Y-98264980D01*
X96855280Y-97231200D02*
X95890080Y-97231200D01*
X95890080Y-97231200D02*
X95664020Y-98402140D01*
X95674180Y-98320860D02*
X94869000Y-98658680D01*
X94988380Y-98706940D02*
X93977460Y-98033840D01*
X93972380Y-98031300D02*
X93278960Y-98722180D01*
X93273880Y-98729800D02*
X93977460Y-99720400D01*
X93888560Y-99611180D02*
X93522800Y-100479860D01*
X92585540Y-101381560D02*
X93692980Y-101605080D01*
X92501720Y-100639880D02*
X92504260Y-101597460D01*
X93639640Y-101828600D02*
X92516960Y-101617780D01*
X93535500Y-101795580D02*
X93916500Y-102776020D01*
X93568520Y-103431340D02*
X94053660Y-103962200D01*
X93964760Y-104206040D02*
X93281500Y-103515160D01*
X94851220Y-103591360D02*
X93974920Y-104211120D01*
X93987620Y-103896160D02*
X94808040Y-103367840D01*
X94670880Y-103563420D02*
X95199200Y-103891080D01*
X95199200Y-103891080D02*
X95585280Y-102910640D01*
X95590360Y-102212140D02*
X95062040Y-103593900D01*
X99966780Y-100810060D02*
X99966780Y-101460300D01*
X100109020Y-100865940D02*
X98993960Y-100619560D01*
X98579940Y-99598480D02*
X98966020Y-100596700D01*
X98574860Y-99603560D02*
X99176840Y-98694240D01*
X98818700Y-98249740D02*
X97934780Y-98971100D01*
X95547180Y-102270560D02*
X95369380Y-102148640D01*
X95369380Y-102148640D02*
X94993460Y-101437440D01*
X94993460Y-101437440D02*
X94993460Y-100919280D01*
X94988380Y-100931980D02*
X95222060Y-100258880D01*
X95222060Y-100258880D02*
X95732600Y-99829620D01*
X95732600Y-99829620D02*
X96547940Y-99669600D01*
X96547940Y-99661980D02*
X97419160Y-100091240D01*
X97419160Y-100091240D02*
X97838260Y-100822760D01*
X97843340Y-100827840D02*
X97711260Y-101650800D01*
X97706180Y-101681280D02*
X97612200Y-101851460D01*
X97706180Y-101681280D02*
X97612200Y-101851460D01*
X97482660Y-101902260D02*
X97223580Y-102240080D01*
X97114360Y-102016560D02*
X96888300Y-102191820D01*
X95613220Y-102019100D02*
X95867220Y-102184200D01*
X95750380Y-102473760D02*
X95872300Y-102189280D01*
X97929700Y-98968560D02*
X96946720Y-98475800D01*
X97599500Y-101881940D02*
X97292160Y-102148640D01*
D24*
X98615500Y-103311960D02*
X97762060Y-102290880D01*
X99651820Y-101107240D02*
X98234500Y-101046280D01*
X98666300Y-98821240D02*
X97604580Y-99928680D01*
X96405700Y-97845880D02*
X96400620Y-99359720D01*
X94140020Y-98902520D02*
X95252540Y-99969320D01*
X93149420Y-101086920D02*
X94617540Y-101173280D01*
X97939860Y-103139240D02*
X97574100Y-102377240D01*
X98605340Y-102240080D02*
X98041460Y-101760020D01*
X98854260Y-101594920D02*
X98148140Y-101467920D01*
X98529140Y-100350320D02*
X98087180Y-100510340D01*
X98353880Y-99870260D02*
X97896680Y-100159820D01*
X97355660Y-99093020D02*
X97180400Y-99451160D01*
X96921320Y-98833940D02*
X96753680Y-99443540D01*
X95656400Y-98849180D02*
X95877380Y-99534980D01*
X95069660Y-99100640D02*
X95488760Y-99687380D01*
X94200980Y-99969320D02*
X94856300Y-100335080D01*
X93959680Y-100662740D02*
X94681040Y-100810060D01*
X94795340Y-101820980D02*
X94185740Y-101927660D01*
X95115380Y-102240080D02*
X94498160Y-102567740D01*
X95229680Y-102377240D02*
X94048580Y-103390700D01*
X95229680Y-102285800D02*
X94896940Y-103017320D01*
D13*
X97548700Y-160020000D02*
X98386900Y-160020000D01*
X97548700Y-158242000D02*
X98386900Y-158242000D01*
D11*
X97790000Y-167957500D02*
X97536000Y-167957500D01*
X97790000Y-167957500D02*
X98044000Y-167957500D01*
X97790000Y-168846500D02*
X98044000Y-168846500D01*
X97790000Y-168846500D02*
X97536000Y-168846500D01*
X112395000Y-102806500D02*
X112141000Y-102806500D01*
X112395000Y-102806500D02*
X112649000Y-102806500D01*
X112395000Y-103695500D02*
X112649000Y-103695500D01*
X112395000Y-103695500D02*
X112141000Y-103695500D01*
D25*
X113919000Y-133731000D02*
G75*
G02X114173000Y-133985000I0J-254000D01*
G01*
X112649000Y-133985000D02*
G75*
G02X112903000Y-133731000I254000J0D01*
G01*
X112903000Y-134747000D02*
G75*
G02X112649000Y-134493000I0J254000D01*
G01*
X114173000Y-134493000D02*
G75*
G02X113919000Y-134747000I-254000J0D01*
G01*
D16*
X114173000Y-133985000D02*
X114173000Y-134493000D01*
X113919000Y-134747000D02*
X112903000Y-134747000D01*
X112649000Y-134493000D02*
X112649000Y-133985000D01*
X112903000Y-133731000D02*
X113919000Y-133731000D01*
D25*
X112903000Y-129794000D02*
G75*
G02X112649000Y-129540000I0J254000D01*
G01*
X114173000Y-129540000D02*
G75*
G02X113919000Y-129794000I-254000J0D01*
G01*
X113919000Y-128778000D02*
G75*
G02X114173000Y-129032000I0J-254000D01*
G01*
X112649000Y-129032000D02*
G75*
G02X112903000Y-128778000I254000J0D01*
G01*
D16*
X112649000Y-129540000D02*
X112649000Y-129032000D01*
X112903000Y-128778000D02*
X113919000Y-128778000D01*
X114173000Y-129032000D02*
X114173000Y-129540000D01*
X113919000Y-129794000D02*
X112903000Y-129794000D01*
D10*
X116531571Y-110072714D02*
X116531571Y-109310714D01*
X116277571Y-109855000D01*
X116023571Y-109310714D01*
X116023571Y-110072714D01*
X115660714Y-110072714D02*
X115660714Y-109310714D01*
X114862428Y-110000142D02*
X114898714Y-110036428D01*
X115007571Y-110072714D01*
X115080142Y-110072714D01*
X115189000Y-110036428D01*
X115261571Y-109963857D01*
X115297857Y-109891285D01*
X115334142Y-109746142D01*
X115334142Y-109637285D01*
X115297857Y-109492142D01*
X115261571Y-109419571D01*
X115189000Y-109347000D01*
X115080142Y-109310714D01*
X115007571Y-109310714D01*
X114898714Y-109347000D01*
X114862428Y-109383285D01*
X114100428Y-110072714D02*
X114354428Y-109709857D01*
X114535857Y-110072714D02*
X114535857Y-109310714D01*
X114245571Y-109310714D01*
X114173000Y-109347000D01*
X114136714Y-109383285D01*
X114100428Y-109455857D01*
X114100428Y-109564714D01*
X114136714Y-109637285D01*
X114173000Y-109673571D01*
X114245571Y-109709857D01*
X114535857Y-109709857D01*
X113628714Y-109310714D02*
X113483571Y-109310714D01*
X113411000Y-109347000D01*
X113338428Y-109419571D01*
X113302142Y-109564714D01*
X113302142Y-109818714D01*
X113338428Y-109963857D01*
X113411000Y-110036428D01*
X113483571Y-110072714D01*
X113628714Y-110072714D01*
X113701285Y-110036428D01*
X113773857Y-109963857D01*
X113810142Y-109818714D01*
X113810142Y-109564714D01*
X113773857Y-109419571D01*
X113701285Y-109347000D01*
X113628714Y-109310714D01*
X113157000Y-110145285D02*
X112576428Y-110145285D01*
X112431285Y-110036428D02*
X112322428Y-110072714D01*
X112141000Y-110072714D01*
X112068428Y-110036428D01*
X112032142Y-110000142D01*
X111995857Y-109927571D01*
X111995857Y-109855000D01*
X112032142Y-109782428D01*
X112068428Y-109746142D01*
X112141000Y-109709857D01*
X112286142Y-109673571D01*
X112358714Y-109637285D01*
X112395000Y-109601000D01*
X112431285Y-109528428D01*
X112431285Y-109455857D01*
X112395000Y-109383285D01*
X112358714Y-109347000D01*
X112286142Y-109310714D01*
X112104714Y-109310714D01*
X111995857Y-109347000D01*
X111669285Y-110072714D02*
X111669285Y-109310714D01*
X111487857Y-109310714D01*
X111379000Y-109347000D01*
X111306428Y-109419571D01*
X111270142Y-109492142D01*
X111233857Y-109637285D01*
X111233857Y-109746142D01*
X111270142Y-109891285D01*
X111306428Y-109963857D01*
X111379000Y-110036428D01*
X111487857Y-110072714D01*
X111669285Y-110072714D01*
X110508142Y-110072714D02*
X110943571Y-110072714D01*
X110725857Y-110072714D02*
X110725857Y-109310714D01*
X110798428Y-109419571D01*
X110871000Y-109492142D01*
X110943571Y-109528428D01*
D26*
X106211428Y-114465571D02*
X106235238Y-114489380D01*
X106306666Y-114513190D01*
X106354285Y-114513190D01*
X106425714Y-114489380D01*
X106473333Y-114441761D01*
X106497142Y-114394142D01*
X106520952Y-114298904D01*
X106520952Y-114227476D01*
X106497142Y-114132238D01*
X106473333Y-114084619D01*
X106425714Y-114037000D01*
X106354285Y-114013190D01*
X106306666Y-114013190D01*
X106235238Y-114037000D01*
X106211428Y-114060809D01*
X105782857Y-114513190D02*
X105782857Y-114251285D01*
X105806666Y-114203666D01*
X105854285Y-114179857D01*
X105949523Y-114179857D01*
X105997142Y-114203666D01*
X105782857Y-114489380D02*
X105830476Y-114513190D01*
X105949523Y-114513190D01*
X105997142Y-114489380D01*
X106020952Y-114441761D01*
X106020952Y-114394142D01*
X105997142Y-114346523D01*
X105949523Y-114322714D01*
X105830476Y-114322714D01*
X105782857Y-114298904D01*
X105544761Y-114513190D02*
X105544761Y-114179857D01*
X105544761Y-114275095D02*
X105520952Y-114227476D01*
X105497142Y-114203666D01*
X105449523Y-114179857D01*
X105401904Y-114179857D01*
X105020952Y-114513190D02*
X105020952Y-114013190D01*
X105020952Y-114489380D02*
X105068571Y-114513190D01*
X105163809Y-114513190D01*
X105211428Y-114489380D01*
X105235238Y-114465571D01*
X105259047Y-114417952D01*
X105259047Y-114275095D01*
X105235238Y-114227476D01*
X105211428Y-114203666D01*
X105163809Y-114179857D01*
X105068571Y-114179857D01*
X105020952Y-114203666D01*
X104401904Y-114513190D02*
X104401904Y-114013190D01*
X104282857Y-114013190D01*
X104211428Y-114037000D01*
X104163809Y-114084619D01*
X104140000Y-114132238D01*
X104116190Y-114227476D01*
X104116190Y-114298904D01*
X104140000Y-114394142D01*
X104163809Y-114441761D01*
X104211428Y-114489380D01*
X104282857Y-114513190D01*
X104401904Y-114513190D01*
X103711428Y-114489380D02*
X103759047Y-114513190D01*
X103854285Y-114513190D01*
X103901904Y-114489380D01*
X103925714Y-114441761D01*
X103925714Y-114251285D01*
X103901904Y-114203666D01*
X103854285Y-114179857D01*
X103759047Y-114179857D01*
X103711428Y-114203666D01*
X103687619Y-114251285D01*
X103687619Y-114298904D01*
X103925714Y-114346523D01*
X103544761Y-114179857D02*
X103354285Y-114179857D01*
X103473333Y-114013190D02*
X103473333Y-114441761D01*
X103449523Y-114489380D01*
X103401904Y-114513190D01*
X103354285Y-114513190D01*
X102997142Y-114489380D02*
X103044761Y-114513190D01*
X103140000Y-114513190D01*
X103187619Y-114489380D01*
X103211428Y-114441761D01*
X103211428Y-114251285D01*
X103187619Y-114203666D01*
X103140000Y-114179857D01*
X103044761Y-114179857D01*
X102997142Y-114203666D01*
X102973333Y-114251285D01*
X102973333Y-114298904D01*
X103211428Y-114346523D01*
X102544761Y-114489380D02*
X102592380Y-114513190D01*
X102687619Y-114513190D01*
X102735238Y-114489380D01*
X102759047Y-114465571D01*
X102782857Y-114417952D01*
X102782857Y-114275095D01*
X102759047Y-114227476D01*
X102735238Y-114203666D01*
X102687619Y-114179857D01*
X102592380Y-114179857D01*
X102544761Y-114203666D01*
X102401904Y-114179857D02*
X102211428Y-114179857D01*
X102330476Y-114013190D02*
X102330476Y-114441761D01*
X102306666Y-114489380D01*
X102259047Y-114513190D01*
X102211428Y-114513190D01*
X108116190Y-113513190D02*
X108116190Y-113013190D01*
X107830476Y-113513190D01*
X107830476Y-113013190D01*
X107520952Y-113513190D02*
X107568571Y-113489380D01*
X107592380Y-113465571D01*
X107616190Y-113417952D01*
X107616190Y-113275095D01*
X107592380Y-113227476D01*
X107568571Y-113203666D01*
X107520952Y-113179857D01*
X107449523Y-113179857D01*
X107401904Y-113203666D01*
X107378095Y-113227476D01*
X107354285Y-113275095D01*
X107354285Y-113417952D01*
X107378095Y-113465571D01*
X107401904Y-113489380D01*
X107449523Y-113513190D01*
X107520952Y-113513190D01*
X107140000Y-113513190D02*
X107140000Y-113179857D01*
X107140000Y-113275095D02*
X107116190Y-113227476D01*
X107092380Y-113203666D01*
X107044761Y-113179857D01*
X106997142Y-113179857D01*
X106830476Y-113513190D02*
X106830476Y-113179857D01*
X106830476Y-113227476D02*
X106806666Y-113203666D01*
X106759047Y-113179857D01*
X106687619Y-113179857D01*
X106640000Y-113203666D01*
X106616190Y-113251285D01*
X106616190Y-113513190D01*
X106616190Y-113251285D02*
X106592380Y-113203666D01*
X106544761Y-113179857D01*
X106473333Y-113179857D01*
X106425714Y-113203666D01*
X106401904Y-113251285D01*
X106401904Y-113513190D01*
X105949523Y-113513190D02*
X105949523Y-113251285D01*
X105973333Y-113203666D01*
X106020952Y-113179857D01*
X106116190Y-113179857D01*
X106163809Y-113203666D01*
X105949523Y-113489380D02*
X105997142Y-113513190D01*
X106116190Y-113513190D01*
X106163809Y-113489380D01*
X106187619Y-113441761D01*
X106187619Y-113394142D01*
X106163809Y-113346523D01*
X106116190Y-113322714D01*
X105997142Y-113322714D01*
X105949523Y-113298904D01*
X105640000Y-113513190D02*
X105687619Y-113489380D01*
X105711428Y-113441761D01*
X105711428Y-113013190D01*
X104973333Y-113013190D02*
X104878095Y-113013190D01*
X104830476Y-113037000D01*
X104782857Y-113084619D01*
X104759047Y-113179857D01*
X104759047Y-113346523D01*
X104782857Y-113441761D01*
X104830476Y-113489380D01*
X104878095Y-113513190D01*
X104973333Y-113513190D01*
X105020952Y-113489380D01*
X105068571Y-113441761D01*
X105092380Y-113346523D01*
X105092380Y-113179857D01*
X105068571Y-113084619D01*
X105020952Y-113037000D01*
X104973333Y-113013190D01*
X104544761Y-113179857D02*
X104544761Y-113679857D01*
X104544761Y-113203666D02*
X104497142Y-113179857D01*
X104401904Y-113179857D01*
X104354285Y-113203666D01*
X104330476Y-113227476D01*
X104306666Y-113275095D01*
X104306666Y-113417952D01*
X104330476Y-113465571D01*
X104354285Y-113489380D01*
X104401904Y-113513190D01*
X104497142Y-113513190D01*
X104544761Y-113489380D01*
X103901904Y-113489380D02*
X103949523Y-113513190D01*
X104044761Y-113513190D01*
X104092380Y-113489380D01*
X104116190Y-113441761D01*
X104116190Y-113251285D01*
X104092380Y-113203666D01*
X104044761Y-113179857D01*
X103949523Y-113179857D01*
X103901904Y-113203666D01*
X103878095Y-113251285D01*
X103878095Y-113298904D01*
X104116190Y-113346523D01*
X103663809Y-113179857D02*
X103663809Y-113513190D01*
X103663809Y-113227476D02*
X103640000Y-113203666D01*
X103592380Y-113179857D01*
X103520952Y-113179857D01*
X103473333Y-113203666D01*
X103449523Y-113251285D01*
X103449523Y-113513190D01*
X102854285Y-113489380D02*
X102782857Y-113513190D01*
X102663809Y-113513190D01*
X102616190Y-113489380D01*
X102592380Y-113465571D01*
X102568571Y-113417952D01*
X102568571Y-113370333D01*
X102592380Y-113322714D01*
X102616190Y-113298904D01*
X102663809Y-113275095D01*
X102759047Y-113251285D01*
X102806666Y-113227476D01*
X102830476Y-113203666D01*
X102854285Y-113156047D01*
X102854285Y-113108428D01*
X102830476Y-113060809D01*
X102806666Y-113037000D01*
X102759047Y-113013190D01*
X102640000Y-113013190D01*
X102568571Y-113037000D01*
X102401904Y-113179857D02*
X102306666Y-113513190D01*
X102211428Y-113275095D01*
X102116190Y-113513190D01*
X102020952Y-113179857D01*
X101830476Y-113513190D02*
X101830476Y-113179857D01*
X101830476Y-113013190D02*
X101854285Y-113037000D01*
X101830476Y-113060809D01*
X101806666Y-113037000D01*
X101830476Y-113013190D01*
X101830476Y-113060809D01*
X101663809Y-113179857D02*
X101473333Y-113179857D01*
X101592380Y-113013190D02*
X101592380Y-113441761D01*
X101568571Y-113489380D01*
X101520952Y-113513190D01*
X101473333Y-113513190D01*
X101092380Y-113489380D02*
X101140000Y-113513190D01*
X101235238Y-113513190D01*
X101282857Y-113489380D01*
X101306666Y-113465571D01*
X101330476Y-113417952D01*
X101330476Y-113275095D01*
X101306666Y-113227476D01*
X101282857Y-113203666D01*
X101235238Y-113179857D01*
X101140000Y-113179857D01*
X101092380Y-113203666D01*
X100878095Y-113513190D02*
X100878095Y-113013190D01*
X100663809Y-113513190D02*
X100663809Y-113251285D01*
X100687619Y-113203666D01*
X100735238Y-113179857D01*
X100806666Y-113179857D01*
X100854285Y-113203666D01*
X100878095Y-113227476D01*
D10*
X106897714Y-147882428D02*
X107514571Y-147882428D01*
X107587142Y-147918714D01*
X107623428Y-147955000D01*
X107659714Y-148027571D01*
X107659714Y-148172714D01*
X107623428Y-148245285D01*
X107587142Y-148281571D01*
X107514571Y-148317857D01*
X106897714Y-148317857D01*
X107151714Y-149007285D02*
X107659714Y-149007285D01*
X106861428Y-148825857D02*
X107405714Y-148644428D01*
X107405714Y-149116142D01*
D11*
X95135095Y-152605619D02*
X95135095Y-153428095D01*
X95086714Y-153524857D01*
X95038333Y-153573238D01*
X94941571Y-153621619D01*
X94748047Y-153621619D01*
X94651285Y-153573238D01*
X94602904Y-153524857D01*
X94554523Y-153428095D01*
X94554523Y-152605619D01*
X93538523Y-153621619D02*
X94119095Y-153621619D01*
X93828809Y-153621619D02*
X93828809Y-152605619D01*
X93925571Y-152750761D01*
X94022333Y-152847523D01*
X94119095Y-152895904D01*
X94439619Y-151692428D02*
X94391238Y-151595666D01*
X94342857Y-151547285D01*
X94246095Y-151498904D01*
X93955809Y-151498904D01*
X93859047Y-151547285D01*
X93810666Y-151595666D01*
X93762285Y-151692428D01*
X93762285Y-151837571D01*
X93810666Y-151934333D01*
X93859047Y-151982714D01*
X93955809Y-152031095D01*
X94246095Y-152031095D01*
X94342857Y-151982714D01*
X94391238Y-151934333D01*
X94439619Y-151837571D01*
X94439619Y-151692428D01*
X91091619Y-164896904D02*
X91982095Y-164896904D01*
X92086857Y-164949285D01*
X92139238Y-165001666D01*
X92191619Y-165106428D01*
X92191619Y-165315952D01*
X92139238Y-165420714D01*
X92086857Y-165473095D01*
X91982095Y-165525476D01*
X91091619Y-165525476D01*
X91091619Y-165944523D02*
X91091619Y-166625476D01*
X91510666Y-166258809D01*
X91510666Y-166415952D01*
X91563047Y-166520714D01*
X91615428Y-166573095D01*
X91720190Y-166625476D01*
X91982095Y-166625476D01*
X92086857Y-166573095D01*
X92139238Y-166520714D01*
X92191619Y-166415952D01*
X92191619Y-166101666D01*
X92139238Y-165996904D01*
X92086857Y-165944523D01*
X110060619Y-117233095D02*
X109576809Y-116894428D01*
X110060619Y-116652523D02*
X109044619Y-116652523D01*
X109044619Y-117039571D01*
X109093000Y-117136333D01*
X109141380Y-117184714D01*
X109238142Y-117233095D01*
X109383285Y-117233095D01*
X109480047Y-117184714D01*
X109528428Y-117136333D01*
X109576809Y-117039571D01*
X109576809Y-116652523D01*
X110060619Y-117668523D02*
X109044619Y-117668523D01*
X109770333Y-118007190D01*
X109044619Y-118345857D01*
X110060619Y-118345857D01*
X109044619Y-118732904D02*
X109044619Y-119361857D01*
X109431666Y-119023190D01*
X109431666Y-119168333D01*
X109480047Y-119265095D01*
X109528428Y-119313476D01*
X109625190Y-119361857D01*
X109867095Y-119361857D01*
X109963857Y-119313476D01*
X110012238Y-119265095D01*
X110060619Y-119168333D01*
X110060619Y-118878047D01*
X110012238Y-118781285D01*
X109963857Y-118732904D01*
D10*
X95558428Y-111215714D02*
X95812428Y-110852857D01*
X95993857Y-111215714D02*
X95993857Y-110453714D01*
X95703571Y-110453714D01*
X95631000Y-110490000D01*
X95594714Y-110526285D01*
X95558428Y-110598857D01*
X95558428Y-110707714D01*
X95594714Y-110780285D01*
X95631000Y-110816571D01*
X95703571Y-110852857D01*
X95993857Y-110852857D01*
X95231857Y-111215714D02*
X95231857Y-110453714D01*
X94977857Y-110998000D01*
X94723857Y-110453714D01*
X94723857Y-111215714D01*
X94397285Y-110526285D02*
X94361000Y-110490000D01*
X94288428Y-110453714D01*
X94107000Y-110453714D01*
X94034428Y-110490000D01*
X93998142Y-110526285D01*
X93961857Y-110598857D01*
X93961857Y-110671428D01*
X93998142Y-110780285D01*
X94433571Y-111215714D01*
X93961857Y-111215714D01*
X110707714Y-140915571D02*
X110344857Y-140661571D01*
X110707714Y-140480142D02*
X109945714Y-140480142D01*
X109945714Y-140770428D01*
X109982000Y-140843000D01*
X110018285Y-140879285D01*
X110090857Y-140915571D01*
X110199714Y-140915571D01*
X110272285Y-140879285D01*
X110308571Y-140843000D01*
X110344857Y-140770428D01*
X110344857Y-140480142D01*
X110707714Y-141242142D02*
X109945714Y-141242142D01*
X110490000Y-141496142D01*
X109945714Y-141750142D01*
X110707714Y-141750142D01*
X110707714Y-142512142D02*
X110707714Y-142076714D01*
X110707714Y-142294428D02*
X109945714Y-142294428D01*
X110054571Y-142221857D01*
X110127142Y-142149285D01*
X110163428Y-142076714D01*
X103359857Y-125621142D02*
X103396142Y-125657428D01*
X103505000Y-125693714D01*
X103577571Y-125693714D01*
X103686428Y-125657428D01*
X103759000Y-125584857D01*
X103795285Y-125512285D01*
X103831571Y-125367142D01*
X103831571Y-125258285D01*
X103795285Y-125113142D01*
X103759000Y-125040571D01*
X103686428Y-124968000D01*
X103577571Y-124931714D01*
X103505000Y-124931714D01*
X103396142Y-124968000D01*
X103359857Y-125004285D01*
X103069571Y-125004285D02*
X103033285Y-124968000D01*
X102960714Y-124931714D01*
X102779285Y-124931714D01*
X102706714Y-124968000D01*
X102670428Y-125004285D01*
X102634142Y-125076857D01*
X102634142Y-125149428D01*
X102670428Y-125258285D01*
X103105857Y-125693714D01*
X102634142Y-125693714D01*
X101981000Y-124931714D02*
X102126142Y-124931714D01*
X102198714Y-124968000D01*
X102235000Y-125004285D01*
X102307571Y-125113142D01*
X102343857Y-125258285D01*
X102343857Y-125548571D01*
X102307571Y-125621142D01*
X102271285Y-125657428D01*
X102198714Y-125693714D01*
X102053571Y-125693714D01*
X101981000Y-125657428D01*
X101944714Y-125621142D01*
X101908428Y-125548571D01*
X101908428Y-125367142D01*
X101944714Y-125294571D01*
X101981000Y-125258285D01*
X102053571Y-125222000D01*
X102198714Y-125222000D01*
X102271285Y-125258285D01*
X102307571Y-125294571D01*
X102343857Y-125367142D01*
D11*
X97886761Y-141526380D02*
X97983523Y-141478000D01*
X98080285Y-141381238D01*
X98225428Y-141236095D01*
X98322190Y-141187714D01*
X98418952Y-141187714D01*
X98370571Y-141429619D02*
X98467333Y-141381238D01*
X98564095Y-141284476D01*
X98612476Y-141090952D01*
X98612476Y-140752285D01*
X98564095Y-140558761D01*
X98467333Y-140462000D01*
X98370571Y-140413619D01*
X98177047Y-140413619D01*
X98080285Y-140462000D01*
X97983523Y-140558761D01*
X97935142Y-140752285D01*
X97935142Y-141090952D01*
X97983523Y-141284476D01*
X98080285Y-141381238D01*
X98177047Y-141429619D01*
X98370571Y-141429619D01*
X96967523Y-141429619D02*
X97548095Y-141429619D01*
X97257809Y-141429619D02*
X97257809Y-140413619D01*
X97354571Y-140558761D01*
X97451333Y-140655523D01*
X97548095Y-140703904D01*
D14*
X97339142Y-142728904D02*
X97415333Y-142690809D01*
X97453428Y-142652714D01*
X97491523Y-142576523D01*
X97491523Y-142347952D01*
X97453428Y-142271761D01*
X97415333Y-142233666D01*
X97339142Y-142195571D01*
X97224857Y-142195571D01*
X97148666Y-142233666D01*
X97110571Y-142271761D01*
X97072476Y-142347952D01*
X97072476Y-142576523D01*
X97110571Y-142652714D01*
X97148666Y-142690809D01*
X97224857Y-142728904D01*
X97339142Y-142728904D01*
D10*
X93980000Y-138829142D02*
X94016285Y-138865428D01*
X94125142Y-138901714D01*
X94197714Y-138901714D01*
X94306571Y-138865428D01*
X94379142Y-138792857D01*
X94415428Y-138720285D01*
X94451714Y-138575142D01*
X94451714Y-138466285D01*
X94415428Y-138321142D01*
X94379142Y-138248571D01*
X94306571Y-138176000D01*
X94197714Y-138139714D01*
X94125142Y-138139714D01*
X94016285Y-138176000D01*
X93980000Y-138212285D01*
X93326857Y-138393714D02*
X93326857Y-138901714D01*
X93508285Y-138103428D02*
X93689714Y-138647714D01*
X93218000Y-138647714D01*
X111233857Y-123081142D02*
X111270142Y-123117428D01*
X111379000Y-123153714D01*
X111451571Y-123153714D01*
X111560428Y-123117428D01*
X111633000Y-123044857D01*
X111669285Y-122972285D01*
X111705571Y-122827142D01*
X111705571Y-122718285D01*
X111669285Y-122573142D01*
X111633000Y-122500571D01*
X111560428Y-122428000D01*
X111451571Y-122391714D01*
X111379000Y-122391714D01*
X111270142Y-122428000D01*
X111233857Y-122464285D01*
X110508142Y-123153714D02*
X110943571Y-123153714D01*
X110725857Y-123153714D02*
X110725857Y-122391714D01*
X110798428Y-122500571D01*
X110871000Y-122573142D01*
X110943571Y-122609428D01*
X110217857Y-122464285D02*
X110181571Y-122428000D01*
X110109000Y-122391714D01*
X109927571Y-122391714D01*
X109855000Y-122428000D01*
X109818714Y-122464285D01*
X109782428Y-122536857D01*
X109782428Y-122609428D01*
X109818714Y-122718285D01*
X110254142Y-123153714D01*
X109782428Y-123153714D01*
X103886000Y-155284714D02*
X104140000Y-154921857D01*
X104321428Y-155284714D02*
X104321428Y-154522714D01*
X104031142Y-154522714D01*
X103958571Y-154559000D01*
X103922285Y-154595285D01*
X103886000Y-154667857D01*
X103886000Y-154776714D01*
X103922285Y-154849285D01*
X103958571Y-154885571D01*
X104031142Y-154921857D01*
X104321428Y-154921857D01*
X103632000Y-154522714D02*
X103124000Y-154522714D01*
X103450571Y-155284714D01*
D11*
X98691095Y-121998619D02*
X98110523Y-121998619D01*
X98400809Y-123014619D02*
X98400809Y-121998619D01*
X97239666Y-123014619D02*
X97820238Y-123014619D01*
X97529952Y-123014619D02*
X97529952Y-121998619D01*
X97626714Y-122143761D01*
X97723476Y-122240523D01*
X97820238Y-122288904D01*
D10*
X104502857Y-127344714D02*
X104756857Y-126981857D01*
X104938285Y-127344714D02*
X104938285Y-126582714D01*
X104648000Y-126582714D01*
X104575428Y-126619000D01*
X104539142Y-126655285D01*
X104502857Y-126727857D01*
X104502857Y-126836714D01*
X104539142Y-126909285D01*
X104575428Y-126945571D01*
X104648000Y-126981857D01*
X104938285Y-126981857D01*
X104248857Y-126582714D02*
X103777142Y-126582714D01*
X104031142Y-126873000D01*
X103922285Y-126873000D01*
X103849714Y-126909285D01*
X103813428Y-126945571D01*
X103777142Y-127018142D01*
X103777142Y-127199571D01*
X103813428Y-127272142D01*
X103849714Y-127308428D01*
X103922285Y-127344714D01*
X104140000Y-127344714D01*
X104212571Y-127308428D01*
X104248857Y-127272142D01*
X103341714Y-126909285D02*
X103414285Y-126873000D01*
X103450571Y-126836714D01*
X103486857Y-126764142D01*
X103486857Y-126727857D01*
X103450571Y-126655285D01*
X103414285Y-126619000D01*
X103341714Y-126582714D01*
X103196571Y-126582714D01*
X103124000Y-126619000D01*
X103087714Y-126655285D01*
X103051428Y-126727857D01*
X103051428Y-126764142D01*
X103087714Y-126836714D01*
X103124000Y-126873000D01*
X103196571Y-126909285D01*
X103341714Y-126909285D01*
X103414285Y-126945571D01*
X103450571Y-126981857D01*
X103486857Y-127054428D01*
X103486857Y-127199571D01*
X103450571Y-127272142D01*
X103414285Y-127308428D01*
X103341714Y-127344714D01*
X103196571Y-127344714D01*
X103124000Y-127308428D01*
X103087714Y-127272142D01*
X103051428Y-127199571D01*
X103051428Y-127054428D01*
X103087714Y-126981857D01*
X103124000Y-126945571D01*
X103196571Y-126909285D01*
X98261714Y-132225142D02*
X97898857Y-131971142D01*
X98261714Y-131789714D02*
X97499714Y-131789714D01*
X97499714Y-132080000D01*
X97536000Y-132152571D01*
X97572285Y-132188857D01*
X97644857Y-132225142D01*
X97753714Y-132225142D01*
X97826285Y-132188857D01*
X97862571Y-132152571D01*
X97898857Y-132080000D01*
X97898857Y-131789714D01*
X97572285Y-132515428D02*
X97536000Y-132551714D01*
X97499714Y-132624285D01*
X97499714Y-132805714D01*
X97536000Y-132878285D01*
X97572285Y-132914571D01*
X97644857Y-132950857D01*
X97717428Y-132950857D01*
X97826285Y-132914571D01*
X98261714Y-132479142D01*
X98261714Y-132950857D01*
X97499714Y-133422571D02*
X97499714Y-133495142D01*
X97536000Y-133567714D01*
X97572285Y-133604000D01*
X97644857Y-133640285D01*
X97790000Y-133676571D01*
X97971428Y-133676571D01*
X98116571Y-133640285D01*
X98189142Y-133604000D01*
X98225428Y-133567714D01*
X98261714Y-133495142D01*
X98261714Y-133422571D01*
X98225428Y-133350000D01*
X98189142Y-133313714D01*
X98116571Y-133277428D01*
X97971428Y-133241142D01*
X97790000Y-133241142D01*
X97644857Y-133277428D01*
X97572285Y-133313714D01*
X97536000Y-133350000D01*
X97499714Y-133422571D01*
X93816714Y-131971142D02*
X93453857Y-131717142D01*
X93816714Y-131535714D02*
X93054714Y-131535714D01*
X93054714Y-131826000D01*
X93091000Y-131898571D01*
X93127285Y-131934857D01*
X93199857Y-131971142D01*
X93308714Y-131971142D01*
X93381285Y-131934857D01*
X93417571Y-131898571D01*
X93453857Y-131826000D01*
X93453857Y-131535714D01*
X93127285Y-132261428D02*
X93091000Y-132297714D01*
X93054714Y-132370285D01*
X93054714Y-132551714D01*
X93091000Y-132624285D01*
X93127285Y-132660571D01*
X93199857Y-132696857D01*
X93272428Y-132696857D01*
X93381285Y-132660571D01*
X93816714Y-132225142D01*
X93816714Y-132696857D01*
X93816714Y-133422571D02*
X93816714Y-132987142D01*
X93816714Y-133204857D02*
X93054714Y-133204857D01*
X93163571Y-133132285D01*
X93236142Y-133059714D01*
X93272428Y-132987142D01*
D11*
X105422095Y-131904619D02*
X105422095Y-132727095D01*
X105373714Y-132823857D01*
X105325333Y-132872238D01*
X105228571Y-132920619D01*
X105035047Y-132920619D01*
X104938285Y-132872238D01*
X104889904Y-132823857D01*
X104841523Y-132727095D01*
X104841523Y-131904619D01*
X104212571Y-132340047D02*
X104309333Y-132291666D01*
X104357714Y-132243285D01*
X104406095Y-132146523D01*
X104406095Y-132098142D01*
X104357714Y-132001380D01*
X104309333Y-131953000D01*
X104212571Y-131904619D01*
X104019047Y-131904619D01*
X103922285Y-131953000D01*
X103873904Y-132001380D01*
X103825523Y-132098142D01*
X103825523Y-132146523D01*
X103873904Y-132243285D01*
X103922285Y-132291666D01*
X104019047Y-132340047D01*
X104212571Y-132340047D01*
X104309333Y-132388428D01*
X104357714Y-132436809D01*
X104406095Y-132533571D01*
X104406095Y-132727095D01*
X104357714Y-132823857D01*
X104309333Y-132872238D01*
X104212571Y-132920619D01*
X104019047Y-132920619D01*
X103922285Y-132872238D01*
X103873904Y-132823857D01*
X103825523Y-132727095D01*
X103825523Y-132533571D01*
X103873904Y-132436809D01*
X103922285Y-132388428D01*
X104019047Y-132340047D01*
X105627714Y-134319523D02*
X105748666Y-134259047D01*
X105809142Y-134198571D01*
X105869619Y-134077619D01*
X105869619Y-133714761D01*
X105809142Y-133593809D01*
X105748666Y-133533333D01*
X105627714Y-133472857D01*
X105446285Y-133472857D01*
X105325333Y-133533333D01*
X105264857Y-133593809D01*
X105204380Y-133714761D01*
X105204380Y-134077619D01*
X105264857Y-134198571D01*
X105325333Y-134259047D01*
X105446285Y-134319523D01*
X105627714Y-134319523D01*
D10*
X115533714Y-112794142D02*
X115170857Y-112540142D01*
X115533714Y-112358714D02*
X114771714Y-112358714D01*
X114771714Y-112649000D01*
X114808000Y-112721571D01*
X114844285Y-112757857D01*
X114916857Y-112794142D01*
X115025714Y-112794142D01*
X115098285Y-112757857D01*
X115134571Y-112721571D01*
X115170857Y-112649000D01*
X115170857Y-112358714D01*
X114771714Y-113048142D02*
X114771714Y-113519857D01*
X115062000Y-113265857D01*
X115062000Y-113374714D01*
X115098285Y-113447285D01*
X115134571Y-113483571D01*
X115207142Y-113519857D01*
X115388571Y-113519857D01*
X115461142Y-113483571D01*
X115497428Y-113447285D01*
X115533714Y-113374714D01*
X115533714Y-113157000D01*
X115497428Y-113084428D01*
X115461142Y-113048142D01*
X114771714Y-113773857D02*
X114771714Y-114281857D01*
X115533714Y-113955285D01*
D11*
X113271904Y-114632619D02*
X113271904Y-113616619D01*
X113030000Y-113616619D01*
X112884857Y-113665000D01*
X112788095Y-113761761D01*
X112739714Y-113858523D01*
X112691333Y-114052047D01*
X112691333Y-114197190D01*
X112739714Y-114390714D01*
X112788095Y-114487476D01*
X112884857Y-114584238D01*
X113030000Y-114632619D01*
X113271904Y-114632619D01*
X111820476Y-113955285D02*
X111820476Y-114632619D01*
X112062380Y-113568238D02*
X112304285Y-114293952D01*
X111675333Y-114293952D01*
D10*
X95885000Y-143401142D02*
X95921285Y-143437428D01*
X96030142Y-143473714D01*
X96102714Y-143473714D01*
X96211571Y-143437428D01*
X96284142Y-143364857D01*
X96320428Y-143292285D01*
X96356714Y-143147142D01*
X96356714Y-143038285D01*
X96320428Y-142893142D01*
X96284142Y-142820571D01*
X96211571Y-142748000D01*
X96102714Y-142711714D01*
X96030142Y-142711714D01*
X95921285Y-142748000D01*
X95885000Y-142784285D01*
X95195571Y-142711714D02*
X95558428Y-142711714D01*
X95594714Y-143074571D01*
X95558428Y-143038285D01*
X95485857Y-143002000D01*
X95304428Y-143002000D01*
X95231857Y-143038285D01*
X95195571Y-143074571D01*
X95159285Y-143147142D01*
X95159285Y-143328571D01*
X95195571Y-143401142D01*
X95231857Y-143437428D01*
X95304428Y-143473714D01*
X95485857Y-143473714D01*
X95558428Y-143437428D01*
X95594714Y-143401142D01*
X103886000Y-148680714D02*
X104248857Y-148680714D01*
X104248857Y-147918714D01*
X103232857Y-148680714D02*
X103668285Y-148680714D01*
X103450571Y-148680714D02*
X103450571Y-147918714D01*
X103523142Y-148027571D01*
X103595714Y-148100142D01*
X103668285Y-148136428D01*
D11*
X98394761Y-131112380D02*
X98491523Y-131064000D01*
X98588285Y-130967238D01*
X98733428Y-130822095D01*
X98830190Y-130773714D01*
X98926952Y-130773714D01*
X98878571Y-131015619D02*
X98975333Y-130967238D01*
X99072095Y-130870476D01*
X99120476Y-130676952D01*
X99120476Y-130338285D01*
X99072095Y-130144761D01*
X98975333Y-130048000D01*
X98878571Y-129999619D01*
X98685047Y-129999619D01*
X98588285Y-130048000D01*
X98491523Y-130144761D01*
X98443142Y-130338285D01*
X98443142Y-130676952D01*
X98491523Y-130870476D01*
X98588285Y-130967238D01*
X98685047Y-131015619D01*
X98878571Y-131015619D01*
X98056095Y-130096380D02*
X98007714Y-130048000D01*
X97910952Y-129999619D01*
X97669047Y-129999619D01*
X97572285Y-130048000D01*
X97523904Y-130096380D01*
X97475523Y-130193142D01*
X97475523Y-130289904D01*
X97523904Y-130435047D01*
X98104476Y-131015619D01*
X97475523Y-131015619D01*
D27*
X98403833Y-153134785D02*
X98434071Y-153165023D01*
X98524785Y-153195261D01*
X98585261Y-153195261D01*
X98675976Y-153165023D01*
X98736452Y-153104547D01*
X98766690Y-153044071D01*
X98796928Y-152923119D01*
X98796928Y-152832404D01*
X98766690Y-152711452D01*
X98736452Y-152650976D01*
X98675976Y-152590500D01*
X98585261Y-152560261D01*
X98524785Y-152560261D01*
X98434071Y-152590500D01*
X98403833Y-152620738D01*
X98192166Y-152560261D02*
X97768833Y-152560261D01*
X98040976Y-153195261D01*
D10*
X102216857Y-144145000D02*
X102180571Y-144181285D01*
X102144285Y-144290142D01*
X102144285Y-144362714D01*
X102180571Y-144471571D01*
X102253142Y-144544142D01*
X102325714Y-144580428D01*
X102470857Y-144616714D01*
X102579714Y-144616714D01*
X102724857Y-144580428D01*
X102797428Y-144544142D01*
X102870000Y-144471571D01*
X102906285Y-144362714D01*
X102906285Y-144290142D01*
X102870000Y-144181285D01*
X102833714Y-144145000D01*
X102144285Y-143782142D02*
X102144285Y-143637000D01*
X102180571Y-143564428D01*
X102216857Y-143528142D01*
X102325714Y-143455571D01*
X102470857Y-143419285D01*
X102761142Y-143419285D01*
X102833714Y-143455571D01*
X102870000Y-143491857D01*
X102906285Y-143564428D01*
X102906285Y-143709571D01*
X102870000Y-143782142D01*
X102833714Y-143818428D01*
X102761142Y-143854714D01*
X102579714Y-143854714D01*
X102507142Y-143818428D01*
X102470857Y-143782142D01*
X102434571Y-143709571D01*
X102434571Y-143564428D01*
X102470857Y-143491857D01*
X102507142Y-143455571D01*
X102579714Y-143419285D01*
D27*
X103405214Y-151356785D02*
X103435452Y-151387023D01*
X103526166Y-151417261D01*
X103586642Y-151417261D01*
X103677357Y-151387023D01*
X103737833Y-151326547D01*
X103768071Y-151266071D01*
X103798309Y-151145119D01*
X103798309Y-151054404D01*
X103768071Y-150933452D01*
X103737833Y-150872976D01*
X103677357Y-150812500D01*
X103586642Y-150782261D01*
X103526166Y-150782261D01*
X103435452Y-150812500D01*
X103405214Y-150842738D01*
X102800452Y-151417261D02*
X103163309Y-151417261D01*
X102981880Y-151417261D02*
X102981880Y-150782261D01*
X103042357Y-150872976D01*
X103102833Y-150933452D01*
X103163309Y-150963690D01*
X102588785Y-150782261D02*
X102195690Y-150782261D01*
X102407357Y-151024166D01*
X102316642Y-151024166D01*
X102256166Y-151054404D01*
X102225928Y-151084642D01*
X102195690Y-151145119D01*
X102195690Y-151296309D01*
X102225928Y-151356785D01*
X102256166Y-151387023D01*
X102316642Y-151417261D01*
X102498071Y-151417261D01*
X102558547Y-151387023D01*
X102588785Y-151356785D01*
D10*
X103613857Y-146195142D02*
X103650142Y-146231428D01*
X103759000Y-146267714D01*
X103831571Y-146267714D01*
X103940428Y-146231428D01*
X104013000Y-146158857D01*
X104049285Y-146086285D01*
X104085571Y-145941142D01*
X104085571Y-145832285D01*
X104049285Y-145687142D01*
X104013000Y-145614571D01*
X103940428Y-145542000D01*
X103831571Y-145505714D01*
X103759000Y-145505714D01*
X103650142Y-145542000D01*
X103613857Y-145578285D01*
X102888142Y-146267714D02*
X103323571Y-146267714D01*
X103105857Y-146267714D02*
X103105857Y-145505714D01*
X103178428Y-145614571D01*
X103251000Y-145687142D01*
X103323571Y-145723428D01*
X102634142Y-145505714D02*
X102126142Y-145505714D01*
X102452714Y-146267714D01*
D11*
X116628333Y-154667857D02*
X116676714Y-154716238D01*
X116821857Y-154764619D01*
X116918619Y-154764619D01*
X117063761Y-154716238D01*
X117160523Y-154619476D01*
X117208904Y-154522714D01*
X117257285Y-154329190D01*
X117257285Y-154184047D01*
X117208904Y-153990523D01*
X117160523Y-153893761D01*
X117063761Y-153797000D01*
X116918619Y-153748619D01*
X116821857Y-153748619D01*
X116676714Y-153797000D01*
X116628333Y-153845380D01*
X116241285Y-153845380D02*
X116192904Y-153797000D01*
X116096142Y-153748619D01*
X115854238Y-153748619D01*
X115757476Y-153797000D01*
X115709095Y-153845380D01*
X115660714Y-153942142D01*
X115660714Y-154038904D01*
X115709095Y-154184047D01*
X116289666Y-154764619D01*
X115660714Y-154764619D01*
X99102333Y-119077619D02*
X99586142Y-119077619D01*
X99586142Y-118061619D01*
X98279857Y-118061619D02*
X98763666Y-118061619D01*
X98812047Y-118545428D01*
X98763666Y-118497047D01*
X98666904Y-118448666D01*
X98425000Y-118448666D01*
X98328238Y-118497047D01*
X98279857Y-118545428D01*
X98231476Y-118642190D01*
X98231476Y-118884095D01*
X98279857Y-118980857D01*
X98328238Y-119029238D01*
X98425000Y-119077619D01*
X98666904Y-119077619D01*
X98763666Y-119029238D01*
X98812047Y-118980857D01*
D10*
X93798571Y-137450285D02*
X93871142Y-137414000D01*
X93943714Y-137341428D01*
X94052571Y-137232571D01*
X94125142Y-137196285D01*
X94197714Y-137196285D01*
X94161428Y-137377714D02*
X94234000Y-137341428D01*
X94306571Y-137268857D01*
X94342857Y-137123714D01*
X94342857Y-136869714D01*
X94306571Y-136724571D01*
X94234000Y-136652000D01*
X94161428Y-136615714D01*
X94016285Y-136615714D01*
X93943714Y-136652000D01*
X93871142Y-136724571D01*
X93834857Y-136869714D01*
X93834857Y-137123714D01*
X93871142Y-137268857D01*
X93943714Y-137341428D01*
X94016285Y-137377714D01*
X94161428Y-137377714D01*
X93580857Y-136615714D02*
X93109142Y-136615714D01*
X93363142Y-136906000D01*
X93254285Y-136906000D01*
X93181714Y-136942285D01*
X93145428Y-136978571D01*
X93109142Y-137051142D01*
X93109142Y-137232571D01*
X93145428Y-137305142D01*
X93181714Y-137341428D01*
X93254285Y-137377714D01*
X93472000Y-137377714D01*
X93544571Y-137341428D01*
X93580857Y-137305142D01*
D11*
X101454857Y-167089666D02*
X101503238Y-167041285D01*
X101551619Y-166896142D01*
X101551619Y-166799380D01*
X101503238Y-166654238D01*
X101406476Y-166557476D01*
X101309714Y-166509095D01*
X101116190Y-166460714D01*
X100971047Y-166460714D01*
X100777523Y-166509095D01*
X100680761Y-166557476D01*
X100584000Y-166654238D01*
X100535619Y-166799380D01*
X100535619Y-166896142D01*
X100584000Y-167041285D01*
X100632380Y-167089666D01*
X101551619Y-168057285D02*
X101551619Y-167476714D01*
X101551619Y-167767000D02*
X100535619Y-167767000D01*
X100680761Y-167670238D01*
X100777523Y-167573476D01*
X100825904Y-167476714D01*
X93762285Y-123510523D02*
X93762285Y-123933857D01*
X94427523Y-124115285D02*
X94427523Y-123510523D01*
X93157523Y-123510523D01*
X93157523Y-124115285D01*
X93157523Y-124538619D02*
X94427523Y-125385285D01*
X93157523Y-125385285D02*
X94427523Y-124538619D01*
X93157523Y-125687666D02*
X93157523Y-126413380D01*
X94427523Y-126050523D02*
X93157523Y-126050523D01*
X94427523Y-127501952D02*
X94427523Y-126776238D01*
X94427523Y-127139095D02*
X93157523Y-127139095D01*
X93338952Y-127018142D01*
X93459904Y-126897190D01*
X93520380Y-126776238D01*
X114463285Y-121986523D02*
X114463285Y-122409857D01*
X115128523Y-122591285D02*
X115128523Y-121986523D01*
X113858523Y-121986523D01*
X113858523Y-122591285D01*
X113858523Y-123014619D02*
X115128523Y-123861285D01*
X113858523Y-123861285D02*
X115128523Y-123014619D01*
X113858523Y-124163666D02*
X113858523Y-124889380D01*
X115128523Y-124526523D02*
X113858523Y-124526523D01*
X113979476Y-125252238D02*
X113919000Y-125312714D01*
X113858523Y-125433666D01*
X113858523Y-125736047D01*
X113919000Y-125857000D01*
X113979476Y-125917476D01*
X114100428Y-125977952D01*
X114221380Y-125977952D01*
X114402809Y-125917476D01*
X115128523Y-125191761D01*
X115128523Y-125977952D01*
D10*
X102180571Y-140208000D02*
X102180571Y-139954000D01*
X102579714Y-139954000D02*
X101817714Y-139954000D01*
X101817714Y-140316857D01*
X102180571Y-140607142D02*
X102180571Y-140861142D01*
X102579714Y-140970000D02*
X102579714Y-140607142D01*
X101817714Y-140607142D01*
X101817714Y-140970000D01*
X101817714Y-141187714D02*
X101817714Y-141623142D01*
X102579714Y-141405428D02*
X101817714Y-141405428D01*
X101817714Y-141804571D02*
X101817714Y-142276285D01*
X102108000Y-142022285D01*
X102108000Y-142131142D01*
X102144285Y-142203714D01*
X102180571Y-142240000D01*
X102253142Y-142276285D01*
X102434571Y-142276285D01*
X102507142Y-142240000D01*
X102543428Y-142203714D01*
X102579714Y-142131142D01*
X102579714Y-141913428D01*
X102543428Y-141840857D01*
X102507142Y-141804571D01*
X92056857Y-152617714D02*
X92310857Y-152254857D01*
X92492285Y-152617714D02*
X92492285Y-151855714D01*
X92202000Y-151855714D01*
X92129428Y-151892000D01*
X92093142Y-151928285D01*
X92056857Y-152000857D01*
X92056857Y-152109714D01*
X92093142Y-152182285D01*
X92129428Y-152218571D01*
X92202000Y-152254857D01*
X92492285Y-152254857D01*
X91331142Y-152617714D02*
X91766571Y-152617714D01*
X91548857Y-152617714D02*
X91548857Y-151855714D01*
X91621428Y-151964571D01*
X91694000Y-152037142D01*
X91766571Y-152073428D01*
X90895714Y-152182285D02*
X90968285Y-152146000D01*
X91004571Y-152109714D01*
X91040857Y-152037142D01*
X91040857Y-152000857D01*
X91004571Y-151928285D01*
X90968285Y-151892000D01*
X90895714Y-151855714D01*
X90750571Y-151855714D01*
X90678000Y-151892000D01*
X90641714Y-151928285D01*
X90605428Y-152000857D01*
X90605428Y-152037142D01*
X90641714Y-152109714D01*
X90678000Y-152146000D01*
X90750571Y-152182285D01*
X90895714Y-152182285D01*
X90968285Y-152218571D01*
X91004571Y-152254857D01*
X91040857Y-152327428D01*
X91040857Y-152472571D01*
X91004571Y-152545142D01*
X90968285Y-152581428D01*
X90895714Y-152617714D01*
X90750571Y-152617714D01*
X90678000Y-152581428D01*
X90641714Y-152545142D01*
X90605428Y-152472571D01*
X90605428Y-152327428D01*
X90641714Y-152254857D01*
X90678000Y-152218571D01*
X90750571Y-152182285D01*
X92056857Y-151347714D02*
X92310857Y-150984857D01*
X92492285Y-151347714D02*
X92492285Y-150585714D01*
X92202000Y-150585714D01*
X92129428Y-150622000D01*
X92093142Y-150658285D01*
X92056857Y-150730857D01*
X92056857Y-150839714D01*
X92093142Y-150912285D01*
X92129428Y-150948571D01*
X92202000Y-150984857D01*
X92492285Y-150984857D01*
X91331142Y-151347714D02*
X91766571Y-151347714D01*
X91548857Y-151347714D02*
X91548857Y-150585714D01*
X91621428Y-150694571D01*
X91694000Y-150767142D01*
X91766571Y-150803428D01*
X90968285Y-151347714D02*
X90823142Y-151347714D01*
X90750571Y-151311428D01*
X90714285Y-151275142D01*
X90641714Y-151166285D01*
X90605428Y-151021142D01*
X90605428Y-150730857D01*
X90641714Y-150658285D01*
X90678000Y-150622000D01*
X90750571Y-150585714D01*
X90895714Y-150585714D01*
X90968285Y-150622000D01*
X91004571Y-150658285D01*
X91040857Y-150730857D01*
X91040857Y-150912285D01*
X91004571Y-150984857D01*
X90968285Y-151021142D01*
X90895714Y-151057428D01*
X90750571Y-151057428D01*
X90678000Y-151021142D01*
X90641714Y-150984857D01*
X90605428Y-150912285D01*
D27*
X97768833Y-165641261D02*
X97980500Y-165338880D01*
X98131690Y-165641261D02*
X98131690Y-165006261D01*
X97889785Y-165006261D01*
X97829309Y-165036500D01*
X97799071Y-165066738D01*
X97768833Y-165127214D01*
X97768833Y-165217928D01*
X97799071Y-165278404D01*
X97829309Y-165308642D01*
X97889785Y-165338880D01*
X98131690Y-165338880D01*
X97164071Y-165641261D02*
X97526928Y-165641261D01*
X97345500Y-165641261D02*
X97345500Y-165006261D01*
X97405976Y-165096976D01*
X97466452Y-165157452D01*
X97526928Y-165187690D01*
D10*
X97372714Y-126238000D02*
X97009857Y-125984000D01*
X97372714Y-125802571D02*
X96610714Y-125802571D01*
X96610714Y-126092857D01*
X96647000Y-126165428D01*
X96683285Y-126201714D01*
X96755857Y-126238000D01*
X96864714Y-126238000D01*
X96937285Y-126201714D01*
X96973571Y-126165428D01*
X97009857Y-126092857D01*
X97009857Y-125802571D01*
X96683285Y-126528285D02*
X96647000Y-126564571D01*
X96610714Y-126637142D01*
X96610714Y-126818571D01*
X96647000Y-126891142D01*
X96683285Y-126927428D01*
X96755857Y-126963714D01*
X96828428Y-126963714D01*
X96937285Y-126927428D01*
X97372714Y-126492000D01*
X97372714Y-126963714D01*
D27*
X96879833Y-169832261D02*
X97091500Y-169529880D01*
X97242690Y-169832261D02*
X97242690Y-169197261D01*
X97000785Y-169197261D01*
X96940309Y-169227500D01*
X96910071Y-169257738D01*
X96879833Y-169318214D01*
X96879833Y-169408928D01*
X96910071Y-169469404D01*
X96940309Y-169499642D01*
X97000785Y-169529880D01*
X97242690Y-169529880D01*
X96516976Y-169469404D02*
X96577452Y-169439166D01*
X96607690Y-169408928D01*
X96637928Y-169348452D01*
X96637928Y-169318214D01*
X96607690Y-169257738D01*
X96577452Y-169227500D01*
X96516976Y-169197261D01*
X96396023Y-169197261D01*
X96335547Y-169227500D01*
X96305309Y-169257738D01*
X96275071Y-169318214D01*
X96275071Y-169348452D01*
X96305309Y-169408928D01*
X96335547Y-169439166D01*
X96396023Y-169469404D01*
X96516976Y-169469404D01*
X96577452Y-169499642D01*
X96607690Y-169529880D01*
X96637928Y-169590357D01*
X96637928Y-169711309D01*
X96607690Y-169771785D01*
X96577452Y-169802023D01*
X96516976Y-169832261D01*
X96396023Y-169832261D01*
X96335547Y-169802023D01*
X96305309Y-169771785D01*
X96275071Y-169711309D01*
X96275071Y-169590357D01*
X96305309Y-169529880D01*
X96335547Y-169499642D01*
X96396023Y-169469404D01*
X110009214Y-152560261D02*
X110220880Y-152257880D01*
X110372071Y-152560261D02*
X110372071Y-151925261D01*
X110130166Y-151925261D01*
X110069690Y-151955500D01*
X110039452Y-151985738D01*
X110009214Y-152046214D01*
X110009214Y-152136928D01*
X110039452Y-152197404D01*
X110069690Y-152227642D01*
X110130166Y-152257880D01*
X110372071Y-152257880D01*
X109404452Y-152560261D02*
X109767309Y-152560261D01*
X109585880Y-152560261D02*
X109585880Y-151925261D01*
X109646357Y-152015976D01*
X109706833Y-152076452D01*
X109767309Y-152106690D01*
X109011357Y-151925261D02*
X108950880Y-151925261D01*
X108890404Y-151955500D01*
X108860166Y-151985738D01*
X108829928Y-152046214D01*
X108799690Y-152167166D01*
X108799690Y-152318357D01*
X108829928Y-152439309D01*
X108860166Y-152499785D01*
X108890404Y-152530023D01*
X108950880Y-152560261D01*
X109011357Y-152560261D01*
X109071833Y-152530023D01*
X109102071Y-152499785D01*
X109132309Y-152439309D01*
X109162547Y-152318357D01*
X109162547Y-152167166D01*
X109132309Y-152046214D01*
X109102071Y-151985738D01*
X109071833Y-151955500D01*
X109011357Y-151925261D01*
X109253261Y-154785785D02*
X108950880Y-154574119D01*
X109253261Y-154422928D02*
X108618261Y-154422928D01*
X108618261Y-154664833D01*
X108648500Y-154725309D01*
X108678738Y-154755547D01*
X108739214Y-154785785D01*
X108829928Y-154785785D01*
X108890404Y-154755547D01*
X108920642Y-154725309D01*
X108950880Y-154664833D01*
X108950880Y-154422928D01*
X109253261Y-155390547D02*
X109253261Y-155027690D01*
X109253261Y-155209119D02*
X108618261Y-155209119D01*
X108708976Y-155148642D01*
X108769452Y-155088166D01*
X108799690Y-155027690D01*
X109253261Y-155995309D02*
X109253261Y-155632452D01*
X109253261Y-155813880D02*
X108618261Y-155813880D01*
X108708976Y-155753404D01*
X108769452Y-155692928D01*
X108799690Y-155632452D01*
X112041214Y-152560261D02*
X112252880Y-152257880D01*
X112404071Y-152560261D02*
X112404071Y-151925261D01*
X112162166Y-151925261D01*
X112101690Y-151955500D01*
X112071452Y-151985738D01*
X112041214Y-152046214D01*
X112041214Y-152136928D01*
X112071452Y-152197404D01*
X112101690Y-152227642D01*
X112162166Y-152257880D01*
X112404071Y-152257880D01*
X111436452Y-152560261D02*
X111799309Y-152560261D01*
X111617880Y-152560261D02*
X111617880Y-151925261D01*
X111678357Y-152015976D01*
X111738833Y-152076452D01*
X111799309Y-152106690D01*
X111194547Y-151985738D02*
X111164309Y-151955500D01*
X111103833Y-151925261D01*
X110952642Y-151925261D01*
X110892166Y-151955500D01*
X110861928Y-151985738D01*
X110831690Y-152046214D01*
X110831690Y-152106690D01*
X110861928Y-152197404D01*
X111224785Y-152560261D01*
X110831690Y-152560261D01*
X111793261Y-154785785D02*
X111490880Y-154574119D01*
X111793261Y-154422928D02*
X111158261Y-154422928D01*
X111158261Y-154664833D01*
X111188500Y-154725309D01*
X111218738Y-154755547D01*
X111279214Y-154785785D01*
X111369928Y-154785785D01*
X111430404Y-154755547D01*
X111460642Y-154725309D01*
X111490880Y-154664833D01*
X111490880Y-154422928D01*
X111793261Y-155390547D02*
X111793261Y-155027690D01*
X111793261Y-155209119D02*
X111158261Y-155209119D01*
X111248976Y-155148642D01*
X111309452Y-155088166D01*
X111339690Y-155027690D01*
X111158261Y-155602214D02*
X111158261Y-155995309D01*
X111400166Y-155783642D01*
X111400166Y-155874357D01*
X111430404Y-155934833D01*
X111460642Y-155965071D01*
X111521119Y-155995309D01*
X111672309Y-155995309D01*
X111732785Y-155965071D01*
X111763023Y-155934833D01*
X111793261Y-155874357D01*
X111793261Y-155692928D01*
X111763023Y-155632452D01*
X111732785Y-155602214D01*
D10*
X116041714Y-149497142D02*
X115678857Y-149243142D01*
X116041714Y-149061714D02*
X115279714Y-149061714D01*
X115279714Y-149352000D01*
X115316000Y-149424571D01*
X115352285Y-149460857D01*
X115424857Y-149497142D01*
X115533714Y-149497142D01*
X115606285Y-149460857D01*
X115642571Y-149424571D01*
X115678857Y-149352000D01*
X115678857Y-149061714D01*
X116041714Y-150222857D02*
X116041714Y-149787428D01*
X116041714Y-150005142D02*
X115279714Y-150005142D01*
X115388571Y-149932571D01*
X115461142Y-149860000D01*
X115497428Y-149787428D01*
X115533714Y-150876000D02*
X116041714Y-150876000D01*
X115243428Y-150694571D02*
X115787714Y-150513142D01*
X115787714Y-150984857D01*
X117311714Y-149497142D02*
X116948857Y-149243142D01*
X117311714Y-149061714D02*
X116549714Y-149061714D01*
X116549714Y-149352000D01*
X116586000Y-149424571D01*
X116622285Y-149460857D01*
X116694857Y-149497142D01*
X116803714Y-149497142D01*
X116876285Y-149460857D01*
X116912571Y-149424571D01*
X116948857Y-149352000D01*
X116948857Y-149061714D01*
X117311714Y-150222857D02*
X117311714Y-149787428D01*
X117311714Y-150005142D02*
X116549714Y-150005142D01*
X116658571Y-149932571D01*
X116731142Y-149860000D01*
X116767428Y-149787428D01*
X116549714Y-150912285D02*
X116549714Y-150549428D01*
X116912571Y-150513142D01*
X116876285Y-150549428D01*
X116840000Y-150622000D01*
X116840000Y-150803428D01*
X116876285Y-150876000D01*
X116912571Y-150912285D01*
X116985142Y-150948571D01*
X117166571Y-150948571D01*
X117239142Y-150912285D01*
X117275428Y-150876000D01*
X117311714Y-150803428D01*
X117311714Y-150622000D01*
X117275428Y-150549428D01*
X117239142Y-150513142D01*
D27*
X91545833Y-168308261D02*
X91757500Y-168005880D01*
X91908690Y-168308261D02*
X91908690Y-167673261D01*
X91666785Y-167673261D01*
X91606309Y-167703500D01*
X91576071Y-167733738D01*
X91545833Y-167794214D01*
X91545833Y-167884928D01*
X91576071Y-167945404D01*
X91606309Y-167975642D01*
X91666785Y-168005880D01*
X91908690Y-168005880D01*
X90971309Y-167673261D02*
X91273690Y-167673261D01*
X91303928Y-167975642D01*
X91273690Y-167945404D01*
X91213214Y-167915166D01*
X91062023Y-167915166D01*
X91001547Y-167945404D01*
X90971309Y-167975642D01*
X90941071Y-168036119D01*
X90941071Y-168187309D01*
X90971309Y-168247785D01*
X91001547Y-168278023D01*
X91062023Y-168308261D01*
X91213214Y-168308261D01*
X91273690Y-168278023D01*
X91303928Y-168247785D01*
D10*
X107532714Y-153434142D02*
X107169857Y-153180142D01*
X107532714Y-152998714D02*
X106770714Y-152998714D01*
X106770714Y-153289000D01*
X106807000Y-153361571D01*
X106843285Y-153397857D01*
X106915857Y-153434142D01*
X107024714Y-153434142D01*
X107097285Y-153397857D01*
X107133571Y-153361571D01*
X107169857Y-153289000D01*
X107169857Y-152998714D01*
X106843285Y-153724428D02*
X106807000Y-153760714D01*
X106770714Y-153833285D01*
X106770714Y-154014714D01*
X106807000Y-154087285D01*
X106843285Y-154123571D01*
X106915857Y-154159857D01*
X106988428Y-154159857D01*
X107097285Y-154123571D01*
X107532714Y-153688142D01*
X107532714Y-154159857D01*
X106770714Y-154813000D02*
X106770714Y-154667857D01*
X106807000Y-154595285D01*
X106843285Y-154559000D01*
X106952142Y-154486428D01*
X107097285Y-154450142D01*
X107387571Y-154450142D01*
X107460142Y-154486428D01*
X107496428Y-154522714D01*
X107532714Y-154595285D01*
X107532714Y-154740428D01*
X107496428Y-154813000D01*
X107460142Y-154849285D01*
X107387571Y-154885571D01*
X107206142Y-154885571D01*
X107133571Y-154849285D01*
X107097285Y-154813000D01*
X107061000Y-154740428D01*
X107061000Y-154595285D01*
X107097285Y-154522714D01*
X107133571Y-154486428D01*
X107206142Y-154450142D01*
X104611714Y-128415142D02*
X104248857Y-128161142D01*
X104611714Y-127979714D02*
X103849714Y-127979714D01*
X103849714Y-128270000D01*
X103886000Y-128342571D01*
X103922285Y-128378857D01*
X103994857Y-128415142D01*
X104103714Y-128415142D01*
X104176285Y-128378857D01*
X104212571Y-128342571D01*
X104248857Y-128270000D01*
X104248857Y-127979714D01*
X103849714Y-128669142D02*
X103849714Y-129140857D01*
X104140000Y-128886857D01*
X104140000Y-128995714D01*
X104176285Y-129068285D01*
X104212571Y-129104571D01*
X104285142Y-129140857D01*
X104466571Y-129140857D01*
X104539142Y-129104571D01*
X104575428Y-129068285D01*
X104611714Y-128995714D01*
X104611714Y-128778000D01*
X104575428Y-128705428D01*
X104539142Y-128669142D01*
X103849714Y-129394857D02*
X103849714Y-129866571D01*
X104140000Y-129612571D01*
X104140000Y-129721428D01*
X104176285Y-129794000D01*
X104212571Y-129830285D01*
X104285142Y-129866571D01*
X104466571Y-129866571D01*
X104539142Y-129830285D01*
X104575428Y-129794000D01*
X104611714Y-129721428D01*
X104611714Y-129503714D01*
X104575428Y-129431142D01*
X104539142Y-129394857D01*
X110326714Y-125367142D02*
X109963857Y-125113142D01*
X110326714Y-124931714D02*
X109564714Y-124931714D01*
X109564714Y-125222000D01*
X109601000Y-125294571D01*
X109637285Y-125330857D01*
X109709857Y-125367142D01*
X109818714Y-125367142D01*
X109891285Y-125330857D01*
X109927571Y-125294571D01*
X109963857Y-125222000D01*
X109963857Y-124931714D01*
X109564714Y-125621142D02*
X109564714Y-126092857D01*
X109855000Y-125838857D01*
X109855000Y-125947714D01*
X109891285Y-126020285D01*
X109927571Y-126056571D01*
X110000142Y-126092857D01*
X110181571Y-126092857D01*
X110254142Y-126056571D01*
X110290428Y-126020285D01*
X110326714Y-125947714D01*
X110326714Y-125730000D01*
X110290428Y-125657428D01*
X110254142Y-125621142D01*
X109818714Y-126746000D02*
X110326714Y-126746000D01*
X109528428Y-126564571D02*
X110072714Y-126383142D01*
X110072714Y-126854857D01*
X100438857Y-121121714D02*
X100692857Y-120758857D01*
X100874285Y-121121714D02*
X100874285Y-120359714D01*
X100584000Y-120359714D01*
X100511428Y-120396000D01*
X100475142Y-120432285D01*
X100438857Y-120504857D01*
X100438857Y-120613714D01*
X100475142Y-120686285D01*
X100511428Y-120722571D01*
X100584000Y-120758857D01*
X100874285Y-120758857D01*
X100184857Y-120359714D02*
X99713142Y-120359714D01*
X99967142Y-120650000D01*
X99858285Y-120650000D01*
X99785714Y-120686285D01*
X99749428Y-120722571D01*
X99713142Y-120795142D01*
X99713142Y-120976571D01*
X99749428Y-121049142D01*
X99785714Y-121085428D01*
X99858285Y-121121714D01*
X100076000Y-121121714D01*
X100148571Y-121085428D01*
X100184857Y-121049142D01*
X99023714Y-120359714D02*
X99386571Y-120359714D01*
X99422857Y-120722571D01*
X99386571Y-120686285D01*
X99314000Y-120650000D01*
X99132571Y-120650000D01*
X99060000Y-120686285D01*
X99023714Y-120722571D01*
X98987428Y-120795142D01*
X98987428Y-120976571D01*
X99023714Y-121049142D01*
X99060000Y-121085428D01*
X99132571Y-121121714D01*
X99314000Y-121121714D01*
X99386571Y-121085428D01*
X99422857Y-121049142D01*
X115043857Y-108040714D02*
X115297857Y-107677857D01*
X115479285Y-108040714D02*
X115479285Y-107278714D01*
X115189000Y-107278714D01*
X115116428Y-107315000D01*
X115080142Y-107351285D01*
X115043857Y-107423857D01*
X115043857Y-107532714D01*
X115080142Y-107605285D01*
X115116428Y-107641571D01*
X115189000Y-107677857D01*
X115479285Y-107677857D01*
X114390714Y-107532714D02*
X114390714Y-108040714D01*
X114572142Y-107242428D02*
X114753571Y-107786714D01*
X114281857Y-107786714D01*
X113846428Y-107278714D02*
X113773857Y-107278714D01*
X113701285Y-107315000D01*
X113665000Y-107351285D01*
X113628714Y-107423857D01*
X113592428Y-107569000D01*
X113592428Y-107750428D01*
X113628714Y-107895571D01*
X113665000Y-107968142D01*
X113701285Y-108004428D01*
X113773857Y-108040714D01*
X113846428Y-108040714D01*
X113919000Y-108004428D01*
X113955285Y-107968142D01*
X113991571Y-107895571D01*
X114027857Y-107750428D01*
X114027857Y-107569000D01*
X113991571Y-107423857D01*
X113955285Y-107351285D01*
X113919000Y-107315000D01*
X113846428Y-107278714D01*
D27*
X103151214Y-124239261D02*
X103362880Y-123936880D01*
X103514071Y-124239261D02*
X103514071Y-123604261D01*
X103272166Y-123604261D01*
X103211690Y-123634500D01*
X103181452Y-123664738D01*
X103151214Y-123725214D01*
X103151214Y-123815928D01*
X103181452Y-123876404D01*
X103211690Y-123906642D01*
X103272166Y-123936880D01*
X103514071Y-123936880D01*
X102606928Y-123815928D02*
X102606928Y-124239261D01*
X102758119Y-123574023D02*
X102909309Y-124027595D01*
X102516214Y-124027595D01*
X101941690Y-124239261D02*
X102304547Y-124239261D01*
X102123119Y-124239261D02*
X102123119Y-123604261D01*
X102183595Y-123694976D01*
X102244071Y-123755452D01*
X102304547Y-123785690D01*
X103151214Y-122715261D02*
X103362880Y-122412880D01*
X103514071Y-122715261D02*
X103514071Y-122080261D01*
X103272166Y-122080261D01*
X103211690Y-122110500D01*
X103181452Y-122140738D01*
X103151214Y-122201214D01*
X103151214Y-122291928D01*
X103181452Y-122352404D01*
X103211690Y-122382642D01*
X103272166Y-122412880D01*
X103514071Y-122412880D01*
X102606928Y-122291928D02*
X102606928Y-122715261D01*
X102758119Y-122050023D02*
X102909309Y-122503595D01*
X102516214Y-122503595D01*
X102304547Y-122140738D02*
X102274309Y-122110500D01*
X102213833Y-122080261D01*
X102062642Y-122080261D01*
X102002166Y-122110500D01*
X101971928Y-122140738D01*
X101941690Y-122201214D01*
X101941690Y-122261690D01*
X101971928Y-122352404D01*
X102334785Y-122715261D01*
X101941690Y-122715261D01*
D10*
X95340714Y-116985142D02*
X94977857Y-116731142D01*
X95340714Y-116549714D02*
X94578714Y-116549714D01*
X94578714Y-116840000D01*
X94615000Y-116912571D01*
X94651285Y-116948857D01*
X94723857Y-116985142D01*
X94832714Y-116985142D01*
X94905285Y-116948857D01*
X94941571Y-116912571D01*
X94977857Y-116840000D01*
X94977857Y-116549714D01*
X94832714Y-117638285D02*
X95340714Y-117638285D01*
X94542428Y-117456857D02*
X95086714Y-117275428D01*
X95086714Y-117747142D01*
X94578714Y-118364000D02*
X94578714Y-118218857D01*
X94615000Y-118146285D01*
X94651285Y-118110000D01*
X94760142Y-118037428D01*
X94905285Y-118001142D01*
X95195571Y-118001142D01*
X95268142Y-118037428D01*
X95304428Y-118073714D01*
X95340714Y-118146285D01*
X95340714Y-118291428D01*
X95304428Y-118364000D01*
X95268142Y-118400285D01*
X95195571Y-118436571D01*
X95014142Y-118436571D01*
X94941571Y-118400285D01*
X94905285Y-118364000D01*
X94869000Y-118291428D01*
X94869000Y-118146285D01*
X94905285Y-118073714D01*
X94941571Y-118037428D01*
X95014142Y-118001142D01*
X101581857Y-154831142D02*
X101618142Y-154867428D01*
X101727000Y-154903714D01*
X101799571Y-154903714D01*
X101908428Y-154867428D01*
X101981000Y-154794857D01*
X102017285Y-154722285D01*
X102053571Y-154577142D01*
X102053571Y-154468285D01*
X102017285Y-154323142D01*
X101981000Y-154250571D01*
X101908428Y-154178000D01*
X101799571Y-154141714D01*
X101727000Y-154141714D01*
X101618142Y-154178000D01*
X101581857Y-154214285D01*
X100856142Y-154903714D02*
X101291571Y-154903714D01*
X101073857Y-154903714D02*
X101073857Y-154141714D01*
X101146428Y-154250571D01*
X101219000Y-154323142D01*
X101291571Y-154359428D01*
X100130428Y-154903714D02*
X100565857Y-154903714D01*
X100348142Y-154903714D02*
X100348142Y-154141714D01*
X100420714Y-154250571D01*
X100493285Y-154323142D01*
X100565857Y-154359428D01*
X114699142Y-149497142D02*
X114735428Y-149460857D01*
X114771714Y-149352000D01*
X114771714Y-149279428D01*
X114735428Y-149170571D01*
X114662857Y-149098000D01*
X114590285Y-149061714D01*
X114445142Y-149025428D01*
X114336285Y-149025428D01*
X114191142Y-149061714D01*
X114118571Y-149098000D01*
X114046000Y-149170571D01*
X114009714Y-149279428D01*
X114009714Y-149352000D01*
X114046000Y-149460857D01*
X114082285Y-149497142D01*
X114771714Y-150222857D02*
X114771714Y-149787428D01*
X114771714Y-150005142D02*
X114009714Y-150005142D01*
X114118571Y-149932571D01*
X114191142Y-149860000D01*
X114227428Y-149787428D01*
X114009714Y-150912285D02*
X114009714Y-150549428D01*
X114372571Y-150513142D01*
X114336285Y-150549428D01*
X114300000Y-150622000D01*
X114300000Y-150803428D01*
X114336285Y-150876000D01*
X114372571Y-150912285D01*
X114445142Y-150948571D01*
X114626571Y-150948571D01*
X114699142Y-150912285D01*
X114735428Y-150876000D01*
X114771714Y-150803428D01*
X114771714Y-150622000D01*
X114735428Y-150549428D01*
X114699142Y-150513142D01*
D27*
X107215214Y-150975785D02*
X107245452Y-151006023D01*
X107336166Y-151036261D01*
X107396642Y-151036261D01*
X107487357Y-151006023D01*
X107547833Y-150945547D01*
X107578071Y-150885071D01*
X107608309Y-150764119D01*
X107608309Y-150673404D01*
X107578071Y-150552452D01*
X107547833Y-150491976D01*
X107487357Y-150431500D01*
X107396642Y-150401261D01*
X107336166Y-150401261D01*
X107245452Y-150431500D01*
X107215214Y-150461738D01*
X106610452Y-151036261D02*
X106973309Y-151036261D01*
X106791880Y-151036261D02*
X106791880Y-150401261D01*
X106852357Y-150491976D01*
X106912833Y-150552452D01*
X106973309Y-150582690D01*
X106066166Y-150401261D02*
X106187119Y-150401261D01*
X106247595Y-150431500D01*
X106277833Y-150461738D01*
X106338309Y-150552452D01*
X106368547Y-150673404D01*
X106368547Y-150915309D01*
X106338309Y-150975785D01*
X106308071Y-151006023D01*
X106247595Y-151036261D01*
X106126642Y-151036261D01*
X106066166Y-151006023D01*
X106035928Y-150975785D01*
X106005690Y-150915309D01*
X106005690Y-150764119D01*
X106035928Y-150703642D01*
X106066166Y-150673404D01*
X106126642Y-150643166D01*
X106247595Y-150643166D01*
X106308071Y-150673404D01*
X106338309Y-150703642D01*
X106368547Y-150764119D01*
D10*
X103613857Y-147465142D02*
X103650142Y-147501428D01*
X103759000Y-147537714D01*
X103831571Y-147537714D01*
X103940428Y-147501428D01*
X104013000Y-147428857D01*
X104049285Y-147356285D01*
X104085571Y-147211142D01*
X104085571Y-147102285D01*
X104049285Y-146957142D01*
X104013000Y-146884571D01*
X103940428Y-146812000D01*
X103831571Y-146775714D01*
X103759000Y-146775714D01*
X103650142Y-146812000D01*
X103613857Y-146848285D01*
X102888142Y-147537714D02*
X103323571Y-147537714D01*
X103105857Y-147537714D02*
X103105857Y-146775714D01*
X103178428Y-146884571D01*
X103251000Y-146957142D01*
X103323571Y-146993428D01*
X102452714Y-147102285D02*
X102525285Y-147066000D01*
X102561571Y-147029714D01*
X102597857Y-146957142D01*
X102597857Y-146920857D01*
X102561571Y-146848285D01*
X102525285Y-146812000D01*
X102452714Y-146775714D01*
X102307571Y-146775714D01*
X102235000Y-146812000D01*
X102198714Y-146848285D01*
X102162428Y-146920857D01*
X102162428Y-146957142D01*
X102198714Y-147029714D01*
X102235000Y-147066000D01*
X102307571Y-147102285D01*
X102452714Y-147102285D01*
X102525285Y-147138571D01*
X102561571Y-147174857D01*
X102597857Y-147247428D01*
X102597857Y-147392571D01*
X102561571Y-147465142D01*
X102525285Y-147501428D01*
X102452714Y-147537714D01*
X102307571Y-147537714D01*
X102235000Y-147501428D01*
X102198714Y-147465142D01*
X102162428Y-147392571D01*
X102162428Y-147247428D01*
X102198714Y-147174857D01*
X102235000Y-147138571D01*
X102307571Y-147102285D01*
D11*
X99102333Y-117075857D02*
X99150714Y-117124238D01*
X99295857Y-117172619D01*
X99392619Y-117172619D01*
X99537761Y-117124238D01*
X99634523Y-117027476D01*
X99682904Y-116930714D01*
X99731285Y-116737190D01*
X99731285Y-116592047D01*
X99682904Y-116398523D01*
X99634523Y-116301761D01*
X99537761Y-116205000D01*
X99392619Y-116156619D01*
X99295857Y-116156619D01*
X99150714Y-116205000D01*
X99102333Y-116253380D01*
X98763666Y-116156619D02*
X98134714Y-116156619D01*
X98473380Y-116543666D01*
X98328238Y-116543666D01*
X98231476Y-116592047D01*
X98183095Y-116640428D01*
X98134714Y-116737190D01*
X98134714Y-116979095D01*
X98183095Y-117075857D01*
X98231476Y-117124238D01*
X98328238Y-117172619D01*
X98618523Y-117172619D01*
X98715285Y-117124238D01*
X98763666Y-117075857D01*
X106395068Y-168490327D02*
X106395068Y-166790327D01*
X105823640Y-166790327D01*
X105680782Y-166871280D01*
X105609354Y-166952232D01*
X105537925Y-167114137D01*
X105537925Y-167356994D01*
X105609354Y-167518899D01*
X105680782Y-167599851D01*
X105823640Y-167680803D01*
X106395068Y-167680803D01*
X104895068Y-168490327D02*
X104895068Y-166790327D01*
X104895068Y-167437946D02*
X104752211Y-167356994D01*
X104466497Y-167356994D01*
X104323640Y-167437946D01*
X104252211Y-167518899D01*
X104180782Y-167680803D01*
X104180782Y-168166518D01*
X104252211Y-168328422D01*
X104323640Y-168409375D01*
X104466497Y-168490327D01*
X104752211Y-168490327D01*
X104895068Y-168409375D01*
D10*
X110344857Y-124478142D02*
X110381142Y-124514428D01*
X110490000Y-124550714D01*
X110562571Y-124550714D01*
X110671428Y-124514428D01*
X110744000Y-124441857D01*
X110780285Y-124369285D01*
X110816571Y-124224142D01*
X110816571Y-124115285D01*
X110780285Y-123970142D01*
X110744000Y-123897571D01*
X110671428Y-123825000D01*
X110562571Y-123788714D01*
X110490000Y-123788714D01*
X110381142Y-123825000D01*
X110344857Y-123861285D01*
X110054571Y-123861285D02*
X110018285Y-123825000D01*
X109945714Y-123788714D01*
X109764285Y-123788714D01*
X109691714Y-123825000D01*
X109655428Y-123861285D01*
X109619142Y-123933857D01*
X109619142Y-124006428D01*
X109655428Y-124115285D01*
X110090857Y-124550714D01*
X109619142Y-124550714D01*
X108929714Y-123788714D02*
X109292571Y-123788714D01*
X109328857Y-124151571D01*
X109292571Y-124115285D01*
X109220000Y-124079000D01*
X109038571Y-124079000D01*
X108966000Y-124115285D01*
X108929714Y-124151571D01*
X108893428Y-124224142D01*
X108893428Y-124405571D01*
X108929714Y-124478142D01*
X108966000Y-124514428D01*
X109038571Y-124550714D01*
X109220000Y-124550714D01*
X109292571Y-124514428D01*
X109328857Y-124478142D01*
X100856142Y-126002142D02*
X100892428Y-125965857D01*
X100928714Y-125857000D01*
X100928714Y-125784428D01*
X100892428Y-125675571D01*
X100819857Y-125603000D01*
X100747285Y-125566714D01*
X100602142Y-125530428D01*
X100493285Y-125530428D01*
X100348142Y-125566714D01*
X100275571Y-125603000D01*
X100203000Y-125675571D01*
X100166714Y-125784428D01*
X100166714Y-125857000D01*
X100203000Y-125965857D01*
X100239285Y-126002142D01*
X100928714Y-126727857D02*
X100928714Y-126292428D01*
X100928714Y-126510142D02*
X100166714Y-126510142D01*
X100275571Y-126437571D01*
X100348142Y-126365000D01*
X100384428Y-126292428D01*
X100166714Y-127199571D02*
X100166714Y-127272142D01*
X100203000Y-127344714D01*
X100239285Y-127381000D01*
X100311857Y-127417285D01*
X100457000Y-127453571D01*
X100638428Y-127453571D01*
X100783571Y-127417285D01*
X100856142Y-127381000D01*
X100892428Y-127344714D01*
X100928714Y-127272142D01*
X100928714Y-127199571D01*
X100892428Y-127127000D01*
X100856142Y-127090714D01*
X100783571Y-127054428D01*
X100638428Y-127018142D01*
X100457000Y-127018142D01*
X100311857Y-127054428D01*
X100239285Y-127090714D01*
X100203000Y-127127000D01*
X100166714Y-127199571D01*
X98896714Y-124460000D02*
X98533857Y-124206000D01*
X98896714Y-124024571D02*
X98134714Y-124024571D01*
X98134714Y-124314857D01*
X98171000Y-124387428D01*
X98207285Y-124423714D01*
X98279857Y-124460000D01*
X98388714Y-124460000D01*
X98461285Y-124423714D01*
X98497571Y-124387428D01*
X98533857Y-124314857D01*
X98533857Y-124024571D01*
X98134714Y-124714000D02*
X98134714Y-125185714D01*
X98425000Y-124931714D01*
X98425000Y-125040571D01*
X98461285Y-125113142D01*
X98497571Y-125149428D01*
X98570142Y-125185714D01*
X98751571Y-125185714D01*
X98824142Y-125149428D01*
X98860428Y-125113142D01*
X98896714Y-125040571D01*
X98896714Y-124822857D01*
X98860428Y-124750285D01*
X98824142Y-124714000D01*
D11*
X101339298Y-105892379D02*
X101444060Y-105839998D01*
X101496440Y-105787617D01*
X101548821Y-105682855D01*
X101548821Y-105368569D01*
X101496440Y-105263807D01*
X101444060Y-105211426D01*
X101339298Y-105159045D01*
X101182155Y-105159045D01*
X101077393Y-105211426D01*
X101025012Y-105263807D01*
X100972631Y-105368569D01*
X100972631Y-105682855D01*
X101025012Y-105787617D01*
X101077393Y-105839998D01*
X101182155Y-105892379D01*
X101339298Y-105892379D01*
X100501202Y-105159045D02*
X100501202Y-106259045D01*
X100501202Y-105211426D02*
X100396440Y-105159045D01*
X100186917Y-105159045D01*
X100082155Y-105211426D01*
X100029774Y-105263807D01*
X99977393Y-105368569D01*
X99977393Y-105682855D01*
X100029774Y-105787617D01*
X100082155Y-105839998D01*
X100186917Y-105892379D01*
X100396440Y-105892379D01*
X100501202Y-105839998D01*
X99086917Y-105839998D02*
X99191679Y-105892379D01*
X99401202Y-105892379D01*
X99505964Y-105839998D01*
X99558345Y-105735236D01*
X99558345Y-105316188D01*
X99505964Y-105211426D01*
X99401202Y-105159045D01*
X99191679Y-105159045D01*
X99086917Y-105211426D01*
X99034536Y-105316188D01*
X99034536Y-105420950D01*
X99558345Y-105525712D01*
X98563107Y-105159045D02*
X98563107Y-105892379D01*
X98563107Y-105263807D02*
X98510726Y-105211426D01*
X98405964Y-105159045D01*
X98248821Y-105159045D01*
X98144060Y-105211426D01*
X98091679Y-105316188D01*
X98091679Y-105892379D01*
D28*
X97023797Y-105938580D02*
X97023797Y-104938580D01*
X96595225Y-105938580D02*
X96595225Y-105414771D01*
X96642844Y-105319533D01*
X96738082Y-105271914D01*
X96880940Y-105271914D01*
X96976178Y-105319533D01*
X97023797Y-105367152D01*
X95690463Y-105938580D02*
X95690463Y-105414771D01*
X95738082Y-105319533D01*
X95833320Y-105271914D01*
X96023797Y-105271914D01*
X96119035Y-105319533D01*
X95690463Y-105890961D02*
X95785701Y-105938580D01*
X96023797Y-105938580D01*
X96119035Y-105890961D01*
X96166654Y-105795723D01*
X96166654Y-105700485D01*
X96119035Y-105605247D01*
X96023797Y-105557628D01*
X95785701Y-105557628D01*
X95690463Y-105510009D01*
X95214273Y-105938580D02*
X95214273Y-105271914D01*
X95214273Y-105462390D02*
X95166654Y-105367152D01*
X95119035Y-105319533D01*
X95023797Y-105271914D01*
X94928559Y-105271914D01*
X94166654Y-105938580D02*
X94166654Y-104938580D01*
X94166654Y-105890961D02*
X94261892Y-105938580D01*
X94452368Y-105938580D01*
X94547606Y-105890961D01*
X94595225Y-105843342D01*
X94642844Y-105748104D01*
X94642844Y-105462390D01*
X94595225Y-105367152D01*
X94547606Y-105319533D01*
X94452368Y-105271914D01*
X94261892Y-105271914D01*
X94166654Y-105319533D01*
X93785701Y-105271914D02*
X93595225Y-105938580D01*
X93404749Y-105462390D01*
X93214273Y-105938580D01*
X93023797Y-105271914D01*
X92214273Y-105938580D02*
X92214273Y-105414771D01*
X92261892Y-105319533D01*
X92357130Y-105271914D01*
X92547606Y-105271914D01*
X92642844Y-105319533D01*
X92214273Y-105890961D02*
X92309511Y-105938580D01*
X92547606Y-105938580D01*
X92642844Y-105890961D01*
X92690463Y-105795723D01*
X92690463Y-105700485D01*
X92642844Y-105605247D01*
X92547606Y-105557628D01*
X92309511Y-105557628D01*
X92214273Y-105510009D01*
X91738082Y-105938580D02*
X91738082Y-105271914D01*
X91738082Y-105462390D02*
X91690463Y-105367152D01*
X91642844Y-105319533D01*
X91547606Y-105271914D01*
X91452368Y-105271914D01*
X90738082Y-105890961D02*
X90833320Y-105938580D01*
X91023797Y-105938580D01*
X91119035Y-105890961D01*
X91166654Y-105795723D01*
X91166654Y-105414771D01*
X91119035Y-105319533D01*
X91023797Y-105271914D01*
X90833320Y-105271914D01*
X90738082Y-105319533D01*
X90690463Y-105414771D01*
X90690463Y-105510009D01*
X91166654Y-105605247D01*
D11*
X95292333Y-159590619D02*
X95776142Y-159590619D01*
X95776142Y-158574619D01*
X95050428Y-158574619D02*
X94421476Y-158574619D01*
X94760142Y-158961666D01*
X94615000Y-158961666D01*
X94518238Y-159010047D01*
X94469857Y-159058428D01*
X94421476Y-159155190D01*
X94421476Y-159397095D01*
X94469857Y-159493857D01*
X94518238Y-159542238D01*
X94615000Y-159590619D01*
X94905285Y-159590619D01*
X95002047Y-159542238D01*
X95050428Y-159493857D01*
D27*
X98403833Y-169832261D02*
X98615500Y-169529880D01*
X98766690Y-169832261D02*
X98766690Y-169197261D01*
X98524785Y-169197261D01*
X98464309Y-169227500D01*
X98434071Y-169257738D01*
X98403833Y-169318214D01*
X98403833Y-169408928D01*
X98434071Y-169469404D01*
X98464309Y-169499642D01*
X98524785Y-169529880D01*
X98766690Y-169529880D01*
X97859547Y-169197261D02*
X97980500Y-169197261D01*
X98040976Y-169227500D01*
X98071214Y-169257738D01*
X98131690Y-169348452D01*
X98161928Y-169469404D01*
X98161928Y-169711309D01*
X98131690Y-169771785D01*
X98101452Y-169802023D01*
X98040976Y-169832261D01*
X97920023Y-169832261D01*
X97859547Y-169802023D01*
X97829309Y-169771785D01*
X97799071Y-169711309D01*
X97799071Y-169560119D01*
X97829309Y-169499642D01*
X97859547Y-169469404D01*
X97920023Y-169439166D01*
X98040976Y-169439166D01*
X98101452Y-169469404D01*
X98131690Y-169499642D01*
X98161928Y-169560119D01*
D10*
X112014000Y-104865714D02*
X112268000Y-104502857D01*
X112449428Y-104865714D02*
X112449428Y-104103714D01*
X112159142Y-104103714D01*
X112086571Y-104140000D01*
X112050285Y-104176285D01*
X112014000Y-104248857D01*
X112014000Y-104357714D01*
X112050285Y-104430285D01*
X112086571Y-104466571D01*
X112159142Y-104502857D01*
X112449428Y-104502857D01*
X111651142Y-104865714D02*
X111506000Y-104865714D01*
X111433428Y-104829428D01*
X111397142Y-104793142D01*
X111324571Y-104684285D01*
X111288285Y-104539142D01*
X111288285Y-104248857D01*
X111324571Y-104176285D01*
X111360857Y-104140000D01*
X111433428Y-104103714D01*
X111578571Y-104103714D01*
X111651142Y-104140000D01*
X111687428Y-104176285D01*
X111723714Y-104248857D01*
X111723714Y-104430285D01*
X111687428Y-104502857D01*
X111651142Y-104539142D01*
X111578571Y-104575428D01*
X111433428Y-104575428D01*
X111360857Y-104539142D01*
X111324571Y-104502857D01*
X111288285Y-104430285D01*
X114880571Y-131336142D02*
X114880571Y-131590142D01*
X115279714Y-131699000D02*
X115279714Y-131336142D01*
X114517714Y-131336142D01*
X114517714Y-131699000D01*
X115279714Y-132025571D02*
X114517714Y-132025571D01*
X115279714Y-132461000D01*
X114517714Y-132461000D01*
X115352285Y-132642428D02*
X115352285Y-133223000D01*
X115207142Y-133839857D02*
X115243428Y-133803571D01*
X115279714Y-133694714D01*
X115279714Y-133622142D01*
X115243428Y-133513285D01*
X115170857Y-133440714D01*
X115098285Y-133404428D01*
X114953142Y-133368142D01*
X114844285Y-133368142D01*
X114699142Y-133404428D01*
X114626571Y-133440714D01*
X114554000Y-133513285D01*
X114517714Y-133622142D01*
X114517714Y-133694714D01*
X114554000Y-133803571D01*
X114590285Y-133839857D01*
X114517714Y-134057571D02*
X114517714Y-134493000D01*
X115279714Y-134275285D02*
X114517714Y-134275285D01*
X115279714Y-135146142D02*
X115279714Y-134710714D01*
X115279714Y-134928428D02*
X114517714Y-134928428D01*
X114626571Y-134855857D01*
X114699142Y-134783285D01*
X114735428Y-134710714D01*
X114880571Y-126764142D02*
X114880571Y-127018142D01*
X115279714Y-127127000D02*
X115279714Y-126764142D01*
X114517714Y-126764142D01*
X114517714Y-127127000D01*
X115279714Y-127453571D02*
X114517714Y-127453571D01*
X115279714Y-127889000D01*
X114517714Y-127889000D01*
X115352285Y-128070428D02*
X115352285Y-128651000D01*
X115207142Y-129267857D02*
X115243428Y-129231571D01*
X115279714Y-129122714D01*
X115279714Y-129050142D01*
X115243428Y-128941285D01*
X115170857Y-128868714D01*
X115098285Y-128832428D01*
X114953142Y-128796142D01*
X114844285Y-128796142D01*
X114699142Y-128832428D01*
X114626571Y-128868714D01*
X114554000Y-128941285D01*
X114517714Y-129050142D01*
X114517714Y-129122714D01*
X114554000Y-129231571D01*
X114590285Y-129267857D01*
X114517714Y-129485571D02*
X114517714Y-129921000D01*
X115279714Y-129703285D02*
X114517714Y-129703285D01*
X114590285Y-130138714D02*
X114554000Y-130175000D01*
X114517714Y-130247571D01*
X114517714Y-130429000D01*
X114554000Y-130501571D01*
X114590285Y-130537857D01*
X114662857Y-130574142D01*
X114735428Y-130574142D01*
X114844285Y-130537857D01*
X115279714Y-130102428D01*
X115279714Y-130574142D01*
M02*
