G04 #@! TF.GenerationSoftware,KiCad,Pcbnew,5.99.0-unknown-d20d310~100~ubuntu18.04.1*
G04 #@! TF.CreationDate,2019-12-17T15:54:16+02:00*
G04 #@! TF.ProjectId,ESP32-PoE_Rev_E,45535033-322d-4506-9f45-5f5265765f45,E*
G04 #@! TF.SameCoordinates,Original*
G04 #@! TF.FileFunction,Soldermask,Top*
G04 #@! TF.FilePolarity,Negative*
%FSLAX46Y46*%
G04 Gerber Fmt 4.6, Leading zero omitted, Abs format (unit mm)*
G04 Created by KiCad (PCBNEW 5.99.0-unknown-d20d310~100~ubuntu18.04.1) date 2019-12-17 15:54:16*
%MOMM*%
%LPD*%
G04 APERTURE LIST*
%ADD10R,1.371600X1.625600*%
%ADD11R,0.601600X0.651600*%
%ADD12R,0.901600X0.901600*%
%ADD13R,1.501600X1.501600*%
%ADD14C,1.501600*%
%ADD15R,1.117600X1.117600*%
%ADD16R,3.101600X1.601600*%
%ADD17R,1.879600X1.625600*%
%ADD18R,0.651600X0.601600*%
%ADD19C,1.879600*%
%ADD20R,1.879600X1.879600*%
%ADD21R,1.301600X0.651600*%
%ADD22R,3.301600X2.601600*%
%ADD23R,3.501600X2.301600*%
%ADD24R,2.101600X1.801600*%
%ADD25R,1.625600X1.371600*%
%ADD26C,1.254000*%
%ADD27R,1.751600X0.601600*%
%ADD28R,1.751600X0.426600*%
%ADD29C,0.701600*%
%ADD30R,1.101600X1.201600*%
%ADD31O,1.901600X1.301600*%
%ADD32R,1.101600X1.501600*%
%ADD33R,1.701600X3.101600*%
%ADD34R,1.822400X1.822400*%
%ADD35R,2.901599X2.901599*%
%ADD36R,1.501600X1.101600*%
%ADD37C,1.301600*%
%ADD38R,1.101600X4.351600*%
%ADD39R,1.601600X1.001600*%
%ADD40C,0.801600*%
%ADD41R,2.101600X1.001600*%
%ADD42R,1.001600X2.101600*%
%ADD43R,5.101600X5.101600*%
%ADD44C,2.101600*%
%ADD45C,1.625600*%
%ADD46O,1.701600X3.101599*%
%ADD47C,3.401601*%
%ADD48R,1.601600X2.601600*%
G04 APERTURE END LIST*
D10*
X112014000Y-151765000D03*
X109982000Y-151765000D03*
D11*
X91821000Y-147574000D03*
X90805000Y-147574000D03*
X93218000Y-112903000D03*
X92202000Y-112903000D03*
D12*
X115951000Y-150876000D03*
X114427000Y-150876000D03*
X115951000Y-152400000D03*
X114427000Y-152400000D03*
D13*
X95638620Y-163852860D03*
D14*
X97650300Y-163850320D03*
D15*
X102489000Y-135509000D03*
X102489000Y-133731000D03*
D16*
X94742000Y-137005000D03*
X94742000Y-133505000D03*
D17*
X98298000Y-134874000D03*
X98298000Y-132080000D03*
X100584000Y-135509000D03*
X100584000Y-132715000D03*
D18*
X108204000Y-139954000D03*
X108204000Y-140970000D03*
D11*
X116713000Y-113030000D03*
X115697000Y-113030000D03*
X114554000Y-115316000D03*
X115570000Y-115316000D03*
X115697000Y-110363000D03*
X116713000Y-110363000D03*
X115697000Y-111252000D03*
X116713000Y-111252000D03*
D18*
X98298000Y-151828500D03*
X98298000Y-152844500D03*
D11*
X99314000Y-152844500D03*
X100330000Y-152844500D03*
D18*
X113538000Y-147066000D03*
X113538000Y-148082000D03*
X96266000Y-139446000D03*
X96266000Y-138430000D03*
X96075500Y-147828000D03*
X96075500Y-148844000D03*
D19*
X116840000Y-130840000D03*
X116840000Y-128300000D03*
X116840000Y-125760000D03*
D20*
X116840000Y-123220000D03*
D19*
X116840000Y-133380000D03*
X116840000Y-135920000D03*
X116840000Y-141000000D03*
X116840000Y-138460000D03*
X116840000Y-143540000D03*
X116840000Y-146080000D03*
X91440000Y-130840000D03*
X91440000Y-128300000D03*
X91440000Y-125760000D03*
D20*
X91440000Y-123220000D03*
D19*
X91440000Y-133380000D03*
X91440000Y-135920000D03*
X91440000Y-141000000D03*
X91440000Y-138460000D03*
X91440000Y-143540000D03*
X91440000Y-146080000D03*
D15*
X98425000Y-150876000D03*
X100203000Y-150876000D03*
D21*
X104170000Y-152842000D03*
X104170000Y-151892000D03*
X104170000Y-150942000D03*
X101570000Y-152842000D03*
X101570000Y-150942000D03*
D22*
X96377000Y-144272000D03*
X107077000Y-144272000D03*
D23*
X112141000Y-138459000D03*
X112141000Y-145259000D03*
D24*
X96734000Y-151765000D03*
X91734000Y-151765000D03*
X102148000Y-137668000D03*
X107148000Y-137668000D03*
D17*
X111633000Y-130048000D03*
X111633000Y-132842000D03*
D25*
X98044000Y-137160000D03*
X100076000Y-137160000D03*
D26*
X116586000Y-168529000D03*
X116459000Y-96774000D03*
X91821000Y-96774000D03*
D12*
X92456000Y-169291000D03*
X90932000Y-169291000D03*
D15*
X113665000Y-149479000D03*
X115443000Y-149479000D03*
D12*
X92456000Y-167005000D03*
X90932000Y-167005000D03*
D27*
X96876000Y-156854500D03*
D28*
X96876000Y-157592000D03*
X96876000Y-158242000D03*
X96876000Y-158892000D03*
D27*
X96876000Y-159629500D03*
D29*
X95626000Y-156242000D03*
X95626000Y-160242000D03*
D30*
X92326000Y-156742000D03*
X92326000Y-159742000D03*
D31*
X93476000Y-154642000D03*
X96946000Y-154642000D03*
X96946000Y-161842000D03*
X93476000Y-161842000D03*
D32*
X92839540Y-149479000D03*
X94742000Y-149479000D03*
X93786960Y-147269200D03*
X105851960Y-133004560D03*
X103949500Y-133004560D03*
X104904540Y-135214360D03*
D33*
X108261000Y-151003000D03*
X105861000Y-151003000D03*
D18*
X115951000Y-99441000D03*
X115951000Y-100457000D03*
X115697000Y-108839000D03*
X115697000Y-107823000D03*
X116586000Y-107823000D03*
X116586000Y-108839000D03*
D34*
X110744000Y-148844000D03*
D35*
X108966000Y-131445000D03*
D36*
X95715000Y-140335000D03*
X93515000Y-141285000D03*
X93515000Y-139385000D03*
D37*
X107950000Y-124333000D03*
D38*
X99060000Y-127458000D03*
X99060000Y-121208000D03*
X101600000Y-127458000D03*
X101600000Y-121208000D03*
X104140000Y-127458000D03*
X104140000Y-121208000D03*
X106680000Y-127458000D03*
X106680000Y-121208000D03*
X109220000Y-127458000D03*
X109220000Y-121208000D03*
D37*
X100330000Y-124333000D03*
D39*
X92321000Y-106444000D03*
X92321000Y-102090000D03*
D40*
X91421000Y-104267000D03*
X93221000Y-104267000D03*
D39*
X115959000Y-106444000D03*
X115959000Y-102090000D03*
D40*
X115059000Y-104267000D03*
X116859000Y-104267000D03*
D11*
X92456000Y-108077000D03*
X91440000Y-108077000D03*
D41*
X95640000Y-96725000D03*
X95640000Y-97995000D03*
X95640000Y-99265000D03*
X95640000Y-100535000D03*
X95640000Y-101805000D03*
X95640000Y-103075000D03*
X95640000Y-104345000D03*
X95640000Y-105615000D03*
X95640000Y-106885000D03*
X95640000Y-108155000D03*
X95640000Y-109425000D03*
X95640000Y-110695000D03*
X95640000Y-111965000D03*
X95640000Y-113235000D03*
D42*
X98440000Y-114235000D03*
X99710000Y-114235000D03*
X100980000Y-114235000D03*
X102250000Y-114235000D03*
X103520000Y-114235000D03*
X104790000Y-114235000D03*
X106060000Y-114235000D03*
X107330000Y-114235000D03*
X108600000Y-114235000D03*
X109870000Y-114235000D03*
D41*
X112640000Y-113235000D03*
X112640000Y-111965000D03*
X112640000Y-110695000D03*
X112640000Y-109425000D03*
X112640000Y-108155000D03*
X112640000Y-106885000D03*
X112640000Y-105615000D03*
X112640000Y-104345000D03*
X112640000Y-103075000D03*
X112640000Y-101805000D03*
X112640000Y-100535000D03*
X112640000Y-99265000D03*
X112640000Y-97995000D03*
X112640000Y-96725000D03*
D43*
X103140000Y-104235000D03*
D44*
X103140000Y-104235000D03*
D45*
X102616000Y-155806000D03*
X103886000Y-158346000D03*
X105156000Y-155806000D03*
X106426000Y-158346000D03*
X107696000Y-155806000D03*
X108966000Y-158346000D03*
X110236000Y-155806000D03*
X111506000Y-158346000D03*
X112776000Y-155806000D03*
X114046000Y-158346000D03*
D46*
X100531000Y-161946000D03*
X116131000Y-161946000D03*
D47*
X102616000Y-164996000D03*
X114046000Y-164996000D03*
D15*
X95123000Y-131064000D03*
X93345000Y-131064000D03*
D48*
X110891000Y-135382000D03*
X113391000Y-135382000D03*
M02*
