M48
; DRILL file {KiCad 5.99.0-unknown-d20d310~100~ubuntu18.04.1} date 17.12.2019 (вт) 15:54:40 EET
; FORMAT={-:-/ absolute / inch / decimal}
; #@! TF.CreationDate,2019-12-17T15:54:40+02:00
; #@! TF.GenerationSoftware,Kicad,Pcbnew,5.99.0-unknown-d20d310~100~ubuntu18.04.1
; #@! TF.FileFunction,Plated,1,2,PTH
FMAT,2
INCH
T1C0.0118
T2C0.0118
T3C0.0157
T4C0.0197
T5C0.0236
T6C0.0354
T7C0.0394
T8C0.0472
T9C0.0512
%
G90
G05
T1
X4.3797Y-5.8088
T2
X4.3088Y-5.8403
X4.3088Y-5.8797
X4.3403Y-5.8088
X4.3403Y-5.9112
X4.3797Y-5.9112
X4.4112Y-5.8403
X4.4112Y-5.8797
T3
X3.5949Y-5.8581
X3.6053Y-5.9218
X3.6201Y-4.4701
X3.6212Y-4.51
X3.625Y-4.64
X3.6295Y-5.6023
X3.64Y-4.5749
X3.64Y-6.245
X3.6453Y-4.725
X3.66Y-6.465
X3.66Y-6.425
X3.67Y-6.665
X3.6802Y-6.2473
X3.6864Y-4.5571
X3.695Y-6.425
X3.7Y-4.35
X3.7Y-6.01
X3.705Y-4.645
X3.705Y-5.34
X3.7069Y-4.385
X3.71Y-4.01
X3.71Y-5.675
X3.72Y-4.68
X3.73Y-5.065
X3.7375Y-5.8375
X3.7409Y-6.2771
X3.7493Y-6.0044
X3.7493Y-5.9706
X3.7511Y-5.4437
X3.7541Y-4.499
X3.765Y-5.775
X3.775Y-6.665
X3.785Y-4.795
X3.7982Y-5.1113
X3.8Y-5.34
X3.806Y-4.36
X3.8083Y-5.4281
X3.8247Y-3.9335
X3.825Y-4.16
X3.8312Y-4.2847
X3.84Y-4.095
X3.84Y-4.13
X3.84Y-3.9025
X3.874Y-3.9015
X3.8746Y-4.0249
X3.8925Y-4.21
X3.9026Y-4.0435
X3.9395Y-5.0855
X3.94Y-5.05
X3.945Y-4.605
X3.96Y-4.72
X3.9644Y-5.1265
X3.9675Y-4.3575
X3.985Y-4.56
X3.985Y-5.68
X3.99Y-4.24
X3.99Y-5.595
X3.99Y-5.63
X4.015Y-6.27
X4.0175Y-4.56
X4.035Y-4.3243
X4.0475Y-6.0625
X4.0604Y-4.7687
X4.0631Y-4.734
X4.08Y-4.3243
X4.1138Y-5.7668
X4.13Y-5.4575
X4.1401Y-5.8101
X4.1472Y-5.7704
X4.15Y-4.575
X4.15Y-5.4775
X4.1593Y-4.9157
X4.1603Y-4.995
X4.1652Y-4.3603
X4.21Y-5.515
X4.2324Y-6.0263
X4.245Y-4.725
X4.2605Y-5.0417
X4.275Y-4.63
X4.2961Y-3.9739
X4.31Y-5.54
X4.33Y-3.965
X4.335Y-6.08
X4.345Y-4.215
X4.3633Y-3.9574
X4.365Y-4.015
X4.37Y-4.185
X4.37Y-4.3147
X4.3721Y-4.2771
X4.3742Y-5.6219
X4.3748Y-3.8467
X4.375Y-5.6555
X4.3975Y-4.5316
X4.3975Y-4.5651
X4.45Y-5.965
X4.4775Y-4.5225
X4.48Y-6.035
X4.4824Y-4.41
X4.495Y-4.07
X4.495Y-5.845
X4.5045Y-4.3667
X4.5064Y-4.5639
X4.5143Y-4.6162
X4.5249Y-4.2592
X4.525Y-4.6811
X4.5261Y-4.6476
X4.53Y-5.965
X4.565Y-6.03
X4.57Y-5.859
X4.5821Y-4.5225
X4.5895Y-4.7152
X4.59Y-4.415
X4.6072Y-4.2842
X4.6073Y-4.7604
X4.625Y-4.14
X4.2506Y-5.1356
X4.2506Y-5.175
X4.2506Y-5.2144
X4.29Y-5.1356
X4.29Y-5.175
X4.29Y-5.2144
X4.3294Y-5.1356
X4.3294Y-5.175
X4.3294Y-5.2144
T4
X3.9423Y-4.642
T5
X3.585Y-3.89
X3.585Y-3.94
X3.585Y-3.99
X3.585Y-4.04
X3.585Y-4.29
X3.635Y-3.89
X3.635Y-3.96
X3.69Y-3.78
X3.69Y-3.8375
X3.69Y-3.89
X3.73Y-6.56
X3.73Y-6.605
X3.734Y-4.92
X3.765Y-3.78
X3.775Y-4.97
X3.815Y-3.81
X3.815Y-3.86
X3.825Y-6.155
X3.85Y-5.07
X3.855Y-3.78
X3.8713Y-6.3075
X3.8713Y-6.345
X3.885Y-5.59
X3.895Y-5.5
X3.9Y-5.84
X3.9Y-6.165
X3.905Y-3.81
X3.91Y-6.495
X3.91Y-6.655
X3.935Y-5.65
X3.94Y-4.425
X3.955Y-3.78
X3.955Y-5.168
X3.955Y-5.284
X3.995Y-5.98
X4.005Y-3.81
X4.02Y-6.645
X4.035Y-4.425
X4.035Y-5.85
X4.055Y-3.78
X4.0556Y-5.9795
X4.08Y-4.425
X4.08Y-6.3758
X4.095Y-6.58
X4.1Y-4.225
X4.1Y-5.72
X4.105Y-3.81
X4.145Y-6.645
X4.15Y-4.225
X4.155Y-3.78
X4.17Y-6.49
X4.2Y-4.025
X4.2Y-4.075
X4.2Y-4.125
X4.2Y-4.175
X4.2Y-4.225
X4.2Y-6.43
X4.205Y-3.81
X4.21Y-6.58
X4.24Y-5.309
X4.245Y-4.425
X4.25Y-4.075
X4.25Y-4.125
X4.25Y-4.175
X4.25Y-4.225
X4.255Y-3.78
X4.26Y-6.49
X4.26Y-6.645
X4.3Y-4.125
X4.3Y-4.175
X4.3Y-4.225
X4.305Y-3.81
X4.31Y-5.32
X4.315Y-6.58
X4.32Y-6.43
X4.355Y-3.78
X4.355Y-6.3758
X4.365Y-4.94
X4.365Y-4.985
X4.365Y-6.49
X4.37Y-6.645
X4.39Y-3.81
X4.41Y-4.69
X4.41Y-4.74
X4.41Y-4.79
X4.41Y-4.84
X4.41Y-4.89
X4.41Y-4.94
X4.41Y-4.985
X4.41Y-5.03
X4.43Y-6.58
X4.435Y-3.78
X4.435Y-5.175
X4.446Y-5.535
X4.45Y-6.3758
X4.454Y-5.136
X4.46Y-4.69
X4.46Y-4.74
X4.46Y-4.79
X4.46Y-4.84
X4.46Y-4.89
X4.46Y-4.94
X4.46Y-4.985
X4.475Y-5.045
X4.475Y-5.24
X4.5Y-4.2
X4.5Y-6.075
X4.505Y-3.78
X4.505Y-3.825
X4.505Y-3.885
X4.505Y-3.93
X4.505Y-3.975
X4.55Y-3.885
X4.62Y-3.885
X4.62Y-3.93
X4.62Y-3.975
X4.62Y-4.02
X4.62Y-4.07
X3.9898Y-4.0329
X3.9898Y-4.1037
X3.9898Y-4.1746
X4.0606Y-4.0329
X4.0606Y-4.1746
X4.1315Y-4.0329
X4.1315Y-4.1037
X4.1315Y-4.1746
T6
X3.7653Y-6.4509
X3.8445Y-6.4508
T7
X4.04Y-6.1341
X4.09Y-6.2341
X4.14Y-6.1341
X4.19Y-6.2341
X4.24Y-6.1341
X4.29Y-6.2341
X4.34Y-6.1341
X4.39Y-6.2341
X4.44Y-6.1341
X4.49Y-6.2341
X4.6Y-4.8512
X4.6Y-4.9512
X4.6Y-5.0512
X4.6Y-5.1512
X4.6Y-5.2512
X4.6Y-5.3512
X4.6Y-5.4512
X4.6Y-5.5512
X4.6Y-5.6512
X4.6Y-5.7512
X3.6Y-4.8512
X3.6Y-4.9512
X3.6Y-5.0512
X3.6Y-5.1512
X3.6Y-5.2512
X3.6Y-5.3512
X3.6Y-5.4512
X3.6Y-5.5512
X3.6Y-5.6512
X3.6Y-5.7512
T8
X4.36Y-5.86
T9
X4.0606Y-4.1037
T5
G00X3.692Y-6.0883
M15
G01X3.6683Y-6.0883
M16
G05
G00X3.692Y-6.3717
M15
G01X3.6683Y-6.3717
M16
G05
G00X3.8286Y-6.0883
M15
G01X3.805Y-6.0883
M16
G05
G00X3.8286Y-6.3717
M15
G01X3.805Y-6.3717
M16
G05
G00X3.9579Y-6.3483
M15
G01X3.9579Y-6.4034
M16
G05
G00X4.5721Y-6.3483
M15
G01X4.5721Y-6.4034
M16
G05
T0
M30
