G04 #@! TF.GenerationSoftware,KiCad,Pcbnew,5.99.0-unknown-d20d310~100~ubuntu18.04.1*
G04 #@! TF.CreationDate,2019-12-17T15:54:16+02:00*
G04 #@! TF.ProjectId,ESP32-PoE_Rev_E,45535033-322d-4506-9f45-5f5265765f45,E*
G04 #@! TF.SameCoordinates,Original*
G04 #@! TF.FileFunction,Copper,L2,Bot*
G04 #@! TF.FilePolarity,Positive*
%FSLAX46Y46*%
G04 Gerber Fmt 4.6, Leading zero omitted, Abs format (unit mm)*
G04 Created by KiCad (PCBNEW 5.99.0-unknown-d20d310~100~ubuntu18.04.1) date 2019-12-17 15:54:16*
%MOMM*%
%LPD*%
G04 APERTURE LIST*
%ADD10R,0.508000X0.762000*%
%ADD11R,0.500000X0.550000*%
%ADD12R,1.400000X1.000000*%
%ADD13R,1.200000X0.550000*%
%ADD14R,1.524000X1.270000*%
%ADD15R,0.550000X0.500000*%
%ADD16R,1.016000X1.016000*%
%ADD17R,1.270000X1.524000*%
%ADD18R,1.400000X1.400000*%
%ADD19C,1.400000*%
%ADD20C,1.000000*%
%ADD21R,1.000000X1.400000*%
%ADD22C,1.778000*%
%ADD23R,1.778000X1.778000*%
%ADD24R,1.270000X0.325000*%
%ADD25R,1.778000X1.016000*%
%ADD26R,0.500000X1.000000*%
%ADD27R,1.500000X1.200000*%
%ADD28R,1.500000X4.500000*%
%ADD29O,1.800000X1.200000*%
%ADD30R,1.016000X0.381000*%
%ADD31R,1.016000X0.635000*%
%ADD32R,0.381000X1.016000*%
%ADD33R,0.635000X1.016000*%
%ADD34R,3.600000X3.600000*%
%ADD35R,0.400000X0.400000*%
%ADD36R,1.422400X1.422400*%
%ADD37R,0.250000X0.800000*%
%ADD38R,0.800000X0.250000*%
%ADD39R,1.000000X0.400000*%
%ADD40R,0.400000X1.000000*%
%ADD41R,2.799999X2.799999*%
%ADD42C,0.800000*%
%ADD43R,1.016000X1.778000*%
%ADD44R,1.400000X1.200000*%
%ADD45R,0.762000X0.508000*%
%ADD46C,1.300000*%
%ADD47C,2.000000*%
%ADD48C,1.524000*%
%ADD49O,1.600000X2.999999*%
%ADD50C,0.700000*%
%ADD51C,0.900000*%
%ADD52C,1.016000*%
%ADD53C,0.508000*%
%ADD54C,0.152400*%
%ADD55C,0.254000*%
%ADD56C,0.304800*%
%ADD57C,0.406400*%
%ADD58C,0.762000*%
%ADD59C,0.609600*%
%ADD60C,0.660400*%
%ADD61C,0.203200*%
%ADD62C,1.270000*%
%ADD63C,0.330200*%
G04 APERTURE END LIST*
D10*
X113030000Y-129286000D03*
X113792000Y-129286000D03*
X113792000Y-134239000D03*
X113030000Y-134239000D03*
D11*
X91948000Y-167005000D03*
X90932000Y-167005000D03*
X90932000Y-166116000D03*
X91948000Y-166116000D03*
D12*
X92329000Y-160396000D03*
X92329000Y-156596000D03*
X94361000Y-156596000D03*
X94361000Y-160396000D03*
D11*
X106553000Y-125666500D03*
X105537000Y-125666500D03*
X91948000Y-167894000D03*
X90932000Y-167894000D03*
X92329000Y-101854000D03*
X93345000Y-101854000D03*
X98298000Y-168402000D03*
X97282000Y-168402000D03*
D13*
X93442000Y-168018500D03*
X93442000Y-167068500D03*
X93442000Y-166118500D03*
X96042000Y-168018500D03*
X96042000Y-166118500D03*
D14*
X96964500Y-159131000D03*
X98996500Y-159131000D03*
D15*
X97282000Y-125095000D03*
X97282000Y-124079000D03*
D16*
X99568000Y-127127000D03*
X97790000Y-127127000D03*
D11*
X108839000Y-125666500D03*
X107823000Y-125666500D03*
D17*
X101219000Y-116713000D03*
X103251000Y-116713000D03*
D18*
X95638620Y-163852860D03*
D19*
X97650300Y-163850320D03*
D20*
X116586000Y-168529000D03*
X116459000Y-96774000D03*
X91821000Y-96774000D03*
D11*
X105791000Y-147447000D03*
X106807000Y-147447000D03*
X104521000Y-151003000D03*
X105537000Y-151003000D03*
D15*
X113157000Y-152146000D03*
X113157000Y-153162000D03*
D11*
X104521000Y-153543000D03*
X105537000Y-153543000D03*
D15*
X93218000Y-117221000D03*
X93218000Y-118237000D03*
X104140000Y-122682000D03*
X104140000Y-123698000D03*
D11*
X104140000Y-124587000D03*
X105156000Y-124587000D03*
D15*
X111760000Y-108585000D03*
X111760000Y-109601000D03*
D11*
X102489000Y-120269000D03*
X101473000Y-120269000D03*
X109982000Y-127635000D03*
X110998000Y-127635000D03*
D15*
X105537000Y-129032000D03*
X105537000Y-128016000D03*
X106934000Y-152400000D03*
X106934000Y-151384000D03*
D11*
X90932000Y-169291000D03*
X91948000Y-169291000D03*
D15*
X115951000Y-151511000D03*
X115951000Y-152527000D03*
X114681000Y-152146000D03*
X114681000Y-153162000D03*
X110617000Y-152908000D03*
X110617000Y-153924000D03*
X112014000Y-152908000D03*
X112014000Y-153924000D03*
X108331000Y-152908000D03*
X108331000Y-153924000D03*
X109728000Y-152908000D03*
X109728000Y-153924000D03*
D11*
X94234000Y-169291000D03*
X95250000Y-169291000D03*
D15*
X96393000Y-124079000D03*
X96393000Y-125095000D03*
X97663000Y-167259000D03*
X97663000Y-166243000D03*
D11*
X91313000Y-148209000D03*
X92329000Y-148209000D03*
X91313000Y-149606000D03*
X92329000Y-149606000D03*
D21*
X103571040Y-140116560D03*
X105473500Y-140116560D03*
X104518460Y-142326360D03*
D22*
X116840000Y-130840000D03*
X116840000Y-128300000D03*
X116840000Y-125760000D03*
D23*
X116840000Y-123220000D03*
D22*
X116840000Y-133380000D03*
X116840000Y-135920000D03*
X116840000Y-141000000D03*
X116840000Y-138460000D03*
X116840000Y-143540000D03*
X116840000Y-146080000D03*
X91440000Y-130840000D03*
X91440000Y-128300000D03*
X91440000Y-125760000D03*
D23*
X91440000Y-123220000D03*
D22*
X91440000Y-133380000D03*
X91440000Y-135920000D03*
X91440000Y-141000000D03*
X91440000Y-138460000D03*
X91440000Y-143540000D03*
X91440000Y-146080000D03*
D16*
X99314000Y-167894000D03*
X99314000Y-166116000D03*
D24*
X93916500Y-150880000D03*
X93916500Y-150230000D03*
X93916500Y-149580000D03*
X93916500Y-148930000D03*
X93916500Y-148280000D03*
X93916500Y-147630000D03*
X93916500Y-146980000D03*
X93916500Y-146330000D03*
X93916500Y-145680000D03*
X93916500Y-145030000D03*
X101155500Y-145030000D03*
X101155500Y-145680000D03*
X101155500Y-146330000D03*
X101155500Y-146980000D03*
X101155500Y-147630000D03*
X101155500Y-148280000D03*
X101155500Y-148930000D03*
X101155500Y-149580000D03*
X101155500Y-150230000D03*
X101155500Y-150880000D03*
D21*
X94300040Y-134401560D03*
X96202500Y-134401560D03*
X95247460Y-136611360D03*
D14*
X101219000Y-118618000D03*
X103251000Y-118618000D03*
D25*
X116459000Y-159258000D03*
X116459000Y-155702000D03*
D26*
X100290000Y-108587000D03*
X101390000Y-108587000D03*
X102490000Y-108587000D03*
X103590000Y-108587000D03*
X104340000Y-108587000D03*
X105040000Y-108587000D03*
X105790000Y-108587000D03*
X106890000Y-108587000D03*
X107990000Y-108587000D03*
D27*
X109440000Y-110337000D03*
X98840000Y-110337000D03*
X109440000Y-114787000D03*
X98840000Y-114787000D03*
D28*
X98840000Y-112387000D03*
X109440000Y-112387000D03*
D16*
X105283000Y-145542000D03*
X107061000Y-145542000D03*
X104013000Y-152273000D03*
X105791000Y-152273000D03*
X105791000Y-144018000D03*
X104013000Y-144018000D03*
X101600000Y-152908000D03*
X99822000Y-152908000D03*
D29*
X93476000Y-154642000D03*
X96946000Y-154642000D03*
X96946000Y-161842000D03*
X93476000Y-161842000D03*
D30*
X107188000Y-141605000D03*
X107188000Y-142367000D03*
X108712000Y-141605000D03*
X108712000Y-142367000D03*
D31*
X107188000Y-140716000D03*
X108712000Y-140716000D03*
X107188000Y-143256000D03*
X108712000Y-143256000D03*
D32*
X95631000Y-108077000D03*
X94869000Y-108077000D03*
X95631000Y-109601000D03*
X94869000Y-109601000D03*
D33*
X96520000Y-108077000D03*
X96520000Y-109601000D03*
X93980000Y-108077000D03*
X93980000Y-109601000D03*
D21*
X96453960Y-131028440D03*
X94551500Y-131028440D03*
X95506540Y-128818640D03*
D14*
X104267000Y-149606000D03*
X106299000Y-149606000D03*
D11*
X93345000Y-143129000D03*
X94361000Y-143129000D03*
D21*
X116400000Y-116195000D03*
X112600000Y-116195000D03*
D15*
X116459000Y-113792000D03*
X116459000Y-112776000D03*
D34*
X110744000Y-148844000D03*
D35*
X112044000Y-149344000D03*
X112044000Y-148344000D03*
X111244000Y-147544000D03*
X110244000Y-147544000D03*
X109444000Y-148344000D03*
X109444000Y-149344000D03*
X110244000Y-150144000D03*
X111244000Y-150144000D03*
D36*
X110744000Y-148844000D03*
D37*
X108994000Y-151294000D03*
X109494000Y-151294000D03*
X109994000Y-151294000D03*
X110494000Y-151294000D03*
X110994000Y-151294000D03*
X111494000Y-151294000D03*
X111994000Y-151294000D03*
X112494000Y-151294000D03*
D38*
X113194000Y-150594000D03*
X113194000Y-150094000D03*
X113194000Y-149594000D03*
X113194000Y-149094000D03*
X113194000Y-148594000D03*
X113194000Y-148094000D03*
X113194000Y-147594000D03*
X113194000Y-147094000D03*
D37*
X112494000Y-146394000D03*
X111994000Y-146394000D03*
X111494000Y-146394000D03*
X110994000Y-146394000D03*
X110494000Y-146394000D03*
X109994000Y-146394000D03*
X109494000Y-146394000D03*
X108994000Y-146394000D03*
D38*
X108294000Y-147094000D03*
X108294000Y-147594000D03*
X108294000Y-148094000D03*
X108294000Y-148594000D03*
X108294000Y-149094000D03*
X108294000Y-149594000D03*
X108294000Y-150094000D03*
X108294000Y-150594000D03*
D39*
X106616000Y-132645000D03*
X106616000Y-131845000D03*
X106616000Y-131045000D03*
X106616000Y-130245000D03*
D40*
X106966000Y-129095000D03*
X107766000Y-129095000D03*
X108566000Y-129095000D03*
X109366000Y-129095000D03*
X110166000Y-129095000D03*
X110966000Y-129095000D03*
D39*
X111316000Y-130245000D03*
X111316000Y-131045000D03*
X111316000Y-131845000D03*
X111316000Y-132645000D03*
D40*
X110966000Y-133795000D03*
X110166000Y-133795000D03*
X109366000Y-133795000D03*
X108566000Y-133795000D03*
X107766000Y-133795000D03*
X106966000Y-133795000D03*
D41*
X108966000Y-131445000D03*
D42*
X107966000Y-132445000D03*
X108966000Y-132445000D03*
X109966000Y-132445000D03*
X107966000Y-131445000D03*
X108966000Y-131445000D03*
X109966000Y-131445000D03*
X108966000Y-130445000D03*
X107966000Y-130445000D03*
X109966000Y-130445000D03*
D15*
X94615000Y-133223000D03*
X94615000Y-132207000D03*
X96520000Y-132207000D03*
X96520000Y-133223000D03*
D16*
X106426000Y-126873000D03*
X108204000Y-126873000D03*
D21*
X94107000Y-120650000D03*
X96009460Y-120650000D03*
X95054420Y-122859800D03*
D32*
X106680000Y-117221000D03*
X105918000Y-117221000D03*
X106680000Y-118745000D03*
X105918000Y-118745000D03*
D33*
X107569000Y-117221000D03*
X107569000Y-118745000D03*
X105029000Y-117221000D03*
X105029000Y-118745000D03*
D43*
X108966000Y-122301000D03*
X105410000Y-122301000D03*
D11*
X96012000Y-138684000D03*
X97028000Y-138684000D03*
D44*
X95969000Y-140043000D03*
X93769000Y-141643000D03*
X93769000Y-140043000D03*
X95969000Y-141643000D03*
D45*
X90932000Y-164973000D03*
X90932000Y-164211000D03*
D46*
X104940000Y-104235000D03*
X101340000Y-104235000D03*
X103140000Y-106035000D03*
X103140000Y-102435000D03*
X104940000Y-102435000D03*
X101340000Y-102435000D03*
X104940000Y-106035000D03*
D47*
X103140000Y-104235000D03*
D46*
X101340000Y-106035000D03*
D48*
X102616000Y-155806000D03*
X103886000Y-158346000D03*
X105156000Y-155806000D03*
X106426000Y-158346000D03*
X107696000Y-155806000D03*
X108966000Y-158346000D03*
X110236000Y-155806000D03*
X111506000Y-158346000D03*
X112776000Y-155806000D03*
X114046000Y-158346000D03*
D49*
X100531000Y-161946000D03*
X116131000Y-161946000D03*
D50*
X91949764Y-113540165D03*
X93477590Y-158680910D03*
D51*
X94843600Y-124968000D03*
X98933000Y-139700000D03*
X99314000Y-164973000D03*
D50*
X92964000Y-163195000D03*
X93853000Y-163195000D03*
D51*
X98330590Y-161163000D03*
X98330590Y-160210498D03*
X114300000Y-106680000D03*
X103011525Y-151878661D03*
D50*
X101219000Y-115824000D03*
X102044500Y-115824000D03*
D51*
X117348000Y-103378000D03*
X117348000Y-102108000D03*
X117348000Y-100965000D03*
X117348000Y-99822000D03*
X117348000Y-98679000D03*
X115570000Y-98679000D03*
X114427000Y-100965000D03*
X114427000Y-99822000D03*
X114427000Y-98679000D03*
X114427000Y-97155000D03*
X105410000Y-107315000D03*
X106680000Y-103505000D03*
X106680000Y-106045000D03*
X107950000Y-107315000D03*
X107950000Y-104775000D03*
X109220000Y-106045000D03*
X104140000Y-107315000D03*
X107950000Y-103505000D03*
X107950000Y-106045000D03*
X109220000Y-107315000D03*
X109220000Y-104775000D03*
X106680000Y-107315000D03*
X106680000Y-104775000D03*
X106680000Y-102235000D03*
D50*
X98869500Y-106934000D03*
D51*
X91059000Y-102616000D03*
X91059000Y-101346000D03*
X91059000Y-100076000D03*
X91059000Y-98806000D03*
X92328990Y-98806000D03*
X93726000Y-98806000D03*
X93726000Y-97472500D03*
X95631000Y-96012000D03*
X114427000Y-96012000D03*
X112649000Y-96012000D03*
X110617000Y-96012000D03*
X106807000Y-96774000D03*
X108077000Y-96012000D03*
X105537000Y-96012000D03*
X102997000Y-96012000D03*
X101727000Y-96774000D03*
X104267000Y-96774000D03*
X109347000Y-96774000D03*
X100457000Y-96012000D03*
X93726000Y-96012000D03*
X97917000Y-96012000D03*
D50*
X102489000Y-109836724D03*
D51*
X100076000Y-112395000D03*
D50*
X96139000Y-121793000D03*
X105159542Y-147577542D03*
X107502411Y-153066789D03*
X100584000Y-119888000D03*
D51*
X100457000Y-134213600D03*
D50*
X94107000Y-135636000D03*
D51*
X94742000Y-167767000D03*
X94742000Y-166624000D03*
X107823000Y-112395000D03*
X92328990Y-100584000D03*
D50*
X94234000Y-144145000D03*
D51*
X103632000Y-112395000D03*
X99187000Y-96774000D03*
D50*
X117475000Y-105156000D03*
D51*
X111506000Y-96774000D03*
X96901000Y-96774000D03*
X102489000Y-112395000D03*
D50*
X100203000Y-116967000D03*
D51*
X100457000Y-131267200D03*
D50*
X106934000Y-140081000D03*
X116078000Y-148818600D03*
X95631000Y-146685000D03*
D51*
X102489000Y-148590000D03*
X99314000Y-169037000D03*
X101473000Y-151892000D03*
D50*
X113030000Y-151511000D03*
X111119156Y-97707424D03*
X117023390Y-108817577D03*
D42*
X100135496Y-117906152D03*
D50*
X92590110Y-120015000D03*
D51*
X95884958Y-126238042D03*
X97790000Y-128777998D03*
D50*
X105410000Y-139128500D03*
X94488000Y-118872000D03*
D51*
X96901000Y-98044000D03*
D50*
X116586000Y-112141000D03*
D51*
X91059000Y-108966000D03*
D50*
X104902000Y-138620500D03*
D51*
X99949000Y-143510000D03*
X99060000Y-148336000D03*
D50*
X110109000Y-154432000D03*
X113792000Y-153289000D03*
X91978957Y-114554000D03*
X94742000Y-128651000D03*
X111051173Y-108638173D03*
X103631994Y-109836732D03*
D51*
X97155000Y-156337000D03*
X99060000Y-156590986D03*
X98679000Y-141986000D03*
D50*
X105796410Y-110751157D03*
X100774500Y-110680496D03*
X97154788Y-105664420D03*
X101345994Y-107696000D03*
X93634830Y-115749544D03*
D51*
X113284000Y-119126000D03*
X113284000Y-120396000D03*
X113284000Y-121666000D03*
X113284000Y-122936000D03*
X113284000Y-124206000D03*
X112014000Y-119126000D03*
X112014000Y-120396000D03*
X112014000Y-121666000D03*
X112014000Y-124206000D03*
X112014000Y-122936000D03*
X113284000Y-125476000D03*
X112014000Y-125476000D03*
X110871000Y-125476000D03*
X113284000Y-126619000D03*
X112014000Y-127762000D03*
X112014000Y-126619000D03*
X110871000Y-126619000D03*
X109474000Y-135128000D03*
X114300000Y-154305000D03*
D50*
X105671242Y-126872771D03*
X105646588Y-124858412D03*
D51*
X112649000Y-131445000D03*
X113131600Y-130454400D03*
X113665000Y-133096000D03*
X113665000Y-128143000D03*
D50*
X116573518Y-119765597D03*
X110998000Y-106299000D03*
X110363000Y-107060996D03*
X110827886Y-100518975D03*
X94234000Y-101854000D03*
X101981000Y-159258000D03*
D51*
X102108000Y-168783000D03*
X105283000Y-168783000D03*
X108204000Y-168783000D03*
X110998000Y-168783000D03*
X112522000Y-167132000D03*
X104013000Y-167132000D03*
X106934000Y-167132000D03*
X109601000Y-167132000D03*
X106680000Y-163322000D03*
X109728000Y-163322000D03*
X103632000Y-161946000D03*
X110617000Y-161946000D03*
X113030000Y-161946000D03*
X105918000Y-164846000D03*
X110871000Y-164846000D03*
X108204000Y-164846000D03*
D50*
X114173000Y-148463000D03*
X111696500Y-115954254D03*
D51*
X112928400Y-140589000D03*
D50*
X100062412Y-129172589D03*
X96475144Y-129826028D03*
X96730025Y-137874369D03*
X101219000Y-144272000D03*
X96520000Y-135636000D03*
X95231599Y-151654399D03*
X95231596Y-152512566D03*
X111125000Y-143649700D03*
D51*
X104140000Y-145288000D03*
D50*
X92075000Y-117856016D03*
X117024281Y-120913475D03*
X97536000Y-104013000D03*
X109121140Y-100936860D03*
X102806507Y-153987493D03*
X92963986Y-164211000D03*
X111104976Y-142796955D03*
X109474000Y-140716000D03*
X105339378Y-146567141D03*
X115951000Y-153162000D03*
X104491677Y-146477642D03*
X115062000Y-151511000D03*
X95885000Y-169290994D03*
X93217439Y-169291561D03*
X108217597Y-128058505D03*
D51*
X107696000Y-134848600D03*
D50*
X92456000Y-158623000D03*
X94932500Y-148272500D03*
X95019852Y-159437320D03*
X93980000Y-152654000D03*
X114173000Y-103378000D03*
X109982000Y-100711000D03*
X103135212Y-121125408D03*
X108585000Y-117602000D03*
X107823000Y-120015000D03*
X94107000Y-117983000D03*
X110871000Y-101981004D03*
X97536000Y-104902000D03*
X91574110Y-150412598D03*
X91310373Y-148796940D03*
X97147890Y-99910341D03*
X92188792Y-142297910D03*
X113852728Y-112014000D03*
X113728500Y-114871500D03*
X100076000Y-128270000D03*
X101346000Y-142113000D03*
X116384334Y-114871500D03*
X114932121Y-108184528D03*
X100695469Y-130214143D03*
X101346000Y-143002000D03*
X114462245Y-115922976D03*
X114961886Y-118048831D03*
X105410000Y-116205000D03*
X114413738Y-110914018D03*
X114662732Y-117250637D03*
X110998008Y-109593946D03*
X114934137Y-118900792D03*
X111696500Y-115101841D03*
X103202017Y-120244527D03*
X96673145Y-110744000D03*
X94156262Y-111379297D03*
X97312968Y-108831208D03*
X93980000Y-110490555D03*
X92455958Y-116203466D03*
X98398693Y-99097193D03*
X99124867Y-102705397D03*
X98415660Y-102232500D03*
X97536008Y-99123500D03*
X95353530Y-114274400D03*
X95278919Y-138270969D03*
D52*
X98171000Y-140716000D02*
X98933000Y-139954000D01*
X98159414Y-137933586D02*
X98159414Y-140704414D01*
X98159414Y-140704414D02*
X98171000Y-140716000D01*
X97485200Y-141401800D02*
X98171000Y-140716000D01*
D53*
X96520000Y-127785172D02*
X96520000Y-128801170D01*
X95567500Y-127508000D02*
X96242828Y-127508000D01*
X96242828Y-127508000D02*
X96520000Y-127785172D01*
X94869000Y-126809500D02*
X95567500Y-127508000D01*
X94843600Y-124968000D02*
X94869000Y-124993400D01*
X94869000Y-124993400D02*
X94869000Y-126809500D01*
X96520000Y-128801170D02*
X97360361Y-129641531D01*
X97360361Y-129641531D02*
X97360361Y-137134533D01*
X97360361Y-137134533D02*
X98159414Y-137933586D01*
D54*
X90678000Y-121348500D02*
X90678000Y-114811929D01*
X90932000Y-121602500D02*
X90678000Y-121348500D01*
X91599765Y-113890164D02*
X91949764Y-113540165D01*
X90678000Y-114811929D02*
X91599765Y-113890164D01*
D53*
X91440000Y-123220000D02*
X90932000Y-122712000D01*
X90932000Y-122712000D02*
X90932000Y-121602500D01*
D52*
X98933000Y-138707172D02*
X98159414Y-137933586D01*
X98933000Y-139700000D02*
X98933000Y-138707172D01*
D53*
X98933000Y-139192000D02*
X98933000Y-138707172D01*
D52*
X98933000Y-139700000D02*
X98933000Y-139192000D01*
X96685122Y-149707622D02*
X96685122Y-143421078D01*
X98075750Y-151098250D02*
X96685122Y-149707622D01*
X96685122Y-143421078D02*
X97485200Y-142621000D01*
X97485200Y-142621000D02*
X97485200Y-141401800D01*
X98933000Y-139954000D02*
X98933000Y-139700000D01*
D53*
X98075750Y-151098250D02*
X98831411Y-151853911D01*
X98831411Y-155414946D02*
X98044000Y-156202356D01*
X98044000Y-156202356D02*
X98044000Y-157353000D01*
X98044000Y-157353000D02*
X97521861Y-157875139D01*
X98831411Y-151853911D02*
X98831411Y-155414946D01*
X93972564Y-158680910D02*
X93477590Y-158680910D01*
X95347368Y-158680910D02*
X93972564Y-158680910D01*
X97521861Y-157875139D02*
X96153139Y-157875139D01*
X96153139Y-157875139D02*
X95347368Y-158680910D01*
X96042000Y-166118500D02*
X97787500Y-166118500D01*
X97787500Y-166118500D02*
X97790000Y-166116000D01*
X99314000Y-166116000D02*
X97790000Y-166116000D01*
X97790000Y-166116000D02*
X97663000Y-166243000D01*
D52*
X99314000Y-164973000D02*
X99314000Y-165481000D01*
D55*
X99203000Y-165370000D02*
X99314000Y-165481000D01*
D52*
X99314000Y-165481000D02*
X99314000Y-166116000D01*
D55*
X99068000Y-165870000D02*
X99314000Y-166116000D01*
X117729000Y-109918500D02*
X117411500Y-110236000D01*
X117729000Y-108267500D02*
X117729000Y-109918500D01*
X117602000Y-108140500D02*
X117729000Y-108267500D01*
D53*
X105658058Y-147574000D02*
X105791000Y-147574000D01*
X105159542Y-147577542D02*
X105654516Y-147577542D01*
X105654516Y-147577542D02*
X105658058Y-147574000D01*
X105791000Y-147447000D02*
X105290084Y-147447000D01*
X105290084Y-147447000D02*
X105159542Y-147577542D01*
D55*
X112494000Y-151294000D02*
X113067000Y-151294000D01*
X112494000Y-151483000D02*
X112522000Y-151511000D01*
X112494000Y-151294000D02*
X112494000Y-151483000D01*
X112522000Y-151511000D02*
X113030000Y-151511000D01*
X112776000Y-152146000D02*
X113157000Y-152146000D01*
X112494000Y-151864000D02*
X112776000Y-152146000D01*
X112494000Y-151294000D02*
X112494000Y-151864000D01*
X114335500Y-150594000D02*
X114554000Y-150812500D01*
X114554000Y-150812500D02*
X114554000Y-150876000D01*
X113194000Y-150594000D02*
X114335500Y-150594000D01*
X113194000Y-151167000D02*
X113194000Y-151347000D01*
X113194000Y-150594000D02*
X113194000Y-151167000D01*
X113067000Y-151294000D02*
X113194000Y-151167000D01*
D56*
X93345000Y-143256000D02*
X94234000Y-144145000D01*
X93345000Y-143129000D02*
X93345000Y-143256000D01*
D57*
X93345000Y-144018000D02*
X93472000Y-144145000D01*
X93345000Y-143129000D02*
X93345000Y-144018000D01*
D54*
X101092000Y-120777000D02*
X100933999Y-120618999D01*
X103433074Y-122279600D02*
X101930474Y-120777000D01*
X100933999Y-120618999D02*
X100933999Y-120237999D01*
X101930474Y-120777000D02*
X101092000Y-120777000D01*
X103712600Y-122279600D02*
X103433074Y-122279600D01*
X104115000Y-122682000D02*
X103712600Y-122279600D01*
X104140000Y-122682000D02*
X104115000Y-122682000D01*
X100933999Y-120237999D02*
X100584000Y-119888000D01*
D53*
X104521000Y-151574500D02*
X104216839Y-151878661D01*
X104521000Y-151003000D02*
X104521000Y-151574500D01*
X104216839Y-151878661D02*
X103647921Y-151878661D01*
X103647921Y-151878661D02*
X103011525Y-151878661D01*
D57*
X104521000Y-151003000D02*
X102612000Y-151003000D01*
X102612000Y-151003000D02*
X102489000Y-150880000D01*
D58*
X98386900Y-163113720D02*
X98386900Y-160266808D01*
X97650300Y-163850320D02*
X98386900Y-163113720D01*
X98386900Y-160266808D02*
X98350299Y-160230207D01*
D57*
X92964000Y-163195000D02*
X93853000Y-163195000D01*
X94250741Y-162797259D02*
X93853000Y-163195000D01*
X97650300Y-163850320D02*
X96597239Y-162797259D01*
X96597239Y-162797259D02*
X94250741Y-162797259D01*
D53*
X98350299Y-160230207D02*
X98330590Y-160210498D01*
D52*
X98806000Y-159004000D02*
X98806000Y-159735088D01*
X98806000Y-159735088D02*
X98780589Y-159760499D01*
X98780589Y-159760499D02*
X98330590Y-160210498D01*
X114300000Y-106680000D02*
X112395000Y-104775000D01*
X112395000Y-104775000D02*
X109220000Y-104775000D01*
X102998186Y-151892000D02*
X103011525Y-151878661D01*
X101473000Y-151892000D02*
X102998186Y-151892000D01*
X102489000Y-151356136D02*
X102561526Y-151428662D01*
X102489000Y-150876000D02*
X102489000Y-151356136D01*
X102561526Y-151428662D02*
X103011525Y-151878661D01*
D58*
X100697974Y-116967000D02*
X101282500Y-116967000D01*
X100203000Y-116967000D02*
X100697974Y-116967000D01*
X101219000Y-115824000D02*
X101219000Y-115951000D01*
X101219000Y-115951000D02*
X100203000Y-116967000D01*
X101219000Y-115824000D02*
X102044500Y-115824000D01*
X101219000Y-116713000D02*
X101219000Y-116649500D01*
X101219000Y-116649500D02*
X102044500Y-115824000D01*
D56*
X96075500Y-140081000D02*
X95758000Y-139763500D01*
D55*
X105727500Y-147447000D02*
X105791000Y-147447000D01*
X105283000Y-145542000D02*
X105968788Y-146227788D01*
X105968788Y-146227788D02*
X105968788Y-147205712D01*
X105968788Y-147205712D02*
X105727500Y-147447000D01*
D52*
X109410500Y-109410500D02*
X109410500Y-110299500D01*
X109410500Y-108902500D02*
X109410500Y-109410500D01*
X109220000Y-107315000D02*
X109220000Y-109220000D01*
X109220000Y-109220000D02*
X109410500Y-109410500D01*
X109220000Y-107315000D02*
X109220000Y-108331000D01*
X109410500Y-108902500D02*
X109410500Y-108521500D01*
X109410500Y-108521500D02*
X109220000Y-108331000D01*
D58*
X117348000Y-98679000D02*
X115570000Y-98679000D01*
D52*
X115570000Y-98679000D02*
X114427000Y-98679000D01*
X117348000Y-103378000D02*
X117348000Y-98679000D01*
D53*
X117615401Y-105015599D02*
X117615401Y-103645401D01*
X117615401Y-103645401D02*
X117348000Y-103378000D01*
X117475000Y-105156000D02*
X117615401Y-105015599D01*
D52*
X111506000Y-96774000D02*
X114046000Y-96774000D01*
X114046000Y-96774000D02*
X114427000Y-97155000D01*
X114427000Y-100965000D02*
X114427000Y-96012000D01*
X106680000Y-104775000D02*
X109220000Y-104775000D01*
X106680000Y-106045000D02*
X109220000Y-106045000D01*
X107950000Y-103505000D02*
X107950000Y-107315000D01*
X109220000Y-104775000D02*
X106680000Y-102235000D01*
X109220000Y-107315000D02*
X109220000Y-104775000D01*
X106680000Y-107315000D02*
X106680000Y-102235000D01*
X104140000Y-107315000D02*
X109220000Y-107315000D01*
X106172000Y-104267000D02*
X103251000Y-104267000D01*
D58*
X98840000Y-110337000D02*
X98840000Y-106963500D01*
X98840000Y-106963500D02*
X98869500Y-106934000D01*
X93726000Y-97472500D02*
X93726000Y-96012000D01*
D52*
X93726000Y-98806000D02*
X93726000Y-97472500D01*
X95758000Y-96774000D02*
X92328990Y-100203010D01*
X92328990Y-100203010D02*
X92328990Y-100584000D01*
X96901000Y-96774000D02*
X95758000Y-96774000D01*
D58*
X101346000Y-102362000D02*
X101346000Y-96774000D01*
X103251000Y-104267000D02*
X101346000Y-102362000D01*
X101346000Y-96774000D02*
X100076000Y-96774000D01*
X111506000Y-96774000D02*
X113665000Y-96774000D01*
X113665000Y-96774000D02*
X114427000Y-96012000D01*
D52*
X96901000Y-96774000D02*
X109347000Y-96774000D01*
X93726000Y-96012000D02*
X114427000Y-96012000D01*
D58*
X109593000Y-110490000D02*
X111442500Y-110490000D01*
X109440000Y-110337000D02*
X109593000Y-110490000D01*
D53*
X117602000Y-105312180D02*
X117602000Y-108140500D01*
X117616590Y-105297590D02*
X117602000Y-105312180D01*
X117475000Y-105156000D02*
X117616590Y-105297590D01*
D52*
X109440000Y-110337000D02*
X107976000Y-110337000D01*
X107976000Y-110337000D02*
X107823000Y-110490000D01*
X107823000Y-110490000D02*
X109410500Y-108902500D01*
X107823000Y-112395000D02*
X107823000Y-110490000D01*
X98840000Y-112387000D02*
X100068000Y-112387000D01*
X100068000Y-112387000D02*
X100076000Y-112395000D01*
X109440000Y-112387000D02*
X107831000Y-112387000D01*
X107831000Y-112387000D02*
X107823000Y-112395000D01*
X107823000Y-112395000D02*
X109220000Y-112395000D01*
D53*
X98840000Y-112895000D02*
X99340000Y-112395000D01*
X99340000Y-112395000D02*
X99581026Y-112395000D01*
X99581026Y-112395000D02*
X100076000Y-112395000D01*
D52*
X102489000Y-112395000D02*
X102489000Y-108588000D01*
X102489000Y-108588000D02*
X102490000Y-108587000D01*
D58*
X98840000Y-112387000D02*
X98488500Y-112035500D01*
D52*
X102490000Y-108587000D02*
X102490000Y-104901000D01*
X102490000Y-104901000D02*
X103124000Y-104267000D01*
D53*
X92329000Y-101854000D02*
X92329000Y-100584010D01*
X92329000Y-100584010D02*
X92328990Y-100584000D01*
D58*
X95885000Y-121539000D02*
X95885000Y-121158000D01*
X96139000Y-121793000D02*
X95885000Y-121539000D01*
X95885000Y-121158000D02*
X95885000Y-120650000D01*
X96139000Y-120650000D02*
X96012000Y-120650000D01*
X96139000Y-121793000D02*
X96139000Y-120650000D01*
D52*
X102743000Y-141478000D02*
X102743000Y-142818793D01*
X102489000Y-147953604D02*
X102489000Y-148590000D01*
X100457000Y-135633206D02*
X102362000Y-137538206D01*
X102489000Y-143072793D02*
X102489000Y-147953604D01*
X100457000Y-134213600D02*
X100457000Y-135633206D01*
X102743000Y-142818793D02*
X102489000Y-143072793D01*
X102362000Y-137538206D02*
X102362000Y-141097000D01*
X102362000Y-141097000D02*
X102743000Y-141478000D01*
X100457000Y-131267200D02*
X100457000Y-134213600D01*
D59*
X107188000Y-143256000D02*
X105854500Y-143256000D01*
X105854500Y-142621000D02*
X105854500Y-143256000D01*
D57*
X106108500Y-142367000D02*
X105854500Y-142621000D01*
X107188000Y-142367000D02*
X106108500Y-142367000D01*
D59*
X105854500Y-143256000D02*
X105854500Y-143954500D01*
D53*
X105283000Y-145542000D02*
X105283000Y-144526000D01*
X105283000Y-144526000D02*
X105854500Y-143954500D01*
X104521000Y-152844500D02*
X104013000Y-152336500D01*
X104521000Y-153543000D02*
X104521000Y-152844500D01*
X104013000Y-152336500D02*
X104013000Y-152273000D01*
D52*
X100990410Y-152374590D02*
X100990410Y-153517588D01*
X100990410Y-153517588D02*
X100990411Y-153517589D01*
X101473000Y-151892000D02*
X100990410Y-152374590D01*
X99123500Y-159131000D02*
X100990411Y-157264089D01*
X98996500Y-159131000D02*
X99123500Y-159131000D01*
X100990411Y-153517589D02*
X101282500Y-153225500D01*
X100990411Y-157264089D02*
X100990411Y-153517589D01*
X101282500Y-153225500D02*
X101600000Y-152908000D01*
X101600000Y-152908000D02*
X101600000Y-152019000D01*
X101600000Y-152019000D02*
X101473000Y-151892000D01*
D57*
X106934000Y-152654000D02*
X107346789Y-153066789D01*
X107346789Y-153066789D02*
X107502411Y-153066789D01*
X106934000Y-152400000D02*
X106934000Y-152654000D01*
D53*
X98298000Y-169037000D02*
X99314000Y-169037000D01*
X98298000Y-168402000D02*
X98298000Y-169037000D01*
X92011500Y-167068500D02*
X91948000Y-167005000D01*
X93442000Y-167068500D02*
X92011500Y-167068500D01*
X90932000Y-169164000D02*
X90932000Y-169291000D01*
X91948000Y-168148000D02*
X90932000Y-169164000D01*
X91948000Y-167894000D02*
X91948000Y-168148000D01*
X91948000Y-167005000D02*
X91948000Y-167894000D01*
D55*
X95250000Y-133604000D02*
X95504000Y-133350000D01*
X95250000Y-135382000D02*
X95250000Y-133604000D01*
X95123000Y-135509000D02*
X95250000Y-135382000D01*
X94234000Y-135509000D02*
X95123000Y-135509000D01*
X94107000Y-135636000D02*
X94234000Y-135509000D01*
X98996500Y-159131000D02*
X98806000Y-159131000D01*
X95969000Y-140043000D02*
X96096000Y-139916000D01*
D56*
X93345000Y-143129000D02*
X93345000Y-142067000D01*
X93345000Y-142067000D02*
X93769000Y-141643000D01*
D58*
X98996500Y-159131000D02*
X98933000Y-159194500D01*
D53*
X97663000Y-167259000D02*
X95377000Y-167259000D01*
X95377000Y-167259000D02*
X94742000Y-166624000D01*
D58*
X97028000Y-165227000D02*
X95250000Y-165227000D01*
X94742000Y-165735000D02*
X95250000Y-165227000D01*
X94742000Y-165735000D02*
X94742000Y-166624000D01*
D53*
X98298000Y-167894000D02*
X97663000Y-167259000D01*
X98298000Y-167894000D02*
X99314000Y-167894000D01*
X98298000Y-168402000D02*
X98298000Y-167894000D01*
D58*
X97650300Y-164604700D02*
X97028000Y-165227000D01*
X97650300Y-163850320D02*
X97650300Y-164604700D01*
D53*
X93442000Y-167068500D02*
X94297500Y-167068500D01*
X94297500Y-167068500D02*
X94742000Y-166624000D01*
D54*
X109440000Y-112387000D02*
X109440000Y-114787000D01*
X98840000Y-112387000D02*
X98840000Y-114787000D01*
D52*
X109440000Y-112387000D02*
X109440000Y-113123000D01*
D53*
X101219000Y-116713000D02*
X100965000Y-116967000D01*
X100965000Y-116967000D02*
X100203000Y-116967000D01*
D58*
X111506000Y-96774000D02*
X108966000Y-96774000D01*
D52*
X103124000Y-96774000D02*
X106045000Y-96774000D01*
X96901000Y-96774000D02*
X100076000Y-96774000D01*
D57*
X115951000Y-150876000D02*
X115951000Y-148945600D01*
X115951000Y-148945600D02*
X116078000Y-148818600D01*
X115951000Y-151511000D02*
X115951000Y-150876000D01*
D55*
X115951000Y-150876000D02*
X114554000Y-150876000D01*
D53*
X114554000Y-150876000D02*
X113919000Y-151511000D01*
X113919000Y-151511000D02*
X113030000Y-151511000D01*
D55*
X107315000Y-152019000D02*
X107950000Y-152019000D01*
X106934000Y-152400000D02*
X107315000Y-152019000D01*
D52*
X102489000Y-148590000D02*
X102489000Y-150876000D01*
D53*
X106934000Y-140589000D02*
X106934000Y-140081000D01*
X107061000Y-140716000D02*
X106934000Y-140589000D01*
D55*
X113194000Y-151347000D02*
X113030000Y-151511000D01*
D57*
X113157000Y-151638000D02*
X113157000Y-152146000D01*
X113030000Y-151511000D02*
X113157000Y-151638000D01*
D55*
X102108000Y-150876000D02*
X102489000Y-150876000D01*
X102485000Y-150876000D02*
X102108000Y-150876000D01*
X102489000Y-150880000D02*
X102485000Y-150876000D01*
D56*
X95631000Y-146685000D02*
X95276000Y-146330000D01*
X95276000Y-146330000D02*
X93916500Y-146330000D01*
D53*
X97650300Y-163850320D02*
X97756980Y-163957000D01*
X99568000Y-167894000D02*
X99314000Y-167894000D01*
X99060000Y-167640000D02*
X99314000Y-167894000D01*
X99314000Y-167894000D02*
X99314000Y-169037000D01*
X97650300Y-163850320D02*
X97642680Y-163850320D01*
X91948000Y-165989000D02*
X92202000Y-165735000D01*
X91948000Y-166116000D02*
X91948000Y-165989000D01*
X92202000Y-165735000D02*
X93218000Y-165735000D01*
D52*
X93442000Y-165384000D02*
X92964000Y-165862000D01*
X95631000Y-163845240D02*
X95638620Y-163852860D01*
D53*
X91950500Y-166118500D02*
X91948000Y-166116000D01*
X93442000Y-166118500D02*
X91950500Y-166118500D01*
D52*
X93442000Y-165892000D02*
X93442000Y-165384000D01*
X93442000Y-165384000D02*
X94973140Y-163852860D01*
X94973140Y-163852860D02*
X95638620Y-163852860D01*
D57*
X93442000Y-166118500D02*
X93442000Y-165892000D01*
D52*
X95638620Y-163852860D02*
X95638620Y-163949380D01*
D56*
X101873225Y-119614775D02*
X101473000Y-120015000D01*
X101873225Y-119589725D02*
X101873225Y-119614775D01*
X101873225Y-119589725D02*
X101517275Y-119589725D01*
X104565275Y-119589725D02*
X101873225Y-119589725D01*
X101346000Y-118618000D02*
X101873225Y-119145225D01*
X101873225Y-119145225D02*
X101873225Y-119589725D01*
X101219000Y-118618000D02*
X101346000Y-118618000D01*
D57*
X116680501Y-108474688D02*
X116680501Y-105528829D01*
X116680501Y-105528829D02*
X116128811Y-104977139D01*
X116128811Y-103888141D02*
X111119156Y-98878486D01*
X116128811Y-104977139D02*
X116128811Y-103888141D01*
X111119156Y-98202398D02*
X111119156Y-97707424D01*
X111119156Y-98878486D02*
X111119156Y-98202398D01*
X117023390Y-108817577D02*
X116680501Y-108474688D01*
D52*
X96137489Y-98807511D02*
X96451001Y-98493999D01*
X95504042Y-105282958D02*
X96137489Y-104649511D01*
X96451001Y-98493999D02*
X96901000Y-98044000D01*
X91059000Y-108966000D02*
X91059000Y-106553000D01*
X91059000Y-106553000D02*
X92329042Y-105282958D01*
X92329042Y-105282958D02*
X95504042Y-105282958D01*
X96137489Y-104649511D02*
X96137489Y-98807511D01*
D53*
X100535495Y-118306151D02*
X100135496Y-117906152D01*
X101219000Y-118618000D02*
X100847344Y-118618000D01*
X100847344Y-118618000D02*
X100535495Y-118306151D01*
X92940109Y-119665001D02*
X92590110Y-120015000D01*
X93733110Y-118872000D02*
X92940109Y-119665001D01*
X94488000Y-118872000D02*
X93733110Y-118872000D01*
D56*
X101517275Y-119589725D02*
X101473000Y-119634000D01*
X105029000Y-119126000D02*
X104565275Y-119589725D01*
D53*
X101473000Y-119634000D02*
X101473000Y-120269000D01*
X101219000Y-118618000D02*
X101473000Y-118872000D01*
X101473000Y-118872000D02*
X101473000Y-119634000D01*
X96393000Y-125462522D02*
X96901042Y-125970564D01*
X96901042Y-125970564D02*
X96901042Y-126238042D01*
X96393000Y-125095000D02*
X96393000Y-125462522D01*
X96393000Y-125095000D02*
X95884958Y-125603042D01*
D52*
X96139000Y-125349000D02*
X95884958Y-125603042D01*
X95884958Y-125603042D02*
X95884958Y-126238042D01*
X97790000Y-127127000D02*
X96901042Y-126238042D01*
X96901042Y-126238042D02*
X96521354Y-126238042D01*
X96521354Y-126238042D02*
X95884958Y-126238042D01*
D53*
X96393000Y-125095000D02*
X96393000Y-125853000D01*
X96007958Y-126238042D02*
X95884958Y-126238042D01*
X96393000Y-125853000D02*
X96007958Y-126238042D01*
D52*
X97790000Y-128777998D02*
X97790000Y-127127000D01*
X99949000Y-140590382D02*
X100101410Y-140437972D01*
X98239999Y-129227997D02*
X97790000Y-128777998D01*
X100101410Y-138223200D02*
X98274772Y-136396562D01*
X98274772Y-129262770D02*
X98239999Y-129227997D01*
X99949000Y-143510000D02*
X99949000Y-140590382D01*
X100101410Y-140437972D02*
X100101410Y-138223200D01*
X98274772Y-136396562D02*
X98274772Y-129262770D01*
D58*
X105410000Y-139128500D02*
X105410000Y-140081000D01*
X104902000Y-138620500D02*
X105410000Y-139128500D01*
D53*
X105410000Y-140053060D02*
X105410000Y-139192000D01*
X105473500Y-140116560D02*
X105410000Y-140053060D01*
X105410000Y-139192000D02*
X105410000Y-139559974D01*
X105029000Y-119126000D02*
X105918000Y-119126000D01*
X105029000Y-118745000D02*
X105029000Y-119126000D01*
X105918000Y-119126000D02*
X106680000Y-119126000D01*
D55*
X105918000Y-118745000D02*
X105918000Y-119126000D01*
X106680000Y-119126000D02*
X106680000Y-118745000D01*
D53*
X107569000Y-119126000D02*
X106680000Y-119126000D01*
X107569000Y-118745000D02*
X107569000Y-119126000D01*
X99060000Y-148336000D02*
X98933000Y-148463000D01*
X116459000Y-112776000D02*
X116459000Y-112268000D01*
X116459000Y-112268000D02*
X116586000Y-112141000D01*
D52*
X99949000Y-143510000D02*
X99060000Y-144399000D01*
X99060000Y-144399000D02*
X99060000Y-148336000D01*
D53*
X114681000Y-153162000D02*
X113157000Y-153162000D01*
X114681000Y-153162000D02*
X113919000Y-153162000D01*
X113919000Y-153162000D02*
X113792000Y-153289000D01*
X112395000Y-153924000D02*
X112014000Y-153924000D01*
X113157000Y-153162000D02*
X112395000Y-153924000D01*
X110617000Y-153924000D02*
X109728000Y-153924000D01*
X105537000Y-152019000D02*
X105791000Y-152273000D01*
X105537000Y-150876000D02*
X105537000Y-152019000D01*
X105537000Y-153670000D02*
X105790996Y-153923996D01*
X105791000Y-152273000D02*
X105537000Y-152527000D01*
X105537000Y-152527000D02*
X105537000Y-153670000D01*
X105790996Y-153923996D02*
X106807004Y-153923996D01*
X106807004Y-153923996D02*
X106807434Y-153924426D01*
X108191185Y-153924426D02*
X107696211Y-153924426D01*
X106807434Y-153924426D02*
X107201237Y-153924426D01*
X107201237Y-153924426D02*
X107696211Y-153924426D01*
X108330574Y-153924426D02*
X108191185Y-153924426D01*
X108331000Y-153924000D02*
X108330574Y-153924426D01*
X107696000Y-154686000D02*
X108331000Y-154051000D01*
D52*
X107696000Y-154686000D02*
X107696000Y-154305000D01*
D53*
X106933996Y-153923996D02*
X107696000Y-154686000D01*
D52*
X107696000Y-155806000D02*
X107696000Y-154686000D01*
D53*
X106807004Y-153923996D02*
X106933996Y-153923996D01*
X107696000Y-153924000D02*
X107696000Y-154305000D01*
D55*
X112014000Y-153924000D02*
X112141000Y-153797000D01*
X112141000Y-153797000D02*
X112522000Y-153797000D01*
X112522000Y-153797000D02*
X113157000Y-153162000D01*
X111887000Y-152146000D02*
X111494000Y-151753000D01*
X113157000Y-153111200D02*
X112191800Y-152146000D01*
X112191800Y-152146000D02*
X111887000Y-152146000D01*
X113157000Y-153162000D02*
X113157000Y-153111200D01*
X111494000Y-151753000D02*
X111494000Y-151294000D01*
X110109000Y-154305000D02*
X110109000Y-154432000D01*
X109728000Y-153924000D02*
X110109000Y-154305000D01*
D57*
X105664000Y-150749000D02*
X105537000Y-150876000D01*
X107442000Y-150749000D02*
X105664000Y-150749000D01*
D55*
X107597000Y-150594000D02*
X107442000Y-150749000D01*
X108294000Y-150594000D02*
X107597000Y-150594000D01*
D53*
X105537000Y-150114000D02*
X105537000Y-150876000D01*
X106045000Y-149606000D02*
X105537000Y-150114000D01*
D55*
X110617000Y-153924000D02*
X110109000Y-154432000D01*
D53*
X113665000Y-153162000D02*
X113157000Y-153162000D01*
D55*
X113792000Y-153289000D02*
X113665000Y-153162000D01*
D53*
X106426000Y-158346000D02*
X106426000Y-157076000D01*
X106426000Y-157076000D02*
X107696000Y-155806000D01*
X107696000Y-155806000D02*
X107696000Y-155702000D01*
D54*
X91440000Y-129921000D02*
X92557601Y-128803399D01*
X91033567Y-115499390D02*
X91628958Y-114903999D01*
X92557601Y-128803399D02*
X92557601Y-122224801D01*
X91628958Y-114903999D02*
X91978957Y-114554000D01*
X92557601Y-122224801D02*
X91033567Y-120700767D01*
X91033567Y-120700767D02*
X91033567Y-115499390D01*
D58*
X95506540Y-128818640D02*
X95338900Y-128651000D01*
X95338900Y-128651000D02*
X94742000Y-128651000D01*
D52*
X91440000Y-129921000D02*
X91440000Y-130840000D01*
D53*
X96520000Y-132207000D02*
X96520000Y-131064000D01*
D57*
X96453960Y-131028440D02*
X96520000Y-131094480D01*
X96520000Y-131094480D02*
X96520000Y-132207000D01*
D53*
X111706827Y-108638173D02*
X111546147Y-108638173D01*
X111546147Y-108638173D02*
X111051173Y-108638173D01*
X111760000Y-108585000D02*
X111706827Y-108638173D01*
D57*
X103590000Y-109794738D02*
X103631994Y-109836732D01*
X103590000Y-108587000D02*
X103590000Y-109794738D01*
D55*
X98298000Y-155194000D02*
X97155000Y-156337000D01*
X98298000Y-153924000D02*
X98298000Y-155194000D01*
X92329000Y-149606000D02*
X92329000Y-151955500D01*
X92329000Y-151955500D02*
X93662500Y-153289000D01*
X93662500Y-153289000D02*
X97663000Y-153289000D01*
X97663000Y-153289000D02*
X98298000Y-153924000D01*
D57*
X100367918Y-150230000D02*
X100164899Y-150433019D01*
X100164899Y-150914101D02*
X99949000Y-151130000D01*
X101155500Y-150230000D02*
X100367918Y-150230000D01*
X100164899Y-150433019D02*
X100164899Y-150914101D01*
X99949000Y-151130000D02*
X99568000Y-150749000D01*
D52*
X99568000Y-150749000D02*
X99822000Y-151003000D01*
X99822000Y-155828986D02*
X99509999Y-156140987D01*
X99509999Y-156140987D02*
X99060000Y-156590986D01*
X99822000Y-151003000D02*
X99822000Y-155828986D01*
X99187000Y-150368000D02*
X99568000Y-150749000D01*
D57*
X101155500Y-150230000D02*
X99325000Y-150230000D01*
X99325000Y-150230000D02*
X99187000Y-150368000D01*
D52*
X98679000Y-143103600D02*
X97866200Y-143916400D01*
X98679000Y-141986000D02*
X98679000Y-143103600D01*
X97866200Y-143916400D02*
X97866200Y-149047200D01*
X97866200Y-149047200D02*
X99187000Y-150368000D01*
D54*
X107035622Y-109931128D02*
X107035622Y-111582178D01*
X107035622Y-111582178D02*
X106680000Y-111937800D01*
X107619750Y-109347000D02*
X107035622Y-109931128D01*
X106680000Y-111937800D02*
X106680000Y-116586000D01*
D53*
X107990000Y-108587000D02*
X107990000Y-108989500D01*
X107990000Y-108989500D02*
X107632500Y-109347000D01*
D55*
X106680000Y-117221000D02*
X106680000Y-116586000D01*
D54*
X107061000Y-108758000D02*
X107061000Y-109061250D01*
X106890000Y-108587000D02*
X107061000Y-108758000D01*
X107061000Y-109061250D02*
X106730811Y-109391439D01*
X106730811Y-109391439D02*
X106730811Y-109423189D01*
X106730811Y-109423189D02*
X106730811Y-111455189D01*
X106730811Y-109207311D02*
X106730811Y-109423189D01*
X106730811Y-108851689D02*
X106730811Y-109207311D01*
X106890000Y-108587000D02*
X106890000Y-109048122D01*
X106890000Y-109048122D02*
X106730811Y-109207311D01*
X106890000Y-108692500D02*
X106730811Y-108851689D01*
X106890000Y-108587000D02*
X106890000Y-108692500D01*
X106730811Y-111455189D02*
X106299000Y-111887000D01*
X106299000Y-111887000D02*
X106299000Y-116205000D01*
X106299000Y-116205000D02*
X105918000Y-116586000D01*
D55*
X105918000Y-117221000D02*
X105918000Y-116586000D01*
D54*
X105796410Y-111246131D02*
X105796410Y-110751157D01*
X105537000Y-111505541D02*
X105796410Y-111246131D01*
X104775000Y-115824000D02*
X105537000Y-115062000D01*
X105537000Y-115062000D02*
X105537000Y-111505541D01*
X104775000Y-116586000D02*
X104775000Y-115824000D01*
D53*
X100290000Y-108837000D02*
X100774500Y-109321500D01*
X100290000Y-108587000D02*
X100290000Y-108837000D01*
X100774500Y-109321500D02*
X100774500Y-110680496D01*
D56*
X105029000Y-116840000D02*
X104775000Y-116586000D01*
X105029000Y-117221000D02*
X105029000Y-116840000D01*
D54*
X92862380Y-115124010D02*
X92862380Y-113155514D01*
X92416390Y-115570000D02*
X92862380Y-115124010D01*
X92202000Y-115570000D02*
X92416390Y-115570000D01*
X92017076Y-116782076D02*
X91821000Y-116586000D01*
X91821000Y-115951000D02*
X92202000Y-115570000D01*
X91821000Y-116586000D02*
X91821000Y-115951000D01*
X92837000Y-116958296D02*
X92660780Y-116782076D01*
X92862380Y-113155514D02*
X91719378Y-112012512D01*
X96494828Y-106324380D02*
X96804789Y-106014419D01*
X92202000Y-107137933D02*
X93015553Y-106324380D01*
X92660780Y-116782076D02*
X92017076Y-116782076D01*
X92837000Y-116967000D02*
X92837000Y-116958296D01*
X91719378Y-112012512D02*
X91719378Y-109956622D01*
X91719378Y-109956622D02*
X92202000Y-109474000D01*
X92202000Y-109474000D02*
X92202000Y-107137933D01*
X93015553Y-106324380D02*
X96494828Y-106324380D01*
X96804789Y-106014419D02*
X97154788Y-105664420D01*
D53*
X101390000Y-108587000D02*
X101345994Y-108542994D01*
X101345994Y-108542994D02*
X101345994Y-107696000D01*
D55*
X93218000Y-117221000D02*
X93091000Y-117221000D01*
X93091000Y-117221000D02*
X92837000Y-116967000D01*
D52*
X116459000Y-154940000D02*
X116459000Y-154305000D01*
X116459000Y-155702000D02*
X116459000Y-154940000D01*
X114300000Y-154941396D02*
X116457604Y-154941396D01*
X116457604Y-154941396D02*
X116459000Y-154940000D01*
X116459000Y-155702000D02*
X114808000Y-155702000D01*
X114300000Y-156210000D02*
X114808000Y-155702000D01*
X114300000Y-154941396D02*
X114300000Y-156210000D01*
D58*
X112164000Y-158346000D02*
X114300000Y-156210000D01*
D52*
X114300000Y-154305000D02*
X114300000Y-154941396D01*
X117221000Y-155321000D02*
X116840000Y-155702000D01*
X117221000Y-153543000D02*
X117221000Y-155321000D01*
X114173000Y-141605000D02*
X114173000Y-138303000D01*
X114681000Y-142113000D02*
X114173000Y-141605000D01*
X115265222Y-145008622D02*
X114681000Y-144424400D01*
X115265222Y-146735822D02*
X115265222Y-145008622D01*
X116459000Y-154305000D02*
X117221000Y-153543000D01*
X110110396Y-135128000D02*
X109474000Y-135128000D01*
X116713000Y-147701000D02*
X116230400Y-147701000D01*
X116230400Y-147701000D02*
X115265222Y-146735822D01*
X114681000Y-144424400D02*
X114681000Y-142113000D01*
X114173000Y-138303000D02*
X110998000Y-135128000D01*
X110998000Y-135128000D02*
X110110396Y-135128000D01*
X117221000Y-148209000D02*
X116713000Y-147701000D01*
X117221000Y-153543000D02*
X117221000Y-148209000D01*
X112014000Y-119126000D02*
X110871000Y-119126000D01*
X110871000Y-125476000D02*
X110871000Y-119126000D01*
X113284000Y-119126000D02*
X112014000Y-119126000D01*
X112014000Y-126619000D02*
X112014000Y-127762000D01*
X113284000Y-126619000D02*
X112014000Y-126619000D01*
X113284000Y-125476000D02*
X113284000Y-126619000D01*
X112014000Y-119126000D02*
X112014000Y-125476000D01*
X113284000Y-125476000D02*
X113284000Y-119126000D01*
D53*
X112014000Y-125476000D02*
X113284000Y-125476000D01*
D58*
X111506000Y-158346000D02*
X112164000Y-158346000D01*
D52*
X110871000Y-126619000D02*
X110871000Y-125476000D01*
D55*
X110166000Y-129095000D02*
X110166000Y-128619400D01*
X110166000Y-128619400D02*
X110998000Y-127787400D01*
X110998000Y-127787400D02*
X110998000Y-127635000D01*
D57*
X110998000Y-127635000D02*
X111125000Y-127762000D01*
X111125000Y-127762000D02*
X112014000Y-127762000D01*
D52*
X112014000Y-126619000D02*
X112014000Y-124968000D01*
X114300000Y-154305000D02*
X116459000Y-154305000D01*
D60*
X106299000Y-126873000D02*
X106298771Y-126872771D01*
X106166216Y-126872771D02*
X105671242Y-126872771D01*
X106298771Y-126872771D02*
X106166216Y-126872771D01*
D53*
X105300412Y-124858412D02*
X105156000Y-124714000D01*
X105646588Y-124858412D02*
X105300412Y-124858412D01*
X105156000Y-124714000D02*
X105156000Y-124367824D01*
D57*
X105156000Y-123190000D02*
X105156000Y-123952000D01*
X105156000Y-122555000D02*
X105156000Y-123190000D01*
D53*
X105156000Y-124367824D02*
X105156000Y-123190000D01*
X105646588Y-124858412D02*
X105646588Y-122664588D01*
D57*
X105156000Y-123952000D02*
X105156000Y-124367824D01*
X105410000Y-122301000D02*
X105156000Y-122555000D01*
X112249000Y-131045000D02*
X112649000Y-131445000D01*
X111316000Y-131045000D02*
X112249000Y-131045000D01*
D61*
X105537000Y-127876300D02*
X105371900Y-127711200D01*
X105537000Y-128016000D02*
X105537000Y-127876300D01*
X105371900Y-127711200D02*
X105631609Y-127711200D01*
X105631609Y-127711200D02*
X105689400Y-127768991D01*
X105371900Y-127787400D02*
X105371900Y-127451491D01*
X105537000Y-127952500D02*
X105371900Y-127787400D01*
X105371900Y-127451491D02*
X105359200Y-127438791D01*
X105689400Y-127768991D02*
X105689400Y-128066800D01*
X105359200Y-127438791D02*
X105689400Y-127768991D01*
X105067232Y-127146823D02*
X105067232Y-126161268D01*
X105359200Y-127438791D02*
X105067232Y-127146823D01*
X105067232Y-126161268D02*
X105537000Y-125691500D01*
D55*
X105537000Y-125691500D02*
X105537000Y-125666500D01*
D57*
X112922200Y-130245000D02*
X111316000Y-130245000D01*
X113131600Y-130454400D02*
X112922200Y-130245000D01*
D53*
X113030000Y-134239000D02*
X113792000Y-134239000D01*
X113792000Y-133223000D02*
X113792000Y-134239000D01*
X113665000Y-133096000D02*
X113792000Y-133223000D01*
X113030000Y-133985000D02*
X113030000Y-134239000D01*
X112014000Y-132969000D02*
X113030000Y-133985000D01*
D57*
X111690000Y-132645000D02*
X112014000Y-132969000D01*
X111316000Y-132645000D02*
X111690000Y-132645000D01*
D53*
X113792000Y-129286000D02*
X113995198Y-129489198D01*
X113995198Y-129489198D02*
X113995198Y-131368802D01*
X113030000Y-129286000D02*
X113792000Y-129286000D01*
D57*
X111880600Y-131845000D02*
X112369600Y-132334000D01*
D53*
X112369600Y-132334000D02*
X113030000Y-132334000D01*
D57*
X111316000Y-131845000D02*
X111880600Y-131845000D01*
D53*
X113995198Y-131368802D02*
X113995200Y-131368800D01*
X113030000Y-132334000D02*
X113995198Y-131368802D01*
X111156000Y-128905000D02*
X112903000Y-128905000D01*
X112903000Y-128905000D02*
X113030000Y-128778000D01*
D57*
X110966000Y-129095000D02*
X111156000Y-128905000D01*
D53*
X113030000Y-128778000D02*
X113665000Y-128143000D01*
X113030000Y-129286000D02*
X113030000Y-128778000D01*
D54*
X111924215Y-106299000D02*
X115345777Y-109720562D01*
X116573518Y-119270623D02*
X116573518Y-119765597D01*
X110998000Y-106299000D02*
X111924215Y-106299000D01*
X115345777Y-109720562D02*
X115345777Y-114189344D01*
X115671399Y-114514965D02*
X115671399Y-117077881D01*
X116573518Y-117980000D02*
X116573518Y-119270623D01*
X115671399Y-117077881D02*
X116573518Y-117980000D01*
X115345777Y-114189344D02*
X115671399Y-114514965D01*
X115392244Y-125171244D02*
X115697044Y-125476044D01*
X116123224Y-119402243D02*
X115392244Y-120133223D01*
X115366588Y-114641222D02*
X115366588Y-117204137D01*
X115040966Y-114315600D02*
X115366588Y-114641222D01*
X116123224Y-117960773D02*
X116123224Y-119402243D01*
X112255144Y-107060996D02*
X115040966Y-109846818D01*
X110363000Y-107060996D02*
X112255144Y-107060996D01*
X115392244Y-120133223D02*
X115392244Y-125171244D01*
X115366588Y-117204137D02*
X116123224Y-117960773D01*
X115040966Y-109846818D02*
X115040966Y-114315600D01*
X115697044Y-133858044D02*
X116840000Y-135001000D01*
X115697044Y-125476044D02*
X115697044Y-133858044D01*
D52*
X116840000Y-135920000D02*
X116840000Y-135001000D01*
D54*
X116243122Y-105702122D02*
X116243122Y-108893639D01*
X116565019Y-109215537D02*
X116565019Y-110850019D01*
X115697000Y-105156000D02*
X116243122Y-105702122D01*
X112139475Y-100518975D02*
X115697000Y-104076500D01*
X110827886Y-100518975D02*
X112139475Y-100518975D01*
X115697000Y-104076500D02*
X115697000Y-105156000D01*
X116243122Y-108893639D02*
X116565019Y-109215537D01*
X117602000Y-119075613D02*
X117761742Y-119235355D01*
X116565019Y-110850019D02*
X117602000Y-111887000D01*
X117602000Y-111887000D02*
X117602000Y-119075613D01*
X117761742Y-119235355D02*
X117761742Y-120998258D01*
X117761742Y-120998258D02*
X116840000Y-121920000D01*
D53*
X93345000Y-101854000D02*
X94234000Y-101854000D01*
D52*
X116840000Y-123220000D02*
X116840000Y-121920000D01*
D54*
X106553000Y-160147000D02*
X106680000Y-160274000D01*
X106680000Y-160274000D02*
X108204000Y-160274000D01*
X106553000Y-159893000D02*
X106553000Y-160147000D01*
X107188000Y-159766000D02*
X106680000Y-159766000D01*
X107823000Y-159131000D02*
X107188000Y-159766000D01*
X107823000Y-157734000D02*
X107823000Y-159131000D01*
X109143800Y-156413200D02*
X107823000Y-157734000D01*
X109728000Y-152908000D02*
X109143800Y-153492200D01*
X106680000Y-159766000D02*
X106553000Y-159893000D01*
X109143800Y-153492200D02*
X109143800Y-156413200D01*
X108204000Y-160274000D02*
X108966000Y-159512000D01*
D58*
X108966000Y-159512000D02*
X108966000Y-158346000D01*
D54*
X109994000Y-151753000D02*
X109372400Y-152374600D01*
X109372400Y-152374600D02*
X109372400Y-152552400D01*
X109372400Y-152552400D02*
X109728000Y-152908000D01*
D55*
X109994000Y-151294000D02*
X109994000Y-151753000D01*
D54*
X107061000Y-159461200D02*
X107518200Y-159004000D01*
X105740200Y-159461200D02*
X107061000Y-159461200D01*
X105156000Y-158877000D02*
X105740200Y-159461200D01*
X105156000Y-156718000D02*
X105156000Y-158877000D01*
X107518200Y-159004000D02*
X107518200Y-157607000D01*
X107518200Y-157607000D02*
X108839000Y-156286200D01*
X108839000Y-156286200D02*
X108839000Y-153416000D01*
X108839000Y-153416000D02*
X108331000Y-152908000D01*
X109494000Y-151745000D02*
X108331000Y-152908000D01*
D52*
X105156000Y-155806000D02*
X105156000Y-156718000D01*
D55*
X109494000Y-151294000D02*
X109494000Y-151745000D01*
D54*
X105537000Y-161467800D02*
X109042200Y-161467800D01*
X111683800Y-154990800D02*
X111506000Y-154813000D01*
X104216200Y-160147000D02*
X105537000Y-161467800D01*
X103378000Y-160147000D02*
X104216200Y-160147000D01*
X109042200Y-161467800D02*
X110363000Y-160147000D01*
X111683800Y-156591000D02*
X111683800Y-154990800D01*
X101981000Y-159258000D02*
X102489000Y-159258000D01*
X102489000Y-159258000D02*
X103378000Y-160147000D01*
X111506000Y-154813000D02*
X111506000Y-153416000D01*
X110363000Y-157911800D02*
X111683800Y-156591000D01*
X110363000Y-160147000D02*
X110363000Y-157911800D01*
X111506000Y-153416000D02*
X112014000Y-152908000D01*
X110994000Y-151888000D02*
X112014000Y-152908000D01*
D55*
X110994000Y-151294000D02*
X110994000Y-151888000D01*
D54*
X111379000Y-156464000D02*
X111379000Y-155117800D01*
X110058200Y-157784800D02*
X111379000Y-156464000D01*
X111379000Y-155117800D02*
X111201200Y-154940000D01*
X110058200Y-160020000D02*
X110058200Y-157784800D01*
X102235000Y-157988000D02*
X102235000Y-158572200D01*
X108915200Y-161163000D02*
X110058200Y-160020000D01*
X103505000Y-159842200D02*
X104343200Y-159842200D01*
X105664000Y-161163000D02*
X108915200Y-161163000D01*
X102235000Y-158572200D02*
X103505000Y-159842200D01*
X104343200Y-159842200D02*
X105664000Y-161163000D01*
X111201200Y-154940000D02*
X111201200Y-153492200D01*
X111201200Y-153492200D02*
X110617000Y-152908000D01*
D58*
X102235000Y-157988000D02*
X102235000Y-156187000D01*
X102235000Y-156187000D02*
X102616000Y-155806000D01*
D54*
X110494000Y-151896000D02*
X110972600Y-152374600D01*
X110972600Y-152552400D02*
X110617000Y-152908000D01*
X110972600Y-152374600D02*
X110972600Y-152552400D01*
D55*
X110494000Y-151294000D02*
X110494000Y-151896000D01*
D62*
X117094000Y-159893000D02*
X117094000Y-164592000D01*
X116967000Y-159766000D02*
X117094000Y-159893000D01*
X117094000Y-164592000D02*
X116967000Y-164719000D01*
D52*
X116459000Y-159258000D02*
X116967000Y-159766000D01*
D53*
X116713000Y-162528000D02*
X116713000Y-164973000D01*
X116131000Y-161946000D02*
X116713000Y-162528000D01*
D52*
X105283000Y-168783000D02*
X102108000Y-168783000D01*
X110998000Y-168783000D02*
X108204000Y-168783000D01*
X106934000Y-167132000D02*
X104013000Y-167132000D01*
X109601000Y-164846000D02*
X109601000Y-167132000D01*
X103632000Y-161946000D02*
X103640144Y-161937856D01*
X113771000Y-161946000D02*
X110871000Y-164846000D01*
X116131000Y-161946000D02*
X113771000Y-161946000D01*
X105918000Y-164846000D02*
X108204000Y-164846000D01*
X103018000Y-161946000D02*
X105918000Y-164846000D01*
X100531000Y-161946000D02*
X103018000Y-161946000D01*
X109601000Y-164846000D02*
X110871000Y-164846000D01*
X108204000Y-164846000D02*
X109601000Y-164846000D01*
X116131000Y-159586000D02*
X116459000Y-159258000D01*
X116131000Y-161946000D02*
X116131000Y-159586000D01*
D55*
X93916500Y-145680000D02*
X94805500Y-145680000D01*
X94805500Y-145680000D02*
X95402411Y-145083089D01*
X95402411Y-142519411D02*
X95377000Y-142494000D01*
X95402411Y-145083089D02*
X95402411Y-142519411D01*
X95377000Y-142113000D02*
X95948500Y-141541500D01*
X95377000Y-142494000D02*
X95377000Y-142113000D01*
X95969000Y-141643000D02*
X95969000Y-141902000D01*
X95969000Y-141902000D02*
X95377000Y-142494000D01*
X94996000Y-144772000D02*
X94738000Y-145030000D01*
X94361000Y-143129000D02*
X94361000Y-143154000D01*
X94361000Y-143154000D02*
X94996000Y-143789000D01*
X94996000Y-143789000D02*
X94996000Y-144772000D01*
X94361000Y-143129000D02*
X94869000Y-142621000D01*
X93942000Y-140043000D02*
X94869000Y-140970000D01*
X93769000Y-140043000D02*
X93942000Y-140043000D01*
X94869000Y-140970000D02*
X94869000Y-142621000D01*
X94738000Y-145030000D02*
X93916500Y-145030000D01*
X113804000Y-148094000D02*
X114173000Y-148463000D01*
X113194000Y-148094000D02*
X113804000Y-148094000D01*
X107319000Y-127437250D02*
X107319000Y-126195500D01*
X107319000Y-126195500D02*
X107823000Y-125691500D01*
X107823000Y-125691500D02*
X107823000Y-125666500D01*
X106299000Y-128457250D02*
X107319000Y-127437250D01*
X106299000Y-129286000D02*
X106299000Y-128457250D01*
D61*
X105841931Y-130708531D02*
X105841931Y-129743069D01*
X105841931Y-129743069D02*
X106299000Y-129286000D01*
X106178400Y-131045000D02*
X105841931Y-130708531D01*
D55*
X106616000Y-131045000D02*
X106178400Y-131045000D01*
D53*
X112600000Y-116195000D02*
X112359254Y-115954254D01*
X112359254Y-115954254D02*
X112191474Y-115954254D01*
X112191474Y-115954254D02*
X111696500Y-115954254D01*
D57*
X108566000Y-133795000D02*
X108566000Y-135401000D01*
X108566000Y-135401000D02*
X108458000Y-135509000D01*
D58*
X108458000Y-136144000D02*
X108585000Y-136271000D01*
X108458000Y-135509000D02*
X108458000Y-136144000D01*
D52*
X109118400Y-136804400D02*
X110896400Y-136804400D01*
X108585000Y-136271000D02*
X109118400Y-136804400D01*
X112928400Y-138836400D02*
X110896400Y-136804400D01*
X112928400Y-140589000D02*
X112928400Y-138836400D01*
D53*
X94615000Y-132207000D02*
X94615000Y-131064000D01*
D54*
X100838021Y-141477979D02*
X100838021Y-137918086D01*
X99822000Y-144703800D02*
X100711000Y-143814800D01*
X100274000Y-148280000D02*
X99822000Y-147828000D01*
X99011383Y-136091448D02*
X99011383Y-130223618D01*
X100711000Y-143814800D02*
X100711000Y-141605000D01*
X100838021Y-137918086D02*
X99011383Y-136091448D01*
X99822000Y-147828000D02*
X99822000Y-144703800D01*
X99712413Y-129522588D02*
X100062412Y-129172589D01*
X100711000Y-141605000D02*
X100838021Y-141477979D01*
X99011383Y-130223618D02*
X99712413Y-129522588D01*
D55*
X95980170Y-129826028D02*
X96475144Y-129826028D01*
X94615000Y-130810000D02*
X95598972Y-129826028D01*
X95598972Y-129826028D02*
X95980170Y-129826028D01*
D57*
X94615000Y-130964940D02*
X94615000Y-130810000D01*
D55*
X94551500Y-131028440D02*
X94615000Y-130964940D01*
D57*
X94551500Y-131028440D02*
X94551500Y-131000500D01*
X94551500Y-131028440D02*
X94615000Y-131091940D01*
X94615000Y-131091940D02*
X94615000Y-132207000D01*
D56*
X101155500Y-148280000D02*
X100274000Y-148280000D01*
D53*
X96520000Y-135636000D02*
X96520000Y-133223000D01*
X96202500Y-134401560D02*
X96520000Y-134719060D01*
X96520000Y-134719060D02*
X96520000Y-135636000D01*
D57*
X96202500Y-134401560D02*
X96520000Y-134084060D01*
X96520000Y-134084060D02*
X96520000Y-133223000D01*
D54*
X100203000Y-147320000D02*
X100513000Y-147630000D01*
X100203000Y-144780000D02*
X100203000Y-147320000D01*
X100711000Y-144272000D02*
X100203000Y-144780000D01*
X101219000Y-144272000D02*
X100711000Y-144272000D01*
D56*
X100513000Y-147630000D02*
X101155500Y-147630000D01*
D54*
X96202500Y-134401560D02*
X96139000Y-134338060D01*
X96456500Y-135572500D02*
X96520000Y-135636000D01*
D53*
X94615000Y-134239000D02*
X94361000Y-134493000D01*
X94615000Y-133223000D02*
X94615000Y-134239000D01*
D57*
X94615000Y-133223000D02*
X94615000Y-134086600D01*
X94615000Y-134086600D02*
X94300040Y-134401560D01*
X96042000Y-168018500D02*
X96898500Y-168018500D01*
X96898500Y-168018500D02*
X97282000Y-168402000D01*
D55*
X108904000Y-151384000D02*
X106934000Y-151384000D01*
X108994000Y-151294000D02*
X108904000Y-151384000D01*
X105460920Y-129108080D02*
X105537000Y-129032000D01*
X105460920Y-131789920D02*
X105460920Y-129108080D01*
X106316000Y-132645000D02*
X105460920Y-131789920D01*
X106616000Y-132645000D02*
X106316000Y-132645000D01*
X109366000Y-129095000D02*
X109366000Y-128251000D01*
X109366000Y-128251000D02*
X109982000Y-127635000D01*
X107823000Y-127508000D02*
X108077000Y-127254000D01*
X107766000Y-128721000D02*
X107569000Y-128524000D01*
X107766000Y-129095000D02*
X107766000Y-128721000D01*
X107823000Y-127508000D02*
X107823000Y-127254000D01*
X107569000Y-128524000D02*
X107569000Y-127762000D01*
X107569000Y-127762000D02*
X107823000Y-127508000D01*
X107823000Y-127254000D02*
X108204000Y-126873000D01*
D54*
X105033399Y-132846399D02*
X105033399Y-127593411D01*
X104737021Y-127297033D02*
X104737021Y-125596771D01*
X106299000Y-134112000D02*
X105033399Y-132846399D01*
X105033399Y-127593411D02*
X104737021Y-127297033D01*
X104737021Y-125596771D02*
X104140000Y-124999750D01*
X104140000Y-124999750D02*
X104140000Y-124714000D01*
D53*
X104140000Y-124587000D02*
X104140000Y-124968000D01*
X104140000Y-123698000D02*
X104140000Y-124587000D01*
D55*
X106966000Y-133795000D02*
X106966000Y-133953000D01*
X106807000Y-134112000D02*
X106299000Y-134112000D01*
X106966000Y-133953000D02*
X106807000Y-134112000D01*
D61*
X95037000Y-146980000D02*
X95923111Y-147866111D01*
X93916500Y-146980000D02*
X95037000Y-146980000D01*
X95923111Y-147866111D02*
X95923111Y-150962887D01*
X95581598Y-151304400D02*
X95231599Y-151654399D01*
X95923111Y-150962887D02*
X95581598Y-151304400D01*
D56*
X93916500Y-146980000D02*
X94529000Y-146980000D01*
D61*
X94615000Y-151892000D02*
X95231596Y-152508596D01*
X95231596Y-152508596D02*
X95231596Y-152512566D01*
X94615000Y-151382942D02*
X94615000Y-151892000D01*
X95567500Y-148018500D02*
X95567500Y-150430442D01*
X94615000Y-147630000D02*
X95179000Y-147630000D01*
X95567500Y-150430442D02*
X94615000Y-151382942D01*
X95179000Y-147630000D02*
X95567500Y-148018500D01*
D56*
X93916500Y-147630000D02*
X94615000Y-147630000D01*
D57*
X106680000Y-141605000D02*
X105854500Y-141605000D01*
X107188000Y-141605000D02*
X106680000Y-141605000D01*
D55*
X106260900Y-140995400D02*
X106260900Y-141185900D01*
X106260900Y-141185900D02*
X106680000Y-141605000D01*
X106260900Y-140995400D02*
X106260900Y-138984386D01*
X106260900Y-140995400D02*
X106260900Y-141198600D01*
X106260900Y-141516100D02*
X106260900Y-140995400D01*
D57*
X105854500Y-141605000D02*
X105156000Y-141605000D01*
D55*
X106260900Y-141198600D02*
X105854500Y-141605000D01*
D57*
X105156000Y-141605000D02*
X104521000Y-142240000D01*
D55*
X101625410Y-128567934D02*
X101625410Y-127157501D01*
X106260900Y-138984386D02*
X101934489Y-134657975D01*
X92684611Y-110515389D02*
X93345000Y-109855000D01*
X92684611Y-111612702D02*
X92684611Y-110515389D01*
X98933000Y-124841000D02*
X98933000Y-123825000D01*
X97104222Y-119715312D02*
X96494611Y-119105701D01*
X98933000Y-123825000D02*
X97104222Y-121996221D01*
X96494611Y-119105701D02*
X96494611Y-117292403D01*
X106172000Y-141605000D02*
X106260900Y-141516100D01*
X94569042Y-115366834D02*
X94569042Y-113497133D01*
X100350298Y-125882389D02*
X99974388Y-125882389D01*
X93345000Y-109855000D02*
X93345000Y-108839000D01*
X96494611Y-117292403D02*
X94569042Y-115366834D01*
X97104222Y-121996221D02*
X97104222Y-119715312D01*
X99974388Y-125882389D02*
X98933000Y-124841000D01*
X101934489Y-128877013D02*
X101625410Y-128567934D01*
X101934489Y-134657975D02*
X101934489Y-128877013D01*
X93345000Y-108839000D02*
X93980000Y-108204000D01*
X101625410Y-127157501D02*
X100350298Y-125882389D01*
X94569042Y-113497133D02*
X92684611Y-111612702D01*
D53*
X103735275Y-149328275D02*
X103735275Y-145692725D01*
X103735275Y-145692725D02*
X104140000Y-145288000D01*
X104013000Y-149606000D02*
X103735275Y-149328275D01*
X96393000Y-107442000D02*
X96520000Y-107569000D01*
X95631000Y-107442000D02*
X96393000Y-107442000D01*
X96520000Y-107569000D02*
X96520000Y-107823000D01*
X93980000Y-108077000D02*
X93980000Y-107569000D01*
X93980000Y-107569000D02*
X94107000Y-107442000D01*
X94869000Y-107442000D02*
X95631000Y-107442000D01*
D57*
X95631000Y-108077000D02*
X95631000Y-107442000D01*
D53*
X94107000Y-107442000D02*
X94869000Y-107442000D01*
D57*
X94869000Y-108077000D02*
X94869000Y-107442000D01*
D53*
X104013000Y-144018000D02*
X104140000Y-144145000D01*
X104140000Y-144145000D02*
X104140000Y-145288000D01*
D58*
X104394000Y-142450820D02*
X104394000Y-143637000D01*
X104518460Y-142326360D02*
X104394000Y-142450820D01*
X104394000Y-143637000D02*
X104013000Y-144018000D01*
D55*
X110494000Y-145665000D02*
X110494000Y-145538000D01*
D53*
X110494000Y-145538000D02*
X111125000Y-144907000D01*
X111125000Y-144907000D02*
X111125000Y-143637000D01*
D55*
X104518460Y-142326360D02*
X104518460Y-142242540D01*
X104518460Y-142242540D02*
X105156000Y-141605000D01*
X105156000Y-141605000D02*
X106172000Y-141605000D01*
X110494000Y-146394000D02*
X110494000Y-145665000D01*
X107061000Y-141605000D02*
X106172000Y-141605000D01*
D54*
X107061000Y-147320000D02*
X107835000Y-148094000D01*
X107061000Y-147320000D02*
X107061000Y-147510500D01*
X106997500Y-147256500D02*
X107061000Y-147320000D01*
X106680000Y-147510500D02*
X107061000Y-147510500D01*
X107061000Y-147510500D02*
X107251500Y-147510500D01*
X106807000Y-147447000D02*
X106997500Y-147256500D01*
X107835000Y-148094000D02*
X107898500Y-148094000D01*
X106807000Y-147637500D02*
X107378500Y-147637500D01*
D53*
X107061000Y-145542000D02*
X106807000Y-145796000D01*
X106807000Y-145796000D02*
X106807000Y-146367500D01*
X106807000Y-147447000D02*
X106807000Y-146367500D01*
D55*
X108294000Y-148094000D02*
X107898500Y-148094000D01*
D54*
X91338378Y-120573778D02*
X91338378Y-118592638D01*
X91725001Y-118206015D02*
X92075000Y-117856016D01*
X92862412Y-128955788D02*
X92862412Y-122097812D01*
X92582956Y-131445044D02*
X92582956Y-129235244D01*
X91440000Y-132588000D02*
X92582956Y-131445044D01*
X91338378Y-118592638D02*
X91725001Y-118206015D01*
X92862412Y-122097812D02*
X91338378Y-120573778D01*
X92582956Y-129235244D02*
X92862412Y-128955788D01*
D52*
X91440000Y-132588000D02*
X91440000Y-133380000D01*
D54*
X92964000Y-107442000D02*
X93472000Y-106934000D01*
X92964000Y-109728000D02*
X92964000Y-107442000D01*
X92329000Y-111759999D02*
X92329000Y-110363000D01*
X92329000Y-110363000D02*
X92964000Y-109728000D01*
X94213431Y-113644430D02*
X92329000Y-111759999D01*
X96139000Y-117439701D02*
X94213431Y-115514132D01*
X96139000Y-119253000D02*
X96139000Y-117439701D01*
X98196378Y-104673378D02*
X97885999Y-104362999D01*
X96748611Y-119862610D02*
X96139000Y-119253000D01*
X96748611Y-122148611D02*
X96748611Y-119862610D01*
X98552000Y-123952000D02*
X96748611Y-122148611D01*
X93472000Y-106934000D02*
X97145246Y-106934000D01*
X97145246Y-106934000D02*
X98196378Y-105882868D01*
X98552000Y-125031500D02*
X98552000Y-123952000D01*
X103505000Y-143098518D02*
X103505000Y-141795500D01*
X98196378Y-105882868D02*
X98196378Y-104673378D01*
X99758500Y-126238000D02*
X98552000Y-125031500D01*
X101269799Y-127304799D02*
X100203000Y-126238000D01*
X100203000Y-126238000D02*
X99758500Y-126238000D01*
X101269799Y-128715232D02*
X101269799Y-127304799D01*
X101578878Y-129024311D02*
X101269799Y-128715232D01*
X102806507Y-153987493D02*
X103251014Y-154432000D01*
X104902000Y-150495000D02*
X103378000Y-150495000D01*
X105029000Y-154051000D02*
X105029000Y-150622000D01*
X104521000Y-140779500D02*
X104521000Y-139192000D01*
X104521000Y-139192000D02*
X104140000Y-138811000D01*
X105029000Y-150622000D02*
X104902000Y-150495000D01*
X103252664Y-143350854D02*
X103505000Y-143098518D01*
X101578878Y-134852878D02*
X101578878Y-129024311D01*
X103251014Y-154432000D02*
X104648000Y-154432000D01*
X103378000Y-150495000D02*
X103252664Y-150369664D01*
X104140000Y-138811000D02*
X104140000Y-137414000D01*
X94213431Y-115514132D02*
X94213431Y-113644430D01*
X103252664Y-150369664D02*
X103252664Y-143350854D01*
X103505000Y-141795500D02*
X104521000Y-140779500D01*
X104648000Y-154432000D02*
X105029000Y-154051000D01*
X104140000Y-137414000D02*
X101578878Y-134852878D01*
X97885999Y-104362999D02*
X97536000Y-104013000D01*
X117456931Y-120480825D02*
X117374280Y-120563476D01*
X117456931Y-119361611D02*
X117456931Y-120480825D01*
X109121140Y-100936860D02*
X109586676Y-101402396D01*
X109586676Y-101402396D02*
X112147330Y-101402396D01*
X112147330Y-101402396D02*
X113360189Y-102615255D01*
X113360189Y-103404123D02*
X115938311Y-105982245D01*
X113360189Y-102615255D02*
X113360189Y-103404123D01*
X117267746Y-111983813D02*
X117267746Y-119172426D01*
X117374280Y-120563476D02*
X117024281Y-120913475D01*
X116260208Y-110976275D02*
X117267746Y-111983813D01*
X115938311Y-109019895D02*
X116260208Y-109341792D01*
X117267746Y-119172426D02*
X117456931Y-119361611D01*
X115938311Y-105982245D02*
X115938311Y-109019895D01*
X116260208Y-109341792D02*
X116260208Y-110976275D01*
D53*
X92963986Y-164211000D02*
X92963986Y-164211000D01*
X90932000Y-164211000D02*
X92963986Y-164211000D01*
X92963986Y-164211000D02*
X92964000Y-164211014D01*
D54*
X108994000Y-145697000D02*
X108994000Y-145260000D01*
X109916753Y-142111253D02*
X109410500Y-141605000D01*
X109916753Y-144337247D02*
X109916753Y-142111253D01*
X108994000Y-145260000D02*
X109916753Y-144337247D01*
D56*
X109410500Y-141605000D02*
X108712000Y-141605000D01*
D55*
X108994000Y-146394000D02*
X108994000Y-145697000D01*
D54*
X109601000Y-142748000D02*
X109601000Y-144145000D01*
X109601000Y-144145000D02*
X108458000Y-145288000D01*
X109220000Y-142367000D02*
X109601000Y-142748000D01*
X108458000Y-145288000D02*
X108458000Y-146177000D01*
X108458000Y-146177000D02*
X107950000Y-146685000D01*
X107950000Y-146685000D02*
X107950000Y-146939000D01*
D56*
X109220000Y-142367000D02*
X108712000Y-142367000D01*
D55*
X108105000Y-147094000D02*
X107950000Y-146939000D01*
X108294000Y-147094000D02*
X108105000Y-147094000D01*
D54*
X111760000Y-145034000D02*
X111760000Y-143433800D01*
X110994000Y-145800000D02*
X111760000Y-145034000D01*
X111760000Y-143433800D02*
X111102340Y-142776140D01*
X111102340Y-142776140D02*
X111096860Y-142776140D01*
D53*
X108712000Y-140716000D02*
X109474000Y-140716000D01*
D55*
X110994000Y-146394000D02*
X110994000Y-145800000D01*
D54*
X107811000Y-149594000D02*
X107619811Y-149402811D01*
X107619811Y-148767810D02*
X107107413Y-148255412D01*
X104580940Y-147855272D02*
X104580940Y-147325579D01*
X107619811Y-149402811D02*
X107619811Y-148767810D01*
X104989379Y-146917140D02*
X105339378Y-146567141D01*
X107107413Y-148255412D02*
X104981080Y-148255412D01*
X104580940Y-147325579D02*
X104989379Y-146917140D01*
X104981080Y-148255412D02*
X104580940Y-147855272D01*
D55*
X108294000Y-149594000D02*
X107811000Y-149594000D01*
D53*
X115951000Y-152527000D02*
X115951000Y-153162000D01*
D54*
X106981157Y-148560223D02*
X104854824Y-148560223D01*
X104276129Y-147981528D02*
X104276129Y-147188164D01*
X104491677Y-146972616D02*
X104491677Y-146477642D01*
X104854824Y-148560223D02*
X104276129Y-147981528D01*
X104276129Y-147188164D02*
X104491677Y-146972616D01*
X107315000Y-148894066D02*
X106981157Y-148560223D01*
X107676000Y-150094000D02*
X107315000Y-149733000D01*
X107315000Y-149733000D02*
X107315000Y-148894066D01*
D55*
X108294000Y-150094000D02*
X107676000Y-150094000D01*
D53*
X114681000Y-152146000D02*
X114681000Y-151892000D01*
X114681000Y-151892000D02*
X115062000Y-151511000D01*
X105040000Y-109595000D02*
X105040000Y-108587000D01*
X105040000Y-114797000D02*
X105040000Y-109595000D01*
X103251000Y-116713000D02*
X103251000Y-116586000D01*
X103251000Y-116586000D02*
X105040000Y-114797000D01*
D62*
X103251000Y-116713000D02*
X103251000Y-118491000D01*
D54*
X108839000Y-144399000D02*
X108077000Y-145161000D01*
X108077000Y-145161000D02*
X108077000Y-146050000D01*
X108839000Y-143764000D02*
X108839000Y-144399000D01*
D53*
X108839000Y-143510000D02*
X108839000Y-143764000D01*
X108585000Y-143256000D02*
X108839000Y-143510000D01*
D54*
X108077000Y-146050000D02*
X107569000Y-146558000D01*
X107569000Y-146558000D02*
X107569000Y-147320000D01*
X107569000Y-147320000D02*
X107843000Y-147594000D01*
D55*
X107843000Y-147594000D02*
X108294000Y-147594000D01*
D53*
X95250000Y-169291000D02*
X95884994Y-169291000D01*
X95884994Y-169291000D02*
X95885000Y-169290994D01*
D57*
X91948000Y-169291000D02*
X93216878Y-169291000D01*
X93216878Y-169291000D02*
X93217439Y-169291561D01*
D54*
X100964988Y-128206488D02*
X100964988Y-128850240D01*
X99885500Y-127127000D02*
X100964988Y-128206488D01*
X100964988Y-128850240D02*
X101274077Y-129159329D01*
X101274077Y-129159329D02*
X101274077Y-135017610D01*
X101274077Y-135017610D02*
X103571040Y-137314573D01*
X103571040Y-137314573D02*
X103571040Y-139252960D01*
D53*
X99568000Y-127127000D02*
X99885500Y-127127000D01*
X99885500Y-127127000D02*
X100266500Y-127508000D01*
X99568000Y-127127000D02*
X99568000Y-127000000D01*
X99568000Y-127000000D02*
X98044000Y-125476000D01*
X97282000Y-124079000D02*
X97522522Y-124079000D01*
X97522522Y-124079000D02*
X98044000Y-124600478D01*
X98044000Y-124600478D02*
X98044000Y-125476000D01*
D58*
X103571040Y-140116560D02*
X103571040Y-139252960D01*
D53*
X97282000Y-124079000D02*
X96393000Y-124079000D01*
D57*
X94869000Y-123444000D02*
X94869000Y-122809000D01*
X95377000Y-123952000D02*
X94869000Y-123444000D01*
X95377000Y-123952000D02*
X95377000Y-123063000D01*
X95758000Y-124333000D02*
X95377000Y-123952000D01*
X95377000Y-123063000D02*
X95123000Y-122809000D01*
D54*
X96012000Y-124587000D02*
X95758000Y-124333000D01*
X96774000Y-124587000D02*
X96012000Y-124587000D01*
X97282000Y-125095000D02*
X96774000Y-124587000D01*
D53*
X108775500Y-128016000D02*
X108732995Y-128058505D01*
D57*
X108435905Y-128058505D02*
X108217597Y-128058505D01*
X108566000Y-129095000D02*
X108566000Y-128188600D01*
X108566000Y-128188600D02*
X108435905Y-128058505D01*
D53*
X108732995Y-128058505D02*
X108712571Y-128058505D01*
X108712571Y-128058505D02*
X108217597Y-128058505D01*
X108566000Y-128225500D02*
X108585000Y-128206500D01*
X108566000Y-129095000D02*
X108566000Y-128225500D01*
X108585000Y-128206500D02*
X108775500Y-128016000D01*
X108775500Y-128016000D02*
X109220000Y-127571500D01*
X109220000Y-127571500D02*
X109220000Y-125603000D01*
X108839000Y-125666500D02*
X109220000Y-125666500D01*
X109220000Y-125666500D02*
X109220000Y-125603000D01*
X108966000Y-122428000D02*
X108331000Y-123063000D01*
X108966000Y-122301000D02*
X108966000Y-122428000D01*
X108331000Y-123063000D02*
X107442000Y-123063000D01*
X107442000Y-123063000D02*
X106553000Y-123952000D01*
X106553000Y-123952000D02*
X106553000Y-125666500D01*
X109220000Y-125603000D02*
X109220000Y-122555000D01*
X109220000Y-122555000D02*
X108966000Y-122301000D01*
D57*
X107766000Y-133795000D02*
X107766000Y-134778600D01*
X107766000Y-134778600D02*
X107696000Y-134848600D01*
D58*
X96139000Y-155194000D02*
X95587000Y-154642000D01*
X96520000Y-155575000D02*
X96139000Y-155194000D01*
D56*
X96266000Y-155956000D02*
X96266000Y-155321000D01*
X96266000Y-155321000D02*
X96139000Y-155194000D01*
X93154500Y-157924500D02*
X95123000Y-157924500D01*
X95123000Y-157924500D02*
X96266000Y-156781500D01*
X96266000Y-156781500D02*
X96266000Y-155956000D01*
X92456000Y-158623000D02*
X93154500Y-157924500D01*
X96266000Y-155956000D02*
X96520000Y-155702000D01*
D52*
X95333000Y-154642000D02*
X94698000Y-154642000D01*
X96946000Y-154642000D02*
X95333000Y-154642000D01*
D58*
X95587000Y-154642000D02*
X95333000Y-154642000D01*
X97409000Y-154686000D02*
X97409000Y-154559000D01*
X97155000Y-154940000D02*
X97409000Y-154686000D01*
X96520000Y-155575000D02*
X97155000Y-154940000D01*
X96946000Y-154642000D02*
X96520000Y-155068000D01*
X96520000Y-155068000D02*
X96520000Y-155575000D01*
D55*
X93452500Y-161842000D02*
X93308401Y-161697901D01*
X93476000Y-161842000D02*
X93452500Y-161842000D01*
X93308401Y-161697901D02*
X93308401Y-159672479D01*
X93308401Y-159672479D02*
X93211422Y-159575500D01*
X92773500Y-159575500D02*
X92456000Y-159258000D01*
X93211422Y-159575500D02*
X92773500Y-159575500D01*
D58*
X92456000Y-158623000D02*
X92456000Y-159194500D01*
D52*
X93476000Y-154642000D02*
X94698000Y-154642000D01*
D53*
X93308401Y-161429401D02*
X95999599Y-161429401D01*
X95999599Y-161429401D02*
X96647000Y-160782000D01*
D58*
X93476000Y-161842000D02*
X93476000Y-161597000D01*
D52*
X96647000Y-160782000D02*
X96647000Y-159448500D01*
X96647000Y-161543000D02*
X96647000Y-160782000D01*
X95650500Y-161842000D02*
X96603000Y-161842000D01*
X96647000Y-160782000D02*
X96647000Y-160845500D01*
X93476000Y-161842000D02*
X95650500Y-161842000D01*
X96647000Y-160845500D02*
X95650500Y-161842000D01*
D58*
X93476000Y-161597000D02*
X93308401Y-161429401D01*
D52*
X96603000Y-161842000D02*
X96647000Y-161798000D01*
X96647000Y-159448500D02*
X96964500Y-159131000D01*
X96946000Y-161842000D02*
X96647000Y-161543000D01*
D56*
X94107000Y-168529000D02*
X94107000Y-169164000D01*
X94107000Y-169164000D02*
X94234000Y-169291000D01*
X93596500Y-168018500D02*
X94107000Y-168529000D01*
X93442000Y-168018500D02*
X93596500Y-168018500D01*
D61*
X94925000Y-148280000D02*
X94932500Y-148272500D01*
D63*
X93916500Y-148280000D02*
X94925000Y-148280000D01*
D56*
X92400000Y-148280000D02*
X92329000Y-148209000D01*
D63*
X93916500Y-148280000D02*
X92400000Y-148280000D01*
D53*
X94297500Y-160159672D02*
X94297500Y-160274000D01*
X95019852Y-159437320D02*
X94297500Y-160159672D01*
X94800500Y-159956500D02*
X94805500Y-159956500D01*
X94361000Y-160396000D02*
X94800500Y-159956500D01*
X94805500Y-159956500D02*
X94805500Y-159651672D01*
X94805500Y-159651672D02*
X95019852Y-159437320D01*
D55*
X93307500Y-149580000D02*
X92964000Y-149923500D01*
X93916500Y-149580000D02*
X93307500Y-149580000D01*
X92964000Y-149923500D02*
X92964000Y-151638000D01*
X92964000Y-151638000D02*
X93980000Y-152654000D01*
D54*
X92024189Y-155093087D02*
X92706523Y-155775421D01*
X92024189Y-152743622D02*
X92024189Y-155093087D01*
X90995500Y-149948500D02*
X90995500Y-151714933D01*
X90995500Y-151714933D02*
X92024189Y-152743622D01*
X91313000Y-149606000D02*
X91313000Y-149631000D01*
X91313000Y-149631000D02*
X90995500Y-149948500D01*
X92706523Y-155775421D02*
X93119903Y-155775421D01*
X93119903Y-155775421D02*
X93345000Y-156000518D01*
D61*
X93916500Y-148930000D02*
X92031514Y-148930000D01*
X91355514Y-149606000D02*
X92031514Y-148930000D01*
X91313000Y-149606000D02*
X91355514Y-149606000D01*
D56*
X93103709Y-157467291D02*
X93345000Y-157226000D01*
X93345000Y-157226000D02*
X93345000Y-156000518D01*
X92405209Y-157467291D02*
X93103709Y-157467291D01*
X91757500Y-158115000D02*
X92405209Y-157467291D01*
X91757500Y-159385000D02*
X91757500Y-158115000D01*
X91757500Y-159385000D02*
X91757500Y-160401000D01*
X91757500Y-160401000D02*
X92329000Y-160401000D01*
X91757500Y-159575500D02*
X92329000Y-160147000D01*
X91757500Y-159385000D02*
X91757500Y-159575500D01*
D53*
X90932000Y-165227000D02*
X90932000Y-164973000D01*
X90932000Y-166116000D02*
X90932000Y-165227000D01*
X90932000Y-167005000D02*
X90932000Y-167894000D01*
X90932000Y-166116000D02*
X90932000Y-167005000D01*
D54*
X112273587Y-101097586D02*
X113665000Y-102488999D01*
X110368585Y-101097585D02*
X112273587Y-101097586D01*
X109982000Y-100711000D02*
X110368585Y-101097585D01*
X113665000Y-102488999D02*
X113665000Y-102870000D01*
X113665000Y-102870000D02*
X114173000Y-103378000D01*
D53*
X107823000Y-120015000D02*
X105410000Y-120015000D01*
X103630186Y-121125408D02*
X103135212Y-121125408D01*
X105410000Y-120015000D02*
X104299592Y-121125408D01*
X104299592Y-121125408D02*
X103630186Y-121125408D01*
D54*
X92887778Y-132003822D02*
X93192578Y-131699022D01*
X93193000Y-118237000D02*
X93218000Y-118237000D01*
X93192578Y-131699022D02*
X93192578Y-129540022D01*
X93472034Y-121843834D02*
X91948000Y-120319800D01*
X93472034Y-129260566D02*
X93472034Y-121843834D01*
X91440000Y-137541000D02*
X92887778Y-136093222D01*
X93192578Y-129540022D02*
X93472034Y-129260566D01*
X91948000Y-119482000D02*
X93193000Y-118237000D01*
X91948000Y-120319800D02*
X91948000Y-119482000D01*
X92887778Y-136093222D02*
X92887778Y-132003822D01*
D53*
X108585000Y-119253000D02*
X107823000Y-120015000D01*
X108585000Y-117602000D02*
X108585000Y-119253000D01*
X108585000Y-117602000D02*
X108458000Y-117475000D01*
X107823000Y-117475000D02*
X107569000Y-117221000D01*
X108458000Y-117475000D02*
X107823000Y-117475000D01*
D57*
X93218000Y-118237000D02*
X93472000Y-117983000D01*
X93472000Y-117983000D02*
X94107000Y-117983000D01*
D52*
X91440000Y-137541000D02*
X91440000Y-138460000D01*
D54*
X115633500Y-109146151D02*
X115955399Y-109468050D01*
X115633500Y-106108500D02*
X115633500Y-109146151D01*
X113030000Y-103505000D02*
X115633500Y-106108500D01*
X113030000Y-102716132D02*
X113030000Y-103505000D01*
X110871000Y-101981004D02*
X112294872Y-101981004D01*
X112294872Y-101981004D02*
X113030000Y-102716132D01*
X115955399Y-109468050D02*
X115955399Y-113288399D01*
X115955399Y-113288399D02*
X116078000Y-113411000D01*
X116776500Y-114109500D02*
X116713000Y-114046000D01*
X116962935Y-114295935D02*
X116776500Y-114109500D01*
D57*
X116459000Y-113792000D02*
X116776500Y-114109500D01*
X116400000Y-116195000D02*
X116400000Y-115819500D01*
X116400000Y-115819500D02*
X116713000Y-115506500D01*
D54*
X116962935Y-115256565D02*
X116962935Y-114295935D01*
X116713000Y-115506500D02*
X116962935Y-115256565D01*
X115697055Y-124333055D02*
X115697055Y-121231212D01*
X116827274Y-120368173D02*
X117152120Y-120043327D01*
X117152120Y-119487867D02*
X116910611Y-119246358D01*
X115697055Y-121231212D02*
X116560094Y-120368173D01*
X116560094Y-120368173D02*
X116827274Y-120368173D01*
X116910611Y-119246358D02*
X116910611Y-117545611D01*
X117152120Y-120043327D02*
X117152120Y-119487867D01*
X116910611Y-117545611D02*
X116713000Y-117348000D01*
X116332000Y-124968000D02*
X115697055Y-124333055D01*
D53*
X116205000Y-116840000D02*
X116205000Y-116332000D01*
X116713000Y-117348000D02*
X116205000Y-116840000D01*
X116400000Y-116195000D02*
X116713000Y-116508000D01*
X116713000Y-116508000D02*
X116713000Y-117348000D01*
D52*
X116840000Y-125476000D02*
X116332000Y-124968000D01*
X116840000Y-125760000D02*
X116840000Y-125476000D01*
D55*
X116459000Y-113792000D02*
X116078000Y-113411000D01*
X116713000Y-114046000D02*
X116459000Y-113792000D01*
D54*
X91574110Y-151862476D02*
X91574110Y-151264110D01*
D53*
X91574110Y-150412598D02*
X91574110Y-151264110D01*
D54*
X91440000Y-148145500D02*
X91440000Y-148209000D01*
X92866399Y-146719101D02*
X91440000Y-148145500D01*
X92866399Y-142451881D02*
X92866399Y-146719101D01*
X92840399Y-142425881D02*
X92866399Y-142451881D01*
X92583000Y-141541500D02*
X92840399Y-141798899D01*
X92840399Y-141798899D02*
X92840399Y-142425881D01*
X91440000Y-148209000D02*
X91313000Y-148209000D01*
X93776845Y-129439088D02*
X93776845Y-122123155D01*
X97018991Y-106629189D02*
X97885999Y-105762181D01*
X94284810Y-121615190D02*
X94729311Y-121615189D01*
X93345744Y-106629189D02*
X97018991Y-106629189D01*
X93776845Y-122123155D02*
X94284810Y-121615190D01*
X91440000Y-140081000D02*
X93192600Y-138328400D01*
X93345000Y-116332000D02*
X93020086Y-116007086D01*
X94869000Y-119747911D02*
X95504000Y-119112911D01*
X92024189Y-111886255D02*
X92024189Y-110159811D01*
X95504000Y-118033800D02*
X93802200Y-116332000D01*
X92024189Y-110159811D02*
X92583000Y-109601000D01*
X97885999Y-105762181D02*
X97885999Y-105251999D01*
X93230689Y-115261211D02*
X93230689Y-113092755D01*
X92583000Y-107391933D02*
X93345744Y-106629189D01*
X93230689Y-113092755D02*
X92024189Y-111886255D01*
X95504000Y-119112911D02*
X95504000Y-118033800D01*
X93497389Y-131953011D02*
X93497389Y-129718544D01*
X93020086Y-116007086D02*
X93020086Y-115471814D01*
X93192600Y-138328400D02*
X93192600Y-132257800D01*
X94869000Y-121475500D02*
X94869000Y-119747911D01*
X93497389Y-129718544D02*
X93776845Y-129439088D01*
X94729311Y-121615189D02*
X94869000Y-121475500D01*
X93802200Y-116332000D02*
X93345000Y-116332000D01*
X93020086Y-115471814D02*
X93230689Y-115261211D01*
X93192600Y-132257800D02*
X93497389Y-131953011D01*
X97885999Y-105251999D02*
X97536000Y-104902000D01*
X92583000Y-109601000D02*
X92583000Y-107391933D01*
X93494610Y-155470610D02*
X92832779Y-155470610D01*
X93726000Y-155702000D02*
X93494610Y-155470610D01*
X92832779Y-155470610D02*
X92329000Y-154966831D01*
X92329000Y-152617366D02*
X91574110Y-151862476D01*
X92329000Y-154966831D02*
X92329000Y-152617366D01*
D53*
X91313000Y-148209000D02*
X91313000Y-148794313D01*
X91313000Y-148794313D02*
X91310373Y-148796940D01*
D54*
X93726000Y-156019500D02*
X93916500Y-156210000D01*
X93726000Y-155829000D02*
X93726000Y-156019500D01*
X93731000Y-156596000D02*
X93726000Y-156591000D01*
X94361000Y-156596000D02*
X93731000Y-156596000D01*
X93726000Y-156591000D02*
X93726000Y-155829000D01*
X93726000Y-155892500D02*
X94107000Y-156273500D01*
X93726000Y-155829000D02*
X93726000Y-155702000D01*
X93726000Y-155829000D02*
X93726000Y-155892500D01*
X94361000Y-156337000D02*
X94361000Y-156591000D01*
X93726000Y-155702000D02*
X94361000Y-156337000D01*
D53*
X92583000Y-141541500D02*
X91440000Y-141541500D01*
X91440000Y-141000000D02*
X92041500Y-141000000D01*
X92041500Y-141000000D02*
X92075000Y-141033500D01*
X92583000Y-141541500D02*
X92075000Y-141033500D01*
D52*
X91440000Y-140081000D02*
X91440000Y-141000000D01*
D54*
X91580434Y-147574000D02*
X92561588Y-146592846D01*
X90932000Y-147574000D02*
X91580434Y-147574000D01*
X90678000Y-151828500D02*
X90678000Y-147828000D01*
X90678000Y-147828000D02*
X90932000Y-147574000D01*
X91719378Y-152869878D02*
X90678000Y-151828500D01*
X92561588Y-142670706D02*
X92538791Y-142647909D01*
X91719378Y-155092378D02*
X91719378Y-152869878D01*
X92561588Y-146592846D02*
X92561588Y-142670706D01*
X92538791Y-142647909D02*
X92188792Y-142297910D01*
X91440000Y-115824000D02*
X92075000Y-115189000D01*
X91440000Y-116713000D02*
X91440000Y-115824000D01*
X92352729Y-117086887D02*
X91813887Y-117086887D01*
X92329000Y-115189000D02*
X92557569Y-114960431D01*
X91813887Y-117086887D02*
X91440000Y-116713000D01*
X92075000Y-115189000D02*
X92329000Y-115189000D01*
X92653601Y-117387759D02*
X92352729Y-117086887D01*
X92653601Y-118166399D02*
X92653601Y-117387759D01*
X93167223Y-129108177D02*
X93167223Y-121970090D01*
X91643189Y-119176811D02*
X92653601Y-118166399D01*
X91643189Y-120446056D02*
X91643189Y-119176811D01*
X92557569Y-114960431D02*
X92557569Y-113281769D01*
X93167223Y-121970090D02*
X91643189Y-120446056D01*
X92582967Y-133858033D02*
X92582967Y-131876833D01*
X92887767Y-131572033D02*
X92887767Y-129387633D01*
X91440000Y-135001000D02*
X92582967Y-133858033D01*
X92582967Y-131876833D02*
X92887767Y-131572033D01*
X92887767Y-129387633D02*
X93167223Y-129108177D01*
X92557569Y-113281769D02*
X91414567Y-112138768D01*
X91414567Y-112138768D02*
X91414567Y-109753433D01*
X91414567Y-109753433D02*
X91821000Y-109347000D01*
X91821000Y-109347000D02*
X91821000Y-106934000D01*
X91821000Y-106934000D02*
X92735431Y-106019569D01*
X92735431Y-106019569D02*
X95910431Y-106019569D01*
X95910431Y-106019569D02*
X96901000Y-105029000D01*
X96901000Y-105029000D02*
X96901000Y-101981000D01*
X96901000Y-101981000D02*
X97147890Y-101734110D01*
X97147890Y-101734110D02*
X97147890Y-99910341D01*
X92773500Y-156273500D02*
X92773500Y-156400500D01*
X91719378Y-155219378D02*
X92773500Y-156273500D01*
X91719378Y-155092378D02*
X91719378Y-155219378D01*
X91719378Y-155092378D02*
X91719378Y-155409878D01*
X91719378Y-155409878D02*
X92138500Y-155829000D01*
X91719378Y-156298878D02*
X91719378Y-155092378D01*
D53*
X91884500Y-155829000D02*
X92583000Y-156527500D01*
D54*
X92016500Y-156596000D02*
X91719378Y-156298878D01*
X92329000Y-156596000D02*
X92016500Y-156596000D01*
D53*
X91884500Y-156151500D02*
X91884500Y-155829000D01*
X92329000Y-156596000D02*
X91884500Y-156151500D01*
D52*
X91440000Y-135001000D02*
X91440000Y-135920000D01*
D53*
X113852728Y-112014000D02*
X113852728Y-114747272D01*
X113852728Y-114747272D02*
X113728500Y-114871500D01*
D54*
X101219000Y-141986000D02*
X101219000Y-137867999D01*
X100425999Y-128619999D02*
X100076000Y-128270000D01*
X100641014Y-128835014D02*
X100425999Y-128619999D01*
X101346000Y-142113000D02*
X101219000Y-141986000D01*
X100641014Y-129450319D02*
X100641014Y-128835014D01*
X101219000Y-137867999D02*
X99390189Y-136039188D01*
X99390189Y-136039188D02*
X99390189Y-130701144D01*
X99390189Y-130701144D02*
X100641014Y-129450319D01*
X101600000Y-137817932D02*
X99695000Y-135912932D01*
X101600000Y-141478000D02*
X101600000Y-137817932D01*
X99695000Y-135912932D02*
X99695000Y-130937000D01*
X101981000Y-141859000D02*
X101600000Y-141478000D01*
X101346000Y-143002000D02*
X101981000Y-142367000D01*
X101981000Y-142367000D02*
X101981000Y-141859000D01*
X99695000Y-130937000D02*
X100417857Y-130214143D01*
X100417857Y-130214143D02*
X100695469Y-130214143D01*
X114932121Y-108875839D02*
X115650588Y-109594306D01*
X114932121Y-108184528D02*
X114932121Y-108875839D01*
X115650588Y-109594306D02*
X115650588Y-114063088D01*
X116384334Y-114796834D02*
X116384334Y-114871500D01*
X115650588Y-114063088D02*
X116384334Y-114796834D01*
X115513602Y-118600547D02*
X115311885Y-118398830D01*
X115087422Y-125882422D02*
X114782622Y-125577622D01*
X116840000Y-140081000D02*
X115697000Y-138938000D01*
X115311885Y-118398830D02*
X114961886Y-118048831D01*
X115697000Y-138938000D02*
X115697000Y-136906000D01*
X115697000Y-136906000D02*
X115087422Y-136296422D01*
X115087422Y-136296422D02*
X115087422Y-125882422D01*
X114782622Y-125577622D02*
X114782622Y-119880711D01*
X114782622Y-119880711D02*
X115513602Y-119149731D01*
X115513602Y-119149731D02*
X115513602Y-118600547D01*
X106426000Y-111328200D02*
X106426000Y-109982000D01*
X105410000Y-116205000D02*
X105918000Y-115697000D01*
X105918000Y-115697000D02*
X105918000Y-111836200D01*
X105918000Y-111836200D02*
X106426000Y-111328200D01*
X106426000Y-109982000D02*
X105791000Y-109347000D01*
X114556331Y-118048831D02*
X114084122Y-117576622D01*
X114112246Y-116272975D02*
X114462245Y-115922976D01*
X114961886Y-118048831D02*
X114556331Y-118048831D01*
X114084122Y-116301099D02*
X114112246Y-116272975D01*
X114084122Y-117576622D02*
X114084122Y-116301099D01*
D52*
X116840000Y-140081000D02*
X116840000Y-141000000D01*
D57*
X105791000Y-109347000D02*
X105791000Y-108588000D01*
X105791000Y-108588000D02*
X105790000Y-108587000D01*
D54*
X114982021Y-117250637D02*
X114662732Y-117250637D01*
X115818413Y-118087029D02*
X114982021Y-117250637D01*
X115818413Y-119275987D02*
X115818413Y-118087029D01*
X115087433Y-120006967D02*
X115818413Y-119275987D01*
X115392233Y-125679233D02*
X115087433Y-125374433D01*
X116840000Y-137541000D02*
X115392233Y-136093233D01*
X115392233Y-136093233D02*
X115392233Y-125679233D01*
X115087433Y-125374433D02*
X115087433Y-120006967D01*
X114736155Y-114441856D02*
X114736155Y-111236435D01*
X114736155Y-111236435D02*
X114413738Y-110914018D01*
X114662732Y-117250637D02*
X115061777Y-116851592D01*
X115061777Y-114767477D02*
X114736155Y-114441856D01*
X115061777Y-116851592D02*
X115061777Y-114767477D01*
D52*
X116840000Y-137541000D02*
X116840000Y-138460000D01*
D53*
X111760000Y-109601000D02*
X112255680Y-109601000D01*
X112255680Y-109601000D02*
X112262734Y-109593946D01*
D54*
X114431344Y-115097547D02*
X114431344Y-111762556D01*
X113779309Y-115749582D02*
X114431344Y-115097547D01*
D53*
X111760000Y-109601000D02*
X111752946Y-109593946D01*
X111752946Y-109593946D02*
X111492982Y-109593946D01*
X111492982Y-109593946D02*
X110998008Y-109593946D01*
D54*
X112262734Y-109593946D02*
X111492982Y-109593946D01*
X113779309Y-117745964D02*
X113779309Y-115749582D01*
X114934137Y-118900792D02*
X113779309Y-117745964D01*
X114431344Y-111762556D02*
X112262734Y-109593946D01*
X114782611Y-126162544D02*
X114477811Y-125857744D01*
X114584138Y-119250791D02*
X114934137Y-118900792D01*
X116840000Y-142621000D02*
X115316000Y-141097000D01*
X114782611Y-136499611D02*
X114782611Y-126162544D01*
X115316000Y-141097000D02*
X115316000Y-137033000D01*
X114477811Y-125857744D02*
X114477811Y-119357118D01*
X114477811Y-119357118D02*
X114584138Y-119250791D01*
X115316000Y-137033000D02*
X114782611Y-136499611D01*
D52*
X116840000Y-142621000D02*
X116840000Y-143540000D01*
D54*
X114173000Y-118570721D02*
X113411000Y-117808721D01*
X114173000Y-125984000D02*
X114173000Y-118570721D01*
X114477800Y-126288800D02*
X114173000Y-125984000D01*
X114477800Y-136702800D02*
X114477800Y-126288800D01*
X115570000Y-141859000D02*
X114935000Y-141224000D01*
X116840000Y-145288000D02*
X115570000Y-144018000D01*
X115570000Y-144018000D02*
X115570000Y-141859000D01*
X113076559Y-115101841D02*
X112191474Y-115101841D01*
X114935000Y-137160000D02*
X114477800Y-136702800D01*
X113411000Y-117808721D02*
X113411000Y-115436282D01*
X114935000Y-141224000D02*
X114935000Y-137160000D01*
X112191474Y-115101841D02*
X111696500Y-115101841D01*
X113411000Y-115436282D02*
X113076559Y-115101841D01*
D53*
X102707043Y-120244527D02*
X103202017Y-120244527D01*
X102489000Y-120269000D02*
X102513473Y-120244527D01*
X102513473Y-120244527D02*
X102707043Y-120244527D01*
D52*
X116840000Y-145288000D02*
X116840000Y-146080000D01*
D54*
X102082622Y-123647222D02*
X101142778Y-122707378D01*
X102908155Y-128054569D02*
X102908155Y-126644136D01*
X103204533Y-128350947D02*
X102908155Y-128054569D01*
X98425045Y-121158045D02*
X98425045Y-119240026D01*
X103204533Y-134131909D02*
X103204533Y-128350947D01*
X108328090Y-139255466D02*
X103204533Y-134131909D01*
X112141000Y-145669000D02*
X112141000Y-143014700D01*
X111994000Y-145816000D02*
X112141000Y-145669000D01*
X99974378Y-122707378D02*
X98425045Y-121158045D01*
X102082622Y-125818603D02*
X102082622Y-123647222D01*
X109775591Y-139255466D02*
X108328090Y-139255466D01*
X98425045Y-119240026D02*
X97764655Y-118579636D01*
X112141000Y-143014700D02*
X110667745Y-141541445D01*
X96946966Y-115948649D02*
X96946966Y-112250466D01*
X96946966Y-112250466D02*
X96673145Y-111976645D01*
X110667745Y-141541445D02*
X110667745Y-140147620D01*
X110667745Y-140147620D02*
X109775591Y-139255466D01*
D53*
X96673145Y-111976645D02*
X96673145Y-110744000D01*
D54*
X101142778Y-122707378D02*
X99974378Y-122707378D01*
X102908155Y-126644136D02*
X102082622Y-125818603D01*
X97764655Y-118579636D02*
X97764655Y-116766338D01*
X97764655Y-116766338D02*
X96946966Y-115948649D01*
D57*
X95859600Y-110744000D02*
X96178171Y-110744000D01*
X96178171Y-110744000D02*
X96673145Y-110744000D01*
X95631000Y-109601000D02*
X95631000Y-110515400D01*
X95631000Y-110515400D02*
X95859600Y-110744000D01*
D55*
X111994000Y-145816000D02*
X111994000Y-146394000D01*
D54*
X96642155Y-113865190D02*
X96099982Y-113323018D01*
D57*
X94156262Y-111379297D02*
X94506261Y-111729297D01*
X94506261Y-111729297D02*
X96099982Y-113323018D01*
D54*
X102603344Y-126770392D02*
X101777811Y-125944859D01*
X109994000Y-145276000D02*
X110526375Y-144743625D01*
X110526375Y-141831142D02*
X110362934Y-141667701D01*
X110362934Y-141667701D02*
X110362934Y-140334934D01*
X102899722Y-128477203D02*
X102603344Y-128180825D01*
X109588277Y-139560277D02*
X108201834Y-139560277D01*
X108201834Y-139560277D02*
X102899722Y-134258165D01*
X96642155Y-116074905D02*
X96642155Y-113865190D01*
X102603344Y-128180825D02*
X102603344Y-126770392D01*
X110526375Y-144743625D02*
X110526375Y-141831142D01*
X110362934Y-140334934D02*
X109588277Y-139560277D01*
X102899722Y-134258165D02*
X102899722Y-128477203D01*
X97459844Y-116892594D02*
X96642155Y-116074905D01*
X97459844Y-118705892D02*
X97459844Y-116892594D01*
X98120234Y-119366282D02*
X97459844Y-118705892D01*
X98120234Y-121361234D02*
X98120234Y-119366282D01*
X99771189Y-123012189D02*
X98120234Y-121361234D01*
X100964256Y-123012189D02*
X99771189Y-123012189D01*
X109994000Y-145854810D02*
X109994000Y-145276000D01*
X101777811Y-125944859D02*
X101777811Y-123825744D01*
X101777811Y-123825744D02*
X100964256Y-123012189D01*
D57*
X94869000Y-110666559D02*
X94506261Y-111029298D01*
X94869000Y-109601000D02*
X94869000Y-110666559D01*
X94506261Y-111029298D02*
X94156262Y-111379297D01*
D55*
X109994000Y-146394000D02*
X109994000Y-145854810D01*
D57*
X97124778Y-110015278D02*
X97007838Y-109898338D01*
D53*
X97007838Y-109136338D02*
X97312968Y-108831208D01*
X96543176Y-109601000D02*
X97007838Y-109136338D01*
D57*
X97007838Y-109136338D02*
X97007838Y-109898338D01*
D54*
X97312968Y-108831208D02*
X97251777Y-108892399D01*
X97251777Y-108892399D02*
X97251777Y-110459777D01*
D53*
X96520000Y-109601000D02*
X96543176Y-109601000D01*
D54*
X97251777Y-110459777D02*
X96962969Y-110170969D01*
X112494000Y-142923934D02*
X110972556Y-141402490D01*
X102387433Y-125692347D02*
X102387433Y-123520966D01*
X112494000Y-145824000D02*
X112494000Y-142923934D01*
X97251777Y-115822393D02*
X97251777Y-110459777D01*
X98069466Y-118453380D02*
X98069466Y-116640082D01*
X98729856Y-119113770D02*
X98069466Y-118453380D01*
X101269034Y-122402567D02*
X100177567Y-122402567D01*
X110972556Y-141402490D02*
X110972556Y-139992056D01*
X100177567Y-122402567D02*
X98729856Y-120954856D01*
X98069466Y-116640082D02*
X97251777Y-115822393D01*
X108441691Y-138938000D02*
X103509344Y-134005653D01*
X109918500Y-138938000D02*
X108441691Y-138938000D01*
X110972556Y-139992056D02*
X109918500Y-138938000D01*
X103212966Y-127928313D02*
X103212966Y-126517880D01*
X103509344Y-134005653D02*
X103509344Y-128224691D01*
X103509344Y-128224691D02*
X103212966Y-127928313D01*
X98729856Y-120954856D02*
X98729856Y-119113770D01*
X102387433Y-123520966D02*
X101269034Y-122402567D01*
X103212966Y-126517880D02*
X102387433Y-125692347D01*
X96901000Y-109982000D02*
X96774000Y-109982000D01*
X97251777Y-110332777D02*
X96901000Y-109982000D01*
X97251777Y-110459777D02*
X97251777Y-110332777D01*
X97251777Y-110459777D02*
X96774000Y-109982000D01*
D55*
X96520000Y-109794885D02*
X96627979Y-109902864D01*
X112494000Y-145824000D02*
X112494000Y-146394000D01*
D57*
X93980000Y-110490555D02*
X93503001Y-110967554D01*
D54*
X110221564Y-141957398D02*
X110058123Y-141793957D01*
X109494000Y-145191067D02*
X110221564Y-144463503D01*
X97815423Y-119492538D02*
X97155033Y-118832148D01*
X110058123Y-141793957D02*
X110058123Y-140474623D01*
X100838000Y-123317000D02*
X99568000Y-123317000D01*
X99568000Y-123317000D02*
X97815423Y-121564423D01*
X97155033Y-117018849D02*
X96337344Y-116201161D01*
X101473000Y-123952000D02*
X100838000Y-123317000D01*
X93503001Y-111605592D02*
X93503001Y-110967554D01*
X110058123Y-140474623D02*
X109448588Y-139865088D01*
X102594911Y-128603459D02*
X102285832Y-128294380D01*
X96337344Y-114439935D02*
X93503001Y-111605592D01*
X110221564Y-144463503D02*
X110221564Y-141957398D01*
X109494000Y-145689000D02*
X109494000Y-145191067D01*
X109448588Y-139865088D02*
X108075578Y-139865088D01*
X97815423Y-121564423D02*
X97815423Y-119492538D01*
X108075578Y-139865088D02*
X102594911Y-134384421D01*
X102594911Y-134384421D02*
X102594911Y-128603459D01*
X102285832Y-128294380D02*
X102285832Y-126883947D01*
X102285832Y-126883947D02*
X101473000Y-126071115D01*
X101473000Y-126071115D02*
X101473000Y-123952000D01*
X97155033Y-118832148D02*
X97155033Y-117018849D01*
X96337344Y-116201161D02*
X96337344Y-114439935D01*
D53*
X93980000Y-109601000D02*
X93980000Y-109995581D01*
X93980000Y-109995581D02*
X93980000Y-110490555D01*
D55*
X109494000Y-146394000D02*
X109494000Y-145689000D01*
D54*
X93218000Y-116713000D02*
X92708466Y-116203466D01*
X92708466Y-116203466D02*
X92455958Y-116203466D01*
X93726000Y-116713000D02*
X93218000Y-116713000D01*
X94488000Y-119697844D02*
X95123000Y-119062844D01*
X95123000Y-119062844D02*
X95123000Y-118110000D01*
X95123000Y-118110000D02*
X93726000Y-116713000D01*
X94488000Y-119888000D02*
X94437200Y-119938800D01*
X94437200Y-119938800D02*
X93675200Y-119938800D01*
X94488000Y-119786400D02*
X94488000Y-119697844D01*
X94488000Y-119888000D02*
X94488000Y-119786400D01*
X93751400Y-119862600D02*
X93840300Y-119773700D01*
X93840300Y-119773700D02*
X93916156Y-119697844D01*
X94488000Y-119786400D02*
X93853000Y-119786400D01*
X93853000Y-119786400D02*
X93840300Y-119773700D01*
X93675200Y-119938800D02*
X93751400Y-119862600D01*
X94488000Y-120269000D02*
X94488000Y-119888000D01*
X93751400Y-119862600D02*
X94462600Y-119862600D01*
X94462600Y-119862600D02*
X94488000Y-119888000D01*
X93675200Y-120650000D02*
X93675200Y-119938800D01*
X94107000Y-120650000D02*
X93675200Y-120650000D01*
X93916156Y-119697844D02*
X94488000Y-119697844D01*
X94107000Y-120650000D02*
X94488000Y-120269000D01*
X99352208Y-116674792D02*
X99352208Y-118011854D01*
X99783921Y-106337079D02*
X99783921Y-109165935D01*
X100132398Y-110927398D02*
X101142811Y-111937811D01*
X99783921Y-109165935D02*
X100132398Y-109514413D01*
X99758500Y-102489000D02*
X99758500Y-102997000D01*
X98425000Y-101155500D02*
X99758500Y-102489000D01*
X100132398Y-109514413D02*
X100132398Y-110927398D01*
X99441000Y-103314500D02*
X99441000Y-105994158D01*
X98398693Y-99097193D02*
X98425000Y-99123500D01*
X101142811Y-114884190D02*
X99352208Y-116674792D01*
X99758500Y-102997000D02*
X99441000Y-103314500D01*
X101142811Y-111937811D02*
X101142811Y-114884190D01*
X99949100Y-120142100D02*
X100990323Y-121183323D01*
X104728588Y-127719667D02*
X104728588Y-133500629D01*
X99352208Y-118011854D02*
X99949100Y-118608746D01*
X112191800Y-139242800D02*
X112191800Y-140895267D01*
X103606677Y-125187323D02*
X104432210Y-126012856D01*
X98425000Y-99123500D02*
X98425000Y-101155500D01*
X99441000Y-105994158D02*
X99783921Y-106337079D01*
X115493800Y-148031200D02*
X115493800Y-149047200D01*
X113792000Y-142495467D02*
X113792000Y-144577125D01*
X104728588Y-133500629D02*
X108794337Y-137566378D01*
X114528611Y-147066011D02*
X115493800Y-148031200D01*
X99949100Y-118608746D02*
X99949100Y-120142100D01*
X100990323Y-121183323D02*
X101892757Y-121183323D01*
X104432210Y-126012856D02*
X104432210Y-127423289D01*
X101892757Y-121183323D02*
X103606677Y-122897243D01*
X103606677Y-122897243D02*
X103606677Y-125187323D01*
X104432210Y-127423289D02*
X104728588Y-127719667D01*
X108794337Y-137566378D02*
X110515378Y-137566378D01*
X110515378Y-137566378D02*
X112191800Y-139242800D01*
X112191800Y-140895267D02*
X113792000Y-142495467D01*
X113792000Y-144577125D02*
X114528611Y-145313736D01*
X114528611Y-145313736D02*
X114528611Y-147066011D01*
X115493800Y-149047200D02*
X114447000Y-150094000D01*
X114447000Y-150094000D02*
X113645000Y-150094000D01*
D55*
X113645000Y-150094000D02*
X113194000Y-150094000D01*
D54*
X101752334Y-121488134D02*
X100787134Y-121488134D01*
X100838000Y-114757934D02*
X100838000Y-112064067D01*
X99124867Y-103200371D02*
X99124867Y-102705397D01*
X114439000Y-149594000D02*
X115138200Y-148894800D01*
X99124867Y-106109867D02*
X99124867Y-103200371D01*
X115138200Y-148894800D02*
X115138200Y-148107400D01*
X113487189Y-144703381D02*
X113487189Y-142622456D01*
X114223800Y-145439992D02*
X113487189Y-144703381D01*
X113487189Y-142622456D02*
X111886989Y-141022256D01*
X111886989Y-141022256D02*
X111886989Y-139522922D01*
X110235256Y-137871189D02*
X108668081Y-137871189D01*
X108668081Y-137871189D02*
X104423777Y-133626885D01*
X99479110Y-109292191D02*
X99479110Y-106464110D01*
X104127399Y-126139112D02*
X103301866Y-125313579D01*
X104127399Y-127549545D02*
X104127399Y-126139112D01*
X99644289Y-120345289D02*
X99644289Y-118735002D01*
X111886989Y-139522922D02*
X110235256Y-137871189D01*
X113653000Y-149594000D02*
X114439000Y-149594000D01*
X103301866Y-123037666D02*
X101752334Y-121488134D01*
X99827587Y-109640669D02*
X99479110Y-109292191D01*
X99827587Y-111053654D02*
X99827587Y-109640669D01*
X99047397Y-118138110D02*
X99047397Y-116548536D01*
X114223800Y-147193000D02*
X114223800Y-145439992D01*
X99479110Y-106464110D02*
X99124867Y-106109867D01*
X115138200Y-148107400D02*
X114223800Y-147193000D01*
X103301866Y-125313579D02*
X103301866Y-123037666D01*
X100838000Y-112064067D02*
X99827587Y-111053654D01*
X99644289Y-118735002D02*
X99047397Y-118138110D01*
X100787134Y-121488134D02*
X99644289Y-120345289D01*
X104423777Y-127845923D02*
X104127399Y-127549545D01*
X99047397Y-116548536D02*
X100838000Y-114757934D01*
X104423777Y-133626885D02*
X104423777Y-127845923D01*
D55*
X113653000Y-149594000D02*
X113194000Y-149594000D01*
D54*
X110109000Y-138176000D02*
X111582178Y-139649178D01*
X114431000Y-149094000D02*
X113661000Y-149094000D01*
X98415660Y-102232500D02*
X98415660Y-103364591D01*
X98196389Y-106744991D02*
X98196389Y-109244679D01*
X99339478Y-118861258D02*
X99339478Y-120548478D01*
X97861399Y-115569881D02*
X98679088Y-116387570D01*
X114782600Y-148742400D02*
X114431000Y-149094000D01*
X111582178Y-139649178D02*
X111582178Y-141148512D01*
X98679088Y-118200868D02*
X99339478Y-118861258D01*
X113918967Y-147319967D02*
X114782600Y-148183600D01*
X103822588Y-127675801D02*
X104118966Y-127972179D01*
X100583945Y-121792945D02*
X101599945Y-121792945D01*
X103822588Y-126265368D02*
X103822588Y-127675801D01*
X98806000Y-106135380D02*
X98196389Y-106744991D01*
X104118966Y-127972179D02*
X104118966Y-133753141D01*
X113918967Y-145618901D02*
X113918967Y-147319967D01*
X104118966Y-133753141D02*
X108541825Y-138176000D01*
X113182378Y-144882312D02*
X113918967Y-145618901D01*
X114782600Y-148183600D02*
X114782600Y-148742400D01*
X102997055Y-125439835D02*
X103822588Y-126265368D01*
X102997055Y-123190055D02*
X102997055Y-125439835D01*
X113182378Y-142748712D02*
X113182378Y-144882312D01*
X108541825Y-138176000D02*
X110109000Y-138176000D01*
X111582178Y-141148512D02*
X113182378Y-142748712D01*
X99339478Y-120548478D02*
X100583945Y-121792945D01*
X98679088Y-116387570D02*
X98679088Y-118200868D01*
X97861399Y-109579668D02*
X97861399Y-115569881D01*
X98806000Y-103754931D02*
X98806000Y-106135380D01*
X98415660Y-103364591D02*
X98806000Y-103754931D01*
X101599945Y-121792945D02*
X102997055Y-123190055D01*
X98196389Y-109244679D02*
X97861399Y-109579668D01*
D55*
X113661000Y-149094000D02*
X113194000Y-149094000D01*
D54*
X101447556Y-122097756D02*
X102692244Y-123342444D01*
X99034667Y-118987514D02*
X99034667Y-120751667D01*
X97726500Y-103144964D02*
X98501189Y-103919653D01*
X98501189Y-103919653D02*
X98501189Y-106009124D01*
X103814155Y-133879397D02*
X108491758Y-138557000D01*
X98374277Y-118327124D02*
X99034667Y-118987514D01*
X108491758Y-138557000D02*
X109982000Y-138557000D01*
X111277367Y-139852367D02*
X111277367Y-141274767D01*
X111277367Y-141274767D02*
X112839500Y-142836900D01*
X98374277Y-116513826D02*
X98374277Y-118327124D01*
X97891578Y-109092873D02*
X97556588Y-109427863D01*
X97726500Y-99313992D02*
X97726500Y-103144964D01*
X97536008Y-99123500D02*
X97726500Y-99313992D01*
X102692244Y-123342444D02*
X102692244Y-125566091D01*
X99034667Y-120751667D02*
X100380756Y-122097756D01*
X100380756Y-122097756D02*
X101447556Y-122097756D01*
X109982000Y-138557000D02*
X111277367Y-139852367D01*
X97891578Y-106618735D02*
X97891578Y-109092873D01*
X97556588Y-115696137D02*
X98374277Y-116513826D01*
X97556588Y-109427863D02*
X97556588Y-115696137D01*
X98501189Y-106009124D02*
X97891578Y-106618735D01*
X102692244Y-125566091D02*
X103517777Y-126391624D01*
X103517777Y-126391624D02*
X103517777Y-127802057D01*
X103517777Y-127802057D02*
X103814155Y-128098435D01*
X112839500Y-142836900D02*
X112839500Y-144970500D01*
X103814155Y-128098435D02*
X103814155Y-133879397D01*
X112839500Y-144970500D02*
X113601500Y-145732500D01*
X113601500Y-145732500D02*
X113601500Y-146875500D01*
X113601500Y-146875500D02*
X113538000Y-146939000D01*
D55*
X113538000Y-146939000D02*
X113383000Y-147094000D01*
X113383000Y-147094000D02*
X113194000Y-147094000D01*
D54*
X96850222Y-117145105D02*
X95353530Y-115648413D01*
X99314000Y-124719092D02*
X99314000Y-123571000D01*
X106832399Y-144399000D02*
X107632500Y-144399000D01*
X101981021Y-128420636D02*
X101981021Y-127010203D01*
X97510612Y-121767612D02*
X97510612Y-119618794D01*
X107950000Y-140170577D02*
X102290100Y-134510677D01*
X108294000Y-148594000D02*
X107890500Y-148594000D01*
X106324399Y-147853399D02*
X106324399Y-144907000D01*
X106324399Y-144907000D02*
X106832399Y-144399000D01*
X97510612Y-119618794D02*
X96850222Y-118958404D01*
X102290100Y-134510677D02*
X102290100Y-128729715D01*
X107247101Y-147950601D02*
X106421601Y-147950601D01*
X107950000Y-144081500D02*
X107950000Y-140170577D01*
X101981021Y-127010203D02*
X100497596Y-125526778D01*
X96850222Y-118958404D02*
X96850222Y-117145105D01*
X102290100Y-128729715D02*
X101981021Y-128420636D01*
X106421601Y-147950601D02*
X106324399Y-147853399D01*
X95353530Y-114769374D02*
X95353530Y-114274400D01*
X107890500Y-148594000D02*
X107247101Y-147950601D01*
X100121686Y-125526778D02*
X99314000Y-124719092D01*
X95353530Y-115648413D02*
X95353530Y-114769374D01*
X107632500Y-144399000D02*
X107950000Y-144081500D01*
X100497596Y-125526778D02*
X100121686Y-125526778D01*
X99314000Y-123571000D02*
X97510612Y-121767612D01*
X108204000Y-148539200D02*
X107835700Y-148539200D01*
X107835700Y-148539200D02*
X107823000Y-148526500D01*
D55*
X96101000Y-141643000D02*
X95969000Y-141643000D01*
X97028000Y-138684000D02*
X97028000Y-140716000D01*
X97028000Y-140716000D02*
X96101000Y-141643000D01*
D53*
X96012000Y-140081000D02*
X96012000Y-138684000D01*
X96730025Y-137370025D02*
X96730025Y-137874369D01*
X95247460Y-136611360D02*
X95971360Y-136611360D01*
X95971360Y-136611360D02*
X96730025Y-137370025D01*
D55*
X93510000Y-141643000D02*
X93769000Y-141643000D01*
X95847000Y-140043000D02*
X94869000Y-139065000D01*
X95969000Y-140043000D02*
X95847000Y-140043000D01*
X92710000Y-139395200D02*
X92710000Y-140843000D01*
X94869000Y-139065000D02*
X93040200Y-139065000D01*
X93040200Y-139065000D02*
X92710000Y-139395200D01*
X92710000Y-140843000D02*
X93510000Y-141643000D01*
D54*
X95834189Y-117924587D02*
X95834189Y-119213789D01*
X94435369Y-121920000D02*
X94081656Y-122273713D01*
D56*
X94503619Y-137616161D02*
X95833161Y-137616161D01*
X94107000Y-137219542D02*
X94503619Y-137616161D01*
X94107000Y-135636000D02*
X94107000Y-137219542D01*
X95833161Y-137616161D02*
X96012000Y-137795000D01*
D54*
X94081656Y-129565344D02*
X93802200Y-129844800D01*
D56*
X96012000Y-138104200D02*
X96012000Y-138684000D01*
D54*
X93802200Y-129844800D02*
X93802200Y-132080000D01*
X93497400Y-132384800D02*
X93497400Y-137238430D01*
D56*
X96012000Y-137795000D02*
X96012000Y-138104200D01*
D54*
X93497400Y-137238430D02*
X94529939Y-138270969D01*
X94783945Y-138270969D02*
X95278919Y-138270969D01*
X93659146Y-115749544D02*
X95834189Y-117924587D01*
X94529939Y-138270969D02*
X94783945Y-138270969D01*
X94081656Y-122273713D02*
X94081656Y-129565344D01*
X94869000Y-121920000D02*
X94435369Y-121920000D01*
X95186500Y-121602500D02*
X94869000Y-121920000D01*
X93802200Y-132080000D02*
X93497400Y-132384800D01*
X95186500Y-119861478D02*
X95186500Y-121602500D01*
X95834189Y-119213789D02*
X95186500Y-119861478D01*
X93634830Y-115749544D02*
X93659146Y-115749544D01*
G36*
X99696000Y-169082044D02*
G01*
X99759500Y-169065029D01*
X99759500Y-169719200D01*
X96538472Y-169719200D01*
X96591035Y-169644549D01*
X96663939Y-169420836D01*
X96666087Y-169174766D01*
X96597098Y-168949815D01*
X96465298Y-168755511D01*
X96433849Y-168730271D01*
X96603357Y-168730271D01*
X96626196Y-168845090D01*
X96721411Y-168987589D01*
X96863910Y-169082804D01*
X97019590Y-169113771D01*
X97544410Y-169113771D01*
X97580793Y-169106534D01*
X97634185Y-169170165D01*
X97827814Y-169281956D01*
X98174000Y-169342998D01*
X98174000Y-168278000D01*
X98422000Y-168278000D01*
X98422000Y-169357043D01*
X98865512Y-169238205D01*
X99041164Y-169090815D01*
X99122464Y-168950000D01*
X99049718Y-168824000D01*
X98932000Y-168824000D01*
X98932000Y-167512000D01*
X99696000Y-167512000D01*
X99696000Y-169082044D01*
G37*
D55*
X99696000Y-169082044D02*
X99759500Y-169065029D01*
X99759500Y-169719200D01*
X96538472Y-169719200D01*
X96591035Y-169644549D01*
X96663939Y-169420836D01*
X96666087Y-169174766D01*
X96597098Y-168949815D01*
X96465298Y-168755511D01*
X96433849Y-168730271D01*
X96603357Y-168730271D01*
X96626196Y-168845090D01*
X96721411Y-168987589D01*
X96863910Y-169082804D01*
X97019590Y-169113771D01*
X97544410Y-169113771D01*
X97580793Y-169106534D01*
X97634185Y-169170165D01*
X97827814Y-169281956D01*
X98174000Y-169342998D01*
X98174000Y-168278000D01*
X98422000Y-168278000D01*
X98422000Y-169357043D01*
X98865512Y-169238205D01*
X99041164Y-169090815D01*
X99122464Y-168950000D01*
X99049718Y-168824000D01*
X98932000Y-168824000D01*
X98932000Y-167512000D01*
X99696000Y-167512000D01*
X99696000Y-169082044D01*
G36*
X100204000Y-158040596D02*
G01*
X100172315Y-158002835D01*
X99978686Y-157891044D01*
X99769524Y-157854163D01*
X99505500Y-157854163D01*
X99505500Y-159744177D01*
X99073700Y-159998828D01*
X99073700Y-164063707D01*
X99002360Y-164078092D01*
X98962384Y-164098461D01*
X98976701Y-164037421D01*
X98984675Y-163732895D01*
X98938037Y-163473690D01*
X98792404Y-163428051D01*
X97231622Y-164988833D01*
X97269279Y-165129368D01*
X97420021Y-165169758D01*
X97657313Y-165189684D01*
X97894383Y-165167275D01*
X98123738Y-165103237D01*
X98338128Y-164999597D01*
X98375200Y-164972663D01*
X98375200Y-165431200D01*
X97863063Y-165431200D01*
X97822704Y-165422511D01*
X97749290Y-165431200D01*
X97733168Y-165431200D01*
X97718148Y-165433700D01*
X96790002Y-165433700D01*
X96654410Y-165406729D01*
X95429590Y-165406729D01*
X95273910Y-165437696D01*
X95131411Y-165532911D01*
X95036196Y-165675410D01*
X95005229Y-165831090D01*
X95005229Y-166405910D01*
X95036196Y-166561590D01*
X95131411Y-166704089D01*
X95273910Y-166799304D01*
X95429590Y-166830271D01*
X96654410Y-166830271D01*
X96780144Y-166805261D01*
X96722002Y-167135000D01*
X97787000Y-167135000D01*
X97787000Y-167383000D01*
X96976361Y-167383000D01*
X96954609Y-167377171D01*
X96887977Y-167383000D01*
X96877892Y-167383000D01*
X96810090Y-167337696D01*
X96654410Y-167306729D01*
X95429590Y-167306729D01*
X95273910Y-167337696D01*
X95131411Y-167432911D01*
X95036196Y-167575410D01*
X95005229Y-167731090D01*
X95005229Y-168305910D01*
X95036196Y-168461590D01*
X95114800Y-168579229D01*
X94987590Y-168579229D01*
X94831910Y-168610196D01*
X94742000Y-168670272D01*
X94690200Y-168635660D01*
X94690200Y-168626505D01*
X94693921Y-168615667D01*
X94690200Y-168516573D01*
X94690200Y-168474847D01*
X94688238Y-168464311D01*
X94685529Y-168392138D01*
X94669314Y-168362704D01*
X94660507Y-168315419D01*
X94546508Y-168130478D01*
X94491153Y-168088385D01*
X94478771Y-168076003D01*
X94478771Y-167804635D01*
X94535165Y-167757315D01*
X94646956Y-167563686D01*
X94707998Y-167217500D01*
X93293000Y-167217500D01*
X93293000Y-166919500D01*
X94722043Y-166919500D01*
X94603205Y-166475989D01*
X94478771Y-166327694D01*
X94478771Y-165831090D01*
X94452856Y-165700807D01*
X95164033Y-164989631D01*
X96351030Y-164989631D01*
X96506710Y-164958664D01*
X96649209Y-164863449D01*
X96744424Y-164720950D01*
X96775391Y-164565270D01*
X96775391Y-164005393D01*
X96930465Y-163850320D01*
X96775391Y-163695247D01*
X96775391Y-163140450D01*
X96744424Y-162984770D01*
X96669608Y-162872800D01*
X97300013Y-162872800D01*
X97383809Y-162863993D01*
X97650300Y-163130485D01*
X98075890Y-162704895D01*
X98027116Y-162557417D01*
X97996909Y-162552956D01*
X98016253Y-162535539D01*
X98143615Y-162360239D01*
X98231748Y-162162289D01*
X98276799Y-161950341D01*
X98276799Y-161733659D01*
X98231748Y-161521711D01*
X98143615Y-161323762D01*
X98016253Y-161148461D01*
X97855226Y-161003472D01*
X97667573Y-160895131D01*
X97588505Y-160869441D01*
X97594150Y-160815735D01*
X97585800Y-160766365D01*
X97585800Y-160202771D01*
X97738910Y-160202771D01*
X97768437Y-160196898D01*
X97820685Y-160259165D01*
X98014314Y-160370956D01*
X98223476Y-160407837D01*
X98487500Y-160407837D01*
X98487500Y-157881828D01*
X98511245Y-157866496D01*
X98557016Y-157808437D01*
X98568413Y-157797040D01*
X98591796Y-157764317D01*
X98655874Y-157683037D01*
X98659235Y-157669948D01*
X98667465Y-157658431D01*
X98724111Y-157469014D01*
X98892192Y-157523627D01*
X99149178Y-157534398D01*
X99404201Y-157474582D01*
X99689048Y-157289601D01*
X100204000Y-156774648D01*
X100204000Y-158040596D01*
G37*
X100204000Y-158040596D02*
X100172315Y-158002835D01*
X99978686Y-157891044D01*
X99769524Y-157854163D01*
X99505500Y-157854163D01*
X99505500Y-159744177D01*
X99073700Y-159998828D01*
X99073700Y-164063707D01*
X99002360Y-164078092D01*
X98962384Y-164098461D01*
X98976701Y-164037421D01*
X98984675Y-163732895D01*
X98938037Y-163473690D01*
X98792404Y-163428051D01*
X97231622Y-164988833D01*
X97269279Y-165129368D01*
X97420021Y-165169758D01*
X97657313Y-165189684D01*
X97894383Y-165167275D01*
X98123738Y-165103237D01*
X98338128Y-164999597D01*
X98375200Y-164972663D01*
X98375200Y-165431200D01*
X97863063Y-165431200D01*
X97822704Y-165422511D01*
X97749290Y-165431200D01*
X97733168Y-165431200D01*
X97718148Y-165433700D01*
X96790002Y-165433700D01*
X96654410Y-165406729D01*
X95429590Y-165406729D01*
X95273910Y-165437696D01*
X95131411Y-165532911D01*
X95036196Y-165675410D01*
X95005229Y-165831090D01*
X95005229Y-166405910D01*
X95036196Y-166561590D01*
X95131411Y-166704089D01*
X95273910Y-166799304D01*
X95429590Y-166830271D01*
X96654410Y-166830271D01*
X96780144Y-166805261D01*
X96722002Y-167135000D01*
X97787000Y-167135000D01*
X97787000Y-167383000D01*
X96976361Y-167383000D01*
X96954609Y-167377171D01*
X96887977Y-167383000D01*
X96877892Y-167383000D01*
X96810090Y-167337696D01*
X96654410Y-167306729D01*
X95429590Y-167306729D01*
X95273910Y-167337696D01*
X95131411Y-167432911D01*
X95036196Y-167575410D01*
X95005229Y-167731090D01*
X95005229Y-168305910D01*
X95036196Y-168461590D01*
X95114800Y-168579229D01*
X94987590Y-168579229D01*
X94831910Y-168610196D01*
X94742000Y-168670272D01*
X94690200Y-168635660D01*
X94690200Y-168626505D01*
X94693921Y-168615667D01*
X94690200Y-168516573D01*
X94690200Y-168474847D01*
X94688238Y-168464311D01*
X94685529Y-168392138D01*
X94669314Y-168362704D01*
X94660507Y-168315419D01*
X94546508Y-168130478D01*
X94491153Y-168088385D01*
X94478771Y-168076003D01*
X94478771Y-167804635D01*
X94535165Y-167757315D01*
X94646956Y-167563686D01*
X94707998Y-167217500D01*
X93293000Y-167217500D01*
X93293000Y-166919500D01*
X94722043Y-166919500D01*
X94603205Y-166475989D01*
X94478771Y-166327694D01*
X94478771Y-165831090D01*
X94452856Y-165700807D01*
X95164033Y-164989631D01*
X96351030Y-164989631D01*
X96506710Y-164958664D01*
X96649209Y-164863449D01*
X96744424Y-164720950D01*
X96775391Y-164565270D01*
X96775391Y-164005393D01*
X96930465Y-163850320D01*
X96775391Y-163695247D01*
X96775391Y-163140450D01*
X96744424Y-162984770D01*
X96669608Y-162872800D01*
X97300013Y-162872800D01*
X97383809Y-162863993D01*
X97650300Y-163130485D01*
X98075890Y-162704895D01*
X98027116Y-162557417D01*
X97996909Y-162552956D01*
X98016253Y-162535539D01*
X98143615Y-162360239D01*
X98231748Y-162162289D01*
X98276799Y-161950341D01*
X98276799Y-161733659D01*
X98231748Y-161521711D01*
X98143615Y-161323762D01*
X98016253Y-161148461D01*
X97855226Y-161003472D01*
X97667573Y-160895131D01*
X97588505Y-160869441D01*
X97594150Y-160815735D01*
X97585800Y-160766365D01*
X97585800Y-160202771D01*
X97738910Y-160202771D01*
X97768437Y-160196898D01*
X97820685Y-160259165D01*
X98014314Y-160370956D01*
X98223476Y-160407837D01*
X98487500Y-160407837D01*
X98487500Y-157881828D01*
X98511245Y-157866496D01*
X98557016Y-157808437D01*
X98568413Y-157797040D01*
X98591796Y-157764317D01*
X98655874Y-157683037D01*
X98659235Y-157669948D01*
X98667465Y-157658431D01*
X98724111Y-157469014D01*
X98892192Y-157523627D01*
X99149178Y-157534398D01*
X99404201Y-157474582D01*
X99689048Y-157289601D01*
X100204000Y-156774648D01*
X100204000Y-158040596D01*
G36*
X92190252Y-161521711D02*
G01*
X92145201Y-161733659D01*
X92145201Y-161950341D01*
X92190252Y-162162289D01*
X92278385Y-162360238D01*
X92405747Y-162535539D01*
X92566774Y-162680528D01*
X92754427Y-162788869D01*
X92960504Y-162855827D01*
X93121987Y-162872800D01*
X93830013Y-162872800D01*
X93991496Y-162855827D01*
X94197573Y-162788869D01*
X94211549Y-162780800D01*
X94720029Y-162780800D01*
X94628031Y-162842271D01*
X94532816Y-162984770D01*
X94525057Y-163023776D01*
X94482248Y-163042301D01*
X94282356Y-163204171D01*
X94253352Y-163244984D01*
X93656859Y-163841478D01*
X93544284Y-163675517D01*
X93361177Y-163528559D01*
X93142953Y-163441937D01*
X92908906Y-163423311D01*
X92679729Y-163474329D01*
X92588604Y-163526200D01*
X91355429Y-163526200D01*
X91325410Y-163520229D01*
X91079787Y-163520229D01*
X91564972Y-163043388D01*
X91574292Y-163038833D01*
X91622627Y-162986726D01*
X91643481Y-162966231D01*
X91649107Y-162958180D01*
X91687807Y-162916461D01*
X91694563Y-162893132D01*
X91712112Y-162868018D01*
X91750519Y-162712204D01*
X91743800Y-162659405D01*
X91743800Y-161332771D01*
X92274373Y-161332771D01*
X92190252Y-161521711D01*
G37*
X92190252Y-161521711D02*
X92145201Y-161733659D01*
X92145201Y-161950341D01*
X92190252Y-162162289D01*
X92278385Y-162360238D01*
X92405747Y-162535539D01*
X92566774Y-162680528D01*
X92754427Y-162788869D01*
X92960504Y-162855827D01*
X93121987Y-162872800D01*
X93830013Y-162872800D01*
X93991496Y-162855827D01*
X94197573Y-162788869D01*
X94211549Y-162780800D01*
X94720029Y-162780800D01*
X94628031Y-162842271D01*
X94532816Y-162984770D01*
X94525057Y-163023776D01*
X94482248Y-163042301D01*
X94282356Y-163204171D01*
X94253352Y-163244984D01*
X93656859Y-163841478D01*
X93544284Y-163675517D01*
X93361177Y-163528559D01*
X93142953Y-163441937D01*
X92908906Y-163423311D01*
X92679729Y-163474329D01*
X92588604Y-163526200D01*
X91355429Y-163526200D01*
X91325410Y-163520229D01*
X91079787Y-163520229D01*
X91564972Y-163043388D01*
X91574292Y-163038833D01*
X91622627Y-162986726D01*
X91643481Y-162966231D01*
X91649107Y-162958180D01*
X91687807Y-162916461D01*
X91694563Y-162893132D01*
X91712112Y-162868018D01*
X91750519Y-162712204D01*
X91743800Y-162659405D01*
X91743800Y-161332771D01*
X92274373Y-161332771D01*
X92190252Y-161521711D01*
G36*
X100626650Y-131000750D02*
G01*
X100767077Y-130992038D01*
X100767078Y-134967672D01*
X100757145Y-135017610D01*
X100796494Y-135215431D01*
X100840823Y-135281774D01*
X100908551Y-135383137D01*
X100950886Y-135411424D01*
X103064040Y-137524578D01*
X103064041Y-138618876D01*
X102972586Y-138690973D01*
X102830900Y-138895976D01*
X102786215Y-139088756D01*
X102760451Y-139105971D01*
X102665236Y-139248470D01*
X102634269Y-139404150D01*
X102634269Y-140828970D01*
X102665236Y-140984650D01*
X102760451Y-141127149D01*
X102902950Y-141222364D01*
X103058630Y-141253331D01*
X103330164Y-141253331D01*
X103181809Y-141401686D01*
X103139474Y-141429973D01*
X103104294Y-141482624D01*
X103027417Y-141597679D01*
X102988068Y-141795500D01*
X102998001Y-141845438D01*
X102998000Y-142888512D01*
X102929471Y-142957041D01*
X102887137Y-142985328D01*
X102851958Y-143037978D01*
X102775081Y-143153033D01*
X102735732Y-143350854D01*
X102745665Y-143400792D01*
X102745664Y-150319731D01*
X102735732Y-150369664D01*
X102769190Y-150537871D01*
X102775082Y-150567487D01*
X102887137Y-150735191D01*
X102929475Y-150763480D01*
X102984184Y-150818189D01*
X103012473Y-150860527D01*
X103180178Y-150972583D01*
X103315895Y-150999579D01*
X103378000Y-151011932D01*
X103427933Y-151002000D01*
X104522001Y-151002000D01*
X104522001Y-151127000D01*
X103849000Y-151127000D01*
X103849000Y-151123163D01*
X103488412Y-151123163D01*
X103187489Y-151203795D01*
X103011835Y-151351185D01*
X102900044Y-151544814D01*
X102839002Y-151891000D01*
X104395000Y-151891000D01*
X104395000Y-152655000D01*
X102824957Y-152655000D01*
X102943795Y-153098512D01*
X103073855Y-153253512D01*
X102985474Y-153218430D01*
X102751427Y-153199804D01*
X102522250Y-153250822D01*
X102453424Y-153290000D01*
X101982000Y-153290000D01*
X101982000Y-154096043D01*
X102031381Y-154082812D01*
X102044985Y-154179000D01*
X101039809Y-154179000D01*
X100760800Y-154458010D01*
X100760800Y-153956862D01*
X100871814Y-154020956D01*
X101218000Y-154081998D01*
X101218000Y-152526000D01*
X101982000Y-152526000D01*
X102788043Y-152526000D01*
X102669205Y-152082489D01*
X102521815Y-151906835D01*
X102328186Y-151795044D01*
X101982000Y-151734002D01*
X101982000Y-152526000D01*
X101218000Y-152526000D01*
X101218000Y-151719957D01*
X100774489Y-151838795D01*
X100760800Y-151850281D01*
X100760800Y-151479271D01*
X101802910Y-151479271D01*
X101958590Y-151448304D01*
X102101089Y-151353089D01*
X102196304Y-151210590D01*
X102227271Y-151054910D01*
X102227271Y-150705090D01*
X102197416Y-150555000D01*
X102227271Y-150404910D01*
X102227271Y-150055090D01*
X102197416Y-149905000D01*
X102227271Y-149754910D01*
X102227271Y-149405090D01*
X102197416Y-149255000D01*
X102227271Y-149104910D01*
X102227271Y-148755090D01*
X102197416Y-148605000D01*
X102227271Y-148454910D01*
X102227271Y-148105090D01*
X102197416Y-147955000D01*
X102227271Y-147804910D01*
X102227271Y-147455090D01*
X102197416Y-147305000D01*
X102227271Y-147154910D01*
X102227271Y-146805090D01*
X102197416Y-146655000D01*
X102227271Y-146504910D01*
X102227271Y-146155090D01*
X102197416Y-146005000D01*
X102227271Y-145854910D01*
X102227271Y-145505090D01*
X102197416Y-145355000D01*
X102227271Y-145204910D01*
X102227271Y-144855090D01*
X102196304Y-144699410D01*
X102101089Y-144556911D01*
X101974885Y-144472584D01*
X101997939Y-144401842D01*
X102000087Y-144155772D01*
X101931098Y-143930821D01*
X101799298Y-143736517D01*
X101737176Y-143686659D01*
X101916864Y-143547529D01*
X102052035Y-143355555D01*
X102124939Y-143131842D01*
X102126628Y-142938377D01*
X102304189Y-142760816D01*
X102346527Y-142732527D01*
X102458583Y-142564822D01*
X102485579Y-142429105D01*
X102497933Y-142367000D01*
X102488000Y-142317066D01*
X102488000Y-141908934D01*
X102497933Y-141859000D01*
X102483998Y-141788945D01*
X102458584Y-141661179D01*
X102346527Y-141493473D01*
X102304189Y-141465184D01*
X102107000Y-141267995D01*
X102107000Y-137867865D01*
X102116932Y-137817932D01*
X102077583Y-137620110D01*
X102024312Y-137540384D01*
X101965527Y-137452405D01*
X101923192Y-137424118D01*
X100202000Y-135702927D01*
X100202000Y-131147005D01*
X100402318Y-130946687D01*
X100626650Y-131000750D01*
G37*
X100626650Y-131000750D02*
X100767077Y-130992038D01*
X100767078Y-134967672D01*
X100757145Y-135017610D01*
X100796494Y-135215431D01*
X100840823Y-135281774D01*
X100908551Y-135383137D01*
X100950886Y-135411424D01*
X103064040Y-137524578D01*
X103064041Y-138618876D01*
X102972586Y-138690973D01*
X102830900Y-138895976D01*
X102786215Y-139088756D01*
X102760451Y-139105971D01*
X102665236Y-139248470D01*
X102634269Y-139404150D01*
X102634269Y-140828970D01*
X102665236Y-140984650D01*
X102760451Y-141127149D01*
X102902950Y-141222364D01*
X103058630Y-141253331D01*
X103330164Y-141253331D01*
X103181809Y-141401686D01*
X103139474Y-141429973D01*
X103104294Y-141482624D01*
X103027417Y-141597679D01*
X102988068Y-141795500D01*
X102998001Y-141845438D01*
X102998000Y-142888512D01*
X102929471Y-142957041D01*
X102887137Y-142985328D01*
X102851958Y-143037978D01*
X102775081Y-143153033D01*
X102735732Y-143350854D01*
X102745665Y-143400792D01*
X102745664Y-150319731D01*
X102735732Y-150369664D01*
X102769190Y-150537871D01*
X102775082Y-150567487D01*
X102887137Y-150735191D01*
X102929475Y-150763480D01*
X102984184Y-150818189D01*
X103012473Y-150860527D01*
X103180178Y-150972583D01*
X103315895Y-150999579D01*
X103378000Y-151011932D01*
X103427933Y-151002000D01*
X104522001Y-151002000D01*
X104522001Y-151127000D01*
X103849000Y-151127000D01*
X103849000Y-151123163D01*
X103488412Y-151123163D01*
X103187489Y-151203795D01*
X103011835Y-151351185D01*
X102900044Y-151544814D01*
X102839002Y-151891000D01*
X104395000Y-151891000D01*
X104395000Y-152655000D01*
X102824957Y-152655000D01*
X102943795Y-153098512D01*
X103073855Y-153253512D01*
X102985474Y-153218430D01*
X102751427Y-153199804D01*
X102522250Y-153250822D01*
X102453424Y-153290000D01*
X101982000Y-153290000D01*
X101982000Y-154096043D01*
X102031381Y-154082812D01*
X102044985Y-154179000D01*
X101039809Y-154179000D01*
X100760800Y-154458010D01*
X100760800Y-153956862D01*
X100871814Y-154020956D01*
X101218000Y-154081998D01*
X101218000Y-152526000D01*
X101982000Y-152526000D01*
X102788043Y-152526000D01*
X102669205Y-152082489D01*
X102521815Y-151906835D01*
X102328186Y-151795044D01*
X101982000Y-151734002D01*
X101982000Y-152526000D01*
X101218000Y-152526000D01*
X101218000Y-151719957D01*
X100774489Y-151838795D01*
X100760800Y-151850281D01*
X100760800Y-151479271D01*
X101802910Y-151479271D01*
X101958590Y-151448304D01*
X102101089Y-151353089D01*
X102196304Y-151210590D01*
X102227271Y-151054910D01*
X102227271Y-150705090D01*
X102197416Y-150555000D01*
X102227271Y-150404910D01*
X102227271Y-150055090D01*
X102197416Y-149905000D01*
X102227271Y-149754910D01*
X102227271Y-149405090D01*
X102197416Y-149255000D01*
X102227271Y-149104910D01*
X102227271Y-148755090D01*
X102197416Y-148605000D01*
X102227271Y-148454910D01*
X102227271Y-148105090D01*
X102197416Y-147955000D01*
X102227271Y-147804910D01*
X102227271Y-147455090D01*
X102197416Y-147305000D01*
X102227271Y-147154910D01*
X102227271Y-146805090D01*
X102197416Y-146655000D01*
X102227271Y-146504910D01*
X102227271Y-146155090D01*
X102197416Y-146005000D01*
X102227271Y-145854910D01*
X102227271Y-145505090D01*
X102197416Y-145355000D01*
X102227271Y-145204910D01*
X102227271Y-144855090D01*
X102196304Y-144699410D01*
X102101089Y-144556911D01*
X101974885Y-144472584D01*
X101997939Y-144401842D01*
X102000087Y-144155772D01*
X101931098Y-143930821D01*
X101799298Y-143736517D01*
X101737176Y-143686659D01*
X101916864Y-143547529D01*
X102052035Y-143355555D01*
X102124939Y-143131842D01*
X102126628Y-142938377D01*
X102304189Y-142760816D01*
X102346527Y-142732527D01*
X102458583Y-142564822D01*
X102485579Y-142429105D01*
X102497933Y-142367000D01*
X102488000Y-142317066D01*
X102488000Y-141908934D01*
X102497933Y-141859000D01*
X102483998Y-141788945D01*
X102458584Y-141661179D01*
X102346527Y-141493473D01*
X102304189Y-141465184D01*
X102107000Y-141267995D01*
X102107000Y-137867865D01*
X102116932Y-137817932D01*
X102077583Y-137620110D01*
X102024312Y-137540384D01*
X101965527Y-137452405D01*
X101923192Y-137424118D01*
X100202000Y-135702927D01*
X100202000Y-131147005D01*
X100402318Y-130946687D01*
X100626650Y-131000750D01*
G36*
X103493976Y-153422837D02*
G01*
X103849000Y-153422837D01*
X103849000Y-153419000D01*
X104522000Y-153419000D01*
X104522000Y-153667000D01*
X103629163Y-153667000D01*
X103629163Y-153834588D01*
X103653389Y-153925000D01*
X103587125Y-153925000D01*
X103587594Y-153871265D01*
X103518605Y-153646314D01*
X103386805Y-153452010D01*
X103310047Y-153390405D01*
X103493976Y-153422837D01*
G37*
X103493976Y-153422837D02*
X103849000Y-153422837D01*
X103849000Y-153419000D01*
X104522000Y-153419000D01*
X104522000Y-153667000D01*
X103629163Y-153667000D01*
X103629163Y-153834588D01*
X103653389Y-153925000D01*
X103587125Y-153925000D01*
X103587594Y-153871265D01*
X103518605Y-153646314D01*
X103386805Y-153452010D01*
X103310047Y-153390405D01*
X103493976Y-153422837D01*
G36*
X107619229Y-153170410D02*
G01*
X107631931Y-153234264D01*
X107610346Y-153239626D01*
X107420443Y-153239626D01*
X107526512Y-153211205D01*
X107619229Y-153133406D01*
X107619229Y-153170410D01*
G37*
X107619229Y-153170410D02*
X107631931Y-153234264D01*
X107610346Y-153239626D01*
X107420443Y-153239626D01*
X107526512Y-153211205D01*
X107619229Y-153133406D01*
X107619229Y-153170410D01*
G36*
X108541987Y-151980008D02*
G01*
X108300766Y-152221229D01*
X108043590Y-152221229D01*
X107887910Y-152252196D01*
X107850837Y-152276967D01*
X107850837Y-152133412D01*
X107799495Y-151941800D01*
X108516457Y-151941800D01*
X108541987Y-151980008D01*
G37*
X108541987Y-151980008D02*
X108300766Y-152221229D01*
X108043590Y-152221229D01*
X107887910Y-152252196D01*
X107850837Y-152276967D01*
X107850837Y-152133412D01*
X107799495Y-151941800D01*
X108516457Y-151941800D01*
X108541987Y-151980008D01*
G36*
X116004361Y-148621264D02*
G01*
X116260165Y-148648150D01*
X116282201Y-148644423D01*
X116282200Y-150627129D01*
X116237024Y-150619163D01*
X116075000Y-150619163D01*
X116075000Y-151635000D01*
X115840990Y-151635000D01*
X115843087Y-151394772D01*
X115827000Y-151342318D01*
X115827000Y-150619163D01*
X115659412Y-150619163D01*
X115358489Y-150699795D01*
X115286654Y-150760072D01*
X115240967Y-150741937D01*
X115006920Y-150723311D01*
X114777743Y-150774329D01*
X114573697Y-150890478D01*
X114412826Y-151061490D01*
X114309349Y-151272245D01*
X114305000Y-151299549D01*
X114248439Y-151356110D01*
X114213756Y-151378504D01*
X114167985Y-151436563D01*
X114156588Y-151447960D01*
X114133199Y-151480689D01*
X114069127Y-151561964D01*
X114065766Y-151575052D01*
X114057536Y-151586569D01*
X114027477Y-151687082D01*
X114023783Y-151692609D01*
X113993205Y-151578489D01*
X113845815Y-151402835D01*
X113721566Y-151331101D01*
X113911512Y-151280205D01*
X114087165Y-151132815D01*
X114198956Y-150939186D01*
X114258587Y-150601000D01*
X114397067Y-150601000D01*
X114447000Y-150610932D01*
X114509105Y-150598579D01*
X114644822Y-150571583D01*
X114812527Y-150459527D01*
X114840816Y-150417189D01*
X115816992Y-149441014D01*
X115859327Y-149412727D01*
X115971383Y-149245022D01*
X115994002Y-149131310D01*
X116010732Y-149047200D01*
X116000800Y-148997267D01*
X116000800Y-148619854D01*
X116004361Y-148621264D01*
G37*
X116004361Y-148621264D02*
X116260165Y-148648150D01*
X116282201Y-148644423D01*
X116282200Y-150627129D01*
X116237024Y-150619163D01*
X116075000Y-150619163D01*
X116075000Y-151635000D01*
X115840990Y-151635000D01*
X115843087Y-151394772D01*
X115827000Y-151342318D01*
X115827000Y-150619163D01*
X115659412Y-150619163D01*
X115358489Y-150699795D01*
X115286654Y-150760072D01*
X115240967Y-150741937D01*
X115006920Y-150723311D01*
X114777743Y-150774329D01*
X114573697Y-150890478D01*
X114412826Y-151061490D01*
X114309349Y-151272245D01*
X114305000Y-151299549D01*
X114248439Y-151356110D01*
X114213756Y-151378504D01*
X114167985Y-151436563D01*
X114156588Y-151447960D01*
X114133199Y-151480689D01*
X114069127Y-151561964D01*
X114065766Y-151575052D01*
X114057536Y-151586569D01*
X114027477Y-151687082D01*
X114023783Y-151692609D01*
X113993205Y-151578489D01*
X113845815Y-151402835D01*
X113721566Y-151331101D01*
X113911512Y-151280205D01*
X114087165Y-151132815D01*
X114198956Y-150939186D01*
X114258587Y-150601000D01*
X114397067Y-150601000D01*
X114447000Y-150610932D01*
X114509105Y-150598579D01*
X114644822Y-150571583D01*
X114812527Y-150459527D01*
X114840816Y-150417189D01*
X115816992Y-149441014D01*
X115859327Y-149412727D01*
X115971383Y-149245022D01*
X115994002Y-149131310D01*
X116010732Y-149047200D01*
X116000800Y-148997267D01*
X116000800Y-148619854D01*
X116004361Y-148621264D01*
G36*
X95746322Y-146936397D02*
G01*
X95450544Y-146640619D01*
X95420838Y-146596162D01*
X95244732Y-146478491D01*
X95199343Y-146469463D01*
X95217499Y-146366500D01*
X93880000Y-146366500D01*
X93880000Y-146293500D01*
X95231544Y-146293500D01*
X95180768Y-146104002D01*
X95186665Y-146100367D01*
X95226923Y-146047424D01*
X95730891Y-145543456D01*
X95740735Y-145538644D01*
X95746322Y-145532621D01*
X95746322Y-146936397D01*
G37*
X95746322Y-146936397D02*
X95450544Y-146640619D01*
X95420838Y-146596162D01*
X95244732Y-146478491D01*
X95199343Y-146469463D01*
X95217499Y-146366500D01*
X93880000Y-146366500D01*
X93880000Y-146293500D01*
X95231544Y-146293500D01*
X95180768Y-146104002D01*
X95186665Y-146100367D01*
X95226923Y-146047424D01*
X95730891Y-145543456D01*
X95740735Y-145538644D01*
X95746322Y-145532621D01*
X95746322Y-146936397D01*
G36*
X93469000Y-144084043D02*
G01*
X93912512Y-143965205D01*
X94068047Y-143834695D01*
X94098590Y-143840771D01*
X94258924Y-143840771D01*
X94438200Y-144020047D01*
X94438201Y-144430729D01*
X93373399Y-144430729D01*
X93373399Y-143005000D01*
X93469000Y-143005000D01*
X93469000Y-144084043D01*
G37*
X93469000Y-144084043D02*
X93912512Y-143965205D01*
X94068047Y-143834695D01*
X94098590Y-143840771D01*
X94258924Y-143840771D01*
X94438200Y-144020047D01*
X94438201Y-144430729D01*
X93373399Y-144430729D01*
X93373399Y-143005000D01*
X93469000Y-143005000D01*
X93469000Y-144084043D01*
G36*
X106014001Y-142302500D02*
G01*
X106554000Y-142302500D01*
X106554000Y-142431500D01*
X105999956Y-142431500D01*
X106076249Y-142716226D01*
X106075044Y-142718313D01*
X106038163Y-142927476D01*
X106038163Y-143088000D01*
X106173000Y-143088000D01*
X106173000Y-144341394D01*
X106114394Y-144400000D01*
X105409000Y-144400000D01*
X105409000Y-143217294D01*
X105424264Y-143194450D01*
X105455231Y-143038770D01*
X105455231Y-142239000D01*
X106025198Y-142239000D01*
X106014001Y-142302500D01*
G37*
X106014001Y-142302500D02*
X106554000Y-142302500D01*
X106554000Y-142431500D01*
X105999956Y-142431500D01*
X106076249Y-142716226D01*
X106075044Y-142718313D01*
X106038163Y-142927476D01*
X106038163Y-143088000D01*
X106173000Y-143088000D01*
X106173000Y-144341394D01*
X106114394Y-144400000D01*
X105409000Y-144400000D01*
X105409000Y-143217294D01*
X105424264Y-143194450D01*
X105455231Y-143038770D01*
X105455231Y-142239000D01*
X106025198Y-142239000D01*
X106014001Y-142302500D01*
G36*
X94136123Y-138594158D02*
G01*
X94164412Y-138636496D01*
X94332117Y-138748552D01*
X94529939Y-138787901D01*
X94579872Y-138777969D01*
X94684571Y-138777969D01*
X94779861Y-138882874D01*
X94879697Y-138942035D01*
X94775835Y-139029185D01*
X94733874Y-139101865D01*
X94637090Y-139037196D01*
X94481410Y-139006229D01*
X93231776Y-139006229D01*
X93515789Y-138722216D01*
X93558127Y-138693927D01*
X93670183Y-138526222D01*
X93688742Y-138432923D01*
X93709533Y-138328400D01*
X93699600Y-138278466D01*
X93699600Y-138157635D01*
X94136123Y-138594158D01*
G37*
X94136123Y-138594158D02*
X94164412Y-138636496D01*
X94332117Y-138748552D01*
X94529939Y-138787901D01*
X94579872Y-138777969D01*
X94684571Y-138777969D01*
X94779861Y-138882874D01*
X94879697Y-138942035D01*
X94775835Y-139029185D01*
X94733874Y-139101865D01*
X94637090Y-139037196D01*
X94481410Y-139006229D01*
X93231776Y-139006229D01*
X93515789Y-138722216D01*
X93558127Y-138693927D01*
X93670183Y-138526222D01*
X93688742Y-138432923D01*
X93709533Y-138328400D01*
X93699600Y-138278466D01*
X93699600Y-138157635D01*
X94136123Y-138594158D01*
G36*
X96073104Y-138312481D02*
G01*
X96136000Y-138381724D01*
X96136000Y-138808000D01*
X95888000Y-138808000D01*
X95888000Y-138762221D01*
X95984954Y-138624525D01*
X96057858Y-138400811D01*
X96058893Y-138282213D01*
X96073104Y-138312481D01*
G37*
X96073104Y-138312481D02*
X96136000Y-138381724D01*
X96136000Y-138808000D01*
X95888000Y-138808000D01*
X95888000Y-138762221D01*
X95984954Y-138624525D01*
X96057858Y-138400811D01*
X96058893Y-138282213D01*
X96073104Y-138312481D01*
G36*
X95942023Y-137857561D02*
G01*
X95859217Y-137735486D01*
X95852111Y-137729783D01*
X95915550Y-137717164D01*
X95970201Y-137680647D01*
X95942023Y-137857561D01*
G37*
X95942023Y-137857561D02*
X95859217Y-137735486D01*
X95852111Y-137729783D01*
X95915550Y-137717164D01*
X95970201Y-137680647D01*
X95942023Y-137857561D01*
G36*
X94436871Y-135600771D02*
G01*
X94341656Y-135743270D01*
X94310689Y-135898950D01*
X94310689Y-137323770D01*
X94313406Y-137337431D01*
X94004400Y-137028425D01*
X94004400Y-135538331D01*
X94530319Y-135538331D01*
X94436871Y-135600771D01*
G37*
X94436871Y-135600771D02*
X94341656Y-135743270D01*
X94310689Y-135898950D01*
X94310689Y-137323770D01*
X94313406Y-137337431D01*
X94004400Y-137028425D01*
X94004400Y-135538331D01*
X94530319Y-135538331D01*
X94436871Y-135600771D01*
G36*
X95265729Y-135113970D02*
G01*
X95296696Y-135269650D01*
X95391911Y-135412149D01*
X95485359Y-135474589D01*
X95017181Y-135474589D01*
X95110629Y-135412149D01*
X95205844Y-135269650D01*
X95236811Y-135113970D01*
X95236811Y-134546746D01*
X95238465Y-134544431D01*
X95265729Y-134453264D01*
X95265729Y-135113970D01*
G37*
X95265729Y-135113970D02*
X95296696Y-135269650D01*
X95391911Y-135412149D01*
X95485359Y-135474589D01*
X95017181Y-135474589D01*
X95110629Y-135412149D01*
X95205844Y-135269650D01*
X95236811Y-135113970D01*
X95236811Y-134546746D01*
X95238465Y-134544431D01*
X95265729Y-134453264D01*
X95265729Y-135113970D01*
G36*
X95517189Y-131740850D02*
G01*
X95548156Y-131896530D01*
X95643371Y-132039029D01*
X95785870Y-132134244D01*
X95808229Y-132138691D01*
X95808229Y-132469410D01*
X95839196Y-132625090D01*
X95899272Y-132715000D01*
X95839196Y-132804910D01*
X95808229Y-132960590D01*
X95808229Y-133264789D01*
X95690090Y-133264789D01*
X95534410Y-133295756D01*
X95391911Y-133390971D01*
X95325907Y-133489752D01*
X95326771Y-133485410D01*
X95326771Y-132960590D01*
X95295804Y-132804910D01*
X95235728Y-132715000D01*
X95295804Y-132625090D01*
X95326771Y-132469410D01*
X95326771Y-132062628D01*
X95362089Y-132039029D01*
X95457304Y-131896530D01*
X95488271Y-131740850D01*
X95488271Y-130725577D01*
X95517189Y-130696659D01*
X95517189Y-131740850D01*
G37*
X95517189Y-131740850D02*
X95548156Y-131896530D01*
X95643371Y-132039029D01*
X95785870Y-132134244D01*
X95808229Y-132138691D01*
X95808229Y-132469410D01*
X95839196Y-132625090D01*
X95899272Y-132715000D01*
X95839196Y-132804910D01*
X95808229Y-132960590D01*
X95808229Y-133264789D01*
X95690090Y-133264789D01*
X95534410Y-133295756D01*
X95391911Y-133390971D01*
X95325907Y-133489752D01*
X95326771Y-133485410D01*
X95326771Y-132960590D01*
X95295804Y-132804910D01*
X95235728Y-132715000D01*
X95295804Y-132625090D01*
X95326771Y-132469410D01*
X95326771Y-132062628D01*
X95362089Y-132039029D01*
X95457304Y-131896530D01*
X95488271Y-131740850D01*
X95488271Y-130725577D01*
X95517189Y-130696659D01*
X95517189Y-131740850D01*
G36*
X96241611Y-122098678D02*
G01*
X96231679Y-122148611D01*
X96265713Y-122319713D01*
X96271030Y-122346434D01*
X96383084Y-122514138D01*
X96425422Y-122542427D01*
X97275224Y-123392229D01*
X96994590Y-123392229D01*
X96984681Y-123394200D01*
X96690319Y-123394200D01*
X96680410Y-123392229D01*
X96105590Y-123392229D01*
X96011000Y-123411044D01*
X96011000Y-123090667D01*
X96018329Y-123006889D01*
X95996563Y-122925660D01*
X95991191Y-122895195D01*
X95991191Y-122147390D01*
X95960224Y-121991710D01*
X95865009Y-121849211D01*
X95722510Y-121753996D01*
X95675171Y-121744580D01*
X95691079Y-121664605D01*
X95703432Y-121602500D01*
X95693500Y-121552567D01*
X95693500Y-120276000D01*
X96241612Y-120276000D01*
X96241611Y-122098678D01*
G37*
X96241611Y-122098678D02*
X96231679Y-122148611D01*
X96265713Y-122319713D01*
X96271030Y-122346434D01*
X96383084Y-122514138D01*
X96425422Y-122542427D01*
X97275224Y-123392229D01*
X96994590Y-123392229D01*
X96984681Y-123394200D01*
X96690319Y-123394200D01*
X96680410Y-123392229D01*
X96105590Y-123392229D01*
X96011000Y-123411044D01*
X96011000Y-123090667D01*
X96018329Y-123006889D01*
X95996563Y-122925660D01*
X95991191Y-122895195D01*
X95991191Y-122147390D01*
X95960224Y-121991710D01*
X95865009Y-121849211D01*
X95722510Y-121753996D01*
X95675171Y-121744580D01*
X95691079Y-121664605D01*
X95703432Y-121602500D01*
X95693500Y-121552567D01*
X95693500Y-120276000D01*
X96241612Y-120276000D01*
X96241611Y-122098678D01*
G36*
X100788200Y-119971681D02*
G01*
X100786229Y-119981590D01*
X100786229Y-120262224D01*
X100456100Y-119932095D01*
X100456100Y-119689771D01*
X100788200Y-119689771D01*
X100788200Y-119971681D01*
G37*
X100788200Y-119971681D02*
X100786229Y-119981590D01*
X100786229Y-120262224D01*
X100456100Y-119932095D01*
X100456100Y-119689771D01*
X100788200Y-119689771D01*
X100788200Y-119971681D01*
G36*
X101728000Y-117222000D02*
G01*
X100615255Y-117222000D01*
X100592630Y-117202228D01*
X100376687Y-117102220D01*
X100141356Y-117066840D01*
X99905553Y-117098931D01*
X99859208Y-117119614D01*
X99859208Y-116884797D01*
X100540005Y-116204000D01*
X101728000Y-116204000D01*
X101728000Y-117222000D01*
G37*
X101728000Y-117222000D02*
X100615255Y-117222000D01*
X100592630Y-117202228D01*
X100376687Y-117102220D01*
X100141356Y-117066840D01*
X99905553Y-117098931D01*
X99859208Y-117119614D01*
X99859208Y-116884797D01*
X100540005Y-116204000D01*
X101728000Y-116204000D01*
X101728000Y-117222000D01*
G36*
X115150330Y-95773446D02*
G01*
X115007195Y-95995549D01*
X114901411Y-96237679D01*
X114835700Y-96493607D01*
X114811752Y-96756749D01*
X114830184Y-97020335D01*
X114890521Y-97277583D01*
X114991211Y-97521876D01*
X115129663Y-97746927D01*
X115302317Y-97946947D01*
X115504728Y-98116791D01*
X115731690Y-98252088D01*
X115977365Y-98349358D01*
X116235431Y-98406097D01*
X116499248Y-98420846D01*
X116762030Y-98393227D01*
X117017016Y-98323949D01*
X117257646Y-98214794D01*
X117477727Y-98068572D01*
X117671601Y-97889044D01*
X117719201Y-97828119D01*
X117719201Y-108452387D01*
X117603688Y-108282094D01*
X117420581Y-108135136D01*
X117314501Y-108093028D01*
X117314501Y-105556493D01*
X117321830Y-105472719D01*
X117300062Y-105391480D01*
X117285456Y-105308645D01*
X117271293Y-105284114D01*
X117263962Y-105256754D01*
X117215725Y-105187865D01*
X117173664Y-105115015D01*
X117109231Y-105060949D01*
X117068268Y-105019986D01*
X117194091Y-104979103D01*
X117360656Y-104873398D01*
X117495700Y-104729591D01*
X117590739Y-104556717D01*
X117639800Y-104365638D01*
X117639800Y-104168362D01*
X117590739Y-103977283D01*
X117495700Y-103804409D01*
X117360656Y-103660602D01*
X117194091Y-103554897D01*
X117006470Y-103493934D01*
X116809583Y-103481547D01*
X116644343Y-103513069D01*
X116621975Y-103474327D01*
X116557546Y-103420265D01*
X111753156Y-98615876D01*
X111753156Y-98163286D01*
X111825191Y-98060979D01*
X111898095Y-97837266D01*
X111900243Y-97591196D01*
X111831254Y-97366245D01*
X111699454Y-97171941D01*
X111516347Y-97024983D01*
X111298123Y-96938361D01*
X111064076Y-96919735D01*
X110834899Y-96970753D01*
X110630853Y-97086902D01*
X110469982Y-97257914D01*
X110366505Y-97468669D01*
X110329574Y-97700533D01*
X110362453Y-97933007D01*
X110462235Y-98145536D01*
X110485156Y-98170770D01*
X110485156Y-98259313D01*
X110485157Y-98259318D01*
X110485156Y-98850816D01*
X110477827Y-98934594D01*
X110499593Y-99015828D01*
X110514201Y-99098671D01*
X110528364Y-99123202D01*
X110535694Y-99150558D01*
X110583941Y-99219463D01*
X110625992Y-99292299D01*
X110690426Y-99346366D01*
X111151315Y-99807255D01*
X111006853Y-99749912D01*
X110772806Y-99731286D01*
X110543629Y-99782304D01*
X110339583Y-99898453D01*
X110261236Y-99981738D01*
X110160967Y-99941937D01*
X109926920Y-99923311D01*
X109697743Y-99974329D01*
X109493697Y-100090478D01*
X109388105Y-100202727D01*
X109300107Y-100167797D01*
X109066060Y-100149171D01*
X108836883Y-100200189D01*
X108632837Y-100316338D01*
X108471966Y-100487350D01*
X108368489Y-100698105D01*
X108331558Y-100929969D01*
X108364437Y-101162443D01*
X108464219Y-101374972D01*
X108622082Y-101548765D01*
X108824069Y-101668459D01*
X109052321Y-101723467D01*
X109182656Y-101715381D01*
X109192860Y-101725585D01*
X109221149Y-101767923D01*
X109388854Y-101879979D01*
X109524571Y-101906975D01*
X109586675Y-101919329D01*
X109636609Y-101909396D01*
X110091726Y-101909396D01*
X110081418Y-101974113D01*
X110114297Y-102206587D01*
X110214079Y-102419116D01*
X110371942Y-102592909D01*
X110573929Y-102712603D01*
X110802181Y-102767611D01*
X111036518Y-102753073D01*
X111256220Y-102670274D01*
X111441864Y-102526533D01*
X111468992Y-102488004D01*
X112084866Y-102488004D01*
X112523000Y-102926139D01*
X112523001Y-103455062D01*
X112513068Y-103505000D01*
X112552417Y-103702821D01*
X112608704Y-103787061D01*
X112664474Y-103870527D01*
X112706809Y-103898814D01*
X115126500Y-106318506D01*
X115126500Y-107421583D01*
X115111088Y-107415465D01*
X114877041Y-107396839D01*
X114647864Y-107447857D01*
X114443818Y-107564006D01*
X114282947Y-107735018D01*
X114215207Y-107872987D01*
X112318031Y-105975811D01*
X112289742Y-105933473D01*
X112122037Y-105821417D01*
X111986320Y-105794421D01*
X111924215Y-105782068D01*
X111874282Y-105792000D01*
X111597619Y-105792000D01*
X111578298Y-105763516D01*
X111395191Y-105616559D01*
X111176967Y-105529937D01*
X110942920Y-105511311D01*
X110713743Y-105562329D01*
X110509697Y-105678478D01*
X110348826Y-105849490D01*
X110245349Y-106060245D01*
X110208418Y-106292109D01*
X110208877Y-106295355D01*
X110078743Y-106324325D01*
X109874697Y-106440474D01*
X109713826Y-106611486D01*
X109610349Y-106822241D01*
X109573418Y-107054105D01*
X109606297Y-107286579D01*
X109706079Y-107499108D01*
X109863942Y-107672901D01*
X110065929Y-107792595D01*
X110294181Y-107847603D01*
X110528518Y-107833065D01*
X110748220Y-107750266D01*
X110933864Y-107606525D01*
X110960992Y-107567996D01*
X112045139Y-107567996D01*
X114533966Y-110056823D01*
X114533966Y-110140280D01*
X114358658Y-110126329D01*
X114129481Y-110177347D01*
X113925435Y-110293496D01*
X113806122Y-110420329D01*
X112946806Y-109561013D01*
X112942569Y-109453159D01*
X112860312Y-109240539D01*
X112713619Y-109066027D01*
X112518307Y-108948439D01*
X112454411Y-108934683D01*
X112471771Y-108847410D01*
X112471771Y-108322590D01*
X112440804Y-108166910D01*
X112345589Y-108024411D01*
X112203090Y-107929196D01*
X112047410Y-107898229D01*
X111823902Y-107898229D01*
X111792703Y-107891512D01*
X111735951Y-107898229D01*
X111472590Y-107898229D01*
X111359946Y-107920635D01*
X111230140Y-107869110D01*
X110996093Y-107850484D01*
X110766916Y-107901502D01*
X110562870Y-108017651D01*
X110401999Y-108188663D01*
X110298522Y-108399418D01*
X110261591Y-108631282D01*
X110294470Y-108863756D01*
X110394252Y-109076285D01*
X110403434Y-109086393D01*
X110367561Y-109124528D01*
X110201024Y-109095163D01*
X109914000Y-109095163D01*
X109914000Y-109863000D01*
X110261715Y-109863000D01*
X110341087Y-110032058D01*
X110498950Y-110205851D01*
X110700937Y-110325545D01*
X110929189Y-110380553D01*
X111163526Y-110366015D01*
X111383227Y-110283217D01*
X111389002Y-110278746D01*
X111427218Y-110278746D01*
X111472590Y-110287771D01*
X111666255Y-110287771D01*
X111672985Y-110289784D01*
X111724232Y-110287771D01*
X112047410Y-110287771D01*
X112057319Y-110285800D01*
X112182623Y-110285800D01*
X112222977Y-110294488D01*
X112243806Y-110292023D01*
X113355136Y-111403353D01*
X113203554Y-111564490D01*
X113100077Y-111775245D01*
X113063146Y-112007109D01*
X113096025Y-112239583D01*
X113167928Y-112392732D01*
X113167928Y-112726200D01*
X107187000Y-112726200D01*
X107187000Y-112147805D01*
X107358811Y-111975994D01*
X107401149Y-111947705D01*
X107513205Y-111780000D01*
X107540201Y-111644283D01*
X107552555Y-111582179D01*
X107542622Y-111532245D01*
X107542622Y-110811000D01*
X108048163Y-110811000D01*
X108048163Y-111878000D01*
X110831837Y-111878000D01*
X110831837Y-110811000D01*
X108048163Y-110811000D01*
X107542622Y-110811000D01*
X107542622Y-110141133D01*
X107649103Y-110034652D01*
X107831791Y-110013030D01*
X108084193Y-109863759D01*
X108084952Y-109863000D01*
X108966000Y-109863000D01*
X108966000Y-109095163D01*
X108676771Y-109095163D01*
X108676771Y-109083244D01*
X108678784Y-109076512D01*
X108676771Y-109025269D01*
X108676771Y-108074590D01*
X108645804Y-107918910D01*
X108550589Y-107776411D01*
X108408090Y-107681196D01*
X108252410Y-107650229D01*
X107727590Y-107650229D01*
X107571910Y-107681196D01*
X107440000Y-107769336D01*
X107308090Y-107681196D01*
X107152410Y-107650229D01*
X106627590Y-107650229D01*
X106471910Y-107681196D01*
X106340000Y-107769336D01*
X106208090Y-107681196D01*
X106052410Y-107650229D01*
X105527590Y-107650229D01*
X105415000Y-107672625D01*
X105302410Y-107650229D01*
X104777590Y-107650229D01*
X104690000Y-107667652D01*
X104602410Y-107650229D01*
X104077590Y-107650229D01*
X103965000Y-107672625D01*
X103852410Y-107650229D01*
X103327590Y-107650229D01*
X103219222Y-107671785D01*
X103153815Y-107593835D01*
X102960186Y-107482044D01*
X102614000Y-107421002D01*
X102614000Y-109767043D01*
X102863043Y-109700312D01*
X102842412Y-109829841D01*
X102875291Y-110062315D01*
X102975073Y-110274844D01*
X103132936Y-110448637D01*
X103334923Y-110568331D01*
X103563175Y-110623339D01*
X103797512Y-110608801D01*
X104017214Y-110526002D01*
X104202858Y-110382261D01*
X104338029Y-110190287D01*
X104355201Y-110137593D01*
X104355200Y-114513348D01*
X103354320Y-115514229D01*
X102603590Y-115514229D01*
X102447910Y-115545196D01*
X102379483Y-115590917D01*
X102267815Y-115457835D01*
X102074186Y-115346044D01*
X101865024Y-115309163D01*
X101434843Y-115309163D01*
X101466000Y-115278006D01*
X101508338Y-115249717D01*
X101620394Y-115082012D01*
X101647390Y-114946295D01*
X101659744Y-114884191D01*
X101649811Y-114834257D01*
X101649811Y-111987744D01*
X101659743Y-111937811D01*
X101620395Y-111739991D01*
X101600272Y-111709874D01*
X101508337Y-111572283D01*
X101466005Y-111543999D01*
X101234146Y-111312139D01*
X101345364Y-111226025D01*
X101480535Y-111034051D01*
X101553439Y-110810338D01*
X101555587Y-110564268D01*
X101486598Y-110339317D01*
X101459300Y-110299073D01*
X101459300Y-109523771D01*
X101652410Y-109523771D01*
X101760778Y-109502215D01*
X101826185Y-109580165D01*
X102019814Y-109691956D01*
X102366000Y-109752998D01*
X102366000Y-107406957D01*
X102096248Y-107479236D01*
X102058092Y-107354821D01*
X101926292Y-107160517D01*
X101743185Y-107013559D01*
X101524961Y-106926937D01*
X101290914Y-106908311D01*
X101061737Y-106959329D01*
X100857691Y-107075478D01*
X100696820Y-107246490D01*
X100593343Y-107457245D01*
X100562292Y-107652195D01*
X100552410Y-107650229D01*
X100290921Y-107650229D01*
X100290921Y-106387012D01*
X100300853Y-106337079D01*
X100261504Y-106139256D01*
X100240339Y-106107581D01*
X100149448Y-105971552D01*
X100107110Y-105943263D01*
X99948000Y-105784153D01*
X99948000Y-103524506D01*
X100081694Y-103390812D01*
X100124027Y-103362527D01*
X100236083Y-103194822D01*
X100263079Y-103059105D01*
X100275432Y-102997000D01*
X100265500Y-102947067D01*
X100265500Y-102538933D01*
X100275432Y-102489000D01*
X100236083Y-102291178D01*
X100196302Y-102231641D01*
X100124027Y-102123473D01*
X100081692Y-102095186D01*
X98932000Y-100945495D01*
X98932000Y-99671802D01*
X98969557Y-99642722D01*
X99104728Y-99450748D01*
X99177632Y-99227035D01*
X99179780Y-98980965D01*
X99110791Y-98756014D01*
X98978991Y-98561710D01*
X98795884Y-98414752D01*
X98577660Y-98328130D01*
X98343613Y-98309504D01*
X98114436Y-98360522D01*
X97949694Y-98454298D01*
X97933199Y-98441059D01*
X97777951Y-98379435D01*
X97821264Y-98270039D01*
X97848150Y-98014235D01*
X97805255Y-97760624D01*
X97695738Y-97527891D01*
X97527670Y-97333181D01*
X97313432Y-97190842D01*
X97068808Y-97111359D01*
X96811821Y-97100588D01*
X96556798Y-97160404D01*
X96271952Y-97345385D01*
X95488414Y-98128924D01*
X95407338Y-98203476D01*
X95362897Y-98275152D01*
X95311912Y-98342322D01*
X95295414Y-98383992D01*
X95269306Y-98426101D01*
X95258368Y-98477558D01*
X95217225Y-98581473D01*
X95190339Y-98837276D01*
X95198690Y-98886652D01*
X95198689Y-104260647D01*
X95115179Y-104344158D01*
X94001800Y-104344158D01*
X94001800Y-104168362D01*
X93952739Y-103977283D01*
X93857700Y-103804409D01*
X93722656Y-103660602D01*
X93556091Y-103554897D01*
X93368470Y-103493934D01*
X93171583Y-103481547D01*
X92977802Y-103518514D01*
X92799301Y-103602509D01*
X92647298Y-103728258D01*
X92531342Y-103887858D01*
X92458720Y-104071280D01*
X92433995Y-104267000D01*
X92443742Y-104344158D01*
X92349891Y-104344158D01*
X92239862Y-104339546D01*
X92201800Y-104348473D01*
X92201800Y-104168362D01*
X92152739Y-103977283D01*
X92057700Y-103804409D01*
X91922656Y-103660602D01*
X91756091Y-103554897D01*
X91568470Y-103493934D01*
X91371583Y-103481547D01*
X91177802Y-103518514D01*
X90999301Y-103602509D01*
X90847298Y-103728258D01*
X90731342Y-103887858D01*
X90658720Y-104071280D01*
X90633995Y-104267000D01*
X90658720Y-104462720D01*
X90731342Y-104646142D01*
X90847298Y-104805742D01*
X90999301Y-104931491D01*
X91177802Y-105015486D01*
X91254264Y-105030073D01*
X90580800Y-105703537D01*
X90580800Y-102809043D01*
X92453000Y-102809043D01*
X92896512Y-102690205D01*
X93052047Y-102559695D01*
X93082590Y-102565771D01*
X93607410Y-102565771D01*
X93743002Y-102538800D01*
X93857955Y-102538800D01*
X93936929Y-102585599D01*
X94165181Y-102640607D01*
X94399518Y-102626069D01*
X94619220Y-102543270D01*
X94804864Y-102399529D01*
X94940035Y-102207555D01*
X95012939Y-101983842D01*
X95015087Y-101737772D01*
X94946098Y-101512821D01*
X94814298Y-101318517D01*
X94631191Y-101171559D01*
X94412967Y-101084937D01*
X94178920Y-101066311D01*
X93949743Y-101117329D01*
X93858618Y-101169200D01*
X93743002Y-101169200D01*
X93607410Y-101142229D01*
X93082590Y-101142229D01*
X93046207Y-101149466D01*
X92992815Y-101085835D01*
X92799186Y-100974044D01*
X92453000Y-100913002D01*
X92453000Y-102809043D01*
X90580800Y-102809043D01*
X90580800Y-101978000D01*
X91437163Y-101978000D01*
X91437163Y-102145588D01*
X91517795Y-102446512D01*
X91665185Y-102622165D01*
X91858814Y-102733956D01*
X92205000Y-102794998D01*
X92205000Y-101978000D01*
X91437163Y-101978000D01*
X90580800Y-101978000D01*
X90580800Y-101567976D01*
X91437163Y-101567976D01*
X91437163Y-101730000D01*
X92205000Y-101730000D01*
X92205000Y-100898957D01*
X91761489Y-101017795D01*
X91585835Y-101165185D01*
X91474044Y-101358814D01*
X91437163Y-101567976D01*
X90580800Y-101567976D01*
X90580800Y-97850192D01*
X90664317Y-97946947D01*
X90866728Y-98116791D01*
X91093690Y-98252088D01*
X91339365Y-98349358D01*
X91597431Y-98406097D01*
X91861248Y-98420846D01*
X92124030Y-98393227D01*
X92379016Y-98323949D01*
X92619646Y-98214794D01*
X92839727Y-98068572D01*
X93033601Y-97889044D01*
X93196277Y-97680828D01*
X93323570Y-97449282D01*
X93412207Y-97200363D01*
X93460025Y-96939821D01*
X93463138Y-96642541D01*
X93420786Y-96381055D01*
X93337382Y-96130334D01*
X93214966Y-95896173D01*
X93056686Y-95684595D01*
X92949202Y-95580800D01*
X115323790Y-95580800D01*
X115150330Y-95773446D01*
G37*
X115150330Y-95773446D02*
X115007195Y-95995549D01*
X114901411Y-96237679D01*
X114835700Y-96493607D01*
X114811752Y-96756749D01*
X114830184Y-97020335D01*
X114890521Y-97277583D01*
X114991211Y-97521876D01*
X115129663Y-97746927D01*
X115302317Y-97946947D01*
X115504728Y-98116791D01*
X115731690Y-98252088D01*
X115977365Y-98349358D01*
X116235431Y-98406097D01*
X116499248Y-98420846D01*
X116762030Y-98393227D01*
X117017016Y-98323949D01*
X117257646Y-98214794D01*
X117477727Y-98068572D01*
X117671601Y-97889044D01*
X117719201Y-97828119D01*
X117719201Y-108452387D01*
X117603688Y-108282094D01*
X117420581Y-108135136D01*
X117314501Y-108093028D01*
X117314501Y-105556493D01*
X117321830Y-105472719D01*
X117300062Y-105391480D01*
X117285456Y-105308645D01*
X117271293Y-105284114D01*
X117263962Y-105256754D01*
X117215725Y-105187865D01*
X117173664Y-105115015D01*
X117109231Y-105060949D01*
X117068268Y-105019986D01*
X117194091Y-104979103D01*
X117360656Y-104873398D01*
X117495700Y-104729591D01*
X117590739Y-104556717D01*
X117639800Y-104365638D01*
X117639800Y-104168362D01*
X117590739Y-103977283D01*
X117495700Y-103804409D01*
X117360656Y-103660602D01*
X117194091Y-103554897D01*
X117006470Y-103493934D01*
X116809583Y-103481547D01*
X116644343Y-103513069D01*
X116621975Y-103474327D01*
X116557546Y-103420265D01*
X111753156Y-98615876D01*
X111753156Y-98163286D01*
X111825191Y-98060979D01*
X111898095Y-97837266D01*
X111900243Y-97591196D01*
X111831254Y-97366245D01*
X111699454Y-97171941D01*
X111516347Y-97024983D01*
X111298123Y-96938361D01*
X111064076Y-96919735D01*
X110834899Y-96970753D01*
X110630853Y-97086902D01*
X110469982Y-97257914D01*
X110366505Y-97468669D01*
X110329574Y-97700533D01*
X110362453Y-97933007D01*
X110462235Y-98145536D01*
X110485156Y-98170770D01*
X110485156Y-98259313D01*
X110485157Y-98259318D01*
X110485156Y-98850816D01*
X110477827Y-98934594D01*
X110499593Y-99015828D01*
X110514201Y-99098671D01*
X110528364Y-99123202D01*
X110535694Y-99150558D01*
X110583941Y-99219463D01*
X110625992Y-99292299D01*
X110690426Y-99346366D01*
X111151315Y-99807255D01*
X111006853Y-99749912D01*
X110772806Y-99731286D01*
X110543629Y-99782304D01*
X110339583Y-99898453D01*
X110261236Y-99981738D01*
X110160967Y-99941937D01*
X109926920Y-99923311D01*
X109697743Y-99974329D01*
X109493697Y-100090478D01*
X109388105Y-100202727D01*
X109300107Y-100167797D01*
X109066060Y-100149171D01*
X108836883Y-100200189D01*
X108632837Y-100316338D01*
X108471966Y-100487350D01*
X108368489Y-100698105D01*
X108331558Y-100929969D01*
X108364437Y-101162443D01*
X108464219Y-101374972D01*
X108622082Y-101548765D01*
X108824069Y-101668459D01*
X109052321Y-101723467D01*
X109182656Y-101715381D01*
X109192860Y-101725585D01*
X109221149Y-101767923D01*
X109388854Y-101879979D01*
X109524571Y-101906975D01*
X109586675Y-101919329D01*
X109636609Y-101909396D01*
X110091726Y-101909396D01*
X110081418Y-101974113D01*
X110114297Y-102206587D01*
X110214079Y-102419116D01*
X110371942Y-102592909D01*
X110573929Y-102712603D01*
X110802181Y-102767611D01*
X111036518Y-102753073D01*
X111256220Y-102670274D01*
X111441864Y-102526533D01*
X111468992Y-102488004D01*
X112084866Y-102488004D01*
X112523000Y-102926139D01*
X112523001Y-103455062D01*
X112513068Y-103505000D01*
X112552417Y-103702821D01*
X112608704Y-103787061D01*
X112664474Y-103870527D01*
X112706809Y-103898814D01*
X115126500Y-106318506D01*
X115126500Y-107421583D01*
X115111088Y-107415465D01*
X114877041Y-107396839D01*
X114647864Y-107447857D01*
X114443818Y-107564006D01*
X114282947Y-107735018D01*
X114215207Y-107872987D01*
X112318031Y-105975811D01*
X112289742Y-105933473D01*
X112122037Y-105821417D01*
X111986320Y-105794421D01*
X111924215Y-105782068D01*
X111874282Y-105792000D01*
X111597619Y-105792000D01*
X111578298Y-105763516D01*
X111395191Y-105616559D01*
X111176967Y-105529937D01*
X110942920Y-105511311D01*
X110713743Y-105562329D01*
X110509697Y-105678478D01*
X110348826Y-105849490D01*
X110245349Y-106060245D01*
X110208418Y-106292109D01*
X110208877Y-106295355D01*
X110078743Y-106324325D01*
X109874697Y-106440474D01*
X109713826Y-106611486D01*
X109610349Y-106822241D01*
X109573418Y-107054105D01*
X109606297Y-107286579D01*
X109706079Y-107499108D01*
X109863942Y-107672901D01*
X110065929Y-107792595D01*
X110294181Y-107847603D01*
X110528518Y-107833065D01*
X110748220Y-107750266D01*
X110933864Y-107606525D01*
X110960992Y-107567996D01*
X112045139Y-107567996D01*
X114533966Y-110056823D01*
X114533966Y-110140280D01*
X114358658Y-110126329D01*
X114129481Y-110177347D01*
X113925435Y-110293496D01*
X113806122Y-110420329D01*
X112946806Y-109561013D01*
X112942569Y-109453159D01*
X112860312Y-109240539D01*
X112713619Y-109066027D01*
X112518307Y-108948439D01*
X112454411Y-108934683D01*
X112471771Y-108847410D01*
X112471771Y-108322590D01*
X112440804Y-108166910D01*
X112345589Y-108024411D01*
X112203090Y-107929196D01*
X112047410Y-107898229D01*
X111823902Y-107898229D01*
X111792703Y-107891512D01*
X111735951Y-107898229D01*
X111472590Y-107898229D01*
X111359946Y-107920635D01*
X111230140Y-107869110D01*
X110996093Y-107850484D01*
X110766916Y-107901502D01*
X110562870Y-108017651D01*
X110401999Y-108188663D01*
X110298522Y-108399418D01*
X110261591Y-108631282D01*
X110294470Y-108863756D01*
X110394252Y-109076285D01*
X110403434Y-109086393D01*
X110367561Y-109124528D01*
X110201024Y-109095163D01*
X109914000Y-109095163D01*
X109914000Y-109863000D01*
X110261715Y-109863000D01*
X110341087Y-110032058D01*
X110498950Y-110205851D01*
X110700937Y-110325545D01*
X110929189Y-110380553D01*
X111163526Y-110366015D01*
X111383227Y-110283217D01*
X111389002Y-110278746D01*
X111427218Y-110278746D01*
X111472590Y-110287771D01*
X111666255Y-110287771D01*
X111672985Y-110289784D01*
X111724232Y-110287771D01*
X112047410Y-110287771D01*
X112057319Y-110285800D01*
X112182623Y-110285800D01*
X112222977Y-110294488D01*
X112243806Y-110292023D01*
X113355136Y-111403353D01*
X113203554Y-111564490D01*
X113100077Y-111775245D01*
X113063146Y-112007109D01*
X113096025Y-112239583D01*
X113167928Y-112392732D01*
X113167928Y-112726200D01*
X107187000Y-112726200D01*
X107187000Y-112147805D01*
X107358811Y-111975994D01*
X107401149Y-111947705D01*
X107513205Y-111780000D01*
X107540201Y-111644283D01*
X107552555Y-111582179D01*
X107542622Y-111532245D01*
X107542622Y-110811000D01*
X108048163Y-110811000D01*
X108048163Y-111878000D01*
X110831837Y-111878000D01*
X110831837Y-110811000D01*
X108048163Y-110811000D01*
X107542622Y-110811000D01*
X107542622Y-110141133D01*
X107649103Y-110034652D01*
X107831791Y-110013030D01*
X108084193Y-109863759D01*
X108084952Y-109863000D01*
X108966000Y-109863000D01*
X108966000Y-109095163D01*
X108676771Y-109095163D01*
X108676771Y-109083244D01*
X108678784Y-109076512D01*
X108676771Y-109025269D01*
X108676771Y-108074590D01*
X108645804Y-107918910D01*
X108550589Y-107776411D01*
X108408090Y-107681196D01*
X108252410Y-107650229D01*
X107727590Y-107650229D01*
X107571910Y-107681196D01*
X107440000Y-107769336D01*
X107308090Y-107681196D01*
X107152410Y-107650229D01*
X106627590Y-107650229D01*
X106471910Y-107681196D01*
X106340000Y-107769336D01*
X106208090Y-107681196D01*
X106052410Y-107650229D01*
X105527590Y-107650229D01*
X105415000Y-107672625D01*
X105302410Y-107650229D01*
X104777590Y-107650229D01*
X104690000Y-107667652D01*
X104602410Y-107650229D01*
X104077590Y-107650229D01*
X103965000Y-107672625D01*
X103852410Y-107650229D01*
X103327590Y-107650229D01*
X103219222Y-107671785D01*
X103153815Y-107593835D01*
X102960186Y-107482044D01*
X102614000Y-107421002D01*
X102614000Y-109767043D01*
X102863043Y-109700312D01*
X102842412Y-109829841D01*
X102875291Y-110062315D01*
X102975073Y-110274844D01*
X103132936Y-110448637D01*
X103334923Y-110568331D01*
X103563175Y-110623339D01*
X103797512Y-110608801D01*
X104017214Y-110526002D01*
X104202858Y-110382261D01*
X104338029Y-110190287D01*
X104355201Y-110137593D01*
X104355200Y-114513348D01*
X103354320Y-115514229D01*
X102603590Y-115514229D01*
X102447910Y-115545196D01*
X102379483Y-115590917D01*
X102267815Y-115457835D01*
X102074186Y-115346044D01*
X101865024Y-115309163D01*
X101434843Y-115309163D01*
X101466000Y-115278006D01*
X101508338Y-115249717D01*
X101620394Y-115082012D01*
X101647390Y-114946295D01*
X101659744Y-114884191D01*
X101649811Y-114834257D01*
X101649811Y-111987744D01*
X101659743Y-111937811D01*
X101620395Y-111739991D01*
X101600272Y-111709874D01*
X101508337Y-111572283D01*
X101466005Y-111543999D01*
X101234146Y-111312139D01*
X101345364Y-111226025D01*
X101480535Y-111034051D01*
X101553439Y-110810338D01*
X101555587Y-110564268D01*
X101486598Y-110339317D01*
X101459300Y-110299073D01*
X101459300Y-109523771D01*
X101652410Y-109523771D01*
X101760778Y-109502215D01*
X101826185Y-109580165D01*
X102019814Y-109691956D01*
X102366000Y-109752998D01*
X102366000Y-107406957D01*
X102096248Y-107479236D01*
X102058092Y-107354821D01*
X101926292Y-107160517D01*
X101743185Y-107013559D01*
X101524961Y-106926937D01*
X101290914Y-106908311D01*
X101061737Y-106959329D01*
X100857691Y-107075478D01*
X100696820Y-107246490D01*
X100593343Y-107457245D01*
X100562292Y-107652195D01*
X100552410Y-107650229D01*
X100290921Y-107650229D01*
X100290921Y-106387012D01*
X100300853Y-106337079D01*
X100261504Y-106139256D01*
X100240339Y-106107581D01*
X100149448Y-105971552D01*
X100107110Y-105943263D01*
X99948000Y-105784153D01*
X99948000Y-103524506D01*
X100081694Y-103390812D01*
X100124027Y-103362527D01*
X100236083Y-103194822D01*
X100263079Y-103059105D01*
X100275432Y-102997000D01*
X100265500Y-102947067D01*
X100265500Y-102538933D01*
X100275432Y-102489000D01*
X100236083Y-102291178D01*
X100196302Y-102231641D01*
X100124027Y-102123473D01*
X100081692Y-102095186D01*
X98932000Y-100945495D01*
X98932000Y-99671802D01*
X98969557Y-99642722D01*
X99104728Y-99450748D01*
X99177632Y-99227035D01*
X99179780Y-98980965D01*
X99110791Y-98756014D01*
X98978991Y-98561710D01*
X98795884Y-98414752D01*
X98577660Y-98328130D01*
X98343613Y-98309504D01*
X98114436Y-98360522D01*
X97949694Y-98454298D01*
X97933199Y-98441059D01*
X97777951Y-98379435D01*
X97821264Y-98270039D01*
X97848150Y-98014235D01*
X97805255Y-97760624D01*
X97695738Y-97527891D01*
X97527670Y-97333181D01*
X97313432Y-97190842D01*
X97068808Y-97111359D01*
X96811821Y-97100588D01*
X96556798Y-97160404D01*
X96271952Y-97345385D01*
X95488414Y-98128924D01*
X95407338Y-98203476D01*
X95362897Y-98275152D01*
X95311912Y-98342322D01*
X95295414Y-98383992D01*
X95269306Y-98426101D01*
X95258368Y-98477558D01*
X95217225Y-98581473D01*
X95190339Y-98837276D01*
X95198690Y-98886652D01*
X95198689Y-104260647D01*
X95115179Y-104344158D01*
X94001800Y-104344158D01*
X94001800Y-104168362D01*
X93952739Y-103977283D01*
X93857700Y-103804409D01*
X93722656Y-103660602D01*
X93556091Y-103554897D01*
X93368470Y-103493934D01*
X93171583Y-103481547D01*
X92977802Y-103518514D01*
X92799301Y-103602509D01*
X92647298Y-103728258D01*
X92531342Y-103887858D01*
X92458720Y-104071280D01*
X92433995Y-104267000D01*
X92443742Y-104344158D01*
X92349891Y-104344158D01*
X92239862Y-104339546D01*
X92201800Y-104348473D01*
X92201800Y-104168362D01*
X92152739Y-103977283D01*
X92057700Y-103804409D01*
X91922656Y-103660602D01*
X91756091Y-103554897D01*
X91568470Y-103493934D01*
X91371583Y-103481547D01*
X91177802Y-103518514D01*
X90999301Y-103602509D01*
X90847298Y-103728258D01*
X90731342Y-103887858D01*
X90658720Y-104071280D01*
X90633995Y-104267000D01*
X90658720Y-104462720D01*
X90731342Y-104646142D01*
X90847298Y-104805742D01*
X90999301Y-104931491D01*
X91177802Y-105015486D01*
X91254264Y-105030073D01*
X90580800Y-105703537D01*
X90580800Y-102809043D01*
X92453000Y-102809043D01*
X92896512Y-102690205D01*
X93052047Y-102559695D01*
X93082590Y-102565771D01*
X93607410Y-102565771D01*
X93743002Y-102538800D01*
X93857955Y-102538800D01*
X93936929Y-102585599D01*
X94165181Y-102640607D01*
X94399518Y-102626069D01*
X94619220Y-102543270D01*
X94804864Y-102399529D01*
X94940035Y-102207555D01*
X95012939Y-101983842D01*
X95015087Y-101737772D01*
X94946098Y-101512821D01*
X94814298Y-101318517D01*
X94631191Y-101171559D01*
X94412967Y-101084937D01*
X94178920Y-101066311D01*
X93949743Y-101117329D01*
X93858618Y-101169200D01*
X93743002Y-101169200D01*
X93607410Y-101142229D01*
X93082590Y-101142229D01*
X93046207Y-101149466D01*
X92992815Y-101085835D01*
X92799186Y-100974044D01*
X92453000Y-100913002D01*
X92453000Y-102809043D01*
X90580800Y-102809043D01*
X90580800Y-101978000D01*
X91437163Y-101978000D01*
X91437163Y-102145588D01*
X91517795Y-102446512D01*
X91665185Y-102622165D01*
X91858814Y-102733956D01*
X92205000Y-102794998D01*
X92205000Y-101978000D01*
X91437163Y-101978000D01*
X90580800Y-101978000D01*
X90580800Y-101567976D01*
X91437163Y-101567976D01*
X91437163Y-101730000D01*
X92205000Y-101730000D01*
X92205000Y-100898957D01*
X91761489Y-101017795D01*
X91585835Y-101165185D01*
X91474044Y-101358814D01*
X91437163Y-101567976D01*
X90580800Y-101567976D01*
X90580800Y-97850192D01*
X90664317Y-97946947D01*
X90866728Y-98116791D01*
X91093690Y-98252088D01*
X91339365Y-98349358D01*
X91597431Y-98406097D01*
X91861248Y-98420846D01*
X92124030Y-98393227D01*
X92379016Y-98323949D01*
X92619646Y-98214794D01*
X92839727Y-98068572D01*
X93033601Y-97889044D01*
X93196277Y-97680828D01*
X93323570Y-97449282D01*
X93412207Y-97200363D01*
X93460025Y-96939821D01*
X93463138Y-96642541D01*
X93420786Y-96381055D01*
X93337382Y-96130334D01*
X93214966Y-95896173D01*
X93056686Y-95684595D01*
X92949202Y-95580800D01*
X115323790Y-95580800D01*
X115150330Y-95773446D01*
G36*
X100331001Y-112274075D02*
G01*
X100331000Y-114547929D01*
X100231837Y-114647092D01*
X100231837Y-112896000D01*
X98368399Y-112896000D01*
X98368399Y-111878000D01*
X99934927Y-111878000D01*
X100331001Y-112274075D01*
G37*
X100331001Y-112274075D02*
X100331000Y-114547929D01*
X100231837Y-114647092D01*
X100231837Y-112896000D01*
X98368399Y-112896000D01*
X98368399Y-111878000D01*
X99934927Y-111878000D01*
X100331001Y-112274075D01*
G36*
X117719201Y-111287196D02*
G01*
X117072019Y-110640014D01*
X117072019Y-109596898D01*
X117188908Y-109589646D01*
X117408610Y-109506847D01*
X117594254Y-109363106D01*
X117719201Y-109185652D01*
X117719201Y-111287196D01*
G37*
X117719201Y-111287196D02*
X117072019Y-110640014D01*
X117072019Y-109596898D01*
X117188908Y-109589646D01*
X117408610Y-109506847D01*
X117594254Y-109363106D01*
X117719201Y-109185652D01*
X117719201Y-111287196D01*
G36*
X98972110Y-109242257D02*
G01*
X98962177Y-109292191D01*
X98987262Y-109418299D01*
X99001527Y-109490011D01*
X99113583Y-109657718D01*
X99155921Y-109686007D01*
X99314000Y-109844088D01*
X99314000Y-110811000D01*
X98368399Y-110811000D01*
X98368399Y-109789674D01*
X98519583Y-109638492D01*
X98561916Y-109610206D01*
X98673973Y-109442500D01*
X98686295Y-109380550D01*
X98713321Y-109244680D01*
X98703389Y-109194747D01*
X98703389Y-106954996D01*
X98972111Y-106686274D01*
X98972110Y-109242257D01*
G37*
X98972110Y-109242257D02*
X98962177Y-109292191D01*
X98987262Y-109418299D01*
X99001527Y-109490011D01*
X99113583Y-109657718D01*
X99155921Y-109686007D01*
X99314000Y-109844088D01*
X99314000Y-110811000D01*
X98368399Y-110811000D01*
X98368399Y-109789674D01*
X98519583Y-109638492D01*
X98561916Y-109610206D01*
X98673973Y-109442500D01*
X98686295Y-109380550D01*
X98713321Y-109244680D01*
X98703389Y-109194747D01*
X98703389Y-106954996D01*
X98972111Y-106686274D01*
X98972110Y-109242257D01*
G36*
X104595809Y-162305000D02*
G01*
X109399191Y-162305000D01*
X110542190Y-161162000D01*
X114698872Y-161162000D01*
X114697000Y-161183396D01*
X114697000Y-161437000D01*
X117565000Y-161437000D01*
X117565000Y-161183395D01*
X117563128Y-161162000D01*
X117770000Y-161162000D01*
X117770000Y-167389683D01*
X117631615Y-167256047D01*
X117414644Y-167105247D01*
X117176353Y-166991078D01*
X116922874Y-166916474D01*
X116660728Y-166883358D01*
X116396660Y-166892580D01*
X116137463Y-166943902D01*
X115889805Y-167036004D01*
X115660059Y-167166519D01*
X115454134Y-167332086D01*
X115277330Y-167528446D01*
X115134195Y-167750549D01*
X115028411Y-167992679D01*
X114962700Y-168248607D01*
X114938752Y-168511749D01*
X114957184Y-168775335D01*
X115017521Y-169032583D01*
X115118211Y-169276876D01*
X115256663Y-169501927D01*
X115429317Y-169701947D01*
X115510419Y-169770000D01*
X101218000Y-169770000D01*
X101218000Y-166470641D01*
X101259324Y-166513359D01*
X101492575Y-166693311D01*
X101749359Y-166837706D01*
X102024298Y-166943520D01*
X102311632Y-167008538D01*
X102605343Y-167031396D01*
X102899276Y-167011615D01*
X103187276Y-166949610D01*
X103463307Y-166846680D01*
X103721590Y-166704982D01*
X103956712Y-166527482D01*
X104163748Y-166317902D01*
X104338362Y-166080629D01*
X104476894Y-165820635D01*
X104576444Y-165543366D01*
X104635266Y-165252949D01*
X104644030Y-164939168D01*
X112011370Y-164939168D01*
X112024478Y-165233474D01*
X112079932Y-165522806D01*
X112176572Y-165801103D01*
X112312375Y-166062533D01*
X112484494Y-166301621D01*
X112689324Y-166513359D01*
X112922575Y-166693311D01*
X113179359Y-166837706D01*
X113454298Y-166943520D01*
X113741632Y-167008538D01*
X114035343Y-167031396D01*
X114329276Y-167011615D01*
X114617276Y-166949610D01*
X114893307Y-166846680D01*
X115151590Y-166704982D01*
X115386712Y-166527482D01*
X115593748Y-166317902D01*
X115768362Y-166080629D01*
X115906894Y-165820635D01*
X116006444Y-165543366D01*
X116065266Y-165252949D01*
X116076460Y-164852170D01*
X116033941Y-164558923D01*
X115950025Y-164276529D01*
X115826221Y-164009207D01*
X115665125Y-163762557D01*
X115622000Y-163713727D01*
X115622000Y-162455000D01*
X116640000Y-162455000D01*
X116640000Y-163990895D01*
X116850739Y-163892623D01*
X117056279Y-163748702D01*
X117233703Y-163571278D01*
X117377624Y-163365738D01*
X117483667Y-163138329D01*
X117548609Y-162895961D01*
X117565000Y-162708605D01*
X117565000Y-162455000D01*
X116640000Y-162455000D01*
X115622000Y-162455000D01*
X114697000Y-162455000D01*
X114697000Y-162708605D01*
X114713391Y-162895961D01*
X114766847Y-163095460D01*
X114725438Y-163077326D01*
X114441349Y-162999341D01*
X114148978Y-162963184D01*
X113854450Y-162969610D01*
X113563934Y-163018486D01*
X113283518Y-163108789D01*
X113019072Y-163238624D01*
X112776140Y-163405276D01*
X112559811Y-163605249D01*
X112374614Y-163834356D01*
X112224430Y-164087798D01*
X112112405Y-164360266D01*
X112040886Y-164646052D01*
X112011370Y-164939168D01*
X104644030Y-164939168D01*
X104646460Y-164852170D01*
X104603941Y-164558923D01*
X104520025Y-164276529D01*
X104396221Y-164009207D01*
X104235125Y-163762557D01*
X104040111Y-163541746D01*
X103815264Y-163351399D01*
X103565294Y-163195504D01*
X103295438Y-163077326D01*
X103011349Y-162999341D01*
X102718978Y-162963184D01*
X102424450Y-162969610D01*
X102133934Y-163018486D01*
X101895177Y-163095374D01*
X101948609Y-162895961D01*
X101965000Y-162708605D01*
X101965000Y-162455000D01*
X100583000Y-162455000D01*
X100583000Y-161437000D01*
X101965000Y-161437000D01*
X101965000Y-161183395D01*
X101963128Y-161162000D01*
X103452810Y-161162000D01*
X104595809Y-162305000D01*
G37*
X104595809Y-162305000D02*
X109399191Y-162305000D01*
X110542190Y-161162000D01*
X114698872Y-161162000D01*
X114697000Y-161183396D01*
X114697000Y-161437000D01*
X117565000Y-161437000D01*
X117565000Y-161183395D01*
X117563128Y-161162000D01*
X117770000Y-161162000D01*
X117770000Y-167389683D01*
X117631615Y-167256047D01*
X117414644Y-167105247D01*
X117176353Y-166991078D01*
X116922874Y-166916474D01*
X116660728Y-166883358D01*
X116396660Y-166892580D01*
X116137463Y-166943902D01*
X115889805Y-167036004D01*
X115660059Y-167166519D01*
X115454134Y-167332086D01*
X115277330Y-167528446D01*
X115134195Y-167750549D01*
X115028411Y-167992679D01*
X114962700Y-168248607D01*
X114938752Y-168511749D01*
X114957184Y-168775335D01*
X115017521Y-169032583D01*
X115118211Y-169276876D01*
X115256663Y-169501927D01*
X115429317Y-169701947D01*
X115510419Y-169770000D01*
X101218000Y-169770000D01*
X101218000Y-166470641D01*
X101259324Y-166513359D01*
X101492575Y-166693311D01*
X101749359Y-166837706D01*
X102024298Y-166943520D01*
X102311632Y-167008538D01*
X102605343Y-167031396D01*
X102899276Y-167011615D01*
X103187276Y-166949610D01*
X103463307Y-166846680D01*
X103721590Y-166704982D01*
X103956712Y-166527482D01*
X104163748Y-166317902D01*
X104338362Y-166080629D01*
X104476894Y-165820635D01*
X104576444Y-165543366D01*
X104635266Y-165252949D01*
X104644030Y-164939168D01*
X112011370Y-164939168D01*
X112024478Y-165233474D01*
X112079932Y-165522806D01*
X112176572Y-165801103D01*
X112312375Y-166062533D01*
X112484494Y-166301621D01*
X112689324Y-166513359D01*
X112922575Y-166693311D01*
X113179359Y-166837706D01*
X113454298Y-166943520D01*
X113741632Y-167008538D01*
X114035343Y-167031396D01*
X114329276Y-167011615D01*
X114617276Y-166949610D01*
X114893307Y-166846680D01*
X115151590Y-166704982D01*
X115386712Y-166527482D01*
X115593748Y-166317902D01*
X115768362Y-166080629D01*
X115906894Y-165820635D01*
X116006444Y-165543366D01*
X116065266Y-165252949D01*
X116076460Y-164852170D01*
X116033941Y-164558923D01*
X115950025Y-164276529D01*
X115826221Y-164009207D01*
X115665125Y-163762557D01*
X115622000Y-163713727D01*
X115622000Y-162455000D01*
X116640000Y-162455000D01*
X116640000Y-163990895D01*
X116850739Y-163892623D01*
X117056279Y-163748702D01*
X117233703Y-163571278D01*
X117377624Y-163365738D01*
X117483667Y-163138329D01*
X117548609Y-162895961D01*
X117565000Y-162708605D01*
X117565000Y-162455000D01*
X116640000Y-162455000D01*
X115622000Y-162455000D01*
X114697000Y-162455000D01*
X114697000Y-162708605D01*
X114713391Y-162895961D01*
X114766847Y-163095460D01*
X114725438Y-163077326D01*
X114441349Y-162999341D01*
X114148978Y-162963184D01*
X113854450Y-162969610D01*
X113563934Y-163018486D01*
X113283518Y-163108789D01*
X113019072Y-163238624D01*
X112776140Y-163405276D01*
X112559811Y-163605249D01*
X112374614Y-163834356D01*
X112224430Y-164087798D01*
X112112405Y-164360266D01*
X112040886Y-164646052D01*
X112011370Y-164939168D01*
X104644030Y-164939168D01*
X104646460Y-164852170D01*
X104603941Y-164558923D01*
X104520025Y-164276529D01*
X104396221Y-164009207D01*
X104235125Y-163762557D01*
X104040111Y-163541746D01*
X103815264Y-163351399D01*
X103565294Y-163195504D01*
X103295438Y-163077326D01*
X103011349Y-162999341D01*
X102718978Y-162963184D01*
X102424450Y-162969610D01*
X102133934Y-163018486D01*
X101895177Y-163095374D01*
X101948609Y-162895961D01*
X101965000Y-162708605D01*
X101965000Y-162455000D01*
X100583000Y-162455000D01*
X100583000Y-161437000D01*
X101965000Y-161437000D01*
X101965000Y-161183395D01*
X101963128Y-161162000D01*
X103452810Y-161162000D01*
X104595809Y-162305000D01*
G36*
X112391024Y-134242636D02*
G01*
X112391024Y-134632410D01*
X112418047Y-134768269D01*
X112502035Y-134893965D01*
X112627731Y-134977953D01*
X112763590Y-135004976D01*
X113296410Y-135004976D01*
X113411000Y-134982183D01*
X113525590Y-135004976D01*
X114021600Y-135004976D01*
X114021600Y-136690889D01*
X114016787Y-136782730D01*
X114036710Y-136821830D01*
X114051731Y-136892497D01*
X114165724Y-137049396D01*
X114197686Y-137067849D01*
X114478801Y-137348965D01*
X114478801Y-138431000D01*
X113726205Y-138431000D01*
X113720377Y-138414857D01*
X113699375Y-138386475D01*
X113684181Y-138353057D01*
X113616681Y-138274721D01*
X113600002Y-138252180D01*
X113580180Y-138232359D01*
X113518145Y-138160364D01*
X113489834Y-138142013D01*
X111594659Y-136246839D01*
X111579592Y-136222959D01*
X111504156Y-136156336D01*
X111479277Y-136131456D01*
X111457537Y-136115163D01*
X111388939Y-136054579D01*
X111356174Y-136039196D01*
X111327220Y-136017495D01*
X111241534Y-135985373D01*
X111158337Y-135946313D01*
X111123415Y-135941093D01*
X111089042Y-135928208D01*
X110985919Y-135920544D01*
X110958189Y-135916400D01*
X110930150Y-135916400D01*
X110835382Y-135909358D01*
X110802394Y-135916400D01*
X109486220Y-135916400D01*
X109219000Y-135649180D01*
X109219000Y-135449110D01*
X109190776Y-135270906D01*
X109149200Y-135189309D01*
X109149200Y-134679103D01*
X109153590Y-134679976D01*
X109578410Y-134679976D01*
X109714269Y-134652953D01*
X109766000Y-134618387D01*
X109817731Y-134652953D01*
X109953590Y-134679976D01*
X110378410Y-134679976D01*
X110514269Y-134652953D01*
X110566000Y-134618387D01*
X110617731Y-134652953D01*
X110753590Y-134679976D01*
X111178410Y-134679976D01*
X111314269Y-134652953D01*
X111439965Y-134568965D01*
X111523953Y-134443269D01*
X111550976Y-134307410D01*
X111550976Y-133402587D01*
X112391024Y-134242636D01*
G37*
X112391024Y-134242636D02*
X112391024Y-134632410D01*
X112418047Y-134768269D01*
X112502035Y-134893965D01*
X112627731Y-134977953D01*
X112763590Y-135004976D01*
X113296410Y-135004976D01*
X113411000Y-134982183D01*
X113525590Y-135004976D01*
X114021600Y-135004976D01*
X114021600Y-136690889D01*
X114016787Y-136782730D01*
X114036710Y-136821830D01*
X114051731Y-136892497D01*
X114165724Y-137049396D01*
X114197686Y-137067849D01*
X114478801Y-137348965D01*
X114478801Y-138431000D01*
X113726205Y-138431000D01*
X113720377Y-138414857D01*
X113699375Y-138386475D01*
X113684181Y-138353057D01*
X113616681Y-138274721D01*
X113600002Y-138252180D01*
X113580180Y-138232359D01*
X113518145Y-138160364D01*
X113489834Y-138142013D01*
X111594659Y-136246839D01*
X111579592Y-136222959D01*
X111504156Y-136156336D01*
X111479277Y-136131456D01*
X111457537Y-136115163D01*
X111388939Y-136054579D01*
X111356174Y-136039196D01*
X111327220Y-136017495D01*
X111241534Y-135985373D01*
X111158337Y-135946313D01*
X111123415Y-135941093D01*
X111089042Y-135928208D01*
X110985919Y-135920544D01*
X110958189Y-135916400D01*
X110930150Y-135916400D01*
X110835382Y-135909358D01*
X110802394Y-135916400D01*
X109486220Y-135916400D01*
X109219000Y-135649180D01*
X109219000Y-135449110D01*
X109190776Y-135270906D01*
X109149200Y-135189309D01*
X109149200Y-134679103D01*
X109153590Y-134679976D01*
X109578410Y-134679976D01*
X109714269Y-134652953D01*
X109766000Y-134618387D01*
X109817731Y-134652953D01*
X109953590Y-134679976D01*
X110378410Y-134679976D01*
X110514269Y-134652953D01*
X110566000Y-134618387D01*
X110617731Y-134652953D01*
X110753590Y-134679976D01*
X111178410Y-134679976D01*
X111314269Y-134652953D01*
X111439965Y-134568965D01*
X111523953Y-134443269D01*
X111550976Y-134307410D01*
X111550976Y-133402587D01*
X112391024Y-134242636D01*
G36*
X107751052Y-113289231D02*
G01*
X107847804Y-113283228D01*
X107944754Y-113283820D01*
X107947623Y-113283000D01*
X108305024Y-113283000D01*
X108305024Y-115399410D01*
X108332047Y-115535269D01*
X108416035Y-115660965D01*
X108541731Y-115744953D01*
X108677590Y-115771976D01*
X110202410Y-115771976D01*
X110338269Y-115744953D01*
X110463965Y-115660965D01*
X110547953Y-115535269D01*
X110574976Y-115399410D01*
X110574976Y-113283000D01*
X113218728Y-113283000D01*
X113218729Y-114339541D01*
X113205878Y-114348878D01*
X113069959Y-114535956D01*
X113036019Y-114640412D01*
X113016504Y-114645641D01*
X112267380Y-114645641D01*
X112219122Y-114579219D01*
X112032044Y-114443300D01*
X111812121Y-114371842D01*
X111580879Y-114371842D01*
X111360956Y-114443300D01*
X111173878Y-114579219D01*
X111037959Y-114766297D01*
X110966501Y-114986220D01*
X110966501Y-115217462D01*
X111037959Y-115437385D01*
X111103829Y-115528048D01*
X111037959Y-115618710D01*
X110966501Y-115838633D01*
X110966501Y-116069875D01*
X111037959Y-116289798D01*
X111173878Y-116476876D01*
X111360956Y-116612795D01*
X111580879Y-116684253D01*
X111715024Y-116684253D01*
X111715024Y-116907410D01*
X111742047Y-117043269D01*
X111826035Y-117168965D01*
X111951731Y-117252953D01*
X112087590Y-117279976D01*
X112954800Y-117279976D01*
X112954800Y-117796810D01*
X112949987Y-117888651D01*
X112969910Y-117927751D01*
X112984931Y-117998418D01*
X113098924Y-118155317D01*
X113130886Y-118173770D01*
X113716801Y-118759687D01*
X113716800Y-125972089D01*
X113711987Y-126063930D01*
X113731910Y-126103030D01*
X113746931Y-126173697D01*
X113860924Y-126330596D01*
X113892886Y-126349049D01*
X114021601Y-126477765D01*
X114021601Y-127393399D01*
X113905959Y-127339842D01*
X113670853Y-127304496D01*
X113435279Y-127336556D01*
X113218171Y-127433446D01*
X113036982Y-127587377D01*
X112906281Y-127785973D01*
X112836571Y-128013272D01*
X112835755Y-128075635D01*
X112640390Y-128271000D01*
X111771658Y-128271000D01*
X111852956Y-128130186D01*
X111889837Y-127921024D01*
X111889837Y-127759000D01*
X110874000Y-127759000D01*
X110874000Y-127511000D01*
X111122000Y-127511000D01*
X111889837Y-127511000D01*
X111889837Y-127343412D01*
X111809205Y-127042489D01*
X111661815Y-126866835D01*
X111468186Y-126755044D01*
X111122000Y-126694002D01*
X111122000Y-127511000D01*
X110874000Y-127511000D01*
X110874000Y-126679957D01*
X110430489Y-126798795D01*
X110254835Y-126946185D01*
X110238185Y-126975024D01*
X109854000Y-126975024D01*
X109854000Y-123227426D01*
X109858976Y-123202409D01*
X109858976Y-122525788D01*
X109861329Y-122498890D01*
X109858976Y-122490109D01*
X109858976Y-121399590D01*
X109831953Y-121263731D01*
X109747965Y-121138035D01*
X109622269Y-121054047D01*
X109486410Y-121027024D01*
X108445590Y-121027024D01*
X108309731Y-121054047D01*
X108184035Y-121138035D01*
X108100047Y-121263731D01*
X108073024Y-121399590D01*
X108073024Y-122424366D01*
X108068390Y-122429000D01*
X107469668Y-122429000D01*
X107385891Y-122421671D01*
X107304657Y-122443437D01*
X107221814Y-122458045D01*
X107197283Y-122472208D01*
X107169928Y-122479538D01*
X107101024Y-122527784D01*
X107028186Y-122569836D01*
X106974130Y-122634258D01*
X106280588Y-123327801D01*
X106280588Y-123314965D01*
X106302976Y-123202410D01*
X106302976Y-121399590D01*
X106275953Y-121263731D01*
X106191965Y-121138035D01*
X106066269Y-121054047D01*
X105930410Y-121027024D01*
X105294587Y-121027024D01*
X105672612Y-120649000D01*
X107453678Y-120649000D01*
X107487457Y-120673541D01*
X107707379Y-120744999D01*
X107938621Y-120744999D01*
X108158544Y-120673541D01*
X108345622Y-120537622D01*
X108481541Y-120350544D01*
X108528457Y-120206153D01*
X109013739Y-119720871D01*
X109078163Y-119666814D01*
X109120216Y-119593977D01*
X109168461Y-119525074D01*
X109175792Y-119497716D01*
X109189955Y-119473185D01*
X109204562Y-119390349D01*
X109226330Y-119309109D01*
X109219000Y-119225323D01*
X109219000Y-117971322D01*
X109243541Y-117937543D01*
X109314999Y-117717621D01*
X109314999Y-117486379D01*
X109243541Y-117266456D01*
X109107622Y-117079378D01*
X108920544Y-116943459D01*
X108700621Y-116872001D01*
X108681574Y-116872001D01*
X108678186Y-116870045D01*
X108595345Y-116855438D01*
X108514108Y-116833671D01*
X108430331Y-116841000D01*
X108271476Y-116841000D01*
X108271476Y-116700590D01*
X108244453Y-116564731D01*
X108160465Y-116439035D01*
X108034769Y-116355047D01*
X107898910Y-116328024D01*
X107239090Y-116328024D01*
X107136200Y-116348489D01*
X107136200Y-113283000D01*
X107723516Y-113283000D01*
X107751052Y-113289231D01*
G37*
X107751052Y-113289231D02*
X107847804Y-113283228D01*
X107944754Y-113283820D01*
X107947623Y-113283000D01*
X108305024Y-113283000D01*
X108305024Y-115399410D01*
X108332047Y-115535269D01*
X108416035Y-115660965D01*
X108541731Y-115744953D01*
X108677590Y-115771976D01*
X110202410Y-115771976D01*
X110338269Y-115744953D01*
X110463965Y-115660965D01*
X110547953Y-115535269D01*
X110574976Y-115399410D01*
X110574976Y-113283000D01*
X113218728Y-113283000D01*
X113218729Y-114339541D01*
X113205878Y-114348878D01*
X113069959Y-114535956D01*
X113036019Y-114640412D01*
X113016504Y-114645641D01*
X112267380Y-114645641D01*
X112219122Y-114579219D01*
X112032044Y-114443300D01*
X111812121Y-114371842D01*
X111580879Y-114371842D01*
X111360956Y-114443300D01*
X111173878Y-114579219D01*
X111037959Y-114766297D01*
X110966501Y-114986220D01*
X110966501Y-115217462D01*
X111037959Y-115437385D01*
X111103829Y-115528048D01*
X111037959Y-115618710D01*
X110966501Y-115838633D01*
X110966501Y-116069875D01*
X111037959Y-116289798D01*
X111173878Y-116476876D01*
X111360956Y-116612795D01*
X111580879Y-116684253D01*
X111715024Y-116684253D01*
X111715024Y-116907410D01*
X111742047Y-117043269D01*
X111826035Y-117168965D01*
X111951731Y-117252953D01*
X112087590Y-117279976D01*
X112954800Y-117279976D01*
X112954800Y-117796810D01*
X112949987Y-117888651D01*
X112969910Y-117927751D01*
X112984931Y-117998418D01*
X113098924Y-118155317D01*
X113130886Y-118173770D01*
X113716801Y-118759687D01*
X113716800Y-125972089D01*
X113711987Y-126063930D01*
X113731910Y-126103030D01*
X113746931Y-126173697D01*
X113860924Y-126330596D01*
X113892886Y-126349049D01*
X114021601Y-126477765D01*
X114021601Y-127393399D01*
X113905959Y-127339842D01*
X113670853Y-127304496D01*
X113435279Y-127336556D01*
X113218171Y-127433446D01*
X113036982Y-127587377D01*
X112906281Y-127785973D01*
X112836571Y-128013272D01*
X112835755Y-128075635D01*
X112640390Y-128271000D01*
X111771658Y-128271000D01*
X111852956Y-128130186D01*
X111889837Y-127921024D01*
X111889837Y-127759000D01*
X110874000Y-127759000D01*
X110874000Y-127511000D01*
X111122000Y-127511000D01*
X111889837Y-127511000D01*
X111889837Y-127343412D01*
X111809205Y-127042489D01*
X111661815Y-126866835D01*
X111468186Y-126755044D01*
X111122000Y-126694002D01*
X111122000Y-127511000D01*
X110874000Y-127511000D01*
X110874000Y-126679957D01*
X110430489Y-126798795D01*
X110254835Y-126946185D01*
X110238185Y-126975024D01*
X109854000Y-126975024D01*
X109854000Y-123227426D01*
X109858976Y-123202409D01*
X109858976Y-122525788D01*
X109861329Y-122498890D01*
X109858976Y-122490109D01*
X109858976Y-121399590D01*
X109831953Y-121263731D01*
X109747965Y-121138035D01*
X109622269Y-121054047D01*
X109486410Y-121027024D01*
X108445590Y-121027024D01*
X108309731Y-121054047D01*
X108184035Y-121138035D01*
X108100047Y-121263731D01*
X108073024Y-121399590D01*
X108073024Y-122424366D01*
X108068390Y-122429000D01*
X107469668Y-122429000D01*
X107385891Y-122421671D01*
X107304657Y-122443437D01*
X107221814Y-122458045D01*
X107197283Y-122472208D01*
X107169928Y-122479538D01*
X107101024Y-122527784D01*
X107028186Y-122569836D01*
X106974130Y-122634258D01*
X106280588Y-123327801D01*
X106280588Y-123314965D01*
X106302976Y-123202410D01*
X106302976Y-121399590D01*
X106275953Y-121263731D01*
X106191965Y-121138035D01*
X106066269Y-121054047D01*
X105930410Y-121027024D01*
X105294587Y-121027024D01*
X105672612Y-120649000D01*
X107453678Y-120649000D01*
X107487457Y-120673541D01*
X107707379Y-120744999D01*
X107938621Y-120744999D01*
X108158544Y-120673541D01*
X108345622Y-120537622D01*
X108481541Y-120350544D01*
X108528457Y-120206153D01*
X109013739Y-119720871D01*
X109078163Y-119666814D01*
X109120216Y-119593977D01*
X109168461Y-119525074D01*
X109175792Y-119497716D01*
X109189955Y-119473185D01*
X109204562Y-119390349D01*
X109226330Y-119309109D01*
X109219000Y-119225323D01*
X109219000Y-117971322D01*
X109243541Y-117937543D01*
X109314999Y-117717621D01*
X109314999Y-117486379D01*
X109243541Y-117266456D01*
X109107622Y-117079378D01*
X108920544Y-116943459D01*
X108700621Y-116872001D01*
X108681574Y-116872001D01*
X108678186Y-116870045D01*
X108595345Y-116855438D01*
X108514108Y-116833671D01*
X108430331Y-116841000D01*
X108271476Y-116841000D01*
X108271476Y-116700590D01*
X108244453Y-116564731D01*
X108160465Y-116439035D01*
X108034769Y-116355047D01*
X107898910Y-116328024D01*
X107239090Y-116328024D01*
X107136200Y-116348489D01*
X107136200Y-113283000D01*
X107723516Y-113283000D01*
X107751052Y-113289231D01*
M02*
