G04 #@! TF.GenerationSoftware,KiCad,Pcbnew,5.99.0-unknown-d20d310~100~ubuntu18.04.1*
G04 #@! TF.CreationDate,2019-12-17T15:54:16+02:00*
G04 #@! TF.ProjectId,ESP32-PoE_Rev_E,45535033-322d-4506-9f45-5f5265765f45,E*
G04 #@! TF.SameCoordinates,Original*
G04 #@! TF.FileFunction,Legend,Bot*
G04 #@! TF.FilePolarity,Positive*
%FSLAX46Y46*%
G04 Gerber Fmt 4.6, Leading zero omitted, Abs format (unit mm)*
G04 Created by KiCad (PCBNEW 5.99.0-unknown-d20d310~100~ubuntu18.04.1) date 2019-12-17 15:54:16*
%MOMM*%
%LPD*%
G04 APERTURE LIST*
%ADD10C,0.254000*%
%ADD11C,0.190500*%
%ADD12C,0.508000*%
%ADD13C,0.158750*%
%ADD14C,0.150000*%
%ADD15C,0.152400*%
%ADD16C,0.127000*%
%ADD17C,1.000000*%
%ADD18C,0.370000*%
%ADD19C,0.380000*%
%ADD20C,0.400000*%
%ADD21C,0.420000*%
%ADD22C,0.100000*%
%ADD23C,0.700000*%
%ADD24C,0.500000*%
%ADD25C,0.200000*%
%ADD26C,0.139700*%
%ADD27C,0.222250*%
%ADD28C,0.125000*%
%ADD29C,0.177800*%
G04 APERTURE END LIST*
D10*
X98672952Y-163820928D02*
X99447047Y-163820928D01*
X94243071Y-163442952D02*
X94243071Y-164217047D01*
X94630119Y-163830000D02*
X93856023Y-163830000D01*
D11*
X108621285Y-108929714D02*
X109056714Y-108929714D01*
X108839000Y-108929714D02*
X108839000Y-108167714D01*
X108911571Y-108276571D01*
X108984142Y-108349142D01*
X109056714Y-108385428D01*
D10*
X99214819Y-105772857D02*
X99263200Y-105821238D01*
X99408342Y-105869619D01*
X99505104Y-105869619D01*
X99650247Y-105821238D01*
X99747009Y-105724476D01*
X99795390Y-105627714D01*
X99843771Y-105434190D01*
X99843771Y-105289047D01*
X99795390Y-105095523D01*
X99747009Y-104998761D01*
X99650247Y-104902000D01*
X99505104Y-104853619D01*
X99408342Y-104853619D01*
X99263200Y-104902000D01*
X99214819Y-104950380D01*
X98634247Y-105869619D02*
X98731009Y-105821238D01*
X98779390Y-105772857D01*
X98827771Y-105676095D01*
X98827771Y-105385809D01*
X98779390Y-105289047D01*
X98731009Y-105240666D01*
X98634247Y-105192285D01*
X98489104Y-105192285D01*
X98392342Y-105240666D01*
X98343961Y-105289047D01*
X98295580Y-105385809D01*
X98295580Y-105676095D01*
X98343961Y-105772857D01*
X98392342Y-105821238D01*
X98489104Y-105869619D01*
X98634247Y-105869619D01*
X97860152Y-105869619D02*
X97860152Y-105192285D01*
X97860152Y-105289047D02*
X97811771Y-105240666D01*
X97715009Y-105192285D01*
X97569866Y-105192285D01*
X97473104Y-105240666D01*
X97424723Y-105337428D01*
X97424723Y-105869619D01*
X97424723Y-105337428D02*
X97376342Y-105240666D01*
X97279580Y-105192285D01*
X97134438Y-105192285D01*
X97037676Y-105240666D01*
X96989295Y-105337428D01*
X96989295Y-105869619D01*
X96505485Y-105192285D02*
X96505485Y-106208285D01*
X96505485Y-105240666D02*
X96408723Y-105192285D01*
X96215200Y-105192285D01*
X96118438Y-105240666D01*
X96070057Y-105289047D01*
X96021676Y-105385809D01*
X96021676Y-105676095D01*
X96070057Y-105772857D01*
X96118438Y-105821238D01*
X96215200Y-105869619D01*
X96408723Y-105869619D01*
X96505485Y-105821238D01*
X95441104Y-105869619D02*
X95537866Y-105821238D01*
X95586247Y-105724476D01*
X95586247Y-104853619D01*
X95054057Y-105869619D02*
X95054057Y-105192285D01*
X95054057Y-104853619D02*
X95102438Y-104902000D01*
X95054057Y-104950380D01*
X95005676Y-104902000D01*
X95054057Y-104853619D01*
X95054057Y-104950380D01*
X94134819Y-105869619D02*
X94134819Y-105337428D01*
X94183200Y-105240666D01*
X94279961Y-105192285D01*
X94473485Y-105192285D01*
X94570247Y-105240666D01*
X94134819Y-105821238D02*
X94231580Y-105869619D01*
X94473485Y-105869619D01*
X94570247Y-105821238D01*
X94618628Y-105724476D01*
X94618628Y-105627714D01*
X94570247Y-105530952D01*
X94473485Y-105482571D01*
X94231580Y-105482571D01*
X94134819Y-105434190D01*
X93651009Y-105192285D02*
X93651009Y-105869619D01*
X93651009Y-105289047D02*
X93602628Y-105240666D01*
X93505866Y-105192285D01*
X93360723Y-105192285D01*
X93263961Y-105240666D01*
X93215580Y-105337428D01*
X93215580Y-105869619D01*
X92876914Y-105192285D02*
X92489866Y-105192285D01*
X92731771Y-104853619D02*
X92731771Y-105724476D01*
X92683390Y-105821238D01*
X92586628Y-105869619D01*
X92489866Y-105869619D01*
X99205142Y-103964619D02*
X99543809Y-103480809D01*
X99785714Y-103964619D02*
X99785714Y-102948619D01*
X99398666Y-102948619D01*
X99301904Y-102997000D01*
X99253523Y-103045380D01*
X99205142Y-103142142D01*
X99205142Y-103287285D01*
X99253523Y-103384047D01*
X99301904Y-103432428D01*
X99398666Y-103480809D01*
X99785714Y-103480809D01*
X98624571Y-103964619D02*
X98721333Y-103916238D01*
X98769714Y-103867857D01*
X98818095Y-103771095D01*
X98818095Y-103480809D01*
X98769714Y-103384047D01*
X98721333Y-103335666D01*
X98624571Y-103287285D01*
X98479428Y-103287285D01*
X98382666Y-103335666D01*
X98334285Y-103384047D01*
X98285904Y-103480809D01*
X98285904Y-103771095D01*
X98334285Y-103867857D01*
X98382666Y-103916238D01*
X98479428Y-103964619D01*
X98624571Y-103964619D01*
X97850476Y-103964619D02*
X97850476Y-102948619D01*
X97850476Y-103432428D02*
X97269904Y-103432428D01*
X97269904Y-103964619D02*
X97269904Y-102948619D01*
X96834476Y-103916238D02*
X96689333Y-103964619D01*
X96447428Y-103964619D01*
X96350666Y-103916238D01*
X96302285Y-103867857D01*
X96253904Y-103771095D01*
X96253904Y-103674333D01*
X96302285Y-103577571D01*
X96350666Y-103529190D01*
X96447428Y-103480809D01*
X96640952Y-103432428D01*
X96737714Y-103384047D01*
X96786095Y-103335666D01*
X96834476Y-103238904D01*
X96834476Y-103142142D01*
X96786095Y-103045380D01*
X96737714Y-102997000D01*
X96640952Y-102948619D01*
X96399047Y-102948619D01*
X96253904Y-102997000D01*
X115787714Y-121490619D02*
X116368285Y-121490619D01*
X116078000Y-121490619D02*
X116078000Y-120474619D01*
X116174761Y-120619761D01*
X116271523Y-120716523D01*
X116368285Y-120764904D01*
X91149714Y-121490619D02*
X91730285Y-121490619D01*
X91440000Y-121490619D02*
X91440000Y-120474619D01*
X91536761Y-120619761D01*
X91633523Y-120716523D01*
X91730285Y-120764904D01*
D12*
X112098666Y-96755857D02*
X111421333Y-96755857D01*
X111131047Y-97820238D02*
X112098666Y-97820238D01*
X112098666Y-95788238D01*
X111131047Y-95788238D01*
X110356952Y-97723476D02*
X110066666Y-97820238D01*
X109582857Y-97820238D01*
X109389333Y-97723476D01*
X109292571Y-97626714D01*
X109195809Y-97433190D01*
X109195809Y-97239666D01*
X109292571Y-97046142D01*
X109389333Y-96949380D01*
X109582857Y-96852619D01*
X109969904Y-96755857D01*
X110163428Y-96659095D01*
X110260190Y-96562333D01*
X110356952Y-96368809D01*
X110356952Y-96175285D01*
X110260190Y-95981761D01*
X110163428Y-95885000D01*
X109969904Y-95788238D01*
X109486095Y-95788238D01*
X109195809Y-95885000D01*
X108324952Y-97820238D02*
X108324952Y-95788238D01*
X107550857Y-95788238D01*
X107357333Y-95885000D01*
X107260571Y-95981761D01*
X107163809Y-96175285D01*
X107163809Y-96465571D01*
X107260571Y-96659095D01*
X107357333Y-96755857D01*
X107550857Y-96852619D01*
X108324952Y-96852619D01*
X106486476Y-95788238D02*
X105228571Y-95788238D01*
X105905904Y-96562333D01*
X105615619Y-96562333D01*
X105422095Y-96659095D01*
X105325333Y-96755857D01*
X105228571Y-96949380D01*
X105228571Y-97433190D01*
X105325333Y-97626714D01*
X105422095Y-97723476D01*
X105615619Y-97820238D01*
X106196190Y-97820238D01*
X106389714Y-97723476D01*
X106486476Y-97626714D01*
X104454476Y-95981761D02*
X104357714Y-95885000D01*
X104164190Y-95788238D01*
X103680380Y-95788238D01*
X103486857Y-95885000D01*
X103390095Y-95981761D01*
X103293333Y-96175285D01*
X103293333Y-96368809D01*
X103390095Y-96659095D01*
X104551238Y-97820238D01*
X103293333Y-97820238D01*
X102422476Y-97046142D02*
X100874285Y-97046142D01*
X99906666Y-97820238D02*
X99906666Y-95788238D01*
X99132571Y-95788238D01*
X98939047Y-95885000D01*
X98842285Y-95981761D01*
X98745523Y-96175285D01*
X98745523Y-96465571D01*
X98842285Y-96659095D01*
X98939047Y-96755857D01*
X99132571Y-96852619D01*
X99906666Y-96852619D01*
X97584380Y-97820238D02*
X97777904Y-97723476D01*
X97874666Y-97626714D01*
X97971428Y-97433190D01*
X97971428Y-96852619D01*
X97874666Y-96659095D01*
X97777904Y-96562333D01*
X97584380Y-96465571D01*
X97294095Y-96465571D01*
X97100571Y-96562333D01*
X97003809Y-96659095D01*
X96907047Y-96852619D01*
X96907047Y-97433190D01*
X97003809Y-97626714D01*
X97100571Y-97723476D01*
X97294095Y-97820238D01*
X97584380Y-97820238D01*
X96036190Y-96755857D02*
X95358857Y-96755857D01*
X95068571Y-97820238D02*
X96036190Y-97820238D01*
X96036190Y-95788238D01*
X95068571Y-95788238D01*
D13*
X101935642Y-134768166D02*
X101965880Y-134737928D01*
X102026357Y-134647214D01*
X102056595Y-134586738D01*
X102086833Y-134496023D01*
X102117071Y-134344833D01*
X102117071Y-134223880D01*
X102086833Y-134072690D01*
X102056595Y-133981976D01*
X102026357Y-133921500D01*
X101965880Y-133830785D01*
X101935642Y-133800547D01*
X101330880Y-134465785D02*
X101361119Y-134496023D01*
X101451833Y-134526261D01*
X101512309Y-134526261D01*
X101603023Y-134496023D01*
X101663500Y-134435547D01*
X101693738Y-134375071D01*
X101723976Y-134254119D01*
X101723976Y-134163404D01*
X101693738Y-134042452D01*
X101663500Y-133981976D01*
X101603023Y-133921500D01*
X101512309Y-133891261D01*
X101451833Y-133891261D01*
X101361119Y-133921500D01*
X101330880Y-133951738D01*
X101119214Y-134768166D02*
X101088976Y-134737928D01*
X101028500Y-134647214D01*
X100998261Y-134586738D01*
X100968023Y-134496023D01*
X100937785Y-134344833D01*
X100937785Y-134223880D01*
X100968023Y-134072690D01*
X100998261Y-133981976D01*
X101028500Y-133921500D01*
X101088976Y-133830785D01*
X101119214Y-133800547D01*
X100181833Y-133951738D02*
X100151595Y-133921500D01*
X100091119Y-133891261D01*
X99939928Y-133891261D01*
X99879452Y-133921500D01*
X99849214Y-133951738D01*
X99818976Y-134012214D01*
X99818976Y-134072690D01*
X99849214Y-134163404D01*
X100212071Y-134526261D01*
X99818976Y-134526261D01*
X99425880Y-133891261D02*
X99365404Y-133891261D01*
X99304928Y-133921500D01*
X99274690Y-133951738D01*
X99244452Y-134012214D01*
X99214214Y-134133166D01*
X99214214Y-134284357D01*
X99244452Y-134405309D01*
X99274690Y-134465785D01*
X99304928Y-134496023D01*
X99365404Y-134526261D01*
X99425880Y-134526261D01*
X99486357Y-134496023D01*
X99516595Y-134465785D01*
X99546833Y-134405309D01*
X99577071Y-134284357D01*
X99577071Y-134133166D01*
X99546833Y-134012214D01*
X99516595Y-133951738D01*
X99486357Y-133921500D01*
X99425880Y-133891261D01*
X98972309Y-133951738D02*
X98942071Y-133921500D01*
X98881595Y-133891261D01*
X98730404Y-133891261D01*
X98669928Y-133921500D01*
X98639690Y-133951738D01*
X98609452Y-134012214D01*
X98609452Y-134072690D01*
X98639690Y-134163404D01*
X99002547Y-134526261D01*
X98609452Y-134526261D01*
X98216357Y-133891261D02*
X98155880Y-133891261D01*
X98095404Y-133921500D01*
X98065166Y-133951738D01*
X98034928Y-134012214D01*
X98004690Y-134133166D01*
X98004690Y-134284357D01*
X98034928Y-134405309D01*
X98065166Y-134465785D01*
X98095404Y-134496023D01*
X98155880Y-134526261D01*
X98216357Y-134526261D01*
X98276833Y-134496023D01*
X98307071Y-134465785D01*
X98337309Y-134405309D01*
X98367547Y-134284357D01*
X98367547Y-134133166D01*
X98337309Y-134012214D01*
X98307071Y-133951738D01*
X98276833Y-133921500D01*
X98216357Y-133891261D01*
D10*
X111608809Y-99964119D02*
X111608809Y-98948119D01*
X111173380Y-99964119D02*
X111173380Y-99431928D01*
X111221761Y-99335166D01*
X111318523Y-99286785D01*
X111463666Y-99286785D01*
X111560428Y-99335166D01*
X111608809Y-99383547D01*
X110834714Y-99286785D02*
X110447666Y-99286785D01*
X110689571Y-98948119D02*
X110689571Y-99818976D01*
X110641190Y-99915738D01*
X110544428Y-99964119D01*
X110447666Y-99964119D01*
X110254142Y-99286785D02*
X109867095Y-99286785D01*
X110109000Y-98948119D02*
X110109000Y-99818976D01*
X110060619Y-99915738D01*
X109963857Y-99964119D01*
X109867095Y-99964119D01*
X109528428Y-99286785D02*
X109528428Y-100302785D01*
X109528428Y-99335166D02*
X109431666Y-99286785D01*
X109238142Y-99286785D01*
X109141380Y-99335166D01*
X109093000Y-99383547D01*
X109044619Y-99480309D01*
X109044619Y-99770595D01*
X109093000Y-99867357D01*
X109141380Y-99915738D01*
X109238142Y-99964119D01*
X109431666Y-99964119D01*
X109528428Y-99915738D01*
X108657571Y-99915738D02*
X108560809Y-99964119D01*
X108367285Y-99964119D01*
X108270523Y-99915738D01*
X108222142Y-99818976D01*
X108222142Y-99770595D01*
X108270523Y-99673833D01*
X108367285Y-99625452D01*
X108512428Y-99625452D01*
X108609190Y-99577071D01*
X108657571Y-99480309D01*
X108657571Y-99431928D01*
X108609190Y-99335166D01*
X108512428Y-99286785D01*
X108367285Y-99286785D01*
X108270523Y-99335166D01*
X107786714Y-99867357D02*
X107738333Y-99915738D01*
X107786714Y-99964119D01*
X107835095Y-99915738D01*
X107786714Y-99867357D01*
X107786714Y-99964119D01*
X107786714Y-99335166D02*
X107738333Y-99383547D01*
X107786714Y-99431928D01*
X107835095Y-99383547D01*
X107786714Y-99335166D01*
X107786714Y-99431928D01*
X106577190Y-98899738D02*
X107448047Y-100206023D01*
X105512809Y-98899738D02*
X106383666Y-100206023D01*
X105270904Y-99286785D02*
X105077380Y-99964119D01*
X104883857Y-99480309D01*
X104690333Y-99964119D01*
X104496809Y-99286785D01*
X104206523Y-99286785D02*
X104013000Y-99964119D01*
X103819476Y-99480309D01*
X103625952Y-99964119D01*
X103432428Y-99286785D01*
X103142142Y-99286785D02*
X102948619Y-99964119D01*
X102755095Y-99480309D01*
X102561571Y-99964119D01*
X102368047Y-99286785D01*
X101981000Y-99867357D02*
X101932619Y-99915738D01*
X101981000Y-99964119D01*
X102029380Y-99915738D01*
X101981000Y-99867357D01*
X101981000Y-99964119D01*
X101352047Y-99964119D02*
X101448809Y-99915738D01*
X101497190Y-99867357D01*
X101545571Y-99770595D01*
X101545571Y-99480309D01*
X101497190Y-99383547D01*
X101448809Y-99335166D01*
X101352047Y-99286785D01*
X101206904Y-99286785D01*
X101110142Y-99335166D01*
X101061761Y-99383547D01*
X101013380Y-99480309D01*
X101013380Y-99770595D01*
X101061761Y-99867357D01*
X101110142Y-99915738D01*
X101206904Y-99964119D01*
X101352047Y-99964119D01*
X100432809Y-99964119D02*
X100529571Y-99915738D01*
X100577952Y-99818976D01*
X100577952Y-98948119D01*
X100045761Y-99964119D02*
X100045761Y-99286785D01*
X100045761Y-98948119D02*
X100094142Y-98996500D01*
X100045761Y-99044880D01*
X99997380Y-98996500D01*
X100045761Y-98948119D01*
X100045761Y-99044880D01*
X99561952Y-99964119D02*
X99561952Y-99286785D01*
X99561952Y-99383547D02*
X99513571Y-99335166D01*
X99416809Y-99286785D01*
X99271666Y-99286785D01*
X99174904Y-99335166D01*
X99126523Y-99431928D01*
X99126523Y-99964119D01*
X99126523Y-99431928D02*
X99078142Y-99335166D01*
X98981380Y-99286785D01*
X98836238Y-99286785D01*
X98739476Y-99335166D01*
X98691095Y-99431928D01*
X98691095Y-99964119D01*
X97820238Y-99915738D02*
X97917000Y-99964119D01*
X98110523Y-99964119D01*
X98207285Y-99915738D01*
X98255666Y-99818976D01*
X98255666Y-99431928D01*
X98207285Y-99335166D01*
X98110523Y-99286785D01*
X97917000Y-99286785D01*
X97820238Y-99335166D01*
X97771857Y-99431928D01*
X97771857Y-99528690D01*
X98255666Y-99625452D01*
X97433190Y-99964119D02*
X96901000Y-99286785D01*
X97433190Y-99286785D02*
X96901000Y-99964119D01*
X96513952Y-99867357D02*
X96465571Y-99915738D01*
X96513952Y-99964119D01*
X96562333Y-99915738D01*
X96513952Y-99867357D01*
X96513952Y-99964119D01*
X95594714Y-99915738D02*
X95691476Y-99964119D01*
X95885000Y-99964119D01*
X95981761Y-99915738D01*
X96030142Y-99867357D01*
X96078523Y-99770595D01*
X96078523Y-99480309D01*
X96030142Y-99383547D01*
X95981761Y-99335166D01*
X95885000Y-99286785D01*
X95691476Y-99286785D01*
X95594714Y-99335166D01*
X95014142Y-99964119D02*
X95110904Y-99915738D01*
X95159285Y-99867357D01*
X95207666Y-99770595D01*
X95207666Y-99480309D01*
X95159285Y-99383547D01*
X95110904Y-99335166D01*
X95014142Y-99286785D01*
X94869000Y-99286785D01*
X94772238Y-99335166D01*
X94723857Y-99383547D01*
X94675476Y-99480309D01*
X94675476Y-99770595D01*
X94723857Y-99867357D01*
X94772238Y-99915738D01*
X94869000Y-99964119D01*
X95014142Y-99964119D01*
X94240047Y-99964119D02*
X94240047Y-99286785D01*
X94240047Y-99383547D02*
X94191666Y-99335166D01*
X94094904Y-99286785D01*
X93949761Y-99286785D01*
X93853000Y-99335166D01*
X93804619Y-99431928D01*
X93804619Y-99964119D01*
X93804619Y-99431928D02*
X93756238Y-99335166D01*
X93659476Y-99286785D01*
X93514333Y-99286785D01*
X93417571Y-99335166D01*
X93369190Y-99431928D01*
X93369190Y-99964119D01*
D14*
X113919000Y-129794000D02*
X112903000Y-129794000D01*
X114173000Y-129032000D02*
X114173000Y-129540000D01*
X112903000Y-128778000D02*
X113919000Y-128778000D01*
X112649000Y-129540000D02*
X112649000Y-129032000D01*
D15*
X112649000Y-129032000D02*
G75*
G02X112903000Y-128778000I254000J0D01*
G01*
X113919000Y-128778000D02*
G75*
G02X114173000Y-129032000I0J-254000D01*
G01*
X114173000Y-129540000D02*
G75*
G02X113919000Y-129794000I-254000J0D01*
G01*
X112903000Y-129794000D02*
G75*
G02X112649000Y-129540000I0J254000D01*
G01*
D14*
X112903000Y-133731000D02*
X113919000Y-133731000D01*
X112649000Y-134493000D02*
X112649000Y-133985000D01*
X113919000Y-134747000D02*
X112903000Y-134747000D01*
X114173000Y-133985000D02*
X114173000Y-134493000D01*
D15*
X114173000Y-134493000D02*
G75*
G02X113919000Y-134747000I-254000J0D01*
G01*
X112903000Y-134747000D02*
G75*
G02X112649000Y-134493000I0J254000D01*
G01*
X112649000Y-133985000D02*
G75*
G02X112903000Y-133731000I254000J0D01*
G01*
X113919000Y-133731000D02*
G75*
G02X114173000Y-133985000I0J-254000D01*
G01*
D10*
X91440000Y-167449500D02*
X91186000Y-167449500D01*
X91440000Y-167449500D02*
X91694000Y-167449500D01*
X91440000Y-166560500D02*
X91694000Y-166560500D01*
X91440000Y-166560500D02*
X91186000Y-166560500D01*
X91440000Y-165671500D02*
X91694000Y-165671500D01*
X91440000Y-165671500D02*
X91186000Y-165671500D01*
X91440000Y-166560500D02*
X91186000Y-166560500D01*
X91440000Y-166560500D02*
X91694000Y-166560500D01*
X92316300Y-159740600D02*
X92316300Y-157264100D01*
X93268800Y-159156400D02*
X92354400Y-157784800D01*
X92354400Y-157784800D02*
X91363800Y-159156400D01*
X93268800Y-157784800D02*
X91363800Y-157784800D01*
X93268800Y-159156400D02*
X91363800Y-159156400D01*
X93268800Y-157607000D02*
X91363800Y-157607000D01*
X91363800Y-157784800D02*
X91363800Y-157607000D01*
X93268800Y-157784800D02*
X93268800Y-157607000D01*
X91567000Y-159004000D02*
X93091000Y-159004000D01*
X92964000Y-158877000D02*
X91694000Y-158877000D01*
X91821000Y-158750000D02*
X92964000Y-158750000D01*
X92710000Y-158623000D02*
X91821000Y-158623000D01*
X92710000Y-158496000D02*
X91948000Y-158496000D01*
X92583000Y-158369000D02*
X91948000Y-158369000D01*
X92456000Y-158242000D02*
X92075000Y-158242000D01*
X94373700Y-157251400D02*
X94373700Y-159727900D01*
X93421200Y-157835600D02*
X94335600Y-159207200D01*
X94335600Y-159207200D02*
X95326200Y-157835600D01*
X93421200Y-159207200D02*
X95326200Y-159207200D01*
X93421200Y-157835600D02*
X95326200Y-157835600D01*
X93421200Y-159385000D02*
X95326200Y-159385000D01*
X95326200Y-159207200D02*
X95326200Y-159385000D01*
X93421200Y-159207200D02*
X93421200Y-159385000D01*
X95123000Y-157988000D02*
X93599000Y-157988000D01*
X93726000Y-158115000D02*
X94996000Y-158115000D01*
X94869000Y-158242000D02*
X93726000Y-158242000D01*
X93980000Y-158369000D02*
X94869000Y-158369000D01*
X93980000Y-158496000D02*
X94742000Y-158496000D01*
X94107000Y-158623000D02*
X94742000Y-158623000D01*
X94234000Y-158750000D02*
X94615000Y-158750000D01*
X106045000Y-126111000D02*
X105791000Y-126111000D01*
X106045000Y-126111000D02*
X106299000Y-126111000D01*
X106045000Y-125222000D02*
X106299000Y-125222000D01*
X106045000Y-125222000D02*
X105791000Y-125222000D01*
X91440000Y-168338500D02*
X91186000Y-168338500D01*
X91440000Y-168338500D02*
X91694000Y-168338500D01*
X91440000Y-167449500D02*
X91694000Y-167449500D01*
X91440000Y-167449500D02*
X91186000Y-167449500D01*
X92837000Y-101409500D02*
X93091000Y-101409500D01*
X92837000Y-101409500D02*
X92583000Y-101409500D01*
X92837000Y-102298500D02*
X92583000Y-102298500D01*
X92837000Y-102298500D02*
X93091000Y-102298500D01*
X97790000Y-168846500D02*
X97536000Y-168846500D01*
X97790000Y-168846500D02*
X98044000Y-168846500D01*
X97790000Y-167957500D02*
X98044000Y-167957500D01*
X97790000Y-167957500D02*
X97536000Y-167957500D01*
X95300800Y-168478200D02*
X94170500Y-168478200D01*
X95300800Y-165671500D02*
X94170500Y-165671500D01*
D16*
X97548700Y-158242000D02*
X98386900Y-158242000D01*
X97548700Y-160020000D02*
X98386900Y-160020000D01*
D17*
X107104180Y-164706300D02*
X106771440Y-165437820D01*
X107104180Y-164797740D02*
X105923080Y-165811200D01*
X106989880Y-164660580D02*
X106372660Y-164988240D01*
X106669840Y-164241480D02*
X106060240Y-164348160D01*
X105834180Y-163083240D02*
X106555540Y-163230560D01*
X106075480Y-162389820D02*
X106730800Y-162755580D01*
X106944160Y-161521140D02*
X107363260Y-162107880D01*
X107530900Y-161269680D02*
X107751880Y-161955480D01*
X108795820Y-161254440D02*
X108628180Y-161864040D01*
X109230160Y-161513520D02*
X109054900Y-161871660D01*
X110228380Y-162290760D02*
X109771180Y-162580320D01*
X110403640Y-162770820D02*
X109961680Y-162930840D01*
X110728760Y-164015420D02*
X110022640Y-163888420D01*
X110479840Y-164660580D02*
X109915960Y-164180520D01*
X109814360Y-165559740D02*
X109448600Y-164797740D01*
X105023920Y-163507420D02*
X106492040Y-163593780D01*
X106014520Y-161323020D02*
X107127040Y-162389820D01*
X108280200Y-160266380D02*
X108275120Y-161780220D01*
X110540800Y-161241740D02*
X109479080Y-162349180D01*
X111526320Y-163527740D02*
X110109000Y-163466780D01*
X110490000Y-165732460D02*
X109636560Y-164711380D01*
D14*
X109474000Y-164302440D02*
X109166660Y-164569140D01*
X109804200Y-161389060D02*
X108821220Y-160896300D01*
X107624880Y-164894260D02*
X107746800Y-164609780D01*
X107487720Y-164439600D02*
X107741720Y-164604700D01*
X108988860Y-164437060D02*
X108762800Y-164612320D01*
X109357160Y-164322760D02*
X109098080Y-164660580D01*
X109580680Y-164101780D02*
X109486700Y-164271960D01*
X109580680Y-164101780D02*
X109486700Y-164271960D01*
X109717840Y-163248340D02*
X109585760Y-164071300D01*
X109293660Y-162511740D02*
X109712760Y-163243260D01*
X108422440Y-162082480D02*
X109293660Y-162511740D01*
X107607100Y-162250120D02*
X108422440Y-162090100D01*
X107096560Y-162679380D02*
X107607100Y-162250120D01*
X106862880Y-163352480D02*
X107096560Y-162679380D01*
X106867960Y-163857940D02*
X106867960Y-163339780D01*
X107243880Y-164569140D02*
X106867960Y-163857940D01*
X107421680Y-164691060D02*
X107243880Y-164569140D01*
X110693200Y-160670240D02*
X109809280Y-161391600D01*
X110449360Y-162024060D02*
X111051340Y-161114740D01*
X110454440Y-162018980D02*
X110840520Y-163017200D01*
X111983520Y-163286440D02*
X110868460Y-163040060D01*
X111841280Y-163230560D02*
X111841280Y-163880800D01*
X107464860Y-164632640D02*
X106936540Y-166014400D01*
X107073700Y-166311580D02*
X107459780Y-165331140D01*
X106545380Y-165983920D02*
X107073700Y-166311580D01*
X105862120Y-166316660D02*
X106682540Y-165788340D01*
X106725720Y-166011860D02*
X105849420Y-166631620D01*
X105839260Y-166626540D02*
X105156000Y-165935660D01*
X105443020Y-165851840D02*
X105928160Y-166382700D01*
X105410000Y-164216080D02*
X105791000Y-165196520D01*
X105514140Y-164249100D02*
X104391460Y-164038280D01*
X104376220Y-163060380D02*
X104378760Y-164017960D01*
X104460040Y-163802060D02*
X105567480Y-164025580D01*
X105763060Y-162031680D02*
X105397300Y-162900360D01*
X105148380Y-161150300D02*
X105851960Y-162140900D01*
X105846880Y-160451800D02*
X105153460Y-161142680D01*
X106862880Y-161127440D02*
X105851960Y-160454340D01*
X107548680Y-160741360D02*
X106743500Y-161079180D01*
X107764580Y-159651700D02*
X107538520Y-160822640D01*
X108729780Y-159651700D02*
X107764580Y-159651700D01*
X108739940Y-159659320D02*
X108940600Y-160685480D01*
X109728000Y-161053780D02*
X108823760Y-160675320D01*
X110662720Y-160406080D02*
X109692440Y-161122360D01*
X111348520Y-161122360D02*
X110675420Y-160408620D01*
X111328200Y-161157920D02*
X110733840Y-162011360D01*
X111066580Y-162841940D02*
X110731300Y-162008820D01*
X112135920Y-163040060D02*
X110964980Y-162836860D01*
X112133380Y-163042600D02*
X112133380Y-164028120D01*
X112133380Y-164035740D02*
X111061500Y-164231320D01*
X111371380Y-165943280D02*
X110774480Y-165079680D01*
X110642400Y-166639240D02*
X111363760Y-165945820D01*
X109809280Y-166067740D02*
X110634780Y-166631620D01*
X109796580Y-166077900D02*
X109451140Y-166298880D01*
X109413040Y-166281100D02*
X108762800Y-164612320D01*
D18*
X105846880Y-166471600D02*
X105293160Y-165925500D01*
X105912920Y-165031420D02*
X105293160Y-165917880D01*
X109169200Y-162633660D02*
G75*
G02X109093000Y-164487860I-965200J-889000D01*
G01*
X107218480Y-162806380D02*
G75*
G02X109143800Y-162608260I1061720J-863600D01*
G01*
X107599480Y-164655500D02*
G75*
G02X107228640Y-162791140I746760J1117600D01*
G01*
X107035600Y-166098220D02*
X107609640Y-164658040D01*
X106697780Y-165912800D02*
X107035600Y-166098220D01*
X105862120Y-166479220D02*
X106697780Y-165912800D01*
X105506520Y-164119560D02*
X105912920Y-165031420D01*
X104493060Y-163949380D02*
X105506520Y-164119560D01*
X104493060Y-163113720D02*
X104493060Y-163949380D01*
X105575100Y-162885120D02*
X104493060Y-163113720D01*
X105915460Y-161947860D02*
X105575100Y-162885120D01*
X105298240Y-161157920D02*
X105915460Y-161947860D01*
X105851960Y-160609280D02*
X105298240Y-161155380D01*
X106756200Y-161241740D02*
X105851960Y-160607300D01*
X107670600Y-160797240D02*
X106768900Y-161246820D01*
X107883960Y-159778700D02*
X107670600Y-160797240D01*
X108651040Y-159758380D02*
X107866180Y-159758380D01*
X108643420Y-159771080D02*
X108849160Y-160784540D01*
X109748320Y-161211260D02*
X108902500Y-160804860D01*
X110637320Y-160568640D02*
X109809280Y-161221420D01*
D19*
X111185960Y-161127440D02*
X110685580Y-160594040D01*
D18*
X111175800Y-161150300D02*
X110619540Y-162001200D01*
X110947200Y-162918140D02*
X110599220Y-162052000D01*
X111996220Y-163134040D02*
X110977680Y-162953700D01*
D19*
X111983520Y-163146740D02*
X111988600Y-163934140D01*
D18*
X111993680Y-163923980D02*
X111043720Y-164142420D01*
X111015780Y-164165280D02*
X110657640Y-165049200D01*
X111191040Y-165925500D02*
X110657640Y-165092380D01*
D19*
X111206280Y-165925500D02*
X110642400Y-166463980D01*
D20*
X110629700Y-166463980D02*
X109849920Y-165933120D01*
D18*
X109839760Y-165915340D02*
X109522260Y-166121080D01*
D21*
X109494320Y-166100760D02*
X108943140Y-164678360D01*
D10*
X96837500Y-124587000D02*
X96837500Y-124333000D01*
X96837500Y-124587000D02*
X96837500Y-124841000D01*
X97726500Y-124587000D02*
X97726500Y-124841000D01*
X97726500Y-124587000D02*
X97726500Y-124333000D01*
X98171000Y-126365000D02*
X99187000Y-126365000D01*
X98171000Y-127889000D02*
X99187000Y-127889000D01*
X108331000Y-126111000D02*
X108077000Y-126111000D01*
X108331000Y-126111000D02*
X108585000Y-126111000D01*
X108331000Y-125222000D02*
X108585000Y-125222000D01*
X108331000Y-125222000D02*
X108077000Y-125222000D01*
D22*
X102374700Y-135204200D02*
X101003100Y-135204200D01*
X101003100Y-135204200D02*
X100952300Y-135204200D01*
X100952300Y-135204200D02*
X99695000Y-136448800D01*
X103898700Y-135318500D02*
X103797100Y-135318500D01*
X103746300Y-135255000D02*
X103746300Y-135242300D01*
X103746300Y-135242300D02*
X105041700Y-135242300D01*
X105041700Y-135242300D02*
X105067100Y-135242300D01*
X105067100Y-135242300D02*
X105689400Y-135737600D01*
X103746300Y-138264900D02*
X103746300Y-135255000D01*
X107403900Y-135305800D02*
X107480100Y-135305800D01*
X107556300Y-135242300D02*
X106311700Y-135242300D01*
X106311700Y-135242300D02*
X105727500Y-135724900D01*
X107556300Y-138239500D02*
X107556300Y-135255000D01*
X108292900Y-137833100D02*
X108204000Y-137833100D01*
X108635800Y-137833100D02*
X108699300Y-137833100D01*
X108775500Y-137896600D02*
X108165900Y-137896600D01*
X108165900Y-137896600D02*
X108140500Y-137896600D01*
X108140500Y-137896600D02*
X108140500Y-135877300D01*
X108775500Y-135877300D02*
X108775500Y-137896600D01*
X110274100Y-135267700D02*
X110159800Y-135267700D01*
X110401100Y-135191500D02*
X110096300Y-135191500D01*
X110096300Y-135191500D02*
X110096300Y-138226800D01*
X110578900Y-135280400D02*
X110642400Y-135267700D01*
X110693200Y-135191500D02*
X110705900Y-135191500D01*
X110705900Y-135191500D02*
X110718600Y-135191500D01*
X110718600Y-135191500D02*
X110718600Y-138341100D01*
X110413800Y-135191500D02*
X110693200Y-135191500D01*
D23*
X110413800Y-138264900D02*
X110413800Y-135534400D01*
X104076500Y-135547100D02*
X104076500Y-138150600D01*
X112191800Y-135534400D02*
X113195100Y-135534400D01*
X111569500Y-136144000D02*
X111569500Y-138074400D01*
X113792000Y-136182100D02*
X113792000Y-136423400D01*
X113792000Y-138150600D02*
X113207800Y-138722100D01*
X113779300Y-138163300D02*
X113779300Y-137401300D01*
X113220500Y-138722100D02*
X112179100Y-138722100D01*
D20*
X101451659Y-137109200D02*
G75*
G03X101451659Y-137109200I-359659J0D01*
G01*
D23*
X101600000Y-137109200D02*
X102819200Y-137109200D01*
D20*
X98517735Y-135369300D02*
G75*
G03X98517735Y-135369300I-359435J0D01*
G01*
D23*
X98526600Y-135724900D02*
X99390200Y-136618600D01*
D24*
X99949000Y-136715500D02*
X99390200Y-136715500D01*
D23*
X101066600Y-135534400D02*
X99974400Y-136601200D01*
X102288500Y-135534400D02*
X101066600Y-135534400D01*
X102819200Y-136017000D02*
X102336600Y-135509000D01*
X102819200Y-136042400D02*
X102819200Y-138277600D01*
X102819200Y-138277600D02*
X102387400Y-138709400D01*
X102387400Y-138709400D02*
X101066600Y-138709400D01*
X101066600Y-138709400D02*
X99923600Y-137591800D01*
D24*
X99923600Y-137490200D02*
X99390200Y-137490200D01*
D23*
X98577400Y-138404600D02*
X99415600Y-137591800D01*
D20*
X98576666Y-138760200D02*
G75*
G03X98576666Y-138760200I-329466J0D01*
G01*
X104439729Y-138671300D02*
G75*
G03X104439729Y-138671300I-363229J0D01*
G01*
D23*
X104978200Y-135559800D02*
X104089200Y-135559800D01*
D20*
X106060318Y-137388600D02*
G75*
G03X106060318Y-137388600I-370918J0D01*
G01*
D23*
X105613200Y-136067800D02*
X104978200Y-135559800D01*
X105689400Y-136855200D02*
X105689400Y-136144000D01*
X106400600Y-135559800D02*
X105791000Y-136067800D01*
X107238800Y-135559800D02*
X106400600Y-135559800D01*
X107238800Y-138150600D02*
X107238800Y-135559800D01*
D20*
X107585759Y-138658600D02*
G75*
G03X107585759Y-138658600I-359659J0D01*
G01*
X108818818Y-135458200D02*
G75*
G03X108818818Y-135458200I-373518J0D01*
G01*
D23*
X108458000Y-135991600D02*
X108458000Y-137591800D01*
D20*
X108824324Y-138684000D02*
G75*
G03X108824324Y-138684000I-366324J0D01*
G01*
D23*
X108970800Y-138709400D02*
X109956600Y-138709400D01*
X109956600Y-138709400D02*
X110413800Y-138252200D01*
X111582200Y-138112500D02*
X112141000Y-138696700D01*
X112191800Y-135547100D02*
X111556800Y-136156700D01*
X113792000Y-136131300D02*
X113284000Y-135623300D01*
D20*
X114116747Y-136906000D02*
G75*
G03X114116747Y-136906000I-337447J0D01*
G01*
D16*
X114363500Y-101854000D02*
G75*
G03X114363500Y-101854000I-127000J0D01*
G01*
D10*
X114109500Y-98552000D02*
G75*
G02X116395500Y-98552000I1143000J-1143000D01*
G01*
X115379500Y-97790000D02*
X115379500Y-97917000D01*
X115379500Y-97917000D02*
X114998500Y-97917000D01*
X114998500Y-97917000D02*
X114998500Y-97790000D01*
X114998500Y-97790000D02*
X115379500Y-97790000D01*
X115252500Y-99314000D02*
X114617500Y-99314000D01*
X115379500Y-99187000D02*
X114490500Y-99187000D01*
X114490500Y-99187000D02*
X114490500Y-99568000D01*
X114490500Y-99568000D02*
X115379500Y-99568000D01*
X115379500Y-99568000D02*
X115379500Y-99187000D01*
X113982500Y-99187000D02*
X113982500Y-98806000D01*
X113982500Y-98806000D02*
X113855500Y-98806000D01*
X113855500Y-98806000D02*
X113855500Y-99187000D01*
X113982500Y-98806000D02*
X113982500Y-98933000D01*
X113982500Y-98679000D02*
X113855500Y-99060000D01*
X113982500Y-98806000D02*
X113982500Y-98933000D01*
X114109500Y-98679000D02*
X114109500Y-99187000D01*
X114109500Y-99187000D02*
X113728500Y-99187000D01*
X113728500Y-99187000D02*
X113728500Y-98679000D01*
X116141500Y-98552000D02*
X116141500Y-98044000D01*
X116141500Y-98044000D02*
X116014500Y-98044000D01*
X116014500Y-98044000D02*
X116014500Y-98552000D01*
X114638109Y-101854000D02*
G75*
G03X114638109Y-101854000I-401609J0D01*
G01*
X114236500Y-101346000D02*
X114109500Y-99314000D01*
X116141500Y-101854000D02*
X116141500Y-102235000D01*
X116141500Y-102235000D02*
X115633500Y-102235000D01*
X115633500Y-102235000D02*
X115633500Y-101981000D01*
X116649500Y-98679000D02*
X113728500Y-98679000D01*
X116141500Y-101854000D02*
X116395500Y-98806000D01*
X116141500Y-101854000D02*
X114744500Y-101854000D01*
X117157500Y-102235000D02*
X113093500Y-98298000D01*
X117284500Y-98171000D02*
X113093500Y-102362000D01*
D14*
X117439700Y-103607400D02*
X113020100Y-103607400D01*
X113020100Y-103505800D02*
X117388900Y-103505800D01*
X117439700Y-103302600D02*
X112969300Y-103302600D01*
X117439700Y-103150200D02*
X113020100Y-103150200D01*
X112969300Y-103404200D02*
X117388900Y-103404200D01*
X112969300Y-103251800D02*
X117388900Y-103251800D01*
X117439700Y-103099400D02*
X112969300Y-103099400D01*
X112969300Y-102997800D02*
X117388900Y-102997800D01*
X112918500Y-103709000D02*
X117490500Y-103709000D01*
X117490500Y-103709000D02*
X117490500Y-102947000D01*
X117490500Y-102947000D02*
X112918500Y-102947000D01*
X112918500Y-102947000D02*
X112918500Y-103709000D01*
D25*
X114587020Y-110380780D02*
X117020340Y-107960160D01*
D10*
X117550037Y-109217460D02*
G75*
G03X117550037Y-109217460I-1802237J0D01*
G01*
X102743000Y-117729000D02*
X101727000Y-117729000D01*
X102743000Y-115697000D02*
X101727000Y-115697000D01*
X106299000Y-147002500D02*
X106553000Y-147002500D01*
X106299000Y-147002500D02*
X106045000Y-147002500D01*
X106299000Y-147891500D02*
X106045000Y-147891500D01*
X106299000Y-147891500D02*
X106553000Y-147891500D01*
X105029000Y-150558500D02*
X105283000Y-150558500D01*
X105029000Y-150558500D02*
X104775000Y-150558500D01*
X105029000Y-151447500D02*
X104775000Y-151447500D01*
X105029000Y-151447500D02*
X105283000Y-151447500D01*
X113601500Y-152654000D02*
X113601500Y-152908000D01*
X113601500Y-152654000D02*
X113601500Y-152400000D01*
X112712500Y-152654000D02*
X112712500Y-152400000D01*
X112712500Y-152654000D02*
X112712500Y-152908000D01*
X105029000Y-153098500D02*
X105283000Y-153098500D01*
X105029000Y-153098500D02*
X104775000Y-153098500D01*
X105029000Y-153987500D02*
X104775000Y-153987500D01*
X105029000Y-153987500D02*
X105283000Y-153987500D01*
X93662500Y-117729000D02*
X93662500Y-117983000D01*
X93662500Y-117729000D02*
X93662500Y-117475000D01*
X92773500Y-117729000D02*
X92773500Y-117475000D01*
X92773500Y-117729000D02*
X92773500Y-117983000D01*
X104584500Y-123190000D02*
X104584500Y-123444000D01*
X104584500Y-123190000D02*
X104584500Y-122936000D01*
X103695500Y-123190000D02*
X103695500Y-122936000D01*
X103695500Y-123190000D02*
X103695500Y-123444000D01*
X104648000Y-124142500D02*
X104902000Y-124142500D01*
X104648000Y-124142500D02*
X104394000Y-124142500D01*
X104648000Y-125031500D02*
X104394000Y-125031500D01*
X104648000Y-125031500D02*
X104902000Y-125031500D01*
X112204500Y-109093000D02*
X112204500Y-109347000D01*
X112204500Y-109093000D02*
X112204500Y-108839000D01*
X111315500Y-109093000D02*
X111315500Y-108839000D01*
X111315500Y-109093000D02*
X111315500Y-109347000D01*
X101981000Y-120713500D02*
X101727000Y-120713500D01*
X101981000Y-120713500D02*
X102235000Y-120713500D01*
X101981000Y-119824500D02*
X102235000Y-119824500D01*
X101981000Y-119824500D02*
X101727000Y-119824500D01*
X110490000Y-127190500D02*
X110744000Y-127190500D01*
X110490000Y-127190500D02*
X110236000Y-127190500D01*
X110490000Y-128079500D02*
X110236000Y-128079500D01*
X110490000Y-128079500D02*
X110744000Y-128079500D01*
X105092500Y-128524000D02*
X105092500Y-128270000D01*
X105092500Y-128524000D02*
X105092500Y-128778000D01*
X105981500Y-128524000D02*
X105981500Y-128778000D01*
X105981500Y-128524000D02*
X105981500Y-128270000D01*
X106489500Y-151892000D02*
X106489500Y-151638000D01*
X106489500Y-151892000D02*
X106489500Y-152146000D01*
X107378500Y-151892000D02*
X107378500Y-152146000D01*
X107378500Y-151892000D02*
X107378500Y-151638000D01*
X91440000Y-168846500D02*
X91694000Y-168846500D01*
X91440000Y-168846500D02*
X91186000Y-168846500D01*
X91440000Y-169735500D02*
X91186000Y-169735500D01*
X91440000Y-169735500D02*
X91694000Y-169735500D01*
X116395500Y-152019000D02*
X116395500Y-152273000D01*
X116395500Y-152019000D02*
X116395500Y-151765000D01*
X115506500Y-152019000D02*
X115506500Y-151765000D01*
X115506500Y-152019000D02*
X115506500Y-152273000D01*
X115125500Y-152654000D02*
X115125500Y-152908000D01*
X115125500Y-152654000D02*
X115125500Y-152400000D01*
X114236500Y-152654000D02*
X114236500Y-152400000D01*
X114236500Y-152654000D02*
X114236500Y-152908000D01*
X111061500Y-153416000D02*
X111061500Y-153670000D01*
X111061500Y-153416000D02*
X111061500Y-153162000D01*
X110172500Y-153416000D02*
X110172500Y-153162000D01*
X110172500Y-153416000D02*
X110172500Y-153670000D01*
X112458500Y-153416000D02*
X112458500Y-153670000D01*
X112458500Y-153416000D02*
X112458500Y-153162000D01*
X111569500Y-153416000D02*
X111569500Y-153162000D01*
X111569500Y-153416000D02*
X111569500Y-153670000D01*
X108775500Y-153416000D02*
X108775500Y-153670000D01*
X108775500Y-153416000D02*
X108775500Y-153162000D01*
X107886500Y-153416000D02*
X107886500Y-153162000D01*
X107886500Y-153416000D02*
X107886500Y-153670000D01*
X110172500Y-153416000D02*
X110172500Y-153670000D01*
X110172500Y-153416000D02*
X110172500Y-153162000D01*
X109283500Y-153416000D02*
X109283500Y-153162000D01*
X109283500Y-153416000D02*
X109283500Y-153670000D01*
X94742000Y-168846500D02*
X94996000Y-168846500D01*
X94742000Y-168846500D02*
X94488000Y-168846500D01*
X94742000Y-169735500D02*
X94488000Y-169735500D01*
X94742000Y-169735500D02*
X94996000Y-169735500D01*
X96837500Y-124587000D02*
X96837500Y-124841000D01*
X96837500Y-124587000D02*
X96837500Y-124333000D01*
X95948500Y-124587000D02*
X95948500Y-124333000D01*
X95948500Y-124587000D02*
X95948500Y-124841000D01*
X97218500Y-166751000D02*
X97218500Y-166497000D01*
X97218500Y-166751000D02*
X97218500Y-167005000D01*
X98107500Y-166751000D02*
X98107500Y-167005000D01*
X98107500Y-166751000D02*
X98107500Y-166497000D01*
X91821000Y-147764500D02*
X92075000Y-147764500D01*
X91821000Y-147764500D02*
X91567000Y-147764500D01*
X91821000Y-148653500D02*
X91567000Y-148653500D01*
X91821000Y-148653500D02*
X92075000Y-148653500D01*
X91821000Y-149161500D02*
X92075000Y-149161500D01*
X91821000Y-149161500D02*
X91567000Y-149161500D01*
X91821000Y-150050500D02*
X91567000Y-150050500D01*
X91821000Y-150050500D02*
X92075000Y-150050500D01*
X103809800Y-141859000D02*
X103098600Y-141859000D01*
X103098600Y-141020800D02*
X103098600Y-141859000D01*
X105943400Y-141020800D02*
X105943400Y-141859000D01*
X105943400Y-141859000D02*
X105232200Y-141859000D01*
X118110000Y-145064000D02*
X117856000Y-144810000D01*
X115824000Y-144810000D02*
X115570000Y-145064000D01*
X115570000Y-145064000D02*
X115570000Y-147096000D01*
X118110000Y-147096000D02*
X118110000Y-145064000D01*
X117856000Y-147350000D02*
X118110000Y-147096000D01*
X115570000Y-147096000D02*
X115824000Y-147350000D01*
X115570000Y-144556000D02*
X115824000Y-144810000D01*
X118110000Y-145064000D02*
X117856000Y-144810000D01*
X117856000Y-144810000D02*
X118110000Y-144556000D01*
X118110000Y-147096000D02*
X118110000Y-145064000D01*
X115824000Y-144810000D02*
X115570000Y-145064000D01*
X115570000Y-145064000D02*
X115570000Y-147096000D01*
X115824000Y-147350000D02*
X117856000Y-147350000D01*
X117856000Y-147350000D02*
X118110000Y-147096000D01*
X118110000Y-144556000D02*
X118110000Y-142524000D01*
X115570000Y-147096000D02*
X115824000Y-147350000D01*
X115570000Y-142524000D02*
X115570000Y-144556000D01*
X115824000Y-142270000D02*
X115570000Y-142524000D01*
X118110000Y-142524000D02*
X117856000Y-142270000D01*
X118110000Y-137444000D02*
X117856000Y-137190000D01*
X115824000Y-137190000D02*
X115570000Y-137444000D01*
X115570000Y-137444000D02*
X115570000Y-139476000D01*
X115570000Y-142016000D02*
X115824000Y-142270000D01*
X118110000Y-139476000D02*
X118110000Y-137444000D01*
X117856000Y-142270000D02*
X118110000Y-142016000D01*
X115570000Y-139984000D02*
X115570000Y-142016000D01*
X115824000Y-139730000D02*
X115570000Y-139984000D01*
X118110000Y-142016000D02*
X118110000Y-139984000D01*
X117856000Y-139730000D02*
X118110000Y-139476000D01*
X118110000Y-139984000D02*
X117856000Y-139730000D01*
X115570000Y-139476000D02*
X115824000Y-139730000D01*
X115570000Y-142016000D02*
X115824000Y-142270000D01*
X117856000Y-142270000D02*
X118110000Y-142016000D01*
X118110000Y-142016000D02*
X118110000Y-139984000D01*
X115570000Y-139984000D02*
X115570000Y-142016000D01*
X115824000Y-139730000D02*
X115570000Y-139984000D01*
X118110000Y-139984000D02*
X117856000Y-139730000D01*
X118110000Y-134904000D02*
X117856000Y-134650000D01*
X115824000Y-134650000D02*
X115570000Y-134904000D01*
X115570000Y-134904000D02*
X115570000Y-136936000D01*
X118110000Y-136936000D02*
X118110000Y-134904000D01*
X117856000Y-137190000D02*
X118110000Y-136936000D01*
X115570000Y-136936000D02*
X115824000Y-137190000D01*
X115570000Y-134396000D02*
X115824000Y-134650000D01*
X118110000Y-134904000D02*
X117856000Y-134650000D01*
X117856000Y-134650000D02*
X118110000Y-134396000D01*
X118110000Y-136936000D02*
X118110000Y-134904000D01*
X115824000Y-134650000D02*
X115570000Y-134904000D01*
X115570000Y-134904000D02*
X115570000Y-136936000D01*
X117856000Y-137190000D02*
X118110000Y-136936000D01*
X118110000Y-129824000D02*
X117856000Y-129570000D01*
X118110000Y-134396000D02*
X118110000Y-132364000D01*
X115570000Y-136936000D02*
X115824000Y-137190000D01*
X115570000Y-132364000D02*
X115570000Y-134396000D01*
X115824000Y-132110000D02*
X115570000Y-132364000D01*
X115570000Y-121950000D02*
X115570000Y-122204000D01*
X115570000Y-122204000D02*
X115570000Y-124236000D01*
X115570000Y-124236000D02*
X115824000Y-124490000D01*
X115824000Y-124490000D02*
X115570000Y-124744000D01*
X115570000Y-124744000D02*
X115570000Y-126776000D01*
X115570000Y-126776000D02*
X115824000Y-127030000D01*
X115824000Y-127030000D02*
X115570000Y-127284000D01*
X115570000Y-127284000D02*
X115570000Y-129316000D01*
X115570000Y-129316000D02*
X115824000Y-129570000D01*
X115824000Y-129570000D02*
X115570000Y-129824000D01*
X115570000Y-129824000D02*
X115570000Y-131856000D01*
X115570000Y-131856000D02*
X115824000Y-132110000D01*
X117856000Y-132110000D02*
X118110000Y-131856000D01*
X118110000Y-131856000D02*
X118110000Y-129824000D01*
X118110000Y-132364000D02*
X117856000Y-132110000D01*
X117856000Y-129570000D02*
X118110000Y-129316000D01*
X118110000Y-129316000D02*
X118110000Y-127284000D01*
X115824000Y-121950000D02*
X115570000Y-122204000D01*
X118110000Y-122204000D02*
X117856000Y-121950000D01*
X118110000Y-122458000D02*
X118110000Y-121950000D01*
X118110000Y-126776000D02*
X118110000Y-124744000D01*
X118110000Y-124744000D02*
X117856000Y-124490000D01*
X117856000Y-124490000D02*
X118110000Y-124236000D01*
X118110000Y-124236000D02*
X118110000Y-122458000D01*
X118110000Y-126776000D02*
X117856000Y-127030000D01*
X117856000Y-127030000D02*
X118110000Y-127284000D01*
X115570000Y-121950000D02*
X118110000Y-121950000D01*
X92710000Y-145064000D02*
X92456000Y-144810000D01*
X90424000Y-144810000D02*
X90170000Y-145064000D01*
X90170000Y-145064000D02*
X90170000Y-147096000D01*
X92710000Y-147096000D02*
X92710000Y-145064000D01*
X92456000Y-147350000D02*
X92710000Y-147096000D01*
X90170000Y-147096000D02*
X90424000Y-147350000D01*
X90170000Y-144556000D02*
X90424000Y-144810000D01*
X92710000Y-145064000D02*
X92456000Y-144810000D01*
X92456000Y-144810000D02*
X92710000Y-144556000D01*
X92710000Y-147096000D02*
X92710000Y-145064000D01*
X90424000Y-144810000D02*
X90170000Y-145064000D01*
X90170000Y-145064000D02*
X90170000Y-147096000D01*
X90424000Y-147350000D02*
X92456000Y-147350000D01*
X92456000Y-147350000D02*
X92710000Y-147096000D01*
X92710000Y-144556000D02*
X92710000Y-142524000D01*
X90170000Y-147096000D02*
X90424000Y-147350000D01*
X90170000Y-142524000D02*
X90170000Y-144556000D01*
X90424000Y-142270000D02*
X90170000Y-142524000D01*
X92710000Y-142524000D02*
X92456000Y-142270000D01*
X92710000Y-137444000D02*
X92456000Y-137190000D01*
X90424000Y-137190000D02*
X90170000Y-137444000D01*
X90170000Y-137444000D02*
X90170000Y-139476000D01*
X90170000Y-142016000D02*
X90424000Y-142270000D01*
X92710000Y-139476000D02*
X92710000Y-137444000D01*
X92456000Y-142270000D02*
X92710000Y-142016000D01*
X90170000Y-139984000D02*
X90170000Y-142016000D01*
X90424000Y-139730000D02*
X90170000Y-139984000D01*
X92710000Y-142016000D02*
X92710000Y-139984000D01*
X92456000Y-139730000D02*
X92710000Y-139476000D01*
X92710000Y-139984000D02*
X92456000Y-139730000D01*
X90170000Y-139476000D02*
X90424000Y-139730000D01*
X90170000Y-142016000D02*
X90424000Y-142270000D01*
X92456000Y-142270000D02*
X92710000Y-142016000D01*
X92710000Y-142016000D02*
X92710000Y-139984000D01*
X90170000Y-139984000D02*
X90170000Y-142016000D01*
X90424000Y-139730000D02*
X90170000Y-139984000D01*
X92710000Y-139984000D02*
X92456000Y-139730000D01*
X92710000Y-134904000D02*
X92456000Y-134650000D01*
X90424000Y-134650000D02*
X90170000Y-134904000D01*
X90170000Y-134904000D02*
X90170000Y-136936000D01*
X92710000Y-136936000D02*
X92710000Y-134904000D01*
X92456000Y-137190000D02*
X92710000Y-136936000D01*
X90170000Y-136936000D02*
X90424000Y-137190000D01*
X90170000Y-134396000D02*
X90424000Y-134650000D01*
X92710000Y-134904000D02*
X92456000Y-134650000D01*
X92456000Y-134650000D02*
X92710000Y-134396000D01*
X92710000Y-136936000D02*
X92710000Y-134904000D01*
X90424000Y-134650000D02*
X90170000Y-134904000D01*
X90170000Y-134904000D02*
X90170000Y-136936000D01*
X92456000Y-137190000D02*
X92710000Y-136936000D01*
X92710000Y-129824000D02*
X92456000Y-129570000D01*
X92710000Y-134396000D02*
X92710000Y-132364000D01*
X90170000Y-136936000D02*
X90424000Y-137190000D01*
X90170000Y-132364000D02*
X90170000Y-134396000D01*
X90424000Y-132110000D02*
X90170000Y-132364000D01*
X90170000Y-121950000D02*
X90170000Y-122204000D01*
X90170000Y-122204000D02*
X90170000Y-124236000D01*
X90170000Y-124236000D02*
X90424000Y-124490000D01*
X90424000Y-124490000D02*
X90170000Y-124744000D01*
X90170000Y-124744000D02*
X90170000Y-126776000D01*
X90170000Y-126776000D02*
X90424000Y-127030000D01*
X90424000Y-127030000D02*
X90170000Y-127284000D01*
X90170000Y-127284000D02*
X90170000Y-129316000D01*
X90170000Y-129316000D02*
X90424000Y-129570000D01*
X90424000Y-129570000D02*
X90170000Y-129824000D01*
X90170000Y-129824000D02*
X90170000Y-131856000D01*
X90170000Y-131856000D02*
X90424000Y-132110000D01*
X92456000Y-132110000D02*
X92710000Y-131856000D01*
X92710000Y-131856000D02*
X92710000Y-129824000D01*
X92710000Y-132364000D02*
X92456000Y-132110000D01*
X92456000Y-129570000D02*
X92710000Y-129316000D01*
X92710000Y-129316000D02*
X92710000Y-127284000D01*
X90424000Y-121950000D02*
X90170000Y-122204000D01*
X92710000Y-122204000D02*
X92456000Y-121950000D01*
X92710000Y-122458000D02*
X92710000Y-121950000D01*
X92710000Y-126776000D02*
X92710000Y-124744000D01*
X92710000Y-124744000D02*
X92456000Y-124490000D01*
X92456000Y-124490000D02*
X92710000Y-124236000D01*
X92710000Y-124236000D02*
X92710000Y-122458000D01*
X92710000Y-126776000D02*
X92456000Y-127030000D01*
X92456000Y-127030000D02*
X92710000Y-127284000D01*
X90170000Y-121950000D02*
X92710000Y-121950000D01*
X100076000Y-166497000D02*
X100076000Y-167513000D01*
X98552000Y-166497000D02*
X98552000Y-167513000D01*
X94805500Y-151765000D02*
X100266500Y-151765000D01*
X100266500Y-144145000D02*
X94805500Y-144145000D01*
X94805500Y-151765000D02*
X94805500Y-144145000D01*
X100266500Y-144145000D02*
X100266500Y-151765000D01*
X100266500Y-151384000D02*
X94805500Y-151384000D01*
X94538800Y-136144000D02*
X93827600Y-136144000D01*
X93827600Y-135305800D02*
X93827600Y-136144000D01*
X96672400Y-135305800D02*
X96672400Y-136144000D01*
X96672400Y-136144000D02*
X95961200Y-136144000D01*
D16*
X101803200Y-117729000D02*
X102641400Y-117729000D01*
X101803200Y-119507000D02*
X102641400Y-119507000D01*
D10*
X117602000Y-158242000D02*
X117602000Y-156718000D01*
X115316000Y-158242000D02*
X115316000Y-156718000D01*
D16*
X104740000Y-111787000D02*
X104640000Y-111887000D01*
X104740000Y-111787000D02*
X104840000Y-111887000D01*
X104388528Y-112635528D02*
G75*
G03X104740000Y-111787000I-848528J848528D01*
G01*
D10*
X105040000Y-109687000D02*
X105040000Y-109687000D01*
X105040000Y-110587000D02*
X105040000Y-109687000D01*
X106940000Y-110587000D02*
X105040000Y-110587000D01*
X106940000Y-111987000D02*
X106940000Y-110587000D01*
X105240000Y-111987000D02*
X106940000Y-111987000D01*
X104040000Y-111987000D02*
X105140000Y-112587000D01*
X102440000Y-111987000D02*
X104040000Y-111987000D01*
X102440000Y-110587000D02*
X102440000Y-111987000D01*
X104340000Y-110587000D02*
X102440000Y-110587000D01*
X104340000Y-109687000D02*
X104340000Y-110587000D01*
X98515000Y-109387000D02*
X109765000Y-109387000D01*
X100140000Y-115387000D02*
X108140000Y-115387000D01*
X109765000Y-111312000D02*
X109765000Y-113812000D01*
X98515000Y-111312000D02*
X98515000Y-113812000D01*
X106680000Y-146304000D02*
X105664000Y-146304000D01*
X106680000Y-144780000D02*
X105664000Y-144780000D01*
X105410000Y-153035000D02*
X104394000Y-153035000D01*
X105410000Y-151511000D02*
X104394000Y-151511000D01*
X104394000Y-143256000D02*
X105410000Y-143256000D01*
X104394000Y-144780000D02*
X105410000Y-144780000D01*
X100203000Y-152146000D02*
X101219000Y-152146000D01*
X100203000Y-153670000D02*
X101219000Y-153670000D01*
X106476800Y-139979400D02*
X106476800Y-140195300D01*
X109423200Y-139979400D02*
X106476800Y-139979400D01*
X109423200Y-140169900D02*
X109423200Y-139979400D01*
X106476800Y-143992600D02*
X106476800Y-143776700D01*
X109423200Y-143967200D02*
X109423200Y-143789400D01*
X109423200Y-143979900D02*
X106476800Y-143979900D01*
X97256600Y-107365800D02*
X97040700Y-107365800D01*
X97256600Y-110312200D02*
X97256600Y-107365800D01*
X97066100Y-110312200D02*
X97256600Y-110312200D01*
X93243400Y-107365800D02*
X93459300Y-107365800D01*
X93268800Y-110312200D02*
X93446600Y-110312200D01*
X93256100Y-110312200D02*
X93256100Y-107365800D01*
X96215200Y-129286000D02*
X96926400Y-129286000D01*
X96926400Y-130124200D02*
X96926400Y-129286000D01*
X94081600Y-130124200D02*
X94081600Y-129286000D01*
X94081600Y-129286000D02*
X94792800Y-129286000D01*
D16*
X104851200Y-148717000D02*
X105689400Y-148717000D01*
X104851200Y-150495000D02*
X105689400Y-150495000D01*
D10*
X93853000Y-142684500D02*
X94107000Y-142684500D01*
X93853000Y-142684500D02*
X93599000Y-142684500D01*
X93853000Y-143573500D02*
X93599000Y-143573500D01*
X93853000Y-143573500D02*
X94107000Y-143573500D01*
X115744600Y-116207700D02*
X113268100Y-116207700D01*
X115160400Y-115255200D02*
X113788800Y-116169600D01*
X113788800Y-116169600D02*
X115160400Y-117160200D01*
X113788800Y-115255200D02*
X113788800Y-117160200D01*
X115160400Y-115255200D02*
X115160400Y-117160200D01*
X113611000Y-115255200D02*
X113611000Y-117160200D01*
X113788800Y-117160200D02*
X113611000Y-117160200D01*
X113788800Y-115255200D02*
X113611000Y-115255200D01*
X115008000Y-116957000D02*
X115008000Y-115433000D01*
X114881000Y-115560000D02*
X114881000Y-116830000D01*
X114754000Y-116703000D02*
X114754000Y-115560000D01*
X114627000Y-115814000D02*
X114627000Y-116703000D01*
X114500000Y-115814000D02*
X114500000Y-116576000D01*
X114373000Y-115941000D02*
X114373000Y-116576000D01*
X114246000Y-116068000D02*
X114246000Y-116449000D01*
X116014500Y-113284000D02*
X116014500Y-113030000D01*
X116014500Y-113284000D02*
X116014500Y-113538000D01*
X116903500Y-113284000D02*
X116903500Y-113538000D01*
X116903500Y-113284000D02*
X116903500Y-113030000D01*
X108419900Y-151343360D02*
X108244640Y-151168100D01*
X108244640Y-151168100D02*
X108244640Y-150942040D01*
X108244640Y-146745960D02*
X108244640Y-146344640D01*
X108244640Y-146344640D02*
X108645960Y-146344640D01*
X112842040Y-146344640D02*
X113243360Y-146344640D01*
X113243360Y-146344640D02*
X113243360Y-146745960D01*
X113243360Y-150942040D02*
X113243360Y-151343360D01*
X113243360Y-151343360D02*
X112842040Y-151343360D01*
X108645960Y-151343360D02*
X108419900Y-151343360D01*
D25*
X108021873Y-151742140D02*
G75*
G03X108021873Y-151742140I-176013J0D01*
G01*
D10*
X106466000Y-129445000D02*
X106466000Y-128945000D01*
X106466000Y-133945000D02*
X106466000Y-133445000D01*
X106566000Y-133945000D02*
X106466000Y-133945000D01*
X111466000Y-133945000D02*
X111366000Y-133945000D01*
X111466000Y-133445000D02*
X111466000Y-133945000D01*
X111466000Y-128945000D02*
X111466000Y-129445000D01*
X111366000Y-128945000D02*
X111466000Y-128945000D01*
X106466000Y-128945000D02*
X106566000Y-128945000D01*
X94170500Y-132715000D02*
X94170500Y-132461000D01*
X94170500Y-132715000D02*
X94170500Y-132969000D01*
X95059500Y-132715000D02*
X95059500Y-132969000D01*
X95059500Y-132715000D02*
X95059500Y-132461000D01*
X96964500Y-132715000D02*
X96964500Y-132969000D01*
X96964500Y-132715000D02*
X96964500Y-132461000D01*
X96075500Y-132715000D02*
X96075500Y-132461000D01*
X96075500Y-132715000D02*
X96075500Y-132969000D01*
X107823000Y-127635000D02*
X106807000Y-127635000D01*
X107823000Y-126111000D02*
X106807000Y-126111000D01*
X94345760Y-122392440D02*
X93634560Y-122392440D01*
X93634560Y-121554240D02*
X93634560Y-122392440D01*
X96479360Y-121554240D02*
X96479360Y-122392440D01*
X96479360Y-122392440D02*
X95768160Y-122392440D01*
X108305600Y-116509800D02*
X108089700Y-116509800D01*
X108305600Y-119456200D02*
X108305600Y-116509800D01*
X108115100Y-119456200D02*
X108305600Y-119456200D01*
X104292400Y-116509800D02*
X104508300Y-116509800D01*
X104317800Y-119456200D02*
X104495600Y-119456200D01*
X104305100Y-119456200D02*
X104305100Y-116509800D01*
X107950000Y-121158000D02*
X106426000Y-121158000D01*
X107950000Y-123444000D02*
X106426000Y-123444000D01*
X96520000Y-138239500D02*
X96774000Y-138239500D01*
X96520000Y-138239500D02*
X96266000Y-138239500D01*
X96520000Y-139128500D02*
X96266000Y-139128500D01*
X96520000Y-139128500D02*
X96774000Y-139128500D01*
X94615000Y-142113000D02*
X95123000Y-142113000D01*
X94615000Y-139573000D02*
X95123000Y-139573000D01*
D14*
X91440000Y-164084000D02*
X91440000Y-165100000D01*
X90678000Y-163830000D02*
X91186000Y-163830000D01*
X90424000Y-165100000D02*
X90424000Y-164084000D01*
X91186000Y-165354000D02*
X90678000Y-165354000D01*
D15*
X90678000Y-165354000D02*
G75*
G02X90424000Y-165100000I0J254000D01*
G01*
X90424000Y-164084000D02*
G75*
G02X90678000Y-163830000I254000J0D01*
G01*
X91186000Y-163830000D02*
G75*
G02X91440000Y-164084000I0J-254000D01*
G01*
X91440000Y-165100000D02*
G75*
G02X91186000Y-165354000I-254000J0D01*
G01*
D10*
X109918500Y-100584000D02*
X113474500Y-107696000D01*
X113474500Y-107696000D02*
X106362500Y-107696000D01*
X106362500Y-107696000D02*
X107696000Y-105029000D01*
X107696000Y-105029000D02*
X108140500Y-104140000D01*
X108140500Y-104140000D02*
X109918500Y-100584000D01*
X111696500Y-104203500D02*
X106362500Y-107696000D01*
X109321600Y-104140000D02*
X108140500Y-104140000D01*
X107696000Y-105029000D02*
X108013500Y-105029000D01*
X110680500Y-106616500D02*
X110528100Y-106616500D01*
X111633000Y-105219500D02*
X111633000Y-106299000D01*
X111188500Y-106616500D02*
X111188500Y-106489500D01*
X111252000Y-106426000D02*
X111252000Y-105410000D01*
X111252000Y-106426000D02*
X111315500Y-106426000D01*
X109538221Y-104076678D02*
G75*
G02X111125000Y-104584500I466639J-1274902D01*
G01*
X109537415Y-104078114D02*
G75*
G02X109321600Y-104140000I-182795J230214D01*
G01*
X108012801Y-105029474D02*
G75*
G02X108521500Y-105219500I64199J-604046D01*
G01*
X109343961Y-105665576D02*
G75*
G02X108521500Y-105219500I147819J1253796D01*
G01*
X109856208Y-105411166D02*
G75*
G02X110807500Y-106172000I-285688J-1332334D01*
G01*
X109918415Y-105855965D02*
G75*
G02X110490000Y-106616500I-284395J-808795D01*
G01*
X109478775Y-105728493D02*
G75*
G02X109918500Y-105854500I-825195J-3709947D01*
G01*
X110807467Y-106489600D02*
G75*
G02X110680500Y-106616500I-190467J63600D01*
G01*
X110806568Y-106172674D02*
G75*
G02X110807500Y-106489500I-316568J-159346D01*
G01*
X111250435Y-105411845D02*
G75*
G02X110553500Y-104965500I153965J1007685D01*
G01*
X111441049Y-104902142D02*
G75*
G02X111125000Y-104584500I478971J792622D01*
G01*
X111443548Y-104903575D02*
G75*
G02X111633000Y-105219500I-168688J-315925D01*
G01*
X111633000Y-106299000D02*
G75*
G02X111252000Y-106680000I-381000J0D01*
G01*
X111249571Y-106682545D02*
G75*
G02X111188500Y-106616500I2429J63505D01*
G01*
X111188500Y-106489500D02*
G75*
G02X111252000Y-106426000I63500J0D01*
G01*
X111315500Y-106426000D02*
G75*
G02X111442500Y-106553000I0J-127000D01*
G01*
D13*
X115237380Y-130447142D02*
X115025714Y-130447142D01*
X114935000Y-130779761D02*
X115237380Y-130779761D01*
X115237380Y-130144761D01*
X114935000Y-130144761D01*
X114662857Y-130779761D02*
X114662857Y-130144761D01*
X114300000Y-130779761D01*
X114300000Y-130144761D01*
X114148809Y-130840238D02*
X113665000Y-130840238D01*
X113150952Y-130719285D02*
X113181190Y-130749523D01*
X113271904Y-130779761D01*
X113332380Y-130779761D01*
X113423095Y-130749523D01*
X113483571Y-130689047D01*
X113513809Y-130628571D01*
X113544047Y-130507619D01*
X113544047Y-130416904D01*
X113513809Y-130295952D01*
X113483571Y-130235476D01*
X113423095Y-130175000D01*
X113332380Y-130144761D01*
X113271904Y-130144761D01*
X113181190Y-130175000D01*
X113150952Y-130205238D01*
X112969523Y-130144761D02*
X112606666Y-130144761D01*
X112788095Y-130779761D02*
X112788095Y-130144761D01*
X112425238Y-130205238D02*
X112395000Y-130175000D01*
X112334523Y-130144761D01*
X112183333Y-130144761D01*
X112122857Y-130175000D01*
X112092619Y-130205238D01*
X112062380Y-130265714D01*
X112062380Y-130326190D01*
X112092619Y-130416904D01*
X112455476Y-130779761D01*
X112062380Y-130779761D01*
X115046880Y-133114142D02*
X114835214Y-133114142D01*
X114744500Y-133446761D02*
X115046880Y-133446761D01*
X115046880Y-132811761D01*
X114744500Y-132811761D01*
X114472357Y-133446761D02*
X114472357Y-132811761D01*
X114109500Y-133446761D01*
X114109500Y-132811761D01*
X113958309Y-133507238D02*
X113474500Y-133507238D01*
X112960452Y-133386285D02*
X112990690Y-133416523D01*
X113081404Y-133446761D01*
X113141880Y-133446761D01*
X113232595Y-133416523D01*
X113293071Y-133356047D01*
X113323309Y-133295571D01*
X113353547Y-133174619D01*
X113353547Y-133083904D01*
X113323309Y-132962952D01*
X113293071Y-132902476D01*
X113232595Y-132842000D01*
X113141880Y-132811761D01*
X113081404Y-132811761D01*
X112990690Y-132842000D01*
X112960452Y-132872238D01*
X112779023Y-132811761D02*
X112416166Y-132811761D01*
X112597595Y-133446761D02*
X112597595Y-132811761D01*
X111871880Y-133446761D02*
X112234738Y-133446761D01*
X112053309Y-133446761D02*
X112053309Y-132811761D01*
X112113785Y-132902476D01*
X112174261Y-132962952D01*
X112234738Y-132993190D01*
D16*
X92592071Y-163958209D02*
X92761404Y-163716304D01*
X92882357Y-163958209D02*
X92882357Y-163450209D01*
X92688833Y-163450209D01*
X92640452Y-163474400D01*
X92616261Y-163498590D01*
X92592071Y-163546971D01*
X92592071Y-163619542D01*
X92616261Y-163667923D01*
X92640452Y-163692114D01*
X92688833Y-163716304D01*
X92882357Y-163716304D01*
X92398547Y-163498590D02*
X92374357Y-163474400D01*
X92325976Y-163450209D01*
X92205023Y-163450209D01*
X92156642Y-163474400D01*
X92132452Y-163498590D01*
X92108261Y-163546971D01*
X92108261Y-163595352D01*
X92132452Y-163667923D01*
X92422738Y-163958209D01*
X92108261Y-163958209D01*
X91914738Y-163498590D02*
X91890547Y-163474400D01*
X91842166Y-163450209D01*
X91721214Y-163450209D01*
X91672833Y-163474400D01*
X91648642Y-163498590D01*
X91624452Y-163546971D01*
X91624452Y-163595352D01*
X91648642Y-163667923D01*
X91938928Y-163958209D01*
X91624452Y-163958209D01*
X92528571Y-162980309D02*
X92697904Y-162738404D01*
X92818857Y-162980309D02*
X92818857Y-162472309D01*
X92625333Y-162472309D01*
X92576952Y-162496500D01*
X92552761Y-162520690D01*
X92528571Y-162569071D01*
X92528571Y-162641642D01*
X92552761Y-162690023D01*
X92576952Y-162714214D01*
X92625333Y-162738404D01*
X92818857Y-162738404D01*
X92044761Y-162980309D02*
X92335047Y-162980309D01*
X92189904Y-162980309D02*
X92189904Y-162472309D01*
X92238285Y-162544880D01*
X92286666Y-162593261D01*
X92335047Y-162617452D01*
X91875428Y-162472309D02*
X91536761Y-162472309D01*
X91754476Y-162980309D01*
D11*
X92419714Y-154123571D02*
X91657714Y-154123571D01*
X91657714Y-154305000D01*
X91694000Y-154413857D01*
X91766571Y-154486428D01*
X91839142Y-154522714D01*
X91984285Y-154559000D01*
X92093142Y-154559000D01*
X92238285Y-154522714D01*
X92310857Y-154486428D01*
X92383428Y-154413857D01*
X92419714Y-154305000D01*
X92419714Y-154123571D01*
X91657714Y-154813000D02*
X91657714Y-155321000D01*
X92419714Y-154994428D01*
X95340714Y-154123571D02*
X94578714Y-154123571D01*
X94578714Y-154305000D01*
X94615000Y-154413857D01*
X94687571Y-154486428D01*
X94760142Y-154522714D01*
X94905285Y-154559000D01*
X95014142Y-154559000D01*
X95159285Y-154522714D01*
X95231857Y-154486428D01*
X95304428Y-154413857D01*
X95340714Y-154305000D01*
X95340714Y-154123571D01*
X94578714Y-155212142D02*
X94578714Y-155067000D01*
X94615000Y-154994428D01*
X94651285Y-154958142D01*
X94760142Y-154885571D01*
X94905285Y-154849285D01*
X95195571Y-154849285D01*
X95268142Y-154885571D01*
X95304428Y-154921857D01*
X95340714Y-154994428D01*
X95340714Y-155139571D01*
X95304428Y-155212142D01*
X95268142Y-155248428D01*
X95195571Y-155284714D01*
X95014142Y-155284714D01*
X94941571Y-155248428D01*
X94905285Y-155212142D01*
X94869000Y-155139571D01*
X94869000Y-154994428D01*
X94905285Y-154921857D01*
X94941571Y-154885571D01*
X95014142Y-154849285D01*
D13*
X104675214Y-125893285D02*
X104705452Y-125923523D01*
X104796166Y-125953761D01*
X104856642Y-125953761D01*
X104947357Y-125923523D01*
X105007833Y-125863047D01*
X105038071Y-125802571D01*
X105068309Y-125681619D01*
X105068309Y-125590904D01*
X105038071Y-125469952D01*
X105007833Y-125409476D01*
X104947357Y-125349000D01*
X104856642Y-125318761D01*
X104796166Y-125318761D01*
X104705452Y-125349000D01*
X104675214Y-125379238D01*
X104433309Y-125379238D02*
X104403071Y-125349000D01*
X104342595Y-125318761D01*
X104191404Y-125318761D01*
X104130928Y-125349000D01*
X104100690Y-125379238D01*
X104070452Y-125439714D01*
X104070452Y-125500190D01*
X104100690Y-125590904D01*
X104463547Y-125953761D01*
X104070452Y-125953761D01*
X103526166Y-125318761D02*
X103647119Y-125318761D01*
X103707595Y-125349000D01*
X103737833Y-125379238D01*
X103798309Y-125469952D01*
X103828547Y-125590904D01*
X103828547Y-125832809D01*
X103798309Y-125893285D01*
X103768071Y-125923523D01*
X103707595Y-125953761D01*
X103586642Y-125953761D01*
X103526166Y-125923523D01*
X103495928Y-125893285D01*
X103465690Y-125832809D01*
X103465690Y-125681619D01*
X103495928Y-125621142D01*
X103526166Y-125590904D01*
X103586642Y-125560666D01*
X103707595Y-125560666D01*
X103768071Y-125590904D01*
X103798309Y-125621142D01*
X103828547Y-125681619D01*
D16*
X93290571Y-168862828D02*
X93314761Y-168887019D01*
X93387333Y-168911209D01*
X93435714Y-168911209D01*
X93508285Y-168887019D01*
X93556666Y-168838638D01*
X93580857Y-168790257D01*
X93605047Y-168693495D01*
X93605047Y-168620923D01*
X93580857Y-168524161D01*
X93556666Y-168475780D01*
X93508285Y-168427400D01*
X93435714Y-168403209D01*
X93387333Y-168403209D01*
X93314761Y-168427400D01*
X93290571Y-168451590D01*
X92806761Y-168911209D02*
X93097047Y-168911209D01*
X92951904Y-168911209D02*
X92951904Y-168403209D01*
X93000285Y-168475780D01*
X93048666Y-168524161D01*
X93097047Y-168548352D01*
X92564857Y-168911209D02*
X92468095Y-168911209D01*
X92419714Y-168887019D01*
X92395523Y-168862828D01*
X92347142Y-168790257D01*
X92322952Y-168693495D01*
X92322952Y-168499971D01*
X92347142Y-168451590D01*
X92371333Y-168427400D01*
X92419714Y-168403209D01*
X92516476Y-168403209D01*
X92564857Y-168427400D01*
X92589047Y-168451590D01*
X92613238Y-168499971D01*
X92613238Y-168620923D01*
X92589047Y-168669304D01*
X92564857Y-168693495D01*
X92516476Y-168717685D01*
X92419714Y-168717685D01*
X92371333Y-168693495D01*
X92347142Y-168669304D01*
X92322952Y-168620923D01*
D13*
X92942833Y-103157261D02*
X93154500Y-102854880D01*
X93305690Y-103157261D02*
X93305690Y-102522261D01*
X93063785Y-102522261D01*
X93003309Y-102552500D01*
X92973071Y-102582738D01*
X92942833Y-102643214D01*
X92942833Y-102733928D01*
X92973071Y-102794404D01*
X93003309Y-102824642D01*
X93063785Y-102854880D01*
X93305690Y-102854880D01*
X92640452Y-103157261D02*
X92519500Y-103157261D01*
X92459023Y-103127023D01*
X92428785Y-103096785D01*
X92368309Y-103006071D01*
X92338071Y-102885119D01*
X92338071Y-102643214D01*
X92368309Y-102582738D01*
X92398547Y-102552500D01*
X92459023Y-102522261D01*
X92579976Y-102522261D01*
X92640452Y-102552500D01*
X92670690Y-102582738D01*
X92700928Y-102643214D01*
X92700928Y-102794404D01*
X92670690Y-102854880D01*
X92640452Y-102885119D01*
X92579976Y-102915357D01*
X92459023Y-102915357D01*
X92398547Y-102885119D01*
X92368309Y-102854880D01*
X92338071Y-102794404D01*
D16*
X98128666Y-169647809D02*
X98298000Y-169405904D01*
X98418952Y-169647809D02*
X98418952Y-169139809D01*
X98225428Y-169139809D01*
X98177047Y-169164000D01*
X98152857Y-169188190D01*
X98128666Y-169236571D01*
X98128666Y-169309142D01*
X98152857Y-169357523D01*
X98177047Y-169381714D01*
X98225428Y-169405904D01*
X98418952Y-169405904D01*
X97693238Y-169139809D02*
X97790000Y-169139809D01*
X97838380Y-169164000D01*
X97862571Y-169188190D01*
X97910952Y-169260761D01*
X97935142Y-169357523D01*
X97935142Y-169551047D01*
X97910952Y-169599428D01*
X97886761Y-169623619D01*
X97838380Y-169647809D01*
X97741619Y-169647809D01*
X97693238Y-169623619D01*
X97669047Y-169599428D01*
X97644857Y-169551047D01*
X97644857Y-169430095D01*
X97669047Y-169381714D01*
X97693238Y-169357523D01*
X97741619Y-169333333D01*
X97838380Y-169333333D01*
X97886761Y-169357523D01*
X97910952Y-169381714D01*
X97935142Y-169430095D01*
D26*
X96844152Y-168451590D02*
X96844152Y-168903952D01*
X96817542Y-168957171D01*
X96790933Y-168983780D01*
X96737714Y-169010390D01*
X96631276Y-169010390D01*
X96578057Y-168983780D01*
X96551447Y-168957171D01*
X96524838Y-168903952D01*
X96524838Y-168451590D01*
X96311961Y-168451590D02*
X95966038Y-168451590D01*
X96152304Y-168664466D01*
X96072476Y-168664466D01*
X96019257Y-168691076D01*
X95992647Y-168717685D01*
X95966038Y-168770904D01*
X95966038Y-168903952D01*
X95992647Y-168957171D01*
X96019257Y-168983780D01*
X96072476Y-169010390D01*
X96232133Y-169010390D01*
X96285352Y-168983780D01*
X96311961Y-168957171D01*
D10*
X98213333Y-157939619D02*
X98697142Y-157939619D01*
X98697142Y-156923619D01*
X97971428Y-156923619D02*
X97342476Y-156923619D01*
X97681142Y-157310666D01*
X97536000Y-157310666D01*
X97439238Y-157359047D01*
X97390857Y-157407428D01*
X97342476Y-157504190D01*
X97342476Y-157746095D01*
X97390857Y-157842857D01*
X97439238Y-157891238D01*
X97536000Y-157939619D01*
X97826285Y-157939619D01*
X97923047Y-157891238D01*
X97971428Y-157842857D01*
X108948582Y-168366319D02*
X108948582Y-167350319D01*
X108513154Y-168366319D02*
X108513154Y-167834128D01*
X108561535Y-167737366D01*
X108658297Y-167688985D01*
X108803440Y-167688985D01*
X108900201Y-167737366D01*
X108948582Y-167785747D01*
X107593916Y-168366319D02*
X107593916Y-167834128D01*
X107642297Y-167737366D01*
X107739059Y-167688985D01*
X107932582Y-167688985D01*
X108029344Y-167737366D01*
X107593916Y-168317938D02*
X107690678Y-168366319D01*
X107932582Y-168366319D01*
X108029344Y-168317938D01*
X108077725Y-168221176D01*
X108077725Y-168124414D01*
X108029344Y-168027652D01*
X107932582Y-167979271D01*
X107690678Y-167979271D01*
X107593916Y-167930890D01*
X107110106Y-168366319D02*
X107110106Y-167688985D01*
X107110106Y-167882509D02*
X107061725Y-167785747D01*
X107013344Y-167737366D01*
X106916582Y-167688985D01*
X106819820Y-167688985D01*
X106045725Y-168366319D02*
X106045725Y-167350319D01*
X106045725Y-168317938D02*
X106142487Y-168366319D01*
X106336011Y-168366319D01*
X106432773Y-168317938D01*
X106481154Y-168269557D01*
X106529535Y-168172795D01*
X106529535Y-167882509D01*
X106481154Y-167785747D01*
X106432773Y-167737366D01*
X106336011Y-167688985D01*
X106142487Y-167688985D01*
X106045725Y-167737366D01*
X105658678Y-167688985D02*
X105465154Y-168366319D01*
X105271630Y-167882509D01*
X105078106Y-168366319D01*
X104884582Y-167688985D01*
X104062106Y-168366319D02*
X104062106Y-167834128D01*
X104110487Y-167737366D01*
X104207249Y-167688985D01*
X104400773Y-167688985D01*
X104497535Y-167737366D01*
X104062106Y-168317938D02*
X104158868Y-168366319D01*
X104400773Y-168366319D01*
X104497535Y-168317938D01*
X104545916Y-168221176D01*
X104545916Y-168124414D01*
X104497535Y-168027652D01*
X104400773Y-167979271D01*
X104158868Y-167979271D01*
X104062106Y-167930890D01*
X103578297Y-168366319D02*
X103578297Y-167688985D01*
X103578297Y-167882509D02*
X103529916Y-167785747D01*
X103481535Y-167737366D01*
X103384773Y-167688985D01*
X103288011Y-167688985D01*
X102562297Y-168317938D02*
X102659059Y-168366319D01*
X102852582Y-168366319D01*
X102949344Y-168317938D01*
X102997725Y-168221176D01*
X102997725Y-167834128D01*
X102949344Y-167737366D01*
X102852582Y-167688985D01*
X102659059Y-167688985D01*
X102562297Y-167737366D01*
X102513916Y-167834128D01*
X102513916Y-167930890D01*
X102997725Y-168027652D01*
X113095798Y-168274879D02*
X113192560Y-168226498D01*
X113240940Y-168178117D01*
X113289321Y-168081355D01*
X113289321Y-167791069D01*
X113240940Y-167694307D01*
X113192560Y-167645926D01*
X113095798Y-167597545D01*
X112950655Y-167597545D01*
X112853893Y-167645926D01*
X112805512Y-167694307D01*
X112757131Y-167791069D01*
X112757131Y-168081355D01*
X112805512Y-168178117D01*
X112853893Y-168226498D01*
X112950655Y-168274879D01*
X113095798Y-168274879D01*
X112321702Y-167597545D02*
X112321702Y-168613545D01*
X112321702Y-167645926D02*
X112224940Y-167597545D01*
X112031417Y-167597545D01*
X111934655Y-167645926D01*
X111886274Y-167694307D01*
X111837893Y-167791069D01*
X111837893Y-168081355D01*
X111886274Y-168178117D01*
X111934655Y-168226498D01*
X112031417Y-168274879D01*
X112224940Y-168274879D01*
X112321702Y-168226498D01*
X111015417Y-168226498D02*
X111112179Y-168274879D01*
X111305702Y-168274879D01*
X111402464Y-168226498D01*
X111450845Y-168129736D01*
X111450845Y-167742688D01*
X111402464Y-167645926D01*
X111305702Y-167597545D01*
X111112179Y-167597545D01*
X111015417Y-167645926D01*
X110967036Y-167742688D01*
X110967036Y-167839450D01*
X111450845Y-167936212D01*
X110531607Y-167597545D02*
X110531607Y-168274879D01*
X110531607Y-167694307D02*
X110483226Y-167645926D01*
X110386464Y-167597545D01*
X110241321Y-167597545D01*
X110144560Y-167645926D01*
X110096179Y-167742688D01*
X110096179Y-168274879D01*
D11*
X98806000Y-124931714D02*
X99060000Y-124568857D01*
X99241428Y-124931714D02*
X99241428Y-124169714D01*
X98951142Y-124169714D01*
X98878571Y-124206000D01*
X98842285Y-124242285D01*
X98806000Y-124314857D01*
X98806000Y-124423714D01*
X98842285Y-124496285D01*
X98878571Y-124532571D01*
X98951142Y-124568857D01*
X99241428Y-124568857D01*
X98552000Y-124169714D02*
X98080285Y-124169714D01*
X98334285Y-124460000D01*
X98225428Y-124460000D01*
X98152857Y-124496285D01*
X98116571Y-124532571D01*
X98080285Y-124605142D01*
X98080285Y-124786571D01*
X98116571Y-124859142D01*
X98152857Y-124895428D01*
X98225428Y-124931714D01*
X98443142Y-124931714D01*
X98515714Y-124895428D01*
X98552000Y-124859142D01*
X101835857Y-127399142D02*
X101872142Y-127435428D01*
X101981000Y-127471714D01*
X102053571Y-127471714D01*
X102162428Y-127435428D01*
X102235000Y-127362857D01*
X102271285Y-127290285D01*
X102307571Y-127145142D01*
X102307571Y-127036285D01*
X102271285Y-126891142D01*
X102235000Y-126818571D01*
X102162428Y-126746000D01*
X102053571Y-126709714D01*
X101981000Y-126709714D01*
X101872142Y-126746000D01*
X101835857Y-126782285D01*
X101110142Y-127471714D02*
X101545571Y-127471714D01*
X101327857Y-127471714D02*
X101327857Y-126709714D01*
X101400428Y-126818571D01*
X101473000Y-126891142D01*
X101545571Y-126927428D01*
X100638428Y-126709714D02*
X100565857Y-126709714D01*
X100493285Y-126746000D01*
X100457000Y-126782285D01*
X100420714Y-126854857D01*
X100384428Y-127000000D01*
X100384428Y-127181428D01*
X100420714Y-127326571D01*
X100457000Y-127399142D01*
X100493285Y-127435428D01*
X100565857Y-127471714D01*
X100638428Y-127471714D01*
X100711000Y-127435428D01*
X100747285Y-127399142D01*
X100783571Y-127326571D01*
X100819857Y-127181428D01*
X100819857Y-127000000D01*
X100783571Y-126854857D01*
X100747285Y-126782285D01*
X100711000Y-126746000D01*
X100638428Y-126709714D01*
D13*
X110009214Y-125004285D02*
X110039452Y-125034523D01*
X110130166Y-125064761D01*
X110190642Y-125064761D01*
X110281357Y-125034523D01*
X110341833Y-124974047D01*
X110372071Y-124913571D01*
X110402309Y-124792619D01*
X110402309Y-124701904D01*
X110372071Y-124580952D01*
X110341833Y-124520476D01*
X110281357Y-124460000D01*
X110190642Y-124429761D01*
X110130166Y-124429761D01*
X110039452Y-124460000D01*
X110009214Y-124490238D01*
X109767309Y-124490238D02*
X109737071Y-124460000D01*
X109676595Y-124429761D01*
X109525404Y-124429761D01*
X109464928Y-124460000D01*
X109434690Y-124490238D01*
X109404452Y-124550714D01*
X109404452Y-124611190D01*
X109434690Y-124701904D01*
X109797547Y-125064761D01*
X109404452Y-125064761D01*
X108829928Y-124429761D02*
X109132309Y-124429761D01*
X109162547Y-124732142D01*
X109132309Y-124701904D01*
X109071833Y-124671666D01*
X108920642Y-124671666D01*
X108860166Y-124701904D01*
X108829928Y-124732142D01*
X108799690Y-124792619D01*
X108799690Y-124943809D01*
X108829928Y-125004285D01*
X108860166Y-125034523D01*
X108920642Y-125064761D01*
X109071833Y-125064761D01*
X109132309Y-125034523D01*
X109162547Y-125004285D01*
D10*
X116936068Y-110006827D02*
X116936068Y-108306827D01*
X116364640Y-108306827D01*
X116221782Y-108387780D01*
X116150354Y-108468732D01*
X116078925Y-108630637D01*
X116078925Y-108873494D01*
X116150354Y-109035399D01*
X116221782Y-109116351D01*
X116364640Y-109197303D01*
X116936068Y-109197303D01*
X115436068Y-110006827D02*
X115436068Y-108306827D01*
X115436068Y-108954446D02*
X115293211Y-108873494D01*
X115007497Y-108873494D01*
X114864640Y-108954446D01*
X114793211Y-109035399D01*
X114721782Y-109197303D01*
X114721782Y-109683018D01*
X114793211Y-109844922D01*
X114864640Y-109925875D01*
X115007497Y-110006827D01*
X115293211Y-110006827D01*
X115436068Y-109925875D01*
X99102333Y-117075857D02*
X99150714Y-117124238D01*
X99295857Y-117172619D01*
X99392619Y-117172619D01*
X99537761Y-117124238D01*
X99634523Y-117027476D01*
X99682904Y-116930714D01*
X99731285Y-116737190D01*
X99731285Y-116592047D01*
X99682904Y-116398523D01*
X99634523Y-116301761D01*
X99537761Y-116205000D01*
X99392619Y-116156619D01*
X99295857Y-116156619D01*
X99150714Y-116205000D01*
X99102333Y-116253380D01*
X98763666Y-116156619D02*
X98134714Y-116156619D01*
X98473380Y-116543666D01*
X98328238Y-116543666D01*
X98231476Y-116592047D01*
X98183095Y-116640428D01*
X98134714Y-116737190D01*
X98134714Y-116979095D01*
X98183095Y-117075857D01*
X98231476Y-117124238D01*
X98328238Y-117172619D01*
X98618523Y-117172619D01*
X98715285Y-117124238D01*
X98763666Y-117075857D01*
D11*
X103867857Y-147465142D02*
X103904142Y-147501428D01*
X104013000Y-147537714D01*
X104085571Y-147537714D01*
X104194428Y-147501428D01*
X104267000Y-147428857D01*
X104303285Y-147356285D01*
X104339571Y-147211142D01*
X104339571Y-147102285D01*
X104303285Y-146957142D01*
X104267000Y-146884571D01*
X104194428Y-146812000D01*
X104085571Y-146775714D01*
X104013000Y-146775714D01*
X103904142Y-146812000D01*
X103867857Y-146848285D01*
X103142142Y-147537714D02*
X103577571Y-147537714D01*
X103359857Y-147537714D02*
X103359857Y-146775714D01*
X103432428Y-146884571D01*
X103505000Y-146957142D01*
X103577571Y-146993428D01*
X102706714Y-147102285D02*
X102779285Y-147066000D01*
X102815571Y-147029714D01*
X102851857Y-146957142D01*
X102851857Y-146920857D01*
X102815571Y-146848285D01*
X102779285Y-146812000D01*
X102706714Y-146775714D01*
X102561571Y-146775714D01*
X102489000Y-146812000D01*
X102452714Y-146848285D01*
X102416428Y-146920857D01*
X102416428Y-146957142D01*
X102452714Y-147029714D01*
X102489000Y-147066000D01*
X102561571Y-147102285D01*
X102706714Y-147102285D01*
X102779285Y-147138571D01*
X102815571Y-147174857D01*
X102851857Y-147247428D01*
X102851857Y-147392571D01*
X102815571Y-147465142D01*
X102779285Y-147501428D01*
X102706714Y-147537714D01*
X102561571Y-147537714D01*
X102489000Y-147501428D01*
X102452714Y-147465142D01*
X102416428Y-147392571D01*
X102416428Y-147247428D01*
X102452714Y-147174857D01*
X102489000Y-147138571D01*
X102561571Y-147102285D01*
D26*
X107166228Y-150885071D02*
X107192838Y-150911680D01*
X107272666Y-150938290D01*
X107325885Y-150938290D01*
X107405714Y-150911680D01*
X107458933Y-150858461D01*
X107485542Y-150805242D01*
X107512152Y-150698804D01*
X107512152Y-150618976D01*
X107485542Y-150512538D01*
X107458933Y-150459319D01*
X107405714Y-150406100D01*
X107325885Y-150379490D01*
X107272666Y-150379490D01*
X107192838Y-150406100D01*
X107166228Y-150432709D01*
X106634038Y-150938290D02*
X106953352Y-150938290D01*
X106793695Y-150938290D02*
X106793695Y-150379490D01*
X106846914Y-150459319D01*
X106900133Y-150512538D01*
X106953352Y-150539147D01*
X106155066Y-150379490D02*
X106261504Y-150379490D01*
X106314723Y-150406100D01*
X106341333Y-150432709D01*
X106394552Y-150512538D01*
X106421161Y-150618976D01*
X106421161Y-150831852D01*
X106394552Y-150885071D01*
X106367942Y-150911680D01*
X106314723Y-150938290D01*
X106208285Y-150938290D01*
X106155066Y-150911680D01*
X106128457Y-150885071D01*
X106101847Y-150831852D01*
X106101847Y-150698804D01*
X106128457Y-150645585D01*
X106155066Y-150618976D01*
X106208285Y-150592366D01*
X106314723Y-150592366D01*
X106367942Y-150618976D01*
X106394552Y-150645585D01*
X106421161Y-150698804D01*
X113483571Y-153882271D02*
X113510180Y-153855661D01*
X113536790Y-153775833D01*
X113536790Y-153722614D01*
X113510180Y-153642785D01*
X113456961Y-153589566D01*
X113403742Y-153562957D01*
X113297304Y-153536347D01*
X113217476Y-153536347D01*
X113111038Y-153562957D01*
X113057819Y-153589566D01*
X113004600Y-153642785D01*
X112977990Y-153722614D01*
X112977990Y-153775833D01*
X113004600Y-153855661D01*
X113031209Y-153882271D01*
X113536790Y-154414461D02*
X113536790Y-154095147D01*
X113536790Y-154254804D02*
X112977990Y-154254804D01*
X113057819Y-154201585D01*
X113111038Y-154148366D01*
X113137647Y-154095147D01*
X112977990Y-154920042D02*
X112977990Y-154653947D01*
X113244085Y-154627338D01*
X113217476Y-154653947D01*
X113190866Y-154707166D01*
X113190866Y-154840214D01*
X113217476Y-154893433D01*
X113244085Y-154920042D01*
X113297304Y-154946652D01*
X113430352Y-154946652D01*
X113483571Y-154920042D01*
X113510180Y-154893433D01*
X113536790Y-154840214D01*
X113536790Y-154707166D01*
X113510180Y-154653947D01*
X113483571Y-154627338D01*
D11*
X104312357Y-154767642D02*
X104348642Y-154803928D01*
X104457500Y-154840214D01*
X104530071Y-154840214D01*
X104638928Y-154803928D01*
X104711500Y-154731357D01*
X104747785Y-154658785D01*
X104784071Y-154513642D01*
X104784071Y-154404785D01*
X104747785Y-154259642D01*
X104711500Y-154187071D01*
X104638928Y-154114500D01*
X104530071Y-154078214D01*
X104457500Y-154078214D01*
X104348642Y-154114500D01*
X104312357Y-154150785D01*
X103586642Y-154840214D02*
X104022071Y-154840214D01*
X103804357Y-154840214D02*
X103804357Y-154078214D01*
X103876928Y-154187071D01*
X103949500Y-154259642D01*
X104022071Y-154295928D01*
X102860928Y-154840214D02*
X103296357Y-154840214D01*
X103078642Y-154840214D02*
X103078642Y-154078214D01*
X103151214Y-154187071D01*
X103223785Y-154259642D01*
X103296357Y-154295928D01*
X92056857Y-117438714D02*
X92310857Y-117075857D01*
X92492285Y-117438714D02*
X92492285Y-116676714D01*
X92202000Y-116676714D01*
X92129428Y-116713000D01*
X92093142Y-116749285D01*
X92056857Y-116821857D01*
X92056857Y-116930714D01*
X92093142Y-117003285D01*
X92129428Y-117039571D01*
X92202000Y-117075857D01*
X92492285Y-117075857D01*
X91403714Y-116930714D02*
X91403714Y-117438714D01*
X91585142Y-116640428D02*
X91766571Y-117184714D01*
X91294857Y-117184714D01*
X90678000Y-116676714D02*
X90823142Y-116676714D01*
X90895714Y-116713000D01*
X90932000Y-116749285D01*
X91004571Y-116858142D01*
X91040857Y-117003285D01*
X91040857Y-117293571D01*
X91004571Y-117366142D01*
X90968285Y-117402428D01*
X90895714Y-117438714D01*
X90750571Y-117438714D01*
X90678000Y-117402428D01*
X90641714Y-117366142D01*
X90605428Y-117293571D01*
X90605428Y-117112142D01*
X90641714Y-117039571D01*
X90678000Y-117003285D01*
X90750571Y-116967000D01*
X90895714Y-116967000D01*
X90968285Y-117003285D01*
X91004571Y-117039571D01*
X91040857Y-117112142D01*
X102851857Y-123534714D02*
X103105857Y-123171857D01*
X103287285Y-123534714D02*
X103287285Y-122772714D01*
X102997000Y-122772714D01*
X102924428Y-122809000D01*
X102888142Y-122845285D01*
X102851857Y-122917857D01*
X102851857Y-123026714D01*
X102888142Y-123099285D01*
X102924428Y-123135571D01*
X102997000Y-123171857D01*
X103287285Y-123171857D01*
X102198714Y-123026714D02*
X102198714Y-123534714D01*
X102380142Y-122736428D02*
X102561571Y-123280714D01*
X102089857Y-123280714D01*
X101835857Y-122845285D02*
X101799571Y-122809000D01*
X101727000Y-122772714D01*
X101545571Y-122772714D01*
X101473000Y-122809000D01*
X101436714Y-122845285D01*
X101400428Y-122917857D01*
X101400428Y-122990428D01*
X101436714Y-123099285D01*
X101872142Y-123534714D01*
X101400428Y-123534714D01*
X102851857Y-124931714D02*
X103105857Y-124568857D01*
X103287285Y-124931714D02*
X103287285Y-124169714D01*
X102997000Y-124169714D01*
X102924428Y-124206000D01*
X102888142Y-124242285D01*
X102851857Y-124314857D01*
X102851857Y-124423714D01*
X102888142Y-124496285D01*
X102924428Y-124532571D01*
X102997000Y-124568857D01*
X103287285Y-124568857D01*
X102198714Y-124423714D02*
X102198714Y-124931714D01*
X102380142Y-124133428D02*
X102561571Y-124677714D01*
X102089857Y-124677714D01*
X101400428Y-124931714D02*
X101835857Y-124931714D01*
X101618142Y-124931714D02*
X101618142Y-124169714D01*
X101690714Y-124278571D01*
X101763285Y-124351142D01*
X101835857Y-124387428D01*
X112249857Y-110961714D02*
X112503857Y-110598857D01*
X112685285Y-110961714D02*
X112685285Y-110199714D01*
X112395000Y-110199714D01*
X112322428Y-110236000D01*
X112286142Y-110272285D01*
X112249857Y-110344857D01*
X112249857Y-110453714D01*
X112286142Y-110526285D01*
X112322428Y-110562571D01*
X112395000Y-110598857D01*
X112685285Y-110598857D01*
X111596714Y-110453714D02*
X111596714Y-110961714D01*
X111778142Y-110163428D02*
X111959571Y-110707714D01*
X111487857Y-110707714D01*
X111052428Y-110199714D02*
X110979857Y-110199714D01*
X110907285Y-110236000D01*
X110871000Y-110272285D01*
X110834714Y-110344857D01*
X110798428Y-110490000D01*
X110798428Y-110671428D01*
X110834714Y-110816571D01*
X110871000Y-110889142D01*
X110907285Y-110925428D01*
X110979857Y-110961714D01*
X111052428Y-110961714D01*
X111125000Y-110925428D01*
X111161285Y-110889142D01*
X111197571Y-110816571D01*
X111233857Y-110671428D01*
X111233857Y-110490000D01*
X111197571Y-110344857D01*
X111161285Y-110272285D01*
X111125000Y-110236000D01*
X111052428Y-110199714D01*
X102089857Y-121756714D02*
X102343857Y-121393857D01*
X102525285Y-121756714D02*
X102525285Y-120994714D01*
X102235000Y-120994714D01*
X102162428Y-121031000D01*
X102126142Y-121067285D01*
X102089857Y-121139857D01*
X102089857Y-121248714D01*
X102126142Y-121321285D01*
X102162428Y-121357571D01*
X102235000Y-121393857D01*
X102525285Y-121393857D01*
X101835857Y-120994714D02*
X101364142Y-120994714D01*
X101618142Y-121285000D01*
X101509285Y-121285000D01*
X101436714Y-121321285D01*
X101400428Y-121357571D01*
X101364142Y-121430142D01*
X101364142Y-121611571D01*
X101400428Y-121684142D01*
X101436714Y-121720428D01*
X101509285Y-121756714D01*
X101727000Y-121756714D01*
X101799571Y-121720428D01*
X101835857Y-121684142D01*
X100674714Y-120994714D02*
X101037571Y-120994714D01*
X101073857Y-121357571D01*
X101037571Y-121321285D01*
X100965000Y-121285000D01*
X100783571Y-121285000D01*
X100711000Y-121321285D01*
X100674714Y-121357571D01*
X100638428Y-121430142D01*
X100638428Y-121611571D01*
X100674714Y-121684142D01*
X100711000Y-121720428D01*
X100783571Y-121756714D01*
X100965000Y-121756714D01*
X101037571Y-121720428D01*
X101073857Y-121684142D01*
X113011857Y-127598714D02*
X113265857Y-127235857D01*
X113447285Y-127598714D02*
X113447285Y-126836714D01*
X113157000Y-126836714D01*
X113084428Y-126873000D01*
X113048142Y-126909285D01*
X113011857Y-126981857D01*
X113011857Y-127090714D01*
X113048142Y-127163285D01*
X113084428Y-127199571D01*
X113157000Y-127235857D01*
X113447285Y-127235857D01*
X112757857Y-126836714D02*
X112286142Y-126836714D01*
X112540142Y-127127000D01*
X112431285Y-127127000D01*
X112358714Y-127163285D01*
X112322428Y-127199571D01*
X112286142Y-127272142D01*
X112286142Y-127453571D01*
X112322428Y-127526142D01*
X112358714Y-127562428D01*
X112431285Y-127598714D01*
X112649000Y-127598714D01*
X112721571Y-127562428D01*
X112757857Y-127526142D01*
X111633000Y-127090714D02*
X111633000Y-127598714D01*
X111814428Y-126800428D02*
X111995857Y-127344714D01*
X111524142Y-127344714D01*
D13*
X104421214Y-128811261D02*
X104632880Y-128508880D01*
X104784071Y-128811261D02*
X104784071Y-128176261D01*
X104542166Y-128176261D01*
X104481690Y-128206500D01*
X104451452Y-128236738D01*
X104421214Y-128297214D01*
X104421214Y-128387928D01*
X104451452Y-128448404D01*
X104481690Y-128478642D01*
X104542166Y-128508880D01*
X104784071Y-128508880D01*
X104209547Y-128176261D02*
X103816452Y-128176261D01*
X104028119Y-128418166D01*
X103937404Y-128418166D01*
X103876928Y-128448404D01*
X103846690Y-128478642D01*
X103816452Y-128539119D01*
X103816452Y-128690309D01*
X103846690Y-128750785D01*
X103876928Y-128781023D01*
X103937404Y-128811261D01*
X104118833Y-128811261D01*
X104179309Y-128781023D01*
X104209547Y-128750785D01*
X103604785Y-128176261D02*
X103211690Y-128176261D01*
X103423357Y-128418166D01*
X103332642Y-128418166D01*
X103272166Y-128448404D01*
X103241928Y-128478642D01*
X103211690Y-128539119D01*
X103211690Y-128690309D01*
X103241928Y-128750785D01*
X103272166Y-128781023D01*
X103332642Y-128811261D01*
X103514071Y-128811261D01*
X103574547Y-128781023D01*
X103604785Y-128750785D01*
D11*
X106589285Y-154286857D02*
X106952142Y-154540857D01*
X106589285Y-154722285D02*
X107351285Y-154722285D01*
X107351285Y-154432000D01*
X107315000Y-154359428D01*
X107278714Y-154323142D01*
X107206142Y-154286857D01*
X107097285Y-154286857D01*
X107024714Y-154323142D01*
X106988428Y-154359428D01*
X106952142Y-154432000D01*
X106952142Y-154722285D01*
X107278714Y-153996571D02*
X107315000Y-153960285D01*
X107351285Y-153887714D01*
X107351285Y-153706285D01*
X107315000Y-153633714D01*
X107278714Y-153597428D01*
X107206142Y-153561142D01*
X107133571Y-153561142D01*
X107024714Y-153597428D01*
X106589285Y-154032857D01*
X106589285Y-153561142D01*
X107351285Y-152908000D02*
X107351285Y-153053142D01*
X107315000Y-153125714D01*
X107278714Y-153162000D01*
X107169857Y-153234571D01*
X107024714Y-153270857D01*
X106734428Y-153270857D01*
X106661857Y-153234571D01*
X106625571Y-153198285D01*
X106589285Y-153125714D01*
X106589285Y-152980571D01*
X106625571Y-152908000D01*
X106661857Y-152871714D01*
X106734428Y-152835428D01*
X106915857Y-152835428D01*
X106988428Y-152871714D01*
X107024714Y-152908000D01*
X107061000Y-152980571D01*
X107061000Y-153125714D01*
X107024714Y-153198285D01*
X106988428Y-153234571D01*
X106915857Y-153270857D01*
D16*
X92632768Y-169792768D02*
X92923557Y-169741452D01*
X92838031Y-169998031D02*
X93197241Y-169638820D01*
X93060399Y-169501979D01*
X93009083Y-169484873D01*
X92974873Y-169484873D01*
X92923557Y-169501979D01*
X92872241Y-169553294D01*
X92855136Y-169604610D01*
X92855136Y-169638820D01*
X92872241Y-169690136D01*
X93009083Y-169826978D01*
X92666979Y-169108558D02*
X92838031Y-169279610D01*
X92684084Y-169467768D01*
X92684084Y-169433558D01*
X92666979Y-169382242D01*
X92581452Y-169296716D01*
X92530137Y-169279610D01*
X92495926Y-169279610D01*
X92444610Y-169296716D01*
X92359084Y-169382242D01*
X92341979Y-169433558D01*
X92341979Y-169467768D01*
X92359084Y-169519084D01*
X92444610Y-169604610D01*
X92495926Y-169621715D01*
X92530137Y-169621715D01*
D11*
X116295714Y-149560642D02*
X115932857Y-149306642D01*
X116295714Y-149125214D02*
X115533714Y-149125214D01*
X115533714Y-149415500D01*
X115570000Y-149488071D01*
X115606285Y-149524357D01*
X115678857Y-149560642D01*
X115787714Y-149560642D01*
X115860285Y-149524357D01*
X115896571Y-149488071D01*
X115932857Y-149415500D01*
X115932857Y-149125214D01*
X116295714Y-150286357D02*
X116295714Y-149850928D01*
X116295714Y-150068642D02*
X115533714Y-150068642D01*
X115642571Y-149996071D01*
X115715142Y-149923500D01*
X115751428Y-149850928D01*
X115533714Y-150975785D02*
X115533714Y-150612928D01*
X115896571Y-150576642D01*
X115860285Y-150612928D01*
X115824000Y-150685500D01*
X115824000Y-150866928D01*
X115860285Y-150939500D01*
X115896571Y-150975785D01*
X115969142Y-151012071D01*
X116150571Y-151012071D01*
X116223142Y-150975785D01*
X116259428Y-150939500D01*
X116295714Y-150866928D01*
X116295714Y-150685500D01*
X116259428Y-150612928D01*
X116223142Y-150576642D01*
X115025714Y-149814642D02*
X114662857Y-149560642D01*
X115025714Y-149379214D02*
X114263714Y-149379214D01*
X114263714Y-149669500D01*
X114300000Y-149742071D01*
X114336285Y-149778357D01*
X114408857Y-149814642D01*
X114517714Y-149814642D01*
X114590285Y-149778357D01*
X114626571Y-149742071D01*
X114662857Y-149669500D01*
X114662857Y-149379214D01*
X115025714Y-150540357D02*
X115025714Y-150104928D01*
X115025714Y-150322642D02*
X114263714Y-150322642D01*
X114372571Y-150250071D01*
X114445142Y-150177500D01*
X114481428Y-150104928D01*
X114517714Y-151193500D02*
X115025714Y-151193500D01*
X114227428Y-151012071D02*
X114771714Y-150830642D01*
X114771714Y-151302357D01*
D13*
X111793261Y-154785785D02*
X111490880Y-154574119D01*
X111793261Y-154422928D02*
X111158261Y-154422928D01*
X111158261Y-154664833D01*
X111188500Y-154725309D01*
X111218738Y-154755547D01*
X111279214Y-154785785D01*
X111369928Y-154785785D01*
X111430404Y-154755547D01*
X111460642Y-154725309D01*
X111490880Y-154664833D01*
X111490880Y-154422928D01*
X111793261Y-155390547D02*
X111793261Y-155027690D01*
X111793261Y-155209119D02*
X111158261Y-155209119D01*
X111248976Y-155148642D01*
X111309452Y-155088166D01*
X111339690Y-155027690D01*
X111158261Y-155602214D02*
X111158261Y-155995309D01*
X111400166Y-155783642D01*
X111400166Y-155874357D01*
X111430404Y-155934833D01*
X111460642Y-155965071D01*
X111521119Y-155995309D01*
X111672309Y-155995309D01*
X111732785Y-155965071D01*
X111763023Y-155934833D01*
X111793261Y-155874357D01*
X111793261Y-155692928D01*
X111763023Y-155632452D01*
X111732785Y-155602214D01*
X112041214Y-152496761D02*
X112252880Y-152194380D01*
X112404071Y-152496761D02*
X112404071Y-151861761D01*
X112162166Y-151861761D01*
X112101690Y-151892000D01*
X112071452Y-151922238D01*
X112041214Y-151982714D01*
X112041214Y-152073428D01*
X112071452Y-152133904D01*
X112101690Y-152164142D01*
X112162166Y-152194380D01*
X112404071Y-152194380D01*
X111436452Y-152496761D02*
X111799309Y-152496761D01*
X111617880Y-152496761D02*
X111617880Y-151861761D01*
X111678357Y-151952476D01*
X111738833Y-152012952D01*
X111799309Y-152043190D01*
X111194547Y-151922238D02*
X111164309Y-151892000D01*
X111103833Y-151861761D01*
X110952642Y-151861761D01*
X110892166Y-151892000D01*
X110861928Y-151922238D01*
X110831690Y-151982714D01*
X110831690Y-152043190D01*
X110861928Y-152133904D01*
X111224785Y-152496761D01*
X110831690Y-152496761D01*
X109253261Y-154785785D02*
X108950880Y-154574119D01*
X109253261Y-154422928D02*
X108618261Y-154422928D01*
X108618261Y-154664833D01*
X108648500Y-154725309D01*
X108678738Y-154755547D01*
X108739214Y-154785785D01*
X108829928Y-154785785D01*
X108890404Y-154755547D01*
X108920642Y-154725309D01*
X108950880Y-154664833D01*
X108950880Y-154422928D01*
X109253261Y-155390547D02*
X109253261Y-155027690D01*
X109253261Y-155209119D02*
X108618261Y-155209119D01*
X108708976Y-155148642D01*
X108769452Y-155088166D01*
X108799690Y-155027690D01*
X109253261Y-155995309D02*
X109253261Y-155632452D01*
X109253261Y-155813880D02*
X108618261Y-155813880D01*
X108708976Y-155753404D01*
X108769452Y-155692928D01*
X108799690Y-155632452D01*
X110009214Y-152496761D02*
X110220880Y-152194380D01*
X110372071Y-152496761D02*
X110372071Y-151861761D01*
X110130166Y-151861761D01*
X110069690Y-151892000D01*
X110039452Y-151922238D01*
X110009214Y-151982714D01*
X110009214Y-152073428D01*
X110039452Y-152133904D01*
X110069690Y-152164142D01*
X110130166Y-152194380D01*
X110372071Y-152194380D01*
X109404452Y-152496761D02*
X109767309Y-152496761D01*
X109585880Y-152496761D02*
X109585880Y-151861761D01*
X109646357Y-151952476D01*
X109706833Y-152012952D01*
X109767309Y-152043190D01*
X109011357Y-151861761D02*
X108950880Y-151861761D01*
X108890404Y-151892000D01*
X108860166Y-151922238D01*
X108829928Y-151982714D01*
X108799690Y-152103666D01*
X108799690Y-152254857D01*
X108829928Y-152375809D01*
X108860166Y-152436285D01*
X108890404Y-152466523D01*
X108950880Y-152496761D01*
X109011357Y-152496761D01*
X109071833Y-152466523D01*
X109102071Y-152436285D01*
X109132309Y-152375809D01*
X109162547Y-152254857D01*
X109162547Y-152103666D01*
X109132309Y-151982714D01*
X109102071Y-151922238D01*
X109071833Y-151892000D01*
X109011357Y-151861761D01*
D16*
X96630066Y-169838309D02*
X96799400Y-169596404D01*
X96920352Y-169838309D02*
X96920352Y-169330309D01*
X96726828Y-169330309D01*
X96678447Y-169354500D01*
X96654257Y-169378690D01*
X96630066Y-169427071D01*
X96630066Y-169499642D01*
X96654257Y-169548023D01*
X96678447Y-169572214D01*
X96726828Y-169596404D01*
X96920352Y-169596404D01*
X96339780Y-169548023D02*
X96388161Y-169523833D01*
X96412352Y-169499642D01*
X96436542Y-169451261D01*
X96436542Y-169427071D01*
X96412352Y-169378690D01*
X96388161Y-169354500D01*
X96339780Y-169330309D01*
X96243019Y-169330309D01*
X96194638Y-169354500D01*
X96170447Y-169378690D01*
X96146257Y-169427071D01*
X96146257Y-169451261D01*
X96170447Y-169499642D01*
X96194638Y-169523833D01*
X96243019Y-169548023D01*
X96339780Y-169548023D01*
X96388161Y-169572214D01*
X96412352Y-169596404D01*
X96436542Y-169644785D01*
X96436542Y-169741547D01*
X96412352Y-169789928D01*
X96388161Y-169814119D01*
X96339780Y-169838309D01*
X96243019Y-169838309D01*
X96194638Y-169814119D01*
X96170447Y-169789928D01*
X96146257Y-169741547D01*
X96146257Y-169644785D01*
X96170447Y-169596404D01*
X96194638Y-169572214D01*
X96243019Y-169548023D01*
D11*
X96520000Y-123534714D02*
X96774000Y-123171857D01*
X96955428Y-123534714D02*
X96955428Y-122772714D01*
X96665142Y-122772714D01*
X96592571Y-122809000D01*
X96556285Y-122845285D01*
X96520000Y-122917857D01*
X96520000Y-123026714D01*
X96556285Y-123099285D01*
X96592571Y-123135571D01*
X96665142Y-123171857D01*
X96955428Y-123171857D01*
X96229714Y-122845285D02*
X96193428Y-122809000D01*
X96120857Y-122772714D01*
X95939428Y-122772714D01*
X95866857Y-122809000D01*
X95830571Y-122845285D01*
X95794285Y-122917857D01*
X95794285Y-122990428D01*
X95830571Y-123099285D01*
X96266000Y-123534714D01*
X95794285Y-123534714D01*
D16*
X96668166Y-167171309D02*
X96837500Y-166929404D01*
X96958452Y-167171309D02*
X96958452Y-166663309D01*
X96764928Y-166663309D01*
X96716547Y-166687500D01*
X96692357Y-166711690D01*
X96668166Y-166760071D01*
X96668166Y-166832642D01*
X96692357Y-166881023D01*
X96716547Y-166905214D01*
X96764928Y-166929404D01*
X96958452Y-166929404D01*
X96184357Y-167171309D02*
X96474642Y-167171309D01*
X96329500Y-167171309D02*
X96329500Y-166663309D01*
X96377880Y-166735880D01*
X96426261Y-166784261D01*
X96474642Y-166808452D01*
D11*
X92310857Y-151347714D02*
X92564857Y-150984857D01*
X92746285Y-151347714D02*
X92746285Y-150585714D01*
X92456000Y-150585714D01*
X92383428Y-150622000D01*
X92347142Y-150658285D01*
X92310857Y-150730857D01*
X92310857Y-150839714D01*
X92347142Y-150912285D01*
X92383428Y-150948571D01*
X92456000Y-150984857D01*
X92746285Y-150984857D01*
X91585142Y-151347714D02*
X92020571Y-151347714D01*
X91802857Y-151347714D02*
X91802857Y-150585714D01*
X91875428Y-150694571D01*
X91948000Y-150767142D01*
X92020571Y-150803428D01*
X91222285Y-151347714D02*
X91077142Y-151347714D01*
X91004571Y-151311428D01*
X90968285Y-151275142D01*
X90895714Y-151166285D01*
X90859428Y-151021142D01*
X90859428Y-150730857D01*
X90895714Y-150658285D01*
X90932000Y-150622000D01*
X91004571Y-150585714D01*
X91149714Y-150585714D01*
X91222285Y-150622000D01*
X91258571Y-150658285D01*
X91294857Y-150730857D01*
X91294857Y-150912285D01*
X91258571Y-150984857D01*
X91222285Y-151021142D01*
X91149714Y-151057428D01*
X91004571Y-151057428D01*
X90932000Y-151021142D01*
X90895714Y-150984857D01*
X90859428Y-150912285D01*
X92310857Y-152617714D02*
X92564857Y-152254857D01*
X92746285Y-152617714D02*
X92746285Y-151855714D01*
X92456000Y-151855714D01*
X92383428Y-151892000D01*
X92347142Y-151928285D01*
X92310857Y-152000857D01*
X92310857Y-152109714D01*
X92347142Y-152182285D01*
X92383428Y-152218571D01*
X92456000Y-152254857D01*
X92746285Y-152254857D01*
X91585142Y-152617714D02*
X92020571Y-152617714D01*
X91802857Y-152617714D02*
X91802857Y-151855714D01*
X91875428Y-151964571D01*
X91948000Y-152037142D01*
X92020571Y-152073428D01*
X91149714Y-152182285D02*
X91222285Y-152146000D01*
X91258571Y-152109714D01*
X91294857Y-152037142D01*
X91294857Y-152000857D01*
X91258571Y-151928285D01*
X91222285Y-151892000D01*
X91149714Y-151855714D01*
X91004571Y-151855714D01*
X90932000Y-151892000D01*
X90895714Y-151928285D01*
X90859428Y-152000857D01*
X90859428Y-152037142D01*
X90895714Y-152109714D01*
X90932000Y-152146000D01*
X91004571Y-152182285D01*
X91149714Y-152182285D01*
X91222285Y-152218571D01*
X91258571Y-152254857D01*
X91294857Y-152327428D01*
X91294857Y-152472571D01*
X91258571Y-152545142D01*
X91222285Y-152581428D01*
X91149714Y-152617714D01*
X91004571Y-152617714D01*
X90932000Y-152581428D01*
X90895714Y-152545142D01*
X90859428Y-152472571D01*
X90859428Y-152327428D01*
X90895714Y-152254857D01*
X90932000Y-152218571D01*
X91004571Y-152182285D01*
X102180571Y-140208000D02*
X102180571Y-139954000D01*
X102579714Y-139954000D02*
X101817714Y-139954000D01*
X101817714Y-140316857D01*
X102180571Y-140607142D02*
X102180571Y-140861142D01*
X102579714Y-140970000D02*
X102579714Y-140607142D01*
X101817714Y-140607142D01*
X101817714Y-140970000D01*
X101817714Y-141187714D02*
X101817714Y-141623142D01*
X102579714Y-141405428D02*
X101817714Y-141405428D01*
X101817714Y-141804571D02*
X101817714Y-142276285D01*
X102108000Y-142022285D01*
X102108000Y-142131142D01*
X102144285Y-142203714D01*
X102180571Y-142240000D01*
X102253142Y-142276285D01*
X102434571Y-142276285D01*
X102507142Y-142240000D01*
X102543428Y-142203714D01*
X102579714Y-142131142D01*
X102579714Y-141913428D01*
X102543428Y-141840857D01*
X102507142Y-141804571D01*
D10*
X114644714Y-125917476D02*
X114644714Y-125494142D01*
X113979476Y-125312714D02*
X113979476Y-125917476D01*
X115249476Y-125917476D01*
X115249476Y-125312714D01*
X115249476Y-124889380D02*
X113979476Y-124042714D01*
X115249476Y-124042714D02*
X113979476Y-124889380D01*
X115249476Y-123740333D02*
X115249476Y-123014619D01*
X113979476Y-123377476D02*
X115249476Y-123377476D01*
X115128523Y-122651761D02*
X115189000Y-122591285D01*
X115249476Y-122470333D01*
X115249476Y-122167952D01*
X115189000Y-122047000D01*
X115128523Y-121986523D01*
X115007571Y-121926047D01*
X114886619Y-121926047D01*
X114705190Y-121986523D01*
X113979476Y-122712238D01*
X113979476Y-121926047D01*
X93816714Y-128330476D02*
X93816714Y-127907142D01*
X93151476Y-127725714D02*
X93151476Y-128330476D01*
X94421476Y-128330476D01*
X94421476Y-127725714D01*
X94421476Y-127302380D02*
X93151476Y-126455714D01*
X94421476Y-126455714D02*
X93151476Y-127302380D01*
X94421476Y-126153333D02*
X94421476Y-125427619D01*
X93151476Y-125790476D02*
X94421476Y-125790476D01*
X93151476Y-124339047D02*
X93151476Y-125064761D01*
X93151476Y-124701904D02*
X94421476Y-124701904D01*
X94240047Y-124822857D01*
X94119095Y-124943809D01*
X94058619Y-125064761D01*
D11*
X101092000Y-167277142D02*
X101128285Y-167313428D01*
X101237142Y-167349714D01*
X101309714Y-167349714D01*
X101418571Y-167313428D01*
X101491142Y-167240857D01*
X101527428Y-167168285D01*
X101563714Y-167023142D01*
X101563714Y-166914285D01*
X101527428Y-166769142D01*
X101491142Y-166696571D01*
X101418571Y-166624000D01*
X101309714Y-166587714D01*
X101237142Y-166587714D01*
X101128285Y-166624000D01*
X101092000Y-166660285D01*
X100366285Y-167349714D02*
X100801714Y-167349714D01*
X100584000Y-167349714D02*
X100584000Y-166587714D01*
X100656571Y-166696571D01*
X100729142Y-166769142D01*
X100801714Y-166805428D01*
D10*
X96151095Y-152605619D02*
X96151095Y-153428095D01*
X96102714Y-153524857D01*
X96054333Y-153573238D01*
X95957571Y-153621619D01*
X95764047Y-153621619D01*
X95667285Y-153573238D01*
X95618904Y-153524857D01*
X95570523Y-153428095D01*
X95570523Y-152605619D01*
X94554523Y-153621619D02*
X95135095Y-153621619D01*
X94844809Y-153621619D02*
X94844809Y-152605619D01*
X94941571Y-152750761D01*
X95038333Y-152847523D01*
X95135095Y-152895904D01*
X94300523Y-151674285D02*
X94240047Y-151553333D01*
X94179571Y-151492857D01*
X94058619Y-151432380D01*
X93695761Y-151432380D01*
X93574809Y-151492857D01*
X93514333Y-151553333D01*
X93453857Y-151674285D01*
X93453857Y-151855714D01*
X93514333Y-151976666D01*
X93574809Y-152037142D01*
X93695761Y-152097619D01*
X94058619Y-152097619D01*
X94179571Y-152037142D01*
X94240047Y-151976666D01*
X94300523Y-151855714D01*
X94300523Y-151674285D01*
D11*
X93798571Y-137450285D02*
X93871142Y-137414000D01*
X93943714Y-137341428D01*
X94052571Y-137232571D01*
X94125142Y-137196285D01*
X94197714Y-137196285D01*
X94161428Y-137377714D02*
X94234000Y-137341428D01*
X94306571Y-137268857D01*
X94342857Y-137123714D01*
X94342857Y-136869714D01*
X94306571Y-136724571D01*
X94234000Y-136652000D01*
X94161428Y-136615714D01*
X94016285Y-136615714D01*
X93943714Y-136652000D01*
X93871142Y-136724571D01*
X93834857Y-136869714D01*
X93834857Y-137123714D01*
X93871142Y-137268857D01*
X93943714Y-137341428D01*
X94016285Y-137377714D01*
X94161428Y-137377714D01*
X93580857Y-136615714D02*
X93109142Y-136615714D01*
X93363142Y-136906000D01*
X93254285Y-136906000D01*
X93181714Y-136942285D01*
X93145428Y-136978571D01*
X93109142Y-137051142D01*
X93109142Y-137232571D01*
X93145428Y-137305142D01*
X93181714Y-137341428D01*
X93254285Y-137377714D01*
X93472000Y-137377714D01*
X93544571Y-137341428D01*
X93580857Y-137305142D01*
D10*
X99102333Y-119077619D02*
X99586142Y-119077619D01*
X99586142Y-118061619D01*
X98279857Y-118061619D02*
X98763666Y-118061619D01*
X98812047Y-118545428D01*
X98763666Y-118497047D01*
X98666904Y-118448666D01*
X98425000Y-118448666D01*
X98328238Y-118497047D01*
X98279857Y-118545428D01*
X98231476Y-118642190D01*
X98231476Y-118884095D01*
X98279857Y-118980857D01*
X98328238Y-119029238D01*
X98425000Y-119077619D01*
X98666904Y-119077619D01*
X98763666Y-119029238D01*
X98812047Y-118980857D01*
X116628333Y-154667857D02*
X116676714Y-154716238D01*
X116821857Y-154764619D01*
X116918619Y-154764619D01*
X117063761Y-154716238D01*
X117160523Y-154619476D01*
X117208904Y-154522714D01*
X117257285Y-154329190D01*
X117257285Y-154184047D01*
X117208904Y-153990523D01*
X117160523Y-153893761D01*
X117063761Y-153797000D01*
X116918619Y-153748619D01*
X116821857Y-153748619D01*
X116676714Y-153797000D01*
X116628333Y-153845380D01*
X116241285Y-153845380D02*
X116192904Y-153797000D01*
X116096142Y-153748619D01*
X115854238Y-153748619D01*
X115757476Y-153797000D01*
X115709095Y-153845380D01*
X115660714Y-153942142D01*
X115660714Y-154038904D01*
X115709095Y-154184047D01*
X116289666Y-154764619D01*
X115660714Y-154764619D01*
D27*
X97726500Y-113051166D02*
X97726500Y-112162166D01*
X97430166Y-112797166D01*
X97133833Y-112162166D01*
X97133833Y-113051166D01*
X96710500Y-113051166D02*
X96710500Y-112162166D01*
X95779166Y-112966500D02*
X95821500Y-113008833D01*
X95948500Y-113051166D01*
X96033166Y-113051166D01*
X96160166Y-113008833D01*
X96244833Y-112924166D01*
X96287166Y-112839500D01*
X96329500Y-112670166D01*
X96329500Y-112543166D01*
X96287166Y-112373833D01*
X96244833Y-112289166D01*
X96160166Y-112204500D01*
X96033166Y-112162166D01*
X95948500Y-112162166D01*
X95821500Y-112204500D01*
X95779166Y-112246833D01*
X94890166Y-113051166D02*
X95186500Y-112627833D01*
X95398166Y-113051166D02*
X95398166Y-112162166D01*
X95059500Y-112162166D01*
X94974833Y-112204500D01*
X94932500Y-112246833D01*
X94890166Y-112331500D01*
X94890166Y-112458500D01*
X94932500Y-112543166D01*
X94974833Y-112585500D01*
X95059500Y-112627833D01*
X95398166Y-112627833D01*
X94339833Y-112162166D02*
X94170500Y-112162166D01*
X94085833Y-112204500D01*
X94001166Y-112289166D01*
X93958833Y-112458500D01*
X93958833Y-112754833D01*
X94001166Y-112924166D01*
X94085833Y-113008833D01*
X94170500Y-113051166D01*
X94339833Y-113051166D01*
X94424500Y-113008833D01*
X94509166Y-112924166D01*
X94551500Y-112754833D01*
X94551500Y-112458500D01*
X94509166Y-112289166D01*
X94424500Y-112204500D01*
X94339833Y-112162166D01*
X93789500Y-113135833D02*
X93112166Y-113135833D01*
X92942833Y-113008833D02*
X92815833Y-113051166D01*
X92604166Y-113051166D01*
X92519500Y-113008833D01*
X92477166Y-112966500D01*
X92434833Y-112881833D01*
X92434833Y-112797166D01*
X92477166Y-112712500D01*
X92519500Y-112670166D01*
X92604166Y-112627833D01*
X92773500Y-112585500D01*
X92858166Y-112543166D01*
X92900500Y-112500833D01*
X92942833Y-112416166D01*
X92942833Y-112331500D01*
X92900500Y-112246833D01*
X92858166Y-112204500D01*
X92773500Y-112162166D01*
X92561833Y-112162166D01*
X92434833Y-112204500D01*
X92053833Y-113051166D02*
X92053833Y-112162166D01*
X91842166Y-112162166D01*
X91715166Y-112204500D01*
X91630500Y-112289166D01*
X91588166Y-112373833D01*
X91545833Y-112543166D01*
X91545833Y-112670166D01*
X91588166Y-112839500D01*
X91630500Y-112924166D01*
X91715166Y-113008833D01*
X91842166Y-113051166D01*
X92053833Y-113051166D01*
X90699166Y-113051166D02*
X91207166Y-113051166D01*
X90953166Y-113051166D02*
X90953166Y-112162166D01*
X91037833Y-112289166D01*
X91122500Y-112373833D01*
X91207166Y-112416166D01*
D28*
X108116190Y-113513190D02*
X108116190Y-113013190D01*
X107830476Y-113513190D01*
X107830476Y-113013190D01*
X107520952Y-113513190D02*
X107568571Y-113489380D01*
X107592380Y-113465571D01*
X107616190Y-113417952D01*
X107616190Y-113275095D01*
X107592380Y-113227476D01*
X107568571Y-113203666D01*
X107520952Y-113179857D01*
X107449523Y-113179857D01*
X107401904Y-113203666D01*
X107378095Y-113227476D01*
X107354285Y-113275095D01*
X107354285Y-113417952D01*
X107378095Y-113465571D01*
X107401904Y-113489380D01*
X107449523Y-113513190D01*
X107520952Y-113513190D01*
X107140000Y-113513190D02*
X107140000Y-113179857D01*
X107140000Y-113275095D02*
X107116190Y-113227476D01*
X107092380Y-113203666D01*
X107044761Y-113179857D01*
X106997142Y-113179857D01*
X106830476Y-113513190D02*
X106830476Y-113179857D01*
X106830476Y-113227476D02*
X106806666Y-113203666D01*
X106759047Y-113179857D01*
X106687619Y-113179857D01*
X106640000Y-113203666D01*
X106616190Y-113251285D01*
X106616190Y-113513190D01*
X106616190Y-113251285D02*
X106592380Y-113203666D01*
X106544761Y-113179857D01*
X106473333Y-113179857D01*
X106425714Y-113203666D01*
X106401904Y-113251285D01*
X106401904Y-113513190D01*
X105949523Y-113513190D02*
X105949523Y-113251285D01*
X105973333Y-113203666D01*
X106020952Y-113179857D01*
X106116190Y-113179857D01*
X106163809Y-113203666D01*
X105949523Y-113489380D02*
X105997142Y-113513190D01*
X106116190Y-113513190D01*
X106163809Y-113489380D01*
X106187619Y-113441761D01*
X106187619Y-113394142D01*
X106163809Y-113346523D01*
X106116190Y-113322714D01*
X105997142Y-113322714D01*
X105949523Y-113298904D01*
X105640000Y-113513190D02*
X105687619Y-113489380D01*
X105711428Y-113441761D01*
X105711428Y-113013190D01*
X104973333Y-113013190D02*
X104878095Y-113013190D01*
X104830476Y-113037000D01*
X104782857Y-113084619D01*
X104759047Y-113179857D01*
X104759047Y-113346523D01*
X104782857Y-113441761D01*
X104830476Y-113489380D01*
X104878095Y-113513190D01*
X104973333Y-113513190D01*
X105020952Y-113489380D01*
X105068571Y-113441761D01*
X105092380Y-113346523D01*
X105092380Y-113179857D01*
X105068571Y-113084619D01*
X105020952Y-113037000D01*
X104973333Y-113013190D01*
X104544761Y-113179857D02*
X104544761Y-113679857D01*
X104544761Y-113203666D02*
X104497142Y-113179857D01*
X104401904Y-113179857D01*
X104354285Y-113203666D01*
X104330476Y-113227476D01*
X104306666Y-113275095D01*
X104306666Y-113417952D01*
X104330476Y-113465571D01*
X104354285Y-113489380D01*
X104401904Y-113513190D01*
X104497142Y-113513190D01*
X104544761Y-113489380D01*
X103901904Y-113489380D02*
X103949523Y-113513190D01*
X104044761Y-113513190D01*
X104092380Y-113489380D01*
X104116190Y-113441761D01*
X104116190Y-113251285D01*
X104092380Y-113203666D01*
X104044761Y-113179857D01*
X103949523Y-113179857D01*
X103901904Y-113203666D01*
X103878095Y-113251285D01*
X103878095Y-113298904D01*
X104116190Y-113346523D01*
X103663809Y-113179857D02*
X103663809Y-113513190D01*
X103663809Y-113227476D02*
X103640000Y-113203666D01*
X103592380Y-113179857D01*
X103520952Y-113179857D01*
X103473333Y-113203666D01*
X103449523Y-113251285D01*
X103449523Y-113513190D01*
X102854285Y-113489380D02*
X102782857Y-113513190D01*
X102663809Y-113513190D01*
X102616190Y-113489380D01*
X102592380Y-113465571D01*
X102568571Y-113417952D01*
X102568571Y-113370333D01*
X102592380Y-113322714D01*
X102616190Y-113298904D01*
X102663809Y-113275095D01*
X102759047Y-113251285D01*
X102806666Y-113227476D01*
X102830476Y-113203666D01*
X102854285Y-113156047D01*
X102854285Y-113108428D01*
X102830476Y-113060809D01*
X102806666Y-113037000D01*
X102759047Y-113013190D01*
X102640000Y-113013190D01*
X102568571Y-113037000D01*
X102401904Y-113179857D02*
X102306666Y-113513190D01*
X102211428Y-113275095D01*
X102116190Y-113513190D01*
X102020952Y-113179857D01*
X101830476Y-113513190D02*
X101830476Y-113179857D01*
X101830476Y-113013190D02*
X101854285Y-113037000D01*
X101830476Y-113060809D01*
X101806666Y-113037000D01*
X101830476Y-113013190D01*
X101830476Y-113060809D01*
X101663809Y-113179857D02*
X101473333Y-113179857D01*
X101592380Y-113013190D02*
X101592380Y-113441761D01*
X101568571Y-113489380D01*
X101520952Y-113513190D01*
X101473333Y-113513190D01*
X101092380Y-113489380D02*
X101140000Y-113513190D01*
X101235238Y-113513190D01*
X101282857Y-113489380D01*
X101306666Y-113465571D01*
X101330476Y-113417952D01*
X101330476Y-113275095D01*
X101306666Y-113227476D01*
X101282857Y-113203666D01*
X101235238Y-113179857D01*
X101140000Y-113179857D01*
X101092380Y-113203666D01*
X100878095Y-113513190D02*
X100878095Y-113013190D01*
X100663809Y-113513190D02*
X100663809Y-113251285D01*
X100687619Y-113203666D01*
X100735238Y-113179857D01*
X100806666Y-113179857D01*
X100854285Y-113203666D01*
X100878095Y-113227476D01*
X106211428Y-114465571D02*
X106235238Y-114489380D01*
X106306666Y-114513190D01*
X106354285Y-114513190D01*
X106425714Y-114489380D01*
X106473333Y-114441761D01*
X106497142Y-114394142D01*
X106520952Y-114298904D01*
X106520952Y-114227476D01*
X106497142Y-114132238D01*
X106473333Y-114084619D01*
X106425714Y-114037000D01*
X106354285Y-114013190D01*
X106306666Y-114013190D01*
X106235238Y-114037000D01*
X106211428Y-114060809D01*
X105782857Y-114513190D02*
X105782857Y-114251285D01*
X105806666Y-114203666D01*
X105854285Y-114179857D01*
X105949523Y-114179857D01*
X105997142Y-114203666D01*
X105782857Y-114489380D02*
X105830476Y-114513190D01*
X105949523Y-114513190D01*
X105997142Y-114489380D01*
X106020952Y-114441761D01*
X106020952Y-114394142D01*
X105997142Y-114346523D01*
X105949523Y-114322714D01*
X105830476Y-114322714D01*
X105782857Y-114298904D01*
X105544761Y-114513190D02*
X105544761Y-114179857D01*
X105544761Y-114275095D02*
X105520952Y-114227476D01*
X105497142Y-114203666D01*
X105449523Y-114179857D01*
X105401904Y-114179857D01*
X105020952Y-114513190D02*
X105020952Y-114013190D01*
X105020952Y-114489380D02*
X105068571Y-114513190D01*
X105163809Y-114513190D01*
X105211428Y-114489380D01*
X105235238Y-114465571D01*
X105259047Y-114417952D01*
X105259047Y-114275095D01*
X105235238Y-114227476D01*
X105211428Y-114203666D01*
X105163809Y-114179857D01*
X105068571Y-114179857D01*
X105020952Y-114203666D01*
X104401904Y-114513190D02*
X104401904Y-114013190D01*
X104282857Y-114013190D01*
X104211428Y-114037000D01*
X104163809Y-114084619D01*
X104140000Y-114132238D01*
X104116190Y-114227476D01*
X104116190Y-114298904D01*
X104140000Y-114394142D01*
X104163809Y-114441761D01*
X104211428Y-114489380D01*
X104282857Y-114513190D01*
X104401904Y-114513190D01*
X103711428Y-114489380D02*
X103759047Y-114513190D01*
X103854285Y-114513190D01*
X103901904Y-114489380D01*
X103925714Y-114441761D01*
X103925714Y-114251285D01*
X103901904Y-114203666D01*
X103854285Y-114179857D01*
X103759047Y-114179857D01*
X103711428Y-114203666D01*
X103687619Y-114251285D01*
X103687619Y-114298904D01*
X103925714Y-114346523D01*
X103544761Y-114179857D02*
X103354285Y-114179857D01*
X103473333Y-114013190D02*
X103473333Y-114441761D01*
X103449523Y-114489380D01*
X103401904Y-114513190D01*
X103354285Y-114513190D01*
X102997142Y-114489380D02*
X103044761Y-114513190D01*
X103140000Y-114513190D01*
X103187619Y-114489380D01*
X103211428Y-114441761D01*
X103211428Y-114251285D01*
X103187619Y-114203666D01*
X103140000Y-114179857D01*
X103044761Y-114179857D01*
X102997142Y-114203666D01*
X102973333Y-114251285D01*
X102973333Y-114298904D01*
X103211428Y-114346523D01*
X102544761Y-114489380D02*
X102592380Y-114513190D01*
X102687619Y-114513190D01*
X102735238Y-114489380D01*
X102759047Y-114465571D01*
X102782857Y-114417952D01*
X102782857Y-114275095D01*
X102759047Y-114227476D01*
X102735238Y-114203666D01*
X102687619Y-114179857D01*
X102592380Y-114179857D01*
X102544761Y-114203666D01*
X102401904Y-114179857D02*
X102211428Y-114179857D01*
X102330476Y-114013190D02*
X102330476Y-114441761D01*
X102306666Y-114489380D01*
X102259047Y-114513190D01*
X102211428Y-114513190D01*
D11*
X103867857Y-146322142D02*
X103904142Y-146358428D01*
X104013000Y-146394714D01*
X104085571Y-146394714D01*
X104194428Y-146358428D01*
X104267000Y-146285857D01*
X104303285Y-146213285D01*
X104339571Y-146068142D01*
X104339571Y-145959285D01*
X104303285Y-145814142D01*
X104267000Y-145741571D01*
X104194428Y-145669000D01*
X104085571Y-145632714D01*
X104013000Y-145632714D01*
X103904142Y-145669000D01*
X103867857Y-145705285D01*
X103142142Y-146394714D02*
X103577571Y-146394714D01*
X103359857Y-146394714D02*
X103359857Y-145632714D01*
X103432428Y-145741571D01*
X103505000Y-145814142D01*
X103577571Y-145850428D01*
X102888142Y-145632714D02*
X102380142Y-145632714D01*
X102706714Y-146394714D01*
D13*
X103595714Y-151483785D02*
X103625952Y-151514023D01*
X103716666Y-151544261D01*
X103777142Y-151544261D01*
X103867857Y-151514023D01*
X103928333Y-151453547D01*
X103958571Y-151393071D01*
X103988809Y-151272119D01*
X103988809Y-151181404D01*
X103958571Y-151060452D01*
X103928333Y-150999976D01*
X103867857Y-150939500D01*
X103777142Y-150909261D01*
X103716666Y-150909261D01*
X103625952Y-150939500D01*
X103595714Y-150969738D01*
X102990952Y-151544261D02*
X103353809Y-151544261D01*
X103172380Y-151544261D02*
X103172380Y-150909261D01*
X103232857Y-150999976D01*
X103293333Y-151060452D01*
X103353809Y-151090690D01*
X102779285Y-150909261D02*
X102386190Y-150909261D01*
X102597857Y-151151166D01*
X102507142Y-151151166D01*
X102446666Y-151181404D01*
X102416428Y-151211642D01*
X102386190Y-151272119D01*
X102386190Y-151423309D01*
X102416428Y-151483785D01*
X102446666Y-151514023D01*
X102507142Y-151544261D01*
X102688571Y-151544261D01*
X102749047Y-151514023D01*
X102779285Y-151483785D01*
D11*
X102743000Y-144290142D02*
X102779285Y-144326428D01*
X102888142Y-144362714D01*
X102960714Y-144362714D01*
X103069571Y-144326428D01*
X103142142Y-144253857D01*
X103178428Y-144181285D01*
X103214714Y-144036142D01*
X103214714Y-143927285D01*
X103178428Y-143782142D01*
X103142142Y-143709571D01*
X103069571Y-143637000D01*
X102960714Y-143600714D01*
X102888142Y-143600714D01*
X102779285Y-143637000D01*
X102743000Y-143673285D01*
X102380142Y-144362714D02*
X102235000Y-144362714D01*
X102162428Y-144326428D01*
X102126142Y-144290142D01*
X102053571Y-144181285D01*
X102017285Y-144036142D01*
X102017285Y-143745857D01*
X102053571Y-143673285D01*
X102089857Y-143637000D01*
X102162428Y-143600714D01*
X102307571Y-143600714D01*
X102380142Y-143637000D01*
X102416428Y-143673285D01*
X102452714Y-143745857D01*
X102452714Y-143927285D01*
X102416428Y-143999857D01*
X102380142Y-144036142D01*
X102307571Y-144072428D01*
X102162428Y-144072428D01*
X102089857Y-144036142D01*
X102053571Y-143999857D01*
X102017285Y-143927285D01*
D13*
X98657833Y-153134785D02*
X98688071Y-153165023D01*
X98778785Y-153195261D01*
X98839261Y-153195261D01*
X98929976Y-153165023D01*
X98990452Y-153104547D01*
X99020690Y-153044071D01*
X99050928Y-152923119D01*
X99050928Y-152832404D01*
X99020690Y-152711452D01*
X98990452Y-152650976D01*
X98929976Y-152590500D01*
X98839261Y-152560261D01*
X98778785Y-152560261D01*
X98688071Y-152590500D01*
X98657833Y-152620738D01*
X98446166Y-152560261D02*
X98022833Y-152560261D01*
X98294976Y-153195261D01*
D11*
X110580714Y-141423571D02*
X110217857Y-141169571D01*
X110580714Y-140988142D02*
X109818714Y-140988142D01*
X109818714Y-141278428D01*
X109855000Y-141351000D01*
X109891285Y-141387285D01*
X109963857Y-141423571D01*
X110072714Y-141423571D01*
X110145285Y-141387285D01*
X110181571Y-141351000D01*
X110217857Y-141278428D01*
X110217857Y-140988142D01*
X110580714Y-141750142D02*
X109818714Y-141750142D01*
X110363000Y-142004142D01*
X109818714Y-142258142D01*
X110580714Y-142258142D01*
X110580714Y-143020142D02*
X110580714Y-142584714D01*
X110580714Y-142802428D02*
X109818714Y-142802428D01*
X109927571Y-142729857D01*
X110000142Y-142657285D01*
X110036428Y-142584714D01*
X92383428Y-110326714D02*
X92637428Y-109963857D01*
X92818857Y-110326714D02*
X92818857Y-109564714D01*
X92528571Y-109564714D01*
X92456000Y-109601000D01*
X92419714Y-109637285D01*
X92383428Y-109709857D01*
X92383428Y-109818714D01*
X92419714Y-109891285D01*
X92456000Y-109927571D01*
X92528571Y-109963857D01*
X92818857Y-109963857D01*
X92056857Y-110326714D02*
X92056857Y-109564714D01*
X91802857Y-110109000D01*
X91548857Y-109564714D01*
X91548857Y-110326714D01*
X91222285Y-109637285D02*
X91186000Y-109601000D01*
X91113428Y-109564714D01*
X90932000Y-109564714D01*
X90859428Y-109601000D01*
X90823142Y-109637285D01*
X90786857Y-109709857D01*
X90786857Y-109782428D01*
X90823142Y-109891285D01*
X91258571Y-110326714D01*
X90786857Y-110326714D01*
X97989571Y-130338285D02*
X98062142Y-130302000D01*
X98134714Y-130229428D01*
X98243571Y-130120571D01*
X98316142Y-130084285D01*
X98388714Y-130084285D01*
X98352428Y-130265714D02*
X98425000Y-130229428D01*
X98497571Y-130156857D01*
X98533857Y-130011714D01*
X98533857Y-129757714D01*
X98497571Y-129612571D01*
X98425000Y-129540000D01*
X98352428Y-129503714D01*
X98207285Y-129503714D01*
X98134714Y-129540000D01*
X98062142Y-129612571D01*
X98025857Y-129757714D01*
X98025857Y-130011714D01*
X98062142Y-130156857D01*
X98134714Y-130229428D01*
X98207285Y-130265714D01*
X98352428Y-130265714D01*
X97735571Y-129576285D02*
X97699285Y-129540000D01*
X97626714Y-129503714D01*
X97445285Y-129503714D01*
X97372714Y-129540000D01*
X97336428Y-129576285D01*
X97300142Y-129648857D01*
X97300142Y-129721428D01*
X97336428Y-129830285D01*
X97771857Y-130265714D01*
X97300142Y-130265714D01*
X104140000Y-148744214D02*
X104502857Y-148744214D01*
X104502857Y-147982214D01*
X103486857Y-148744214D02*
X103922285Y-148744214D01*
X103704571Y-148744214D02*
X103704571Y-147982214D01*
X103777142Y-148091071D01*
X103849714Y-148163642D01*
X103922285Y-148199928D01*
X95885000Y-143401142D02*
X95921285Y-143437428D01*
X96030142Y-143473714D01*
X96102714Y-143473714D01*
X96211571Y-143437428D01*
X96284142Y-143364857D01*
X96320428Y-143292285D01*
X96356714Y-143147142D01*
X96356714Y-143038285D01*
X96320428Y-142893142D01*
X96284142Y-142820571D01*
X96211571Y-142748000D01*
X96102714Y-142711714D01*
X96030142Y-142711714D01*
X95921285Y-142748000D01*
X95885000Y-142784285D01*
X95195571Y-142711714D02*
X95558428Y-142711714D01*
X95594714Y-143074571D01*
X95558428Y-143038285D01*
X95485857Y-143002000D01*
X95304428Y-143002000D01*
X95231857Y-143038285D01*
X95195571Y-143074571D01*
X95159285Y-143147142D01*
X95159285Y-143328571D01*
X95195571Y-143401142D01*
X95231857Y-143437428D01*
X95304428Y-143473714D01*
X95485857Y-143473714D01*
X95558428Y-143437428D01*
X95594714Y-143401142D01*
D10*
X117081904Y-118696619D02*
X117081904Y-117680619D01*
X116840000Y-117680619D01*
X116694857Y-117729000D01*
X116598095Y-117825761D01*
X116549714Y-117922523D01*
X116501333Y-118116047D01*
X116501333Y-118261190D01*
X116549714Y-118454714D01*
X116598095Y-118551476D01*
X116694857Y-118648238D01*
X116840000Y-118696619D01*
X117081904Y-118696619D01*
X115630476Y-118019285D02*
X115630476Y-118696619D01*
X115872380Y-117632238D02*
X116114285Y-118357952D01*
X115485333Y-118357952D01*
D11*
X115170857Y-113628714D02*
X115424857Y-113265857D01*
X115606285Y-113628714D02*
X115606285Y-112866714D01*
X115316000Y-112866714D01*
X115243428Y-112903000D01*
X115207142Y-112939285D01*
X115170857Y-113011857D01*
X115170857Y-113120714D01*
X115207142Y-113193285D01*
X115243428Y-113229571D01*
X115316000Y-113265857D01*
X115606285Y-113265857D01*
X114916857Y-112866714D02*
X114445142Y-112866714D01*
X114699142Y-113157000D01*
X114590285Y-113157000D01*
X114517714Y-113193285D01*
X114481428Y-113229571D01*
X114445142Y-113302142D01*
X114445142Y-113483571D01*
X114481428Y-113556142D01*
X114517714Y-113592428D01*
X114590285Y-113628714D01*
X114808000Y-113628714D01*
X114880571Y-113592428D01*
X114916857Y-113556142D01*
X114191142Y-112866714D02*
X113683142Y-112866714D01*
X114009714Y-113628714D01*
D10*
X111518095Y-144477619D02*
X111518095Y-145300095D01*
X111469714Y-145396857D01*
X111421333Y-145445238D01*
X111324571Y-145493619D01*
X111131047Y-145493619D01*
X111034285Y-145445238D01*
X110985904Y-145396857D01*
X110937523Y-145300095D01*
X110937523Y-144477619D01*
X110018285Y-144816285D02*
X110018285Y-145493619D01*
X110260190Y-144429238D02*
X110502095Y-145154952D01*
X109873142Y-145154952D01*
X105422095Y-131904619D02*
X105422095Y-132727095D01*
X105373714Y-132823857D01*
X105325333Y-132872238D01*
X105228571Y-132920619D01*
X105035047Y-132920619D01*
X104938285Y-132872238D01*
X104889904Y-132823857D01*
X104841523Y-132727095D01*
X104841523Y-131904619D01*
X104212571Y-132340047D02*
X104309333Y-132291666D01*
X104357714Y-132243285D01*
X104406095Y-132146523D01*
X104406095Y-132098142D01*
X104357714Y-132001380D01*
X104309333Y-131953000D01*
X104212571Y-131904619D01*
X104019047Y-131904619D01*
X103922285Y-131953000D01*
X103873904Y-132001380D01*
X103825523Y-132098142D01*
X103825523Y-132146523D01*
X103873904Y-132243285D01*
X103922285Y-132291666D01*
X104019047Y-132340047D01*
X104212571Y-132340047D01*
X104309333Y-132388428D01*
X104357714Y-132436809D01*
X104406095Y-132533571D01*
X104406095Y-132727095D01*
X104357714Y-132823857D01*
X104309333Y-132872238D01*
X104212571Y-132920619D01*
X104019047Y-132920619D01*
X103922285Y-132872238D01*
X103873904Y-132823857D01*
X103825523Y-132727095D01*
X103825523Y-132533571D01*
X103873904Y-132436809D01*
X103922285Y-132388428D01*
X104019047Y-132340047D01*
X105627714Y-134319523D02*
X105748666Y-134259047D01*
X105809142Y-134198571D01*
X105869619Y-134077619D01*
X105869619Y-133714761D01*
X105809142Y-133593809D01*
X105748666Y-133533333D01*
X105627714Y-133472857D01*
X105446285Y-133472857D01*
X105325333Y-133533333D01*
X105264857Y-133593809D01*
X105204380Y-133714761D01*
X105204380Y-134077619D01*
X105264857Y-134198571D01*
X105325333Y-134259047D01*
X105446285Y-134319523D01*
X105627714Y-134319523D01*
D13*
X93311738Y-133123214D02*
X93614119Y-133334880D01*
X93311738Y-133486071D02*
X93946738Y-133486071D01*
X93946738Y-133244166D01*
X93916500Y-133183690D01*
X93886261Y-133153452D01*
X93825785Y-133123214D01*
X93735071Y-133123214D01*
X93674595Y-133153452D01*
X93644357Y-133183690D01*
X93614119Y-133244166D01*
X93614119Y-133486071D01*
X93886261Y-132881309D02*
X93916500Y-132851071D01*
X93946738Y-132790595D01*
X93946738Y-132639404D01*
X93916500Y-132578928D01*
X93886261Y-132548690D01*
X93825785Y-132518452D01*
X93765309Y-132518452D01*
X93674595Y-132548690D01*
X93311738Y-132911547D01*
X93311738Y-132518452D01*
X93311738Y-131913690D02*
X93311738Y-132276547D01*
X93311738Y-132095119D02*
X93946738Y-132095119D01*
X93856023Y-132155595D01*
X93795547Y-132216071D01*
X93765309Y-132276547D01*
X97950261Y-132306785D02*
X97647880Y-132095119D01*
X97950261Y-131943928D02*
X97315261Y-131943928D01*
X97315261Y-132185833D01*
X97345500Y-132246309D01*
X97375738Y-132276547D01*
X97436214Y-132306785D01*
X97526928Y-132306785D01*
X97587404Y-132276547D01*
X97617642Y-132246309D01*
X97647880Y-132185833D01*
X97647880Y-131943928D01*
X97375738Y-132548690D02*
X97345500Y-132578928D01*
X97315261Y-132639404D01*
X97315261Y-132790595D01*
X97345500Y-132851071D01*
X97375738Y-132881309D01*
X97436214Y-132911547D01*
X97496690Y-132911547D01*
X97587404Y-132881309D01*
X97950261Y-132518452D01*
X97950261Y-132911547D01*
X97315261Y-133304642D02*
X97315261Y-133365119D01*
X97345500Y-133425595D01*
X97375738Y-133455833D01*
X97436214Y-133486071D01*
X97557166Y-133516309D01*
X97708357Y-133516309D01*
X97829309Y-133486071D01*
X97889785Y-133455833D01*
X97920023Y-133425595D01*
X97950261Y-133365119D01*
X97950261Y-133304642D01*
X97920023Y-133244166D01*
X97889785Y-133213928D01*
X97829309Y-133183690D01*
X97708357Y-133153452D01*
X97557166Y-133153452D01*
X97436214Y-133183690D01*
X97375738Y-133213928D01*
X97345500Y-133244166D01*
X97315261Y-133304642D01*
X104675214Y-127160261D02*
X104886880Y-126857880D01*
X105038071Y-127160261D02*
X105038071Y-126525261D01*
X104796166Y-126525261D01*
X104735690Y-126555500D01*
X104705452Y-126585738D01*
X104675214Y-126646214D01*
X104675214Y-126736928D01*
X104705452Y-126797404D01*
X104735690Y-126827642D01*
X104796166Y-126857880D01*
X105038071Y-126857880D01*
X104463547Y-126525261D02*
X104070452Y-126525261D01*
X104282119Y-126767166D01*
X104191404Y-126767166D01*
X104130928Y-126797404D01*
X104100690Y-126827642D01*
X104070452Y-126888119D01*
X104070452Y-127039309D01*
X104100690Y-127099785D01*
X104130928Y-127130023D01*
X104191404Y-127160261D01*
X104372833Y-127160261D01*
X104433309Y-127130023D01*
X104463547Y-127099785D01*
X103707595Y-126797404D02*
X103768071Y-126767166D01*
X103798309Y-126736928D01*
X103828547Y-126676452D01*
X103828547Y-126646214D01*
X103798309Y-126585738D01*
X103768071Y-126555500D01*
X103707595Y-126525261D01*
X103586642Y-126525261D01*
X103526166Y-126555500D01*
X103495928Y-126585738D01*
X103465690Y-126646214D01*
X103465690Y-126676452D01*
X103495928Y-126736928D01*
X103526166Y-126767166D01*
X103586642Y-126797404D01*
X103707595Y-126797404D01*
X103768071Y-126827642D01*
X103798309Y-126857880D01*
X103828547Y-126918357D01*
X103828547Y-127039309D01*
X103798309Y-127099785D01*
X103768071Y-127130023D01*
X103707595Y-127160261D01*
X103586642Y-127160261D01*
X103526166Y-127130023D01*
X103495928Y-127099785D01*
X103465690Y-127039309D01*
X103465690Y-126918357D01*
X103495928Y-126857880D01*
X103526166Y-126827642D01*
X103586642Y-126797404D01*
D10*
X96151095Y-118442619D02*
X95570523Y-118442619D01*
X95860809Y-119458619D02*
X95860809Y-118442619D01*
X94699666Y-119458619D02*
X95280238Y-119458619D01*
X94989952Y-119458619D02*
X94989952Y-118442619D01*
X95086714Y-118587761D01*
X95183476Y-118684523D01*
X95280238Y-118732904D01*
X110858904Y-118950619D02*
X111197571Y-118466809D01*
X111439476Y-118950619D02*
X111439476Y-117934619D01*
X111052428Y-117934619D01*
X110955666Y-117983000D01*
X110907285Y-118031380D01*
X110858904Y-118128142D01*
X110858904Y-118273285D01*
X110907285Y-118370047D01*
X110955666Y-118418428D01*
X111052428Y-118466809D01*
X111439476Y-118466809D01*
X110423476Y-118950619D02*
X110423476Y-117934619D01*
X110084809Y-118660333D01*
X109746142Y-117934619D01*
X109746142Y-118950619D01*
X109359095Y-117934619D02*
X108730142Y-117934619D01*
X109068809Y-118321666D01*
X108923666Y-118321666D01*
X108826904Y-118370047D01*
X108778523Y-118418428D01*
X108730142Y-118515190D01*
X108730142Y-118757095D01*
X108778523Y-118853857D01*
X108826904Y-118902238D01*
X108923666Y-118950619D01*
X109213952Y-118950619D01*
X109310714Y-118902238D01*
X109359095Y-118853857D01*
D11*
X111233857Y-122573142D02*
X111270142Y-122609428D01*
X111379000Y-122645714D01*
X111451571Y-122645714D01*
X111560428Y-122609428D01*
X111633000Y-122536857D01*
X111669285Y-122464285D01*
X111705571Y-122319142D01*
X111705571Y-122210285D01*
X111669285Y-122065142D01*
X111633000Y-121992571D01*
X111560428Y-121920000D01*
X111451571Y-121883714D01*
X111379000Y-121883714D01*
X111270142Y-121920000D01*
X111233857Y-121956285D01*
X110508142Y-122645714D02*
X110943571Y-122645714D01*
X110725857Y-122645714D02*
X110725857Y-121883714D01*
X110798428Y-121992571D01*
X110871000Y-122065142D01*
X110943571Y-122101428D01*
X110217857Y-121956285D02*
X110181571Y-121920000D01*
X110109000Y-121883714D01*
X109927571Y-121883714D01*
X109855000Y-121920000D01*
X109818714Y-121956285D01*
X109782428Y-122028857D01*
X109782428Y-122101428D01*
X109818714Y-122210285D01*
X110254142Y-122645714D01*
X109782428Y-122645714D01*
X94361000Y-138956142D02*
X94397285Y-138992428D01*
X94506142Y-139028714D01*
X94578714Y-139028714D01*
X94687571Y-138992428D01*
X94760142Y-138919857D01*
X94796428Y-138847285D01*
X94832714Y-138702142D01*
X94832714Y-138593285D01*
X94796428Y-138448142D01*
X94760142Y-138375571D01*
X94687571Y-138303000D01*
X94578714Y-138266714D01*
X94506142Y-138266714D01*
X94397285Y-138303000D01*
X94361000Y-138339285D01*
X93707857Y-138520714D02*
X93707857Y-139028714D01*
X93889285Y-138230428D02*
X94070714Y-138774714D01*
X93599000Y-138774714D01*
D10*
X97886761Y-141399380D02*
X97983523Y-141351000D01*
X98080285Y-141254238D01*
X98225428Y-141109095D01*
X98322190Y-141060714D01*
X98418952Y-141060714D01*
X98370571Y-141302619D02*
X98467333Y-141254238D01*
X98564095Y-141157476D01*
X98612476Y-140963952D01*
X98612476Y-140625285D01*
X98564095Y-140431761D01*
X98467333Y-140335000D01*
X98370571Y-140286619D01*
X98177047Y-140286619D01*
X98080285Y-140335000D01*
X97983523Y-140431761D01*
X97935142Y-140625285D01*
X97935142Y-140963952D01*
X97983523Y-141157476D01*
X98080285Y-141254238D01*
X98177047Y-141302619D01*
X98370571Y-141302619D01*
X96967523Y-141302619D02*
X97548095Y-141302619D01*
X97257809Y-141302619D02*
X97257809Y-140286619D01*
X97354571Y-140431761D01*
X97451333Y-140528523D01*
X97548095Y-140576904D01*
X97372714Y-142687523D02*
X97493666Y-142627047D01*
X97554142Y-142566571D01*
X97614619Y-142445619D01*
X97614619Y-142082761D01*
X97554142Y-141961809D01*
X97493666Y-141901333D01*
X97372714Y-141840857D01*
X97191285Y-141840857D01*
X97070333Y-141901333D01*
X97009857Y-141961809D01*
X96949380Y-142082761D01*
X96949380Y-142445619D01*
X97009857Y-142566571D01*
X97070333Y-142627047D01*
X97191285Y-142687523D01*
X97372714Y-142687523D01*
D29*
X98443142Y-165045571D02*
X98334285Y-165081857D01*
X98298000Y-165118142D01*
X98261714Y-165190714D01*
X98261714Y-165299571D01*
X98298000Y-165372142D01*
X98334285Y-165408428D01*
X98406857Y-165444714D01*
X98697142Y-165444714D01*
X98697142Y-164682714D01*
X98443142Y-164682714D01*
X98370571Y-164719000D01*
X98334285Y-164755285D01*
X98298000Y-164827857D01*
X98298000Y-164900428D01*
X98334285Y-164973000D01*
X98370571Y-165009285D01*
X98443142Y-165045571D01*
X98697142Y-165045571D01*
X97971428Y-165227000D02*
X97608571Y-165227000D01*
X98044000Y-165444714D02*
X97790000Y-164682714D01*
X97536000Y-165444714D01*
X97390857Y-164682714D02*
X96955428Y-164682714D01*
X97173142Y-165444714D02*
X97173142Y-164682714D01*
X96882857Y-165517285D02*
X96302285Y-165517285D01*
X96157142Y-165408428D02*
X96048285Y-165444714D01*
X95866857Y-165444714D01*
X95794285Y-165408428D01*
X95758000Y-165372142D01*
X95721714Y-165299571D01*
X95721714Y-165227000D01*
X95758000Y-165154428D01*
X95794285Y-165118142D01*
X95866857Y-165081857D01*
X96012000Y-165045571D01*
X96084571Y-165009285D01*
X96120857Y-164973000D01*
X96157142Y-164900428D01*
X96157142Y-164827857D01*
X96120857Y-164755285D01*
X96084571Y-164719000D01*
X96012000Y-164682714D01*
X95830571Y-164682714D01*
X95721714Y-164719000D01*
X95395142Y-165045571D02*
X95141142Y-165045571D01*
X95032285Y-165444714D02*
X95395142Y-165444714D01*
X95395142Y-164682714D01*
X95032285Y-164682714D01*
X94705714Y-165444714D02*
X94705714Y-164682714D01*
X94270285Y-165444714D01*
X94270285Y-164682714D01*
X93943714Y-165408428D02*
X93834857Y-165444714D01*
X93653428Y-165444714D01*
X93580857Y-165408428D01*
X93544571Y-165372142D01*
X93508285Y-165299571D01*
X93508285Y-165227000D01*
X93544571Y-165154428D01*
X93580857Y-165118142D01*
X93653428Y-165081857D01*
X93798571Y-165045571D01*
X93871142Y-165009285D01*
X93907428Y-164973000D01*
X93943714Y-164900428D01*
X93943714Y-164827857D01*
X93907428Y-164755285D01*
X93871142Y-164719000D01*
X93798571Y-164682714D01*
X93617142Y-164682714D01*
X93508285Y-164719000D01*
X93363142Y-165517285D02*
X92782571Y-165517285D01*
X92601142Y-165045571D02*
X92347142Y-165045571D01*
X92238285Y-165444714D02*
X92601142Y-165444714D01*
X92601142Y-164682714D01*
X92238285Y-164682714D01*
X91512571Y-165444714D02*
X91948000Y-165444714D01*
X91730285Y-165444714D02*
X91730285Y-164682714D01*
X91802857Y-164791571D01*
X91875428Y-164864142D01*
X91948000Y-164900428D01*
M02*
