G04 #@! TF.GenerationSoftware,KiCad,Pcbnew,5.99.0-unknown-d20d310~100~ubuntu18.04.1*
G04 #@! TF.CreationDate,2019-12-17T15:54:16+02:00*
G04 #@! TF.ProjectId,ESP32-PoE_Rev_E,45535033-322d-4506-9f45-5f5265765f45,E*
G04 #@! TF.SameCoordinates,Original*
G04 #@! TF.FileFunction,Legend,Top*
G04 #@! TF.FilePolarity,Positive*
%FSLAX46Y46*%
G04 Gerber Fmt 4.6, Leading zero omitted, Abs format (unit mm)*
G04 Created by KiCad (PCBNEW 5.99.0-unknown-d20d310~100~ubuntu18.04.1) date 2019-12-17 15:54:16*
%MOMM*%
%LPD*%
G04 APERTURE LIST*
%ADD10C,0.254000*%
%ADD11C,0.190500*%
%ADD12C,0.127000*%
%ADD13C,0.508000*%
%ADD14C,0.050000*%
%ADD15C,0.100000*%
%ADD16C,0.600000*%
%ADD17C,0.200000*%
%ADD18C,0.158750*%
%ADD19C,0.139700*%
G04 APERTURE END LIST*
D10*
X98533857Y-130495523D02*
X97808142Y-130495523D01*
X98171000Y-130495523D02*
X98171000Y-129225523D01*
X98050047Y-129406952D01*
X97929095Y-129527904D01*
X97808142Y-129588380D01*
D11*
X115179928Y-121285000D02*
X115107357Y-121248714D01*
X114998500Y-121248714D01*
X114889642Y-121285000D01*
X114817071Y-121357571D01*
X114780785Y-121430142D01*
X114744500Y-121575285D01*
X114744500Y-121684142D01*
X114780785Y-121829285D01*
X114817071Y-121901857D01*
X114889642Y-121974428D01*
X114998500Y-122010714D01*
X115071071Y-122010714D01*
X115179928Y-121974428D01*
X115216214Y-121938142D01*
X115216214Y-121684142D01*
X115071071Y-121684142D01*
X115542785Y-122010714D02*
X115542785Y-121248714D01*
X115833071Y-121248714D01*
X115905642Y-121285000D01*
X115941928Y-121321285D01*
X115978214Y-121393857D01*
X115978214Y-121502714D01*
X115941928Y-121575285D01*
X115905642Y-121611571D01*
X115833071Y-121647857D01*
X115542785Y-121647857D01*
X116304785Y-122010714D02*
X116304785Y-121248714D01*
X116595071Y-121248714D02*
X117066785Y-121248714D01*
X116812785Y-121539000D01*
X116921642Y-121539000D01*
X116994214Y-121575285D01*
X117030500Y-121611571D01*
X117066785Y-121684142D01*
X117066785Y-121865571D01*
X117030500Y-121938142D01*
X116994214Y-121974428D01*
X116921642Y-122010714D01*
X116703928Y-122010714D01*
X116631357Y-121974428D01*
X116595071Y-121938142D01*
X117429642Y-122010714D02*
X117574785Y-122010714D01*
X117647357Y-121974428D01*
X117683642Y-121938142D01*
X117756214Y-121829285D01*
X117792500Y-121684142D01*
X117792500Y-121393857D01*
X117756214Y-121321285D01*
X117719928Y-121285000D01*
X117647357Y-121248714D01*
X117502214Y-121248714D01*
X117429642Y-121285000D01*
X117393357Y-121321285D01*
X117357071Y-121393857D01*
X117357071Y-121575285D01*
X117393357Y-121647857D01*
X117429642Y-121684142D01*
X117502214Y-121720428D01*
X117647357Y-121720428D01*
X117719928Y-121684142D01*
X117756214Y-121647857D01*
X117792500Y-121575285D01*
D12*
X116114285Y-124269500D02*
X116065904Y-124245309D01*
X115993333Y-124245309D01*
X115920761Y-124269500D01*
X115872380Y-124317880D01*
X115848190Y-124366261D01*
X115824000Y-124463023D01*
X115824000Y-124535595D01*
X115848190Y-124632357D01*
X115872380Y-124680738D01*
X115920761Y-124729119D01*
X115993333Y-124753309D01*
X116041714Y-124753309D01*
X116114285Y-124729119D01*
X116138476Y-124704928D01*
X116138476Y-124535595D01*
X116041714Y-124535595D01*
X116356190Y-124753309D02*
X116356190Y-124245309D01*
X116549714Y-124245309D01*
X116598095Y-124269500D01*
X116622285Y-124293690D01*
X116646476Y-124342071D01*
X116646476Y-124414642D01*
X116622285Y-124463023D01*
X116598095Y-124487214D01*
X116549714Y-124511404D01*
X116356190Y-124511404D01*
X116864190Y-124753309D02*
X116864190Y-124245309D01*
X117057714Y-124245309D02*
X117372190Y-124245309D01*
X117202857Y-124438833D01*
X117275428Y-124438833D01*
X117323809Y-124463023D01*
X117348000Y-124487214D01*
X117372190Y-124535595D01*
X117372190Y-124656547D01*
X117348000Y-124704928D01*
X117323809Y-124729119D01*
X117275428Y-124753309D01*
X117130285Y-124753309D01*
X117081904Y-124729119D01*
X117057714Y-124704928D01*
X117807619Y-124245309D02*
X117710857Y-124245309D01*
X117662476Y-124269500D01*
X117638285Y-124293690D01*
X117589904Y-124366261D01*
X117565714Y-124463023D01*
X117565714Y-124656547D01*
X117589904Y-124704928D01*
X117614095Y-124729119D01*
X117662476Y-124753309D01*
X117759238Y-124753309D01*
X117807619Y-124729119D01*
X117831809Y-124704928D01*
X117856000Y-124656547D01*
X117856000Y-124535595D01*
X117831809Y-124487214D01*
X117807619Y-124463023D01*
X117759238Y-124438833D01*
X117662476Y-124438833D01*
X117614095Y-124463023D01*
X117589904Y-124487214D01*
X117565714Y-124535595D01*
X116114285Y-126809500D02*
X116065904Y-126785309D01*
X115993333Y-126785309D01*
X115920761Y-126809500D01*
X115872380Y-126857880D01*
X115848190Y-126906261D01*
X115824000Y-127003023D01*
X115824000Y-127075595D01*
X115848190Y-127172357D01*
X115872380Y-127220738D01*
X115920761Y-127269119D01*
X115993333Y-127293309D01*
X116041714Y-127293309D01*
X116114285Y-127269119D01*
X116138476Y-127244928D01*
X116138476Y-127075595D01*
X116041714Y-127075595D01*
X116356190Y-127293309D02*
X116356190Y-126785309D01*
X116549714Y-126785309D01*
X116598095Y-126809500D01*
X116622285Y-126833690D01*
X116646476Y-126882071D01*
X116646476Y-126954642D01*
X116622285Y-127003023D01*
X116598095Y-127027214D01*
X116549714Y-127051404D01*
X116356190Y-127051404D01*
X116864190Y-127293309D02*
X116864190Y-126785309D01*
X117057714Y-126785309D02*
X117372190Y-126785309D01*
X117202857Y-126978833D01*
X117275428Y-126978833D01*
X117323809Y-127003023D01*
X117348000Y-127027214D01*
X117372190Y-127075595D01*
X117372190Y-127196547D01*
X117348000Y-127244928D01*
X117323809Y-127269119D01*
X117275428Y-127293309D01*
X117130285Y-127293309D01*
X117081904Y-127269119D01*
X117057714Y-127244928D01*
X117831809Y-126785309D02*
X117589904Y-126785309D01*
X117565714Y-127027214D01*
X117589904Y-127003023D01*
X117638285Y-126978833D01*
X117759238Y-126978833D01*
X117807619Y-127003023D01*
X117831809Y-127027214D01*
X117856000Y-127075595D01*
X117856000Y-127196547D01*
X117831809Y-127244928D01*
X117807619Y-127269119D01*
X117759238Y-127293309D01*
X117638285Y-127293309D01*
X117589904Y-127269119D01*
X117565714Y-127244928D01*
X116114285Y-129349500D02*
X116065904Y-129325309D01*
X115993333Y-129325309D01*
X115920761Y-129349500D01*
X115872380Y-129397880D01*
X115848190Y-129446261D01*
X115824000Y-129543023D01*
X115824000Y-129615595D01*
X115848190Y-129712357D01*
X115872380Y-129760738D01*
X115920761Y-129809119D01*
X115993333Y-129833309D01*
X116041714Y-129833309D01*
X116114285Y-129809119D01*
X116138476Y-129784928D01*
X116138476Y-129615595D01*
X116041714Y-129615595D01*
X116356190Y-129833309D02*
X116356190Y-129325309D01*
X116549714Y-129325309D01*
X116598095Y-129349500D01*
X116622285Y-129373690D01*
X116646476Y-129422071D01*
X116646476Y-129494642D01*
X116622285Y-129543023D01*
X116598095Y-129567214D01*
X116549714Y-129591404D01*
X116356190Y-129591404D01*
X116864190Y-129833309D02*
X116864190Y-129325309D01*
X117057714Y-129325309D02*
X117372190Y-129325309D01*
X117202857Y-129518833D01*
X117275428Y-129518833D01*
X117323809Y-129543023D01*
X117348000Y-129567214D01*
X117372190Y-129615595D01*
X117372190Y-129736547D01*
X117348000Y-129784928D01*
X117323809Y-129809119D01*
X117275428Y-129833309D01*
X117130285Y-129833309D01*
X117081904Y-129809119D01*
X117057714Y-129784928D01*
X117807619Y-129494642D02*
X117807619Y-129833309D01*
X117686666Y-129301119D02*
X117565714Y-129663976D01*
X117880190Y-129663976D01*
X115657690Y-131889500D02*
X115609309Y-131865309D01*
X115536738Y-131865309D01*
X115464166Y-131889500D01*
X115415785Y-131937880D01*
X115391595Y-131986261D01*
X115367404Y-132083023D01*
X115367404Y-132155595D01*
X115391595Y-132252357D01*
X115415785Y-132300738D01*
X115464166Y-132349119D01*
X115536738Y-132373309D01*
X115585119Y-132373309D01*
X115657690Y-132349119D01*
X115681880Y-132324928D01*
X115681880Y-132155595D01*
X115585119Y-132155595D01*
X115899595Y-132373309D02*
X115899595Y-131865309D01*
X116093119Y-131865309D01*
X116141500Y-131889500D01*
X116165690Y-131913690D01*
X116189880Y-131962071D01*
X116189880Y-132034642D01*
X116165690Y-132083023D01*
X116141500Y-132107214D01*
X116093119Y-132131404D01*
X115899595Y-132131404D01*
X116407595Y-132373309D02*
X116407595Y-131865309D01*
X116746261Y-131865309D02*
X116843023Y-131865309D01*
X116891404Y-131889500D01*
X116939785Y-131937880D01*
X116963976Y-132034642D01*
X116963976Y-132203976D01*
X116939785Y-132300738D01*
X116891404Y-132349119D01*
X116843023Y-132373309D01*
X116746261Y-132373309D01*
X116697880Y-132349119D01*
X116649500Y-132300738D01*
X116625309Y-132203976D01*
X116625309Y-132034642D01*
X116649500Y-131937880D01*
X116697880Y-131889500D01*
X116746261Y-131865309D01*
X117133309Y-131865309D02*
X117447785Y-131865309D01*
X117278452Y-132058833D01*
X117351023Y-132058833D01*
X117399404Y-132083023D01*
X117423595Y-132107214D01*
X117447785Y-132155595D01*
X117447785Y-132276547D01*
X117423595Y-132324928D01*
X117399404Y-132349119D01*
X117351023Y-132373309D01*
X117205880Y-132373309D01*
X117157500Y-132349119D01*
X117133309Y-132324928D01*
X117617119Y-131865309D02*
X117931595Y-131865309D01*
X117762261Y-132058833D01*
X117834833Y-132058833D01*
X117883214Y-132083023D01*
X117907404Y-132107214D01*
X117931595Y-132155595D01*
X117931595Y-132276547D01*
X117907404Y-132324928D01*
X117883214Y-132349119D01*
X117834833Y-132373309D01*
X117689690Y-132373309D01*
X117641309Y-132349119D01*
X117617119Y-132324928D01*
X115657690Y-134429500D02*
X115609309Y-134405309D01*
X115536738Y-134405309D01*
X115464166Y-134429500D01*
X115415785Y-134477880D01*
X115391595Y-134526261D01*
X115367404Y-134623023D01*
X115367404Y-134695595D01*
X115391595Y-134792357D01*
X115415785Y-134840738D01*
X115464166Y-134889119D01*
X115536738Y-134913309D01*
X115585119Y-134913309D01*
X115657690Y-134889119D01*
X115681880Y-134864928D01*
X115681880Y-134695595D01*
X115585119Y-134695595D01*
X115899595Y-134913309D02*
X115899595Y-134405309D01*
X116093119Y-134405309D01*
X116141500Y-134429500D01*
X116165690Y-134453690D01*
X116189880Y-134502071D01*
X116189880Y-134574642D01*
X116165690Y-134623023D01*
X116141500Y-134647214D01*
X116093119Y-134671404D01*
X115899595Y-134671404D01*
X116407595Y-134913309D02*
X116407595Y-134405309D01*
X116746261Y-134405309D02*
X116843023Y-134405309D01*
X116891404Y-134429500D01*
X116939785Y-134477880D01*
X116963976Y-134574642D01*
X116963976Y-134743976D01*
X116939785Y-134840738D01*
X116891404Y-134889119D01*
X116843023Y-134913309D01*
X116746261Y-134913309D01*
X116697880Y-134889119D01*
X116649500Y-134840738D01*
X116625309Y-134743976D01*
X116625309Y-134574642D01*
X116649500Y-134477880D01*
X116697880Y-134429500D01*
X116746261Y-134405309D01*
X117133309Y-134405309D02*
X117447785Y-134405309D01*
X117278452Y-134598833D01*
X117351023Y-134598833D01*
X117399404Y-134623023D01*
X117423595Y-134647214D01*
X117447785Y-134695595D01*
X117447785Y-134816547D01*
X117423595Y-134864928D01*
X117399404Y-134889119D01*
X117351023Y-134913309D01*
X117205880Y-134913309D01*
X117157500Y-134889119D01*
X117133309Y-134864928D01*
X117641309Y-134453690D02*
X117665500Y-134429500D01*
X117713880Y-134405309D01*
X117834833Y-134405309D01*
X117883214Y-134429500D01*
X117907404Y-134453690D01*
X117931595Y-134502071D01*
X117931595Y-134550452D01*
X117907404Y-134623023D01*
X117617119Y-134913309D01*
X117931595Y-134913309D01*
X115657690Y-136969500D02*
X115609309Y-136945309D01*
X115536738Y-136945309D01*
X115464166Y-136969500D01*
X115415785Y-137017880D01*
X115391595Y-137066261D01*
X115367404Y-137163023D01*
X115367404Y-137235595D01*
X115391595Y-137332357D01*
X115415785Y-137380738D01*
X115464166Y-137429119D01*
X115536738Y-137453309D01*
X115585119Y-137453309D01*
X115657690Y-137429119D01*
X115681880Y-137404928D01*
X115681880Y-137235595D01*
X115585119Y-137235595D01*
X115899595Y-137453309D02*
X115899595Y-136945309D01*
X116093119Y-136945309D01*
X116141500Y-136969500D01*
X116165690Y-136993690D01*
X116189880Y-137042071D01*
X116189880Y-137114642D01*
X116165690Y-137163023D01*
X116141500Y-137187214D01*
X116093119Y-137211404D01*
X115899595Y-137211404D01*
X116407595Y-137453309D02*
X116407595Y-136945309D01*
X116746261Y-136945309D02*
X116843023Y-136945309D01*
X116891404Y-136969500D01*
X116939785Y-137017880D01*
X116963976Y-137114642D01*
X116963976Y-137283976D01*
X116939785Y-137380738D01*
X116891404Y-137429119D01*
X116843023Y-137453309D01*
X116746261Y-137453309D01*
X116697880Y-137429119D01*
X116649500Y-137380738D01*
X116625309Y-137283976D01*
X116625309Y-137114642D01*
X116649500Y-137017880D01*
X116697880Y-136969500D01*
X116746261Y-136945309D01*
X117447785Y-137453309D02*
X117157500Y-137453309D01*
X117302642Y-137453309D02*
X117302642Y-136945309D01*
X117254261Y-137017880D01*
X117205880Y-137066261D01*
X117157500Y-137090452D01*
X117883214Y-136945309D02*
X117786452Y-136945309D01*
X117738071Y-136969500D01*
X117713880Y-136993690D01*
X117665500Y-137066261D01*
X117641309Y-137163023D01*
X117641309Y-137356547D01*
X117665500Y-137404928D01*
X117689690Y-137429119D01*
X117738071Y-137453309D01*
X117834833Y-137453309D01*
X117883214Y-137429119D01*
X117907404Y-137404928D01*
X117931595Y-137356547D01*
X117931595Y-137235595D01*
X117907404Y-137187214D01*
X117883214Y-137163023D01*
X117834833Y-137138833D01*
X117738071Y-137138833D01*
X117689690Y-137163023D01*
X117665500Y-137187214D01*
X117641309Y-137235595D01*
X115657690Y-139509500D02*
X115609309Y-139485309D01*
X115536738Y-139485309D01*
X115464166Y-139509500D01*
X115415785Y-139557880D01*
X115391595Y-139606261D01*
X115367404Y-139703023D01*
X115367404Y-139775595D01*
X115391595Y-139872357D01*
X115415785Y-139920738D01*
X115464166Y-139969119D01*
X115536738Y-139993309D01*
X115585119Y-139993309D01*
X115657690Y-139969119D01*
X115681880Y-139944928D01*
X115681880Y-139775595D01*
X115585119Y-139775595D01*
X115899595Y-139993309D02*
X115899595Y-139485309D01*
X116093119Y-139485309D01*
X116141500Y-139509500D01*
X116165690Y-139533690D01*
X116189880Y-139582071D01*
X116189880Y-139654642D01*
X116165690Y-139703023D01*
X116141500Y-139727214D01*
X116093119Y-139751404D01*
X115899595Y-139751404D01*
X116407595Y-139993309D02*
X116407595Y-139485309D01*
X116746261Y-139485309D02*
X116843023Y-139485309D01*
X116891404Y-139509500D01*
X116939785Y-139557880D01*
X116963976Y-139654642D01*
X116963976Y-139823976D01*
X116939785Y-139920738D01*
X116891404Y-139969119D01*
X116843023Y-139993309D01*
X116746261Y-139993309D01*
X116697880Y-139969119D01*
X116649500Y-139920738D01*
X116625309Y-139823976D01*
X116625309Y-139654642D01*
X116649500Y-139557880D01*
X116697880Y-139509500D01*
X116746261Y-139485309D01*
X117447785Y-139993309D02*
X117157500Y-139993309D01*
X117302642Y-139993309D02*
X117302642Y-139485309D01*
X117254261Y-139557880D01*
X117205880Y-139606261D01*
X117157500Y-139630452D01*
X117907404Y-139485309D02*
X117665500Y-139485309D01*
X117641309Y-139727214D01*
X117665500Y-139703023D01*
X117713880Y-139678833D01*
X117834833Y-139678833D01*
X117883214Y-139703023D01*
X117907404Y-139727214D01*
X117931595Y-139775595D01*
X117931595Y-139896547D01*
X117907404Y-139944928D01*
X117883214Y-139969119D01*
X117834833Y-139993309D01*
X117713880Y-139993309D01*
X117665500Y-139969119D01*
X117641309Y-139944928D01*
X115657690Y-142049500D02*
X115609309Y-142025309D01*
X115536738Y-142025309D01*
X115464166Y-142049500D01*
X115415785Y-142097880D01*
X115391595Y-142146261D01*
X115367404Y-142243023D01*
X115367404Y-142315595D01*
X115391595Y-142412357D01*
X115415785Y-142460738D01*
X115464166Y-142509119D01*
X115536738Y-142533309D01*
X115585119Y-142533309D01*
X115657690Y-142509119D01*
X115681880Y-142484928D01*
X115681880Y-142315595D01*
X115585119Y-142315595D01*
X115899595Y-142533309D02*
X115899595Y-142025309D01*
X116093119Y-142025309D01*
X116141500Y-142049500D01*
X116165690Y-142073690D01*
X116189880Y-142122071D01*
X116189880Y-142194642D01*
X116165690Y-142243023D01*
X116141500Y-142267214D01*
X116093119Y-142291404D01*
X115899595Y-142291404D01*
X116407595Y-142533309D02*
X116407595Y-142025309D01*
X116746261Y-142025309D02*
X116843023Y-142025309D01*
X116891404Y-142049500D01*
X116939785Y-142097880D01*
X116963976Y-142194642D01*
X116963976Y-142363976D01*
X116939785Y-142460738D01*
X116891404Y-142509119D01*
X116843023Y-142533309D01*
X116746261Y-142533309D01*
X116697880Y-142509119D01*
X116649500Y-142460738D01*
X116625309Y-142363976D01*
X116625309Y-142194642D01*
X116649500Y-142097880D01*
X116697880Y-142049500D01*
X116746261Y-142025309D01*
X117447785Y-142533309D02*
X117157500Y-142533309D01*
X117302642Y-142533309D02*
X117302642Y-142025309D01*
X117254261Y-142097880D01*
X117205880Y-142146261D01*
X117157500Y-142170452D01*
X117883214Y-142194642D02*
X117883214Y-142533309D01*
X117762261Y-142001119D02*
X117641309Y-142363976D01*
X117955785Y-142363976D01*
X115657690Y-144589500D02*
X115609309Y-144565309D01*
X115536738Y-144565309D01*
X115464166Y-144589500D01*
X115415785Y-144637880D01*
X115391595Y-144686261D01*
X115367404Y-144783023D01*
X115367404Y-144855595D01*
X115391595Y-144952357D01*
X115415785Y-145000738D01*
X115464166Y-145049119D01*
X115536738Y-145073309D01*
X115585119Y-145073309D01*
X115657690Y-145049119D01*
X115681880Y-145024928D01*
X115681880Y-144855595D01*
X115585119Y-144855595D01*
X115899595Y-145073309D02*
X115899595Y-144565309D01*
X116093119Y-144565309D01*
X116141500Y-144589500D01*
X116165690Y-144613690D01*
X116189880Y-144662071D01*
X116189880Y-144734642D01*
X116165690Y-144783023D01*
X116141500Y-144807214D01*
X116093119Y-144831404D01*
X115899595Y-144831404D01*
X116407595Y-145073309D02*
X116407595Y-144565309D01*
X116746261Y-144565309D02*
X116843023Y-144565309D01*
X116891404Y-144589500D01*
X116939785Y-144637880D01*
X116963976Y-144734642D01*
X116963976Y-144903976D01*
X116939785Y-145000738D01*
X116891404Y-145049119D01*
X116843023Y-145073309D01*
X116746261Y-145073309D01*
X116697880Y-145049119D01*
X116649500Y-145000738D01*
X116625309Y-144903976D01*
X116625309Y-144734642D01*
X116649500Y-144637880D01*
X116697880Y-144589500D01*
X116746261Y-144565309D01*
X117447785Y-145073309D02*
X117157500Y-145073309D01*
X117302642Y-145073309D02*
X117302642Y-144565309D01*
X117254261Y-144637880D01*
X117205880Y-144686261D01*
X117157500Y-144710452D01*
X117617119Y-144565309D02*
X117931595Y-144565309D01*
X117762261Y-144758833D01*
X117834833Y-144758833D01*
X117883214Y-144783023D01*
X117907404Y-144807214D01*
X117931595Y-144855595D01*
X117931595Y-144976547D01*
X117907404Y-145024928D01*
X117883214Y-145049119D01*
X117834833Y-145073309D01*
X117689690Y-145073309D01*
X117641309Y-145049119D01*
X117617119Y-145024928D01*
X90690095Y-144589500D02*
X90641714Y-144565309D01*
X90569142Y-144565309D01*
X90496571Y-144589500D01*
X90448190Y-144637880D01*
X90424000Y-144686261D01*
X90399809Y-144783023D01*
X90399809Y-144855595D01*
X90424000Y-144952357D01*
X90448190Y-145000738D01*
X90496571Y-145049119D01*
X90569142Y-145073309D01*
X90617523Y-145073309D01*
X90690095Y-145049119D01*
X90714285Y-145024928D01*
X90714285Y-144855595D01*
X90617523Y-144855595D01*
X90932000Y-145073309D02*
X90932000Y-144565309D01*
X91125523Y-144565309D01*
X91173904Y-144589500D01*
X91198095Y-144613690D01*
X91222285Y-144662071D01*
X91222285Y-144734642D01*
X91198095Y-144783023D01*
X91173904Y-144807214D01*
X91125523Y-144831404D01*
X90932000Y-144831404D01*
X91440000Y-145073309D02*
X91440000Y-144565309D01*
X91778666Y-144565309D02*
X91875428Y-144565309D01*
X91923809Y-144589500D01*
X91972190Y-144637880D01*
X91996380Y-144734642D01*
X91996380Y-144903976D01*
X91972190Y-145000738D01*
X91923809Y-145049119D01*
X91875428Y-145073309D01*
X91778666Y-145073309D01*
X91730285Y-145049119D01*
X91681904Y-145000738D01*
X91657714Y-144903976D01*
X91657714Y-144734642D01*
X91681904Y-144637880D01*
X91730285Y-144589500D01*
X91778666Y-144565309D01*
X92456000Y-144565309D02*
X92214095Y-144565309D01*
X92189904Y-144807214D01*
X92214095Y-144783023D01*
X92262476Y-144758833D01*
X92383428Y-144758833D01*
X92431809Y-144783023D01*
X92456000Y-144807214D01*
X92480190Y-144855595D01*
X92480190Y-144976547D01*
X92456000Y-145024928D01*
X92431809Y-145049119D01*
X92383428Y-145073309D01*
X92262476Y-145073309D01*
X92214095Y-145049119D01*
X92189904Y-145024928D01*
X91071095Y-142049500D02*
X91022714Y-142025309D01*
X90950142Y-142025309D01*
X90877571Y-142049500D01*
X90829190Y-142097880D01*
X90805000Y-142146261D01*
X90780809Y-142243023D01*
X90780809Y-142315595D01*
X90805000Y-142412357D01*
X90829190Y-142460738D01*
X90877571Y-142509119D01*
X90950142Y-142533309D01*
X90998523Y-142533309D01*
X91071095Y-142509119D01*
X91095285Y-142484928D01*
X91095285Y-142315595D01*
X90998523Y-142315595D01*
X91313000Y-142533309D02*
X91313000Y-142025309D01*
X91506523Y-142025309D01*
X91554904Y-142049500D01*
X91579095Y-142073690D01*
X91603285Y-142122071D01*
X91603285Y-142194642D01*
X91579095Y-142243023D01*
X91554904Y-142267214D01*
X91506523Y-142291404D01*
X91313000Y-142291404D01*
X91821000Y-142533309D02*
X91821000Y-142025309D01*
X92159666Y-142025309D02*
X92256428Y-142025309D01*
X92304809Y-142049500D01*
X92353190Y-142097880D01*
X92377380Y-142194642D01*
X92377380Y-142363976D01*
X92353190Y-142460738D01*
X92304809Y-142509119D01*
X92256428Y-142533309D01*
X92159666Y-142533309D01*
X92111285Y-142509119D01*
X92062904Y-142460738D01*
X92038714Y-142363976D01*
X92038714Y-142194642D01*
X92062904Y-142097880D01*
X92111285Y-142049500D01*
X92159666Y-142025309D01*
X92812809Y-142194642D02*
X92812809Y-142533309D01*
X92691857Y-142001119D02*
X92570904Y-142363976D01*
X92885380Y-142363976D01*
X90690095Y-139509500D02*
X90641714Y-139485309D01*
X90569142Y-139485309D01*
X90496571Y-139509500D01*
X90448190Y-139557880D01*
X90424000Y-139606261D01*
X90399809Y-139703023D01*
X90399809Y-139775595D01*
X90424000Y-139872357D01*
X90448190Y-139920738D01*
X90496571Y-139969119D01*
X90569142Y-139993309D01*
X90617523Y-139993309D01*
X90690095Y-139969119D01*
X90714285Y-139944928D01*
X90714285Y-139775595D01*
X90617523Y-139775595D01*
X90932000Y-139993309D02*
X90932000Y-139485309D01*
X91125523Y-139485309D01*
X91173904Y-139509500D01*
X91198095Y-139533690D01*
X91222285Y-139582071D01*
X91222285Y-139654642D01*
X91198095Y-139703023D01*
X91173904Y-139727214D01*
X91125523Y-139751404D01*
X90932000Y-139751404D01*
X91440000Y-139993309D02*
X91440000Y-139485309D01*
X91778666Y-139485309D02*
X91875428Y-139485309D01*
X91923809Y-139509500D01*
X91972190Y-139557880D01*
X91996380Y-139654642D01*
X91996380Y-139823976D01*
X91972190Y-139920738D01*
X91923809Y-139969119D01*
X91875428Y-139993309D01*
X91778666Y-139993309D01*
X91730285Y-139969119D01*
X91681904Y-139920738D01*
X91657714Y-139823976D01*
X91657714Y-139654642D01*
X91681904Y-139557880D01*
X91730285Y-139509500D01*
X91778666Y-139485309D01*
X92165714Y-139485309D02*
X92480190Y-139485309D01*
X92310857Y-139678833D01*
X92383428Y-139678833D01*
X92431809Y-139703023D01*
X92456000Y-139727214D01*
X92480190Y-139775595D01*
X92480190Y-139896547D01*
X92456000Y-139944928D01*
X92431809Y-139969119D01*
X92383428Y-139993309D01*
X92238285Y-139993309D01*
X92189904Y-139969119D01*
X92165714Y-139944928D01*
X90690095Y-136969500D02*
X90641714Y-136945309D01*
X90569142Y-136945309D01*
X90496571Y-136969500D01*
X90448190Y-137017880D01*
X90424000Y-137066261D01*
X90399809Y-137163023D01*
X90399809Y-137235595D01*
X90424000Y-137332357D01*
X90448190Y-137380738D01*
X90496571Y-137429119D01*
X90569142Y-137453309D01*
X90617523Y-137453309D01*
X90690095Y-137429119D01*
X90714285Y-137404928D01*
X90714285Y-137235595D01*
X90617523Y-137235595D01*
X90932000Y-137453309D02*
X90932000Y-136945309D01*
X91125523Y-136945309D01*
X91173904Y-136969500D01*
X91198095Y-136993690D01*
X91222285Y-137042071D01*
X91222285Y-137114642D01*
X91198095Y-137163023D01*
X91173904Y-137187214D01*
X91125523Y-137211404D01*
X90932000Y-137211404D01*
X91440000Y-137453309D02*
X91440000Y-136945309D01*
X91778666Y-136945309D02*
X91875428Y-136945309D01*
X91923809Y-136969500D01*
X91972190Y-137017880D01*
X91996380Y-137114642D01*
X91996380Y-137283976D01*
X91972190Y-137380738D01*
X91923809Y-137429119D01*
X91875428Y-137453309D01*
X91778666Y-137453309D01*
X91730285Y-137429119D01*
X91681904Y-137380738D01*
X91657714Y-137283976D01*
X91657714Y-137114642D01*
X91681904Y-137017880D01*
X91730285Y-136969500D01*
X91778666Y-136945309D01*
X92189904Y-136993690D02*
X92214095Y-136969500D01*
X92262476Y-136945309D01*
X92383428Y-136945309D01*
X92431809Y-136969500D01*
X92456000Y-136993690D01*
X92480190Y-137042071D01*
X92480190Y-137090452D01*
X92456000Y-137163023D01*
X92165714Y-137453309D01*
X92480190Y-137453309D01*
X90690095Y-134429500D02*
X90641714Y-134405309D01*
X90569142Y-134405309D01*
X90496571Y-134429500D01*
X90448190Y-134477880D01*
X90424000Y-134526261D01*
X90399809Y-134623023D01*
X90399809Y-134695595D01*
X90424000Y-134792357D01*
X90448190Y-134840738D01*
X90496571Y-134889119D01*
X90569142Y-134913309D01*
X90617523Y-134913309D01*
X90690095Y-134889119D01*
X90714285Y-134864928D01*
X90714285Y-134695595D01*
X90617523Y-134695595D01*
X90932000Y-134913309D02*
X90932000Y-134405309D01*
X91125523Y-134405309D01*
X91173904Y-134429500D01*
X91198095Y-134453690D01*
X91222285Y-134502071D01*
X91222285Y-134574642D01*
X91198095Y-134623023D01*
X91173904Y-134647214D01*
X91125523Y-134671404D01*
X90932000Y-134671404D01*
X91440000Y-134913309D02*
X91440000Y-134405309D01*
X91778666Y-134405309D02*
X91875428Y-134405309D01*
X91923809Y-134429500D01*
X91972190Y-134477880D01*
X91996380Y-134574642D01*
X91996380Y-134743976D01*
X91972190Y-134840738D01*
X91923809Y-134889119D01*
X91875428Y-134913309D01*
X91778666Y-134913309D01*
X91730285Y-134889119D01*
X91681904Y-134840738D01*
X91657714Y-134743976D01*
X91657714Y-134574642D01*
X91681904Y-134477880D01*
X91730285Y-134429500D01*
X91778666Y-134405309D01*
X92480190Y-134913309D02*
X92189904Y-134913309D01*
X92335047Y-134913309D02*
X92335047Y-134405309D01*
X92286666Y-134477880D01*
X92238285Y-134526261D01*
X92189904Y-134550452D01*
X90690095Y-131889500D02*
X90641714Y-131865309D01*
X90569142Y-131865309D01*
X90496571Y-131889500D01*
X90448190Y-131937880D01*
X90424000Y-131986261D01*
X90399809Y-132083023D01*
X90399809Y-132155595D01*
X90424000Y-132252357D01*
X90448190Y-132300738D01*
X90496571Y-132349119D01*
X90569142Y-132373309D01*
X90617523Y-132373309D01*
X90690095Y-132349119D01*
X90714285Y-132324928D01*
X90714285Y-132155595D01*
X90617523Y-132155595D01*
X90932000Y-132373309D02*
X90932000Y-131865309D01*
X91125523Y-131865309D01*
X91173904Y-131889500D01*
X91198095Y-131913690D01*
X91222285Y-131962071D01*
X91222285Y-132034642D01*
X91198095Y-132083023D01*
X91173904Y-132107214D01*
X91125523Y-132131404D01*
X90932000Y-132131404D01*
X91440000Y-132373309D02*
X91440000Y-131865309D01*
X91778666Y-131865309D02*
X91875428Y-131865309D01*
X91923809Y-131889500D01*
X91972190Y-131937880D01*
X91996380Y-132034642D01*
X91996380Y-132203976D01*
X91972190Y-132300738D01*
X91923809Y-132349119D01*
X91875428Y-132373309D01*
X91778666Y-132373309D01*
X91730285Y-132349119D01*
X91681904Y-132300738D01*
X91657714Y-132203976D01*
X91657714Y-132034642D01*
X91681904Y-131937880D01*
X91730285Y-131889500D01*
X91778666Y-131865309D01*
X92310857Y-131865309D02*
X92359238Y-131865309D01*
X92407619Y-131889500D01*
X92431809Y-131913690D01*
X92456000Y-131962071D01*
X92480190Y-132058833D01*
X92480190Y-132179785D01*
X92456000Y-132276547D01*
X92431809Y-132324928D01*
X92407619Y-132349119D01*
X92359238Y-132373309D01*
X92310857Y-132373309D01*
X92262476Y-132349119D01*
X92238285Y-132324928D01*
X92214095Y-132276547D01*
X92189904Y-132179785D01*
X92189904Y-132058833D01*
X92214095Y-131962071D01*
X92238285Y-131913690D01*
X92262476Y-131889500D01*
X92310857Y-131865309D01*
X90399809Y-129567214D02*
X90569142Y-129567214D01*
X90641714Y-129833309D02*
X90399809Y-129833309D01*
X90399809Y-129325309D01*
X90641714Y-129325309D01*
X90835238Y-129809119D02*
X90907809Y-129833309D01*
X91028761Y-129833309D01*
X91077142Y-129809119D01*
X91101333Y-129784928D01*
X91125523Y-129736547D01*
X91125523Y-129688166D01*
X91101333Y-129639785D01*
X91077142Y-129615595D01*
X91028761Y-129591404D01*
X90932000Y-129567214D01*
X90883619Y-129543023D01*
X90859428Y-129518833D01*
X90835238Y-129470452D01*
X90835238Y-129422071D01*
X90859428Y-129373690D01*
X90883619Y-129349500D01*
X90932000Y-129325309D01*
X91052952Y-129325309D01*
X91125523Y-129349500D01*
X91343238Y-129833309D02*
X91343238Y-129325309D01*
X91536761Y-129325309D01*
X91585142Y-129349500D01*
X91609333Y-129373690D01*
X91633523Y-129422071D01*
X91633523Y-129494642D01*
X91609333Y-129543023D01*
X91585142Y-129567214D01*
X91536761Y-129591404D01*
X91343238Y-129591404D01*
X91730285Y-129881690D02*
X92117333Y-129881690D01*
X92238285Y-129567214D02*
X92407619Y-129567214D01*
X92480190Y-129833309D02*
X92238285Y-129833309D01*
X92238285Y-129325309D01*
X92480190Y-129325309D01*
X92697904Y-129833309D02*
X92697904Y-129325309D01*
X92988190Y-129833309D01*
X92988190Y-129325309D01*
X91052952Y-126809500D02*
X91004571Y-126785309D01*
X90932000Y-126785309D01*
X90859428Y-126809500D01*
X90811047Y-126857880D01*
X90786857Y-126906261D01*
X90762666Y-127003023D01*
X90762666Y-127075595D01*
X90786857Y-127172357D01*
X90811047Y-127220738D01*
X90859428Y-127269119D01*
X90932000Y-127293309D01*
X90980380Y-127293309D01*
X91052952Y-127269119D01*
X91077142Y-127244928D01*
X91077142Y-127075595D01*
X90980380Y-127075595D01*
X91294857Y-127293309D02*
X91294857Y-126785309D01*
X91585142Y-127293309D01*
X91585142Y-126785309D01*
X91827047Y-127293309D02*
X91827047Y-126785309D01*
X91948000Y-126785309D01*
X92020571Y-126809500D01*
X92068952Y-126857880D01*
X92093142Y-126906261D01*
X92117333Y-127003023D01*
X92117333Y-127075595D01*
X92093142Y-127172357D01*
X92068952Y-127220738D01*
X92020571Y-127269119D01*
X91948000Y-127293309D01*
X91827047Y-127293309D01*
X90544952Y-124559785D02*
X90932000Y-124559785D01*
X90738476Y-124753309D02*
X90738476Y-124366261D01*
X91125523Y-124245309D02*
X91440000Y-124245309D01*
X91270666Y-124438833D01*
X91343238Y-124438833D01*
X91391619Y-124463023D01*
X91415809Y-124487214D01*
X91440000Y-124535595D01*
X91440000Y-124656547D01*
X91415809Y-124704928D01*
X91391619Y-124729119D01*
X91343238Y-124753309D01*
X91198095Y-124753309D01*
X91149714Y-124729119D01*
X91125523Y-124704928D01*
X91585142Y-124245309D02*
X91754476Y-124753309D01*
X91923809Y-124245309D01*
X92044761Y-124245309D02*
X92359238Y-124245309D01*
X92189904Y-124438833D01*
X92262476Y-124438833D01*
X92310857Y-124463023D01*
X92335047Y-124487214D01*
X92359238Y-124535595D01*
X92359238Y-124656547D01*
X92335047Y-124704928D01*
X92310857Y-124729119D01*
X92262476Y-124753309D01*
X92117333Y-124753309D01*
X92068952Y-124729119D01*
X92044761Y-124704928D01*
D11*
X90460285Y-121720428D02*
X91040857Y-121720428D01*
X90750571Y-122010714D02*
X90750571Y-121430142D01*
X91766571Y-121248714D02*
X91403714Y-121248714D01*
X91367428Y-121611571D01*
X91403714Y-121575285D01*
X91476285Y-121539000D01*
X91657714Y-121539000D01*
X91730285Y-121575285D01*
X91766571Y-121611571D01*
X91802857Y-121684142D01*
X91802857Y-121865571D01*
X91766571Y-121938142D01*
X91730285Y-121974428D01*
X91657714Y-122010714D01*
X91476285Y-122010714D01*
X91403714Y-121974428D01*
X91367428Y-121938142D01*
X92020571Y-121248714D02*
X92274571Y-122010714D01*
X92528571Y-121248714D01*
D10*
X99193047Y-162931928D02*
X98418952Y-162931928D01*
X94497071Y-163264547D02*
X94497071Y-162490452D01*
X94884119Y-162877500D02*
X94110023Y-162877500D01*
X115551857Y-123891523D02*
X114826142Y-123891523D01*
X115189000Y-123891523D02*
X115189000Y-122621523D01*
X115068047Y-122802952D01*
X114947095Y-122923904D01*
X114826142Y-122984380D01*
X93453857Y-123891523D02*
X92728142Y-123891523D01*
X93091000Y-123891523D02*
X93091000Y-122621523D01*
X92970047Y-122802952D01*
X92849095Y-122923904D01*
X92728142Y-122984380D01*
D13*
X91016666Y-117039571D02*
X91863333Y-117039571D01*
X92226190Y-118370047D02*
X91016666Y-118370047D01*
X91016666Y-115830047D01*
X92226190Y-115830047D01*
X93193809Y-118249095D02*
X93556666Y-118370047D01*
X94161428Y-118370047D01*
X94403333Y-118249095D01*
X94524285Y-118128142D01*
X94645238Y-117886238D01*
X94645238Y-117644333D01*
X94524285Y-117402428D01*
X94403333Y-117281476D01*
X94161428Y-117160523D01*
X93677619Y-117039571D01*
X93435714Y-116918619D01*
X93314761Y-116797666D01*
X93193809Y-116555761D01*
X93193809Y-116313857D01*
X93314761Y-116071952D01*
X93435714Y-115951000D01*
X93677619Y-115830047D01*
X94282380Y-115830047D01*
X94645238Y-115951000D01*
X95733809Y-118370047D02*
X95733809Y-115830047D01*
X96701428Y-115830047D01*
X96943333Y-115951000D01*
X97064285Y-116071952D01*
X97185238Y-116313857D01*
X97185238Y-116676714D01*
X97064285Y-116918619D01*
X96943333Y-117039571D01*
X96701428Y-117160523D01*
X95733809Y-117160523D01*
X98031904Y-115830047D02*
X99604285Y-115830047D01*
X98757619Y-116797666D01*
X99120476Y-116797666D01*
X99362380Y-116918619D01*
X99483333Y-117039571D01*
X99604285Y-117281476D01*
X99604285Y-117886238D01*
X99483333Y-118128142D01*
X99362380Y-118249095D01*
X99120476Y-118370047D01*
X98394761Y-118370047D01*
X98152857Y-118249095D01*
X98031904Y-118128142D01*
X100571904Y-116071952D02*
X100692857Y-115951000D01*
X100934761Y-115830047D01*
X101539523Y-115830047D01*
X101781428Y-115951000D01*
X101902380Y-116071952D01*
X102023333Y-116313857D01*
X102023333Y-116555761D01*
X101902380Y-116918619D01*
X100450952Y-118370047D01*
X102023333Y-118370047D01*
X103111904Y-117402428D02*
X105047142Y-117402428D01*
X106256666Y-118370047D02*
X106256666Y-115830047D01*
X107224285Y-115830047D01*
X107466190Y-115951000D01*
X107587142Y-116071952D01*
X107708095Y-116313857D01*
X107708095Y-116676714D01*
X107587142Y-116918619D01*
X107466190Y-117039571D01*
X107224285Y-117160523D01*
X106256666Y-117160523D01*
X109159523Y-118370047D02*
X108917619Y-118249095D01*
X108796666Y-118128142D01*
X108675714Y-117886238D01*
X108675714Y-117160523D01*
X108796666Y-116918619D01*
X108917619Y-116797666D01*
X109159523Y-116676714D01*
X109522380Y-116676714D01*
X109764285Y-116797666D01*
X109885238Y-116918619D01*
X110006190Y-117160523D01*
X110006190Y-117886238D01*
X109885238Y-118128142D01*
X109764285Y-118249095D01*
X109522380Y-118370047D01*
X109159523Y-118370047D01*
X111094761Y-117039571D02*
X111941428Y-117039571D01*
X112304285Y-118370047D02*
X111094761Y-118370047D01*
X111094761Y-115830047D01*
X112304285Y-115830047D01*
D10*
X114614476Y-117553619D02*
X114275809Y-117069809D01*
X114033904Y-117553619D02*
X114033904Y-116537619D01*
X114420952Y-116537619D01*
X114517714Y-116586000D01*
X114566095Y-116634380D01*
X114614476Y-116731142D01*
X114614476Y-116876285D01*
X114566095Y-116973047D01*
X114517714Y-117021428D01*
X114420952Y-117069809D01*
X114033904Y-117069809D01*
X115436952Y-117505238D02*
X115340190Y-117553619D01*
X115146666Y-117553619D01*
X115049904Y-117505238D01*
X115001523Y-117408476D01*
X115001523Y-117021428D01*
X115049904Y-116924666D01*
X115146666Y-116876285D01*
X115340190Y-116876285D01*
X115436952Y-116924666D01*
X115485333Y-117021428D01*
X115485333Y-117118190D01*
X115001523Y-117214952D01*
X115824000Y-116876285D02*
X116065904Y-117553619D01*
X116307809Y-116876285D01*
X116694857Y-117456857D02*
X116743238Y-117505238D01*
X116694857Y-117553619D01*
X116646476Y-117505238D01*
X116694857Y-117456857D01*
X116694857Y-117553619D01*
X117178666Y-117021428D02*
X117517333Y-117021428D01*
X117662476Y-117553619D02*
X117178666Y-117553619D01*
X117178666Y-116537619D01*
X117662476Y-116537619D01*
X110490000Y-150749000D02*
X111506000Y-150749000D01*
X110490000Y-152781000D02*
X111506000Y-152781000D01*
X91313000Y-147129500D02*
X91059000Y-147129500D01*
X91313000Y-147129500D02*
X91567000Y-147129500D01*
X91313000Y-148018500D02*
X91567000Y-148018500D01*
X91313000Y-148018500D02*
X91059000Y-148018500D01*
X92710000Y-112458500D02*
X92456000Y-112458500D01*
X92710000Y-112458500D02*
X92964000Y-112458500D01*
X92710000Y-113347500D02*
X92964000Y-113347500D01*
X92710000Y-113347500D02*
X92456000Y-113347500D01*
X116586000Y-151358600D02*
X116586000Y-150317200D01*
X116751100Y-150431500D02*
X116751100Y-151257000D01*
X116598700Y-151396700D02*
X116738400Y-151269700D01*
X116598700Y-150304500D02*
X116751100Y-150431500D01*
D14*
X115159800Y-151100600D02*
X115029800Y-151210600D01*
X115019800Y-151230600D02*
X115099800Y-151220600D01*
X115019800Y-151230600D02*
X115019800Y-151150600D01*
X115235200Y-151230600D02*
X115235200Y-151150600D01*
X115235200Y-151230600D02*
X115315200Y-151220600D01*
X115366800Y-151121600D02*
X115236800Y-151231600D01*
D15*
X115289000Y-150766000D02*
X115289000Y-150986000D01*
X115099000Y-150986000D02*
X115199000Y-150886000D01*
X115099000Y-150766000D02*
X115209000Y-150866000D01*
X115099000Y-150766000D02*
X115099000Y-150986000D01*
X114929000Y-150876000D02*
X115449000Y-150876000D01*
D12*
X115570000Y-150241000D02*
X116586000Y-150241000D01*
X116586000Y-151460200D02*
X115570000Y-151460200D01*
D10*
X116586000Y-152882600D02*
X116586000Y-151841200D01*
X116751100Y-151955500D02*
X116751100Y-152781000D01*
X116598700Y-152920700D02*
X116738400Y-152793700D01*
X116598700Y-151828500D02*
X116751100Y-151955500D01*
D14*
X115159800Y-152624600D02*
X115029800Y-152734600D01*
X115019800Y-152754600D02*
X115099800Y-152744600D01*
X115019800Y-152754600D02*
X115019800Y-152674600D01*
X115235200Y-152754600D02*
X115235200Y-152674600D01*
X115235200Y-152754600D02*
X115315200Y-152744600D01*
X115366800Y-152645600D02*
X115236800Y-152755600D01*
D15*
X115289000Y-152290000D02*
X115289000Y-152510000D01*
X115099000Y-152510000D02*
X115199000Y-152410000D01*
X115099000Y-152290000D02*
X115209000Y-152390000D01*
X115099000Y-152290000D02*
X115099000Y-152510000D01*
X114929000Y-152400000D02*
X115449000Y-152400000D01*
D12*
X115570000Y-151765000D02*
X116586000Y-151765000D01*
X116586000Y-152984200D02*
X115570000Y-152984200D01*
D10*
X99661980Y-170159680D02*
X99661980Y-163842698D01*
X93581220Y-170159680D02*
X99661980Y-170159680D01*
X93581220Y-163850320D02*
X93581220Y-170159680D01*
X93586300Y-163842700D02*
X94640400Y-163842700D01*
X98653600Y-163842700D02*
X99656900Y-163842700D01*
X101727000Y-134112000D02*
X101727000Y-135128000D01*
X103251000Y-134112000D02*
X103251000Y-135128000D01*
X97242000Y-131255000D02*
X108742000Y-131255000D01*
X108742000Y-131255000D02*
X108742000Y-139255000D01*
X108742000Y-139255000D02*
X97242000Y-139255000D01*
X97242000Y-139255000D02*
X97242000Y-131255000D01*
X97242000Y-133505000D02*
X96492000Y-133505000D01*
X97242000Y-137005000D02*
X96492000Y-137005000D01*
X97155000Y-134239000D02*
X97155000Y-132715000D01*
X99441000Y-134239000D02*
X99441000Y-132715000D01*
X99441000Y-134874000D02*
X99441000Y-133350000D01*
X101727000Y-134874000D02*
X101727000Y-133350000D01*
X107759500Y-140462000D02*
X107759500Y-140716000D01*
X107759500Y-140462000D02*
X107759500Y-140208000D01*
X108648500Y-140462000D02*
X108648500Y-140208000D01*
X108648500Y-140462000D02*
X108648500Y-140716000D01*
X116205000Y-112585500D02*
X115951000Y-112585500D01*
X116205000Y-112585500D02*
X116459000Y-112585500D01*
X116205000Y-113474500D02*
X116459000Y-113474500D01*
X116205000Y-113474500D02*
X115951000Y-113474500D01*
X115062000Y-115760500D02*
X115316000Y-115760500D01*
X115062000Y-115760500D02*
X114808000Y-115760500D01*
X115062000Y-114871500D02*
X114808000Y-114871500D01*
X115062000Y-114871500D02*
X115316000Y-114871500D01*
X116205000Y-110807500D02*
X116459000Y-110807500D01*
X116205000Y-110807500D02*
X115951000Y-110807500D01*
X116205000Y-109918500D02*
X115951000Y-109918500D01*
X116205000Y-109918500D02*
X116459000Y-109918500D01*
X116205000Y-111696500D02*
X116459000Y-111696500D01*
X116205000Y-111696500D02*
X115951000Y-111696500D01*
X116205000Y-110807500D02*
X115951000Y-110807500D01*
X116205000Y-110807500D02*
X116459000Y-110807500D01*
X97853500Y-152336500D02*
X97853500Y-152590500D01*
X97853500Y-152336500D02*
X97853500Y-152082500D01*
X98742500Y-152336500D02*
X98742500Y-152082500D01*
X98742500Y-152336500D02*
X98742500Y-152590500D01*
X99822000Y-153289000D02*
X100076000Y-153289000D01*
X99822000Y-153289000D02*
X99568000Y-153289000D01*
X99822000Y-152400000D02*
X99568000Y-152400000D01*
X99822000Y-152400000D02*
X100076000Y-152400000D01*
X113093500Y-147574000D02*
X113093500Y-147828000D01*
X113093500Y-147574000D02*
X113093500Y-147320000D01*
X113982500Y-147574000D02*
X113982500Y-147320000D01*
X113982500Y-147574000D02*
X113982500Y-147828000D01*
X96710500Y-138938000D02*
X96710500Y-138684000D01*
X96710500Y-138938000D02*
X96710500Y-139192000D01*
X95821500Y-138938000D02*
X95821500Y-139192000D01*
X95821500Y-138938000D02*
X95821500Y-138684000D01*
X95631000Y-148336000D02*
X95631000Y-148590000D01*
X95631000Y-148336000D02*
X95631000Y-148082000D01*
X96520000Y-148336000D02*
X96520000Y-148082000D01*
X96520000Y-148336000D02*
X96520000Y-148590000D01*
X99822000Y-150114000D02*
X98806000Y-150114000D01*
X99822000Y-151638000D02*
X98806000Y-151638000D01*
X102311200Y-153301700D02*
X103441500Y-153301700D01*
X102311200Y-150495000D02*
X103441500Y-150495000D01*
X104727000Y-149072000D02*
X98727000Y-149072000D01*
X98727000Y-149072000D02*
X95227000Y-146372000D01*
X95227000Y-146372000D02*
X95227000Y-145872000D01*
X95227000Y-145872000D02*
X98327000Y-145872000D01*
X98327000Y-145872000D02*
X98327000Y-142672000D01*
X98327000Y-142672000D02*
X95227000Y-142672000D01*
X95227000Y-142672000D02*
X95227000Y-142172000D01*
X95227000Y-142172000D02*
X98727000Y-139472000D01*
X98727000Y-139472000D02*
X104727000Y-139472000D01*
X104727000Y-139472000D02*
X108227000Y-142172000D01*
X108227000Y-142172000D02*
X108227000Y-142672000D01*
X108227000Y-142672000D02*
X105127000Y-142672000D01*
X105127000Y-142672000D02*
X105127000Y-145872000D01*
X105127000Y-145872000D02*
X108227000Y-145872000D01*
X108227000Y-145872000D02*
X108227000Y-146372000D01*
X108227000Y-146372000D02*
X104727000Y-149072000D01*
X104838270Y-144272000D02*
G75*
G03X104838270Y-144272000I-3111270J0D01*
G01*
X102227000Y-144272000D02*
G75*
G02X101227000Y-144272000I-500000J0D01*
G01*
X101227000Y-144272000D02*
G75*
G02X100227000Y-144272000I-500000J0D01*
G01*
X103227000Y-144272000D02*
G75*
G02X102227000Y-144272000I-500000J0D01*
G01*
X103227000Y-144272000D02*
X104127000Y-144272000D01*
X99327000Y-144272000D02*
X100227000Y-144272000D01*
D16*
X115041000Y-140359000D02*
X109241000Y-140359000D01*
D10*
X115241000Y-138259000D02*
X115241000Y-145459000D01*
X109041000Y-145459000D02*
X109041000Y-138259000D01*
X111141000Y-143059000D02*
X113141000Y-143059000D01*
X113141000Y-143059000D02*
X112141000Y-141659000D01*
X111141000Y-143059000D02*
X112141000Y-141659000D01*
X111141000Y-141659000D02*
X113141000Y-141659000D01*
X115241000Y-138259000D02*
X114141000Y-138259000D01*
X109041000Y-138259000D02*
X110141000Y-138259000D01*
X115241000Y-145459000D02*
X114141000Y-145459000D01*
X109041000Y-145459000D02*
X110141000Y-145459000D01*
X112141000Y-141659000D02*
X112141000Y-141059000D01*
X112141000Y-143059000D02*
X112141000Y-143859000D01*
X96734000Y-150415000D02*
X91734000Y-150415000D01*
X95364000Y-153115000D02*
X95364000Y-150415000D01*
X91734000Y-153115000D02*
X96734000Y-153115000D01*
X94924000Y-153115000D02*
X94924000Y-150415000D01*
X102148000Y-139018000D02*
X107148000Y-139018000D01*
X103518000Y-136318000D02*
X103518000Y-139018000D01*
X107148000Y-136318000D02*
X102148000Y-136318000D01*
X103958000Y-136318000D02*
X103958000Y-139018000D01*
X112776000Y-130683000D02*
X112776000Y-132207000D01*
X110490000Y-130683000D02*
X110490000Y-132207000D01*
D12*
X98628200Y-138049000D02*
X99466400Y-138049000D01*
X98628200Y-136271000D02*
X99466400Y-136271000D01*
D10*
X93091000Y-169773600D02*
X93091000Y-168732200D01*
X93256100Y-168846500D02*
X93256100Y-169672000D01*
X93103700Y-169811700D02*
X93243400Y-169684700D01*
X93103700Y-168719500D02*
X93256100Y-168846500D01*
D14*
X91664800Y-169515600D02*
X91534800Y-169625600D01*
X91524800Y-169645600D02*
X91604800Y-169635600D01*
X91524800Y-169645600D02*
X91524800Y-169565600D01*
X91740200Y-169645600D02*
X91740200Y-169565600D01*
X91740200Y-169645600D02*
X91820200Y-169635600D01*
X91871800Y-169536600D02*
X91741800Y-169646600D01*
D15*
X91794000Y-169181000D02*
X91794000Y-169401000D01*
X91604000Y-169401000D02*
X91704000Y-169301000D01*
X91604000Y-169181000D02*
X91714000Y-169281000D01*
X91604000Y-169181000D02*
X91604000Y-169401000D01*
X91434000Y-169291000D02*
X91954000Y-169291000D01*
D12*
X92075000Y-168656000D02*
X93091000Y-168656000D01*
X93091000Y-169875200D02*
X92075000Y-169875200D01*
D10*
X115062000Y-148717000D02*
X114046000Y-148717000D01*
X115062000Y-150241000D02*
X114046000Y-150241000D01*
X93091000Y-167487600D02*
X93091000Y-166446200D01*
X93256100Y-166560500D02*
X93256100Y-167386000D01*
X93103700Y-167525700D02*
X93243400Y-167398700D01*
X93103700Y-166433500D02*
X93256100Y-166560500D01*
D14*
X91664800Y-167229600D02*
X91534800Y-167339600D01*
X91524800Y-167359600D02*
X91604800Y-167349600D01*
X91524800Y-167359600D02*
X91524800Y-167279600D01*
X91740200Y-167359600D02*
X91740200Y-167279600D01*
X91740200Y-167359600D02*
X91820200Y-167349600D01*
X91871800Y-167250600D02*
X91741800Y-167360600D01*
D15*
X91794000Y-166895000D02*
X91794000Y-167115000D01*
X91604000Y-167115000D02*
X91704000Y-167015000D01*
X91604000Y-166895000D02*
X91714000Y-166995000D01*
X91604000Y-166895000D02*
X91604000Y-167115000D01*
X91434000Y-167005000D02*
X91954000Y-167005000D01*
D12*
X92075000Y-166370000D02*
X93091000Y-166370000D01*
X93091000Y-167589200D02*
X92075000Y-167589200D01*
D10*
X91326000Y-161942000D02*
X91326000Y-154542000D01*
X95826000Y-154542000D02*
X94626000Y-154542000D01*
X97326000Y-156442000D02*
X97326000Y-155442000D01*
X97326000Y-161042000D02*
X97326000Y-160042000D01*
X92326000Y-161942000D02*
X91326000Y-161942000D01*
X90226000Y-162306000D02*
X90226000Y-154178000D01*
X91326000Y-154542000D02*
X92326000Y-154542000D01*
X95826000Y-161942000D02*
X94626000Y-161942000D01*
X90297000Y-162306000D02*
X91313000Y-161925000D01*
X90297000Y-154178000D02*
X91313000Y-154559000D01*
X93078300Y-147736560D02*
X92367100Y-147736560D01*
X92367100Y-148574760D02*
X92367100Y-147736560D01*
X95211900Y-148574760D02*
X95211900Y-147736560D01*
X95211900Y-147736560D02*
X94500700Y-147736560D01*
X105613200Y-134747000D02*
X106324400Y-134747000D01*
X106324400Y-133908800D02*
X106324400Y-134747000D01*
X103479600Y-133908800D02*
X103479600Y-134747000D01*
X103479600Y-134747000D02*
X104190800Y-134747000D01*
D17*
X106911000Y-151753000D02*
X106911000Y-152103000D01*
X106911000Y-150253000D02*
X106911000Y-149903000D01*
X106961000Y-151253000D02*
G75*
G02X106961000Y-151753000I0J-250000D01*
G01*
X106961000Y-150253000D02*
G75*
G02X106961000Y-150753000I0J-250000D01*
G01*
X106961000Y-150753000D02*
G75*
G02X106961000Y-151253000I0J-250000D01*
G01*
D10*
X106861000Y-149503000D02*
X107261000Y-149503000D01*
X106861000Y-152503000D02*
X107261000Y-152503000D01*
X115506500Y-99949000D02*
X115506500Y-100203000D01*
X115506500Y-99949000D02*
X115506500Y-99695000D01*
X116395500Y-99949000D02*
X116395500Y-99695000D01*
X116395500Y-99949000D02*
X116395500Y-100203000D01*
X116141500Y-108331000D02*
X116141500Y-108077000D01*
X116141500Y-108331000D02*
X116141500Y-108585000D01*
X115252500Y-108331000D02*
X115252500Y-108585000D01*
X115252500Y-108331000D02*
X115252500Y-108077000D01*
X116141500Y-108331000D02*
X116141500Y-108585000D01*
X116141500Y-108331000D02*
X116141500Y-108077000D01*
X117030500Y-108331000D02*
X117030500Y-108077000D01*
X117030500Y-108331000D02*
X117030500Y-108585000D01*
X94488000Y-138912600D02*
X95275400Y-138912600D01*
X95275400Y-138912600D02*
X95275400Y-139573000D01*
X95275400Y-141097000D02*
X95275400Y-141757400D01*
X95275400Y-141757400D02*
X94488000Y-141757400D01*
X93954600Y-140131800D02*
X93954600Y-140538200D01*
X97790000Y-121158000D02*
X97790000Y-120904000D01*
X97790000Y-127762000D02*
X97790000Y-127508000D01*
X110490000Y-127762000D02*
X110490000Y-127508000D01*
X110490000Y-121158000D02*
X110490000Y-120904000D01*
X97790000Y-128778000D02*
X93980000Y-128778000D01*
X94996000Y-127762000D02*
X97790000Y-127762000D01*
X94996000Y-120904000D02*
X94996000Y-127762000D01*
X97790000Y-120904000D02*
X94996000Y-120904000D01*
X113284000Y-120904000D02*
X110490000Y-120904000D01*
X113284000Y-127762000D02*
X113284000Y-120904000D01*
X110490000Y-127762000D02*
X113284000Y-127762000D01*
X96520000Y-119888000D02*
X97790000Y-119888000D01*
X96520000Y-119634000D02*
X96520000Y-119888000D01*
X95250000Y-119634000D02*
X95250000Y-119888000D01*
X96520000Y-119634000D02*
X95250000Y-119634000D01*
X110490000Y-119888000D02*
X111760000Y-119888000D01*
X113030000Y-119888000D02*
X114300000Y-119888000D01*
X111760000Y-119888000D02*
X111760000Y-119634000D01*
X113030000Y-119634000D02*
X111760000Y-119634000D01*
X113030000Y-119888000D02*
X113030000Y-119634000D01*
X97790000Y-127508000D02*
X95250000Y-127508000D01*
X113030000Y-127508000D02*
X110490000Y-127508000D01*
X93980000Y-119888000D02*
X93980000Y-128778000D01*
X114300000Y-128778000D02*
X114300000Y-119888000D01*
X114300000Y-128778000D02*
X110490000Y-128778000D01*
X93980000Y-119888000D02*
X95250000Y-119888000D01*
X95250000Y-121158000D02*
X95250000Y-127508000D01*
X113030000Y-127508000D02*
X113030000Y-121158000D01*
X110490000Y-121158000D02*
X113030000Y-121158000D01*
X95250000Y-121158000D02*
X97790000Y-121158000D01*
X95504000Y-121031000D02*
X95123000Y-121031000D01*
X95504000Y-127635000D02*
X95123000Y-127635000D01*
X112903000Y-127635000D02*
X113157000Y-127635000D01*
X112776000Y-121031000D02*
X113284000Y-121031000D01*
D12*
X90821000Y-106267000D02*
X90821000Y-102267000D01*
X93821000Y-106267000D02*
X93821000Y-102267000D01*
X90824000Y-102267000D02*
X91382800Y-102267000D01*
X93260000Y-102267000D02*
X93818800Y-102267000D01*
X90823200Y-106267000D02*
X91432800Y-106267000D01*
X93260000Y-106267000D02*
X93818800Y-106267000D01*
X93160738Y-104267000D02*
G75*
G03X93160738Y-104267000I-839738J0D01*
G01*
X114459000Y-106267000D02*
X114459000Y-102267000D01*
X117459000Y-106267000D02*
X117459000Y-102267000D01*
X114462000Y-102267000D02*
X115020800Y-102267000D01*
X116898000Y-102267000D02*
X117456800Y-102267000D01*
X114461200Y-106267000D02*
X115070800Y-106267000D01*
X116898000Y-106267000D02*
X117456800Y-106267000D01*
X116798738Y-104267000D02*
G75*
G03X116798738Y-104267000I-839738J0D01*
G01*
D10*
X91948000Y-107632500D02*
X91694000Y-107632500D01*
X91948000Y-107632500D02*
X92202000Y-107632500D01*
X91948000Y-108521500D02*
X92202000Y-108521500D01*
X91948000Y-108521500D02*
X91694000Y-108521500D01*
X95140000Y-89285000D02*
X113140000Y-89285000D01*
X95140000Y-95285000D02*
X113140000Y-95285000D01*
X113140000Y-89285000D02*
X113140000Y-95905000D01*
X95140000Y-114785000D02*
X95140000Y-114035000D01*
X95140000Y-114785000D02*
X97640000Y-114785000D01*
X113140000Y-114785000D02*
X110690000Y-114785000D01*
X113140000Y-114785000D02*
X113140000Y-114035000D01*
X95140000Y-89285000D02*
X95140000Y-95905000D01*
X96990000Y-114785000D02*
X97640000Y-114785000D01*
X111290000Y-114785000D02*
X110690000Y-114785000D01*
X100331000Y-159616000D02*
X100331000Y-153846000D01*
X100331000Y-175846000D02*
X100331000Y-164046000D01*
X116331000Y-175846000D02*
X100331000Y-175846000D01*
X116331000Y-164046000D02*
X116331000Y-175846000D01*
X116331000Y-153846000D02*
X116331000Y-159616000D01*
X100331000Y-153846000D02*
X116331000Y-153846000D01*
X93726000Y-131826000D02*
X94742000Y-131826000D01*
X93726000Y-130302000D02*
X94742000Y-130302000D01*
X115241000Y-137882000D02*
X115241000Y-148882000D01*
X115241000Y-148882000D02*
X109041000Y-148882000D01*
X109041000Y-148882000D02*
X109041000Y-137882000D01*
X109041000Y-137882000D02*
X115241000Y-137882000D01*
X113391000Y-137882000D02*
X113391000Y-137132000D01*
X110891000Y-137882000D02*
X110891000Y-137132000D01*
D18*
X109002285Y-153452285D02*
X108972047Y-153482523D01*
X108881333Y-153512761D01*
X108820857Y-153512761D01*
X108730142Y-153482523D01*
X108669666Y-153422047D01*
X108639428Y-153361571D01*
X108609190Y-153240619D01*
X108609190Y-153149904D01*
X108639428Y-153028952D01*
X108669666Y-152968476D01*
X108730142Y-152908000D01*
X108820857Y-152877761D01*
X108881333Y-152877761D01*
X108972047Y-152908000D01*
X109002285Y-152938238D01*
X109244190Y-152938238D02*
X109274428Y-152908000D01*
X109334904Y-152877761D01*
X109486095Y-152877761D01*
X109546571Y-152908000D01*
X109576809Y-152938238D01*
X109607047Y-152998714D01*
X109607047Y-153059190D01*
X109576809Y-153149904D01*
X109213952Y-153512761D01*
X109607047Y-153512761D01*
X109848952Y-152938238D02*
X109879190Y-152908000D01*
X109939666Y-152877761D01*
X110090857Y-152877761D01*
X110151333Y-152908000D01*
X110181571Y-152938238D01*
X110211809Y-152998714D01*
X110211809Y-153059190D01*
X110181571Y-153149904D01*
X109818714Y-153512761D01*
X110211809Y-153512761D01*
D11*
X91210368Y-149815131D02*
X90774184Y-149738157D01*
X90902474Y-150123025D02*
X90363658Y-149584210D01*
X90568921Y-149378947D01*
X90645895Y-149353289D01*
X90697211Y-149353289D01*
X90774184Y-149378947D01*
X90851158Y-149455920D01*
X90876816Y-149532894D01*
X90876816Y-149584210D01*
X90851158Y-149661183D01*
X90645895Y-149866446D01*
X91723525Y-149301973D02*
X91415631Y-149609868D01*
X91569578Y-149455920D02*
X91030763Y-148917105D01*
X91056421Y-149045394D01*
X91056421Y-149148026D01*
X91030763Y-149225000D01*
X91646552Y-148301316D02*
X91543920Y-148403948D01*
X91518262Y-148480921D01*
X91518262Y-148532237D01*
X91543920Y-148660526D01*
X91620894Y-148788816D01*
X91826157Y-148994079D01*
X91903131Y-149019737D01*
X91954446Y-149019737D01*
X92031420Y-148994079D01*
X92134051Y-148891447D01*
X92159709Y-148814474D01*
X92159709Y-148763158D01*
X92134051Y-148686184D01*
X92005762Y-148557895D01*
X91928788Y-148532237D01*
X91877473Y-148532237D01*
X91800499Y-148557895D01*
X91697868Y-148660526D01*
X91672210Y-148737500D01*
X91672210Y-148788816D01*
X91697868Y-148865789D01*
X92583000Y-111977714D02*
X92329000Y-111614857D01*
X92147571Y-111977714D02*
X92147571Y-111215714D01*
X92437857Y-111215714D01*
X92510428Y-111252000D01*
X92546714Y-111288285D01*
X92583000Y-111360857D01*
X92583000Y-111469714D01*
X92546714Y-111542285D01*
X92510428Y-111578571D01*
X92437857Y-111614857D01*
X92147571Y-111614857D01*
X93236142Y-111469714D02*
X93236142Y-111977714D01*
X93054714Y-111179428D02*
X92873285Y-111723714D01*
X93345000Y-111723714D01*
D18*
X112020047Y-150782261D02*
X111717666Y-150782261D01*
X111717666Y-150147261D01*
X112231714Y-150782261D02*
X112231714Y-150147261D01*
X112594571Y-150782261D01*
X112594571Y-150147261D01*
X112896952Y-150782261D02*
X112896952Y-150147261D01*
X113259809Y-150782261D02*
X112987666Y-150419404D01*
X113259809Y-150147261D02*
X112896952Y-150510119D01*
X113864571Y-150782261D02*
X113501714Y-150782261D01*
X113683142Y-150782261D02*
X113683142Y-150147261D01*
X113622666Y-150237976D01*
X113562190Y-150298452D01*
X113501714Y-150328690D01*
X111636023Y-153267833D02*
X111938404Y-153267833D01*
X111575547Y-153449261D02*
X111787214Y-152814261D01*
X111998880Y-153449261D01*
X112573404Y-153388785D02*
X112543166Y-153419023D01*
X112452452Y-153449261D01*
X112391976Y-153449261D01*
X112301261Y-153419023D01*
X112240785Y-153358547D01*
X112210547Y-153298071D01*
X112180309Y-153177119D01*
X112180309Y-153086404D01*
X112210547Y-152965452D01*
X112240785Y-152904976D01*
X112301261Y-152844500D01*
X112391976Y-152814261D01*
X112452452Y-152814261D01*
X112543166Y-152844500D01*
X112573404Y-152874738D01*
X112754833Y-152814261D02*
X113117690Y-152814261D01*
X112936261Y-153449261D02*
X112936261Y-152814261D01*
X113661976Y-153449261D02*
X113299119Y-153449261D01*
X113480547Y-153449261D02*
X113480547Y-152814261D01*
X113420071Y-152904976D01*
X113359595Y-152965452D01*
X113299119Y-152995690D01*
D11*
X90705214Y-164347071D02*
X90814071Y-164383357D01*
X90850357Y-164419642D01*
X90886642Y-164492214D01*
X90886642Y-164601071D01*
X90850357Y-164673642D01*
X90814071Y-164709928D01*
X90741500Y-164746214D01*
X90451214Y-164746214D01*
X90451214Y-163984214D01*
X90705214Y-163984214D01*
X90777785Y-164020500D01*
X90814071Y-164056785D01*
X90850357Y-164129357D01*
X90850357Y-164201928D01*
X90814071Y-164274500D01*
X90777785Y-164310785D01*
X90705214Y-164347071D01*
X90451214Y-164347071D01*
X91176928Y-164528500D02*
X91539785Y-164528500D01*
X91104357Y-164746214D02*
X91358357Y-163984214D01*
X91612357Y-164746214D01*
X91757500Y-163984214D02*
X92192928Y-163984214D01*
X91975214Y-164746214D02*
X91975214Y-163984214D01*
X92846071Y-164746214D02*
X92410642Y-164746214D01*
X92628357Y-164746214D02*
X92628357Y-163984214D01*
X92555785Y-164093071D01*
X92483214Y-164165642D01*
X92410642Y-164201928D01*
D18*
X102360710Y-132783012D02*
X102360710Y-132825775D01*
X102317947Y-132911302D01*
X102275184Y-132954065D01*
X102189658Y-132996828D01*
X102104131Y-132996828D01*
X102039987Y-132975446D01*
X101933079Y-132911302D01*
X101868934Y-132847157D01*
X101804790Y-132740249D01*
X101783408Y-132676104D01*
X101783408Y-132590578D01*
X101826171Y-132505052D01*
X101868934Y-132462289D01*
X101954460Y-132419526D01*
X101997224Y-132419526D01*
X102104131Y-132227092D02*
X102382092Y-131949131D01*
X102403473Y-132269855D01*
X102467618Y-132205710D01*
X102531763Y-132184329D01*
X102574526Y-132184329D01*
X102638670Y-132205710D01*
X102745578Y-132312618D01*
X102766960Y-132376763D01*
X102766960Y-132419526D01*
X102745578Y-132483670D01*
X102617289Y-132611960D01*
X102553144Y-132633341D01*
X102510381Y-132633341D01*
X102660052Y-131671171D02*
X102702815Y-131628408D01*
X102766960Y-131607026D01*
X102809723Y-131607026D01*
X102873868Y-131628408D01*
X102980775Y-131692553D01*
X103087683Y-131799460D01*
X103151828Y-131906368D01*
X103173209Y-131970513D01*
X103173209Y-132013276D01*
X103151828Y-132077421D01*
X103109065Y-132120184D01*
X103044920Y-132141565D01*
X103002157Y-132141565D01*
X102938012Y-132120184D01*
X102831104Y-132056039D01*
X102724197Y-131949131D01*
X102660052Y-131842224D01*
X102638670Y-131778079D01*
X102638670Y-131735316D01*
X102660052Y-131671171D01*
D10*
X94215857Y-135871857D02*
X94167476Y-135920238D01*
X94022333Y-135968619D01*
X93925571Y-135968619D01*
X93780428Y-135920238D01*
X93683666Y-135823476D01*
X93635285Y-135726714D01*
X93586904Y-135533190D01*
X93586904Y-135388047D01*
X93635285Y-135194523D01*
X93683666Y-135097761D01*
X93780428Y-135001000D01*
X93925571Y-134952619D01*
X94022333Y-134952619D01*
X94167476Y-135001000D01*
X94215857Y-135049380D01*
X94602904Y-135049380D02*
X94651285Y-135001000D01*
X94748047Y-134952619D01*
X94989952Y-134952619D01*
X95086714Y-135001000D01*
X95135095Y-135049380D01*
X95183476Y-135146142D01*
X95183476Y-135242904D01*
X95135095Y-135388047D01*
X94554523Y-135968619D01*
X95183476Y-135968619D01*
X95667285Y-135968619D02*
X95860809Y-135968619D01*
X95957571Y-135920238D01*
X96005952Y-135871857D01*
X96102714Y-135726714D01*
X96151095Y-135533190D01*
X96151095Y-135146142D01*
X96102714Y-135049380D01*
X96054333Y-135001000D01*
X95957571Y-134952619D01*
X95764047Y-134952619D01*
X95667285Y-135001000D01*
X95618904Y-135049380D01*
X95570523Y-135146142D01*
X95570523Y-135388047D01*
X95618904Y-135484809D01*
X95667285Y-135533190D01*
X95764047Y-135581571D01*
X95957571Y-135581571D01*
X96054333Y-135533190D01*
X96102714Y-135484809D01*
X96151095Y-135388047D01*
X93018428Y-132073952D02*
X93018428Y-132848047D01*
X92631380Y-132461000D02*
X93405476Y-132461000D01*
X98582714Y-133988809D02*
X98582714Y-133021190D01*
X99066523Y-133505000D02*
X98098904Y-133505000D01*
D11*
X96864714Y-132061857D02*
X96501857Y-132315857D01*
X96864714Y-132497285D02*
X96102714Y-132497285D01*
X96102714Y-132207000D01*
X96139000Y-132134428D01*
X96175285Y-132098142D01*
X96247857Y-132061857D01*
X96356714Y-132061857D01*
X96429285Y-132098142D01*
X96465571Y-132134428D01*
X96501857Y-132207000D01*
X96501857Y-132497285D01*
X96356714Y-131408714D02*
X96864714Y-131408714D01*
X96066428Y-131590142D02*
X96610714Y-131771571D01*
X96610714Y-131299857D01*
X96102714Y-130646714D02*
X96102714Y-131009571D01*
X96465571Y-131045857D01*
X96429285Y-131009571D01*
X96393000Y-130937000D01*
X96393000Y-130755571D01*
X96429285Y-130683000D01*
X96465571Y-130646714D01*
X96538142Y-130610428D01*
X96719571Y-130610428D01*
X96792142Y-130646714D01*
X96828428Y-130683000D01*
X96864714Y-130755571D01*
X96864714Y-130937000D01*
X96828428Y-131009571D01*
X96792142Y-131045857D01*
X101491142Y-130964214D02*
X101237142Y-130601357D01*
X101055714Y-130964214D02*
X101055714Y-130202214D01*
X101346000Y-130202214D01*
X101418571Y-130238500D01*
X101454857Y-130274785D01*
X101491142Y-130347357D01*
X101491142Y-130456214D01*
X101454857Y-130528785D01*
X101418571Y-130565071D01*
X101346000Y-130601357D01*
X101055714Y-130601357D01*
X102144285Y-130456214D02*
X102144285Y-130964214D01*
X101962857Y-130165928D02*
X101781428Y-130710214D01*
X102253142Y-130710214D01*
X102470857Y-130202214D02*
X102942571Y-130202214D01*
X102688571Y-130492500D01*
X102797428Y-130492500D01*
X102870000Y-130528785D01*
X102906285Y-130565071D01*
X102942571Y-130637642D01*
X102942571Y-130819071D01*
X102906285Y-130891642D01*
X102870000Y-130927928D01*
X102797428Y-130964214D01*
X102579714Y-130964214D01*
X102507142Y-130927928D01*
X102470857Y-130891642D01*
D18*
X106297185Y-140079185D02*
X106266947Y-140109423D01*
X106176233Y-140139661D01*
X106115757Y-140139661D01*
X106025042Y-140109423D01*
X105964566Y-140048947D01*
X105934328Y-139988471D01*
X105904090Y-139867519D01*
X105904090Y-139776804D01*
X105934328Y-139655852D01*
X105964566Y-139595376D01*
X106025042Y-139534900D01*
X106115757Y-139504661D01*
X106176233Y-139504661D01*
X106266947Y-139534900D01*
X106297185Y-139565138D01*
X106901947Y-140139661D02*
X106539090Y-140139661D01*
X106720519Y-140139661D02*
X106720519Y-139504661D01*
X106660042Y-139595376D01*
X106599566Y-139655852D01*
X106539090Y-139686090D01*
X107446233Y-139716328D02*
X107446233Y-140139661D01*
X107295042Y-139474423D02*
X107143852Y-139927995D01*
X107536947Y-139927995D01*
D19*
X114194771Y-113282790D02*
X114008504Y-113016695D01*
X113875457Y-113282790D02*
X113875457Y-112723990D01*
X114088333Y-112723990D01*
X114141552Y-112750600D01*
X114168161Y-112777209D01*
X114194771Y-112830428D01*
X114194771Y-112910257D01*
X114168161Y-112963476D01*
X114141552Y-112990085D01*
X114088333Y-113016695D01*
X113875457Y-113016695D01*
X114673742Y-112910257D02*
X114673742Y-113282790D01*
X114540695Y-112697380D02*
X114407647Y-113096523D01*
X114753571Y-113096523D01*
X115205933Y-112910257D02*
X115205933Y-113282790D01*
X115072885Y-112697380D02*
X114939838Y-113096523D01*
X115285761Y-113096523D01*
D18*
X116431785Y-115857261D02*
X116220119Y-115554880D01*
X116068928Y-115857261D02*
X116068928Y-115222261D01*
X116310833Y-115222261D01*
X116371309Y-115252500D01*
X116401547Y-115282738D01*
X116431785Y-115343214D01*
X116431785Y-115433928D01*
X116401547Y-115494404D01*
X116371309Y-115524642D01*
X116310833Y-115554880D01*
X116068928Y-115554880D01*
X116643452Y-115222261D02*
X117036547Y-115222261D01*
X116824880Y-115464166D01*
X116915595Y-115464166D01*
X116976071Y-115494404D01*
X117006309Y-115524642D01*
X117036547Y-115585119D01*
X117036547Y-115736309D01*
X117006309Y-115796785D01*
X116976071Y-115827023D01*
X116915595Y-115857261D01*
X116734166Y-115857261D01*
X116673690Y-115827023D01*
X116643452Y-115796785D01*
X117338928Y-115857261D02*
X117459880Y-115857261D01*
X117520357Y-115827023D01*
X117550595Y-115796785D01*
X117611071Y-115706071D01*
X117641309Y-115585119D01*
X117641309Y-115343214D01*
X117611071Y-115282738D01*
X117580833Y-115252500D01*
X117520357Y-115222261D01*
X117399404Y-115222261D01*
X117338928Y-115252500D01*
X117308690Y-115282738D01*
X117278452Y-115343214D01*
X117278452Y-115494404D01*
X117308690Y-115554880D01*
X117338928Y-115585119D01*
X117399404Y-115615357D01*
X117520357Y-115615357D01*
X117580833Y-115585119D01*
X117611071Y-115554880D01*
X117641309Y-115494404D01*
D19*
X114194771Y-110488790D02*
X114008504Y-110222695D01*
X113875457Y-110488790D02*
X113875457Y-109929990D01*
X114088333Y-109929990D01*
X114141552Y-109956600D01*
X114168161Y-109983209D01*
X114194771Y-110036428D01*
X114194771Y-110116257D01*
X114168161Y-110169476D01*
X114141552Y-110196085D01*
X114088333Y-110222695D01*
X113875457Y-110222695D01*
X114381038Y-109929990D02*
X114726961Y-109929990D01*
X114540695Y-110142866D01*
X114620523Y-110142866D01*
X114673742Y-110169476D01*
X114700352Y-110196085D01*
X114726961Y-110249304D01*
X114726961Y-110382352D01*
X114700352Y-110435571D01*
X114673742Y-110462180D01*
X114620523Y-110488790D01*
X114460866Y-110488790D01*
X114407647Y-110462180D01*
X114381038Y-110435571D01*
X115205933Y-109929990D02*
X115099495Y-109929990D01*
X115046276Y-109956600D01*
X115019666Y-109983209D01*
X114966447Y-110063038D01*
X114939838Y-110169476D01*
X114939838Y-110382352D01*
X114966447Y-110435571D01*
X114993057Y-110462180D01*
X115046276Y-110488790D01*
X115152714Y-110488790D01*
X115205933Y-110462180D01*
X115232542Y-110435571D01*
X115259152Y-110382352D01*
X115259152Y-110249304D01*
X115232542Y-110196085D01*
X115205933Y-110169476D01*
X115152714Y-110142866D01*
X115046276Y-110142866D01*
X114993057Y-110169476D01*
X114966447Y-110196085D01*
X114939838Y-110249304D01*
X114194771Y-111758790D02*
X114008504Y-111492695D01*
X113875457Y-111758790D02*
X113875457Y-111199990D01*
X114088333Y-111199990D01*
X114141552Y-111226600D01*
X114168161Y-111253209D01*
X114194771Y-111306428D01*
X114194771Y-111386257D01*
X114168161Y-111439476D01*
X114141552Y-111466085D01*
X114088333Y-111492695D01*
X113875457Y-111492695D01*
X114381038Y-111199990D02*
X114726961Y-111199990D01*
X114540695Y-111412866D01*
X114620523Y-111412866D01*
X114673742Y-111439476D01*
X114700352Y-111466085D01*
X114726961Y-111519304D01*
X114726961Y-111652352D01*
X114700352Y-111705571D01*
X114673742Y-111732180D01*
X114620523Y-111758790D01*
X114460866Y-111758790D01*
X114407647Y-111732180D01*
X114381038Y-111705571D01*
X115259152Y-111758790D02*
X114939838Y-111758790D01*
X115099495Y-111758790D02*
X115099495Y-111199990D01*
X115046276Y-111279819D01*
X114993057Y-111333038D01*
X114939838Y-111359647D01*
D18*
X98712261Y-154713214D02*
X98409880Y-154924880D01*
X98712261Y-155076071D02*
X98077261Y-155076071D01*
X98077261Y-154834166D01*
X98107500Y-154773690D01*
X98137738Y-154743452D01*
X98198214Y-154713214D01*
X98288928Y-154713214D01*
X98349404Y-154743452D01*
X98379642Y-154773690D01*
X98409880Y-154834166D01*
X98409880Y-155076071D01*
X98077261Y-154501547D02*
X98077261Y-154108452D01*
X98319166Y-154320119D01*
X98319166Y-154229404D01*
X98349404Y-154168928D01*
X98379642Y-154138690D01*
X98440119Y-154108452D01*
X98591309Y-154108452D01*
X98651785Y-154138690D01*
X98682023Y-154168928D01*
X98712261Y-154229404D01*
X98712261Y-154410833D01*
X98682023Y-154471309D01*
X98651785Y-154501547D01*
X98077261Y-153715357D02*
X98077261Y-153654880D01*
X98107500Y-153594404D01*
X98137738Y-153564166D01*
X98198214Y-153533928D01*
X98319166Y-153503690D01*
X98470357Y-153503690D01*
X98591309Y-153533928D01*
X98651785Y-153564166D01*
X98682023Y-153594404D01*
X98712261Y-153654880D01*
X98712261Y-153715357D01*
X98682023Y-153775833D01*
X98651785Y-153806071D01*
X98591309Y-153836309D01*
X98470357Y-153866547D01*
X98319166Y-153866547D01*
X98198214Y-153836309D01*
X98137738Y-153806071D01*
X98107500Y-153775833D01*
X98077261Y-153715357D01*
X99855261Y-154713214D02*
X99552880Y-154924880D01*
X99855261Y-155076071D02*
X99220261Y-155076071D01*
X99220261Y-154834166D01*
X99250500Y-154773690D01*
X99280738Y-154743452D01*
X99341214Y-154713214D01*
X99431928Y-154713214D01*
X99492404Y-154743452D01*
X99522642Y-154773690D01*
X99552880Y-154834166D01*
X99552880Y-155076071D01*
X99280738Y-154471309D02*
X99250500Y-154441071D01*
X99220261Y-154380595D01*
X99220261Y-154229404D01*
X99250500Y-154168928D01*
X99280738Y-154138690D01*
X99341214Y-154108452D01*
X99401690Y-154108452D01*
X99492404Y-154138690D01*
X99855261Y-154501547D01*
X99855261Y-154108452D01*
X99855261Y-153806071D02*
X99855261Y-153685119D01*
X99825023Y-153624642D01*
X99794785Y-153594404D01*
X99704071Y-153533928D01*
X99583119Y-153503690D01*
X99341214Y-153503690D01*
X99280738Y-153533928D01*
X99250500Y-153564166D01*
X99220261Y-153624642D01*
X99220261Y-153745595D01*
X99250500Y-153806071D01*
X99280738Y-153836309D01*
X99341214Y-153866547D01*
X99492404Y-153866547D01*
X99552880Y-153836309D01*
X99583119Y-153806071D01*
X99613357Y-153745595D01*
X99613357Y-153624642D01*
X99583119Y-153564166D01*
X99552880Y-153533928D01*
X99492404Y-153503690D01*
X114968261Y-147601214D02*
X114665880Y-147812880D01*
X114968261Y-147964071D02*
X114333261Y-147964071D01*
X114333261Y-147722166D01*
X114363500Y-147661690D01*
X114393738Y-147631452D01*
X114454214Y-147601214D01*
X114544928Y-147601214D01*
X114605404Y-147631452D01*
X114635642Y-147661690D01*
X114665880Y-147722166D01*
X114665880Y-147964071D01*
X114393738Y-147359309D02*
X114363500Y-147329071D01*
X114333261Y-147268595D01*
X114333261Y-147117404D01*
X114363500Y-147056928D01*
X114393738Y-147026690D01*
X114454214Y-146996452D01*
X114514690Y-146996452D01*
X114605404Y-147026690D01*
X114968261Y-147389547D01*
X114968261Y-146996452D01*
X114333261Y-146421928D02*
X114333261Y-146724309D01*
X114635642Y-146754547D01*
X114605404Y-146724309D01*
X114575166Y-146663833D01*
X114575166Y-146512642D01*
X114605404Y-146452166D01*
X114635642Y-146421928D01*
X114696119Y-146391690D01*
X114847309Y-146391690D01*
X114907785Y-146421928D01*
X114938023Y-146452166D01*
X114968261Y-146512642D01*
X114968261Y-146663833D01*
X114938023Y-146724309D01*
X114907785Y-146754547D01*
X93698785Y-138526761D02*
X93487119Y-138224380D01*
X93335928Y-138526761D02*
X93335928Y-137891761D01*
X93577833Y-137891761D01*
X93638309Y-137922000D01*
X93668547Y-137952238D01*
X93698785Y-138012714D01*
X93698785Y-138103428D01*
X93668547Y-138163904D01*
X93638309Y-138194142D01*
X93577833Y-138224380D01*
X93335928Y-138224380D01*
X93940690Y-137952238D02*
X93970928Y-137922000D01*
X94031404Y-137891761D01*
X94182595Y-137891761D01*
X94243071Y-137922000D01*
X94273309Y-137952238D01*
X94303547Y-138012714D01*
X94303547Y-138073190D01*
X94273309Y-138163904D01*
X93910452Y-138526761D01*
X94303547Y-138526761D01*
X94847833Y-138103428D02*
X94847833Y-138526761D01*
X94696642Y-137861523D02*
X94545452Y-138315095D01*
X94938547Y-138315095D01*
X97239666Y-149197785D02*
X97209428Y-149228023D01*
X97118714Y-149258261D01*
X97058238Y-149258261D01*
X96967523Y-149228023D01*
X96907047Y-149167547D01*
X96876809Y-149107071D01*
X96846571Y-148986119D01*
X96846571Y-148895404D01*
X96876809Y-148774452D01*
X96907047Y-148713976D01*
X96967523Y-148653500D01*
X97058238Y-148623261D01*
X97118714Y-148623261D01*
X97209428Y-148653500D01*
X97239666Y-148683738D01*
X97602523Y-148895404D02*
X97542047Y-148865166D01*
X97511809Y-148834928D01*
X97481571Y-148774452D01*
X97481571Y-148744214D01*
X97511809Y-148683738D01*
X97542047Y-148653500D01*
X97602523Y-148623261D01*
X97723476Y-148623261D01*
X97783952Y-148653500D01*
X97814190Y-148683738D01*
X97844428Y-148744214D01*
X97844428Y-148774452D01*
X97814190Y-148834928D01*
X97783952Y-148865166D01*
X97723476Y-148895404D01*
X97602523Y-148895404D01*
X97542047Y-148925642D01*
X97511809Y-148955880D01*
X97481571Y-149016357D01*
X97481571Y-149137309D01*
X97511809Y-149197785D01*
X97542047Y-149228023D01*
X97602523Y-149258261D01*
X97723476Y-149258261D01*
X97783952Y-149228023D01*
X97814190Y-149197785D01*
X97844428Y-149137309D01*
X97844428Y-149016357D01*
X97814190Y-148955880D01*
X97783952Y-148925642D01*
X97723476Y-148895404D01*
X100605166Y-150086785D02*
X100574928Y-150117023D01*
X100484214Y-150147261D01*
X100423738Y-150147261D01*
X100333023Y-150117023D01*
X100272547Y-150056547D01*
X100242309Y-149996071D01*
X100212071Y-149875119D01*
X100212071Y-149784404D01*
X100242309Y-149663452D01*
X100272547Y-149602976D01*
X100333023Y-149542500D01*
X100423738Y-149512261D01*
X100484214Y-149512261D01*
X100574928Y-149542500D01*
X100605166Y-149572738D01*
X101149452Y-149512261D02*
X101028500Y-149512261D01*
X100968023Y-149542500D01*
X100937785Y-149572738D01*
X100877309Y-149663452D01*
X100847071Y-149784404D01*
X100847071Y-150026309D01*
X100877309Y-150086785D01*
X100907547Y-150117023D01*
X100968023Y-150147261D01*
X101088976Y-150147261D01*
X101149452Y-150117023D01*
X101179690Y-150086785D01*
X101209928Y-150026309D01*
X101209928Y-149875119D01*
X101179690Y-149814642D01*
X101149452Y-149784404D01*
X101088976Y-149754166D01*
X100968023Y-149754166D01*
X100907547Y-149784404D01*
X100877309Y-149814642D01*
X100847071Y-149875119D01*
X102513190Y-149512261D02*
X102513190Y-150026309D01*
X102543428Y-150086785D01*
X102573666Y-150117023D01*
X102634142Y-150147261D01*
X102755095Y-150147261D01*
X102815571Y-150117023D01*
X102845809Y-150086785D01*
X102876047Y-150026309D01*
X102876047Y-149512261D01*
X103117952Y-149512261D02*
X103541285Y-149512261D01*
X103269142Y-150147261D01*
D11*
X107315000Y-148553714D02*
X106952142Y-148553714D01*
X106952142Y-147791714D01*
X107895571Y-148045714D02*
X107895571Y-148553714D01*
X107714142Y-147755428D02*
X107532714Y-148299714D01*
X108004428Y-148299714D01*
X109510285Y-145868571D02*
X110272285Y-145868571D01*
X110272285Y-146050000D01*
X110236000Y-146158857D01*
X110163428Y-146231428D01*
X110090857Y-146267714D01*
X109945714Y-146304000D01*
X109836857Y-146304000D01*
X109691714Y-146267714D01*
X109619142Y-146231428D01*
X109546571Y-146158857D01*
X109510285Y-146050000D01*
X109510285Y-145868571D01*
X110272285Y-146993428D02*
X110272285Y-146630571D01*
X109909428Y-146594285D01*
X109945714Y-146630571D01*
X109982000Y-146703142D01*
X109982000Y-146884571D01*
X109945714Y-146957142D01*
X109909428Y-146993428D01*
X109836857Y-147029714D01*
X109655428Y-147029714D01*
X109582857Y-146993428D01*
X109546571Y-146957142D01*
X109510285Y-146884571D01*
X109510285Y-146703142D01*
X109546571Y-146630571D01*
X109582857Y-146594285D01*
D18*
X91733309Y-154084261D02*
X91733309Y-153449261D01*
X91884500Y-153449261D01*
X91975214Y-153479500D01*
X92035690Y-153539976D01*
X92065928Y-153600452D01*
X92096166Y-153721404D01*
X92096166Y-153812119D01*
X92065928Y-153933071D01*
X92035690Y-153993547D01*
X91975214Y-154054023D01*
X91884500Y-154084261D01*
X91733309Y-154084261D01*
X92307833Y-153449261D02*
X92700928Y-153449261D01*
X92489261Y-153691166D01*
X92579976Y-153691166D01*
X92640452Y-153721404D01*
X92670690Y-153751642D01*
X92700928Y-153812119D01*
X92700928Y-153963309D01*
X92670690Y-154023785D01*
X92640452Y-154054023D01*
X92579976Y-154084261D01*
X92398547Y-154084261D01*
X92338071Y-154054023D01*
X92307833Y-154023785D01*
D11*
X99894571Y-138901714D02*
X99894571Y-138139714D01*
X100076000Y-138139714D01*
X100184857Y-138176000D01*
X100257428Y-138248571D01*
X100293714Y-138321142D01*
X100330000Y-138466285D01*
X100330000Y-138575142D01*
X100293714Y-138720285D01*
X100257428Y-138792857D01*
X100184857Y-138865428D01*
X100076000Y-138901714D01*
X99894571Y-138901714D01*
X101055714Y-138901714D02*
X100620285Y-138901714D01*
X100838000Y-138901714D02*
X100838000Y-138139714D01*
X100765428Y-138248571D01*
X100692857Y-138321142D01*
X100620285Y-138357428D01*
X114191142Y-131299857D02*
X114227428Y-131336142D01*
X114263714Y-131445000D01*
X114263714Y-131517571D01*
X114227428Y-131626428D01*
X114154857Y-131699000D01*
X114082285Y-131735285D01*
X113937142Y-131771571D01*
X113828285Y-131771571D01*
X113683142Y-131735285D01*
X113610571Y-131699000D01*
X113538000Y-131626428D01*
X113501714Y-131517571D01*
X113501714Y-131445000D01*
X113538000Y-131336142D01*
X113574285Y-131299857D01*
X113574285Y-131009571D02*
X113538000Y-130973285D01*
X113501714Y-130900714D01*
X113501714Y-130719285D01*
X113538000Y-130646714D01*
X113574285Y-130610428D01*
X113646857Y-130574142D01*
X113719428Y-130574142D01*
X113828285Y-130610428D01*
X114263714Y-131045857D01*
X114263714Y-130574142D01*
X113755714Y-129921000D02*
X114263714Y-129921000D01*
X113465428Y-130102428D02*
X114009714Y-130283857D01*
X114009714Y-129812142D01*
X98488500Y-138965214D02*
X98125642Y-138965214D01*
X98125642Y-138203214D01*
X99069071Y-138203214D02*
X98923928Y-138203214D01*
X98851357Y-138239500D01*
X98815071Y-138275785D01*
X98742500Y-138384642D01*
X98706214Y-138529785D01*
X98706214Y-138820071D01*
X98742500Y-138892642D01*
X98778785Y-138928928D01*
X98851357Y-138965214D01*
X98996500Y-138965214D01*
X99069071Y-138928928D01*
X99105357Y-138892642D01*
X99141642Y-138820071D01*
X99141642Y-138638642D01*
X99105357Y-138566071D01*
X99069071Y-138529785D01*
X98996500Y-138493500D01*
X98851357Y-138493500D01*
X98778785Y-138529785D01*
X98742500Y-138566071D01*
X98706214Y-138638642D01*
D18*
X90544952Y-168435261D02*
X90544952Y-167800261D01*
X90786857Y-167800261D01*
X90847333Y-167830500D01*
X90877571Y-167860738D01*
X90907809Y-167921214D01*
X90907809Y-168011928D01*
X90877571Y-168072404D01*
X90847333Y-168102642D01*
X90786857Y-168132880D01*
X90544952Y-168132880D01*
X91119476Y-167800261D02*
X91270666Y-168435261D01*
X91391619Y-167981690D01*
X91512571Y-168435261D01*
X91663761Y-167800261D01*
X92268523Y-168435261D02*
X92056857Y-168132880D01*
X91905666Y-168435261D02*
X91905666Y-167800261D01*
X92147571Y-167800261D01*
X92208047Y-167830500D01*
X92238285Y-167860738D01*
X92268523Y-167921214D01*
X92268523Y-168011928D01*
X92238285Y-168072404D01*
X92208047Y-168102642D01*
X92147571Y-168132880D01*
X91905666Y-168132880D01*
X92873285Y-168435261D02*
X92510428Y-168435261D01*
X92691857Y-168435261D02*
X92691857Y-167800261D01*
X92631380Y-167890976D01*
X92570904Y-167951452D01*
X92510428Y-167981690D01*
X116685785Y-149832785D02*
X116655547Y-149863023D01*
X116564833Y-149893261D01*
X116504357Y-149893261D01*
X116413642Y-149863023D01*
X116353166Y-149802547D01*
X116322928Y-149742071D01*
X116292690Y-149621119D01*
X116292690Y-149530404D01*
X116322928Y-149409452D01*
X116353166Y-149348976D01*
X116413642Y-149288500D01*
X116504357Y-149258261D01*
X116564833Y-149258261D01*
X116655547Y-149288500D01*
X116685785Y-149318738D01*
X116927690Y-149318738D02*
X116957928Y-149288500D01*
X117018404Y-149258261D01*
X117169595Y-149258261D01*
X117230071Y-149288500D01*
X117260309Y-149318738D01*
X117290547Y-149379214D01*
X117290547Y-149439690D01*
X117260309Y-149530404D01*
X116897452Y-149893261D01*
X117290547Y-149893261D01*
X117895309Y-149893261D02*
X117532452Y-149893261D01*
X117713880Y-149893261D02*
X117713880Y-149258261D01*
X117653404Y-149348976D01*
X117592928Y-149409452D01*
X117532452Y-149439690D01*
X90798347Y-166088785D02*
X90768109Y-166119023D01*
X90677395Y-166149261D01*
X90616919Y-166149261D01*
X90526204Y-166119023D01*
X90465728Y-166058547D01*
X90435490Y-165998071D01*
X90405252Y-165877119D01*
X90405252Y-165786404D01*
X90435490Y-165665452D01*
X90465728Y-165604976D01*
X90526204Y-165544500D01*
X90616919Y-165514261D01*
X90677395Y-165514261D01*
X90768109Y-165544500D01*
X90798347Y-165574738D01*
X91070490Y-166149261D02*
X91070490Y-165514261D01*
X91070490Y-165816642D02*
X91433347Y-165816642D01*
X91433347Y-166149261D02*
X91433347Y-165514261D01*
X92098585Y-166149261D02*
X91886919Y-165846880D01*
X91735728Y-166149261D02*
X91735728Y-165514261D01*
X91977633Y-165514261D01*
X92038109Y-165544500D01*
X92068347Y-165574738D01*
X92098585Y-165635214D01*
X92098585Y-165725928D01*
X92068347Y-165786404D01*
X92038109Y-165816642D01*
X91977633Y-165846880D01*
X91735728Y-165846880D01*
X92703347Y-165544500D02*
X92642871Y-165514261D01*
X92552157Y-165514261D01*
X92461442Y-165544500D01*
X92400966Y-165604976D01*
X92370728Y-165665452D01*
X92340490Y-165786404D01*
X92340490Y-165877119D01*
X92370728Y-165998071D01*
X92400966Y-166058547D01*
X92461442Y-166119023D01*
X92552157Y-166149261D01*
X92612633Y-166149261D01*
X92703347Y-166119023D01*
X92733585Y-166088785D01*
X92733585Y-165877119D01*
X92612633Y-165877119D01*
X93338347Y-166149261D02*
X92975490Y-166149261D01*
X93156919Y-166149261D02*
X93156919Y-165514261D01*
X93096442Y-165604976D01*
X93035966Y-165665452D01*
X92975490Y-165695690D01*
D11*
X98706214Y-161752642D02*
X99323071Y-161752642D01*
X99395642Y-161716357D01*
X99431928Y-161680071D01*
X99468214Y-161607500D01*
X99468214Y-161462357D01*
X99431928Y-161389785D01*
X99395642Y-161353500D01*
X99323071Y-161317214D01*
X98706214Y-161317214D01*
X99431928Y-160990642D02*
X99468214Y-160881785D01*
X99468214Y-160700357D01*
X99431928Y-160627785D01*
X99395642Y-160591500D01*
X99323071Y-160555214D01*
X99250500Y-160555214D01*
X99177928Y-160591500D01*
X99141642Y-160627785D01*
X99105357Y-160700357D01*
X99069071Y-160845500D01*
X99032785Y-160918071D01*
X98996500Y-160954357D01*
X98923928Y-160990642D01*
X98851357Y-160990642D01*
X98778785Y-160954357D01*
X98742500Y-160918071D01*
X98706214Y-160845500D01*
X98706214Y-160664071D01*
X98742500Y-160555214D01*
X99069071Y-159974642D02*
X99105357Y-159865785D01*
X99141642Y-159829500D01*
X99214214Y-159793214D01*
X99323071Y-159793214D01*
X99395642Y-159829500D01*
X99431928Y-159865785D01*
X99468214Y-159938357D01*
X99468214Y-160228642D01*
X98706214Y-160228642D01*
X98706214Y-159974642D01*
X98742500Y-159902071D01*
X98778785Y-159865785D01*
X98851357Y-159829500D01*
X98923928Y-159829500D01*
X98996500Y-159865785D01*
X99032785Y-159902071D01*
X99069071Y-159974642D01*
X99069071Y-160228642D01*
X99177928Y-159466642D02*
X99177928Y-158886071D01*
X98706214Y-158523214D02*
X99323071Y-158523214D01*
X99395642Y-158486928D01*
X99431928Y-158450642D01*
X99468214Y-158378071D01*
X99468214Y-158232928D01*
X99431928Y-158160357D01*
X99395642Y-158124071D01*
X99323071Y-158087785D01*
X98706214Y-158087785D01*
X99250500Y-157761214D02*
X99250500Y-157398357D01*
X99468214Y-157833785D02*
X98706214Y-157579785D01*
X99468214Y-157325785D01*
X99468214Y-156636357D02*
X99105357Y-156890357D01*
X99468214Y-157071785D02*
X98706214Y-157071785D01*
X98706214Y-156781500D01*
X98742500Y-156708928D01*
X98778785Y-156672642D01*
X98851357Y-156636357D01*
X98960214Y-156636357D01*
X99032785Y-156672642D01*
X99069071Y-156708928D01*
X99105357Y-156781500D01*
X99105357Y-157071785D01*
X98706214Y-156418642D02*
X98706214Y-155983214D01*
X99468214Y-156200928D02*
X98706214Y-156200928D01*
X99468214Y-155330071D02*
X99468214Y-155765500D01*
X99468214Y-155547785D02*
X98706214Y-155547785D01*
X98815071Y-155620357D01*
X98887642Y-155692928D01*
X98923928Y-155765500D01*
D18*
X92985166Y-146004642D02*
X92773500Y-146004642D01*
X92773500Y-146337261D02*
X92773500Y-145702261D01*
X93075880Y-145702261D01*
X93317785Y-146004642D02*
X93529452Y-146004642D01*
X93620166Y-146337261D02*
X93317785Y-146337261D01*
X93317785Y-145702261D01*
X93620166Y-145702261D01*
X93801595Y-145702261D02*
X94164452Y-145702261D01*
X93983023Y-146337261D02*
X93983023Y-145702261D01*
X94345880Y-145762738D02*
X94376119Y-145732500D01*
X94436595Y-145702261D01*
X94587785Y-145702261D01*
X94648261Y-145732500D01*
X94678500Y-145762738D01*
X94708738Y-145823214D01*
X94708738Y-145883690D01*
X94678500Y-145974404D01*
X94315642Y-146337261D01*
X94708738Y-146337261D01*
D11*
X105854500Y-135645071D02*
X105600500Y-135645071D01*
X105600500Y-136044214D02*
X105600500Y-135282214D01*
X105963357Y-135282214D01*
X106253642Y-135645071D02*
X106507642Y-135645071D01*
X106616500Y-136044214D02*
X106253642Y-136044214D01*
X106253642Y-135282214D01*
X106616500Y-135282214D01*
X106834214Y-135282214D02*
X107269642Y-135282214D01*
X107051928Y-136044214D02*
X107051928Y-135282214D01*
X107922785Y-136044214D02*
X107487357Y-136044214D01*
X107705071Y-136044214D02*
X107705071Y-135282214D01*
X107632500Y-135391071D01*
X107559928Y-135463642D01*
X107487357Y-135499928D01*
D18*
X106383666Y-153385761D02*
X106081285Y-153385761D01*
X106081285Y-152750761D01*
X106565095Y-152811238D02*
X106595333Y-152781000D01*
X106655809Y-152750761D01*
X106807000Y-152750761D01*
X106867476Y-152781000D01*
X106897714Y-152811238D01*
X106927952Y-152871714D01*
X106927952Y-152932190D01*
X106897714Y-153022904D01*
X106534857Y-153385761D01*
X106927952Y-153385761D01*
X115161785Y-101506261D02*
X114950119Y-101203880D01*
X114798928Y-101506261D02*
X114798928Y-100871261D01*
X115040833Y-100871261D01*
X115101309Y-100901500D01*
X115131547Y-100931738D01*
X115161785Y-100992214D01*
X115161785Y-101082928D01*
X115131547Y-101143404D01*
X115101309Y-101173642D01*
X115040833Y-101203880D01*
X114798928Y-101203880D01*
X115706071Y-101082928D02*
X115706071Y-101506261D01*
X115554880Y-100841023D02*
X115403690Y-101294595D01*
X115796785Y-101294595D01*
X115978214Y-100871261D02*
X116401547Y-100871261D01*
X116129404Y-101506261D01*
X114203238Y-107668785D02*
X114505619Y-107457119D01*
X114203238Y-107305928D02*
X114838238Y-107305928D01*
X114838238Y-107547833D01*
X114808000Y-107608309D01*
X114777761Y-107638547D01*
X114717285Y-107668785D01*
X114626571Y-107668785D01*
X114566095Y-107638547D01*
X114535857Y-107608309D01*
X114505619Y-107547833D01*
X114505619Y-107305928D01*
X114626571Y-108213071D02*
X114203238Y-108213071D01*
X114868476Y-108061880D02*
X114414904Y-107910690D01*
X114414904Y-108303785D01*
X114203238Y-108575928D02*
X114203238Y-108696880D01*
X114233476Y-108757357D01*
X114263714Y-108787595D01*
X114354428Y-108848071D01*
X114475380Y-108878309D01*
X114717285Y-108878309D01*
X114777761Y-108848071D01*
X114808000Y-108817833D01*
X114838238Y-108757357D01*
X114838238Y-108636404D01*
X114808000Y-108575928D01*
X114777761Y-108545690D01*
X114717285Y-108515452D01*
X114566095Y-108515452D01*
X114505619Y-108545690D01*
X114475380Y-108575928D01*
X114445142Y-108636404D01*
X114445142Y-108757357D01*
X114475380Y-108817833D01*
X114505619Y-108848071D01*
X114566095Y-108878309D01*
X117889261Y-108104214D02*
X117586880Y-108315880D01*
X117889261Y-108467071D02*
X117254261Y-108467071D01*
X117254261Y-108225166D01*
X117284500Y-108164690D01*
X117314738Y-108134452D01*
X117375214Y-108104214D01*
X117465928Y-108104214D01*
X117526404Y-108134452D01*
X117556642Y-108164690D01*
X117586880Y-108225166D01*
X117586880Y-108467071D01*
X117465928Y-107559928D02*
X117889261Y-107559928D01*
X117224023Y-107711119D02*
X117677595Y-107862309D01*
X117677595Y-107469214D01*
X117526404Y-107136595D02*
X117496166Y-107197071D01*
X117465928Y-107227309D01*
X117405452Y-107257547D01*
X117375214Y-107257547D01*
X117314738Y-107227309D01*
X117284500Y-107197071D01*
X117254261Y-107136595D01*
X117254261Y-107015642D01*
X117284500Y-106955166D01*
X117314738Y-106924928D01*
X117375214Y-106894690D01*
X117405452Y-106894690D01*
X117465928Y-106924928D01*
X117496166Y-106955166D01*
X117526404Y-107015642D01*
X117526404Y-107136595D01*
X117556642Y-107197071D01*
X117586880Y-107227309D01*
X117647357Y-107257547D01*
X117768309Y-107257547D01*
X117828785Y-107227309D01*
X117859023Y-107197071D01*
X117889261Y-107136595D01*
X117889261Y-107015642D01*
X117859023Y-106955166D01*
X117828785Y-106924928D01*
X117768309Y-106894690D01*
X117647357Y-106894690D01*
X117586880Y-106924928D01*
X117556642Y-106955166D01*
X117526404Y-107015642D01*
X93765309Y-142717761D02*
X93765309Y-142082761D01*
X93916500Y-142082761D01*
X94007214Y-142113000D01*
X94067690Y-142173476D01*
X94097928Y-142233952D01*
X94128166Y-142354904D01*
X94128166Y-142445619D01*
X94097928Y-142566571D01*
X94067690Y-142627047D01*
X94007214Y-142687523D01*
X93916500Y-142717761D01*
X93765309Y-142717761D01*
X94370071Y-142143238D02*
X94400309Y-142113000D01*
X94460785Y-142082761D01*
X94611976Y-142082761D01*
X94672452Y-142113000D01*
X94702690Y-142143238D01*
X94732928Y-142203714D01*
X94732928Y-142264190D01*
X94702690Y-142354904D01*
X94339833Y-142717761D01*
X94732928Y-142717761D01*
D11*
X93925571Y-129122714D02*
X93925571Y-129739571D01*
X93961857Y-129812142D01*
X93998142Y-129848428D01*
X94070714Y-129884714D01*
X94215857Y-129884714D01*
X94288428Y-129848428D01*
X94324714Y-129812142D01*
X94361000Y-129739571D01*
X94361000Y-129122714D01*
X94723857Y-129485571D02*
X94977857Y-129485571D01*
X95086714Y-129884714D02*
X94723857Y-129884714D01*
X94723857Y-129122714D01*
X95086714Y-129122714D01*
X95340714Y-129122714D02*
X95848714Y-129884714D01*
X95848714Y-129122714D02*
X95340714Y-129884714D01*
X96030142Y-129122714D02*
X96465571Y-129122714D01*
X96247857Y-129884714D02*
X96247857Y-129122714D01*
X97118714Y-129884714D02*
X96683285Y-129884714D01*
X96901000Y-129884714D02*
X96901000Y-129122714D01*
X96828428Y-129231571D01*
X96755857Y-129304142D01*
X96683285Y-129340428D01*
D10*
X96792142Y-122488476D02*
X96852619Y-122428000D01*
X96973571Y-122367523D01*
X97275952Y-122367523D01*
X97396904Y-122428000D01*
X97457380Y-122488476D01*
X97517857Y-122609428D01*
X97517857Y-122730380D01*
X97457380Y-122911809D01*
X96731666Y-123637523D01*
X97517857Y-123637523D01*
X97517857Y-126177523D02*
X96792142Y-126177523D01*
X97155000Y-126177523D02*
X97155000Y-124907523D01*
X97034047Y-125088952D01*
X96913095Y-125209904D01*
X96792142Y-125270380D01*
X92788619Y-100735190D02*
X92304809Y-101073857D01*
X92788619Y-101315761D02*
X91772619Y-101315761D01*
X91772619Y-100928714D01*
X91821000Y-100831952D01*
X91869380Y-100783571D01*
X91966142Y-100735190D01*
X92111285Y-100735190D01*
X92208047Y-100783571D01*
X92256428Y-100831952D01*
X92304809Y-100928714D01*
X92304809Y-101315761D01*
X92740238Y-100348142D02*
X92788619Y-100203000D01*
X92788619Y-99961095D01*
X92740238Y-99864333D01*
X92691857Y-99815952D01*
X92595095Y-99767571D01*
X92498333Y-99767571D01*
X92401571Y-99815952D01*
X92353190Y-99864333D01*
X92304809Y-99961095D01*
X92256428Y-100154619D01*
X92208047Y-100251380D01*
X92159666Y-100299761D01*
X92062904Y-100348142D01*
X91966142Y-100348142D01*
X91869380Y-100299761D01*
X91821000Y-100251380D01*
X91772619Y-100154619D01*
X91772619Y-99912714D01*
X91821000Y-99767571D01*
X91772619Y-99477285D02*
X91772619Y-98896714D01*
X92788619Y-99187000D02*
X91772619Y-99187000D01*
X92788619Y-98025857D02*
X92788619Y-98606428D01*
X92788619Y-98316142D02*
X91772619Y-98316142D01*
X91917761Y-98412904D01*
X92014523Y-98509666D01*
X92062904Y-98606428D01*
X117211928Y-100771476D02*
X117260309Y-100626333D01*
X117308690Y-100577952D01*
X117405452Y-100529571D01*
X117550595Y-100529571D01*
X117647357Y-100577952D01*
X117695738Y-100626333D01*
X117744119Y-100723095D01*
X117744119Y-101110142D01*
X116728119Y-101110142D01*
X116728119Y-100771476D01*
X116776500Y-100674714D01*
X116824880Y-100626333D01*
X116921642Y-100577952D01*
X117018404Y-100577952D01*
X117115166Y-100626333D01*
X117163547Y-100674714D01*
X117211928Y-100771476D01*
X117211928Y-101110142D01*
X116728119Y-100094142D02*
X117550595Y-100094142D01*
X117647357Y-100045761D01*
X117695738Y-99997380D01*
X117744119Y-99900619D01*
X117744119Y-99707095D01*
X117695738Y-99610333D01*
X117647357Y-99561952D01*
X117550595Y-99513571D01*
X116728119Y-99513571D01*
X116728119Y-99174904D02*
X116728119Y-98594333D01*
X117744119Y-98884619D02*
X116728119Y-98884619D01*
X117744119Y-97723476D02*
X117744119Y-98304047D01*
X117744119Y-98013761D02*
X116728119Y-98013761D01*
X116873261Y-98110523D01*
X116970023Y-98207285D01*
X117018404Y-98304047D01*
D11*
X92220142Y-109564714D02*
X91966142Y-109201857D01*
X91784714Y-109564714D02*
X91784714Y-108802714D01*
X92075000Y-108802714D01*
X92147571Y-108839000D01*
X92183857Y-108875285D01*
X92220142Y-108947857D01*
X92220142Y-109056714D01*
X92183857Y-109129285D01*
X92147571Y-109165571D01*
X92075000Y-109201857D01*
X91784714Y-109201857D01*
X92474142Y-108802714D02*
X92945857Y-108802714D01*
X92691857Y-109093000D01*
X92800714Y-109093000D01*
X92873285Y-109129285D01*
X92909571Y-109165571D01*
X92945857Y-109238142D01*
X92945857Y-109419571D01*
X92909571Y-109492142D01*
X92873285Y-109528428D01*
X92800714Y-109564714D01*
X92583000Y-109564714D01*
X92510428Y-109528428D01*
X92474142Y-109492142D01*
X93236142Y-108875285D02*
X93272428Y-108839000D01*
X93345000Y-108802714D01*
X93526428Y-108802714D01*
X93599000Y-108839000D01*
X93635285Y-108875285D01*
X93671571Y-108947857D01*
X93671571Y-109020428D01*
X93635285Y-109129285D01*
X93199857Y-109564714D01*
X93671571Y-109564714D01*
X113846428Y-96229714D02*
X113846428Y-96846571D01*
X113882714Y-96919142D01*
X113919000Y-96955428D01*
X113991571Y-96991714D01*
X114136714Y-96991714D01*
X114209285Y-96955428D01*
X114245571Y-96919142D01*
X114281857Y-96846571D01*
X114281857Y-96229714D01*
X114681000Y-96991714D02*
X114826142Y-96991714D01*
X114898714Y-96955428D01*
X114935000Y-96919142D01*
X115007571Y-96810285D01*
X115043857Y-96665142D01*
X115043857Y-96374857D01*
X115007571Y-96302285D01*
X114971285Y-96266000D01*
X114898714Y-96229714D01*
X114753571Y-96229714D01*
X114681000Y-96266000D01*
X114644714Y-96302285D01*
X114608428Y-96374857D01*
X114608428Y-96556285D01*
X114644714Y-96628857D01*
X114681000Y-96665142D01*
X114753571Y-96701428D01*
X114898714Y-96701428D01*
X114971285Y-96665142D01*
X115007571Y-96628857D01*
X115043857Y-96556285D01*
D10*
X93889285Y-97221523D02*
X93768333Y-97161047D01*
X93707857Y-97100571D01*
X93647380Y-96979619D01*
X93647380Y-96616761D01*
X93707857Y-96495809D01*
X93768333Y-96435333D01*
X93889285Y-96374857D01*
X94070714Y-96374857D01*
X94191666Y-96435333D01*
X94252142Y-96495809D01*
X94312619Y-96616761D01*
X94312619Y-96979619D01*
X94252142Y-97100571D01*
X94191666Y-97161047D01*
X94070714Y-97221523D01*
X93889285Y-97221523D01*
X100632380Y-92496666D02*
X101237142Y-92496666D01*
X100511428Y-92859523D02*
X100934761Y-91589523D01*
X101358095Y-92859523D01*
X101781428Y-92012857D02*
X101781428Y-92859523D01*
X101781428Y-92133809D02*
X101841904Y-92073333D01*
X101962857Y-92012857D01*
X102144285Y-92012857D01*
X102265238Y-92073333D01*
X102325714Y-92194285D01*
X102325714Y-92859523D01*
X102749047Y-92012857D02*
X103232857Y-92012857D01*
X102930476Y-91589523D02*
X102930476Y-92678095D01*
X102990952Y-92799047D01*
X103111904Y-92859523D01*
X103232857Y-92859523D01*
X104140000Y-92799047D02*
X104019047Y-92859523D01*
X103777142Y-92859523D01*
X103656190Y-92799047D01*
X103595714Y-92678095D01*
X103595714Y-92194285D01*
X103656190Y-92073333D01*
X103777142Y-92012857D01*
X104019047Y-92012857D01*
X104140000Y-92073333D01*
X104200476Y-92194285D01*
X104200476Y-92315238D01*
X103595714Y-92436190D01*
X104744761Y-92012857D02*
X104744761Y-92859523D01*
X104744761Y-92133809D02*
X104805238Y-92073333D01*
X104926190Y-92012857D01*
X105107619Y-92012857D01*
X105228571Y-92073333D01*
X105289047Y-92194285D01*
X105289047Y-92859523D01*
X105893809Y-92012857D02*
X105893809Y-92859523D01*
X105893809Y-92133809D02*
X105954285Y-92073333D01*
X106075238Y-92012857D01*
X106256666Y-92012857D01*
X106377619Y-92073333D01*
X106438095Y-92194285D01*
X106438095Y-92859523D01*
X107587142Y-92859523D02*
X107587142Y-92194285D01*
X107526666Y-92073333D01*
X107405714Y-92012857D01*
X107163809Y-92012857D01*
X107042857Y-92073333D01*
X107587142Y-92799047D02*
X107466190Y-92859523D01*
X107163809Y-92859523D01*
X107042857Y-92799047D01*
X106982380Y-92678095D01*
X106982380Y-92557142D01*
X107042857Y-92436190D01*
X107163809Y-92375714D01*
X107466190Y-92375714D01*
X107587142Y-92315238D01*
X97971428Y-108722428D02*
X98310095Y-108722428D01*
X98455238Y-109254619D02*
X97971428Y-109254619D01*
X97971428Y-108238619D01*
X98455238Y-108238619D01*
X98842285Y-109206238D02*
X98987428Y-109254619D01*
X99229333Y-109254619D01*
X99326095Y-109206238D01*
X99374476Y-109157857D01*
X99422857Y-109061095D01*
X99422857Y-108964333D01*
X99374476Y-108867571D01*
X99326095Y-108819190D01*
X99229333Y-108770809D01*
X99035809Y-108722428D01*
X98939047Y-108674047D01*
X98890666Y-108625666D01*
X98842285Y-108528904D01*
X98842285Y-108432142D01*
X98890666Y-108335380D01*
X98939047Y-108287000D01*
X99035809Y-108238619D01*
X99277714Y-108238619D01*
X99422857Y-108287000D01*
X99858285Y-109254619D02*
X99858285Y-108238619D01*
X100245333Y-108238619D01*
X100342095Y-108287000D01*
X100390476Y-108335380D01*
X100438857Y-108432142D01*
X100438857Y-108577285D01*
X100390476Y-108674047D01*
X100342095Y-108722428D01*
X100245333Y-108770809D01*
X99858285Y-108770809D01*
X100874285Y-108867571D02*
X101648380Y-108867571D01*
X102035428Y-108238619D02*
X102277333Y-109254619D01*
X102470857Y-108528904D01*
X102664380Y-109254619D01*
X102906285Y-108238619D01*
X103873904Y-109254619D02*
X103535238Y-108770809D01*
X103293333Y-109254619D02*
X103293333Y-108238619D01*
X103680380Y-108238619D01*
X103777142Y-108287000D01*
X103825523Y-108335380D01*
X103873904Y-108432142D01*
X103873904Y-108577285D01*
X103825523Y-108674047D01*
X103777142Y-108722428D01*
X103680380Y-108770809D01*
X103293333Y-108770809D01*
X104502857Y-108238619D02*
X104696380Y-108238619D01*
X104793142Y-108287000D01*
X104889904Y-108383761D01*
X104938285Y-108577285D01*
X104938285Y-108915952D01*
X104889904Y-109109476D01*
X104793142Y-109206238D01*
X104696380Y-109254619D01*
X104502857Y-109254619D01*
X104406095Y-109206238D01*
X104309333Y-109109476D01*
X104260952Y-108915952D01*
X104260952Y-108577285D01*
X104309333Y-108383761D01*
X104406095Y-108287000D01*
X104502857Y-108238619D01*
X105567238Y-108238619D02*
X105760761Y-108238619D01*
X105857523Y-108287000D01*
X105954285Y-108383761D01*
X106002666Y-108577285D01*
X106002666Y-108915952D01*
X105954285Y-109109476D01*
X105857523Y-109206238D01*
X105760761Y-109254619D01*
X105567238Y-109254619D01*
X105470476Y-109206238D01*
X105373714Y-109109476D01*
X105325333Y-108915952D01*
X105325333Y-108577285D01*
X105373714Y-108383761D01*
X105470476Y-108287000D01*
X105567238Y-108238619D01*
X106438095Y-109254619D02*
X106438095Y-108238619D01*
X106776761Y-108964333D01*
X107115428Y-108238619D01*
X107115428Y-109254619D01*
X107599238Y-108867571D02*
X108373333Y-108867571D01*
X108760380Y-108238619D02*
X109389333Y-108238619D01*
X109050666Y-108625666D01*
X109195809Y-108625666D01*
X109292571Y-108674047D01*
X109340952Y-108722428D01*
X109389333Y-108819190D01*
X109389333Y-109061095D01*
X109340952Y-109157857D01*
X109292571Y-109206238D01*
X109195809Y-109254619D01*
X108905523Y-109254619D01*
X108808761Y-109206238D01*
X108760380Y-109157857D01*
X109776380Y-108335380D02*
X109824761Y-108287000D01*
X109921523Y-108238619D01*
X110163428Y-108238619D01*
X110260190Y-108287000D01*
X110308571Y-108335380D01*
X110356952Y-108432142D01*
X110356952Y-108528904D01*
X110308571Y-108674047D01*
X109728000Y-109254619D01*
X110356952Y-109254619D01*
X98080285Y-97189619D02*
X97499714Y-97189619D01*
X97790000Y-97189619D02*
X97790000Y-96173619D01*
X97693238Y-96318761D01*
X97596476Y-96415523D01*
X97499714Y-96463904D01*
X109032523Y-96173619D02*
X109661476Y-96173619D01*
X109322809Y-96560666D01*
X109467952Y-96560666D01*
X109564714Y-96609047D01*
X109613095Y-96657428D01*
X109661476Y-96754190D01*
X109661476Y-96996095D01*
X109613095Y-97092857D01*
X109564714Y-97141238D01*
X109467952Y-97189619D01*
X109177666Y-97189619D01*
X109080904Y-97141238D01*
X109032523Y-97092857D01*
X110242047Y-96609047D02*
X110145285Y-96560666D01*
X110096904Y-96512285D01*
X110048523Y-96415523D01*
X110048523Y-96367142D01*
X110096904Y-96270380D01*
X110145285Y-96222000D01*
X110242047Y-96173619D01*
X110435571Y-96173619D01*
X110532333Y-96222000D01*
X110580714Y-96270380D01*
X110629095Y-96367142D01*
X110629095Y-96415523D01*
X110580714Y-96512285D01*
X110532333Y-96560666D01*
X110435571Y-96609047D01*
X110242047Y-96609047D01*
X110145285Y-96657428D01*
X110096904Y-96705809D01*
X110048523Y-96802571D01*
X110048523Y-96996095D01*
X110096904Y-97092857D01*
X110145285Y-97141238D01*
X110242047Y-97189619D01*
X110435571Y-97189619D01*
X110532333Y-97141238D01*
X110580714Y-97092857D01*
X110629095Y-96996095D01*
X110629095Y-96802571D01*
X110580714Y-96705809D01*
X110532333Y-96657428D01*
X110435571Y-96609047D01*
X98884619Y-112163523D02*
X98884619Y-112744095D01*
X98884619Y-112453809D02*
X97868619Y-112453809D01*
X98013761Y-112550571D01*
X98110523Y-112647333D01*
X98158904Y-112744095D01*
X97868619Y-111244285D02*
X97868619Y-111728095D01*
X98352428Y-111776476D01*
X98304047Y-111728095D01*
X98255666Y-111631333D01*
X98255666Y-111389428D01*
X98304047Y-111292666D01*
X98352428Y-111244285D01*
X98449190Y-111195904D01*
X98691095Y-111195904D01*
X98787857Y-111244285D01*
X98836238Y-111292666D01*
X98884619Y-111389428D01*
X98884619Y-111631333D01*
X98836238Y-111728095D01*
X98787857Y-111776476D01*
X109395380Y-112744095D02*
X109347000Y-112695714D01*
X109298619Y-112598952D01*
X109298619Y-112357047D01*
X109347000Y-112260285D01*
X109395380Y-112211904D01*
X109492142Y-112163523D01*
X109588904Y-112163523D01*
X109734047Y-112211904D01*
X110314619Y-112792476D01*
X110314619Y-112163523D01*
X109637285Y-111292666D02*
X110314619Y-111292666D01*
X109250238Y-111534571D02*
X109975952Y-111776476D01*
X109975952Y-111147523D01*
D11*
X117692714Y-158913285D02*
X117692714Y-159276142D01*
X116930714Y-159276142D01*
X117475000Y-158695571D02*
X117475000Y-158332714D01*
X117692714Y-158768142D02*
X116930714Y-158514142D01*
X117692714Y-158260142D01*
X117692714Y-158006142D02*
X116930714Y-158006142D01*
X117692714Y-157570714D01*
X116930714Y-157570714D01*
X117765285Y-157389285D02*
X117765285Y-156808714D01*
X117620142Y-156191857D02*
X117656428Y-156228142D01*
X117692714Y-156337000D01*
X117692714Y-156409571D01*
X117656428Y-156518428D01*
X117583857Y-156591000D01*
X117511285Y-156627285D01*
X117366142Y-156663571D01*
X117257285Y-156663571D01*
X117112142Y-156627285D01*
X117039571Y-156591000D01*
X116967000Y-156518428D01*
X116930714Y-156409571D01*
X116930714Y-156337000D01*
X116967000Y-156228142D01*
X117003285Y-156191857D01*
X116930714Y-155720142D02*
X116930714Y-155575000D01*
X116967000Y-155502428D01*
X117039571Y-155429857D01*
X117184714Y-155393571D01*
X117438714Y-155393571D01*
X117583857Y-155429857D01*
X117656428Y-155502428D01*
X117692714Y-155575000D01*
X117692714Y-155720142D01*
X117656428Y-155792714D01*
X117583857Y-155865285D01*
X117438714Y-155901571D01*
X117184714Y-155901571D01*
X117039571Y-155865285D01*
X116967000Y-155792714D01*
X116930714Y-155720142D01*
X117692714Y-155067000D02*
X116930714Y-155067000D01*
X117692714Y-154631571D01*
X116930714Y-154631571D01*
X117692714Y-153869571D02*
X117692714Y-154305000D01*
X117692714Y-154087285D02*
X116930714Y-154087285D01*
X117039571Y-154159857D01*
X117112142Y-154232428D01*
X117148428Y-154305000D01*
D12*
X94669428Y-132515428D02*
X94645238Y-132539619D01*
X94572666Y-132563809D01*
X94524285Y-132563809D01*
X94451714Y-132539619D01*
X94403333Y-132491238D01*
X94379142Y-132442857D01*
X94354952Y-132346095D01*
X94354952Y-132273523D01*
X94379142Y-132176761D01*
X94403333Y-132128380D01*
X94451714Y-132080000D01*
X94524285Y-132055809D01*
X94572666Y-132055809D01*
X94645238Y-132080000D01*
X94669428Y-132104190D01*
X94862952Y-132104190D02*
X94887142Y-132080000D01*
X94935523Y-132055809D01*
X95056476Y-132055809D01*
X95104857Y-132080000D01*
X95129047Y-132104190D01*
X95153238Y-132152571D01*
X95153238Y-132200952D01*
X95129047Y-132273523D01*
X94838761Y-132563809D01*
X95153238Y-132563809D01*
X95467714Y-132055809D02*
X95516095Y-132055809D01*
X95564476Y-132080000D01*
X95588666Y-132104190D01*
X95612857Y-132152571D01*
X95637047Y-132249333D01*
X95637047Y-132370285D01*
X95612857Y-132467047D01*
X95588666Y-132515428D01*
X95564476Y-132539619D01*
X95516095Y-132563809D01*
X95467714Y-132563809D01*
X95419333Y-132539619D01*
X95395142Y-132515428D01*
X95370952Y-132467047D01*
X95346761Y-132370285D01*
X95346761Y-132249333D01*
X95370952Y-132152571D01*
X95395142Y-132104190D01*
X95419333Y-132080000D01*
X95467714Y-132055809D01*
D11*
X113746642Y-133431642D02*
X113710357Y-133467928D01*
X113601500Y-133504214D01*
X113528928Y-133504214D01*
X113420071Y-133467928D01*
X113347500Y-133395357D01*
X113311214Y-133322785D01*
X113274928Y-133177642D01*
X113274928Y-133068785D01*
X113311214Y-132923642D01*
X113347500Y-132851071D01*
X113420071Y-132778500D01*
X113528928Y-132742214D01*
X113601500Y-132742214D01*
X113710357Y-132778500D01*
X113746642Y-132814785D01*
X114036928Y-132814785D02*
X114073214Y-132778500D01*
X114145785Y-132742214D01*
X114327214Y-132742214D01*
X114399785Y-132778500D01*
X114436071Y-132814785D01*
X114472357Y-132887357D01*
X114472357Y-132959928D01*
X114436071Y-133068785D01*
X114000642Y-133504214D01*
X114472357Y-133504214D01*
X114726357Y-132742214D02*
X115234357Y-132742214D01*
X114907785Y-133504214D01*
D10*
X114514690Y-135853714D02*
X115482309Y-135853714D01*
X114998500Y-136337523D02*
X114998500Y-135369904D01*
X112957190Y-138972714D02*
X113924809Y-138972714D01*
X113441000Y-139456523D02*
X113441000Y-138488904D01*
M02*
