G04 #@! TF.GenerationSoftware,KiCad,Pcbnew,5.99.0-unknown-d20d310~100~ubuntu18.04.1*
G04 #@! TF.CreationDate,2019-12-17T15:54:16+02:00*
G04 #@! TF.ProjectId,ESP32-PoE_Rev_E,45535033-322d-4506-9f45-5f5265765f45,E*
G04 #@! TF.SameCoordinates,Original*
G04 #@! TF.FileFunction,Soldermask,Bot*
G04 #@! TF.FilePolarity,Negative*
%FSLAX46Y46*%
G04 Gerber Fmt 4.6, Leading zero omitted, Abs format (unit mm)*
G04 Created by KiCad (PCBNEW 5.99.0-unknown-d20d310~100~ubuntu18.04.1) date 2019-12-17 15:54:16*
%MOMM*%
%LPD*%
G04 APERTURE LIST*
%ADD10R,0.609600X0.863600*%
%ADD11R,0.601600X0.651600*%
%ADD12R,1.501600X1.101600*%
%ADD13R,1.301600X0.651600*%
%ADD14R,1.625600X1.371600*%
%ADD15R,0.651600X0.601600*%
%ADD16R,1.117600X1.117600*%
%ADD17R,1.371600X1.625600*%
%ADD18R,1.501600X1.501600*%
%ADD19C,1.501600*%
%ADD20C,1.254000*%
%ADD21R,1.101600X1.501600*%
%ADD22C,1.879600*%
%ADD23R,1.879600X1.879600*%
%ADD24R,1.371600X0.426600*%
%ADD25R,1.879600X1.117600*%
%ADD26R,0.601600X1.101600*%
%ADD27R,1.601600X1.301600*%
%ADD28C,0.701600*%
%ADD29O,1.901600X1.301600*%
%ADD30R,1.117600X0.482600*%
%ADD31R,1.117600X0.736600*%
%ADD32R,0.482600X1.117600*%
%ADD33R,0.736600X1.117600*%
%ADD34R,3.701600X3.701600*%
%ADD35R,0.800000X0.800000*%
%ADD36R,1.822400X1.822400*%
%ADD37R,0.351600X0.901600*%
%ADD38R,0.901600X0.351600*%
%ADD39R,1.101600X0.501600*%
%ADD40R,0.501600X1.101600*%
%ADD41R,2.901599X2.901599*%
%ADD42C,1.301600*%
%ADD43C,0.801600*%
%ADD44R,1.117600X1.879600*%
%ADD45R,1.501600X1.301600*%
%ADD46R,0.863600X0.609600*%
%ADD47C,2.101600*%
%ADD48C,1.625600*%
%ADD49O,1.701600X3.101599*%
%ADD50C,3.401601*%
G04 APERTURE END LIST*
D10*
X113030000Y-129286000D03*
X113792000Y-129286000D03*
X113792000Y-134239000D03*
X113030000Y-134239000D03*
D11*
X91948000Y-167005000D03*
X90932000Y-167005000D03*
X90932000Y-166116000D03*
X91948000Y-166116000D03*
D12*
X92329000Y-160396000D03*
X92329000Y-156596000D03*
X94361000Y-156596000D03*
X94361000Y-160396000D03*
D11*
X106553000Y-125666500D03*
X105537000Y-125666500D03*
X91948000Y-167894000D03*
X90932000Y-167894000D03*
X92329000Y-101854000D03*
X93345000Y-101854000D03*
X98298000Y-168402000D03*
X97282000Y-168402000D03*
D13*
X93442000Y-168018500D03*
X93442000Y-167068500D03*
X93442000Y-166118500D03*
X96042000Y-168018500D03*
X96042000Y-166118500D03*
D14*
X96964500Y-159131000D03*
X98996500Y-159131000D03*
D15*
X97282000Y-125095000D03*
X97282000Y-124079000D03*
D16*
X99568000Y-127127000D03*
X97790000Y-127127000D03*
D11*
X108839000Y-125666500D03*
X107823000Y-125666500D03*
D17*
X101219000Y-116713000D03*
X103251000Y-116713000D03*
D18*
X95638620Y-163852860D03*
D19*
X97650300Y-163850320D03*
D20*
X116586000Y-168529000D03*
X116459000Y-96774000D03*
X91821000Y-96774000D03*
D11*
X105791000Y-147447000D03*
X106807000Y-147447000D03*
X104521000Y-151003000D03*
X105537000Y-151003000D03*
D15*
X113157000Y-152146000D03*
X113157000Y-153162000D03*
D11*
X104521000Y-153543000D03*
X105537000Y-153543000D03*
D15*
X93218000Y-117221000D03*
X93218000Y-118237000D03*
X104140000Y-122682000D03*
X104140000Y-123698000D03*
D11*
X104140000Y-124587000D03*
X105156000Y-124587000D03*
D15*
X111760000Y-108585000D03*
X111760000Y-109601000D03*
D11*
X102489000Y-120269000D03*
X101473000Y-120269000D03*
X109982000Y-127635000D03*
X110998000Y-127635000D03*
D15*
X105537000Y-129032000D03*
X105537000Y-128016000D03*
X106934000Y-152400000D03*
X106934000Y-151384000D03*
D11*
X90932000Y-169291000D03*
X91948000Y-169291000D03*
D15*
X115951000Y-151511000D03*
X115951000Y-152527000D03*
X114681000Y-152146000D03*
X114681000Y-153162000D03*
X110617000Y-152908000D03*
X110617000Y-153924000D03*
X112014000Y-152908000D03*
X112014000Y-153924000D03*
X108331000Y-152908000D03*
X108331000Y-153924000D03*
X109728000Y-152908000D03*
X109728000Y-153924000D03*
D11*
X94234000Y-169291000D03*
X95250000Y-169291000D03*
D15*
X96393000Y-124079000D03*
X96393000Y-125095000D03*
X97663000Y-167259000D03*
X97663000Y-166243000D03*
D11*
X91313000Y-148209000D03*
X92329000Y-148209000D03*
X91313000Y-149606000D03*
X92329000Y-149606000D03*
D21*
X103571040Y-140116560D03*
X105473500Y-140116560D03*
X104518460Y-142326360D03*
D22*
X116840000Y-130840000D03*
X116840000Y-128300000D03*
X116840000Y-125760000D03*
D23*
X116840000Y-123220000D03*
D22*
X116840000Y-133380000D03*
X116840000Y-135920000D03*
X116840000Y-141000000D03*
X116840000Y-138460000D03*
X116840000Y-143540000D03*
X116840000Y-146080000D03*
X91440000Y-130840000D03*
X91440000Y-128300000D03*
X91440000Y-125760000D03*
D23*
X91440000Y-123220000D03*
D22*
X91440000Y-133380000D03*
X91440000Y-135920000D03*
X91440000Y-141000000D03*
X91440000Y-138460000D03*
X91440000Y-143540000D03*
X91440000Y-146080000D03*
D16*
X99314000Y-167894000D03*
X99314000Y-166116000D03*
D24*
X93916500Y-150880000D03*
X93916500Y-150230000D03*
X93916500Y-149580000D03*
X93916500Y-148930000D03*
X93916500Y-148280000D03*
X93916500Y-147630000D03*
X93916500Y-146980000D03*
X93916500Y-146330000D03*
X93916500Y-145680000D03*
X93916500Y-145030000D03*
X101155500Y-145030000D03*
X101155500Y-145680000D03*
X101155500Y-146330000D03*
X101155500Y-146980000D03*
X101155500Y-147630000D03*
X101155500Y-148280000D03*
X101155500Y-148930000D03*
X101155500Y-149580000D03*
X101155500Y-150230000D03*
X101155500Y-150880000D03*
D21*
X94300040Y-134401560D03*
X96202500Y-134401560D03*
X95247460Y-136611360D03*
D14*
X101219000Y-118618000D03*
X103251000Y-118618000D03*
D25*
X116459000Y-159258000D03*
X116459000Y-155702000D03*
D26*
X100290000Y-108587000D03*
X101390000Y-108587000D03*
X102490000Y-108587000D03*
X103590000Y-108587000D03*
X104340000Y-108587000D03*
X105040000Y-108587000D03*
X105790000Y-108587000D03*
X106890000Y-108587000D03*
X107990000Y-108587000D03*
D27*
X109440000Y-110337000D03*
X98840000Y-110337000D03*
X109440000Y-114787000D03*
X98840000Y-114787000D03*
D16*
X105283000Y-145542000D03*
X107061000Y-145542000D03*
X104013000Y-152273000D03*
X105791000Y-152273000D03*
X105791000Y-144018000D03*
X104013000Y-144018000D03*
X101600000Y-152908000D03*
X99822000Y-152908000D03*
D28*
X95626000Y-156242000D03*
X95626000Y-160242000D03*
D29*
X93476000Y-154642000D03*
X96946000Y-154642000D03*
X96946000Y-161842000D03*
X93476000Y-161842000D03*
D30*
X107188000Y-141605000D03*
X107188000Y-142367000D03*
X108712000Y-141605000D03*
X108712000Y-142367000D03*
D31*
X107188000Y-140716000D03*
X108712000Y-140716000D03*
X107188000Y-143256000D03*
X108712000Y-143256000D03*
D32*
X95631000Y-108077000D03*
X94869000Y-108077000D03*
X95631000Y-109601000D03*
X94869000Y-109601000D03*
D33*
X96520000Y-108077000D03*
X96520000Y-109601000D03*
X93980000Y-108077000D03*
X93980000Y-109601000D03*
D21*
X96453960Y-131028440D03*
X94551500Y-131028440D03*
X95506540Y-128818640D03*
D14*
X104267000Y-149606000D03*
X106299000Y-149606000D03*
D11*
X93345000Y-143129000D03*
X94361000Y-143129000D03*
D21*
X116400000Y-116195000D03*
X112600000Y-116195000D03*
D15*
X116459000Y-113792000D03*
X116459000Y-112776000D03*
D34*
X110744000Y-148844000D03*
D35*
X112044000Y-149344000D03*
X112044000Y-148344000D03*
X111244000Y-147544000D03*
X110244000Y-147544000D03*
X109444000Y-148344000D03*
X109444000Y-149344000D03*
X110244000Y-150144000D03*
X111244000Y-150144000D03*
D36*
X110744000Y-148844000D03*
D37*
X108994000Y-151294000D03*
X109494000Y-151294000D03*
X109994000Y-151294000D03*
X110494000Y-151294000D03*
X110994000Y-151294000D03*
X111494000Y-151294000D03*
X111994000Y-151294000D03*
X112494000Y-151294000D03*
D38*
X113194000Y-150594000D03*
X113194000Y-150094000D03*
X113194000Y-149594000D03*
X113194000Y-149094000D03*
X113194000Y-148594000D03*
X113194000Y-148094000D03*
X113194000Y-147594000D03*
X113194000Y-147094000D03*
D37*
X112494000Y-146394000D03*
X111994000Y-146394000D03*
X111494000Y-146394000D03*
X110994000Y-146394000D03*
X110494000Y-146394000D03*
X109994000Y-146394000D03*
X109494000Y-146394000D03*
X108994000Y-146394000D03*
D38*
X108294000Y-147094000D03*
X108294000Y-147594000D03*
X108294000Y-148094000D03*
X108294000Y-148594000D03*
X108294000Y-149094000D03*
X108294000Y-149594000D03*
X108294000Y-150094000D03*
X108294000Y-150594000D03*
D39*
X106616000Y-132645000D03*
X106616000Y-131845000D03*
X106616000Y-131045000D03*
X106616000Y-130245000D03*
D40*
X106966000Y-129095000D03*
X107766000Y-129095000D03*
X108566000Y-129095000D03*
X109366000Y-129095000D03*
X110166000Y-129095000D03*
X110966000Y-129095000D03*
D39*
X111316000Y-130245000D03*
X111316000Y-131045000D03*
X111316000Y-131845000D03*
X111316000Y-132645000D03*
D40*
X110966000Y-133795000D03*
X110166000Y-133795000D03*
X109366000Y-133795000D03*
X108566000Y-133795000D03*
X107766000Y-133795000D03*
X106966000Y-133795000D03*
D41*
X108966000Y-131445000D03*
D15*
X94615000Y-133223000D03*
X94615000Y-132207000D03*
X96520000Y-132207000D03*
X96520000Y-133223000D03*
D16*
X106426000Y-126873000D03*
X108204000Y-126873000D03*
D21*
X94107000Y-120650000D03*
X96009460Y-120650000D03*
X95054420Y-122859800D03*
D32*
X106680000Y-117221000D03*
X105918000Y-117221000D03*
X106680000Y-118745000D03*
X105918000Y-118745000D03*
D33*
X107569000Y-117221000D03*
X107569000Y-118745000D03*
X105029000Y-117221000D03*
X105029000Y-118745000D03*
D42*
X107950000Y-124333000D03*
X100330000Y-124333000D03*
D43*
X91421000Y-104267000D03*
X93221000Y-104267000D03*
X115059000Y-104267000D03*
X116859000Y-104267000D03*
D44*
X108966000Y-122301000D03*
X105410000Y-122301000D03*
D11*
X96012000Y-138684000D03*
X97028000Y-138684000D03*
D45*
X95969000Y-140043000D03*
X93769000Y-141643000D03*
X93769000Y-140043000D03*
X95969000Y-141643000D03*
D46*
X90932000Y-164973000D03*
X90932000Y-164211000D03*
D47*
X103140000Y-104235000D03*
D48*
X102616000Y-155806000D03*
X103886000Y-158346000D03*
X105156000Y-155806000D03*
X106426000Y-158346000D03*
X107696000Y-155806000D03*
X108966000Y-158346000D03*
X110236000Y-155806000D03*
X111506000Y-158346000D03*
X112776000Y-155806000D03*
X114046000Y-158346000D03*
D49*
X100531000Y-161946000D03*
X116131000Y-161946000D03*
D50*
X102616000Y-164996000D03*
X114046000Y-164996000D03*
M02*
